<?xml version="1.0" standalone="no"?>
<!DOCTYPE svg PUBLIC "-//W3C//DTD SVG 1.1//EN" "http://www.w3.org/Graphics/SVG/1.1/DTD/svg11.dtd" >
<svg>
<metadata>
Created by FontForge 20090622 at Tue May 19 19:06:27 2015
 By deploy user
Copyright &#194;&#169; The digitally encoded machine readable outline data for producing the typefaces licensed to you is copyrighted &#194;&#169;, 2011 by The Foundry, London. All rights reserved.
</metadata>
<defs>
<font id="FoundryMonolineOT3-MedIta" horiz-adv-x="410" >
  <font-face 
    font-family="Foundry Monoline OT3 MedIta"
    font-weight="500"
    font-style="italic"
    font-stretch="normal"
    units-per-em="1000"
    panose-1="2 0 5 0 3 0 0 9 0 4"
    ascent="700"
    descent="-300"
    x-height="484"
    cap-height="667"
    bbox="-262 -232 1557 1026"
    underline-thickness="50"
    underline-position="-50"
    slope="-12"
    unicode-range="U+0020-U+FFF3"
  />
<missing-glyph horiz-adv-x="500" 
d="M61 700h500l-123 -700h-499zM159 625l100 -208l164 208h-264zM243 277l-160 -202h257zM114 547l-72 -405l165 210zM295 343l91 -189l68 391z" />
    <glyph glyph-name="IJ" unicode="IJ" horiz-adv-x="791" 
d="M231 667l-118 -667h-89l118 667h89zM774 667l-80 -454q-11 -61 -25.5 -99t-42 -67.5t-70.5 -42t-108 -12.5q-53 0 -93 11t-68.5 41t-28.5 77q0 22 6 58h84q-4 -36 -4 -42q0 -37 26 -50.5t82 -13.5q46 0 74.5 9t44.5 34t22.5 47t14.5 70l77 434h89z" />
    <glyph glyph-name="ij" unicode="ij" horiz-adv-x="448" 
d="M213 636q0 -27 -16.5 -44.5t-43.5 -17.5q-43 0 -43 38q0 27 16.5 44.5t43.5 17.5q43 0 43 -38zM180 484l-85 -484h-85l85 484h85zM437 636q0 -27 -16.5 -44.5t-43.5 -17.5q-43 0 -43 38q0 27 16.5 44.5t43.5 17.5q43 0 43 -38zM404 484l-83 -472q-7 -40 -12 -61
t-19.5 -53.5t-34 -49t-55.5 -29.5t-84 -13q-72 0 -113 27.5t-41 77.5q0 7 2 21h82q-1 -2 -1 -11q0 -44 76 -44q47 0 72 25q18 18 27 45t18 76l81 461h85z" />
    <glyph glyph-name="f_j" unicode="fj" horiz-adv-x="556" 
d="M479 613q0 -14 -2 -23h-83q1 3 1 11q0 33 -75 33q-51 0 -72 -19t-31 -70l-12 -61h182l-13 -73h-182l-73 -411h-85l73 411h-78l13 73h78l14 76q12 65 42 95q49 49 149 49q154 0 154 -91zM513 484l-83 -472q-7 -40 -12 -61t-19.5 -53.5t-34 -49t-55.5 -29.5t-84 -13
q-72 0 -113 27.5t-41 77.5q0 7 2 21h82q-1 -2 -1 -11q0 -44 76 -44q47 0 72 25q18 18 27 45t18 76l81 461h85z" />
    <glyph glyph-name="f_f" unicode="ff" horiz-adv-x="846" 
d="M881 613q0 -14 -2 -23h-83l1 11q0 33 -75 33q-51 0 -72 -19t-31 -70l-12 -61h182l-13 -73h-182l-73 -411h-85l73 411h-317l-73 -411h-85l73 411h-78l13 73h78l14 76q12 65 42 95q49 49 149 49q154 0 154 -91q0 -14 -2 -23h-83q1 3 1 11q0 33 -75 33q-51 0 -72 -19
t-31 -70l-12 -61h317l14 76q12 65 42 95q49 49 149 49q154 0 154 -91z" />
    <glyph glyph-name="fi" unicode="fi" horiz-adv-x="556" 
d="M513 484l-85 -484h-85l85 484h85zM479 613q0 -14 -2 -23h-83q1 3 1 11q0 33 -75 33q-51 0 -72 -19t-31 -70l-12 -61h182l-13 -73h-182l-73 -411h-85l73 411h-78l13 73h78l14 76q12 65 42 95q49 49 149 49q154 0 154 -91z" />
    <glyph glyph-name="fl" unicode="fl" horiz-adv-x="656" 
d="M645 697l-123 -697h-85l123 697h85zM479 613q0 -14 -2 -23h-83q1 3 1 11q0 33 -75 33q-51 0 -72 -19t-31 -70l-12 -61h182l-13 -73h-182l-73 -411h-85l73 411h-78l13 73h78l14 76q12 65 42 95q49 49 149 49q154 0 154 -91z" />
    <glyph glyph-name="f_f_i" unicode="ffi" horiz-adv-x="958" 
d="M881 613q0 -14 -2 -23h-83l1 11q0 33 -75 33q-51 0 -72 -19t-31 -70l-12 -61h182l-13 -73h-182l-73 -411h-85l73 411h-317l-73 -411h-85l73 411h-78l13 73h78l14 76q12 65 42 95q49 49 149 49q154 0 154 -91q0 -14 -2 -23h-83q1 3 1 11q0 33 -75 33q-51 0 -72 -19
t-31 -70l-12 -61h317l14 76q12 65 42 95q49 49 149 49q154 0 154 -91zM915 484l-85 -484h-85l85 484h85z" />
    <glyph glyph-name="f_f_l" unicode="ffl" horiz-adv-x="1058" 
d="M881 613q0 -14 -2 -23h-83l1 11q0 33 -75 33q-51 0 -72 -19t-31 -70l-12 -61h182l-13 -73h-182l-73 -411h-85l73 411h-317l-73 -411h-85l73 411h-78l13 73h78l14 76q12 65 42 95q49 49 149 49q154 0 154 -91q0 -14 -2 -23h-83q1 3 1 11q0 33 -75 33q-51 0 -72 -19
t-31 -70l-12 -61h317l14 76q12 65 42 95q49 49 149 49q154 0 154 -91zM1047 697l-123 -697h-85l123 697h85z" />
    <glyph glyph-name="f_t" unicode="ft" horiz-adv-x="846" 
d="M821 484l-13 -73h-214l-44 -249q-5 -22 -5 -39q0 -31 18 -44.5t59 -13.5q46 0 69 17.5t30 58.5h79q-14 -80 -60 -114.5t-123 -34.5q-74 0 -116 29t-42 87q0 15 3 35l47 268h-317l-73 -411h-85l73 411h-78l13 73h78l14 76q12 65 42 95q49 49 149 49q154 0 154 -91
q0 -14 -2 -23h-83q1 3 1 11q0 33 -75 33q-51 0 -72 -19t-31 -70l-12 -61h317l33 183h85l-33 -183h214z" />
    <glyph glyph-name=".notdef" horiz-adv-x="500" 
d="M61 700h500l-123 -700h-499zM159 625l100 -208l164 208h-264zM243 277l-160 -202h257zM114 547l-72 -405l165 210zM295 343l91 -189l68 391z" />
    <glyph glyph-name=".notdef" horiz-adv-x="500" 
d="M61 700h500l-123 -700h-499zM159 625l100 -208l164 208h-264zM243 277l-160 -202h257zM114 547l-72 -405l165 210zM295 343l91 -189l68 391z" />
    <glyph glyph-name=".null" horiz-adv-x="0" 
 />
    <glyph glyph-name="nonmarkingreturn" horiz-adv-x="333" 
 />
    <glyph glyph-name="space" unicode=" " horiz-adv-x="233" 
 />
    <glyph glyph-name="exclam" unicode="!" horiz-adv-x="289" 
d="M245 667l-84 -477h-83l84 477h83zM151 64q0 -31 -17.5 -51.5t-48.5 -20.5q-46 0 -46 41q0 31 17 50t48 19q47 0 47 -38z" />
    <glyph glyph-name="quotedbl" unicode="&#x22;" horiz-adv-x="455" 
d="M408 667l-38 -217h-79l38 217h79zM243 667l-38 -217h-79l38 217h79z" />
    <glyph glyph-name="numbersign" unicode="#" horiz-adv-x="582" 
d="M565 402h-123l-29 -110h102v-73h-122l-59 -219h-79l59 219h-114l-59 -219h-79l59 219h-103v73h122l29 110h-101v73h122l59 219h80l-60 -219h114l59 219h75l-55 -219h103v-73zM362 402h-113l-28 -110h112z" />
    <glyph glyph-name="dollar" unicode="$" horiz-adv-x="566" 
d="M529 546q0 -14 -3 -31h-85q3 15 3 27q0 26 -18 37t-61 12l-37 -207q85 -8 120.5 -33t35.5 -88q0 -55 -17.5 -118t-49.5 -93q-46 -45 -156 -52l-18 -99h-77l18 99q-67 3 -111 32t-44 91q0 13 3 28h85q-2 -14 -2 -19q0 -29 18.5 -41t63.5 -13l41 231q-75 8 -111 36t-36 95
q0 47 16 97.5t44 78.5q44 44 150 51l17 95h77l-17 -95q63 -4 107 -32.5t44 -88.5zM288 591q-49 -2 -73 -24q-18 -18 -28.5 -50.5t-10.5 -62.5q0 -36 16.5 -49t59.5 -16zM400 246q0 32 -18.5 43t-67.5 15l-40 -226q56 2 82 29q20 20 32 62t12 77z" />
    <glyph glyph-name="percent" unicode="%" horiz-adv-x="878" 
d="M699 667l-454 -667h-72l454 667h72zM379 567q0 -25 -11.5 -99.5t-25.5 -117.5q-29 -89 -141 -89q-69 0 -96 27.5t-27 78.5q0 25 11.5 99.5t25.5 117.5q29 89 141 89q69 0 96 -27.5t27 -78.5zM313 561q0 28 -11.5 40.5t-49.5 12.5t-56 -18q-21 -21 -40 -128
q-12 -68 -12 -96t11.5 -40.5t50.5 -12.5t57 19q20 21 39 128q11 66 11 95zM793 300q0 -25 -11.5 -99.5t-25.5 -117.5q-29 -89 -141 -89q-69 0 -96 27.5t-27 78.5q0 25 11.5 99.5t25.5 117.5q29 89 141 89q69 0 96 -27.5t27 -78.5zM727 294q0 28 -11.5 40.5t-49.5 12.5
t-56 -18q-21 -21 -40 -128q-12 -68 -12 -96t11.5 -40.5t50.5 -12.5t57 19q20 21 39 128q11 66 11 95z" />
    <glyph glyph-name="ampersand" unicode="&#x26;" horiz-adv-x="609" 
d="M591 391l-14 -80h-59l-15 -85q-23 -133 -78.5 -183.5t-192.5 -50.5q-95 0 -148.5 31t-53.5 110q0 50 15 103.5t44 82.5q26 26 54 31q-52 23 -52 104q0 45 16.5 91.5t45.5 75.5q53 53 177 53q191 0 191 -120q0 -18 -3 -40h-83q2 18 2 22q0 20 -9.5 33t-27.5 18.5t-34.5 7
t-40.5 1.5q-82 0 -113 -32q-15 -16 -26 -47t-11 -62q0 -39 25 -51.5t84 -12.5h164l9 52h84l-9 -52h59zM434 311h-160q-22 0 -37.5 -1.5t-40 -10.5t-40 -25.5t-27 -49.5t-11.5 -79q0 -41 29 -58t94 -17q92 0 127 33t51 123z" />
    <glyph glyph-name="quotesingle" unicode="'" horiz-adv-x="290" 
d="M244 667l-38 -217h-79l38 217h79z" />
    <glyph glyph-name="parenleft" unicode="(" horiz-adv-x="360" 
d="M417 806l-14 -75q-90 0 -128 -38q-10 -10 -21 -29q-22 -39 -49.5 -147.5t-45.5 -211.5q-37 -207 -37 -315q0 -69 25 -87t107 -18l-13 -76q-53 0 -87 6t-62 24t-41 53.5t-13 90.5q0 116 37 325q49 275 99 379q17 36 42 61q27 27 67 41t63.5 15.5t60.5 1.5h10z" />
    <glyph glyph-name="parenright" unicode=")" horiz-adv-x="360" 
d="M325 632q0 -116 -37 -325q-49 -275 -99 -379q-17 -36 -42 -61q-27 -27 -67 -41t-63.5 -15.5t-60.5 -1.5h-10l14 75q90 0 128 38q10 10 21 29q22 39 49.5 147.5t45.5 211.5q37 207 37 315q0 70 -24.5 87.5t-107.5 17.5l13 76q53 0 87 -6t62 -24t41 -53.5t13 -90.5z" />
    <glyph glyph-name="asterisk" unicode="*" horiz-adv-x="526" 
d="M534 473l-196 -57l87 -147l-61 -41l-86 147l-138 -147l-61 41l140 147l-176 57l36 67l175 -56l33 183h74l-33 -183l194 56z" />
    <glyph glyph-name="plus" unicode="+" horiz-adv-x="582" 
d="M544 204h-215v-204h-77v204h-214v77h214v203h77v-203h215v-77z" />
    <glyph glyph-name="comma" unicode="," horiz-adv-x="225" 
d="M110 102l-17 -93q-8 -45 -22 -72.5t-46 -52.5l-43 -35l-46 52l21 16.5t18.5 15.5t12.5 13t12.5 17l6.5 19t7 27l17 93h79z" />
    <glyph glyph-name="hyphen" unicode="-" horiz-adv-x="510" 
d="M423 281l-14 -77h-356l14 77h356z" />
    <glyph glyph-name="period" unicode="." horiz-adv-x="225" 
d="M118 64q0 -31 -17.5 -51.5t-48.5 -20.5q-46 0 -46 41q0 31 17 50t48 19q47 0 47 -38z" />
    <glyph glyph-name="slash" unicode="/" horiz-adv-x="512" 
d="M594 770l-583 -868h-91l583 868h91z" />
    <glyph glyph-name="zero" unicode="0" horiz-adv-x="567" 
d="M526 508q0 -72 -19 -175q-1 -7 -6.5 -39.5t-7.5 -42l-7.5 -37t-9 -38.5l-10.5 -33t-13.5 -34.5t-15.5 -27t-20 -26.5q-60 -63 -180 -63q-114 0 -160 51q-35 37 -35 119q0 59 19 171q2 9 8 45l8 48t8.5 41.5t11.5 43.5l13 35.5t18 36.5t22 28q60 63 181 63q113 0 159 -49
q36 -38 36 -117zM440 506q0 52 -27.5 71t-82.5 19q-57 0 -87 -16.5t-47 -51.5q-20 -40 -47 -195q-21 -119 -21 -172t26.5 -72t83.5 -19q54 0 83.5 15t46.5 45q24 42 52 203q20 113 20 173z" />
    <glyph glyph-name="one" unicode="1" horiz-adv-x="471" 
d="M411 76l-14 -76h-402l14 76h158l83 475l-130 -105l-50 61l208 160h78l-104 -591h159z" />
    <glyph glyph-name="two" unicode="2" horiz-adv-x="552" 
d="M525 535q0 -54 -17 -106t-48 -83q-21 -21 -56.5 -37.5t-57 -23t-86.5 -24.5q-82 -23 -107.5 -45t-36.5 -83l-10 -56h341l-14 -77h-428l27 150q15 83 55 120.5t134 64.5q116 35 142 49q74 41 74 138q0 41 -24 57.5t-88 16.5q-128 0 -142 -81h-85q16 89 73.5 124t157.5 35
q97 0 146.5 -32t49.5 -107z" />
    <glyph glyph-name="three" unicode="3" horiz-adv-x="562" 
d="M522 543q0 -41 -15 -90t-39 -75q-23 -23 -52 -32q58 -22 58 -103q0 -53 -18.5 -110t-52.5 -88q-59 -53 -185 -53q-196 0 -196 132q0 7 3 28h87q-2 -16 -2 -21q0 -34 28 -47.5t90 -13.5q83 0 118 36q19 20 29.5 56.5t10.5 71.5q0 21 -7.5 36t-17 22t-28.5 10.5t-30 4
t-34 0.5h-12h-86l14 78h97q82 0 114 29q18 17 28.5 48.5t10.5 60.5q0 44 -26.5 58.5t-89.5 14.5q-67 0 -101 -18.5t-44 -62.5h-87q16 89 74 124t162 35q101 0 150 -30t49 -101z" />
    <glyph glyph-name="four" unicode="4" horiz-adv-x="562" 
d="M504 256l-14 -76h-96l-32 -180h-84l32 180h-292l13 72l367 415h82l-73 -411h97zM374 535l-244 -279h193z" />
    <glyph glyph-name="five" unicode="5" horiz-adv-x="567" 
d="M539 667l-14 -78h-317l-35 -197q16 19 57 30.5t87 11.5q90 0 129 -37.5t39 -108.5q0 -65 -18.5 -135t-54.5 -106q-54 -55 -180 -55q-195 0 -195 123q0 9 4 37h82q-2 -8 -2 -21q0 -34 25.5 -47.5t85.5 -13.5q84 0 118 33q24 23 37.5 74t13.5 94q0 47 -21.5 66t-84.5 19
q-126 0 -141 -74h-82l68 385h399z" />
    <glyph glyph-name="six" unicode="6" horiz-adv-x="564" 
d="M523 543q0 -13 -3 -28h-84l1 7q1 6 1 10q0 35 -24.5 49.5t-77.5 14.5q-62 0 -99.5 -24t-54.5 -84q-6 -19 -25 -107q51 53 154 53q87 0 131 -36.5t44 -115.5q0 -61 -20 -128t-56 -104q-57 -58 -179 -58q-88 0 -139 38t-51 120q0 76 21.5 192t47.5 189q27 76 80 109.5
t147 33.5q186 0 186 -131zM400 274q0 46 -23.5 64t-77.5 18q-77 0 -123 -44q-48 -48 -48 -147q0 -51 26.5 -73t84.5 -22q77 0 111 34q25 25 37.5 74.5t12.5 95.5z" />
    <glyph glyph-name="seven" unicode="7" horiz-adv-x="470" 
d="M510 667l-13 -74l-390 -593h-101l391 589h-333l14 78h432z" />
    <glyph glyph-name="eight" unicode="8" horiz-adv-x="575" 
d="M538 543q0 -42 -15 -91.5t-40 -74.5q-23 -23 -51 -31q58 -22 58 -104q0 -152 -93 -212q-58 -38 -162 -38q-198 0 -198 136q0 45 9.5 87.5t36 81t67.5 49.5q-52 16 -52 95q0 121 62 180q54 53 180 53q101 0 149.5 -30t48.5 -101zM451 531q0 40 -28 52.5t-87 12.5
q-81 0 -113 -31q-19 -18 -29 -52t-10 -66q0 -38 26 -51t89 -13q82 0 113 30q19 18 29 52t10 66zM401 234q0 44 -28.5 58t-89.5 14q-83 0 -117 -34q-19 -20 -29.5 -57.5t-10.5 -72.5q0 -41 27 -56t91 -15q84 0 117 33q19 20 29.5 57.5t10.5 72.5z" />
    <glyph glyph-name="nine" unicode="9" horiz-adv-x="564" 
d="M523 516q0 -76 -21.5 -192t-47.5 -189q-27 -76 -80 -109.5t-147 -33.5q-186 0 -186 131q0 13 3 28h84q-2 -8 -2 -18q0 -33 25 -48t77 -15q66 0 101.5 25t52.5 83q5 17 25 107q-69 -53 -154 -53q-87 0 -131 36.5t-44 115.5q0 61 20 128t56 104q57 58 179 58q88 0 139 -38
t51 -120zM436 501q0 51 -26.5 73t-84.5 22q-77 0 -111 -34q-25 -25 -37.5 -74.5t-12.5 -95.5t23.5 -64t77.5 -18q77 0 123 44q48 48 48 147z" />
    <glyph glyph-name="colon" unicode=":" horiz-adv-x="225" 
d="M186 454q0 -31 -17.5 -51.5t-48.5 -20.5q-46 0 -46 41q0 31 17 50t48 19q47 0 47 -38zM118 64q0 -31 -17.5 -51.5t-48.5 -20.5q-46 0 -46 41q0 31 17 50t48 19q47 0 47 -38z" />
    <glyph glyph-name="semicolon" unicode=";" horiz-adv-x="225" 
d="M187 454q0 -31 -17.5 -51.5t-48.5 -20.5q-46 0 -46 41q0 31 17 50t48 19q47 0 47 -38zM110 102l-17 -93q-8 -45 -22 -72.5t-46 -52.5l-43 -35l-46 52l21 16.5t18.5 15.5t12.5 13t12.5 17l6.5 19t7 27l17 93h79z" />
    <glyph glyph-name="less" unicode="&#x3c;" horiz-adv-x="583" 
d="M550 75l-29 -75l-488 205v75l487 204l30 -75l-407 -166z" />
    <glyph glyph-name="equal" unicode="=" horiz-adv-x="582" 
d="M544 298h-506v77h506v-77zM544 113h-506v77h506v-77z" />
    <glyph glyph-name="greater" unicode="&#x3e;" horiz-adv-x="583" 
d="M550 205l-488 -205l-29 75l407 168l-407 166l30 75l487 -204v-75z" />
    <glyph glyph-name="question" unicode="?" horiz-adv-x="442" 
d="M452 556q0 -113 -54 -168q-27 -27 -74 -49q-58 -27 -73 -42.5t-24 -65.5l-7 -41h-85l10 58q9 55 33 89t49 44.5t57.5 26t49.5 32.5q35 35 35 102q0 37 -22 53.5t-77 16.5q-66 0 -95.5 -22t-38.5 -75h-82q12 96 66.5 135t153.5 39q178 0 178 -133zM209 64
q0 -31 -17.5 -51.5t-48.5 -20.5q-46 0 -46 41q0 31 17 50t48 19q47 0 47 -38z" />
    <glyph glyph-name="at" unicode="@" horiz-adv-x="766" 
d="M716 482q0 -60 -18.5 -145.5t-48.5 -137.5q-51 -89 -194 -87l7 37q-48 -43 -126 -43q-138 0 -138 118q0 35 14 105q24 109 59 145q40 42 120 42q94 0 126 -45l6 38h59l-58 -335q35 1 61 37q33 44 51 127t18 135q0 48 -13 77t-44.5 42.5t-65 17t-93.5 3.5q-153 0 -212 -58
q-76 -74 -104 -331q-4 -32 -4 -64q0 -100 46.5 -133t168.5 -33q82 0 142 16.5t98 68.5l48 -30q-51 -71 -123.5 -93.5t-173.5 -22.5q-148 0 -209.5 45.5t-61.5 166.5q0 30 5 77q32 291 119 378q74 74 259 74q57 0 96 -3.5t76.5 -15t59.5 -32.5t35 -56t13 -85zM494 368
q0 48 -21.5 67.5t-80.5 19.5q-51 0 -76 -25t-39.5 -95t-14.5 -106q0 -32 18 -47.5t62 -15.5q71 0 100 29q23 23 37.5 74.5t14.5 98.5z" />
    <glyph glyph-name="A" unicode="A" horiz-adv-x="626" 
d="M556 0h-94l-35 184h-277l-100 -184h-97l376 667h88zM412 261l-56 302l-164 -302h220z" />
    <glyph glyph-name="B" unicode="B" horiz-adv-x="650" 
d="M595 528q0 -102 -58 -160q-20 -20 -40 -26q27 -6 42.5 -34t15.5 -71q0 -117 -67 -184q-34 -34 -83.5 -43.5t-144.5 -9.5h-236l118 667h237q41 0 64 -1t56.5 -8.5t51 -21.5t31 -41t13.5 -67zM507 520q0 45 -29.5 56.5t-100.5 11.5h-161l-37 -207h164q96 0 125 29
q39 39 39 110zM467 226q0 22 -8 37t-18 22.5t-30 11.5t-34.5 4.5t-40.5 0.5h-171l-39 -222h163q63 0 92 7.5t50 28.5q36 36 36 110z" />
    <glyph glyph-name="C" unicode="C" horiz-adv-x="646" 
d="M614 535q0 -25 -4 -48h-86q3 23 3 38q0 37 -30.5 52.5t-104.5 15.5q-64 0 -100 -11.5t-61 -36.5q-27 -27 -42.5 -76t-30.5 -136q-19 -111 -19 -152q0 -60 30 -83.5t110 -23.5q98 0 139 22.5t51 82.5h86q-1 -24 -14.5 -60.5t-42.5 -65.5q-61 -61 -213 -61
q-133 0 -184 43.5t-51 132.5q0 57 19 166q19 106 40 168.5t60 101.5q70 70 228 70q108 0 162.5 -32t54.5 -107z" />
    <glyph glyph-name="D" unicode="D" horiz-adv-x="667" 
d="M617 492q0 -82 -27 -211t-62 -183q-38 -59 -102 -78.5t-152 -19.5h-250l118 667h217q88 0 141 -12t84 -52q33 -43 33 -111zM527 476q0 31 -9 52.5t-21.5 32.5t-37 17t-44 7t-53.5 1h-146l-89 -505h153q38 0 61.5 2t53.5 14.5t49 36.5q34 42 58.5 155.5t24.5 186.5z" />
    <glyph glyph-name="E" unicode="E" horiz-adv-x="587" 
d="M580 667l-14 -80h-349l-36 -205h339l-14 -80h-339l-40 -222h350l-15 -80h-438l118 667h438z" />
    <glyph glyph-name="F" unicode="F" horiz-adv-x="567" 
d="M570 667l-14 -80h-340l-37 -205h332l-14 -80h-332l-53 -302h-88l118 667h428z" />
    <glyph glyph-name="G" unicode="G" horiz-adv-x="666" 
d="M624 535q0 -26 -4 -48h-87q2 22 2 34q0 43 -38.5 57.5t-109.5 14.5q-108 0 -156 -48q-27 -27 -42.5 -76t-30.5 -136q-19 -111 -19 -152q0 -60 30.5 -83.5t111.5 -23.5q36 0 65 5.5t49.5 14t37 25.5t26.5 33t19.5 43.5t14.5 49.5t12 59h-184l13 78h268l-68 -382h-72l11 60
q-73 -68 -211 -68q-67 0 -111 13.5t-65 39.5t-28.5 54.5t-7.5 68.5q0 57 19 166q19 106 40 168.5t60 101.5q70 70 231 70q109 0 166.5 -32t57.5 -107z" />
    <glyph glyph-name="H" unicode="H" horiz-adv-x="655" 
d="M631 667l-118 -667h-89l54 301h-312l-53 -301h-89l118 667h89l-51 -286h312l50 286h89z" />
    <glyph glyph-name="I" unicode="I" horiz-adv-x="255" 
d="M231 667l-118 -667h-89l118 667h89z" />
    <glyph glyph-name="J" unicode="J" horiz-adv-x="536" 
d="M519 667l-80 -454q-11 -61 -25.5 -99t-42 -67.5t-70.5 -42t-108 -12.5q-53 0 -93 11t-68.5 41t-28.5 77q0 22 6 58h84q-4 -36 -4 -42q0 -37 26 -50.5t82 -13.5q46 0 74.5 9t44.5 34t22.5 47t14.5 70l77 434h89z" />
    <glyph glyph-name="K" unicode="K" horiz-adv-x="607" 
d="M658 667l-419 -334l304 -333h-120l-258 290l-52 -290h-89l118 667h89l-51 -287l358 287h120z" />
    <glyph glyph-name="L" unicode="L" horiz-adv-x="519" 
d="M467 80l-15 -80h-428l118 667h89l-103 -587h339z" />
    <glyph glyph-name="M" unicode="M" horiz-adv-x="823" 
d="M798 667l-118 -667h-85l97 545l-298 -545h-85l-105 545l-96 -545h-84l118 667h117l109 -563l308 563h122z" />
    <glyph glyph-name="N" unicode="N" horiz-adv-x="654" 
d="M629 667l-118 -667h-91l-216 529l-94 -529h-86l118 667h91l217 -526l93 526h86z" />
    <glyph glyph-name="O" unicode="O" horiz-adv-x="669" 
d="M619 500q0 -28 -1.5 -53t-5 -51t-6 -39.5t-8.5 -43t-7 -36.5q-9 -47 -18.5 -80t-25.5 -68.5t-38.5 -58t-54.5 -41.5t-77 -28t-103 -9q-122 0 -173 45t-51 131q0 59 19 166q19 106 40 168.5t60 101.5q70 70 228 70q123 0 172.5 -45.5t49.5 -128.5zM530 487q0 63 -31 84.5
t-113 21.5q-65 0 -109.5 -17.5t-70.5 -65.5q-24 -46 -45.5 -154.5t-21.5 -174.5q0 -63 31 -85t113 -22q65 0 109.5 17.5t70.5 66.5q24 46 45.5 154.5t21.5 174.5z" />
    <glyph glyph-name="P" unicode="P" horiz-adv-x="613" 
d="M603 524q0 -49 -17 -102.5t-49 -85.5q-35 -35 -84.5 -44t-134.5 -9h-155l-50 -283h-89l118 667h192h29.5h29.5t27 -0.5t27.5 -1t24 -2t24 -4l21 -6t21 -8t17.5 -10.5t16 -13q32 -32 32 -98zM511 513q0 21 -6.5 35.5t-15.5 22t-28 11.5t-33.5 4.5t-43.5 0.5h-167l-39 -224
h140h25h26t22.5 1t24.5 3l19.5 5t20 8.5t16.5 13.5q39 39 39 119z" />
    <glyph glyph-name="Q" unicode="Q" horiz-adv-x="669" 
d="M619 500q0 -24 -1.5 -47.5t-3 -39.5t-5 -39t-5.5 -33l-7 -34t-6 -30q-30 -153 -87 -210q-53 -53 -140 -68l32 -115l-75 -22l-36 130h-11q-122 0 -173 45t-51 131q0 59 19 166q19 106 40 168.5t60 101.5q70 70 228 70q123 0 172.5 -45.5t49.5 -128.5zM530 487
q0 63 -31 84.5t-113 21.5q-65 0 -109.5 -17.5t-70.5 -65.5q-24 -46 -45.5 -154.5t-21.5 -174.5q0 -61 28 -82.5t96 -24.5l-25 91l75 24l30 -111q58 11 89 39q18 17 31 41q24 46 45.5 154.5t21.5 174.5z" />
    <glyph glyph-name="R" unicode="R" horiz-adv-x="650" 
d="M602 524q0 -58 -27 -119t-73 -75q50 -12 50 -78q0 -13 -11 -90l-28 -162h-86l29 168q9 57 9 66q0 24 -12 36q-11 12 -33.5 15t-90.5 3h-165l-51 -288h-89l118 667h252q40 0 63 -1.5t55 -9t48.5 -21.5t29 -42t12.5 -69zM513 520q0 42 -31 54.5t-93 12.5h-172l-38 -218h145
q66 0 98 6t51 25q40 40 40 120z" />
    <glyph glyph-name="S" unicode="S" horiz-adv-x="643" 
d="M606 534q0 -19 -5 -47h-86q3 17 3 30q0 48 -33.5 62t-114.5 14q-123 0 -161 -39q-36 -38 -36 -109q0 -14 3.5 -24t11.5 -16.5t14.5 -11t20.5 -6.5t21 -2.5t23.5 -1.5t21.5 -1h30t31 -1q35 -1 54 -2.5t48 -5.5t45 -12t33 -21.5t24.5 -35.5t7.5 -52q0 -55 -17 -109t-51 -88
q-63 -63 -228 -63q-116 0 -175.5 31.5t-59.5 107.5q0 17 4 49h88q-3 -14 -3 -33q0 -46 35 -60t114 -14q123 0 163 40t40 117q0 12 -2 21t-7.5 16l-9.5 12t-14.5 8t-15.5 5t-19 3t-18.5 1.5t-21.5 1t-21 0.5h-29t-30 1q-37 1 -60.5 3.5t-53 10.5t-46.5 21t-29 36.5t-12 56.5
q0 51 15.5 102t46.5 82q62 63 229 63q116 0 174 -31.5t58 -108.5z" />
    <glyph glyph-name="T" unicode="T" horiz-adv-x="538" 
d="M576 667l-14 -79h-208l-104 -588h-89l104 588h-208l14 79h505z" />
    <glyph glyph-name="U" unicode="U" horiz-adv-x="644" 
d="M626 667l-58 -331q-25 -142 -40 -190t-53 -86q-68 -68 -209 -68q-218 0 -218 166q0 40 24 178l58 331h89l-58 -331l-8 -45.5l-8 -45t-5.5 -36.5t-2.5 -35q0 -51 29 -76t105 -25q114 0 154 61q26 37 44 147q10 54 10 55l58 331h89z" />
    <glyph glyph-name="V" unicode="V" horiz-adv-x="592" 
d="M648 667l-369 -667h-86l-130 667h92l101 -551l297 551h95z" />
    <glyph glyph-name="W" unicode="W" horiz-adv-x="884" 
d="M905 667l-281 -667h-94l-48 550l-245 -550h-96l-44 667h87l29 -540l240 540h95l49 -540l222 540h86z" />
    <glyph glyph-name="X" unicode="X" horiz-adv-x="589" 
d="M617 667l-269 -327l168 -340h-98l-130 273l-215 -273h-107l282 340l-158 327h99l118 -261l204 261h106z" />
    <glyph glyph-name="Y" unicode="Y" horiz-adv-x="568" 
d="M625 667l-304 -376l-51 -291h-89l51 291l-171 376h99l128 -297l233 297h104z" />
    <glyph glyph-name="Z" unicode="Z" horiz-adv-x="614" 
d="M610 667l-14 -78l-465 -509h376l-15 -80h-488l14 78l466 510h-376l14 79h488z" />
    <glyph glyph-name="bracketleft" unicode="[" horiz-adv-x="355" 
d="M412 806l-14 -75h-148l-149 -846h148l-14 -76h-231l176 997h232z" />
    <glyph glyph-name="backslash" unicode="\" horiz-adv-x="527" 
d="M431 -98h-79l-256 868h79z" />
    <glyph glyph-name="bracketright" unicode="]" horiz-adv-x="355" 
d="M351 806l-176 -997h-232l14 76h148l149 846h-148l14 75h231z" />
    <glyph glyph-name="asciicircum" unicode="^" horiz-adv-x="583" 
d="M547 215l-77 -30l-181 388l-177 -388l-76 31l219 460h71z" />
    <glyph glyph-name="underscore" unicode="_" horiz-adv-x="523" 
d="M474 -115l-14 -79h-523l14 79h523z" />
    <glyph glyph-name="grave" unicode="`" horiz-adv-x="426" 
d="M379 541h-88l-110 126h88z" />
    <glyph glyph-name="a" unicode="a" horiz-adv-x="527" 
d="M465 362q0 -24 -13 -99l-47 -263h-78l8 47q-55 -55 -162 -55q-76 0 -121 29.5t-45 92.5q0 86 48 134q30 30 71 39.5t109 9.5h138q8 51 8 58q0 38 -23.5 50t-79.5 12q-75 0 -105.5 -18.5t-37.5 -53.5h-83q8 44 29.5 74.5t54.5 45.5t68 21t81 6q180 0 180 -130zM363 226
h-128q-24 0 -36 -0.5t-36.5 -5.5t-37.5 -15t-24 -30.5t-11 -50.5q0 -28 24.5 -43.5t70.5 -15.5q50 0 82 9t50.5 31.5t27.5 48t18 72.5z" />
    <glyph glyph-name="b" unicode="b" horiz-adv-x="555" 
d="M493 347q0 -111 -25.5 -189t-60.5 -113q-29 -29 -63.5 -41t-90.5 -12q-115 0 -155 55l-9 -47h-79l123 697h85l-45 -258q52 53 152 53q92 0 130 -36t38 -109zM404 325q0 45 -17 66t-72 21q-83 0 -123 -37q-31 -30 -46.5 -93.5t-15.5 -121.5q0 -49 27.5 -69.5t92.5 -20.5
q62 0 92 30q29 30 45.5 99t16.5 126z" />
    <glyph glyph-name="c" unicode="c" horiz-adv-x="521" 
d="M474 373q0 -13 -3 -30h-80q1 5 1 17q0 24 -18 37t-38 15.5t-50 2.5q-77 0 -112 -35q-29 -29 -45 -99t-16 -126q0 -46 25 -66t87 -20q24 0 42 2t38.5 9t33.5 22.5t17 38.5h81q-18 -149 -216 -149q-106 0 -150.5 39t-44.5 122q0 71 22 156t61 125q55 58 174 58
q191 0 191 -119z" />
    <glyph glyph-name="d" unicode="d" horiz-adv-x="557" 
d="M546 697l-123 -697h-80l9 53q-58 -61 -160 -61q-84 0 -125 39t-41 106q0 87 24 177t62 128q50 50 152 50q107 0 152 -50l45 255h85zM387 322q0 49 -27.5 69.5t-92.5 20.5t-95 -30q-27 -27 -43 -98t-16 -127q0 -87 88 -87q87 0 126 39q30 30 45 92.5t15 120.5z" />
    <glyph glyph-name="e" unicode="e" horiz-adv-x="534" 
d="M472 341q0 -75 -13 -127h-343q-7 -42 -7 -61q0 -47 26 -67t90 -20q26 0 45 2.5t39 9.5t33 23t17 40h80q-19 -149 -217 -149q-108 0 -152 40t-44 121q0 69 22 156.5t61 126.5q56 56 172 56q106 0 148.5 -39.5t42.5 -111.5zM392 339q0 43 -25 61.5t-86 18.5
q-74 0 -106.5 -31.5t-45.5 -101.5h257q6 36 6 53z" />
    <glyph glyph-name="f" unicode="f" horiz-adv-x="444" 
d="M479 613q0 -14 -2 -23h-83l1 11q0 33 -75 33q-51 0 -72 -19t-31 -70l-12 -61h182l-13 -73h-182l-73 -411h-85l73 411h-78l13 73h78l14 76q12 65 42 95q49 49 149 49q154 0 154 -91z" />
    <glyph glyph-name="g" unicode="g" horiz-adv-x="555" 
d="M511 484l-77 -436q-13 -79 -25 -112q-44 -130 -221 -130q-191 0 -191 116q0 8 2 28h82q1 -2 0 -6.5t-1 -5.5q0 -57 103 -57q68 0 104.5 25t48.5 83l13 64q-52 -53 -153 -53q-168 0 -168 140q0 78 21.5 169t61.5 131q52 52 157 52q117 0 156 -53l8 45h79zM392 317
q0 53 -27 75t-94 22q-65 0 -95 -29q-28 -28 -44.5 -98.5t-16.5 -126.5q0 -41 20 -61t71 -20q93 0 129 36q28 28 42.5 87.5t14.5 114.5z" />
    <glyph glyph-name="h" unicode="h" horiz-adv-x="539" 
d="M477 366q0 -25 -14 -109l-45 -257h-85l44 250q11 66 11 91q0 37 -20 54.5t-73 17.5q-37 0 -64 -11t-42 -25t-26.5 -44t-16 -49.5t-11.5 -60.5l-40 -223h-85l123 697h85l-45 -256q53 51 144 51q79 0 119.5 -32.5t40.5 -93.5z" />
    <glyph glyph-name="i" unicode="i" horiz-adv-x="224" 
d="M213 636q0 -27 -16.5 -44.5t-43.5 -17.5q-43 0 -43 38q0 27 16.5 44.5t43.5 17.5q43 0 43 -38zM180 484l-85 -484h-85l85 484h85z" />
    <glyph glyph-name="j" unicode="j" horiz-adv-x="224" 
d="M213 636q0 -27 -16.5 -44.5t-43.5 -17.5q-43 0 -43 38q0 27 16.5 44.5t43.5 17.5q43 0 43 -38zM180 484l-83 -472q-7 -40 -12 -61t-19.5 -53.5t-34 -49t-55.5 -29.5t-84 -13q-72 0 -113 27.5t-41 77.5q0 7 2 21h82q-1 -2 -1 -11q0 -44 76 -44q47 0 72 25q18 18 27 45
t18 76l81 461h85z" />
    <glyph glyph-name="k" unicode="k" horiz-adv-x="501" 
d="M514 484l-295 -225l217 -259h-107l-192 238l-42 -238h-85l123 697h85l-72 -405l250 192h118z" />
    <glyph glyph-name="l" unicode="l" horiz-adv-x="229" 
d="M218 697l-123 -697h-85l123 697h85z" />
    <glyph glyph-name="m" unicode="m" horiz-adv-x="801" 
d="M740 367q0 -19 -15 -109l-46 -258h-85l51 288q8 50 8 65q0 30 -18 45.5t-64 15.5q-36 0 -61.5 -12t-40.5 -37.5t-23 -51t-15 -66.5l-44 -247h-85l51 288q8 48 8 65q0 30 -18 45.5t-63 15.5q-36 0 -61.5 -12t-41 -38t-23.5 -51.5t-15 -66.5l-44 -246h-85l85 484h79l-8 -46
q47 54 140 54q100 0 126 -63q56 63 157 63q151 0 151 -125z" />
    <glyph glyph-name="n" unicode="n" horiz-adv-x="539" 
d="M477 366q0 -25 -14 -109l-45 -257h-85l44 250q11 66 11 91q0 37 -20 54.5t-73 17.5q-37 0 -64 -11t-42 -25t-26.5 -44t-16 -49.5t-11.5 -60.5l-40 -223h-85l86 484h77l-8 -47q50 55 152 55q79 0 119.5 -32.5t40.5 -93.5z" />
    <glyph glyph-name="o" unicode="o" horiz-adv-x="551" 
d="M489 331q0 -39 -9 -89q-12 -68 -26.5 -110.5t-42.5 -76.5t-73.5 -48.5t-113.5 -14.5q-109 0 -153.5 38.5t-44.5 122.5q0 39 9 89q12 68 26.5 110.5t42.5 76.5t73.5 48.5t113.5 14.5q109 0 153.5 -38.5t44.5 -122.5zM402 328q0 47 -24.5 67t-86.5 20q-81 0 -116 -34
q-36 -35 -55 -154q-7 -49 -7 -71q0 -47 24.5 -67t86.5 -20q81 0 116 34q36 35 55 154q7 49 7 71z" />
    <glyph glyph-name="p" unicode="p" horiz-adv-x="555" 
d="M493 347q0 -111 -25.5 -189t-60.5 -113q-29 -29 -63.5 -41t-90.5 -12q-107 0 -151 49l-41 -232h-85l119 675h79l-9 -53q58 61 160 61q92 0 130 -36t38 -109zM404 325q0 45 -17 66t-72 21q-83 0 -123 -37q-31 -30 -46.5 -93.5t-15.5 -121.5q0 -49 27.5 -69.5t92.5 -20.5
q62 0 92 30q29 29 45.5 98.5t16.5 126.5z" />
    <glyph glyph-name="q" unicode="q" horiz-adv-x="551" 
d="M507 484l-119 -675h-86l42 236q-52 -53 -152 -53q-83 0 -124.5 40.5t-41.5 104.5q0 87 24 177t62 128q50 50 152 50q116 0 156 -55l8 47h79zM387 322q0 49 -27.5 69.5t-92.5 20.5t-95 -30q-27 -27 -43 -98t-16 -127q0 -52 23.5 -69.5t67.5 -17.5q84 0 123 39
q25 25 42.5 82.5t17.5 130.5z" />
    <glyph glyph-name="r" unicode="r" horiz-adv-x="451" 
d="M444 379q0 -16 -3 -34h-82q2 9 2 23q0 26 -18.5 36.5t-59.5 10.5q-66 0 -103 -52q-27 -38 -43 -124l-42 -239h-85l85 484h78l-9 -47q52 55 136 55q144 0 144 -113z" />
    <glyph glyph-name="s" unicode="s" horiz-adv-x="511" 
d="M465 377q0 -16 -3 -34h-79q0 1 1 8t1 13q0 19 -9 31t-26.5 17t-33 6.5t-38.5 1.5q-31 0 -50.5 -2.5t-41 -10.5t-32 -26.5t-10.5 -48.5q0 -34 28 -42q13 -4 77 -7q31 -1 43.5 -2t39.5 -4.5t39 -10t27.5 -17.5t22 -28.5t6.5 -41.5q0 -89 -46 -136q-49 -51 -183 -51
q-188 0 -188 113q0 23 3 36h79q-2 -10 -2 -21q0 -32 26.5 -44t84.5 -12q31 0 52.5 3t43 12t32.5 28.5t11 50.5q0 11 -2.5 19t-10.5 13t-14 8t-22.5 5t-27 2.5t-35.5 1.5q-32 1 -51 2.5t-45 8t-40.5 16.5t-25 29.5t-10.5 46.5q0 89 49 137q46 45 180 45q180 0 180 -115z" />
    <glyph glyph-name="t" unicode="t" horiz-adv-x="459" 
d="M424 484l-13 -73h-214l-44 -249q-5 -22 -5 -39q0 -31 18 -44.5t59 -13.5q46 0 69 17.5t30 58.5h79q-14 -80 -60 -114.5t-123 -34.5q-74 0 -116 29t-42 87q0 15 3 35l47 268h-80l13 73h80l33 183h85l-33 -183h214z" />
    <glyph glyph-name="u" unicode="u" horiz-adv-x="538" 
d="M493 484l-85 -484h-77l8 47q-50 -55 -150 -55q-87 0 -125 38t-38 88q0 25 14 109l45 257h86l-45 -250q-12 -62 -12 -92q0 -33 20.5 -52t76.5 -19q36 0 62.5 11.5t41 25t26.5 45t15.5 49l11.5 59.5l40 223h85z" />
    <glyph glyph-name="v" unicode="v" horiz-adv-x="491" 
d="M503 484l-274 -484h-85l-105 484h87l76 -383l209 383h92z" />
    <glyph glyph-name="w" unicode="w" horiz-adv-x="711" 
d="M716 484l-224 -484h-90l-41 386l-178 -386h-87l-53 484h81l34 -380l176 380h85l42 -380l167 380h88z" />
    <glyph glyph-name="x" unicode="x" horiz-adv-x="496" 
d="M500 484l-222 -238l148 -246h-95l-107 187l-165 -187h-104l228 247l-136 237h97l96 -177l158 177h102z" />
    <glyph glyph-name="y" unicode="y" horiz-adv-x="487" 
d="M498 484l-375 -675h-94l111 197l-96 478h88l70 -383l203 383h93z" />
    <glyph glyph-name="z" unicode="z" horiz-adv-x="487" 
d="M465 484l-13 -72l-337 -336h278l-14 -76h-393l12 72l342 340h-283l14 72h394z" />
    <glyph glyph-name="braceleft" unicode="{" horiz-adv-x="381" 
d="M437 826l-14 -75q-58 0 -86 -19q-34 -22 -49 -108l-32 -183q-2 -11 -5.5 -21t-9.5 -19.5l-9.5 -15t-13 -14t-12 -11.5t-14.5 -12t-13 -10q-22 -17 -22 -30q0 -2 2 -8q4 -9 20 -26t20 -23q18 -26 11 -67l-26 -152q-12 -69 -10 -90q2 -25 18.5 -38.5t33.5 -16t45 -2.5
l-14 -76q-99 0 -137 45q-29 34 -29 87q0 32 7 75l27 155q3 20 -1.5 31t-18.5 26q-31 34 -37 53q-3 10 -3 22q0 35 59 85q46 39 51 67l30 172q11 61 27.5 97.5t52.5 66.5q28 23 61 29t91 6z" />
    <glyph glyph-name="bar" unicode="|" horiz-adv-x="285" 
d="M184 -191h-83v858h83v-858z" />
    <glyph glyph-name="braceright" unicode="}" horiz-adv-x="381" 
d="M316 332q0 -35 -59 -85q-46 -39 -51 -67l-30 -172q-11 -61 -27.5 -97.5t-52.5 -66.5q-28 -23 -61 -29t-91 -6l14 75q58 0 86 19q34 22 49 108l32 183q2 11 5.5 21t9.5 19.5l9.5 15t13 14t12 11.5t14.5 12t13 10q22 17 22 30q0 2 -2 8q-4 9 -20 26t-20 23q-18 26 -11 67
l26 152q12 69 10 90q-2 25 -18.5 38.5t-33.5 16t-45 2.5l14 76q99 0 137 -45q29 -34 29 -87q0 -32 -7 -75l-27 -155q-3 -20 1.5 -31t18.5 -26q31 -34 37 -53q3 -10 3 -22z" />
    <glyph glyph-name="asciitilde" unicode="~" horiz-adv-x="582" 
d="M549 256q-40 -35 -83 -62q-85 -55 -164 -5q-63 39 -85 44q-31 7 -62 -12q-46 -31 -74 -53l-48 58q37 34 83 62q86 55 164 5q63 -39 84 -44q31 -7 62 12q47 31 74 53z" />
    <glyph glyph-name="nbspace" unicode="&#xa0;" horiz-adv-x="233" 
 />
    <glyph glyph-name="exclamdown" unicode="&#xa1;" horiz-adv-x="289" 
d="M205 451q0 -31 -17 -50t-48 -19q-47 0 -47 38q0 31 17.5 51.5t48.5 20.5q46 0 46 -41zM166 294l-84 -477h-83l84 477h83z" />
    <glyph glyph-name="cent" unicode="&#xa2;" horiz-adv-x="537" 
d="M508 373q0 -13 -3 -30h-80q1 7 1 17q0 50 -79 54l-61 -344q91 6 103 71h81q-17 -143 -198 -149l-15 -87h-75l16 89q-82 7 -117.5 46t-35.5 113q0 71 22 156t61 125q52 54 157 58l15 83h75l-15 -85q148 -12 148 -117zM272 413q-48 -3 -79 -33q-27 -27 -44 -96.5
t-17 -123.5q0 -42 17.5 -63.5t61.5 -25.5z" />
    <glyph glyph-name="sterling" unicode="&#xa3;" horiz-adv-x="577" 
d="M563 560q0 -20 -3 -45h-83q2 9 2 24q0 35 -25 46t-78 11q-85 0 -113.5 -31.5t-44.5 -122.5l-12 -66h284l-14 -77h-283l-39 -221h338l-13 -78h-485l13 78h61l39 221h-61l13 77h61l13 69q7 40 13 64.5t17.5 54.5t28 47t41 33t60.5 23t84 7q186 0 186 -114z" />
    <glyph glyph-name="currency" unicode="&#xa4;" horiz-adv-x="574" 
d="M287 572q70 0 133 -45l88 91l54 -54l-89 -90q44 -62 44 -132t-43 -134l89 -86l-56 -54l-87 87q-59 -43 -131 -43q-71 0 -135 43l-87 -87l-54 54l87 86q-44 63 -44 135q0 67 44 132l-91 89l57 54l89 -88q60 42 132 42zM288 495q-65 0 -109 -43.5t-44 -107.5t44 -108.5
t108 -44.5q62 0 106.5 44.5t44.5 107.5t-44 107.5t-106 44.5z" />
    <glyph glyph-name="yen" unicode="&#xa5;" horiz-adv-x="581" 
d="M625 667l-192 -242h77l-13 -72h-122l-45 -56h156l-13 -72h-158l-40 -225h-87l40 225h-158l13 72h155l-24 56h-123l12 72h77l-105 242h96l124 -294l227 294h103z" />
    <glyph glyph-name="brokenbar" unicode="&#xa6;" horiz-adv-x="285" 
d="M184 344h-83v323h83v-323zM184 -191h-83v323h83v-323z" />
    <glyph glyph-name="section" unicode="&#xa7;" horiz-adv-x="574" 
d="M529 548q0 -15 -3 -33h-85q2 8 2 22q0 32 -25 45t-89 13q-74 0 -105 -29q-28 -26 -28 -76q0 -24 12.5 -36t29.5 -14.5t52 -3.5q37 -1 60 -2.5t52.5 -8t46 -18t28.5 -33t12 -52.5q0 -49 -21.5 -92t-62.5 -60q42 -22 42 -81q0 -40 -14 -81t-40 -66q-53 -50 -172 -50
q-97 0 -145 29.5t-48 98.5q0 15 3 31h85q-3 -12 -3 -23q0 -32 25 -44.5t90 -12.5q76 0 104 28q28 27 28 75q0 34 -21.5 44.5t-71.5 11.5q-38 1 -60.5 2.5t-52.5 8t-46 18t-28 33t-12 52.5q0 49 21.5 92t62.5 60q-42 22 -42 81q0 92 49 142q52 55 177 55q93 0 143 -28t50 -98
zM400 308q0 33 -26.5 42.5t-84.5 9.5q-82 0 -108 -29q-25 -26 -25 -74q0 -33 26.5 -42.5t85.5 -9.5q79 0 106 28q26 28 26 75z" />
    <glyph glyph-name="dieresis" unicode="&#xa8;" horiz-adv-x="428" 
d="M452 631q0 -28 -15.5 -44.5t-43.5 -16.5q-40 0 -40 35q0 29 14.5 45.5t42.5 16.5q42 0 42 -36zM236 631q0 -28 -15.5 -44.5t-43.5 -16.5q-40 0 -40 35q0 29 14.5 45.5t42.5 16.5q42 0 42 -36z" />
    <glyph glyph-name="copyright" unicode="&#xa9;" horiz-adv-x="815" 
d="M743 334q0 -197 -70 -269.5t-266 -72.5q-102 0 -165 16t-102 57.5t-53.5 105t-14.5 165.5q0 82 9.5 137.5t31.5 96t61.5 62.5t95 32t137.5 10q102 0 164.5 -15t102 -55.5t54.5 -103.5t15 -166zM679 337q0 87 -10.5 138t-41.5 83.5t-82 44t-138 11.5q-89 0 -140 -11.5
t-81.5 -45.5t-40 -84.5t-9.5 -139.5q0 -69 7 -113.5t23.5 -79t48 -52.5t77.5 -26.5t115 -8.5q87 0 138.5 12.5t82 47.5t41 86t10.5 138zM601 254q0 -86 -49 -118t-143 -32q-123 0 -164.5 51.5t-41.5 178.5q0 125 42 177.5t164 52.5q94 0 143 -32t49 -118h-64q0 56 -32 73
t-96 17q-48 0 -76.5 -9t-42.5 -33.5t-17.5 -51t-3.5 -76.5q0 -40 2 -63t9.5 -46.5t22.5 -35t41 -18.5t65 -7q65 0 96.5 17t31.5 73h64z" />
    <glyph glyph-name="ordfeminine" unicode="&#xaa;" horiz-adv-x="382" 
d="M381 586q0 -13 -7 -55l-35 -195h-57l6 34q-50 -39 -122 -39q-122 0 -122 87q0 57 35 89q38 34 136 34h97q5 25 5 35q0 23 -16.5 33.5t-60.5 10.5q-89 0 -97 -47h-64q19 101 165 101q137 0 137 -88zM303 488h-91h-26t-25.5 -3.5t-26.5 -10t-17 -20t-8 -32.5q0 -38 67 -38
q68 0 91.5 22.5t35.5 81.5z" />
    <glyph glyph-name="guillemotleft" unicode="&#xab;" horiz-adv-x="479" 
d="M455 392q-4 -3 -41 -34t-52.5 -46t-33.5 -43t-18 -51q0 -18 10 -39t17 -31.5t29.5 -37t23.5 -27.5l-58 -48q-2 3 -14.5 17l-16.5 18.5t-15 18t-15.5 20l-13 19.5t-12.5 22t-8.5 21t-6.5 23t-2 23q0 69 81 148q21 21 96 85zM251 392q-4 -3 -41 -34t-52.5 -46t-33.5 -43
t-18 -51q0 -18 10 -39t17 -31.5t29.5 -37t23.5 -27.5l-58 -48q-2 3 -14.5 17l-16.5 18.5t-15 18t-15.5 20l-13 19.5t-12.5 22t-8.5 21t-6.5 23t-2 23q0 69 81 148q21 21 96 85z" />
    <glyph glyph-name="logicalnot" unicode="&#xac;" horiz-adv-x="582" 
d="M544 0h-81v297h-425v78h506v-375z" />
    <glyph glyph-name="registered" unicode="&#xae;" horiz-adv-x="525" 
d="M489 448q0 -131 -47 -179t-179 -48q-134 0 -180.5 47.5t-46.5 180.5q0 135 45.5 180t181.5 45q135 0 180.5 -45.5t45.5 -180.5zM441 450q0 110 -33.5 144t-144.5 34q-113 0 -146 -34t-33 -147q0 -110 34 -145t145 -35q110 0 144 36t34 147zM366 314h-46v80
q0 18 -5.5 26.5t-13.5 10t-27 1.5h-59v-118h-48v274h96q21 0 32.5 -0.5t27 -4.5t23.5 -11.5t14 -22t6 -35.5q0 -40 -28 -59q15 -9 21.5 -22t6.5 -42v-77zM319 510q0 6 -0.5 11t-1 8.5t-3 6.5t-3.5 5t-5 3t-5.5 2t-8 1h-9h-11.5h-13h-45v-73h48h12.5h12t9 0.5t8.5 2t6 4
t5.5 6.5t2.5 9.5t1 13.5z" />
    <glyph glyph-name="macron" unicode="&#xaf;" horiz-adv-x="428" 
d="M476 652l-11 -65h-344l12 65h343z" />
    <glyph glyph-name="degree" unicode="&#xb0;" horiz-adv-x="537" 
d="M418 517q0 -80 -36 -117t-113 -37q-78 0 -114 37t-36 117t35.5 115t113.5 35t114 -35.5t36 -114.5zM354 515q0 51 -18 70.5t-68 19.5t-67 -19.5t-17 -70.5t17 -70.5t67 -19.5t68 19.5t18 70.5z" />
    <glyph glyph-name="plusminus" unicode="&#xb1;" horiz-adv-x="582" 
d="M545 307h-216v-178h-77v178h-215v77h215v177h77v-177h216v-77zM550 0h-518v77h518v-77z" />
    <glyph glyph-name="twosuperior" unicode="&#xb2;" 
d="M387 577q0 -65 -31 -97q-26 -28 -111 -50q-6 -2 -20 -5.5t-19.5 -5t-16 -5t-15.5 -6t-12 -8t-10.5 -11t-7 -14t-5.5 -18.5l-6 -34h210l-10 -56h-273l17 96q4 20 10.5 36t18 28t20 19.5t25.5 14l23.5 9t25.5 7t22 5.5q63 17 81.5 31.5t18.5 59.5q0 22 -12.5 33t-51.5 11
q-41 0 -59.5 -11t-23.5 -40h-61q10 57 45 82t99 25t96.5 -20.5t32.5 -75.5z" />
    <glyph glyph-name="threesuperior" unicode="&#xb3;" 
d="M380 586q0 -41 -14 -72.5t-43 -38.5q31 -14 31 -70q0 -21 -9 -54.5t-30 -54.5q-35 -35 -115 -35q-136 0 -136 85q0 6 2 22h62q-1 -4 -1 -12q0 -17 11 -26t23.5 -11t33.5 -2q54 0 73 19q21 22 21 69q0 25 -17 34.5t-58 9.5h-50l10 55h50q23 0 33.5 1t27 7.5t23.5 23
t7 43.5q0 38 -66 38q-43 -1 -61 -11.5t-23 -39.5h-62q11 60 47 83.5t100 23.5q63 0 96.5 -19t33.5 -68z" />
    <glyph glyph-name="acute" unicode="&#xb4;" horiz-adv-x="428" 
d="M430 667l-155 -126h-104l156 126h103z" />
    <glyph glyph-name="uni00B5" unicode="&#xb5;" horiz-adv-x="548" 
d="M503 484l-85 -484h-77l8 47q-47 -55 -150 -55q-72 0 -102 28l-37 -211h-84l119 675h86l-45 -250q-12 -62 -12 -92q0 -33 20.5 -52t76.5 -19q36 0 62.5 11.5t41 25t26.5 45t15.5 49l11.5 59.5l40 223h85z" />
    <glyph glyph-name="paragraph" unicode="&#xb6;" horiz-adv-x="589" 
d="M550 667l-117 -667h-78l105 590h-58l-105 -590h-78l51 283h-19q-34 0 -59.5 2.5t-52.5 11.5t-44.5 23.5t-28.5 39.5t-11 60q0 52 18 109t50 88q34 33 83 41.5t134 8.5h210zM324 590h-24q-82 0 -115 -31q-42 -39 -42 -123q0 -46 30 -60.5t86 -14.5h23z" />
    <glyph glyph-name="periodcentered" unicode="&#xb7;" horiz-adv-x="225" 
d="M168 353q0 -31 -17.5 -51.5t-48.5 -20.5q-46 0 -46 41q0 31 17 50t48 19q47 0 47 -38z" />
    <glyph glyph-name="cedilla" unicode="&#xb8;" horiz-adv-x="428" 
d="M252 -90q0 -50 -26 -76q-23 -23 -69 -23q-76 0 -76 53q0 3 2 17h46q-1 -4 -1 -10q0 -18 33 -18q41 0 41 44q0 23 -32 25l-28 1l14 77h50l-8 -41q54 0 54 -49z" />
    <glyph glyph-name="onesuperior" unicode="&#xb9;" 
d="M331 323l-11 -56h-244l11 56h89l45 255l-63 -49l-36 42l127 96h51l-61 -344h92z" />
    <glyph glyph-name="ordmasculine" unicode="&#xba;" horiz-adv-x="384" 
d="M386 563q0 -47 -15 -105.5t-41 -84.5q-38 -41 -131 -41q-77 0 -110 27t-33 85q0 47 15 105.5t41 84.5q39 40 129 40q78 0 111.5 -26t33.5 -85zM323 557q0 35 -19 48t-63 13q-60 0 -84 -25q-18 -18 -28 -62.5t-10 -80.5q0 -34 18 -47.5t64 -13.5q60 0 84 25q18 18 28 62.5
t10 80.5z" />
    <glyph glyph-name="guillemotright" unicode="&#xbb;" horiz-adv-x="479" 
d="M455 268q0 -69 -81 -148q-21 -21 -96 -85l-50 58q4 3 41 34t52.5 46t33.5 43t18 51q0 18 -10 39t-17 31.5t-29.5 37t-23.5 27.5l58 48q2 -3 14.5 -17l16.5 -18.5t15 -18t15.5 -20l13 -19.5t12.5 -22t8.5 -21t6.5 -23t2 -23zM251 268q0 -69 -81 -148q-21 -21 -96 -85
l-50 58q4 3 41 34t52.5 46t33.5 43t18 51q0 18 -10 39t-17 31.5t-29.5 37t-23.5 27.5l58 48q2 -3 14.5 -17l16.5 -18.5t15 -18t15.5 -20l13 -19.5t12.5 -22t8.5 -21t6.5 -23t2 -23z" />
    <glyph glyph-name="onequarter" unicode="&#xbc;" horiz-adv-x="878" 
d="M331 323l-11 -56h-244l11 56h89l45 255l-63 -49l-36 42l127 96h51l-61 -344h92zM699 667l-454 -667h-72l454 667h72zM783 151l-10 -53h-60l-18 -98h-61l18 98h-184l10 50l230 252h59l-45 -249h61zM691 312l-147 -161h117z" />
    <glyph glyph-name="onehalf" unicode="&#xbd;" horiz-adv-x="878" 
d="M331 323l-11 -56h-244l11 56h89l45 255l-63 -49l-36 42l127 96h51l-61 -344h92zM699 667l-454 -667h-72l454 667h72zM807 310q0 -65 -31 -97q-26 -28 -111 -50q-6 -2 -20 -5.5t-19.5 -5t-16 -5t-15.5 -6t-12 -8t-10.5 -11t-7 -14t-5.5 -18.5l-6 -34h210l-10 -56h-273
l17 96q4 20 10.5 36t18 28t20 19.5t25.5 14l23.5 9t25.5 7t22 5.5q63 17 81.5 31.5t18.5 59.5q0 22 -12.5 33t-51.5 11q-41 0 -59.5 -11t-23.5 -40h-61q10 57 45 82t99 25t96.5 -20.5t32.5 -75.5z" />
    <glyph glyph-name="threequarters" unicode="&#xbe;" horiz-adv-x="878" 
d="M380 586q0 -41 -14 -72.5t-43 -38.5q31 -14 31 -70q0 -21 -9 -54.5t-30 -54.5q-35 -35 -115 -35q-136 0 -136 85q0 6 2 22h62q-1 -4 -1 -12q0 -17 11 -26t23.5 -11t33.5 -2q54 0 73 19q21 22 21 69q0 25 -17 34.5t-58 9.5h-50l10 55h50q23 0 33.5 1t27 7.5t23.5 23
t7 43.5q0 38 -66 38q-43 -1 -61 -11.5t-23 -39.5h-62q11 60 47 83.5t100 23.5q63 0 96.5 -19t33.5 -68zM699 667l-454 -667h-72l454 667h72zM783 151l-10 -53h-60l-18 -98h-61l18 98h-184l10 50l230 252h59l-45 -249h61zM691 312l-147 -161h117z" />
    <glyph glyph-name="questiondown" unicode="&#xbf;" horiz-adv-x="442" 
d="M315 451q0 -31 -17 -50t-48 -19q-47 0 -47 38q0 31 17.5 51.5t48.5 20.5q46 0 46 -41zM358 -31q-12 -96 -66.5 -135t-153.5 -39q-178 0 -178 133q0 113 54 168q27 27 74 49q58 27 73 42.5t24 65.5l7 41h85l-10 -58q-9 -55 -33 -89t-49 -44.5t-57.5 -26t-49.5 -32.5
q-35 -35 -35 -102q0 -37 22 -53.5t77 -16.5q66 0 95.5 22t38.5 75h82z" />
    <glyph glyph-name="Agrave" unicode="&#xc0;" horiz-adv-x="626" 
d="M476 736h-88l-110 126h88zM556 0h-94l-35 184h-277l-100 -184h-97l376 667h88zM412 261l-56 302l-164 -302h220z" />
    <glyph glyph-name="Aacute" unicode="&#xc1;" horiz-adv-x="626" 
d="M546 862l-155 -126h-104l156 126h103zM556 0h-94l-35 184h-277l-100 -184h-97l376 667h88zM412 261l-56 302l-164 -302h220z" />
    <glyph glyph-name="Acircumflex" unicode="&#xc2;" horiz-adv-x="626" 
d="M557 735h-84l-68 77l-93 -77h-97l155 127h76zM556 0h-94l-35 184h-277l-100 -184h-97l376 667h88zM412 261l-56 302l-164 -302h220z" />
    <glyph glyph-name="Atilde" unicode="&#xc3;" horiz-adv-x="626" 
d="M593 804l-32 -16t-34.5 -16.5t-31 -11.5t-34 -7.5t-31.5 3.5t-33 14q-3 2 -14 10t-14 9.5t-13 5.5t-17 3t-18.5 -4t-25.5 -9l-69 -31l-20 58l31.5 15.5t35 16.5t30.5 10.5t35 7t30 -4.5t33 -14q4 -2 12.5 -8.5t12 -8.5l11 -6t13 -4h14t17.5 3.5l21 8.5l71 34zM556 0h-94
l-35 184h-277l-100 -184h-97l376 667h88zM412 261l-56 302l-164 -302h220z" />
    <glyph glyph-name="Adieresis" unicode="&#xc4;" horiz-adv-x="626" 
d="M557 826q0 -28 -15.5 -44.5t-43.5 -16.5q-40 0 -40 35q0 29 14.5 45.5t42.5 16.5q42 0 42 -36zM341 826q0 -28 -15.5 -44.5t-43.5 -16.5q-40 0 -40 35q0 29 14.5 45.5t42.5 16.5q42 0 42 -36zM556 0h-94l-35 184h-277l-100 -184h-97l376 667h88zM412 261l-56 302
l-164 -302h220z" />
    <glyph glyph-name="Aring" unicode="&#xc5;" horiz-adv-x="626" 
d="M556 0h-94l-35 184h-277l-100 -184h-97l355 629q-42 18 -42 71q0 82 39 120q27 27 91 27q54 0 79.5 -19.5t25.5 -61.5q0 -32 -10 -66.5t-29 -53.5q-16 -15 -36 -20zM445 763q0 18 -11.5 25.5t-39.5 7.5q-36 0 -50 -14q-10 -10 -16 -35.5t-6 -43.5t11.5 -25.5t39.5 -7.5
q36 0 50 14q10 10 16 35.5t6 43.5zM412 261l-56 302l-164 -302h220z" />
    <glyph glyph-name="AE" unicode="&#xc6;" horiz-adv-x="929" 
d="M922 667l-14 -80h-310l-36 -205h300l-14 -80h-300l-39 -222h310l-15 -80h-397l32 184h-233l-152 -184h-111l557 667h422zM503 546l-234 -284h184z" />
    <glyph glyph-name="Ccedilla" unicode="&#xc7;" horiz-adv-x="646" 
d="M614 535q0 -25 -4 -48h-86q3 15 3 38q0 37 -30.5 52.5t-104.5 15.5q-64 0 -100 -11.5t-61 -36.5q-27 -27 -42.5 -76t-30.5 -136q-19 -111 -19 -152q0 -60 30 -83.5t110 -23.5q98 0 139 22.5t51 82.5h86q-1 -24 -14.5 -60.5t-42.5 -65.5q-61 -61 -210 -61l-8 -32
q57 -2 57 -50q0 -50 -26 -76q-23 -23 -69 -23q-76 0 -76 53q0 4 2 18h46q-1 -4 -1 -11q0 -17 33 -17q41 0 41 43q0 22 -32 24l-31 1l15 71q-105 7 -147 50.5t-42 124.5q0 57 19 166q19 106 40 168.5t60 101.5q70 70 228 70q108 0 162.5 -32t54.5 -107z" />
    <glyph glyph-name="Egrave" unicode="&#xc8;" horiz-adv-x="587" 
d="M482 736h-88l-110 126h88zM580 667l-14 -80h-349l-36 -205h339l-14 -80h-339l-40 -222h350l-15 -80h-438l118 667h438z" />
    <glyph glyph-name="Eacute" unicode="&#xc9;" horiz-adv-x="587" 
d="M532 862l-155 -126h-104l156 126h103zM580 667l-14 -80h-349l-36 -205h339l-14 -80h-339l-40 -222h350l-15 -80h-438l118 667h438z" />
    <glyph glyph-name="Ecircumflex" unicode="&#xca;" horiz-adv-x="587" 
d="M543 735h-84l-68 77l-93 -77h-97l155 127h76zM580 667l-14 -80h-349l-36 -205h339l-14 -80h-339l-40 -222h350l-15 -80h-438l118 667h438z" />
    <glyph glyph-name="Edieresis" unicode="&#xcb;" horiz-adv-x="587" 
d="M543 826q0 -28 -15.5 -44.5t-43.5 -16.5q-40 0 -40 35q0 29 14.5 45.5t42.5 16.5q42 0 42 -36zM327 826q0 -28 -15.5 -44.5t-43.5 -16.5q-40 0 -40 35q0 29 14.5 45.5t42.5 16.5q42 0 42 -36zM580 667l-14 -80h-349l-36 -205h339l-14 -80h-339l-40 -222h350l-15 -80h-438
l118 667h438z" />
    <glyph glyph-name="Igrave" unicode="&#xcc;" horiz-adv-x="255" 
d="M284 736h-88l-110 126h88zM231 667l-118 -667h-89l118 667h89z" />
    <glyph glyph-name="Iacute" unicode="&#xcd;" horiz-adv-x="255" 
d="M357 862l-155 -126h-104l156 126h103zM231 667l-118 -667h-89l118 667h89z" />
    <glyph glyph-name="Icircumflex" unicode="&#xce;" horiz-adv-x="255" 
d="M359 735h-84l-68 77l-93 -77h-97l155 127h76zM231 667l-118 -667h-89l118 667h89z" />
    <glyph glyph-name="Idieresis" unicode="&#xcf;" horiz-adv-x="255" 
d="M368 826q0 -28 -15.5 -44.5t-43.5 -16.5q-40 0 -40 35q0 29 14.5 45.5t42.5 16.5q42 0 42 -36zM152 826q0 -28 -15.5 -44.5t-43.5 -16.5q-40 0 -40 35q0 29 14.5 45.5t42.5 16.5q42 0 42 -36zM231 667l-118 -667h-89l118 667h89z" />
    <glyph glyph-name="Eth" unicode="&#xd0;" horiz-adv-x="689" 
d="M639 492q0 -82 -27 -211t-62 -183q-38 -59 -102 -78.5t-152 -19.5h-250l52 296h-76l14 80h76l52 291h217q88 0 141 -12t84 -52q33 -43 33 -111zM549 476q0 31 -9 52.5t-21.5 32.5t-37 17t-44 7t-53.5 1h-146l-37 -210h175l-14 -80h-175l-38 -215h153q38 0 61.5 2
t53.5 14.5t49 36.5q34 42 58.5 155.5t24.5 186.5z" />
    <glyph glyph-name="Ntilde" unicode="&#xd1;" horiz-adv-x="654" 
d="M604 804l-32 -16t-34.5 -16.5t-31 -11.5t-34 -7.5t-31.5 3.5t-33 14q-3 2 -14 10t-14 9.5t-13 5.5t-17 3t-18.5 -4t-25.5 -9l-69 -31l-20 58l31.5 15.5t35 16.5t30.5 10.5t35 7t30 -4.5t33 -14q4 -2 12.5 -8.5t12 -8.5l11 -6t13 -4h14t17.5 3.5l21 8.5l71 34zM629 667
l-118 -667h-91l-216 529l-94 -529h-86l118 667h91l217 -526l93 526h86z" />
    <glyph glyph-name="Ograve" unicode="&#xd2;" horiz-adv-x="669" 
d="M494 736h-88l-110 126h88zM619 500q0 -28 -1.5 -53t-5 -51t-6 -39.5t-8.5 -43t-7 -36.5q-9 -47 -18.5 -80t-25.5 -68.5t-38.5 -58t-54.5 -41.5t-77 -28t-103 -9q-122 0 -173 45t-51 131q0 59 19 166q19 106 40 168.5t60 101.5q70 70 228 70q123 0 172.5 -45.5
t49.5 -128.5zM530 487q0 63 -31 84.5t-113 21.5q-65 0 -109.5 -17.5t-70.5 -65.5q-24 -46 -45.5 -154.5t-21.5 -174.5q0 -63 31 -85t113 -22q65 0 109.5 17.5t70.5 66.5q24 46 45.5 154.5t21.5 174.5z" />
    <glyph glyph-name="Oacute" unicode="&#xd3;" horiz-adv-x="669" 
d="M567 862l-155 -126h-104l156 126h103zM619 500q0 -28 -1.5 -53t-5 -51t-6 -39.5t-8.5 -43t-7 -36.5q-9 -47 -18.5 -80t-25.5 -68.5t-38.5 -58t-54.5 -41.5t-77 -28t-103 -9q-122 0 -173 45t-51 131q0 59 19 166q19 106 40 168.5t60 101.5q70 70 228 70q123 0 172.5 -45.5
t49.5 -128.5zM530 487q0 63 -31 84.5t-113 21.5q-65 0 -109.5 -17.5t-70.5 -65.5q-24 -46 -45.5 -154.5t-21.5 -174.5q0 -63 31 -85t113 -22q65 0 109.5 17.5t70.5 66.5q24 46 45.5 154.5t21.5 174.5z" />
    <glyph glyph-name="Ocircumflex" unicode="&#xd4;" horiz-adv-x="669" 
d="M577 735h-84l-68 77l-93 -77h-97l155 127h76zM619 500q0 -28 -1.5 -53t-5 -51t-6 -39.5t-8.5 -43t-7 -36.5q-9 -47 -18.5 -80t-25.5 -68.5t-38.5 -58t-54.5 -41.5t-77 -28t-103 -9q-122 0 -173 45t-51 131q0 59 19 166q19 106 40 168.5t60 101.5q70 70 228 70
q123 0 172.5 -45.5t49.5 -128.5zM530 487q0 63 -31 84.5t-113 21.5q-65 0 -109.5 -17.5t-70.5 -65.5q-24 -46 -45.5 -154.5t-21.5 -174.5q0 -63 31 -85t113 -22q65 0 109.5 17.5t70.5 66.5q24 46 45.5 154.5t21.5 174.5z" />
    <glyph glyph-name="Otilde" unicode="&#xd5;" horiz-adv-x="669" 
d="M612 804l-32 -16t-34.5 -16.5t-31 -11.5t-34 -7.5t-31.5 3.5t-33 14q-3 2 -14 10t-14 9.5t-13 5.5t-17 3t-18.5 -4t-25.5 -9l-69 -31l-20 58l31.5 15.5t35 16.5t30.5 10.5t35 7t30 -4.5t33 -14q4 -2 12.5 -8.5t12 -8.5l11 -6t13 -4h14t17.5 3.5l21 8.5l71 34zM619 500
q0 -28 -1.5 -53t-5 -51t-6 -39.5t-8.5 -43t-7 -36.5q-9 -47 -18.5 -80t-25.5 -68.5t-38.5 -58t-54.5 -41.5t-77 -28t-103 -9q-122 0 -173 45t-51 131q0 59 19 166q19 106 40 168.5t60 101.5q70 70 228 70q123 0 172.5 -45.5t49.5 -128.5zM530 487q0 63 -31 84.5t-113 21.5
q-65 0 -109.5 -17.5t-70.5 -65.5q-24 -46 -45.5 -154.5t-21.5 -174.5q0 -63 31 -85t113 -22q65 0 109.5 17.5t70.5 66.5q24 46 45.5 154.5t21.5 174.5z" />
    <glyph glyph-name="Odieresis" unicode="&#xd6;" horiz-adv-x="669" 
d="M577 827q0 -28 -15.5 -44.5t-43.5 -16.5q-40 0 -40 35q0 29 14.5 45.5t42.5 16.5q42 0 42 -36zM361 827q0 -28 -15.5 -44.5t-43.5 -16.5q-40 0 -40 35q0 29 14.5 45.5t42.5 16.5q42 0 42 -36zM619 500q0 -28 -1.5 -53t-5 -51t-6 -39.5t-8.5 -43t-7 -36.5
q-9 -47 -18.5 -80t-25.5 -68.5t-38.5 -58t-54.5 -41.5t-77 -28t-103 -9q-122 0 -173 45t-51 131q0 59 19 166q19 106 40 168.5t60 101.5q70 70 228 70q123 0 172.5 -45.5t49.5 -128.5zM530 487q0 63 -31 84.5t-113 21.5q-65 0 -109.5 -17.5t-70.5 -65.5
q-24 -46 -45.5 -154.5t-21.5 -174.5q0 -63 31 -85t113 -22q65 0 109.5 17.5t70.5 66.5q24 46 45.5 154.5t21.5 174.5z" />
    <glyph glyph-name="multiply" unicode="&#xd7;" horiz-adv-x="582" 
d="M524 74l-54 -54l-180 179l-178 -179l-54 54l179 178l-179 180l54 54l178 -180l180 180l54 -54l-180 -180z" />
    <glyph glyph-name="Oslash" unicode="&#xd8;" horiz-adv-x="669" 
d="M619 500q0 -28 -1.5 -53t-5 -51t-6 -39.5t-8.5 -43t-7 -36.5q-9 -47 -18.5 -80t-25.5 -68.5t-38.5 -58t-54.5 -41.5t-77 -28t-103 -9q-4 0 -19.5 0.5t-18.5 0.5l-55 -136l-72 28l50 122q-109 33 -109 161q0 59 19 166q19 106 40 168.5t60 101.5q70 70 228 70q28 0 32 -1
l54 133l71 -29l-47 -117q112 -29 112 -160zM530 487q0 79 -55 96l-206 -509h14q65 0 109.5 17.5t70.5 66.5q24 46 45.5 154.5t21.5 174.5zM397 592l-11 1q-65 0 -109.5 -17.5t-70.5 -65.5q-24 -46 -45.5 -154.5t-21.5 -174.5q0 -35 10.5 -57t17 -26t23.5 -13z" />
    <glyph glyph-name="Ugrave" unicode="&#xd9;" horiz-adv-x="644" 
d="M480 736h-88l-110 126h88zM626 667l-58 -331q-25 -142 -40 -190t-53 -86q-68 -68 -209 -68q-218 0 -218 166q0 40 24 178l58 331h89l-58 -331l-8 -45.5l-8 -45t-5.5 -36.5t-2.5 -35q0 -51 29 -76t105 -25q114 0 154 61q26 37 44 147q10 54 10 55l58 331h89z" />
    <glyph glyph-name="Uacute" unicode="&#xda;" horiz-adv-x="644" 
d="M549 862l-155 -126h-104l156 126h103zM626 667l-58 -331q-25 -142 -40 -190t-53 -86q-68 -68 -209 -68q-218 0 -218 166q0 40 24 178l58 331h89l-58 -331l-8 -45.5l-8 -45t-5.5 -36.5t-2.5 -35q0 -51 29 -76t105 -25q114 0 154 61q26 37 44 147q10 54 10 55l58 331h89z
" />
    <glyph glyph-name="Ucircumflex" unicode="&#xdb;" horiz-adv-x="644" 
d="M561 735h-84l-68 77l-93 -77h-97l155 127h76zM626 667l-58 -331q-25 -142 -40 -190t-53 -86q-68 -68 -209 -68q-218 0 -218 166q0 40 24 178l58 331h89l-58 -331l-8 -45.5l-8 -45t-5.5 -36.5t-2.5 -35q0 -51 29 -76t105 -25q114 0 154 61q26 37 44 147q10 54 10 55
l58 331h89z" />
    <glyph glyph-name="Udieresis" unicode="&#xdc;" horiz-adv-x="644" 
d="M561 827q0 -28 -15.5 -44.5t-43.5 -16.5q-40 0 -40 35q0 29 14.5 45.5t42.5 16.5q42 0 42 -36zM345 827q0 -28 -15.5 -44.5t-43.5 -16.5q-40 0 -40 35q0 29 14.5 45.5t42.5 16.5q42 0 42 -36zM626 667l-58 -331q-25 -142 -40 -190t-53 -86q-68 -68 -209 -68
q-218 0 -218 166q0 40 24 178l58 331h89l-58 -331l-8 -45.5l-8 -45t-5.5 -36.5t-2.5 -35q0 -51 29 -76t105 -25q114 0 154 61q26 37 44 147q10 54 10 55l58 331h89z" />
    <glyph glyph-name="Yacute" unicode="&#xdd;" horiz-adv-x="568" 
d="M514 862l-155 -126h-104l156 126h103zM625 667l-304 -376l-51 -291h-89l51 291l-171 376h99l128 -297l233 297h104z" />
    <glyph glyph-name="Thorn" unicode="&#xde;" horiz-adv-x="613" 
d="M578 384q0 -49 -17 -102.5t-49 -85.5q-35 -35 -84.5 -44t-134.5 -9h-155l-25 -143h-89l118 667h89l-25 -140h103h29.5h29.5t27 -0.5t27.5 -1t24 -2t24 -4l21 -6t21 -8t17.5 -10.5t16 -13q32 -32 32 -98zM486 373q0 21 -6.5 35.5t-15.5 22t-28 11.5t-33.5 4.5t-43.5 0.5
h-167l-39 -224h140h25h26t22.5 1t24.5 3l19.5 5t20 8.5t16.5 13.5q39 39 39 119z" />
    <glyph glyph-name="germandbls" unicode="&#xdf;" horiz-adv-x="567" 
d="M531 570q0 -48 -16 -97t-44 -77q-21 -21 -53 -30q62 -18 62 -109q0 -130 -70 -200q-57 -57 -186 -57h-66l14 77h63q83 0 117 34q20 20 31.5 59t11.5 73q0 52 -31.5 68.5t-93.5 16.5h-54l13 77h56q90 0 121 32q39 39 39 121q0 37 -28 52.5t-86 15.5q-42 0 -69.5 -9
t-43.5 -29.5t-23.5 -43t-14.5 -60.5l-85 -484h-85l83 473q6 36 10.5 55.5t13.5 48t19.5 44t28.5 34t41.5 27.5t57 15.5t75.5 6.5q96 0 144 -32t48 -102z" />
    <glyph glyph-name="agrave" unicode="&#xe0;" horiz-adv-x="527" 
d="M381 542h-88l-110 125h88zM465 362q0 -24 -13 -99l-47 -263h-78l8 47q-55 -55 -162 -55q-76 0 -121 29.5t-45 92.5q0 86 48 134q30 30 71 39.5t109 9.5h138q8 51 8 58q0 38 -23.5 50t-79.5 12q-75 0 -105.5 -18.5t-37.5 -53.5h-83q8 44 29.5 74.5t54.5 45.5t68 21t81 6
q180 0 180 -130zM363 226h-128q-24 0 -36 -0.5t-36.5 -5.5t-37.5 -15t-24 -30.5t-11 -50.5q0 -28 24.5 -43.5t70.5 -15.5q50 0 82 9t50.5 31.5t27.5 48t18 72.5z" />
    <glyph glyph-name="aacute" unicode="&#xe1;" horiz-adv-x="527" 
d="M441 667l-155 -126h-104l156 126h103zM465 362q0 -24 -13 -99l-47 -263h-78l8 47q-55 -55 -162 -55q-76 0 -121 29.5t-45 92.5q0 86 48 134q30 30 71 39.5t109 9.5h138q8 51 8 58q0 38 -23.5 50t-79.5 12q-75 0 -105.5 -18.5t-37.5 -53.5h-83q8 44 29.5 74.5t54.5 45.5
t68 21t81 6q180 0 180 -130zM363 226h-128q-24 0 -36 -0.5t-36.5 -5.5t-37.5 -15t-24 -30.5t-11 -50.5q0 -28 24.5 -43.5t70.5 -15.5q50 0 82 9t50.5 31.5t27.5 48t18 72.5z" />
    <glyph glyph-name="acircumflex" unicode="&#xe2;" horiz-adv-x="527" 
d="M463 540h-84l-68 77l-93 -77h-97l155 127h76zM465 362q0 -24 -13 -99l-47 -263h-78l8 47q-55 -55 -162 -55q-76 0 -121 29.5t-45 92.5q0 86 48 134q30 30 71 39.5t109 9.5h138q8 51 8 58q0 38 -23.5 50t-79.5 12q-75 0 -105.5 -18.5t-37.5 -53.5h-83q8 44 29.5 74.5
t54.5 45.5t68 21t81 6q180 0 180 -130zM363 226h-128q-24 0 -36 -0.5t-36.5 -5.5t-37.5 -15t-24 -30.5t-11 -50.5q0 -28 24.5 -43.5t70.5 -15.5q50 0 82 9t50.5 31.5t27.5 48t18 72.5z" />
    <glyph glyph-name="atilde" unicode="&#xe3;" horiz-adv-x="527" 
d="M498 609l-32 -16t-34.5 -16.5t-31 -11.5t-34 -7.5t-31.5 3.5t-33 14q-3 2 -14 10t-14 9.5t-13 5.5t-17 3t-18.5 -4t-25.5 -9l-69 -31l-20 58l31.5 15.5t35 16.5t30.5 10.5t35 7t30 -4.5t33 -14q4 -2 12.5 -8.5t12 -8.5l11 -6t13 -4h14t17.5 3.5l21 8.5l71 34zM465 362
q0 -24 -13 -99l-47 -263h-78l8 47q-55 -55 -162 -55q-76 0 -121 29.5t-45 92.5q0 86 48 134q30 30 71 39.5t109 9.5h138q8 51 8 58q0 38 -23.5 50t-79.5 12q-75 0 -105.5 -18.5t-37.5 -53.5h-83q8 44 29.5 74.5t54.5 45.5t68 21t81 6q180 0 180 -130zM363 226h-128
q-24 0 -36 -0.5t-36.5 -5.5t-37.5 -15t-24 -30.5t-11 -50.5q0 -28 24.5 -43.5t70.5 -15.5q50 0 82 9t50.5 31.5t27.5 48t18 72.5z" />
    <glyph glyph-name="adieresis" unicode="&#xe4;" horiz-adv-x="527" 
d="M463 631q0 -28 -15.5 -44.5t-43.5 -16.5q-40 0 -40 35q0 29 14.5 45.5t42.5 16.5q42 0 42 -36zM247 631q0 -28 -15.5 -44.5t-43.5 -16.5q-40 0 -40 35q0 29 14.5 45.5t42.5 16.5q42 0 42 -36zM465 362q0 -24 -13 -99l-47 -263h-78l8 47q-55 -55 -162 -55q-76 0 -121 29.5
t-45 92.5q0 86 48 134q30 30 71 39.5t109 9.5h138q8 51 8 58q0 38 -23.5 50t-79.5 12q-75 0 -105.5 -18.5t-37.5 -53.5h-83q8 44 29.5 74.5t54.5 45.5t68 21t81 6q180 0 180 -130zM363 226h-128q-24 0 -36 -0.5t-36.5 -5.5t-37.5 -15t-24 -30.5t-11 -50.5q0 -28 24.5 -43.5
t70.5 -15.5q50 0 82 9t50.5 31.5t27.5 48t18 72.5z" />
    <glyph glyph-name="aring" unicode="&#xe5;" horiz-adv-x="527" 
d="M465 362q0 -24 -13 -99l-47 -263h-78l8 47q-55 -55 -162 -55q-76 0 -121 29.5t-45 92.5q0 86 48 134q30 30 71 39.5t109 9.5h138q8 51 8 58q0 38 -23.5 50t-79.5 12q-75 0 -105.5 -18.5t-37.5 -53.5h-83q5 32 20 57.5t28 38.5t35 23.5t28.5 12t20.5 5.5q-7 15 -7 38
q0 82 39 120q27 27 91 27q54 0 79.5 -19.5t25.5 -61.5q0 -65 -28 -107q48 -19 66 -53q15 -27 15 -64zM356 583q0 18 -11.5 25.5t-39.5 7.5q-36 0 -50 -14q-10 -10 -16 -35.5t-6 -43.5t11.5 -25.5t39.5 -7.5q36 0 50 14q10 10 16 35.5t6 43.5zM363 226h-128q-24 0 -36 -0.5
t-36.5 -5.5t-37.5 -15t-24 -30.5t-11 -50.5q0 -28 24.5 -43.5t70.5 -15.5q50 0 82 9t50.5 31.5t27.5 48t18 72.5z" />
    <glyph glyph-name="ae" unicode="&#xe6;" horiz-adv-x="859" 
d="M797 331q0 -31 -13 -112h-343q-7 -35 -7 -66q0 -47 25.5 -67t90.5 -20q26 0 45 2.5t39 9.5t33 23t17 40h80q-27 -149 -217 -149q-68 0 -109 15.5t-57 57.5q-64 -73 -207 -73q-76 0 -121.5 29t-45.5 91q0 84 49 132q29 29 72.5 38t107.5 9h137q8 51 8 64q0 38 -23.5 50
t-79.5 12q-75 0 -105.5 -18.5t-37.5 -53.5h-83q15 84 74.5 115.5t153.5 31.5q130 0 161 -62q55 62 165 62q107 0 149 -40.5t42 -120.5zM717 339q0 43 -25 61.5t-86 18.5q-73 0 -105.5 -30.5t-45.5 -97.5h257q5 30 5 48zM363 219h-128q-24 0 -36 -0.5t-36.5 -5.5t-37.5 -14.5
t-24 -29t-11 -48.5q0 -57 95 -57q50 0 82 8.5t50.5 30.5t27.5 46.5t18 69.5z" />
    <glyph glyph-name="ccedilla" unicode="&#xe7;" horiz-adv-x="521" 
d="M474 373q0 -13 -3 -30h-80q1 5 1 17q0 24 -18 37t-38 15.5t-50 2.5q-77 0 -112 -35q-29 -29 -45 -99t-16 -126q0 -46 25 -66t87 -20q24 0 42 2t38.5 9t33.5 22.5t17 38.5h81q-18 -145 -204 -149l-9 -33q57 0 57 -49q0 -50 -26 -76q-23 -23 -69 -23q-76 0 -76 53q0 3 2 17
h46q-1 -4 -1 -10q0 -18 33 -18q41 0 41 44q0 22 -32 24l-31 2l16 70q-85 7 -121.5 45.5t-36.5 114.5q0 71 22 156t61 125q55 58 174 58q191 0 191 -119z" />
    <glyph glyph-name="egrave" unicode="&#xe8;" horiz-adv-x="534" 
d="M393 541h-88l-110 126h88zM472 341q0 -75 -13 -127h-343q-7 -42 -7 -61q0 -47 26 -67t90 -20q26 0 45 2.5t39 9.5t33 23t17 40h80q-19 -149 -217 -149q-108 0 -152 40t-44 121q0 69 22 156.5t61 126.5q56 56 172 56q106 0 148.5 -39.5t42.5 -111.5zM392 339
q0 43 -25 61.5t-86 18.5q-74 0 -106.5 -31.5t-45.5 -101.5h257q6 36 6 53z" />
    <glyph glyph-name="eacute" unicode="&#xe9;" horiz-adv-x="534" 
d="M469 667l-155 -126h-104l156 126h103zM472 341q0 -75 -13 -127h-343q-7 -42 -7 -61q0 -47 26 -67t90 -20q26 0 45 2.5t39 9.5t33 23t17 40h80q-19 -149 -217 -149q-108 0 -152 40t-44 121q0 69 22 156.5t61 126.5q56 56 172 56q106 0 148.5 -39.5t42.5 -111.5zM392 339
q0 43 -25 61.5t-86 18.5q-74 0 -106.5 -31.5t-45.5 -101.5h257q6 36 6 53z" />
    <glyph glyph-name="ecircumflex" unicode="&#xea;" horiz-adv-x="534" 
d="M474 540h-84l-68 77l-93 -77h-97l155 127h76zM472 341q0 -75 -13 -127h-343q-7 -42 -7 -61q0 -47 26 -67t90 -20q26 0 45 2.5t39 9.5t33 23t17 40h80q-19 -149 -217 -149q-108 0 -152 40t-44 121q0 69 22 156.5t61 126.5q56 56 172 56q106 0 148.5 -39.5t42.5 -111.5z
M392 339q0 43 -25 61.5t-86 18.5q-74 0 -106.5 -31.5t-45.5 -101.5h257q6 36 6 53z" />
    <glyph glyph-name="edieresis" unicode="&#xeb;" horiz-adv-x="534" 
d="M472 631q0 -28 -15.5 -44.5t-43.5 -16.5q-40 0 -40 35q0 29 14.5 45.5t42.5 16.5q42 0 42 -36zM256 631q0 -28 -15.5 -44.5t-43.5 -16.5q-40 0 -40 35q0 29 14.5 45.5t42.5 16.5q42 0 42 -36zM472 341q0 -75 -13 -127h-343q-7 -42 -7 -61q0 -47 26 -67t90 -20
q26 0 45 2.5t39 9.5t33 23t17 40h80q-19 -149 -217 -149q-108 0 -152 40t-44 121q0 69 22 156.5t61 126.5q56 56 172 56q106 0 148.5 -39.5t42.5 -111.5zM392 339q0 43 -25 61.5t-86 18.5q-74 0 -106.5 -31.5t-45.5 -101.5h257q6 36 6 53z" />
    <glyph glyph-name="igrave" unicode="&#xec;" horiz-adv-x="224" 
d="M239 541h-88l-110 126h88zM180 484l-85 -484h-85l85 484h85z" />
    <glyph glyph-name="iacute" unicode="&#xed;" horiz-adv-x="224" 
d="M308 667l-155 -126h-104l156 126h103zM180 484l-85 -484h-85l85 484h85z" />
    <glyph glyph-name="icircumflex" unicode="&#xee;" horiz-adv-x="224" 
d="M309 540h-84l-68 77l-93 -77h-97l155 127h76zM180 484l-85 -484h-85l85 484h85z" />
    <glyph glyph-name="idieresis" unicode="&#xef;" horiz-adv-x="224" 
d="M320 631q0 -28 -15.5 -44.5t-43.5 -16.5q-40 0 -40 35q0 29 14.5 45.5t42.5 16.5q42 0 42 -36zM104 631q0 -28 -15.5 -44.5t-43.5 -16.5q-40 0 -40 35q0 29 14.5 45.5t42.5 16.5q42 0 42 -36zM180 484l-85 -484h-85l85 484h85z" />
    <glyph glyph-name="eth" unicode="&#xf0;" horiz-adv-x="551" 
d="M490 329q0 -73 -22.5 -159t-63.5 -125q-54 -53 -178 -53q-108 0 -153 37.5t-45 118.5q0 75 24 160.5t67 125.5q57 52 172 52q24 0 39 -3l-82 100l-68 -50l-36 44l65 49l-38 46l66 51l38 -47l61 47l36 -44l-59 -45l128 -159q28 -35 38.5 -67t10.5 -79zM402 314
q0 55 -25.5 76t-90.5 21q-63 0 -95 -22q-39 -26 -58.5 -97t-19.5 -135q0 -47 25 -67t89 -20q70 0 105 26t52.5 92.5t17.5 125.5z" />
    <glyph glyph-name="ntilde" unicode="&#xf1;" horiz-adv-x="539" 
d="M516 609l-32 -16t-34.5 -16.5t-31 -11.5t-34 -7.5t-31.5 3.5t-33 14q-3 2 -14 10t-14 9.5t-13 5.5t-17 3t-18.5 -4t-25.5 -9l-69 -31l-20 58l31.5 15.5t35 16.5t30.5 10.5t35 7t30 -4.5t33 -14q4 -2 12.5 -8.5t12 -8.5l11 -6t13 -4h14t17.5 3.5l21 8.5l71 34zM477 366
q0 -25 -14 -109l-45 -257h-85l44 250q11 66 11 91q0 37 -20 54.5t-73 17.5q-37 0 -64 -11t-42 -25t-26.5 -44t-16 -49.5t-11.5 -60.5l-40 -223h-85l86 484h77l-8 -47q50 55 152 55q79 0 119.5 -32.5t40.5 -93.5z" />
    <glyph glyph-name="ograve" unicode="&#xf2;" horiz-adv-x="551" 
d="M400 541h-88l-110 126h88zM489 331q0 -39 -9 -89q-12 -68 -26.5 -110.5t-42.5 -76.5t-73.5 -48.5t-113.5 -14.5q-109 0 -153.5 38.5t-44.5 122.5q0 39 9 89q12 68 26.5 110.5t42.5 76.5t73.5 48.5t113.5 14.5q109 0 153.5 -38.5t44.5 -122.5zM402 328q0 47 -24.5 67
t-86.5 20q-81 0 -116 -34q-36 -35 -55 -154q-7 -49 -7 -71q0 -47 24.5 -67t86.5 -20q81 0 116 34q36 35 55 154q7 49 7 71z" />
    <glyph glyph-name="oacute" unicode="&#xf3;" horiz-adv-x="551" 
d="M470 667l-155 -126h-104l156 126h103zM489 331q0 -39 -9 -89q-12 -68 -26.5 -110.5t-42.5 -76.5t-73.5 -48.5t-113.5 -14.5q-109 0 -153.5 38.5t-44.5 122.5q0 39 9 89q12 68 26.5 110.5t42.5 76.5t73.5 48.5t113.5 14.5q109 0 153.5 -38.5t44.5 -122.5zM402 328
q0 47 -24.5 67t-86.5 20q-81 0 -116 -34q-36 -35 -55 -154q-7 -49 -7 -71q0 -47 24.5 -67t86.5 -20q81 0 116 34q36 35 55 154q7 49 7 71z" />
    <glyph glyph-name="ocircumflex" unicode="&#xf4;" horiz-adv-x="551" 
d="M481 540h-84l-68 77l-93 -77h-97l155 127h76zM489 331q0 -39 -9 -89q-12 -68 -26.5 -110.5t-42.5 -76.5t-73.5 -48.5t-113.5 -14.5q-109 0 -153.5 38.5t-44.5 122.5q0 39 9 89q12 68 26.5 110.5t42.5 76.5t73.5 48.5t113.5 14.5q109 0 153.5 -38.5t44.5 -122.5zM402 328
q0 47 -24.5 67t-86.5 20q-81 0 -116 -34q-36 -35 -55 -154q-7 -49 -7 -71q0 -47 24.5 -67t86.5 -20q81 0 116 34q36 35 55 154q7 49 7 71z" />
    <glyph glyph-name="otilde" unicode="&#xf5;" horiz-adv-x="551" 
d="M517 609l-32 -16t-34.5 -16.5t-31 -11.5t-34 -7.5t-31.5 3.5t-33 14q-3 2 -14 10t-14 9.5t-13 5.5t-17 3t-18.5 -4t-25.5 -9l-69 -31l-20 58l31.5 15.5t35 16.5t30.5 10.5t35 7t30 -4.5t33 -14q4 -2 12.5 -8.5t12 -8.5l11 -6t13 -4h14t17.5 3.5l21 8.5l71 34zM489 331
q0 -39 -9 -89q-12 -68 -26.5 -110.5t-42.5 -76.5t-73.5 -48.5t-113.5 -14.5q-109 0 -153.5 38.5t-44.5 122.5q0 39 9 89q12 68 26.5 110.5t42.5 76.5t73.5 48.5t113.5 14.5q109 0 153.5 -38.5t44.5 -122.5zM402 328q0 47 -24.5 67t-86.5 20q-81 0 -116 -34q-36 -35 -55 -154
q-7 -49 -7 -71q0 -47 24.5 -67t86.5 -20q81 0 116 34q36 35 55 154q7 49 7 71z" />
    <glyph glyph-name="odieresis" unicode="&#xf6;" horiz-adv-x="551" 
d="M482 631q0 -28 -15.5 -44.5t-43.5 -16.5q-40 0 -40 35q0 29 14.5 45.5t42.5 16.5q42 0 42 -36zM266 631q0 -28 -15.5 -44.5t-43.5 -16.5q-40 0 -40 35q0 29 14.5 45.5t42.5 16.5q42 0 42 -36zM489 331q0 -39 -9 -89q-12 -68 -26.5 -110.5t-42.5 -76.5t-73.5 -48.5
t-113.5 -14.5q-109 0 -153.5 38.5t-44.5 122.5q0 39 9 89q12 68 26.5 110.5t42.5 76.5t73.5 48.5t113.5 14.5q109 0 153.5 -38.5t44.5 -122.5zM402 328q0 47 -24.5 67t-86.5 20q-81 0 -116 -34q-36 -35 -55 -154q-7 -49 -7 -71q0 -47 24.5 -67t86.5 -20q81 0 116 34
q36 35 55 154q7 49 7 71z" />
    <glyph glyph-name="divide" unicode="&#xf7;" horiz-adv-x="582" 
d="M346 438q0 -56 -54 -56q-55 0 -55 56q0 54 55 54q54 0 54 -54zM544 204h-506v77h506v-77zM346 48q0 -56 -54 -56q-55 0 -55 56q0 54 55 54q54 0 54 -54z" />
    <glyph glyph-name="oslash" unicode="&#xf8;" horiz-adv-x="551" 
d="M489 331q0 -39 -9 -89q-12 -68 -26.5 -110.5t-42.5 -76.5t-73.5 -48.5t-113.5 -14.5q-35 0 -59 4l-51 -95l-63 32l44 82q-15 9 -21.5 14t-20.5 21t-20.5 42t-6.5 61q0 39 9 89q12 68 26.5 110.5t42.5 76.5t73.5 48.5t113.5 14.5q35 0 59 -4l48 89l61 -33l-40 -75
q70 -34 70 -138zM402 328q0 46 -23 66l-175 -325h20q81 0 116 34q36 35 55 154q7 49 7 71zM311 414l-20 1q-81 0 -116 -34q-36 -35 -55 -154q-7 -49 -7 -71q0 -49 23 -66z" />
    <glyph glyph-name="ugrave" unicode="&#xf9;" horiz-adv-x="538" 
d="M390 541h-88l-110 126h88zM493 484l-85 -484h-77l8 47q-50 -55 -150 -55q-87 0 -125 38t-38 88q0 25 14 109l45 257h86l-45 -250q-12 -62 -12 -92q0 -33 20.5 -52t76.5 -19q36 0 62.5 11.5t41 25t26.5 45t15.5 49l11.5 59.5l40 223h85z" />
    <glyph glyph-name="uacute" unicode="&#xfa;" horiz-adv-x="538" 
d="M460 667l-155 -126h-104l156 126h103zM493 484l-85 -484h-77l8 47q-50 -55 -150 -55q-87 0 -125 38t-38 88q0 25 14 109l45 257h86l-45 -250q-12 -62 -12 -92q0 -33 20.5 -52t76.5 -19q36 0 62.5 11.5t41 25t26.5 45t15.5 49l11.5 59.5l40 223h85z" />
    <glyph glyph-name="ucircumflex" unicode="&#xfb;" horiz-adv-x="538" 
d="M472 540h-84l-68 77l-93 -77h-97l155 127h76zM493 484l-85 -484h-77l8 47q-50 -55 -150 -55q-87 0 -125 38t-38 88q0 25 14 109l45 257h86l-45 -250q-12 -62 -12 -92q0 -33 20.5 -52t76.5 -19q36 0 62.5 11.5t41 25t26.5 45t15.5 49l11.5 59.5l40 223h85z" />
    <glyph glyph-name="udieresis" unicode="&#xfc;" horiz-adv-x="538" 
d="M472 631q0 -28 -15.5 -44.5t-43.5 -16.5q-40 0 -40 35q0 29 14.5 45.5t42.5 16.5q42 0 42 -36zM256 631q0 -28 -15.5 -44.5t-43.5 -16.5q-40 0 -40 35q0 29 14.5 45.5t42.5 16.5q42 0 42 -36zM493 484l-85 -484h-77l8 47q-50 -55 -150 -55q-87 0 -125 38t-38 88
q0 25 14 109l45 257h86l-45 -250q-12 -62 -12 -92q0 -33 20.5 -52t76.5 -19q36 0 62.5 11.5t41 25t26.5 45t15.5 49l11.5 59.5l40 223h85z" />
    <glyph glyph-name="yacute" unicode="&#xfd;" horiz-adv-x="487" 
d="M441 667l-155 -126h-104l156 126h103zM498 484l-375 -675h-94l111 197l-96 478h88l70 -383l203 383h93z" />
    <glyph glyph-name="thorn" unicode="&#xfe;" horiz-adv-x="557" 
d="M493 347q0 -111 -25.5 -189t-60.5 -113q-29 -29 -63.5 -41t-90.5 -12q-107 0 -151 49l-41 -232h-85l159 888h85l-47 -260q58 55 152 55q92 0 130 -36t38 -109zM404 325q0 45 -17 66t-72 21q-83 0 -123 -37q-31 -30 -46.5 -93.5t-15.5 -121.5q0 -49 27.5 -69.5t92.5 -20.5
q62 0 92 30q29 29 45.5 98.5t16.5 126.5z" />
    <glyph glyph-name="ydieresis" unicode="&#xff;" horiz-adv-x="487" 
d="M453 631q0 -28 -15.5 -44.5t-43.5 -16.5q-40 0 -40 35q0 29 14.5 45.5t42.5 16.5q42 0 42 -36zM237 631q0 -28 -15.5 -44.5t-43.5 -16.5q-40 0 -40 35q0 29 14.5 45.5t42.5 16.5q42 0 42 -36zM498 484l-375 -675h-94l111 197l-96 478h88l70 -383l203 383h93z" />
    <glyph glyph-name="Amacron" unicode="&#x100;" horiz-adv-x="626" 
d="M556 0h-94l-35 184h-277l-100 -184h-97l376 667h88zM412 261l-56 302l-164 -302h220zM576 835l-11 -65h-344l12 65h343z" />
    <glyph glyph-name="amacron" unicode="&#x101;" horiz-adv-x="527" 
d="M465 362q0 -24 -13 -99l-47 -263h-78l8 47q-55 -55 -162 -55q-76 0 -121 29.5t-45 92.5q0 86 48 134q30 30 71 39.5t109 9.5h138q8 51 8 58q0 38 -23.5 50t-79.5 12q-75 0 -105.5 -18.5t-37.5 -53.5h-83q8 44 29.5 74.5t54.5 45.5t68 21t81 6q180 0 180 -130zM363 226
h-128q-24 0 -36 -0.5t-36.5 -5.5t-37.5 -15t-24 -30.5t-11 -50.5q0 -28 24.5 -43.5t70.5 -15.5q50 0 82 9t50.5 31.5t27.5 48t18 72.5zM497 652l-11 -65h-344l12 65h343z" />
    <glyph glyph-name="Abreve" unicode="&#x102;" horiz-adv-x="626" 
d="M556 0h-94l-35 184h-277l-100 -184h-97l376 667h88zM412 261l-56 302l-164 -302h220zM545 867q-13 -73 -47 -100.5t-110 -27.5q-70 0 -101.5 21t-31.5 70q0 18 4 37h63q-3 -18 -3 -31q0 -24 16.5 -31t54.5 -7q45 0 64.5 12.5t27.5 56.5h63z" />
    <glyph glyph-name="abreve" unicode="&#x103;" horiz-adv-x="527" 
d="M465 362q0 -24 -13 -99l-47 -263h-78l8 47q-55 -55 -162 -55q-76 0 -121 29.5t-45 92.5q0 86 48 134q30 30 71 39.5t109 9.5h138q8 51 8 58q0 38 -23.5 50t-79.5 12q-75 0 -105.5 -18.5t-37.5 -53.5h-83q8 44 29.5 74.5t54.5 45.5t68 21t81 6q180 0 180 -130zM363 226
h-128q-24 0 -36 -0.5t-36.5 -5.5t-37.5 -15t-24 -30.5t-11 -50.5q0 -28 24.5 -43.5t70.5 -15.5q50 0 82 9t50.5 31.5t27.5 48t18 72.5zM454 667q-13 -73 -47 -100.5t-110 -27.5q-70 0 -101.5 21t-31.5 70q0 18 4 37h63q-3 -18 -3 -31q0 -24 16.5 -31t54.5 -7q45 0 64.5 12.5
t27.5 56.5h63z" />
    <glyph glyph-name="Aogonek" unicode="&#x104;" horiz-adv-x="626" 
d="M412 261l-56 302l-164 -302h220zM461 6l-34 178h-277l-100 -184h-97l376 667h88l139 -667q-45 -17 -76 -47t-31 -68q0 -52 69 -52q16 0 40 3l-9 -57q-23 -5 -47 -5q-126 0 -126 99q0 46 24.5 81t60.5 52z" />
    <glyph glyph-name="aogonek" unicode="&#x105;" horiz-adv-x="527" 
d="M329 10l6 37q-55 -55 -162 -55q-76 0 -121 29.5t-45 92.5q0 86 48 134q30 30 71 39.5t109 9.5h138q8 51 8 58q0 38 -23.5 50t-79.5 12q-75 0 -105.5 -18.5t-37.5 -53.5h-83q8 44 29.5 74.5t54.5 45.5t68 21t81 6q180 0 180 -130q0 -24 -13 -99l-47 -263q-45 -17 -76 -47
t-31 -68q0 -52 69 -52q16 0 40 3l-9 -57q-22 -5 -47 -5q-126 0 -126 99q0 51 25.5 83t78.5 54zM363 226h-128q-24 0 -36 -0.5t-36.5 -5.5t-37.5 -15t-24 -30.5t-11 -50.5q0 -28 24.5 -43.5t70.5 -15.5q50 0 82 9t50.5 31.5t27.5 48t18 72.5z" />
    <glyph glyph-name="Cacute" unicode="&#x106;" horiz-adv-x="646" 
d="M614 535q0 -25 -4 -48h-86q3 23 3 38q0 37 -30.5 52.5t-104.5 15.5q-64 0 -100 -11.5t-61 -36.5q-27 -27 -42.5 -76t-30.5 -136q-19 -111 -19 -152q0 -60 30 -83.5t110 -23.5q98 0 139 22.5t51 82.5h86q-1 -24 -14.5 -60.5t-42.5 -65.5q-61 -61 -213 -61
q-133 0 -184 43.5t-51 132.5q0 57 19 166q19 106 40 168.5t60 101.5q70 70 228 70q108 0 162.5 -32t54.5 -107zM555 862l-155 -126h-104l156 126h103z" />
    <glyph glyph-name="cacute" unicode="&#x107;" horiz-adv-x="521" 
d="M474 373q0 -13 -3 -30h-80q1 5 1 17q0 24 -18 37t-38 15.5t-50 2.5q-77 0 -112 -35q-29 -29 -45 -99t-16 -126q0 -46 25 -66t87 -20q24 0 42 2t38.5 9t33.5 22.5t17 38.5h81q-18 -149 -216 -149q-106 0 -150.5 39t-44.5 122q0 71 22 156t61 125q55 58 174 58
q191 0 191 -119zM471 667l-155 -126h-104l156 126h103z" />
    <glyph glyph-name="Ccircumflex" unicode="&#x108;" horiz-adv-x="646" 
d="M614 535q0 -25 -4 -48h-86q3 23 3 38q0 37 -30.5 52.5t-104.5 15.5q-64 0 -100 -11.5t-61 -36.5q-27 -27 -42.5 -76t-30.5 -136q-19 -111 -19 -152q0 -60 30 -83.5t110 -23.5q98 0 139 22.5t51 82.5h86q-1 -24 -14.5 -60.5t-42.5 -65.5q-61 -61 -213 -61
q-133 0 -184 43.5t-51 132.5q0 57 19 166q19 106 40 168.5t60 101.5q70 70 228 70q108 0 162.5 -32t54.5 -107zM565 735h-84l-68 77l-93 -77h-97l155 127h76z" />
    <glyph glyph-name="ccircumflex" unicode="&#x109;" horiz-adv-x="521" 
d="M474 373q0 -13 -3 -30h-80q1 5 1 17q0 24 -18 37t-38 15.5t-50 2.5q-77 0 -112 -35q-29 -29 -45 -99t-16 -126q0 -46 25 -66t87 -20q24 0 42 2t38.5 9t33.5 22.5t17 38.5h81q-18 -149 -216 -149q-106 0 -150.5 39t-44.5 122q0 71 22 156t61 125q55 58 174 58
q191 0 191 -119zM463 540h-84l-68 77l-93 -77h-97l155 127h76z" />
    <glyph glyph-name="Cdotaccent" unicode="&#x10a;" horiz-adv-x="646" 
d="M614 535q0 -25 -4 -48h-86q3 23 3 38q0 37 -30.5 52.5t-104.5 15.5q-64 0 -100 -11.5t-61 -36.5q-27 -27 -42.5 -76t-30.5 -136q-19 -111 -19 -152q0 -60 30 -83.5t110 -23.5q98 0 139 22.5t51 82.5h86q-1 -24 -14.5 -60.5t-42.5 -65.5q-61 -61 -213 -61
q-133 0 -184 43.5t-51 132.5q0 57 19 166q19 106 40 168.5t60 101.5q70 70 228 70q108 0 162.5 -32t54.5 -107zM461 826q0 -28 -15.5 -44.5t-43.5 -16.5q-40 0 -40 35q0 29 14.5 45.5t42.5 16.5q42 0 42 -36z" />
    <glyph glyph-name="cdotaccent" unicode="&#x10b;" horiz-adv-x="521" 
d="M474 373q0 -13 -3 -30h-80q1 5 1 17q0 24 -18 37t-38 15.5t-50 2.5q-77 0 -112 -35q-29 -29 -45 -99t-16 -126q0 -46 25 -66t87 -20q24 0 42 2t38.5 9t33.5 22.5t17 38.5h81q-18 -149 -216 -149q-106 0 -150.5 39t-44.5 122q0 71 22 156t61 125q55 58 174 58
q191 0 191 -119zM360 631q0 -28 -15.5 -44.5t-43.5 -16.5q-40 0 -40 35q0 29 14.5 45.5t42.5 16.5q42 0 42 -36z" />
    <glyph glyph-name="Ccaron" unicode="&#x10c;" horiz-adv-x="646" 
d="M614 535q0 -25 -4 -48h-86q3 23 3 38q0 37 -30.5 52.5t-104.5 15.5q-64 0 -100 -11.5t-61 -36.5q-27 -27 -42.5 -76t-30.5 -136q-19 -111 -19 -152q0 -60 30 -83.5t110 -23.5q98 0 139 22.5t51 82.5h86q-1 -24 -14.5 -60.5t-42.5 -65.5q-61 -61 -213 -61
q-133 0 -184 43.5t-51 132.5q0 57 19 166q19 106 40 168.5t60 101.5q70 70 228 70q108 0 162.5 -32t54.5 -107zM597 862l-155 -127h-76l-111 127h84l68 -77l93 77h97z" />
    <glyph glyph-name="ccaron" unicode="&#x10d;" horiz-adv-x="521" 
d="M474 373q0 -13 -3 -30h-80q1 5 1 17q0 24 -18 37t-38 15.5t-50 2.5q-77 0 -112 -35q-29 -29 -45 -99t-16 -126q0 -46 25 -66t87 -20q24 0 42 2t38.5 9t33.5 22.5t17 38.5h81q-18 -149 -216 -149q-106 0 -150.5 39t-44.5 122q0 71 22 156t61 125q55 58 174 58
q191 0 191 -119zM492 667l-155 -127h-76l-111 127h84l68 -77l93 77h97z" />
    <glyph glyph-name="Dcaron" unicode="&#x10e;" horiz-adv-x="667" 
d="M617 492q0 -82 -27 -211t-62 -183q-38 -59 -102 -78.5t-152 -19.5h-250l118 667h217q88 0 141 -12t84 -52q33 -43 33 -111zM527 476q0 31 -9 52.5t-21.5 32.5t-37 17t-44 7t-53.5 1h-146l-89 -505h153q38 0 61.5 2t53.5 14.5t49 36.5q34 42 58.5 155.5t24.5 186.5z
M567 862l-155 -127h-76l-111 127h84l68 -77l93 77h97z" />
    <glyph glyph-name="dcaron" unicode="&#x10f;" horiz-adv-x="782" 
d="M546 697l-123 -697h-80l9 53q-58 -61 -160 -61q-84 0 -125 39t-41 106q0 87 24 177t62 128q50 50 152 50q107 0 152 -50l45 255h85zM387 322q0 49 -27.5 69.5t-92.5 20.5t-95 -30q-27 -27 -43 -98t-16 -127q0 -87 88 -87q87 0 126 39q30 30 45 92.5t15 120.5zM720 697
l-6 -31q-8 -45 -22 -72.5t-46 -52.5l-43 -35l-46 52l21 16.5t18.5 15.5t12.5 13t12.5 17l6.5 19t7 27l6 31h79z" />
    <glyph glyph-name="Dcroat" unicode="&#x110;" horiz-adv-x="689" 
d="M639 492q0 -82 -27 -211t-62 -183q-38 -59 -102 -78.5t-152 -19.5h-250l52 296h-76l14 80h76l52 291h217q88 0 141 -12t84 -52q33 -43 33 -111zM549 476q0 31 -9 52.5t-21.5 32.5t-37 17t-44 7t-53.5 1h-146l-37 -210h175l-14 -80h-175l-38 -215h153q38 0 61.5 2
t53.5 14.5t49 36.5q34 42 58.5 155.5t24.5 186.5z" />
    <glyph glyph-name="dcroat" unicode="&#x111;" horiz-adv-x="557" 
d="M616 615l-12 -64h-84l-97 -551h-80l9 53q-58 -61 -160 -61q-84 0 -125 39t-41 106q0 87 24 177t62 128q50 50 152 50q107 0 152 -50l19 109h-154l12 64h153l15 82h85l-15 -82h85zM387 322q0 49 -27.5 69.5t-92.5 20.5t-95 -30q-27 -27 -43 -98t-16 -127q0 -87 88 -87
q87 0 126 39q30 30 45 92.5t15 120.5z" />
    <glyph glyph-name="Emacron" unicode="&#x112;" horiz-adv-x="587" 
d="M580 667l-14 -80h-349l-36 -205h339l-14 -80h-339l-40 -222h350l-15 -80h-438l118 667h438zM553 835l-11 -65h-344l12 65h343z" />
    <glyph glyph-name="emacron" unicode="&#x113;" horiz-adv-x="534" 
d="M472 341q0 -75 -13 -127h-343q-7 -42 -7 -61q0 -47 26 -67t90 -20q26 0 45 2.5t39 9.5t33 23t17 40h80q-19 -149 -217 -149q-108 0 -152 40t-44 121q0 69 22 156.5t61 126.5q56 56 172 56q106 0 148.5 -39.5t42.5 -111.5zM392 339q0 43 -25 61.5t-86 18.5
q-74 0 -106.5 -31.5t-45.5 -101.5h257q6 36 6 53zM486 652l-11 -65h-344l12 65h343z" />
    <glyph glyph-name="Ebreve" unicode="&#x114;" horiz-adv-x="587" 
d="M580 667l-14 -80h-349l-36 -205h339l-14 -80h-339l-40 -222h350l-15 -80h-438l118 667h438zM525 867q-13 -73 -47 -100.5t-110 -27.5q-70 0 -101.5 21t-31.5 70q0 18 4 37h63q-3 -18 -3 -31q0 -24 16.5 -31t54.5 -7q45 0 64.5 12.5t27.5 56.5h63z" />
    <glyph glyph-name="ebreve" unicode="&#x115;" horiz-adv-x="534" 
d="M472 341q0 -75 -13 -127h-343q-7 -42 -7 -61q0 -47 26 -67t90 -20q26 0 45 2.5t39 9.5t33 23t17 40h80q-19 -149 -217 -149q-108 0 -152 40t-44 121q0 69 22 156.5t61 126.5q56 56 172 56q106 0 148.5 -39.5t42.5 -111.5zM392 339q0 43 -25 61.5t-86 18.5
q-74 0 -106.5 -31.5t-45.5 -101.5h257q6 36 6 53zM457 667q-13 -73 -47 -100.5t-110 -27.5q-70 0 -101.5 21t-31.5 70q0 18 4 37h63q-3 -18 -3 -31q0 -24 16.5 -31t54.5 -7q45 0 64.5 12.5t27.5 56.5h63z" />
    <glyph glyph-name="Edotaccent" unicode="&#x116;" horiz-adv-x="587" 
d="M580 667l-14 -80h-349l-36 -205h339l-14 -80h-339l-40 -222h350l-15 -80h-438l118 667h438zM426 826q0 -28 -15.5 -44.5t-43.5 -16.5q-40 0 -40 35q0 29 14.5 45.5t42.5 16.5q42 0 42 -36z" />
    <glyph glyph-name="edotaccent" unicode="&#x117;" horiz-adv-x="534" 
d="M472 341q0 -75 -13 -127h-343q-7 -42 -7 -61q0 -47 26 -67t90 -20q26 0 45 2.5t39 9.5t33 23t17 40h80q-19 -149 -217 -149q-108 0 -152 40t-44 121q0 69 22 156.5t61 126.5q56 56 172 56q106 0 148.5 -39.5t42.5 -111.5zM392 339q0 43 -25 61.5t-86 18.5
q-74 0 -106.5 -31.5t-45.5 -101.5h257q6 36 6 53zM350 631q0 -28 -15.5 -44.5t-43.5 -16.5q-40 0 -40 35q0 29 14.5 45.5t42.5 16.5q42 0 42 -36z" />
    <glyph glyph-name="Eogonek" unicode="&#x118;" horiz-adv-x="587" 
d="M364 0h-340l118 667h438l-14 -80h-349l-36 -205h339l-14 -80h-339l-40 -222h350l-15 -80q-45 -17 -76 -47t-31 -68q0 -52 69 -52q16 0 40 3l-9 -57q-23 -5 -47 -5q-126 0 -126 99q0 49 25 83.5t57 43.5z" />
    <glyph glyph-name="eogonek" unicode="&#x119;" horiz-adv-x="534" 
d="M392 339q0 43 -25 61.5t-86 18.5q-74 0 -106.5 -31.5t-45.5 -101.5h257q6 36 6 53zM212 -8q-102 2 -144 41.5t-42 119.5q0 69 22 156.5t61 126.5q56 56 172 56q106 0 148.5 -39.5t42.5 -111.5q0 -75 -13 -127h-343q-7 -42 -7 -61q0 -47 26 -67t90 -20q26 0 45 2.5t39 9.5
t33 23t17 40h80q-4 -44 -29 -75.5t-58 -49l-66 -34t-55.5 -40.5t-22.5 -57q0 -52 69 -52q16 0 40 3l-9 -57q-22 -5 -47 -5q-126 0 -126 99q0 86 77 119z" />
    <glyph glyph-name="Ecaron" unicode="&#x11a;" horiz-adv-x="587" 
d="M580 667l-14 -80h-349l-36 -205h339l-14 -80h-339l-40 -222h350l-15 -80h-438l118 667h438zM563 862l-155 -127h-76l-111 127h84l68 -77l93 77h97z" />
    <glyph glyph-name="ecaron" unicode="&#x11b;" horiz-adv-x="534" 
d="M472 341q0 -75 -13 -127h-343q-7 -42 -7 -61q0 -47 26 -67t90 -20q26 0 45 2.5t39 9.5t33 23t17 40h80q-19 -149 -217 -149q-108 0 -152 40t-44 121q0 69 22 156.5t61 126.5q56 56 172 56q106 0 148.5 -39.5t42.5 -111.5zM392 339q0 43 -25 61.5t-86 18.5
q-74 0 -106.5 -31.5t-45.5 -101.5h257q6 36 6 53zM485 667l-155 -127h-76l-111 127h84l68 -77l93 77h97z" />
    <glyph glyph-name="Gcircumflex" unicode="&#x11c;" horiz-adv-x="666" 
d="M624 535q0 -26 -4 -48h-87q2 22 2 34q0 43 -38.5 57.5t-109.5 14.5q-108 0 -156 -48q-27 -27 -42.5 -76t-30.5 -136q-19 -111 -19 -152q0 -60 30.5 -83.5t111.5 -23.5q36 0 65 5.5t49.5 14t37 25.5t26.5 33t19.5 43.5t14.5 49.5t12 59h-184l13 78h268l-68 -382h-72l11 60
q-73 -68 -211 -68q-67 0 -111 13.5t-65 39.5t-28.5 54.5t-7.5 68.5q0 57 19 166q19 106 40 168.5t60 101.5q70 70 231 70q109 0 166.5 -32t57.5 -107zM564 735h-84l-68 77l-93 -77h-97l155 127h76z" />
    <glyph glyph-name="gcircumflex" unicode="&#x11d;" horiz-adv-x="555" 
d="M511 484l-77 -436q-13 -79 -25 -112q-44 -130 -221 -130q-191 0 -191 116q0 8 2 28h82q1 -2 0 -6.5t-1 -5.5q0 -57 103 -57q68 0 104.5 25t48.5 83l13 64q-52 -53 -153 -53q-168 0 -168 140q0 78 21.5 169t61.5 131q52 52 157 52q117 0 156 -53l8 45h79zM392 317
q0 53 -27 75t-94 22q-65 0 -95 -29q-28 -28 -44.5 -98.5t-16.5 -126.5q0 -41 20 -61t71 -20q93 0 129 36q28 28 42.5 87.5t14.5 114.5zM469 540h-84l-68 77l-93 -77h-97l155 127h76z" />
    <glyph glyph-name="Gbreve" unicode="&#x11e;" horiz-adv-x="666" 
d="M624 535q0 -26 -4 -48h-87q2 22 2 34q0 43 -38.5 57.5t-109.5 14.5q-108 0 -156 -48q-27 -27 -42.5 -76t-30.5 -136q-19 -111 -19 -152q0 -60 30.5 -83.5t111.5 -23.5q36 0 65 5.5t49.5 14t37 25.5t26.5 33t19.5 43.5t14.5 49.5t12 59h-184l13 78h268l-68 -382h-72l11 60
q-73 -68 -211 -68q-67 0 -111 13.5t-65 39.5t-28.5 54.5t-7.5 68.5q0 57 19 166q19 106 40 168.5t60 101.5q70 70 231 70q109 0 166.5 -32t57.5 -107zM563 867q-13 -73 -47 -100.5t-110 -27.5q-70 0 -101.5 21t-31.5 70q0 18 4 37h63q-3 -18 -3 -31q0 -24 16.5 -31t54.5 -7
q45 0 64.5 12.5t27.5 56.5h63z" />
    <glyph glyph-name="gbreve" unicode="&#x11f;" horiz-adv-x="555" 
d="M511 484l-77 -436q-13 -79 -25 -112q-44 -130 -221 -130q-191 0 -191 116q0 8 2 28h82q1 -2 0 -6.5t-1 -5.5q0 -57 103 -57q68 0 104.5 25t48.5 83l13 64q-52 -53 -153 -53q-168 0 -168 140q0 78 21.5 169t61.5 131q52 52 157 52q117 0 156 -53l8 45h79zM392 317
q0 53 -27 75t-94 22q-65 0 -95 -29q-28 -28 -44.5 -98.5t-16.5 -126.5q0 -41 20 -61t71 -20q93 0 129 36q28 28 42.5 87.5t14.5 114.5zM448 667q-13 -73 -47 -100.5t-110 -27.5q-70 0 -101.5 21t-31.5 70q0 18 4 37h63q-3 -18 -3 -31q0 -24 16.5 -31t54.5 -7q45 0 64.5 12.5
t27.5 56.5h63z" />
    <glyph glyph-name="Gdotaccent" unicode="&#x120;" horiz-adv-x="666" 
d="M624 535q0 -26 -4 -48h-87q2 22 2 34q0 43 -38.5 57.5t-109.5 14.5q-108 0 -156 -48q-27 -27 -42.5 -76t-30.5 -136q-19 -111 -19 -152q0 -60 30.5 -83.5t111.5 -23.5q36 0 65 5.5t49.5 14t37 25.5t26.5 33t19.5 43.5t14.5 49.5t12 59h-184l13 78h268l-68 -382h-72l11 60
q-73 -68 -211 -68q-67 0 -111 13.5t-65 39.5t-28.5 54.5t-7.5 68.5q0 57 19 166q19 106 40 168.5t60 101.5q70 70 231 70q109 0 166.5 -32t57.5 -107zM461 826q0 -28 -15.5 -44.5t-43.5 -16.5q-40 0 -40 35q0 29 14.5 45.5t42.5 16.5q42 0 42 -36z" />
    <glyph glyph-name="gdotaccent" unicode="&#x121;" horiz-adv-x="555" 
d="M511 484l-77 -436q-13 -79 -25 -112q-44 -130 -221 -130q-191 0 -191 116q0 8 2 28h82q1 -2 0 -6.5t-1 -5.5q0 -57 103 -57q68 0 104.5 25t48.5 83l13 64q-52 -53 -153 -53q-168 0 -168 140q0 78 21.5 169t61.5 131q52 52 157 52q117 0 156 -53l8 45h79zM392 317
q0 53 -27 75t-94 22q-65 0 -95 -29q-28 -28 -44.5 -98.5t-16.5 -126.5q0 -41 20 -61t71 -20q93 0 129 36q28 28 42.5 87.5t14.5 114.5zM357 631q0 -28 -15.5 -44.5t-43.5 -16.5q-40 0 -40 35q0 29 14.5 45.5t42.5 16.5q42 0 42 -36z" />
    <glyph glyph-name="Gcommaaccent" unicode="&#x122;" horiz-adv-x="666" 
d="M624 535q0 -26 -4 -48h-87q2 22 2 34q0 43 -38.5 57.5t-109.5 14.5q-108 0 -156 -48q-27 -27 -42.5 -76t-30.5 -136q-19 -111 -19 -152q0 -60 30.5 -83.5t111.5 -23.5q36 0 65 5.5t49.5 14t37 25.5t26.5 33t19.5 43.5t14.5 49.5t12 59h-184l13 78h268l-68 -382h-72l11 60
q-73 -68 -211 -68q-67 0 -111 13.5t-65 39.5t-28.5 54.5t-7.5 68.5q0 57 19 166q19 106 40 168.5t60 101.5q70 70 231 70q109 0 166.5 -32t57.5 -107zM299 -41l-6 -31q-8 -45 -22 -72.5t-46 -52.5l-43 -35l-46 52l21 16.5t18.5 15.5t12.5 13t12.5 17l6.5 19t7 27l6 31h79z
" />
    <glyph glyph-name="gcommaaccent" unicode="&#x123;" horiz-adv-x="555" 
d="M511 484l-77 -436q-13 -79 -25 -112q-44 -130 -221 -130q-191 0 -191 116q0 8 2 28h82q1 -2 0 -6.5t-1 -5.5q0 -57 103 -57q68 0 104.5 25t48.5 83l13 64q-52 -53 -153 -53q-168 0 -168 140q0 78 21.5 169t61.5 131q52 52 157 52q117 0 156 -53l8 45h79zM392 317
q0 53 -27 75t-94 22q-65 0 -95 -29q-28 -28 -44.5 -98.5t-16.5 -126.5q0 -41 20 -61t71 -20q93 0 129 36q28 28 42.5 87.5t14.5 114.5zM256 541l6 31q8 45 22 72.5t46 52.5l43 35l46 -52l-21 -16.5t-18.5 -15.5t-12.5 -13t-12.5 -17l-6.5 -19t-7 -27l-6 -31h-79z" />
    <glyph glyph-name="Hcircumflex" unicode="&#x124;" horiz-adv-x="655" 
d="M631 667l-118 -667h-89l54 301h-312l-53 -301h-89l118 667h89l-51 -286h312l50 286h89zM557 735h-84l-68 77l-93 -77h-97l155 127h76z" />
    <glyph glyph-name="hcircumflex" unicode="&#x125;" horiz-adv-x="539" 
d="M477 366q0 -25 -14 -109l-45 -257h-85l44 250q11 66 11 91q0 37 -20 54.5t-73 17.5q-37 0 -64 -11t-42 -25t-26.5 -44t-16 -49.5t-11.5 -60.5l-40 -223h-85l123 697h85l-45 -256q53 51 144 51q79 0 119.5 -32.5t40.5 -93.5zM347 753h-84l-68 77l-93 -77h-97l155 127h76z
" />
    <glyph glyph-name="Hbar" unicode="&#x126;" horiz-adv-x="655" 
d="M696 566l-14 -80h-83l-86 -486h-89l54 301h-312l-53 -301h-89l86 486h-83l14 80h83l18 101h89l-18 -101h311l18 101h89l-18 -101h83zM180 381h312l18 105h-312z" />
    <glyph glyph-name="hbar" unicode="&#x127;" horiz-adv-x="539" 
d="M356 615l-12 -64h-152l-19 -110q53 51 144 51q79 0 119.5 -32.5t40.5 -93.5q0 -25 -14 -109l-45 -257h-85l44 250q11 66 11 91q0 37 -20 54.5t-73 17.5q-37 0 -64 -11t-42 -25t-26.5 -44t-16 -49.5t-11.5 -60.5l-40 -223h-85l97 551h-86l12 64h85l15 82h85l-15 -82h153z
" />
    <glyph glyph-name="Itilde" unicode="&#x128;" horiz-adv-x="255" 
d="M231 667l-118 -667h-89l118 667h89zM403 804l-32 -16t-34.5 -16.5t-31 -11.5t-34 -7.5t-31.5 3.5t-33 14q-3 2 -14 10t-14 9.5t-13 5.5t-17 3t-18.5 -4t-25.5 -9l-69 -31l-20 58l31.5 15.5t35 16.5t30.5 10.5t35 7t30 -4.5t33 -14l12 -9t12 -8l11.5 -6t13 -4.5t13.5 0
t17.5 3.5t21.5 9l71 34z" />
    <glyph glyph-name="itilde" unicode="&#x129;" horiz-adv-x="223" 
d="M180 484l-85 -484h-85l85 484h85zM353 609l-32 -16t-34.5 -16.5t-31 -11.5t-34 -7.5t-31.5 3.5t-33 14q-3 2 -14 10t-14 9.5t-13 5.5t-17 3t-18.5 -4t-25.5 -9l-69 -31l-20 58l31.5 15.5t35 16.5t30.5 10.5t35 7t30 -4.5t33 -14l12 -9t12 -8l11.5 -6t13 -4.5t13.5 0
t17.5 3.5t21.5 9l71 34z" />
    <glyph glyph-name="Imacron" unicode="&#x12a;" horiz-adv-x="255" 
d="M231 667l-118 -667h-89l118 667h89zM385 835l-11 -65h-344l12 65h343z" />
    <glyph glyph-name="imacron" unicode="&#x12b;" horiz-adv-x="223" 
d="M180 484l-85 -484h-85l85 484h85zM338 652l-11 -65h-344l12 65h343z" />
    <glyph glyph-name="Ibreve" unicode="&#x12c;" horiz-adv-x="255" 
d="M231 667l-118 -667h-89l118 667h89zM355 867q-13 -73 -47 -100.5t-110 -27.5q-70 0 -101.5 21t-31.5 70q0 18 4 37h63q-3 -18 -3 -31q0 -24 16.5 -31t54.5 -7q45 0 64.5 12.5t27.5 56.5h63z" />
    <glyph glyph-name="ibreve" unicode="&#x12d;" horiz-adv-x="223" 
d="M180 484l-85 -484h-85l85 484h85zM306 667q-13 -73 -47 -100.5t-110 -27.5q-70 0 -101.5 21t-31.5 70q0 18 4 37h63q-3 -18 -3 -31q0 -24 16.5 -31t54.5 -7q45 0 64.5 12.5t27.5 56.5h63z" />
    <glyph glyph-name="Iogonek" unicode="&#x12e;" horiz-adv-x="255" 
d="M25 5l117 662h89l-118 -667q-45 -17 -76 -47t-31 -68q0 -52 69 -52q16 0 40 3l-9 -57q-22 -5 -47 -5q-126 0 -126 99q0 96 92 132z" />
    <glyph glyph-name="iogonek" unicode="&#x12f;" horiz-adv-x="224" 
d="M213 636q0 -27 -16.5 -44.5t-43.5 -17.5q-43 0 -43 38q0 27 16.5 44.5t43.5 17.5q43 0 43 -38zM95 484l-83 -470q-97 -48 -97 -141q0 -99 126 -99q25 0 47 5l9 57q-24 -3 -40 -3q-69 0 -69 52q0 38 31 68t76 47l85 484h-85z" />
    <glyph glyph-name="Idotaccent" unicode="&#x130;" horiz-adv-x="255" 
d="M231 667l-118 -667h-89l118 667h89zM259 826q0 -28 -15.5 -44.5t-43.5 -16.5q-40 0 -40 35q0 29 14.5 45.5t42.5 16.5q42 0 42 -36z" />
    <glyph glyph-name="dotlessi" unicode="&#x131;" horiz-adv-x="223" 
d="M180 484l-85 -484h-85l85 484h85z" />
    <glyph glyph-name="Jcircumflex" unicode="&#x134;" horiz-adv-x="536" 
d="M519 667l-80 -454q-11 -61 -25.5 -99t-42 -67.5t-70.5 -42t-108 -12.5q-53 0 -93 11t-68.5 41t-28.5 77q0 22 6 58h84q-4 -36 -4 -42q0 -37 26 -50.5t82 -13.5q46 0 74.5 9t44.5 34t22.5 47t14.5 70l77 434h89zM647 735h-84l-68 77l-93 -77h-97l155 127h76z" />
    <glyph glyph-name="jcircumflex" unicode="&#x135;" horiz-adv-x="224" 
d="M180 484l-83 -472q-7 -40 -12 -61t-19.5 -53.5t-34 -49t-55.5 -29.5t-84 -13q-72 0 -113 27.5t-41 77.5q0 7 2 21h82q-1 -2 -1 -11q0 -44 76 -44q47 0 72 25q18 18 27 45t18 76l81 461h85zM309 540h-84l-68 77l-93 -77h-97l155 127h76z" />
    <glyph glyph-name="Kcommaaccent" unicode="&#x136;" horiz-adv-x="607" 
d="M658 667l-419 -334l304 -333h-120l-258 290l-52 -290h-89l118 667h89l-51 -287l358 287h120zM294 -41l-6 -31q-8 -45 -22 -72.5t-46 -52.5l-43 -35l-46 52l21 16.5t18.5 15.5t12.5 13t12.5 17l6.5 19t7 27l6 31h79z" />
    <glyph glyph-name="kcommaaccent" unicode="&#x137;" horiz-adv-x="501" 
d="M514 484l-295 -225l217 -259h-107l-192 238l-42 -238h-85l123 697h85l-72 -405l250 192h118zM242 -41l-6 -31q-8 -45 -22 -72.5t-46 -52.5l-43 -35l-46 52l21 16.5t18.5 15.5t12.5 13t12.5 17l6.5 19t7 27l6 31h79z" />
    <glyph glyph-name="Lacute" unicode="&#x139;" horiz-adv-x="519" 
d="M467 80l-15 -80h-428l118 667h89l-103 -587h339zM402 862l-155 -126h-104l156 126h103z" />
    <glyph glyph-name="lacute" unicode="&#x13a;" horiz-adv-x="229" 
d="M218 697l-123 -697h-85l123 697h85zM346 880l-155 -126h-104l156 126h103z" />
    <glyph glyph-name="Lcommaaccent" unicode="&#x13b;" horiz-adv-x="519" 
d="M467 80l-15 -80h-428l118 667h89l-103 -587h339zM294 -41l-6 -31q-8 -45 -22 -72.5t-46 -52.5l-43 -35l-46 52l21 16.5t18.5 15.5t12.5 13t12.5 17l6.5 19t7 27l6 31h79z" />
    <glyph glyph-name="lcommaaccent" unicode="&#x13c;" horiz-adv-x="229" 
d="M218 697l-123 -697h-85l123 697h85zM86 -41l-6 -31q-8 -45 -22 -72.5t-46 -52.5l-43 -35l-46 52l21 16.5t18.5 15.5t12.5 13t12.5 17l6.5 19t7 27l6 31h79z" />
    <glyph glyph-name="Lcaron" unicode="&#x13d;" horiz-adv-x="519" 
d="M467 80l-15 -80h-428l118 667h89l-103 -587h339zM433 667l-6 -31q-8 -45 -22 -72.5t-46 -52.5l-43 -35l-46 52l21 16.5t18.5 15.5t12.5 13t12.5 17l6.5 19t7 27l6 31h79z" />
    <glyph glyph-name="lcaron" unicode="&#x13e;" horiz-adv-x="454" 
d="M218 697l-123 -697h-85l123 697h85zM392 697l-6 -31q-8 -45 -22 -72.5t-46 -52.5l-43 -35l-46 52l21 16.5t18.5 15.5t12.5 13t12.5 17l6.5 19t7 27l6 31h79z" />
    <glyph glyph-name="Ldot" unicode="&#x13f;" horiz-adv-x="519" 
d="M467 80l-15 -80h-428l118 667h89l-103 -587h339zM424 356q0 -28 -15.5 -44.5t-43.5 -16.5q-40 0 -40 35q0 29 14.5 45.5t42.5 16.5q42 0 42 -36z" />
    <glyph glyph-name="ldot" unicode="&#x140;" horiz-adv-x="454" 
d="M218 697l-123 -697h-85l123 697h85zM325 355q0 -28 -15.5 -44.5t-43.5 -16.5q-40 0 -40 35q0 29 14.5 45.5t42.5 16.5q42 0 42 -36z" />
    <glyph glyph-name="Lslash" unicode="&#x141;" horiz-adv-x="566" 
d="M514 80l-15 -80h-428l45 254l-63 -52l-50 57l133 109l53 299h88l-41 -230l76 63l49 -57l-145 -120l-42 -243h340z" />
    <glyph glyph-name="lslash" unicode="&#x142;" horiz-adv-x="254" 
d="M292 438l-125 -107l-58 -331h-85l46 263l-58 -50l-50 55l129 110l56 319h85l-45 -252l55 48z" />
    <glyph glyph-name="Nacute" unicode="&#x143;" horiz-adv-x="654" 
d="M629 667l-118 -667h-91l-216 529l-94 -529h-86l118 667h91l217 -526l93 526h86zM565 862l-155 -126h-104l156 126h103z" />
    <glyph glyph-name="nacute" unicode="&#x144;" horiz-adv-x="539" 
d="M477 366q0 -25 -14 -109l-45 -257h-85l44 250q11 66 11 91q0 37 -20 54.5t-73 17.5q-37 0 -64 -11t-42 -25t-26.5 -44t-16 -49.5t-11.5 -60.5l-40 -223h-85l86 484h77l-8 -47q50 55 152 55q79 0 119.5 -32.5t40.5 -93.5zM479 667l-155 -126h-104l156 126h103z" />
    <glyph glyph-name="Ncommaaccent" unicode="&#x145;" horiz-adv-x="654" 
d="M629 667l-118 -667h-91l-216 529l-94 -529h-86l118 667h91l217 -526l93 526h86zM309 -41l-6 -31q-8 -45 -22 -72.5t-46 -52.5l-43 -35l-46 52l21 16.5t18.5 15.5t12.5 13t12.5 17l6.5 19t7 27l6 31h79z" />
    <glyph glyph-name="ncommaaccent" unicode="&#x146;" horiz-adv-x="539" 
d="M477 366q0 -25 -14 -109l-45 -257h-85l44 250q11 66 11 91q0 37 -20 54.5t-73 17.5q-37 0 -64 -11t-42 -25t-26.5 -44t-16 -49.5t-11.5 -60.5l-40 -223h-85l86 484h77l-8 -47q50 55 152 55q79 0 119.5 -32.5t40.5 -93.5zM251 -41l-6 -31q-8 -45 -22 -72.5t-46 -52.5
l-43 -35l-46 52l21 16.5t18.5 15.5t12.5 13t12.5 17l6.5 19t7 27l6 31h79z" />
    <glyph glyph-name="Ncaron" unicode="&#x147;" horiz-adv-x="654" 
d="M629 667l-118 -667h-91l-216 529l-94 -529h-86l118 667h91l217 -526l93 526h86zM582 862l-155 -127h-76l-111 127h84l68 -77l93 77h97z" />
    <glyph glyph-name="ncaron" unicode="&#x148;" horiz-adv-x="539" 
d="M477 366q0 -25 -14 -109l-45 -257h-85l44 250q11 66 11 91q0 37 -20 54.5t-73 17.5q-37 0 -64 -11t-42 -25t-26.5 -44t-16 -49.5t-11.5 -60.5l-40 -223h-85l86 484h77l-8 -47q50 55 152 55q79 0 119.5 -32.5t40.5 -93.5zM511 667l-155 -127h-76l-111 127h84l68 -77l93 77
h97z" />
    <glyph glyph-name="Eng" unicode="&#x14a;" horiz-adv-x="654" 
d="M629 667l-116 -656q-19 -108 -70 -156.5t-168 -48.5q-44 0 -68 7l13 69q28 -4 59 -4q39 0 65.5 9t41.5 28.5t22 37.5t14 49l-218 527l-94 -529h-86l118 667h91l217 -523l93 523h86z" />
    <glyph glyph-name="eng" unicode="&#x14b;" horiz-adv-x="539" 
d="M463 257l-45 -257q-6 -33 -10.5 -52t-18.5 -50t-32.5 -48t-53.5 -30.5t-81 -13.5q-33 0 -58 8l14 67q18 -4 42 -4q47 0 72 25q29 29 41 98l44 250q11 66 11 91q0 37 -20 54.5t-73 17.5q-37 0 -64 -11t-42 -25t-26.5 -44t-16 -49.5t-11.5 -60.5l-40 -223h-85l86 484h77
l-8 -47q50 55 152 55q79 0 119.5 -32.5t40.5 -93.5q0 -25 -14 -109z" />
    <glyph glyph-name="Omacron" unicode="&#x14c;" horiz-adv-x="669" 
d="M619 500q0 -28 -1.5 -53t-5 -51t-6 -39.5t-8.5 -43t-7 -36.5q-9 -47 -18.5 -80t-25.5 -68.5t-38.5 -58t-54.5 -41.5t-77 -28t-103 -9q-122 0 -173 45t-51 131q0 59 19 166q19 106 40 168.5t60 101.5q70 70 228 70q123 0 172.5 -45.5t49.5 -128.5zM530 487q0 63 -31 84.5
t-113 21.5q-65 0 -109.5 -17.5t-70.5 -65.5q-24 -46 -45.5 -154.5t-21.5 -174.5q0 -63 31 -85t113 -22q65 0 109.5 17.5t70.5 66.5q24 46 45.5 154.5t21.5 174.5zM592 835l-11 -65h-344l12 65h343z" />
    <glyph glyph-name="omacron" unicode="&#x14d;" horiz-adv-x="551" 
d="M489 331q0 -39 -9 -89q-12 -68 -26.5 -110.5t-42.5 -76.5t-73.5 -48.5t-113.5 -14.5q-109 0 -153.5 38.5t-44.5 122.5q0 39 9 89q12 68 26.5 110.5t42.5 76.5t73.5 48.5t113.5 14.5q109 0 153.5 -38.5t44.5 -122.5zM402 328q0 47 -24.5 67t-86.5 20q-81 0 -116 -34
q-36 -35 -55 -154q-7 -49 -7 -71q0 -47 24.5 -67t86.5 -20q81 0 116 34q36 35 55 154q7 49 7 71zM493 652l-11 -65h-344l12 65h343z" />
    <glyph glyph-name="Obreve" unicode="&#x14e;" horiz-adv-x="669" 
d="M619 500q0 -28 -1.5 -53t-5 -51t-6 -39.5t-8.5 -43t-7 -36.5q-9 -47 -18.5 -80t-25.5 -68.5t-38.5 -58t-54.5 -41.5t-77 -28t-103 -9q-122 0 -173 45t-51 131q0 59 19 166q19 106 40 168.5t60 101.5q70 70 228 70q123 0 172.5 -45.5t49.5 -128.5zM530 487q0 63 -31 84.5
t-113 21.5q-65 0 -109.5 -17.5t-70.5 -65.5q-24 -46 -45.5 -154.5t-21.5 -174.5q0 -63 31 -85t113 -22q65 0 109.5 17.5t70.5 66.5q24 46 45.5 154.5t21.5 174.5zM562 867q-13 -73 -47 -100.5t-110 -27.5q-70 0 -101.5 21t-31.5 70q0 18 4 37h63q-3 -18 -3 -31
q0 -24 16.5 -31t54.5 -7q45 0 64.5 12.5t27.5 56.5h63z" />
    <glyph glyph-name="obreve" unicode="&#x14f;" horiz-adv-x="551" 
d="M489 331q0 -39 -9 -89q-12 -68 -26.5 -110.5t-42.5 -76.5t-73.5 -48.5t-113.5 -14.5q-109 0 -153.5 38.5t-44.5 122.5q0 39 9 89q12 68 26.5 110.5t42.5 76.5t73.5 48.5t113.5 14.5q109 0 153.5 -38.5t44.5 -122.5zM402 328q0 47 -24.5 67t-86.5 20q-81 0 -116 -34
q-36 -35 -55 -154q-7 -49 -7 -71q0 -47 24.5 -67t86.5 -20q81 0 116 34q36 35 55 154q7 49 7 71zM464 667q-13 -73 -47 -100.5t-110 -27.5q-70 0 -101.5 21t-31.5 70q0 18 4 37h63q-3 -18 -3 -31q0 -24 16.5 -31t54.5 -7q45 0 64.5 12.5t27.5 56.5h63z" />
    <glyph glyph-name="Ohungarumlaut" unicode="&#x150;" horiz-adv-x="669" 
d="M619 500q0 -28 -1.5 -53t-5 -51t-6 -39.5t-8.5 -43t-7 -36.5q-9 -47 -18.5 -80t-25.5 -68.5t-38.5 -58t-54.5 -41.5t-77 -28t-103 -9q-122 0 -173 45t-51 131q0 59 19 166q19 106 40 168.5t60 101.5q70 70 228 70q123 0 172.5 -45.5t49.5 -128.5zM530 487q0 63 -31 84.5
t-113 21.5q-65 0 -109.5 -17.5t-70.5 -65.5q-24 -46 -45.5 -154.5t-21.5 -174.5q0 -63 31 -85t113 -22q65 0 109.5 17.5t70.5 66.5q24 46 45.5 154.5t21.5 174.5zM680 862l-148 -126h-91l146 126h93zM497 862l-148 -126h-92l147 126h93z" />
    <glyph glyph-name="ohungarumlaut" unicode="&#x151;" horiz-adv-x="551" 
d="M489 331q0 -39 -9 -89q-12 -68 -26.5 -110.5t-42.5 -76.5t-73.5 -48.5t-113.5 -14.5q-109 0 -153.5 38.5t-44.5 122.5q0 39 9 89q12 68 26.5 110.5t42.5 76.5t73.5 48.5t113.5 14.5q109 0 153.5 -38.5t44.5 -122.5zM402 328q0 47 -24.5 67t-86.5 20q-81 0 -116 -34
q-36 -35 -55 -154q-7 -49 -7 -71q0 -47 24.5 -67t86.5 -20q81 0 116 34q36 35 55 154q7 49 7 71zM582 667l-148 -126h-91l146 126h93zM399 667l-148 -126h-92l147 126h93z" />
    <glyph glyph-name="OE" unicode="&#x152;" horiz-adv-x="909" 
d="M902 667l-14 -80h-308l-36 -205h298l-14 -80h-298l-40 -222h309l-15 -80h-476q-88 0 -141 12t-84 52q-33 43 -33 111q0 82 27 211t62 183q38 59 102 78.5t152 19.5h509zM491 587h-104q-38 0 -61.5 -2t-53.5 -14.5t-49 -36.5q-34 -42 -58.5 -156t-24.5 -187q0 -31 9 -52.5
t21.5 -33t37 -17.5t44 -7t53.5 -1h97z" />
    <glyph glyph-name="oe" unicode="&#x153;" horiz-adv-x="893" 
d="M831 341q0 -75 -13 -127h-343q-7 -35 -7 -61q0 -47 25.5 -67t90.5 -20q26 0 45 2.5t39 9.5t33 23t17 40h80q-27 -149 -217 -149q-139 0 -170 73q-52 -73 -187 -73q-109 0 -153.5 38.5t-44.5 122.5q0 39 9 89q12 68 26.5 110.5t42.5 76.5t73.5 48.5t113.5 14.5
q143 0 174 -72q52 72 175 72q106 0 148.5 -39.5t42.5 -111.5zM751 339q0 43 -25 61.5t-86 18.5q-74 0 -106.5 -31.5t-45.5 -101.5h257q6 36 6 53zM402 328q0 47 -24.5 67t-86.5 20q-81 0 -116 -34q-36 -35 -55 -154q-7 -49 -7 -71q0 -47 24.5 -67t86.5 -20q81 0 116 34
q36 35 55 154q7 49 7 71z" />
    <glyph glyph-name="Racute" unicode="&#x154;" horiz-adv-x="650" 
d="M602 524q0 -58 -27 -119t-73 -75q50 -12 50 -78q0 -13 -11 -90l-28 -162h-86l29 168q9 57 9 66q0 24 -12 36q-11 12 -33.5 15t-90.5 3h-165l-51 -288h-89l118 667h252q40 0 63 -1.5t55 -9t48.5 -21.5t29 -42t12.5 -69zM513 520q0 42 -31 54.5t-93 12.5h-172l-38 -218h145
q66 0 98 6t51 25q40 40 40 120zM542 862l-155 -126h-104l156 126h103z" />
    <glyph glyph-name="racute" unicode="&#x155;" horiz-adv-x="451" 
d="M444 379q0 -16 -3 -34h-82q2 9 2 23q0 26 -18.5 36.5t-59.5 10.5q-66 0 -103 -52q-27 -38 -43 -124l-42 -239h-85l85 484h78l-9 -47q52 55 136 55q144 0 144 -113zM441 667l-155 -126h-104l156 126h103z" />
    <glyph glyph-name="Rcommaaccent" unicode="&#x156;" horiz-adv-x="650" 
d="M602 524q0 -58 -27 -119t-73 -75q50 -12 50 -78q0 -13 -11 -90l-28 -162h-86l29 168q9 57 9 66q0 24 -12 36q-11 12 -33.5 15t-90.5 3h-165l-51 -288h-89l118 667h252q40 0 63 -1.5t55 -9t48.5 -21.5t29 -42t12.5 -69zM513 520q0 42 -31 54.5t-93 12.5h-172l-38 -218h145
q66 0 98 6t51 25q40 40 40 120zM309 -41l-6 -31q-8 -45 -22 -72.5t-46 -52.5l-43 -35l-46 52l21 16.5t18.5 15.5t12.5 13t12.5 17l6.5 19t7 27l6 31h79z" />
    <glyph glyph-name="rcommaaccent" unicode="&#x157;" horiz-adv-x="451" 
d="M444 379q0 -16 -3 -34h-82q2 9 2 23q0 26 -18.5 36.5t-59.5 10.5q-66 0 -103 -52q-27 -38 -43 -124l-42 -239h-85l85 484h78l-9 -47q52 55 136 55q144 0 144 -113zM86 -41l-6 -31q-8 -45 -22 -72.5t-46 -52.5l-43 -35l-46 52l21 16.5t18.5 15.5t12.5 13t12.5 17l6.5 19
t7 27l6 31h79z" />
    <glyph glyph-name="Rcaron" unicode="&#x158;" horiz-adv-x="650" 
d="M602 524q0 -58 -27 -119t-73 -75q50 -12 50 -78q0 -13 -11 -90l-28 -162h-86l29 168q9 57 9 66q0 24 -12 36q-11 12 -33.5 15t-90.5 3h-165l-51 -288h-89l118 667h252q40 0 63 -1.5t55 -9t48.5 -21.5t29 -42t12.5 -69zM513 520q0 42 -31 54.5t-93 12.5h-172l-38 -218h145
q66 0 98 6t51 25q40 40 40 120zM564 862l-155 -127h-76l-111 127h84l68 -77l93 77h97z" />
    <glyph glyph-name="rcaron" unicode="&#x159;" horiz-adv-x="451" 
d="M444 379q0 -16 -3 -34h-82q2 9 2 23q0 26 -18.5 36.5t-59.5 10.5q-66 0 -103 -52q-27 -38 -43 -124l-42 -239h-85l85 484h78l-9 -47q52 55 136 55q144 0 144 -113zM491 667l-155 -127h-76l-111 127h84l68 -77l93 77h97z" />
    <glyph glyph-name="Sacute" unicode="&#x15a;" horiz-adv-x="643" 
d="M606 534q0 77 -58 108.5t-174 31.5q-167 0 -229 -63q-31 -31 -46.5 -82t-15.5 -102q0 -33 12 -56.5t29 -36.5t46.5 -21t53 -10.5t60.5 -3.5q10 -1 30 -1h29q5 0 19 -0.5t19 -0.5t17.5 -1t17.5 -2.5t15 -4t14 -5.5l10.5 -8t9.5 -11.5t5 -15.5t2 -19q0 -77 -40 -117
t-163 -40q-79 0 -114 14t-35 60q0 19 3 33h-88q-4 -32 -4 -49q0 -76 59.5 -107.5t175.5 -31.5q165 0 228 63q34 34 51 88t17 109q0 30 -7.5 52t-24.5 35.5t-33 21.5t-45 12t-48 5.5t-54 2.5q-11 1 -31 1h-30q-5 0 -21.5 1t-23.5 1.5t-21 2.5t-20.5 6.5t-14.5 11t-11.5 16.5
t-3.5 24q0 71 36 109q38 39 161 39q81 0 114.5 -14t33.5 -62q0 -13 -3 -30h86q5 28 5 47zM540 862l-155 -126h-104l156 126h103z" />
    <glyph glyph-name="sacute" unicode="&#x15b;" horiz-adv-x="511" 
d="M465 377q0 -16 -3 -34h-79q0 1 1 8t1 13q0 19 -9 31t-26.5 17t-33 6.5t-38.5 1.5q-31 0 -50.5 -2.5t-41 -10.5t-32 -26.5t-10.5 -48.5q0 -34 28 -42q13 -4 77 -7q31 -1 43.5 -2t39.5 -4.5t39 -10t27.5 -17.5t22 -28.5t6.5 -41.5q0 -89 -46 -136q-49 -51 -183 -51
q-188 0 -188 113q0 23 3 36h79q-2 -10 -2 -21q0 -32 26.5 -44t84.5 -12q31 0 52.5 3t43 12t32.5 28.5t11 50.5q0 11 -2.5 19t-10.5 13t-14 8t-22.5 5t-27 2.5t-35.5 1.5q-32 1 -51 2.5t-45 8t-40.5 16.5t-25 29.5t-10.5 46.5q0 89 49 137q46 45 180 45q180 0 180 -115z
M445 667l-155 -126h-104l156 126h103z" />
    <glyph glyph-name="Scircumflex" unicode="&#x15c;" horiz-adv-x="643" 
d="M606 534q0 77 -58 108.5t-174 31.5q-167 0 -229 -63q-31 -31 -46.5 -82t-15.5 -102q0 -33 12 -56.5t29 -36.5t46.5 -21t53 -10.5t60.5 -3.5q10 -1 30 -1h29q5 0 19 -0.5t19 -0.5t17.5 -1t17.5 -2.5t15 -4t14 -5.5l10.5 -8t9.5 -11.5t5 -15.5t2 -19q0 -77 -40 -117
t-163 -40q-79 0 -114 14t-35 60q0 19 3 33h-88q-4 -32 -4 -49q0 -76 59.5 -107.5t175.5 -31.5q165 0 228 63q34 34 51 88t17 109q0 30 -7.5 52t-24.5 35.5t-33 21.5t-45 12t-48 5.5t-54 2.5q-11 1 -31 1h-30q-5 0 -21.5 1t-23.5 1.5t-21 2.5t-20.5 6.5t-14.5 11t-11.5 16.5
t-3.5 24q0 71 36 109q38 39 161 39q81 0 114.5 -14t33.5 -62q0 -13 -3 -30h86q5 28 5 47zM545 734h-84l-68 77l-93 -77h-97l155 127h76z" />
    <glyph glyph-name="scircumflex" unicode="&#x15d;" horiz-adv-x="511" 
d="M465 377q0 -16 -3 -34h-79q0 1 1 8t1 13q0 19 -9 31t-26.5 17t-33 6.5t-38.5 1.5q-31 0 -50.5 -2.5t-41 -10.5t-32 -26.5t-10.5 -48.5q0 -34 28 -42q13 -4 77 -7q31 -1 43.5 -2t39.5 -4.5t39 -10t27.5 -17.5t22 -28.5t6.5 -41.5q0 -89 -46 -136q-49 -51 -183 -51
q-188 0 -188 113q0 23 3 36h79q-2 -10 -2 -21q0 -32 26.5 -44t84.5 -12q31 0 52.5 3t43 12t32.5 28.5t11 50.5q0 11 -2.5 19t-10.5 13t-14 8t-22.5 5t-27 2.5t-35.5 1.5q-32 1 -51 2.5t-45 8t-40.5 16.5t-25 29.5t-10.5 46.5q0 89 49 137q46 45 180 45q180 0 180 -115z
M457 540h-84l-68 77l-93 -77h-97l155 127h76z" />
    <glyph glyph-name="Scedilla" unicode="&#x15e;" horiz-adv-x="643" 
d="M337 -90q0 -50 -26 -76q-23 -23 -69 -23q-76 0 -76 53q0 3 2 17h46q-1 -4 -1 -10q0 -18 33 -18q41 0 41 44q0 23 -32 25l-28 1l13 69q-103 3 -156 35t-53 104q0 17 4 49h88q-3 -14 -3 -33q0 -46 35 -60t114 -14q123 0 163 40t40 117q0 12 -2 21t-7.5 16l-9.5 12t-14.5 8
t-15.5 5t-19 3t-18.5 1.5t-21.5 1t-21 0.5h-29t-30 1q-37 1 -60.5 3.5t-53 10.5t-46.5 21t-29 36.5t-12 56.5q0 51 15.5 102t46.5 82q62 63 229 63q116 0 174 -31.5t58 -108.5q0 -19 -5 -47h-86q3 17 3 30q0 48 -33.5 62t-114.5 14q-123 0 -161 -39q-36 -38 -36 -109
q0 -14 3.5 -24t11.5 -16.5t14.5 -11t20.5 -6.5t21 -2.5t23.5 -1.5t21.5 -1h30t31 -1q35 -1 54 -2.5t48 -5.5t45 -12t33 -21.5t24.5 -35.5t7.5 -52q0 -55 -17 -109t-51 -88q-59 -59 -205 -63l-6 -33q54 0 54 -49z" />
    <glyph glyph-name="scedilla" unicode="&#x15f;" horiz-adv-x="511" 
d="M264 -90q0 -50 -26 -76q-23 -23 -69 -23q-76 0 -76 53q0 3 2 17h46q-1 -4 -1 -10q0 -18 33 -18q41 0 41 44q0 23 -32 25l-28 1l13 70q-157 7 -157 112q0 23 3 36h79q-2 -10 -2 -21q0 -32 26.5 -44t84.5 -12q31 0 52.5 3t43 12t32.5 28.5t11 50.5q0 11 -2.5 19t-10.5 13
t-14 8t-22.5 5t-27 2.5t-35.5 1.5q-32 1 -51 2.5t-45 8t-40.5 16.5t-25 29.5t-10.5 46.5q0 89 49 137q46 45 180 45q180 0 180 -115q0 -16 -3 -34h-79q0 1 1 8t1 13q0 19 -9 31t-26.5 17t-33 6.5t-38.5 1.5q-31 0 -50.5 -2.5t-41 -10.5t-32 -26.5t-10.5 -48.5q0 -34 28 -42
q13 -4 77 -7q31 -1 43.5 -2t39.5 -4.5t39 -10t27.5 -17.5t22 -28.5t6.5 -41.5q0 -89 -46 -136q-45 -48 -165 -51l-6 -33q54 0 54 -49z" />
    <glyph glyph-name="Scaron" unicode="&#x160;" horiz-adv-x="643" 
d="M582 862l-155 -127h-76l-111 127h84l68 -77l93 77h97zM606 534q0 -19 -5 -47h-86q3 17 3 30q0 48 -33.5 62t-114.5 14q-123 0 -161 -39q-36 -38 -36 -109q0 -14 3.5 -24t11.5 -16.5t14.5 -11t20.5 -6.5t21 -2.5t23.5 -1.5t21.5 -1h30t31 -1q35 -1 54 -2.5t48 -5.5t45 -12
t33 -21.5t24.5 -35.5t7.5 -52q0 -129 -68 -197q-63 -63 -228 -63q-116 0 -175.5 31.5t-59.5 107.5q0 17 4 49h88q-3 -14 -3 -33q0 -46 35 -60t114 -14q123 0 163 40t40 117q0 12 -2 21t-7.5 16l-9.5 12t-14.5 8t-15.5 5t-19 3t-18.5 1.5t-21.5 1t-21 0.5h-29t-30 1
q-37 1 -60.5 3.5t-53 10.5t-46.5 21t-29 36.5t-12 56.5q0 51 15.5 102t46.5 82q62 63 229 63q116 0 174 -31.5t58 -108.5z" />
    <glyph glyph-name="scaron" unicode="&#x161;" horiz-adv-x="511" 
d="M484 667l-155 -127h-76l-111 127h84l68 -77l93 77h97zM465 377q0 -16 -3 -34h-79q0 1 1 8t1 13q0 19 -9 31t-26.5 17t-33 6.5t-38.5 1.5q-31 0 -50.5 -2.5t-41 -10.5t-32 -26.5t-10.5 -48.5q0 -34 28 -42q13 -4 77 -7q31 -1 43.5 -2t39.5 -4.5t39 -10t27.5 -17.5
t22 -28.5t6.5 -41.5q0 -89 -46 -136q-49 -51 -183 -51q-188 0 -188 113q0 23 3 36h79q-2 -10 -2 -21q0 -32 26.5 -44t84.5 -12q31 0 52.5 3t43 12t32.5 28.5t11 50.5q0 11 -2.5 19t-10.5 13t-14 8t-22.5 5t-27 2.5t-35.5 1.5q-32 1 -51 2.5t-45 8t-40.5 16.5t-25 29.5
t-10.5 46.5q0 89 49 137q46 45 180 45q180 0 180 -115z" />
    <glyph glyph-name="Tcommaaccent" unicode="&#x162;" horiz-adv-x="538" 
d="M576 667l-14 -79h-208l-104 -588h-89l104 588h-208l14 79h505zM239 -41l-6 -31q-8 -45 -22 -72.5t-46 -52.5l-43 -35l-46 52l21 16.5t18.5 15.5t12.5 13t12.5 17l6.5 19t7 27l6 31h79z" />
    <glyph glyph-name="tcommaaccent" unicode="&#x163;" horiz-adv-x="459" 
d="M424 484l-13 -73h-214l-44 -249q-5 -22 -5 -39q0 -31 18 -44.5t59 -13.5q46 0 69 17.5t30 58.5h79q-14 -80 -60 -114.5t-123 -34.5q-74 0 -116 29t-42 87q0 15 3 35l47 268h-80l13 73h80l33 183h85l-33 -183h214zM246 -41l-6 -31q-8 -45 -22 -72.5t-46 -52.5l-43 -35
l-46 52l21 16.5t18.5 15.5t12.5 13t12.5 17l6.5 19t7 27l6 31h79z" />
    <glyph glyph-name="Tcaron" unicode="&#x164;" horiz-adv-x="538" 
d="M576 667l-14 -79h-208l-104 -588h-89l104 588h-208l14 79h505zM524 861l-155 -127h-76l-111 127h84l68 -77l93 77h97z" />
    <glyph glyph-name="tcaron" unicode="&#x165;" horiz-adv-x="654" 
d="M424 484l-13 -73h-214l-44 -249q-5 -22 -5 -39q0 -31 18 -44.5t59 -13.5q46 0 69 17.5t30 58.5h79q-14 -80 -60 -114.5t-123 -34.5q-74 0 -116 29t-42 87q0 15 3 35l47 268h-80l13 73h80l33 183h85l-33 -183h214zM599 697l-6 -31q-8 -45 -22 -72.5t-46 -52.5l-43 -35
l-46 52l21 16.5t18.5 15.5t12.5 13t12.5 17l6.5 19t7 27l6 31h79z" />
    <glyph glyph-name="Tbar" unicode="&#x166;" horiz-adv-x="538" 
d="M432 382l-14 -77h-114l-54 -305h-89l54 305h-116l14 77h115l37 206h-208l14 79h505l-14 -79h-208l-37 -206h115z" />
    <glyph glyph-name="tbar" unicode="&#x167;" horiz-adv-x="459" 
d="M390 286l-13 -73h-215q-14 -82 -14 -90q0 -31 18 -44.5t59 -13.5q46 0 69 17.5t30 58.5h79q-14 -80 -60 -114.5t-123 -34.5q-74 0 -116 29t-42 87q0 19 15 105h-79l13 73h78l24 125h-81l13 73h80l33 183h85l-33 -183h214l-13 -73h-213l-24 -125h216z" />
    <glyph glyph-name="Utilde" unicode="&#x168;" horiz-adv-x="644" 
d="M626 667l-58 -331q-25 -142 -40 -190t-53 -86q-68 -68 -209 -68q-218 0 -218 166q0 40 24 178l58 331h89l-58 -331l-8 -45.5l-8 -45t-5.5 -36.5t-2.5 -35q0 -51 29 -76t105 -25q114 0 154 61q26 37 44 147q10 54 10 55l58 331h89zM593 804l-32 -16t-34.5 -16.5t-31 -11.5
t-34 -7.5t-31.5 3.5t-33 14q-3 2 -14 10t-14 9.5t-13 5.5t-17 3t-18.5 -4t-25.5 -9l-69 -31l-20 58l31.5 15.5t35 16.5t30.5 10.5t35 7t30 -4.5t33 -14l12 -9t12 -8l11.5 -6t13 -4.5t13.5 0t17.5 3.5t21.5 9l71 34z" />
    <glyph glyph-name="utilde" unicode="&#x169;" horiz-adv-x="538" 
d="M493 484l-85 -484h-77l8 47q-50 -55 -150 -55q-87 0 -125 38t-38 88q0 25 14 109l45 257h86l-45 -250q-12 -62 -12 -92q0 -33 20.5 -52t76.5 -19q36 0 62.5 11.5t41 25t26.5 45t15.5 49l11.5 59.5l40 223h85zM508 609l-32 -16t-34.5 -16.5t-31 -11.5t-34 -7.5t-31.5 3.5
t-33 14q-3 2 -14 10t-14 9.5t-13 5.5t-17 3t-18.5 -4t-25.5 -9l-69 -31l-20 58l31.5 15.5t35 16.5t30.5 10.5t35 7t30 -4.5t33 -14l12 -9t12 -8l11.5 -6t13 -4.5t13.5 0t17.5 3.5t21.5 9l71 34z" />
    <glyph glyph-name="Umacron" unicode="&#x16a;" horiz-adv-x="644" 
d="M626 667l-58 -331q-25 -142 -40 -190t-53 -86q-68 -68 -209 -68q-218 0 -218 166q0 40 24 178l58 331h89l-58 -331l-8 -45.5l-8 -45t-5.5 -36.5t-2.5 -35q0 -51 29 -76t105 -25q114 0 154 61q26 37 44 147q10 54 10 55l58 331h89zM571 835l-11 -65h-344l12 65h343z" />
    <glyph glyph-name="umacron" unicode="&#x16b;" horiz-adv-x="538" 
d="M493 484l-85 -484h-77l8 47q-50 -55 -150 -55q-87 0 -125 38t-38 88q0 25 14 109l45 257h86l-45 -250q-12 -62 -12 -92q0 -33 20.5 -52t76.5 -19q36 0 62.5 11.5t41 25t26.5 45t15.5 49l11.5 59.5l40 223h85zM489 652l-11 -65h-344l12 65h343z" />
    <glyph glyph-name="Ubreve" unicode="&#x16c;" horiz-adv-x="644" 
d="M626 667l-58 -331q-25 -142 -40 -190t-53 -86q-68 -68 -209 -68q-218 0 -218 166q0 40 24 178l58 331h89l-58 -331l-8 -45.5l-8 -45t-5.5 -36.5t-2.5 -35q0 -51 29 -76t105 -25q114 0 154 61q26 37 44 147q10 54 10 55l58 331h89zM538 867q-13 -73 -47 -100.5t-110 -27.5
q-70 0 -101.5 21t-31.5 70q0 18 4 37h63q-3 -18 -3 -31q0 -24 16.5 -31t54.5 -7q45 0 64.5 12.5t27.5 56.5h63z" />
    <glyph glyph-name="ubreve" unicode="&#x16d;" horiz-adv-x="538" 
d="M493 484l-85 -484h-77l8 47q-50 -55 -150 -55q-87 0 -125 38t-38 88q0 25 14 109l45 257h86l-45 -250q-12 -62 -12 -92q0 -33 20.5 -52t76.5 -19q36 0 62.5 11.5t41 25t26.5 45t15.5 49l11.5 59.5l40 223h85zM459 667q-13 -73 -47 -100.5t-110 -27.5q-70 0 -101.5 21
t-31.5 70q0 18 4 37h63q-3 -18 -3 -31q0 -24 16.5 -31t54.5 -7q45 0 64.5 12.5t27.5 56.5h63z" />
    <glyph glyph-name="Uring" unicode="&#x16e;" horiz-adv-x="644" 
d="M626 667l-58 -331q-25 -142 -40 -190t-53 -86q-68 -68 -209 -68q-218 0 -218 166q0 40 24 178l58 331h89l-58 -331l-8 -45.5l-8 -45t-5.5 -36.5t-2.5 -35q0 -51 29 -76t105 -25q114 0 154 61q26 37 44 147q10 54 10 55l58 331h89zM508 832q0 -32 -10 -66.5t-29 -53.5
q-27 -27 -91 -27q-54 0 -79.5 19.5t-25.5 61.5q0 82 39 120q27 27 91 27q54 0 79.5 -19.5t25.5 -61.5zM452 829q0 18 -11.5 25.5t-39.5 7.5q-36 0 -50 -14q-10 -10 -16 -35.5t-6 -43.5t11.5 -25.5t39.5 -7.5q36 0 50 14q10 10 16 35.5t6 43.5z" />
    <glyph glyph-name="uring" unicode="&#x16f;" horiz-adv-x="538" 
d="M493 484l-85 -484h-77l8 47q-50 -55 -150 -55q-87 0 -125 38t-38 88q0 25 14 109l45 257h86l-45 -250q-12 -62 -12 -92q0 -33 20.5 -52t76.5 -19q36 0 62.5 11.5t41 25t26.5 45t15.5 49l11.5 59.5l40 223h85zM421 656q0 -32 -10 -66.5t-29 -53.5q-27 -27 -91 -27
q-54 0 -79.5 19.5t-25.5 61.5q0 82 39 120q27 27 91 27q54 0 79.5 -19.5t25.5 -61.5zM365 653q0 18 -11.5 25.5t-39.5 7.5q-36 0 -50 -14q-10 -10 -16 -35.5t-6 -43.5t11.5 -25.5t39.5 -7.5q36 0 50 14q10 10 16 35.5t6 43.5z" />
    <glyph glyph-name="Uhungarumlaut" unicode="&#x170;" horiz-adv-x="644" 
d="M626 667l-58 -331q-25 -142 -40 -190t-53 -86q-68 -68 -209 -68q-218 0 -218 166q0 40 24 178l58 331h89l-58 -331l-8 -45.5l-8 -45t-5.5 -36.5t-2.5 -35q0 -51 29 -76t105 -25q114 0 154 61q26 37 44 147q10 54 10 55l58 331h89zM644 862l-148 -126h-91l146 126h93z
M461 862l-148 -126h-92l147 126h93z" />
    <glyph glyph-name="uhungarumlaut" unicode="&#x171;" horiz-adv-x="538" 
d="M493 484l-85 -484h-77l8 47q-50 -55 -150 -55q-87 0 -125 38t-38 88q0 25 14 109l45 257h86l-45 -250q-12 -62 -12 -92q0 -33 20.5 -52t76.5 -19q36 0 62.5 11.5t41 25t26.5 45t15.5 49l11.5 59.5l40 223h85zM571 667l-148 -126h-91l146 126h93zM388 667l-148 -126h-92
l147 126h93z" />
    <glyph glyph-name="Uogonek" unicode="&#x172;" horiz-adv-x="644" 
d="M251 -8q-203 4 -203 166q0 40 24 178l58 331h89l-58 -331l-8 -45.5l-8 -45t-5.5 -36.5t-2.5 -35q0 -51 29 -76t105 -25q114 0 154 61q26 37 44 147q10 54 10 55l58 331h89l-58 -331q-25 -142 -40 -190t-53 -86q-25 -25 -68 -45t-76 -31.5t-58.5 -36.5t-25.5 -62
q0 -52 69 -52q16 0 40 3l-9 -57q-23 -5 -47 -5q-126 0 -126 99q0 49 23 79.5t54 39.5z" />
    <glyph glyph-name="uogonek" unicode="&#x173;" horiz-adv-x="538" 
d="M333 12l6 35q-50 -55 -150 -55q-87 0 -125 38t-38 88q0 25 14 109l45 257h86l-45 -250q-12 -62 -12 -92q0 -33 20.5 -52t76.5 -19q36 0 62.5 11.5t41 25t26.5 45t15.5 49l11.5 59.5l40 223h85l-85 -484q-45 -17 -76 -47t-31 -68q0 -52 69 -52q16 0 40 3l-9 -57
q-23 -5 -47 -5q-126 0 -126 99q0 96 105 139z" />
    <glyph glyph-name="Wcircumflex" unicode="&#x174;" horiz-adv-x="884" 
d="M905 667l-281 -667h-94l-48 550l-245 -550h-96l-44 667h87l29 -540l240 540h95l49 -540l222 540h86zM670 734h-84l-68 77l-93 -77h-97l155 127h76z" />
    <glyph glyph-name="wcircumflex" unicode="&#x175;" horiz-adv-x="711" 
d="M716 484l-224 -484h-90l-41 386l-178 -386h-87l-53 484h81l34 -380l176 380h85l42 -380l167 380h88zM553 540h-84l-68 77l-93 -77h-97l155 127h76z" />
    <glyph glyph-name="Ycircumflex" unicode="&#x176;" horiz-adv-x="568" 
d="M625 667l-304 -376l-51 -291h-89l51 291l-171 376h99l128 -297l233 297h104zM508 735h-84l-68 77l-93 -77h-97l155 127h76z" />
    <glyph glyph-name="ycircumflex" unicode="&#x177;" horiz-adv-x="487" 
d="M498 484l-375 -675h-94l111 197l-96 478h88l70 -383l203 383h93zM436 540h-84l-68 77l-93 -77h-97l155 127h76z" />
    <glyph glyph-name="Ydieresis" unicode="&#x178;" horiz-adv-x="568" 
d="M526 826q0 -28 -15.5 -44.5t-43.5 -16.5q-40 0 -40 35q0 29 14.5 45.5t42.5 16.5q42 0 42 -36zM310 826q0 -28 -15.5 -44.5t-43.5 -16.5q-40 0 -40 35q0 29 14.5 45.5t42.5 16.5q42 0 42 -36zM625 667l-304 -376l-51 -291h-89l51 291l-171 376h99l128 -297l233 297h104z
" />
    <glyph glyph-name="Zacute" unicode="&#x179;" horiz-adv-x="614" 
d="M610 667l-14 -78l-465 -509h376l-15 -80h-488l14 78l466 510h-376l14 79h488zM542 862l-155 -126h-104l156 126h103z" />
    <glyph glyph-name="zacute" unicode="&#x17a;" horiz-adv-x="487" 
d="M465 484l-13 -72l-337 -336h278l-14 -76h-393l12 72l342 340h-283l14 72h394zM441 667l-155 -126h-104l156 126h103z" />
    <glyph glyph-name="Zdotaccent" unicode="&#x17b;" horiz-adv-x="614" 
d="M610 667l-14 -78l-465 -509h376l-15 -80h-488l14 78l466 510h-376l14 79h488zM426 826q0 -28 -15.5 -44.5t-43.5 -16.5q-40 0 -40 35q0 29 14.5 45.5t42.5 16.5q42 0 42 -36z" />
    <glyph glyph-name="zdotaccent" unicode="&#x17c;" horiz-adv-x="487" 
d="M465 484l-13 -72l-337 -336h278l-14 -76h-393l12 72l342 340h-283l14 72h394zM328 631q0 -28 -15.5 -44.5t-43.5 -16.5q-40 0 -40 35q0 29 14.5 45.5t42.5 16.5q42 0 42 -36z" />
    <glyph glyph-name="Zcaron" unicode="&#x17d;" horiz-adv-x="614" 
d="M572 853l-155 -127h-76l-111 127h84l68 -77l93 77h97zM610 667l-14 -78l-465 -509h376l-15 -80h-488l14 78l466 510h-376l14 79h488z" />
    <glyph glyph-name="zcaron" unicode="&#x17e;" horiz-adv-x="487" 
d="M471 667l-155 -127h-76l-111 127h84l68 -77l93 77h97zM465 484l-13 -72l-337 -336h278l-14 -76h-393l12 72l342 340h-283l14 72h394z" />
    <glyph glyph-name="florin" unicode="&#x192;" horiz-adv-x="576" 
d="M567 560q0 -11 -4 -45h-82q2 9 2 24q0 35 -25 46t-77 11q-84 0 -113.5 -32t-44.5 -116l-13 -72h285l-14 -77h-285l-86 -490h-86l86 490h-61l14 77h61l14 82q20 118 70.5 167t166.5 49q23 0 39 -1t41 -4t42.5 -11t34.5 -19.5t26 -32t9 -46.5z" />
    <glyph glyph-name="Aringacute" unicode="&#x1fa;" horiz-adv-x="626" 
d="M556 0h-94l-35 184h-277l-100 -184h-97l355 629q-42 18 -42 71q0 82 39 120q27 27 91 27q54 0 79.5 -19.5t25.5 -61.5q0 -32 -10 -66.5t-29 -53.5q-16 -15 -36 -20zM445 763q0 18 -11.5 25.5t-39.5 7.5q-36 0 -50 -14q-10 -10 -16 -35.5t-6 -43.5t11.5 -25.5t39.5 -7.5
q36 0 50 14q10 10 16 35.5t6 43.5zM412 261l-56 302l-164 -302h220zM576 1026l-155 -126h-104l156 126h103z" />
    <glyph glyph-name="aringacute" unicode="&#x1fb;" horiz-adv-x="527" 
d="M465 362q0 -24 -13 -99l-47 -263h-78l8 47q-55 -55 -162 -55q-76 0 -121 29.5t-45 92.5q0 86 48 134q30 30 71 39.5t109 9.5h138q8 51 8 58q0 38 -23.5 50t-79.5 12q-75 0 -105.5 -18.5t-37.5 -53.5h-83q5 32 20 57.5t28 38.5t35 23.5t28.5 12t20.5 5.5q-7 15 -7 38
q0 82 39 120q27 27 91 27q54 0 79.5 -19.5t25.5 -61.5q0 -65 -28 -107q48 -19 66 -53q15 -27 15 -64zM356 583q0 18 -11.5 25.5t-39.5 7.5q-36 0 -50 -14q-10 -10 -16 -35.5t-6 -43.5t11.5 -25.5t39.5 -7.5q36 0 50 14q10 10 16 35.5t6 43.5zM363 226h-128q-24 0 -36 -0.5
t-36.5 -5.5t-37.5 -15t-24 -30.5t-11 -50.5q0 -28 24.5 -43.5t70.5 -15.5q50 0 82 9t50.5 31.5t27.5 48t18 72.5zM481 846l-155 -126h-104l156 126h103z" />
    <glyph glyph-name="AEacute" unicode="&#x1fc;" horiz-adv-x="929" 
d="M922 667l-14 -80h-310l-36 -205h300l-14 -80h-300l-39 -222h310l-15 -80h-397l32 184h-233l-152 -184h-111l557 667h422zM503 546l-234 -284h184zM776 862l-155 -126h-104l156 126h103z" />
    <glyph glyph-name="aeacute" unicode="&#x1fd;" horiz-adv-x="859" 
d="M797 331q0 -31 -13 -112h-343q-7 -35 -7 -66q0 -47 25.5 -67t90.5 -20q26 0 45 2.5t39 9.5t33 23t17 40h80q-27 -149 -217 -149q-68 0 -109 15.5t-57 57.5q-64 -73 -207 -73q-76 0 -121.5 29t-45.5 91q0 84 49 132q29 29 72.5 38t107.5 9h137q8 51 8 64q0 38 -23.5 50
t-79.5 12q-75 0 -105.5 -18.5t-37.5 -53.5h-83q15 84 74.5 115.5t153.5 31.5q130 0 161 -62q55 62 165 62q107 0 149 -40.5t42 -120.5zM717 339q0 43 -25 61.5t-86 18.5q-73 0 -105.5 -30.5t-45.5 -97.5h257q5 30 5 48zM363 219h-128q-24 0 -36 -0.5t-36.5 -5.5t-37.5 -14.5
t-24 -29t-11 -48.5q0 -57 95 -57q50 0 82 8.5t50.5 30.5t27.5 46.5t18 69.5zM619 667l-155 -126h-104l156 126h103z" />
    <glyph glyph-name="Oslashacute" unicode="&#x1fe;" horiz-adv-x="669" 
d="M619 500q0 -28 -1.5 -53t-5 -51t-6 -39.5t-8.5 -43t-7 -36.5q-9 -47 -18.5 -80t-25.5 -68.5t-38.5 -58t-54.5 -41.5t-77 -28t-103 -9q-4 0 -19.5 0.5t-18.5 0.5l-55 -136l-72 28l50 122q-109 33 -109 161q0 59 19 166q19 106 40 168.5t60 101.5q70 70 228 70q28 0 32 -1
l54 133l71 -29l-47 -117q112 -29 112 -160zM530 487q0 79 -55 96l-206 -509h14q65 0 109.5 17.5t70.5 66.5q24 46 45.5 154.5t21.5 174.5zM397 592l-11 1q-65 0 -109.5 -17.5t-70.5 -65.5q-24 -46 -45.5 -154.5t-21.5 -174.5q0 -35 10.5 -57t17 -26t23.5 -13zM507 862
l-155 -126h-104l156 126h103z" />
    <glyph glyph-name="oslashacute" unicode="&#x1ff;" horiz-adv-x="551" 
d="M489 331q0 -39 -9 -89q-12 -68 -26.5 -110.5t-42.5 -76.5t-73.5 -48.5t-113.5 -14.5q-35 0 -59 4l-51 -95l-63 32l44 82q-15 9 -21.5 14t-20.5 21t-20.5 42t-6.5 61q0 39 9 89q12 68 26.5 110.5t42.5 76.5t73.5 48.5t113.5 14.5q35 0 59 -4l48 89l61 -33l-40 -75
q70 -34 70 -138zM402 328q0 46 -23 66l-175 -325h20q81 0 116 34q36 35 55 154q7 49 7 71zM311 414l-20 1q-81 0 -116 -34q-36 -35 -55 -154q-7 -49 -7 -71q0 -49 23 -66z" />
    <glyph glyph-name="Scommaaccent" unicode="&#x218;" horiz-adv-x="643" 
d="M606 534q0 -19 -5 -47h-86q3 17 3 30q0 48 -33.5 62t-114.5 14q-123 0 -161 -39q-36 -38 -36 -109q0 -14 3.5 -24t11.5 -16.5t14.5 -11t20.5 -6.5t21 -2.5t23.5 -1.5t21.5 -1h30t31 -1q35 -1 54 -2.5t48 -5.5t45 -12t33 -21.5t24.5 -35.5t7.5 -52q0 -55 -17 -109t-51 -88
q-63 -63 -228 -63q-116 0 -175.5 31.5t-59.5 107.5q0 17 4 49h88q-3 -14 -3 -33q0 -46 35 -60t114 -14q123 0 163 40t40 117q0 12 -2 21t-7.5 16l-9.5 12t-14.5 8t-15.5 5t-19 3t-18.5 1.5t-21.5 1t-21 0.5h-29t-30 1q-37 1 -60.5 3.5t-53 10.5t-46.5 21t-29 36.5t-12 56.5
q0 51 15.5 102t46.5 82q62 63 229 63q116 0 174 -31.5t58 -108.5zM292 -41l-6 -31q-8 -45 -22 -72.5t-46 -52.5l-43 -35l-46 52l21 16.5t18.5 15.5t12.5 13t12.5 17l6.5 19t7 27l6 31h79z" />
    <glyph glyph-name="scommaaccent" unicode="&#x219;" horiz-adv-x="511" 
d="M465 377q0 -16 -3 -34h-79q0 1 1 8t1 13q0 19 -9 31t-26.5 17t-33 6.5t-38.5 1.5q-31 0 -50.5 -2.5t-41 -10.5t-32 -26.5t-10.5 -48.5q0 -34 28 -42q13 -4 77 -7q31 -1 43.5 -2t39.5 -4.5t39 -10t27.5 -17.5t22 -28.5t6.5 -41.5q0 -89 -46 -136q-49 -51 -183 -51
q-188 0 -188 113q0 23 3 36h79q-2 -10 -2 -21q0 -32 26.5 -44t84.5 -12q31 0 52.5 3t43 12t32.5 28.5t11 50.5q0 11 -2.5 19t-10.5 13t-14 8t-22.5 5t-27 2.5t-35.5 1.5q-32 1 -51 2.5t-45 8t-40.5 16.5t-25 29.5t-10.5 46.5q0 89 49 137q46 45 180 45q180 0 180 -115z
M227 -41l-6 -31q-8 -45 -22 -72.5t-46 -52.5l-43 -35l-46 52l21 16.5t18.5 15.5t12.5 13t12.5 17l6.5 19t7 27l6 31h79z" />
    <glyph glyph-name="uni021A" unicode="&#x21a;" horiz-adv-x="538" 
d="M576 667l-14 -79h-208l-104 -588h-89l104 588h-208l14 79h505zM239 -41l-6 -31q-8 -45 -22 -72.5t-46 -52.5l-43 -35l-46 52l21 16.5t18.5 15.5t12.5 13t12.5 17l6.5 19t7 27l6 31h79z" />
    <glyph glyph-name="uni021B" unicode="&#x21b;" horiz-adv-x="459" 
d="M424 484l-13 -73h-214l-44 -249q-5 -22 -5 -39q0 -31 18 -44.5t59 -13.5q46 0 69 17.5t30 58.5h79q-14 -80 -60 -114.5t-123 -34.5q-74 0 -116 29t-42 87q0 15 3 35l47 268h-80l13 73h80l33 183h85l-33 -183h214zM246 -41l-6 -31q-8 -45 -22 -72.5t-46 -52.5l-43 -35
l-46 52l21 16.5t18.5 15.5t12.5 13t12.5 17l6.5 19t7 27l6 31h79z" />
    <glyph glyph-name="circumflex" unicode="&#x2c6;" horiz-adv-x="428" 
d="M452 540h-84l-68 77l-93 -77h-97l155 127h76z" />
    <glyph glyph-name="caron" unicode="&#x2c7;" horiz-adv-x="428" 
d="M452 667l-155 -127h-76l-111 127h84l68 -77l93 77h97z" />
    <glyph glyph-name="breve" unicode="&#x2d8;" horiz-adv-x="428" 
d="M446 667q-13 -73 -47 -100.5t-110 -27.5q-70 0 -101.5 21t-31.5 70q0 18 4 37h63q-3 -18 -3 -31q0 -24 16.5 -31t54.5 -7q45 0 64.5 12.5t27.5 56.5h63z" />
    <glyph glyph-name="dotaccent" unicode="&#x2d9;" horiz-adv-x="428" 
d="M315 631q0 -28 -15.5 -44.5t-43.5 -16.5q-40 0 -40 35q0 29 14.5 45.5t42.5 16.5q42 0 42 -36z" />
    <glyph glyph-name="ring" unicode="&#x2da;" horiz-adv-x="428" 
d="M405 619q0 -32 -10 -66.5t-29 -53.5q-27 -27 -91 -27q-54 0 -79.5 19.5t-25.5 61.5q0 82 39 120q27 27 91 27q54 0 79.5 -19.5t25.5 -61.5zM349 616q0 18 -11.5 25.5t-39.5 7.5q-36 0 -50 -14q-10 -10 -16 -35.5t-6 -43.5t11.5 -25.5t39.5 -7.5q36 0 50 14q10 10 16 35.5
t6 43.5z" />
    <glyph glyph-name="ogonek" unicode="&#x2db;" horiz-adv-x="428" 
d="M246 36l40 -36q-45 -17 -76 -47t-31 -68q0 -52 69 -52q16 0 40 3l-9 -57q-23 -5 -47 -5q-126 0 -126 99q0 113 140 163z" />
    <glyph glyph-name="tilde" unicode="&#x2dc;" horiz-adv-x="428" 
d="M487 609l-32 -16t-34.5 -16.5t-31 -11.5t-34 -7.5t-31.5 3.5t-33 14q-3 2 -14 10t-14 9.5t-13 5.5t-17 3t-18.5 -4t-25.5 -9l-69 -31l-20 58l31.5 15.5t35 16.5t30.5 10.5t35 7t30 -4.5t33 -14l12 -9t12 -8l11.5 -6t13 -4.5t13.5 0t17.5 3.5t21.5 9l71 34z" />
    <glyph glyph-name="hungarumlaut" unicode="&#x2dd;" horiz-adv-x="428" 
d="M486 667l-148 -126h-91l146 126h93zM303 667l-148 -126h-92l147 126h93z" />
    <glyph glyph-name="uni0326" unicode="&#x326;" horiz-adv-x="225" 
d="M99 -41l-6 -31q-8 -45 -22 -72.5t-46 -52.5l-43 -35l-46 52l21 16.5t18.5 15.5t12.5 13t12.5 17l6.5 19t7 27l6 31h79z" />
    <glyph glyph-name="Delta" unicode="&#x394;" horiz-adv-x="633" 
d="M618 0h-604l258 667h89zM495 80l-180 480l-179 -480h359z" />
    <glyph glyph-name="Omega" unicode="&#x3a9;" horiz-adv-x="674" 
d="M602 334q0 -76 -2 -112.5t-16.5 -79t-44.5 -63.5h63v-79h-231v75q83 6 114 51q16 24 22 61.5t6 146.5q0 95 -6 138t-23 69q-18 28 -52 40t-96 12q-115 0 -148 -53q-17 -26 -22.5 -68t-5.5 -138q0 -109 6.5 -146t22.5 -62q30 -46 113 -51v-75h-230v79h63
q-23 16 -36.5 39.5t-19 63t-6.5 66.5t-1 86q0 146 15 200q26 95 121 124q52 16 128 16q44 0 79 -5.5t61.5 -13.5t46.5 -25t33 -31t22 -41t14 -45.5t7 -55t2.5 -58.5t0.5 -65z" />
    <glyph glyph-name="mu" unicode="&#x3bc;" horiz-adv-x="548" 
d="M503 484l-85 -484h-77l8 47q-47 -55 -150 -55q-72 0 -102 28l-37 -211h-84l119 675h86l-45 -250q-12 -62 -12 -92q0 -33 20.5 -52t76.5 -19q36 0 62.5 11.5t41 25t26.5 45t15.5 49l11.5 59.5l40 223h85z" />
    <glyph glyph-name="pi" unicode="&#x3c0;" horiz-adv-x="654" 
d="M596 407h-56q-55 -305 -55 -312q0 -13 8 -17.5t31 -4.5h12l-13 -73h-33q-46 0 -69 15t-23 55q0 14 3 33l54 304h-209l-72 -407h-85l72 407h-56l13 77h491z" />
    <glyph glyph-name="uni0400" unicode="&#x400;" horiz-adv-x="587" 
d="M580 667l-14 -80h-349l-36 -205h339l-14 -80h-339l-40 -222h350l-15 -80h-438l118 667h438zM482 736h-88l-110 126h88z" />
    <glyph glyph-name="afii10023" unicode="&#x401;" horiz-adv-x="587" 
d="M580 667l-14 -80h-349l-36 -205h339l-14 -80h-339l-40 -222h350l-15 -80h-438l118 667h438zM543 826q0 -28 -15.5 -44.5t-43.5 -16.5q-40 0 -40 35q0 29 14.5 45.5t42.5 16.5q42 0 42 -36zM327 826q0 -28 -15.5 -44.5t-43.5 -16.5q-40 0 -40 35q0 29 14.5 45.5t42.5 16.5
q42 0 42 -36z" />
    <glyph glyph-name="afii10051" unicode="&#x402;" horiz-adv-x="678" 
d="M616 253q0 -34 -17 -132q-9 -52 -16 -84t-18.5 -69t-24.5 -58t-33.5 -42.5t-47 -32.5t-63 -17.5t-83.5 -6.5l14 81q93 0 125.5 44.5t57.5 185.5q17 97 17 117q0 49 -26 68.5t-87 19.5q-70 0 -142 -30l-52 -297h-89l104 588h-178l14 79h475l-14 -79h-208l-37 -207
q67 27 144 27q89 0 137 -35.5t48 -119.5z" />
    <glyph glyph-name="afii10052" unicode="&#x403;" horiz-adv-x="532" 
d="M556 587h-339l-104 -587h-89l118 667h428zM526 862l-155 -126h-104l156 126h103z" />
    <glyph glyph-name="afii10053" unicode="&#x404;" horiz-adv-x="646" 
d="M614 535q0 -25 -4 -48h-86q3 23 3 38q0 37 -30.5 52.5t-104.5 15.5q-64 0 -100 -11.5t-61 -36.5q-40 -40 -64 -164h251l-14 -80h-251q-14 -86 -14 -120q0 -60 30 -83.5t110 -23.5q98 0 139 22.5t51 82.5h86q-1 -24 -14.5 -60.5t-42.5 -65.5q-61 -61 -213 -61
q-133 0 -184 43.5t-51 132.5q0 57 19 166q19 106 40 168.5t60 101.5q70 70 228 70q108 0 162.5 -32t54.5 -107z" />
    <glyph glyph-name="afii10054" unicode="&#x405;" horiz-adv-x="643" 
d="M606 534q0 -19 -5 -47h-86q3 17 3 30q0 48 -33.5 62t-114.5 14q-123 0 -161 -39q-36 -38 -36 -109q0 -14 3.5 -24t11.5 -16.5t14.5 -11t20.5 -6.5t21 -2.5t23.5 -1.5t21.5 -1h30t31 -1q35 -1 54 -2.5t48 -5.5t45 -12t33 -21.5t24.5 -35.5t7.5 -52q0 -55 -17 -109t-51 -88
q-63 -63 -228 -63q-116 0 -175.5 31.5t-59.5 107.5q0 17 4 49h88q-3 -14 -3 -33q0 -46 35 -60t114 -14q123 0 163 40t40 117q0 12 -2 21t-7.5 16l-9.5 12t-14.5 8t-15.5 5t-19 3t-18.5 1.5t-21.5 1t-21 0.5h-29t-30 1q-37 1 -60.5 3.5t-53 10.5t-46.5 21t-29 36.5t-12 56.5
q0 51 15.5 102t46.5 82q62 63 229 63q116 0 174 -31.5t58 -108.5z" />
    <glyph glyph-name="afii10055" unicode="&#x406;" horiz-adv-x="255" 
d="M231 667l-118 -667h-89l118 667h89z" />
    <glyph glyph-name="afii10056" unicode="&#x407;" horiz-adv-x="255" 
d="M231 667l-118 -667h-89l118 667h89zM368 826q0 -28 -15.5 -44.5t-43.5 -16.5q-40 0 -40 35q0 29 14.5 45.5t42.5 16.5q42 0 42 -36zM152 826q0 -28 -15.5 -44.5t-43.5 -16.5q-40 0 -40 35q0 29 14.5 45.5t42.5 16.5q42 0 42 -36z" />
    <glyph glyph-name="afii10057" unicode="&#x408;" horiz-adv-x="536" 
d="M519 667l-80 -454q-11 -61 -25.5 -99t-42 -67.5t-70.5 -42t-108 -12.5q-53 0 -93 11t-68.5 41t-28.5 77q0 22 6 58h84q-4 -36 -4 -42q0 -37 26 -50.5t82 -13.5q46 0 74.5 9t44.5 34t22.5 47t14.5 70l77 434h89z" />
    <glyph glyph-name="afii10058" unicode="&#x409;" horiz-adv-x="1005" 
d="M621 667l-51 -286h150q36 0 55.5 -1t50 -4.5t48 -12t36 -23t27 -39t8.5 -57.5q0 -48 -16.5 -103.5t-50.5 -88.5q-35 -34 -86.5 -43t-142.5 -9h-235l104 588h-165l-176 -436q-34 -85 -81 -122.5t-142 -37.5l14 81q56 1 80.5 27t58.5 110l184 457h330zM856 231
q0 25 -8.5 40t-27.5 21.5t-37 8t-50 1.5h-177l-39 -222h148q45 0 66 1t45 8t39 21q41 39 41 121z" />
    <glyph glyph-name="afii10059" unicode="&#x40a;" horiz-adv-x="1015" 
d="M866 231q0 25 -8.5 40t-27.5 21.5t-37 8t-50 1.5h-177l-39 -222h148q45 0 66 1t45 8t39 21q41 39 41 121zM659 0h-235l54 301h-312l-53 -301h-89l118 667h89l-51 -286h312l50 286h89l-51 -286h150q36 0 55.5 -1t50 -4.5t48 -12t36 -23t27 -39t8.5 -57.5
q0 -48 -16.5 -103.5t-50.5 -88.5q-35 -34 -86.5 -43t-142.5 -9z" />
    <glyph glyph-name="afii10060" unicode="&#x40b;" horiz-adv-x="678" 
d="M71 667h475l-14 -79h-208l-37 -207q65 27 144 27q185 0 185 -154q0 -45 -13 -107l-26 -147h-89l27 152q11 60 12 87q0 49 -26 68.5t-87 19.5q-70 0 -142 -30l-52 -297h-89l104 588h-178z" />
    <glyph glyph-name="afii10061" unicode="&#x40c;" horiz-adv-x="607" 
d="M658 667l-419 -334l304 -333h-120l-258 290l-52 -290h-89l118 667h89l-51 -287l358 287h120zM556 862l-155 -126h-104l156 126h103z" />
    <glyph glyph-name="uni040D" unicode="&#x40d;" horiz-adv-x="653" 
d="M511 0h-85l92 517l-402 -517h-92l118 667h84l-91 -516l403 516h91zM472 736h-88l-110 126h88z" />
    <glyph glyph-name="afii10062" unicode="&#x40e;" horiz-adv-x="539" 
d="M501 862q-13 -73 -47 -100.5t-110 -27.5q-70 0 -101.5 21t-31.5 70q0 18 4 37h63q-3 -18 -3 -31q0 -24 16.5 -31t54.5 -7q45 0 64.5 12.5t27.5 56.5h63zM617 667l-457 -667h-102l151 224l-162 443h97l128 -357l243 357h102z" />
    <glyph glyph-name="afii10145" unicode="&#x40f;" horiz-adv-x="655" 
d="M513 0h-202l-21 -117h-86l21 117h-201l118 667h89l-104 -587h311l104 587h89z" />
    <glyph glyph-name="afii10017" unicode="&#x410;" horiz-adv-x="626" 
d="M556 0h-94l-35 184h-277l-100 -184h-97l376 667h88zM412 261l-56 302l-164 -302h220z" />
    <glyph glyph-name="afii10018" unicode="&#x411;" horiz-adv-x="615" 
d="M555 244q0 -48 -16.5 -103.5t-50.5 -88.5q-35 -34 -86.5 -43t-142.5 -9h-235l118 667h431l-14 -80h-343l-36 -206h141q111 0 153 -14q81 -27 81 -123zM466 230q0 25 -8.5 40t-27.5 21.5t-37 8t-50 1.5h-177l-39 -222h148q45 0 66 1t45 8t39 21q41 39 41 121z" />
    <glyph glyph-name="afii10019" unicode="&#x412;" horiz-adv-x="650" 
d="M595 528q0 -102 -58 -160q-20 -20 -40 -26q27 -6 42.5 -34t15.5 -71q0 -117 -67 -184q-34 -34 -83.5 -43.5t-144.5 -9.5h-236l118 667h237q41 0 64 -1t56.5 -8.5t51 -21.5t31 -41t13.5 -67zM507 520q0 45 -29.5 56.5t-100.5 11.5h-161l-37 -207h164q96 0 125 29
q39 39 39 110zM467 226q0 22 -8 37t-18 22.5t-30 11.5t-34.5 4.5t-40.5 0.5h-171l-39 -222h163q63 0 92 7.5t50 28.5q36 36 36 110z" />
    <glyph glyph-name="afii10020" unicode="&#x413;" horiz-adv-x="532" 
d="M556 587h-339l-104 -587h-89l118 667h428z" />
    <glyph glyph-name="afii10021" unicode="&#x414;" horiz-adv-x="676" 
d="M558 -117h-86l21 119h-440l-21 -119h-86l34 197q48 1 74 23.5t47 72.5l205 491h327l-104 -587h63zM440 80l90 508h-162l-173 -415q-31 -74 -62 -93h307z" />
    <glyph glyph-name="afii10022" unicode="&#x415;" horiz-adv-x="587" 
d="M580 667l-14 -80h-349l-36 -205h339l-14 -80h-339l-40 -222h350l-15 -80h-438l118 667h438z" />
    <glyph glyph-name="afii10024" unicode="&#x416;" horiz-adv-x="882" 
d="M811 0h-112l-210 295l-52 -295h-87l52 295l-316 -295h-120l374 342l-250 325h109l219 -284l49 284h87l-50 -283l315 283h114l-371 -331z" />
    <glyph glyph-name="afii10025" unicode="&#x417;" horiz-adv-x="658" 
d="M558 248q0 -55 -21.5 -112.5t-60.5 -87.5q-73 -56 -216 -56q-50 0 -88.5 6t-71.5 21t-50.5 43.5t-17.5 69.5q0 19 5 47h87q-3 -18 -3 -31q0 -46 33.5 -60.5t116.5 -14.5q100 0 149.5 33t49.5 129q0 44 -30.5 57t-119.5 13h-84l14 77h78q46 0 75.5 4.5t57.5 18t41.5 43
t13.5 75.5q0 39 -33.5 54.5t-121.5 15.5q-93 0 -132.5 -22t-51.5 -84h-86q20 111 87.5 149t197.5 38q116 0 171.5 -31t55.5 -101q0 -69 -30 -125t-91 -70q76 -18 76 -99z" />
    <glyph glyph-name="afii10026" unicode="&#x418;" horiz-adv-x="653" 
d="M511 0h-85l92 517l-402 -517h-92l118 667h84l-91 -516l403 516h91z" />
    <glyph glyph-name="afii10027" unicode="&#x419;" horiz-adv-x="653" 
d="M511 0h-85l92 517l-402 -517h-92l118 667h84l-91 -516l403 516h91zM548 867q-13 -73 -47 -100.5t-110 -27.5q-70 0 -101.5 21t-31.5 70q0 18 4 37h63q-3 -18 -3 -31q0 -24 16.5 -31t54.5 -7q45 0 64.5 12.5t27.5 56.5h63z" />
    <glyph glyph-name="afii10028" unicode="&#x41a;" horiz-adv-x="607" 
d="M658 667l-419 -334l304 -333h-120l-258 290l-52 -290h-89l118 667h89l-51 -287l358 287h120z" />
    <glyph glyph-name="afii10029" unicode="&#x41b;" horiz-adv-x="645" 
d="M503 0h-89l104 588h-165l-176 -436q-34 -85 -81 -122.5t-142 -37.5l14 81q56 1 80.5 27t58.5 110l184 457h330z" />
    <glyph glyph-name="afii10030" unicode="&#x41c;" horiz-adv-x="823" 
d="M798 667l-118 -667h-85l97 545l-298 -545h-85l-105 545l-96 -545h-84l118 667h117l109 -563l308 563h122z" />
    <glyph glyph-name="afii10031" unicode="&#x41d;" horiz-adv-x="655" 
d="M631 667l-118 -667h-89l54 301h-312l-53 -301h-89l118 667h89l-51 -286h312l50 286h89z" />
    <glyph glyph-name="afii10032" unicode="&#x41e;" horiz-adv-x="669" 
d="M619 500q0 -28 -1.5 -53t-5 -51t-6 -39.5t-8.5 -43t-7 -36.5q-9 -47 -18.5 -80t-25.5 -68.5t-38.5 -58t-54.5 -41.5t-77 -28t-103 -9q-122 0 -173 45t-51 131q0 59 19 166q19 106 40 168.5t60 101.5q70 70 228 70q123 0 172.5 -45.5t49.5 -128.5zM530 487q0 63 -31 84.5
t-113 21.5q-65 0 -109.5 -17.5t-70.5 -65.5q-24 -46 -45.5 -154.5t-21.5 -174.5q0 -63 31 -85t113 -22q65 0 109.5 17.5t70.5 66.5q24 46 45.5 154.5t21.5 174.5z" />
    <glyph glyph-name="afii10033" unicode="&#x41f;" horiz-adv-x="655" 
d="M631 667l-118 -667h-89l104 588h-311l-104 -588h-89l118 667h489z" />
    <glyph glyph-name="afii10034" unicode="&#x420;" horiz-adv-x="613" 
d="M603 524q0 -49 -17 -102.5t-49 -85.5q-35 -35 -84.5 -44t-134.5 -9h-155l-50 -283h-89l118 667h192h29.5h29.5t27 -0.5t27.5 -1t24 -2t24 -4l21 -6t21 -8t17.5 -10.5t16 -13q32 -32 32 -98zM511 513q0 21 -6.5 35.5t-15.5 22t-28 11.5t-33.5 4.5t-43.5 0.5h-167l-39 -224
h140h25h26t22.5 1t24.5 3l19.5 5t20 8.5t16.5 13.5q39 39 39 119z" />
    <glyph glyph-name="afii10035" unicode="&#x421;" horiz-adv-x="646" 
d="M614 535q0 -25 -4 -48h-86q3 23 3 38q0 37 -30.5 52.5t-104.5 15.5q-64 0 -100 -11.5t-61 -36.5q-27 -27 -42.5 -76t-30.5 -136q-19 -111 -19 -152q0 -60 30 -83.5t110 -23.5q98 0 139 22.5t51 82.5h86q-1 -24 -14.5 -60.5t-42.5 -65.5q-61 -61 -213 -61
q-133 0 -184 43.5t-51 132.5q0 57 19 166q19 106 40 168.5t60 101.5q70 70 228 70q108 0 162.5 -32t54.5 -107z" />
    <glyph glyph-name="afii10036" unicode="&#x422;" horiz-adv-x="538" 
d="M576 667l-14 -79h-208l-104 -588h-89l104 588h-208l14 79h505z" />
    <glyph glyph-name="afii10037" unicode="&#x423;" horiz-adv-x="539" 
d="M617 667l-457 -667h-102l151 224l-162 443h97l128 -357l243 357h102z" />
    <glyph glyph-name="afii10038" unicode="&#x424;" horiz-adv-x="787" 
d="M315 140l69 391q-75 -1 -115.5 -10.5t-66.5 -38.5q-27 -29 -46.5 -101.5t-19.5 -129.5q0 -31 6.5 -51t17 -32t36 -18t49 -7.5t70.5 -2.5zM473 531l-69 -391q75 1 115.5 10.5t67.5 38.5t46.5 102t19.5 129q0 26 -3.5 44t-14 30.5t-22 19.5t-35.5 10.5t-45 4.5t-60 2z
M389 59l-10 -59h-89l10 59q-138 3 -196.5 37.5t-58.5 137.5q0 38 11 101q15 84 36 135t61 83.5t96.5 45t148.5 14.5l10 54h89l-10 -54q138 -3 196.5 -37.5t58.5 -137.5q0 -38 -11 -101q-15 -84 -36 -135t-61 -83.5t-96.5 -45t-148.5 -14.5z" />
    <glyph glyph-name="afii10039" unicode="&#x425;" horiz-adv-x="589" 
d="M617 667l-269 -327l168 -340h-98l-130 273l-215 -273h-107l282 340l-158 327h99l118 -261l204 261h106z" />
    <glyph glyph-name="afii10040" unicode="&#x426;" horiz-adv-x="673" 
d="M556 -117h-86l21 117h-467l118 667h89l-104 -587h311l104 587h89l-104 -587h63z" />
    <glyph glyph-name="afii10041" unicode="&#x427;" horiz-adv-x="611" 
d="M469 0h-89l50 277q-78 -26 -155 -26q-96 0 -148 41t-52 120q0 33 13 105l27 150h88l-28 -157q-11 -58 -11 -87q0 -52 33.5 -70t96.5 -18q75 0 151 29l53 303h89z" />
    <glyph glyph-name="afii10042" unicode="&#x428;" horiz-adv-x="883" 
d="M741 0h-717l118 667h89l-104 -587h225l104 587h89l-104 -587h225l104 587h89z" />
    <glyph glyph-name="afii10043" unicode="&#x429;" horiz-adv-x="901" 
d="M784 -117h-86l21 117h-695l118 667h89l-104 -587h225l104 587h89l-104 -587h225l104 587h89l-104 -587h63z" />
    <glyph glyph-name="afii10044" unicode="&#x42a;" horiz-adv-x="721" 
d="M286 381h141q111 0 153 -14q81 -27 81 -123q0 -48 -16.5 -103.5t-50.5 -88.5q-35 -34 -86.5 -43t-142.5 -9h-235l104 588h-177l14 79h266zM572 230q0 25 -8.5 40t-27.5 21.5t-37 8t-50 1.5h-177l-39 -222h148q45 0 66 1t45 8t39 21q41 39 41 121z" />
    <glyph glyph-name="afii10045" unicode="&#x42b;" horiz-adv-x="841" 
d="M180 381h141q111 0 153 -14q81 -27 81 -123q0 -48 -16.5 -103.5t-50.5 -88.5q-35 -34 -86.5 -43t-142.5 -9h-235l118 667h89zM466 230q0 25 -8.5 40t-27.5 21.5t-37 8t-50 1.5h-177l-39 -222h148q45 0 66 1t45 8t39 21q41 39 41 121zM817 667l-118 -667h-89l118 667h89z
" />
    <glyph glyph-name="afii10046" unicode="&#x42c;" horiz-adv-x="615" 
d="M180 381h150q36 0 55.5 -1t50 -4.5t48 -12t36 -23t27 -39t8.5 -57.5q0 -48 -16.5 -103.5t-50.5 -88.5q-35 -34 -86.5 -43t-142.5 -9h-235l118 667h89zM466 231q0 25 -8.5 40t-27.5 21.5t-37 8t-50 1.5h-177l-39 -222h148q45 0 66 1t45 8t39 21q41 39 41 121z" />
    <glyph glyph-name="afii10047" unicode="&#x42d;" horiz-adv-x="646" 
d="M235 301l14 80h247q11 68 11 104q0 60 -30 83.5t-110 23.5q-98 0 -139 -22.5t-51 -82.5h-86q1 24 14.5 60.5t42.5 65.5q61 61 213 61q133 0 184 -43.5t51 -132.5q0 -57 -19 -166q-19 -106 -40 -168.5t-60 -101.5q-70 -70 -228 -70q-108 0 -162.5 32t-54.5 107q0 25 4 48
h86q-3 -23 -3 -38q0 -37 30.5 -52.5t104.5 -15.5q64 0 100 11.5t61 36.5q40 40 68 180h-248z" />
    <glyph glyph-name="afii10048" unicode="&#x42e;" horiz-adv-x="911" 
d="M861 500q0 -28 -1.5 -53t-5 -51t-6 -39.5t-8.5 -43t-7 -36.5q-9 -47 -18.5 -80t-25.5 -68.5t-38.5 -58t-54.5 -41.5t-77 -28t-103 -9q-122 0 -173 45t-51 131q0 53 13 133h-139l-53 -301h-89l118 667h89l-51 -286h139q33 164 92 223q70 70 228 70q123 0 172.5 -45.5
t49.5 -128.5zM772 487q0 63 -31 84.5t-113 21.5q-65 0 -109.5 -17.5t-70.5 -65.5q-24 -46 -45.5 -154.5t-21.5 -174.5q0 -63 31 -85t113 -22q65 0 109.5 17.5t70.5 66.5q24 46 45.5 154.5t21.5 174.5z" />
    <glyph glyph-name="afii10049" unicode="&#x42f;" horiz-adv-x="651" 
d="M509 0h-89l51 288h-169q-68 0 -97.5 -10t-43 -34.5t-24.5 -85.5l-28 -158h-89l29 163q6 36 11 56.5t16 47t28.5 42t43.5 21.5q-50 27 -50 100q0 52 18 103.5t48 81.5q19 19 42 30.5t60 16t58 5t75 0.5h228zM485 369l39 218h-151q-69 0 -97 -5.5t-47 -24.5
q-42 -42 -42 -118q0 -21 5.5 -34.5t12 -20.5t25.5 -10.5t32 -4t45 -0.5h14h164z" />
    <glyph glyph-name="afii10065" unicode="&#x430;" horiz-adv-x="527" 
d="M465 362q0 -24 -13 -99l-47 -263h-78l8 47q-55 -55 -162 -55q-76 0 -121 29.5t-45 92.5q0 86 48 134q30 30 71 39.5t109 9.5h138q8 51 8 58q0 38 -23.5 50t-79.5 12q-75 0 -105.5 -18.5t-37.5 -53.5h-83q8 44 29.5 74.5t54.5 45.5t68 21t81 6q180 0 180 -130zM363 226
h-128q-24 0 -36 -0.5t-36.5 -5.5t-37.5 -15t-24 -30.5t-11 -50.5q0 -28 24.5 -43.5t70.5 -15.5q50 0 82 9t50.5 31.5t27.5 48t18 72.5z" />
    <glyph glyph-name="afii10066" unicode="&#x431;" horiz-adv-x="548" 
d="M213 -8q-95 0 -141 38t-46 121q0 72 46 300q16 79 57.5 124t89 56.5t93.5 15t78.5 13.5t36.5 39h84q-8 -51 -34.5 -79t-63.5 -36t-74.5 -10.5t-77.5 -12t-63 -31.5q-26 -25 -40 -86q52 48 137 48q95 0 140 -37t45 -120q0 -39 -9 -93q-12 -69 -27 -111.5t-43 -76.5
t-73.5 -48t-114.5 -14zM215 69q81 0 116 34q36 35 55 154q7 49 7 74q0 47 -25 65.5t-82 18.5q-85 0 -119 -43q-23 -26 -38.5 -95.5t-15.5 -120.5q0 -47 24.5 -67t77.5 -20z" />
    <glyph glyph-name="afii10067" unicode="&#x432;" horiz-adv-x="533" 
d="M374 302q22 22 22 65q0 27 -18 34.5t-68 7.5h-143l-22 -125h165q49 2 64 18zM338 94q24 22 24 72q0 22 -12.5 32t-28 11.5t-53.5 1.5h-136l-24 -137h163q49 2 67 20zM402 39q-25 -24 -63 -31.5t-99 -7.5h-230l85 484h219q99 0 130 -18q39 -21 39 -77q0 -59 -24 -95
t-51 -44q43 -14 43 -76q0 -33 -12.5 -72t-36.5 -63z" />
    <glyph glyph-name="afii10068" unicode="&#x433;" horiz-adv-x="445" 
d="M441 411h-274l-72 -411h-85l85 484h359z" />
    <glyph glyph-name="afii10069" unicode="&#x434;" horiz-adv-x="576" 
d="M462 -117h-81l21 120h-348l-21 -120h-81l34 192q38 2 60 19t38 55l136 335h294l-72 -406h55zM356 78l59 330h-138l-101 -251q-24 -63 -55 -79h235z" />
    <glyph glyph-name="afii10070" unicode="&#x435;" horiz-adv-x="534" 
d="M472 341q0 -75 -13 -127h-343q-7 -42 -7 -61q0 -47 26 -67t90 -20q26 0 45 2.5t39 9.5t33 23t17 40h80q-19 -149 -217 -149q-108 0 -152 40t-44 121q0 69 22 156.5t61 126.5q56 56 172 56q106 0 148.5 -39.5t42.5 -111.5zM392 339q0 43 -25 61.5t-86 18.5
q-74 0 -106.5 -31.5t-45.5 -101.5h257q6 36 6 53z" />
    <glyph glyph-name="afii10072" unicode="&#x436;" horiz-adv-x="716" 
d="M645 0h-104l-159 221l-39 -221h-86l39 215l-228 -215h-113l274 246l-187 238h103l161 -212l37 212h85l-36 -207l230 207h107l-270 -238z" />
    <glyph glyph-name="afii10073" unicode="&#x437;" horiz-adv-x="526" 
d="M204 69q38 0 62.5 3t49 12t36.5 29.5t12 51.5q0 29 -25.5 38t-96.5 9h-50l13 74h55q32 0 50.5 1.5t40 7.5t31.5 21t10 39q0 34 -28 46.5t-93 12.5q-25 0 -43.5 -2t-40.5 -8.5t-36 -22t-18 -38.5h-81q10 59 44.5 93.5t77 45t104.5 10.5q100 0 148.5 -23t49.5 -80
q0 -105 -80 -137q49 -17 49 -71q0 -89 -55 -139t-190 -50q-184 0 -184 119q0 13 3 30h80q-1 -5 -1 -17q0 -24 18 -37t38 -15.5t50 -2.5z" />
    <glyph glyph-name="afii10074" unicode="&#x438;" horiz-adv-x="548" 
d="M418 0h-80l64 365l-305 -365h-87l85 484h79l-64 -366l306 366h87z" />
    <glyph glyph-name="afii10075" unicode="&#x439;" horiz-adv-x="548" 
d="M418 0h-80l64 365l-305 -365h-87l85 484h79l-64 -366l306 366h87zM466 667q-13 -73 -47 -100.5t-110 -27.5q-70 0 -101.5 21t-31.5 70q0 18 4 37h63q-3 -18 -3 -31q0 -24 16.5 -31t54.5 -7q45 0 64.5 12.5t27.5 56.5h63z" />
    <glyph glyph-name="afii10076" unicode="&#x43a;" horiz-adv-x="503" 
d="M516 484l-301 -232l221 -252h-109l-192 229l-40 -229h-85l85 484h85l-36 -202l252 202h120z" />
    <glyph glyph-name="afii10077" unicode="&#x43b;" horiz-adv-x="540" 
d="M410 0h-85l71 408h-137l-95 -235q-14 -36 -20.5 -51t-21 -42t-27.5 -38t-33.5 -25.5t-47.5 -19.5t-62 -5l13 81q20 0 35.5 5.5t24.5 11t18 19.5t11.5 19.5l10.5 22.5l136 333h294z" />
    <glyph glyph-name="afii10078" unicode="&#x43c;" horiz-adv-x="669" 
d="M539 0h-82l61 348l-205 -348h-78l-83 348l-61 -348h-81l85 484h99l93 -391l231 391h106z" />
    <glyph glyph-name="afii10079" unicode="&#x43d;" horiz-adv-x="548" 
d="M418 0h-85l38 213h-238l-38 -213h-85l85 484h85l-35 -198h238l35 198h85z" />
    <glyph glyph-name="afii10080" unicode="&#x43e;" horiz-adv-x="551" 
d="M489 331q0 -39 -9 -89q-12 -68 -26.5 -110.5t-42.5 -76.5t-73.5 -48.5t-113.5 -14.5q-109 0 -153.5 38.5t-44.5 122.5q0 39 9 89q12 68 26.5 110.5t42.5 76.5t73.5 48.5t113.5 14.5q109 0 153.5 -38.5t44.5 -122.5zM402 328q0 47 -24.5 67t-86.5 20q-81 0 -116 -34
q-36 -35 -55 -154q-7 -49 -7 -71q0 -47 24.5 -67t86.5 -20q81 0 116 34q36 35 55 154q7 49 7 71z" />
    <glyph glyph-name="afii10081" unicode="&#x43f;" horiz-adv-x="548" 
d="M418 0h-85l72 411h-238l-72 -411h-85l85 484h408z" />
    <glyph glyph-name="afii10082" unicode="&#x440;" horiz-adv-x="555" 
d="M493 347q0 -111 -25.5 -189t-60.5 -113q-29 -29 -63.5 -41t-90.5 -12q-107 0 -151 49l-41 -232h-85l119 675h79l-9 -53q58 61 160 61q92 0 130 -36t38 -109zM404 325q0 45 -17 66t-72 21q-83 0 -123 -37q-31 -30 -46.5 -93.5t-15.5 -121.5q0 -49 27.5 -69.5t92.5 -20.5
q62 0 92 30q29 29 45.5 98.5t16.5 126.5z" />
    <glyph glyph-name="afii10083" unicode="&#x441;" horiz-adv-x="521" 
d="M474 373q0 -13 -3 -30h-80q1 5 1 17q0 24 -18 37t-38 15.5t-50 2.5q-77 0 -112 -35q-29 -29 -45 -99t-16 -126q0 -46 25 -66t87 -20q24 0 42 2t38.5 9t33.5 22.5t17 38.5h81q-18 -149 -216 -149q-106 0 -150.5 39t-44.5 122q0 71 22 156t61 125q55 58 174 58
q191 0 191 -119z" />
    <glyph glyph-name="afii10084" unicode="&#x442;" horiz-adv-x="458" 
d="M453 411h-171l-72 -411h-85l72 411h-169l13 73h425z" />
    <glyph glyph-name="afii10085" unicode="&#x443;" horiz-adv-x="487" 
d="M498 484l-375 -675h-94l111 197l-96 478h88l70 -383l203 383h93z" />
    <glyph glyph-name="afii10086" unicode="&#x444;" horiz-adv-x="832" 
d="M519 697l-45 -256q56 51 130 51q91 0 128.5 -35.5t37.5 -106.5q0 -58 -8 -110q-9 -57 -22 -96.5t-37.5 -76.5t-67.5 -56t-103 -19q-37 0 -78 14.5t-53 33.5l-41 -231h-84l41 231q-20 -19 -55.5 -33.5t-71.5 -14.5q-89 0 -126.5 39t-37.5 113q0 48 9 101q9 49 16 77.5
t23.5 65.5t38.5 56.5t60 33.5t90 14q88 0 127 -51l44 256h85zM364 314q0 56 -26.5 78.5t-80.5 22.5q-62 0 -91 -41t-44 -131q-9 -56 -9 -83q0 -90 84 -90q63 0 102 37.5t57 132.5q8 56 8 74zM683 336q0 40 -17.5 59.5t-59.5 19.5q-68 0 -108 -37.5t-57 -133.5q-7 -47 -7 -72
q0 -59 24 -80.5t79 -21.5q61 0 91 41t46 130q9 54 9 95z" />
    <glyph glyph-name="afii10087" unicode="&#x445;" horiz-adv-x="496" 
d="M500 484l-222 -238l148 -246h-95l-107 187l-165 -187h-104l228 247l-136 237h97l96 -177l158 177h102z" />
    <glyph glyph-name="afii10088" unicode="&#x446;" horiz-adv-x="565" 
d="M452 -117h-81l21 117h-382l85 484h85l-72 -411h238l72 411h85l-72 -411h55z" />
    <glyph glyph-name="afii10089" unicode="&#x447;" horiz-adv-x="522" 
d="M394 0h-85l34 191q-54 -22 -133 -22q-166 0 -166 128q0 36 16 118l12 69h85l-16 -91q-10 -55 -10 -79q1 -39 22.5 -53.5t74.5 -14.5q75 0 128 22l38 216h85z" />
    <glyph glyph-name="afii10090" unicode="&#x448;" horiz-adv-x="761" 
d="M631 0h-621l85 484h85l-72 -411h183l72 411h85l-72 -411h183l72 411h85z" />
    <glyph glyph-name="afii10091" unicode="&#x449;" horiz-adv-x="778" 
d="M665 -117h-81l21 117h-595l85 484h85l-72 -411h183l72 411h85l-72 -411h183l72 411h85l-72 -411h55z" />
    <glyph glyph-name="afii10092" unicode="&#x44a;" horiz-adv-x="529" 
d="M171 287h123h36t33.5 -2t34.5 -5.5t28 -11t25 -18t14 -27t6 -38.5q0 -114 -65 -158q-26 -18 -61.5 -22.5t-96.5 -4.5h-212l72 408h-102l14 76h186zM383 168q0 26 -15.5 34.5t-47.5 9.5h-162l-24 -138h152q51 0 74 19.5t23 74.5z" />
    <glyph glyph-name="afii10093" unicode="&#x44b;" horiz-adv-x="718" 
d="M673 484l-85 -484h-85l85 484h85zM145 287h123h36t33.5 -2t34.5 -5.5t28 -11t25 -18t14 -27t6 -38.5q0 -114 -65 -158q-26 -18 -61.5 -22.5t-96.5 -4.5h-212l85 484h85zM357 168q0 26 -15.5 34.5t-47.5 9.5h-162l-24 -138h152q51 0 74 19.5t23 74.5z" />
    <glyph glyph-name="afii10094" unicode="&#x44c;" horiz-adv-x="503" 
d="M145 287h123h36t33.5 -2t34.5 -5.5t28 -11t25 -18t14 -27t6 -38.5q0 -114 -65 -158q-26 -18 -61.5 -22.5t-96.5 -4.5h-212l85 484h85zM357 168q0 26 -15.5 34.5t-47.5 9.5h-162l-24 -138h152q51 0 74 19.5t23 74.5z" />
    <glyph glyph-name="afii10095" unicode="&#x44d;" horiz-adv-x="527" 
d="M16 111q0 13 3 30h81q-2 -12 -2 -16q0 -58 107 -58q80 0 111 33.5t48 111.5h-172l13 73h171q3 22 3 42q0 47 -25 68.5t-89 21.5q-117 0 -130 -74h-81q15 83 71 116t143 33q103 0 150 -37t47 -122q0 -38 -10 -96q-7 -42 -15 -71t-20.5 -59.5t-30.5 -49.5t-43.5 -35
t-61.5 -23t-83 -7q-185 0 -185 119z" />
    <glyph glyph-name="afii10096" unicode="&#x44e;" horiz-adv-x="769" 
d="M707 331q0 -39 -9 -89q-12 -68 -26.5 -110.5t-42.5 -76.5t-73.5 -48.5t-113.5 -14.5q-109 0 -153.5 38.5t-44.5 122.5q0 34 5 61h-116l-38 -214h-85l86 484h85l-35 -198h116q22 110 74.5 158t172.5 48q109 0 153.5 -38.5t44.5 -122.5zM620 328q0 47 -24.5 67t-86.5 20
q-81 0 -116 -34q-36 -35 -55 -154q-7 -49 -7 -71q0 -47 24.5 -67t86.5 -20q81 0 116 34q36 35 55 154q7 49 7 71z" />
    <glyph glyph-name="afii10097" unicode="&#x44f;" horiz-adv-x="536" 
d="M408 0h-85l36 204h-127q-67 0 -91 -12.5t-35 -64.5l-22 -127h-85l24 134q4 26 9.5 43t21 37t40.5 29q-34 20 -34 68q0 39 13 76t35 57q21 19 54.5 28.5t60 10.5t88.5 1h182zM371 276l24 134h-113q-54 0 -74.5 -3.5t-34.5 -14.5q-27 -24 -27 -73q0 -13 5 -21t11 -12.5
t21 -6.5t25 -2.5t33 -0.5h11h119z" />
    <glyph glyph-name="uni0450" unicode="&#x450;" horiz-adv-x="534" 
d="M472 341q0 -75 -13 -127h-343q-7 -42 -7 -61q0 -47 26 -67t90 -20q26 0 45 2.5t39 9.5t33 23t17 40h80q-19 -149 -217 -149q-108 0 -152 40t-44 121q0 69 22 156.5t61 126.5q56 56 172 56q106 0 148.5 -39.5t42.5 -111.5zM392 339q0 43 -25 61.5t-86 18.5
q-74 0 -106.5 -31.5t-45.5 -101.5h257q6 36 6 53zM393 541h-88l-110 126h88z" />
    <glyph glyph-name="afii10071" unicode="&#x451;" horiz-adv-x="534" 
d="M472 341q0 -75 -13 -127h-343q-7 -42 -7 -61q0 -47 26 -67t90 -20q26 0 45 2.5t39 9.5t33 23t17 40h80q-19 -149 -217 -149q-108 0 -152 40t-44 121q0 69 22 156.5t61 126.5q56 56 172 56q106 0 148.5 -39.5t42.5 -111.5zM392 339q0 43 -25 61.5t-86 18.5
q-74 0 -106.5 -31.5t-45.5 -101.5h257q6 36 6 53zM472 631q0 -28 -15.5 -44.5t-43.5 -16.5q-40 0 -40 35q0 29 14.5 45.5t42.5 16.5q42 0 42 -36zM256 631q0 -28 -15.5 -44.5t-43.5 -16.5q-40 0 -40 35q0 29 14.5 45.5t42.5 16.5q42 0 42 -36z" />
    <glyph glyph-name="afii10099" unicode="&#x452;" horiz-adv-x="539" 
d="M388 341q0 37 -20 54.5t-73 17.5q-37 0 -64 -11t-42 -25t-26.5 -44t-16 -49.5t-11.5 -60.5l-40 -223h-85l96 546h-81l12 65h81l15 86h85l-15 -86h157l-12 -65h-156l-19 -105q53 51 144 51q160 0 160 -126q0 -27 -14 -109l-27 -156q-7 -39 -12 -63.5t-13.5 -56
t-18.5 -50.5t-25 -41t-34 -34t-45 -23.5t-59.5 -16t-74.5 -4.5l14 78q49 0 80 10.5t50.5 38.5t30 62.5t21.5 95.5l27 152q11 66 11 92z" />
    <glyph glyph-name="afii10100" unicode="&#x453;" horiz-adv-x="445" 
d="M441 411h-274l-72 -411h-85l85 484h359zM446 667l-155 -126h-104l156 126h103z" />
    <glyph glyph-name="afii10101" unicode="&#x454;" horiz-adv-x="521" 
d="M290 212h-173q-4 -28 -4 -57q0 -46 25 -66t87 -20q24 0 42 2t38.5 9t33.5 22.5t17 38.5h81q-18 -149 -216 -149q-106 0 -150.5 39t-44.5 122q0 71 22 156t61 125q55 58 174 58q191 0 191 -119q0 -13 -3 -30h-80q1 5 1 17q0 24 -18 37t-38 15.5t-50 2.5q-77 0 -112 -35
q-26 -26 -43 -95h172z" />
    <glyph glyph-name="afii10102" unicode="&#x455;" horiz-adv-x="511" 
d="M465 377q0 -16 -3 -34h-79q0 1 1 8t1 13q0 19 -9 31t-26.5 17t-33 6.5t-38.5 1.5q-31 0 -50.5 -2.5t-41 -10.5t-32 -26.5t-10.5 -48.5q0 -34 28 -42q13 -4 77 -7q31 -1 43.5 -2t39.5 -4.5t39 -10t27.5 -17.5t22 -28.5t6.5 -41.5q0 -89 -46 -136q-49 -51 -183 -51
q-188 0 -188 113q0 23 3 36h79q-2 -10 -2 -21q0 -32 26.5 -44t84.5 -12q31 0 52.5 3t43 12t32.5 28.5t11 50.5q0 11 -2.5 19t-10.5 13t-14 8t-22.5 5t-27 2.5t-35.5 1.5q-32 1 -51 2.5t-45 8t-40.5 16.5t-25 29.5t-10.5 46.5q0 89 49 137q46 45 180 45q180 0 180 -115z" />
    <glyph glyph-name="afii10103" unicode="&#x456;" horiz-adv-x="224" 
d="M213 636q0 -27 -16.5 -44.5t-43.5 -17.5q-43 0 -43 38q0 27 16.5 44.5t43.5 17.5q43 0 43 -38zM180 484l-85 -484h-85l85 484h85z" />
    <glyph glyph-name="afii10104" unicode="&#x457;" horiz-adv-x="224" 
d="M180 484l-85 -484h-85l85 484h85zM320 631q0 -28 -15.5 -44.5t-43.5 -16.5q-40 0 -40 35q0 29 14.5 45.5t42.5 16.5q42 0 42 -36zM104 631q0 -28 -15.5 -44.5t-43.5 -16.5q-40 0 -40 35q0 29 14.5 45.5t42.5 16.5q42 0 42 -36z" />
    <glyph glyph-name="afii10105" unicode="&#x458;" horiz-adv-x="224" 
d="M213 636q0 -27 -16.5 -44.5t-43.5 -17.5q-43 0 -43 38q0 27 16.5 44.5t43.5 17.5q43 0 43 -38zM180 484l-83 -472q-7 -40 -12 -61t-19.5 -53.5t-34 -49t-55.5 -29.5t-84 -13q-72 0 -113 27.5t-41 77.5q0 7 2 21h82q-1 -2 -1 -11q0 -44 76 -44q47 0 72 25q18 18 27 45
t18 76l81 461h85z" />
    <glyph glyph-name="afii10106" unicode="&#x459;" horiz-adv-x="818" 
d="M495 484l-35 -197h123h36t33.5 -2t34.5 -5.5t28 -11t25 -18t14 -27t6 -38.5q0 -114 -65 -158q-26 -18 -61.5 -22.5t-96.5 -4.5h-212l72 408h-138l-97 -241l-21 -50t-20.5 -41t-27 -36.5t-34 -24.5t-47 -18t-60.5 -5l14 81q24 0 41.5 6.5t28.5 20.5t16 23t13 28l137 333
h293zM672 168q0 26 -15.5 34.5t-47.5 9.5h-162l-24 -138h152q51 0 74 19.5t23 74.5z" />
    <glyph glyph-name="afii10107" unicode="&#x45a;" horiz-adv-x="825" 
d="M467 287h123h36t33.5 -2t34.5 -5.5t28 -11t25 -18t14 -27t6 -38.5q0 -114 -65 -158q-26 -18 -61.5 -22.5t-96.5 -4.5h-212l37 212h-237l-37 -212h-85l85 484h85l-35 -197h237l35 197h85zM679 168q0 26 -15.5 34.5t-47.5 9.5h-162l-24 -138h152q51 0 74 19.5t23 74.5z" />
    <glyph glyph-name="afii10108" unicode="&#x45b;" horiz-adv-x="539" 
d="M37 611h81l15 86h85l-15 -86h157l-12 -65h-156l-19 -105q53 51 144 51q79 0 119.5 -32.5t40.5 -93.5q0 -25 -14 -109l-45 -257h-85l44 250q11 66 11 91q0 37 -20 54.5t-73 17.5q-37 0 -64 -11t-42 -25t-26.5 -44t-16 -49.5t-11.5 -60.5l-40 -223h-85l96 546h-81z" />
    <glyph glyph-name="afii10109" unicode="&#x45c;" horiz-adv-x="503" 
d="M516 484l-301 -232l221 -252h-109l-192 229l-40 -229h-85l85 484h85l-36 -202l252 202h120zM476 667l-155 -126h-104l156 126h103z" />
    <glyph glyph-name="uni045D" unicode="&#x45d;" horiz-adv-x="548" 
d="M418 0h-80l64 365l-305 -365h-87l85 484h79l-64 -366l306 366h87zM392 541h-88l-110 126h88z" />
    <glyph glyph-name="afii10110" unicode="&#x45e;" horiz-adv-x="487" 
d="M429 667q-13 -73 -47 -100.5t-110 -27.5q-70 0 -101.5 21t-31.5 70q0 18 4 37h63q-3 -18 -3 -31q0 -24 16.5 -31t54.5 -7q45 0 64.5 12.5t27.5 56.5h63zM498 484l-375 -675h-94l111 197l-96 478h88l70 -383l203 383h93z" />
    <glyph glyph-name="afii10193" unicode="&#x45f;" horiz-adv-x="548" 
d="M418 0h-163l-21 -117h-81l21 117h-164l85 484h85l-72 -411h238l72 411h85z" />
    <glyph glyph-name="afii10146" unicode="&#x462;" horiz-adv-x="742" 
d="M676 194q-7 -40 -19.5 -70t-26.5 -50.5t-37 -34.5t-42.5 -21.5t-51.5 -11.5t-55.5 -5t-63.5 -1h-230l85 486h-178l14 80h178l18 101h89l-18 -101h208l-14 -80h-208l-18 -105h141q33 0 49.5 -0.5t44 -2t41.5 -4.5t33.5 -9.5t29 -16t20 -23.5t13.5 -32.5t3 -43t-5 -55.5z
M587 192q13 74 -28 97q-7 4 -17 6.5t-18.5 4t-23 2t-22 0.5h-25h-22.5h-139l-39 -222h139h22.5h25t22.5 0.5t24 2t20 4t19 6.5q50 23 62 99z" />
    <glyph glyph-name="afii10194" unicode="&#x463;" horiz-adv-x="529" 
d="M466 144q-13 -78 -52 -109q-34 -28 -96 -33q-22 -2 -35 -2h-248l72 411h-101l13 73h101l32 183h85l-32 -183h214l-13 -73h-214l-22 -125h154q100 0 129 -35q26 -32 13 -107zM377 143q8 48 -11.5 59t-89.5 11h-119l-25 -140h128q25 0 38.5 1t29 4.5t24 11t15 20.5t10.5 33
z" />
    <glyph glyph-name="afii10147" unicode="&#x472;" horiz-adv-x="669" 
d="M619 500q0 -28 -1.5 -53t-5 -51t-6 -39.5t-8.5 -43t-7 -36.5q-9 -47 -18.5 -80t-25.5 -68.5t-38.5 -58t-54.5 -41.5t-77 -28t-103 -9q-122 0 -173 45t-51 131q0 59 19 166q19 106 40 168.5t60 101.5q70 70 228 70q123 0 172.5 -45.5t49.5 -128.5zM463 158q20 36 44 144
h-356q-12 -81 -12 -121q0 -63 31 -85t113 -22q65 0 109.5 17.5t70.5 66.5zM530 487q0 63 -31 84.5t-113 21.5q-65 0 -109.5 -17.5t-70.5 -65.5q-19 -33 -40 -128h355q9 67 9 105z" />
    <glyph glyph-name="afii10195" unicode="&#x473;" horiz-adv-x="551" 
d="M489 331q0 -39 -9 -89q-12 -68 -26.5 -110.5t-42.5 -76.5t-73.5 -48.5t-113.5 -14.5q-109 0 -153.5 38.5t-44.5 122.5q0 39 9 89q12 68 26.5 110.5t42.5 76.5t73.5 48.5t113.5 14.5q109 0 153.5 -38.5t44.5 -122.5zM340 103q32 32 47 110h-269q-5 -37 -5 -57
q0 -47 24.5 -67t86.5 -20q81 0 116 34zM402 328q0 47 -24.5 67t-86.5 20q-81 0 -116 -34q-28 -27 -44 -95h268q3 22 3 42z" />
    <glyph glyph-name="afii10148" unicode="&#x474;" horiz-adv-x="614" 
d="M280 0h-86l-131 667h94l102 -548l211 389l24 44t20.5 35t23 32.5t23.5 22t30 19.5t34.5 9t44.5 5l-14 -79q-19 0 -34 -6.5t-29.5 -25.5t-21 -30.5l-23.5 -43.5z" />
    <glyph glyph-name="afii10196" unicode="&#x475;" horiz-adv-x="499" 
d="M229 0h-85l-105 484h91l76 -383l150 272q39 71 67.5 95.5t87.5 24.5l-12 -70q-8 0 -14.5 -2t-13 -7t-10.5 -8.5t-10.5 -13.5t-9 -14.5l-10.5 -19t-11 -19.5z" />
    <glyph glyph-name="afii10050" unicode="&#x490;" horiz-adv-x="532" 
d="M556 587h-339l-104 -587h-89l118 667h344l18 99h83z" />
    <glyph glyph-name="afii10098" unicode="&#x491;" horiz-adv-x="445" 
d="M441 411h-274l-72 -411h-85l85 484h279l17 97h80z" />
    <glyph glyph-name="Wgrave" unicode="&#x1e80;" horiz-adv-x="884" 
d="M905 667l-281 -667h-94l-48 550l-245 -550h-96l-44 667h87l29 -540l240 540h95l49 -540l222 540h86zM596 736h-88l-110 126h88z" />
    <glyph glyph-name="wgrave" unicode="&#x1e81;" horiz-adv-x="711" 
d="M716 484l-224 -484h-90l-41 386l-178 -386h-87l-53 484h81l34 -380l176 380h85l42 -380l167 380h88zM474 541h-88l-110 126h88z" />
    <glyph glyph-name="Wacute" unicode="&#x1e82;" horiz-adv-x="884" 
d="M905 667l-281 -667h-94l-48 550l-245 -550h-96l-44 667h87l29 -540l240 540h95l49 -540l222 540h86zM684 862l-155 -126h-104l156 126h103z" />
    <glyph glyph-name="wacute" unicode="&#x1e83;" horiz-adv-x="711" 
d="M716 484l-224 -484h-90l-41 386l-178 -386h-87l-53 484h81l34 -380l176 380h85l42 -380l167 380h88zM590 667l-155 -126h-104l156 126h103z" />
    <glyph glyph-name="Wdieresis" unicode="&#x1e84;" horiz-adv-x="884" 
d="M905 667l-281 -667h-94l-48 550l-245 -550h-96l-44 667h87l29 -540l240 540h95l49 -540l222 540h86zM685 827q0 -28 -15.5 -44.5t-43.5 -16.5q-40 0 -40 35q0 29 14.5 45.5t42.5 16.5q42 0 42 -36zM469 827q0 -28 -15.5 -44.5t-43.5 -16.5q-40 0 -40 35q0 29 14.5 45.5
t42.5 16.5q42 0 42 -36z" />
    <glyph glyph-name="wdieresis" unicode="&#x1e85;" horiz-adv-x="711" 
d="M716 484l-224 -484h-90l-41 386l-178 -386h-87l-53 484h81l34 -380l176 380h85l42 -380l167 380h88zM561 631q0 -28 -15.5 -44.5t-43.5 -16.5q-40 0 -40 35q0 29 14.5 45.5t42.5 16.5q42 0 42 -36zM345 631q0 -28 -15.5 -44.5t-43.5 -16.5q-40 0 -40 35q0 29 14.5 45.5
t42.5 16.5q42 0 42 -36z" />
    <glyph glyph-name="Ygrave" unicode="&#x1ef2;" horiz-adv-x="568" 
d="M625 667l-304 -376l-51 -291h-89l51 291l-171 376h99l128 -297l233 297h104zM431 736h-88l-110 126h88z" />
    <glyph glyph-name="ygrave" unicode="&#x1ef3;" horiz-adv-x="487" 
d="M498 484l-375 -675h-94l111 197l-96 478h88l70 -383l203 383h93zM363 541h-88l-110 126h88z" />
    <glyph glyph-name="figuredash" unicode="&#x2012;" horiz-adv-x="582" 
d="M541 281l-14 -77h-518l14 77h518z" />
    <glyph glyph-name="endash" unicode="&#x2013;" horiz-adv-x="582" 
d="M541 281l-14 -77h-518l14 77h518z" />
    <glyph glyph-name="emdash" unicode="&#x2014;" horiz-adv-x="1003" 
d="M894 281l-14 -77h-805l14 77h805z" />
    <glyph glyph-name="quoteleft" unicode="&#x2018;" horiz-adv-x="225" 
d="M261 624l-21 -16.5t-18.5 -15.5t-12.5 -13t-12.5 -17l-6.5 -19t-7 -27l-17 -93h-79l17 93q8 45 22 72.5t46 52.5l43 35z" />
    <glyph glyph-name="quoteright" unicode="&#x2019;" horiz-adv-x="225" 
d="M214 667l-17 -93q-8 -45 -22 -72.5t-46 -52.5l-43 -35l-46 52l21 16.5t18.5 15.5t12.5 13t12.5 17l6.5 19t7 27l17 93h79z" />
    <glyph glyph-name="quotesinglbase" unicode="&#x201a;" horiz-adv-x="225" 
d="M110 102l-17 -93q-8 -45 -22 -72.5t-46 -52.5l-43 -35l-46 52l21 16.5t18.5 15.5t12.5 13t12.5 17l6.5 19t7 27l17 93h79z" />
    <glyph glyph-name="quotedblleft" unicode="&#x201c;" horiz-adv-x="397" 
d="M433 624l-21 -16.5t-18.5 -15.5t-12.5 -13t-12.5 -17l-6.5 -19t-7 -27l-17 -93h-79l17 93q8 45 22 72.5t46 52.5l43 35zM258 624l-16 -13l-14.5 -12l-11 -9.5t-10 -10.5t-7.5 -11t-7 -14l-4.5 -16t-4.5 -21l-17 -94h-79l17 94q8 46 21 73t44 52l43 34z" />
    <glyph glyph-name="quotedblright" unicode="&#x201d;" horiz-adv-x="397" 
d="M386 667l-17 -94q-8 -46 -21 -73t-44 -52l-43 -34l-46 52l16 13l14.5 12l11 9.5t10 10.5t7.5 11t7 14l4.5 16t4.5 21l17 94h79zM214 667l-17 -93q-8 -45 -22 -72.5t-46 -52.5l-43 -35l-46 52l21 16.5t18.5 15.5t12.5 13t12.5 17l6.5 19t7 27l17 93h79z" />
    <glyph glyph-name="quotedblbase" unicode="&#x201e;" horiz-adv-x="397" 
d="M282 102l-17 -93q-8 -46 -21 -73t-44 -52l-43 -35l-46 52l15 12l13 10.5t10 9t9.5 9.5l7.5 9t6.5 11t4.5 12.5t5 16t4 18.5l17 93h79zM110 102l-17 -93q-8 -45 -22 -72.5t-46 -52.5l-43 -35l-46 52l21 16.5t18.5 15.5t12.5 13t12.5 17l6.5 19t7 27l17 93h79z" />
    <glyph glyph-name="dagger" unicode="&#x2020;" horiz-adv-x="568" 
d="M501 484l-13 -73h-148l-88 -502h-84l89 502h-149l14 73h148l32 183h84l-33 -183h148z" />
    <glyph glyph-name="daggerdbl" unicode="&#x2021;" horiz-adv-x="568" 
d="M501 484l-13 -73h-148l-26 -142h148l-13 -73h-147l-50 -287h-84l51 287h-149l13 73h148l26 142h-149l14 73h148l32 183h84l-33 -183h148z" />
    <glyph glyph-name="bullet" unicode="&#x2022;" horiz-adv-x="497" 
d="M360 370q0 -66 -32 -104.5t-97 -38.5q-48 0 -70.5 18t-22.5 57q0 66 32 103t98 37q92 0 92 -72z" />
    <glyph glyph-name="ellipsis" unicode="&#x2026;" horiz-adv-x="992" 
d="M844 64q0 -31 -17.5 -51.5t-48.5 -20.5q-46 0 -46 41q0 31 17 50t48 19q47 0 47 -38zM514 64q0 -31 -17.5 -51.5t-48.5 -20.5q-46 0 -46 41q0 31 17 50t48 19q47 0 47 -38zM184 64q0 -31 -17.5 -51.5t-48.5 -20.5q-46 0 -46 41q0 31 17 50t48 19q47 0 47 -38z" />
    <glyph glyph-name="perthousand" unicode="&#x2030;" horiz-adv-x="1213" 
d="M699 667l-454 -667h-72l454 667h72zM379 567q0 -25 -11.5 -99.5t-25.5 -117.5q-29 -89 -141 -89q-69 0 -96 27.5t-27 78.5q0 25 11.5 99.5t25.5 117.5q29 89 141 89q69 0 96 -27.5t27 -78.5zM313 561q0 28 -11.5 40.5t-49.5 12.5t-56 -18q-21 -21 -40 -128
q-12 -68 -12 -96t11.5 -40.5t50.5 -12.5t57 19q20 21 39 128q11 66 11 95zM793 300q0 -25 -11.5 -99.5t-25.5 -117.5q-29 -89 -141 -89q-69 0 -96 27.5t-27 78.5q0 25 11.5 99.5t25.5 117.5q29 89 141 89q69 0 96 -27.5t27 -78.5zM727 294q0 28 -11.5 40.5t-49.5 12.5
t-56 -18q-21 -21 -40 -128q-12 -68 -12 -96t11.5 -40.5t50.5 -12.5t57 19q20 21 39 128q11 66 11 95zM1128 300q0 -25 -11.5 -99.5t-25.5 -117.5q-29 -89 -141 -89q-69 0 -96 27.5t-27 78.5q0 25 11.5 99.5t25.5 117.5q29 89 141 89q69 0 96 -27.5t27 -78.5zM1062 294
q0 28 -11.5 40.5t-49.5 12.5t-56 -18q-21 -21 -40 -128q-12 -68 -12 -96t11.5 -40.5t50.5 -12.5t57 19q20 21 39 128q11 66 11 95z" />
    <glyph glyph-name="guilsinglleft" unicode="&#x2039;" horiz-adv-x="275" 
d="M251 392q-4 -3 -41 -34t-52.5 -46t-33.5 -43t-18 -51q0 -18 10 -39t17 -31.5t29.5 -37t23.5 -27.5l-58 -48q-2 3 -14.5 17l-16.5 18.5t-15 18t-15.5 20l-13 19.5t-12.5 22t-8.5 21t-6.5 23t-2 23q0 69 81 148q21 21 96 85z" />
    <glyph glyph-name="guilsinglright" unicode="&#x203a;" horiz-adv-x="275" 
d="M251 268q0 -69 -81 -148q-21 -21 -96 -85l-50 58q4 3 41 34t52.5 46t33.5 43t18 51q0 18 -10 39t-17 31.5t-29.5 37t-23.5 27.5l58 48q2 -3 14.5 -17l16.5 -18.5t15 -18t15.5 -20l13 -19.5t12.5 -22t8.5 -21t6.5 -23t2 -23z" />
    <glyph glyph-name="fraction" unicode="&#x2044;" horiz-adv-x="58" 
d="M292 667l-454 -667h-72l454 667h72z" />
    <glyph glyph-name="zerosuperior" unicode="&#x2070;" 
d="M379 567q0 -25 -11.5 -99.5t-25.5 -117.5q-29 -89 -141 -89q-69 0 -96 27.5t-27 78.5q0 25 11.5 99.5t25.5 117.5q29 89 141 89q69 0 96 -27.5t27 -78.5zM313 561q0 28 -11.5 40.5t-49.5 12.5t-56 -18q-21 -21 -40 -128q-12 -68 -12 -96t11.5 -40.5t50.5 -12.5t57 19
q20 21 39 128q11 66 11 95z" />
    <glyph glyph-name="foursuperior" unicode="&#x2074;" 
d="M365 418l-10 -53h-60l-18 -98h-61l18 98h-184l10 50l230 252h59l-45 -249h61zM273 579l-147 -161h117z" />
    <glyph glyph-name="fivesuperior" unicode="&#x2075;" 
d="M72 362h61q-1 -6 -1 -13q0 -32 60 -32q48 0 68 19q13 13 20.5 42t7.5 53t-11 34.5t-43 10.5q-73 0 -83 -45h-59l42 236h244l-10 -55h-184l-19 -101q23 21 81 21q61 0 84 -25t23 -76q0 -36 -13 -75.5t-36 -62.5q-32 -32 -120 -32q-115 0 -115 78q0 14 3 23z" />
    <glyph glyph-name="sixsuperior" unicode="&#x2076;" 
d="M371 591q0 -12 -2 -19h-64q1 5 1 12q0 33 -52 33q-50 0 -64.5 -19t-31.5 -93q23 27 84 27q56 0 82 -22t26 -76q0 -32 -12 -74t-34 -64q-34 -35 -116 -35q-54 0 -86 24t-32 74q0 76 41 223q13 47 47.5 69t95.5 22q49 0 83 -19.5t34 -62.5zM285 431q0 23 -10 34t-43 11
q-48 0 -70 -22q-27 -27 -27 -86q0 -27 12.5 -39t44.5 -12q46 0 66 20q14 14 20.5 44t6.5 50z" />
    <glyph glyph-name="sevensuperior" unicode="&#x2077;" 
d="M403 667l-12 -51l-229 -349h-72l230 344h-195l14 56h264z" />
    <glyph glyph-name="eightsuperior" unicode="&#x2078;" 
d="M354 409q0 -30 -10 -63t-29 -52q-33 -33 -119 -33q-126 0 -126 90q0 71 38 106q13 12 38 20q-38 10 -38 60q0 22 5 42q12 53 47 73.5t97 20.5q125 0 125 -82q0 -65 -30 -95q-16 -16 -40 -19q42 -12 42 -68zM314 581q0 36 -58 36q-35 0 -53 -8.5t-24 -34.5q-5 -22 -5 -31
q0 -21 14.5 -29.5t45.5 -9.5q43 0 60 17q20 20 20 60zM291 404q0 48 -67 48q-48 0 -67 -19q-24 -24 -24 -72q0 -24 16 -34t52 -10q48 0 67 19q23 23 23 68z" />
    <glyph glyph-name="ninesuperior" unicode="&#x2079;" 
d="M79 343q0 12 2 19h64q-1 -5 -1 -12q0 -33 52 -33q50 0 64.5 19t31.5 93q-23 -27 -84 -27q-56 0 -82 22t-26 76q0 32 12 74t34 64q34 35 116 35q54 0 86 -24t32 -74q0 -76 -41 -223q-13 -47 -47.5 -69t-95.5 -22q-49 0 -83 19.5t-34 62.5zM165 503q0 -23 10 -34t43 -11
q48 0 70 22q27 27 27 86q0 27 -12.5 39t-44.5 12q-46 0 -66 -20q-14 -14 -20.5 -44t-6.5 -50z" />
    <glyph glyph-name="parenleftsuperior" unicode="&#x207d;" horiz-adv-x="226" 
d="M84 463q24 152 44 199q31 71 103 86q26 6 61 6l-12 -60q-66 0 -92 -53q-17 -35 -38 -161q-2 -12 -3 -19q-21 -124 -21 -156q0 -41 18.5 -56.5t65.5 -15.5l-12 -60q-74 0 -103.5 29.5t-29.5 94.5q0 49 19 166z" />
    <glyph glyph-name="parenrightsuperior" unicode="&#x207e;" horiz-adv-x="226" 
d="M187 464q-24 -152 -44 -199q-31 -71 -103 -86q-26 -6 -61 -6l12 60q66 0 92 53q17 35 38 161q2 12 3 19q21 124 21 156q0 40 -18.5 56t-65.5 16l12 60q74 0 103.5 -29.5t29.5 -94.5q0 -49 -19 -166z" />
    <glyph glyph-name="zeroinferior" unicode="&#x2080;" 
d="M325 300q0 -25 -11.5 -99.5t-25.5 -117.5q-29 -89 -141 -89q-69 0 -96 27.5t-27 78.5q0 25 11.5 99.5t25.5 117.5q29 89 141 89q69 0 96 -27.5t27 -78.5zM259 294q0 28 -11.5 40.5t-49.5 12.5t-56 -18q-21 -21 -40 -128q-12 -68 -12 -96t11.5 -40.5t50.5 -12.5t57 19
q20 21 39 128q11 66 11 95z" />
    <glyph glyph-name="oneinferior" unicode="&#x2081;" 
d="M291 56l-11 -56h-244l11 56h89l45 255l-63 -49l-36 42l127 96h51l-61 -344h92z" />
    <glyph glyph-name="twoinferior" unicode="&#x2082;" 
d="M339 310q0 -65 -31 -97q-26 -28 -111 -50q-6 -2 -20 -5.5t-19.5 -5t-16 -5t-15.5 -6t-12 -8t-10.5 -11t-7 -14t-5.5 -18.5l-6 -34h210l-10 -56h-273l17 96q4 20 10.5 36t18 28t20 19.5t25.5 14l23.5 9t25.5 7t22 5.5q63 17 81.5 31.5t18.5 59.5q0 22 -12.5 33t-51.5 11
q-41 0 -59.5 -11t-23.5 -40h-61q10 57 45 82t99 25t96.5 -20.5t32.5 -75.5z" />
    <glyph glyph-name="threeinferior" unicode="&#x2083;" 
d="M339 319q0 -41 -14 -72.5t-43 -38.5q31 -14 31 -70q0 -21 -9 -54.5t-30 -54.5q-35 -35 -115 -35q-136 0 -136 85q0 6 2 22h62q-1 -4 -1 -12q0 -17 11 -26t23.5 -11t33.5 -2q54 0 73 19q21 22 21 69q0 25 -17 34.5t-58 9.5h-50l10 55h50q23 0 33.5 1t27 7.5t23.5 23
t7 43.5q0 38 -66 38q-43 -1 -61 -11.5t-23 -39.5h-62q11 60 47 83.5t100 23.5q63 0 96.5 -19t33.5 -68z" />
    <glyph glyph-name="fourinferior" unicode="&#x2084;" 
d="M315 151l-10 -53h-60l-18 -98h-61l18 98h-184l10 50l230 252h59l-45 -249h61zM223 312l-147 -161h117z" />
    <glyph glyph-name="fiveinferior" unicode="&#x2085;" 
d="M34 95h61q-1 -6 -1 -13q0 -32 60 -32q48 0 68 19q13 13 20.5 42t7.5 53t-11 34.5t-43 10.5q-73 0 -83 -45h-59l42 236h244l-10 -55h-184l-19 -101q23 21 81 21q61 0 84 -25t23 -76q0 -36 -13 -75.5t-36 -62.5q-32 -32 -120 -32q-115 0 -115 78q0 14 3 23z" />
    <glyph glyph-name="sixinferior" unicode="&#x2086;" 
d="M326 324q0 -12 -2 -19h-64q1 5 1 12q0 33 -52 33q-50 0 -64.5 -19t-31.5 -93q23 27 84 27q56 0 82 -22t26 -76q0 -32 -12 -74t-34 -64q-34 -35 -116 -35q-54 0 -86 24t-32 74q0 76 41 223q13 47 47.5 69t95.5 22q49 0 83 -19.5t34 -62.5zM240 164q0 23 -10 34t-43 11
q-48 0 -70 -22q-27 -27 -27 -86q0 -27 12.5 -39t44.5 -12q46 0 66 20q14 14 20.5 44t6.5 50z" />
    <glyph glyph-name="seveninferior" unicode="&#x2087;" 
d="M350 400l-12 -51l-229 -349h-72l230 344h-195l14 56h264z" />
    <glyph glyph-name="eightinferior" unicode="&#x2088;" 
d="M301 142q0 -30 -10 -63t-29 -52q-33 -33 -119 -33q-126 0 -126 90q0 71 38 106q13 12 38 20q-38 10 -38 60q0 22 5 42q12 53 47 73.5t97 20.5q125 0 125 -82q0 -65 -30 -95q-16 -16 -40 -19q42 -12 42 -68zM261 314q0 36 -58 36q-35 0 -53 -8.5t-24 -34.5q-5 -22 -5 -31
q0 -21 14.5 -29.5t45.5 -9.5q43 0 60 17q20 20 20 60zM238 137q0 48 -67 48q-48 0 -67 -19q-24 -24 -24 -72q0 -24 16 -34t52 -10q48 0 67 19q23 23 23 68z" />
    <glyph glyph-name="nineinferior" unicode="&#x2089;" 
d="M30 76q0 12 2 19h64q-1 -5 -1 -12q0 -33 52 -33q50 0 64.5 19t31.5 93q-23 -27 -84 -27q-56 0 -82 22t-26 76q0 32 12 74t34 64q34 35 116 35q54 0 86 -24t32 -74q0 -76 -41 -223q-14 -47 -48 -69t-95 -22q-49 0 -83 19.5t-34 62.5zM116 236q0 -23 10 -34t43 -11
q48 0 70 22q27 27 27 86q0 27 -12.5 39t-44.5 12q-46 0 -66 -20q-14 -14 -20.5 -44t-6.5 -50z" />
    <glyph glyph-name="parenleftinferior" unicode="&#x208d;" horiz-adv-x="226" 
d="M32 196q24 152 44 199q31 71 103 86q26 6 61 6l-12 -60q-66 0 -92 -53q-17 -35 -38 -161q-2 -12 -3 -19q-21 -124 -21 -156q0 -40 18.5 -56t65.5 -16l-12 -60q-74 0 -103.5 29.5t-29.5 94.5q0 49 19 166z" />
    <glyph glyph-name="parenrightinferior" unicode="&#x208e;" horiz-adv-x="226" 
d="M143 197q-24 -152 -44 -199q-31 -71 -103 -86q-26 -6 -61 -6l12 60q66 0 92 53q17 35 38 161q2 12 3 19q21 124 21 156q0 41 -18.5 56.5t-65.5 15.5l12 60q74 0 103.5 -29.5t29.5 -94.5q0 -49 -19 -166z" />
    <glyph glyph-name="franc" unicode="&#x20a3;" horiz-adv-x="947" 
d="M570 667l-14 -80h-340l-37 -205h332l-14 -80h-332l-53 -302h-88l118 667h428zM938 247h-83q2 10 2 19q0 26 -18.5 36.5t-59.5 10.5q-66 0 -103 -52q-27 -38 -43 -124l-24 -137h-85l67 382h78l-9 -47q52 55 136 55q144 0 144 -113q0 -19 -2 -30z" />
    <glyph glyph-name="lira" unicode="&#x20a4;" horiz-adv-x="577" 
d="M474 278l-13 -72h-285l-22 -128h338l-13 -78h-485l13 78h61l22 128h-61l13 72h61l4 21q2 17 6 36h-61l13 72h61q4 25 7 38q7 40 13 64.5t17.5 54.5t28 47t41 33t60.5 23t84 7q186 0 186 -114q0 -20 -3 -45h-83q2 9 2 24q0 35 -25 46t-78 11q-85 0 -113.5 -31.5
t-44.5 -122.5l-6 -35h285l-13 -72h-285l-6 -36l-4 -21h285z" />
    <glyph glyph-name="peseta" unicode="&#x20a7;" horiz-adv-x="1603" 
d="M1057 484l-13 -73h-214l-44 -249q-5 -22 -5 -39q0 -31 18 -44.5t59 -13.5q46 0 69 17.5t30 58.5h79q-14 -80 -60 -114.5t-123 -34.5q-74 0 -116 29t-42 87q0 15 3 35l47 268h-80l13 73h80l33 183h85l-33 -183h214zM1557 377q0 -16 -3 -34h-79q0 1 1 8t1 13q0 19 -9 31
t-26.5 17t-33 6.5t-38.5 1.5q-31 0 -50.5 -2.5t-41 -10.5t-32 -26.5t-10.5 -48.5q0 -34 28 -42q13 -4 77 -7q31 -1 43.5 -2t39.5 -4.5t39 -10t27.5 -17.5t22 -28.5t6.5 -41.5q0 -89 -46 -136q-49 -51 -183 -51q-188 0 -188 113q0 23 3 36h79q-2 -10 -2 -21q0 -32 26.5 -44
t84.5 -12q31 0 52.5 3t43 12t32.5 28.5t11 50.5q0 11 -2.5 19t-10.5 13t-14 8t-22.5 5t-27 2.5t-35.5 1.5q-32 1 -51 2.5t-45 8t-40.5 16.5t-25 29.5t-10.5 46.5q0 89 49 137q46 45 180 45q180 0 180 -115zM623 524q0 -49 -17 -102.5t-49 -85.5q-35 -35 -84.5 -44t-134.5 -9
h-155l-50 -283h-89l118 667h192h29.5h29.5t27 -0.5t27.5 -1t24 -2t24 -4l21 -6t21 -8t17.5 -10.5t16 -13q32 -32 32 -98zM531 513q0 21 -6.5 35.5t-15.5 22t-28 11.5t-33.5 4.5t-43.5 0.5h-167l-39 -224h140h25h26t22.5 1t24.5 3l19.5 5t20 8.5t16.5 13.5q39 39 39 119z" />
    <glyph glyph-name="Euro" unicode="&#x20ac;" horiz-adv-x="578" 
d="M563 546q0 -14 -3 -31h-86q2 13 2 20q0 36 -26 48.5t-79 12.5q-100 0 -133 -63q-13 -23 -29 -98h180l-12 -72h-182l-10 -57h182l-13 -72h-179q-8 -46 -8 -73q0 -52 29.5 -71t86.5 -19q61 0 93.5 16t40.5 65h86q-16 -90 -73 -124.5t-150 -34.5q-116 0 -163 49
q-36 37 -36 117q0 24 7 75h-59l13 72h56l10 57h-57l13 72h56q23 118 64 168q57 71 189 71q190 0 190 -128z" />
    <glyph glyph-name="afii61289" unicode="&#x2113;" horiz-adv-x="500" 
d="M249 269q-33 -171 -33 -208q0 -25 18 -25q26 0 51 54q8 18 19 18q13 0 13 -15q0 -23 -26 -60q-37 -47 -76 -47q-31 0 -49 23.5t-18 64.5q0 36 10 127q-41 -38 -49 -38q-5 0 -9.5 5t-4.5 11q0 10 20 27q23 20 50 52q41 216 89 318t108 102q29 0 46 -22t17 -59
q0 -87 -64 -192q-36 -58 -112 -136zM260 333q125 140 125 260q0 44 -23 44q-11 0 -22.5 -12.5t-18.5 -31.5q-31 -86 -61 -260z" />
    <glyph glyph-name="afii61352" unicode="&#x2116;" horiz-adv-x="1051" 
d="M920 0h-305l12 70h305zM629 667l-118 -667h-91l-216 529l-94 -529h-86l118 667h91l217 -526l93 526h86zM989 380q0 -49 -16 -108.5t-42 -86.5q-38 -42 -135 -42q-79 0 -112.5 28t-33.5 87q0 48 15.5 107.5t41.5 86.5q40 41 132 41q80 0 115 -26.5t35 -86.5zM916 369
q0 33 -18 45.5t-61 12.5q-57 0 -79 -25q-16 -16 -25.5 -58.5t-9.5 -75.5q0 -31 17 -44.5t60 -13.5q57 0 79 24q17 18 27 59.5t10 75.5z" />
    <glyph glyph-name="trademark" unicode="&#x2122;" horiz-adv-x="846" 
d="M848 667l-76 -434h-61l57 320l-175 -320h-64l-60 319l-55 -319h-61l76 434h76l69 -351l193 351h81zM395 667l-10 -57h-127l-66 -377h-65l66 377h-128l10 57h320z" />
    <glyph glyph-name="uni2126" unicode="&#x2126;" horiz-adv-x="674" 
d="M602 334q0 -76 -2 -112.5t-16.5 -79t-44.5 -63.5h63v-79h-231v75q83 6 114 51q16 24 22 61.5t6 146.5q0 95 -6 138t-23 69q-18 28 -52 40t-96 12q-115 0 -148 -53q-17 -26 -22.5 -68t-5.5 -138q0 -109 6.5 -146t22.5 -62q30 -46 113 -51v-75h-230v79h63
q-23 16 -36.5 39.5t-19 63t-6.5 66.5t-1 86q0 146 15 200q26 95 121 124q52 16 128 16q44 0 79 -5.5t61.5 -13.5t46.5 -25t33 -31t22 -41t14 -45.5t7 -55t2.5 -58.5t0.5 -65z" />
    <glyph glyph-name="estimated" unicode="&#x212e;" horiz-adv-x="798" 
d="M769 311h-599q-6 0 -6 -4v-181q0 -10 9 -21q93 -98 227 -98q70 0 131.5 29.5t106.5 80.5h54q-51 -60 -128.5 -95t-164.5 -35q-153 0 -261.5 97.5t-108.5 235.5q0 137 108.5 234.5t261.5 97.5t261.5 -97.5t108.5 -234.5v-9zM634 335v181q0 12 -10 22q-92 94 -224 94
t-226 -97q-10 -10 -10 -23v-177q0 -5 6 -5h459q5 0 5 5z" />
    <glyph glyph-name="onethird" unicode="&#x2153;" horiz-adv-x="878" 
d="M331 323l-11 -56h-244l11 56h89l45 255l-63 -49l-36 42l127 96h51l-61 -344h92zM699 667l-454 -667h-72l454 667h72zM807 319q0 -41 -14 -72.5t-43 -38.5q31 -14 31 -70q0 -21 -9 -54.5t-30 -54.5q-35 -35 -115 -35q-136 0 -136 85q0 6 2 22h62q-1 -4 -1 -12
q0 -17 11 -26t23.5 -11t33.5 -2q54 0 73 19q21 23 21 69q0 25 -17 34.5t-58 9.5h-50l10 55h50q23 0 33.5 1t27 7.5t23.5 23t7 43.5q0 38 -66 38q-43 -1 -61 -11.5t-23 -39.5h-62q11 60 47 83.5t100 23.5q63 0 96.5 -19t33.5 -68z" />
    <glyph glyph-name="twothirds" unicode="&#x2154;" horiz-adv-x="878" 
d="M387 577q0 -65 -31 -97q-26 -28 -111 -50q-6 -2 -20 -5.5t-19.5 -5t-16 -5t-15.5 -6t-12 -8t-10.5 -11t-7 -14t-5.5 -18.5l-6 -34h210l-10 -56h-273l17 96q4 20 10.5 36t18 28t20 19.5t25.5 14l23.5 9t25.5 7t22 5.5q63 17 81.5 31.5t18.5 59.5q0 22 -12.5 33t-51.5 11
q-41 0 -59.5 -11t-23.5 -40h-61q10 57 45 82t99 25t96.5 -20.5t32.5 -75.5zM699 667l-454 -667h-72l454 667h72zM807 319q0 -41 -14 -72.5t-43 -38.5q31 -14 31 -70q0 -21 -9 -54.5t-30 -54.5q-35 -35 -115 -35q-136 0 -136 85q0 6 2 22h62q-1 -4 -1 -12q0 -17 11 -26
t23.5 -11t33.5 -2q54 0 73 19q21 23 21 69q0 25 -17 34.5t-58 9.5h-50l10 55h50q23 0 33.5 1t27 7.5t23.5 23t7 43.5q0 38 -66 38q-43 -1 -61 -11.5t-23 -39.5h-62q11 60 47 83.5t100 23.5q63 0 96.5 -19t33.5 -68z" />
    <glyph glyph-name="oneeighth" unicode="&#x215b;" horiz-adv-x="878" 
d="M331 323l-11 -56h-244l11 56h89l45 255l-63 -49l-36 42l127 96h51l-61 -344h92zM699 667l-454 -667h-72l454 667h72zM769 142q0 -30 -10 -63t-29 -52q-33 -33 -119 -33q-126 0 -126 90q0 71 38 106q13 12 38 20q-38 10 -38 60q0 22 5 42q12 53 47 73.5t97 20.5
q125 0 125 -82q0 -65 -30 -95q-16 -16 -40 -19q42 -12 42 -68zM729 314q0 36 -58 36q-35 0 -53 -8.5t-24 -34.5q-5 -22 -5 -31q0 -21 14.5 -29.5t45.5 -9.5q43 0 60 17q20 20 20 60zM706 137q0 48 -67 48q-48 0 -67 -19q-24 -24 -24 -72q0 -24 16 -34t52 -10q48 0 67 19
q23 23 23 68z" />
    <glyph glyph-name="threeeighths" unicode="&#x215c;" horiz-adv-x="878" 
d="M380 586q0 -41 -14 -72.5t-43 -38.5q31 -14 31 -70q0 -21 -9 -54.5t-30 -54.5q-35 -35 -115 -35q-136 0 -136 85q0 6 2 22h62q-1 -4 -1 -12q0 -17 11 -26t23.5 -11t33.5 -2q54 0 73 19q21 22 21 69q0 25 -17 34.5t-58 9.5h-50l10 55h50q23 0 33.5 1t27 7.5t23.5 23
t7 43.5q0 38 -66 38q-43 -1 -61 -11.5t-23 -39.5h-62q11 60 47 83.5t100 23.5q63 0 96.5 -19t33.5 -68zM699 667l-454 -667h-72l454 667h72zM769 142q0 -30 -10 -63t-29 -52q-33 -33 -119 -33q-126 0 -126 90q0 71 38 106q13 12 38 20q-38 10 -38 60q0 22 5 42
q12 53 47 73.5t97 20.5q125 0 125 -82q0 -65 -30 -95q-16 -16 -40 -19q42 -12 42 -68zM729 314q0 36 -58 36q-35 0 -53 -8.5t-24 -34.5q-5 -22 -5 -31q0 -21 14.5 -29.5t45.5 -9.5q43 0 60 17q20 20 20 60zM706 137q0 48 -67 48q-48 0 -67 -19q-24 -24 -24 -72q0 -24 16 -34
t52 -10q48 0 67 19q23 23 23 68z" />
    <glyph glyph-name="fiveeighths" unicode="&#x215d;" horiz-adv-x="878" 
d="M72 362h61q-1 -6 -1 -13q0 -32 60 -32q48 0 68 19q13 13 20.5 42t7.5 53t-11 34.5t-43 10.5q-73 0 -83 -45h-59l42 236h244l-10 -55h-184l-19 -101q23 21 81 21q61 0 84 -25t23 -76q0 -36 -13 -75.5t-36 -62.5q-32 -32 -120 -32q-115 0 -115 78q0 14 3 23zM699 667
l-454 -667h-72l454 667h72zM769 142q0 -30 -10 -63t-29 -52q-33 -33 -119 -33q-126 0 -126 90q0 71 38 106q13 12 38 20q-38 10 -38 60q0 22 5 42q12 53 47 73.5t97 20.5q125 0 125 -82q0 -65 -30 -95q-16 -16 -40 -19q42 -12 42 -68zM729 314q0 36 -58 36q-35 0 -53 -8.5
t-24 -34.5q-5 -22 -5 -31q0 -21 14.5 -29.5t45.5 -9.5q43 0 60 17q20 20 20 60zM706 137q0 48 -67 48q-48 0 -67 -19q-24 -24 -24 -72q0 -24 16 -34t52 -10q48 0 67 19q23 23 23 68z" />
    <glyph glyph-name="seveneighths" unicode="&#x215e;" horiz-adv-x="878" 
d="M403 667l-12 -51l-229 -349h-72l230 344h-195l14 56h264zM699 667l-454 -667h-72l454 667h72zM769 142q0 -30 -10 -63t-29 -52q-33 -33 -119 -33q-126 0 -126 90q0 71 38 106q13 12 38 20q-38 10 -38 60q0 22 5 42q12 53 47 73.5t97 20.5q125 0 125 -82q0 -65 -30 -95
q-16 -16 -40 -19q42 -12 42 -68zM729 314q0 36 -58 36q-35 0 -53 -8.5t-24 -34.5q-5 -22 -5 -31q0 -21 14.5 -29.5t45.5 -9.5q43 0 60 17q20 20 20 60zM706 137q0 48 -67 48q-48 0 -67 -19q-24 -24 -24 -72q0 -24 16 -34t52 -10q48 0 67 19q23 23 23 68z" />
    <glyph glyph-name="arrowleft" unicode="&#x2190;" horiz-adv-x="721" 
d="M689 289h-505l240 -235l-58 -58l-335 333l334 334l58 -57l-239 -235h505v-82z" />
    <glyph glyph-name="arrowup" unicode="&#x2191;" horiz-adv-x="726" 
d="M697 323l-58 -58l-235 240v-505h-82v505l-235 -240l-58 58l334 335z" />
    <glyph glyph-name="arrowright" unicode="&#x2192;" horiz-adv-x="720" 
d="M689 329l-334 -333l-58 58l240 235h-505v82h505l-240 235l58 57z" />
    <glyph glyph-name="arrowdown" unicode="&#x2193;" horiz-adv-x="725" 
d="M697 335l-334 -335l-334 334l58 58l235 -239v505h82v-505l235 240z" />
    <glyph glyph-name="uni2196" unicode="&#x2196;" horiz-adv-x="710" 
d="M602 232l-58 -58l-358 357l3 -336h-81v472h472v-81l-336 3z" />
    <glyph glyph-name="uni2197" unicode="&#x2197;" horiz-adv-x="710" 
d="M602 195h-81l3 336l-358 -357l-58 58l358 357l-336 -3v81h472v-472z" />
    <glyph glyph-name="uni2198" unicode="&#x2198;" horiz-adv-x="710" 
d="M602 0h-471v81l336 -3l-359 358l59 58l357 -358l-3 337h81v-473z" />
    <glyph glyph-name="uni2199" unicode="&#x2199;" horiz-adv-x="710" 
d="M602 436l-358 -358l336 3v-81h-472v473h81l-3 -337l358 358z" />
    <glyph glyph-name="partialdiff" unicode="&#x2202;" horiz-adv-x="551" 
d="M330 483l-159 189l66 51l203 -246q28 -35 39 -68t11 -80q0 -73 -22.5 -159t-63.5 -125q-54 -53 -178 -53q-108 0 -153 37.5t-45 118.5q0 75 24 160.5t67 125.5q57 52 172 52q24 0 39 -3zM402 314q0 55 -25.5 76t-90.5 21q-63 0 -95 -22q-39 -26 -58.5 -97t-19.5 -135
q0 -47 25 -67t89 -20q70 0 105 26t52.5 92.5t17.5 125.5z" />
    <glyph glyph-name="uni2206" unicode="&#x2206;" horiz-adv-x="633" 
d="M618 0h-604l258 667h89zM495 80l-180 480l-179 -480h359z" />
    <glyph glyph-name="product" unicode="&#x220f;" horiz-adv-x="668" 
d="M579 0h-88v587h-312v-587h-89v587h-76v80h641v-80h-76v-587z" />
    <glyph glyph-name="summation" unicode="&#x2211;" horiz-adv-x="576" 
d="M155 587l230 -253l-230 -254h379v-80h-488v78l233 256l-233 255v78h488v-80h-379z" />
    <glyph glyph-name="minus" unicode="&#x2212;" horiz-adv-x="582" 
d="M544 204h-506v77h506v-77z" />
    <glyph glyph-name="radical" unicode="&#x221a;" horiz-adv-x="660" 
d="M522 748l-220 -748h-94l-93 303h-115v79h176l78 -278l205 723h298v-79h-235z" />
    <glyph glyph-name="infinity" unicode="&#x221e;" horiz-adv-x="567" 
d="M243 238q-28 37 -45.5 50.5t-45.5 13.5q-27 0 -39.5 -13.5t-12.5 -51.5t13.5 -50.5t38.5 -12.5q22 0 42 15t49 49zM414 302q-28 0 -46.5 -14t-45.5 -49q29 -34 49.5 -49.5t42.5 -15.5q25 0 38.5 12.5t13.5 50.5t-12.5 51.5t-39.5 13.5zM414 113q-66 0 -132 81
q-66 -81 -130 -81q-59 0 -90 26t-31 98q0 71 30.5 98.5t89.5 27.5q44 0 72.5 -17t59.5 -62q32 43 61 61t71 18q56 0 88 -28t32 -98q0 -71 -32.5 -97.5t-88.5 -26.5z" />
    <glyph glyph-name="integral" unicode="&#x222b;" horiz-adv-x="426" 
d="M30 23l95 537q12 65 42 95q49 49 149 49q154 0 154 -91q0 -14 -2 -23h-83l1 11q0 33 -75 33q-51 0 -72 -19t-31 -70l-95 -533q-7 -40 -12 -61t-19.5 -53.5t-34 -49t-55.5 -29.5t-84 -13q-72 0 -113 27.5t-41 77.5q0 7 2 21h82q-1 -2 -1 -11q0 -44 76 -44q47 0 72 25
q18 18 27 45t18 76z" />
    <glyph glyph-name="approxequal" unicode="&#x2248;" horiz-adv-x="582" 
d="M549 353q-40 -35 -83 -62q-85 -55 -164 -5q-63 39 -85 44q-31 7 -62 -12q-47 -31 -74 -53l-48 58q37 34 83 62q86 55 164 5q63 -39 84 -44q31 -7 62 12q47 31 74 53zM549 164q-40 -35 -83 -62q-85 -55 -164 -5q-63 39 -85 44q-31 7 -62 -12q-46 -31 -74 -53l-48 58
q37 34 83 62q86 55 164 5q63 -39 84 -44q31 -7 62 12q47 31 74 53z" />
    <glyph glyph-name="notequal" unicode="&#x2260;" horiz-adv-x="582" 
d="M544 115h-333l-119 -115l-51 51l68 64h-71v75h145l112 108h-257v75h334l116 114l51 -51l-65 -63h70v-75h-145l-111 -108h256v-75z" />
    <glyph glyph-name="lessequal" unicode="&#x2264;" horiz-adv-x="582" 
d="M549 205l-29 -75l-483 181v69l482 181l30 -75l-393 -140zM550 0h-518v77h518v-77z" />
    <glyph glyph-name="greaterequal" unicode="&#x2265;" horiz-adv-x="582" 
d="M545 311l-483 -181l-29 75l393 141l-393 140l30 75l482 -181v-69zM550 0h-518v77h518v-77z" />
    <glyph glyph-name="lozenge" unicode="&#x25ca;" horiz-adv-x="636" 
d="M277 667h78l251 -333l-251 -334h-78l-246 334zM316 576l-179 -242l179 -243l184 243z" />
    <glyph glyph-name="Euro.fitted" unicode="&#xe002;" horiz-adv-x="563" 
d="M556 546q0 -14 -3 -31h-86q2 13 2 20q0 36 -26 48.5t-79 12.5q-100 0 -133 -63q-13 -23 -29 -98h180l-12 -72h-182l-10 -57h182l-13 -72h-179q-8 -46 -8 -73q0 -52 29.5 -71t86.5 -19q61 0 93.5 16t40.5 65h86q-16 -90 -73 -124.5t-150 -34.5q-116 0 -163 49
q-36 37 -36 117q0 24 7 75h-59l13 72h56l10 57h-57l13 72h56q23 118 64 168q57 71 189 71q190 0 190 -128z" />
    <glyph glyph-name="Dotaccent" unicode="&#xefed;" horiz-adv-x="626" 
d="M341 826q0 -28 -15.5 -44.5t-43.5 -16.5q-40 0 -40 35q0 29 14.5 45.5t42.5 16.5q42 0 42 -36z" />
    <glyph glyph-name="Breve" unicode="&#xefee;" horiz-adv-x="428" 
d="M446 867q-13 -73 -47 -100.5t-110 -27.5q-70 0 -101.5 21t-31.5 70q0 18 4 37h63q-3 -18 -3 -31q0 -24 16.5 -31t54.5 -7q45 0 64.5 12.5t27.5 56.5h63z" />
    <glyph glyph-name="Ogonek" unicode="&#xeff1;" horiz-adv-x="428" 
d="M246 36l40 -36q-45 -17 -76 -47t-31 -68q0 -52 69 -52q16 0 40 3l-9 -57q-23 -5 -47 -5q-126 0 -126 99q0 113 140 163z" />
    <glyph glyph-name="Cedilla" unicode="&#xeff2;" horiz-adv-x="646" 
d="M337 -90q0 -50 -26 -76q-23 -23 -69 -23q-76 0 -76 53q0 3 2 17h46q-1 -4 -1 -10q0 -18 33 -18q41 0 41 44q0 23 -32 25l-31 1l17 77h50l-10 -41q27 0 41.5 -13t14.5 -36z" />
    <glyph glyph-name="Tilde" unicode="&#xeff5;" horiz-adv-x="626" 
d="M593 804l-32 -16t-34.5 -16.5t-31 -11.5t-34 -7.5t-31.5 3.5t-33 14q-3 2 -14 10t-14 9.5t-13 5.5t-17 3t-18.5 -4t-25.5 -9l-69 -31l-20 58l31.5 15.5t35 16.5t30.5 10.5t35 7t30 -4.5t33 -14q4 -2 12.5 -8.5t12 -8.5l11 -6t13 -4h14t17.5 3.5l21 8.5l71 34z" />
    <glyph glyph-name="Circumflex" unicode="&#xeff7;" horiz-adv-x="626" 
d="M557 735h-84l-68 77l-93 -77h-97l155 127h76z" />
    <glyph glyph-name="parenleft.dnom" unicode="&#xf62c;" horiz-adv-x="226" 
d="M32 196q24 152 44 199q31 71 103 86q26 6 61 6l-12 -60q-66 0 -92 -53q-17 -35 -38 -161q-2 -12 -3 -19q-21 -124 -21 -156q0 -40 18.5 -56t65.5 -16l-12 -60q-74 0 -103.5 29.5t-29.5 94.5q0 49 19 166z" />
    <glyph glyph-name="parenright.dnom" unicode="&#xf62d;" horiz-adv-x="226" 
d="M143 197q-24 -152 -44 -199q-31 -71 -103 -86q-26 -6 -61 -6l12 60q66 0 92 53q17 35 38 161q2 12 3 19q21 124 21 156q0 41 -18.5 56.5t-65.5 15.5l12 60q74 0 103.5 -29.5t29.5 -94.5q0 -49 -19 -166z" />
    <glyph glyph-name="parenleft.numr" unicode="&#xf631;" horiz-adv-x="226" 
d="M74 463q24 152 44 199q31 71 103 86q26 6 61 6l-12 -60q-66 0 -92 -53q-17 -35 -38 -161q-2 -12 -3 -19q-21 -124 -21 -156q0 -41 18.5 -56.5t65.5 -15.5l-12 -60q-74 0 -103.5 29.5t-29.5 94.5q0 49 19 166z" />
    <glyph glyph-name="parenright.numr" unicode="&#xf632;" horiz-adv-x="226" 
d="M197 464q-24 -152 -44 -199q-31 -71 -103 -86q-26 -6 -61 -6l12 60q66 0 92 53q17 35 38 161q2 12 3 19q21 124 21 156q0 40 -18.5 56t-65.5 16l12 60q74 0 103.5 -29.5t29.5 -94.5q0 -49 -19 -166z" />
    <glyph glyph-name="zero.fitted" unicode="&#xf639;" horiz-adv-x="563" 
d="M524 508q0 -72 -19 -175q-1 -7 -6.5 -39.5t-7.5 -42l-7.5 -37t-9 -38.5l-10.5 -33t-13.5 -34.5t-15.5 -27t-20 -26.5q-60 -63 -180 -63q-114 0 -160 51q-35 37 -35 119q0 59 19 171q2 9 8 45l8 48t8.5 41.5t11.5 43.5l13 35.5t18 36.5t22 28q60 63 181 63q113 0 159 -49
q36 -38 36 -117zM438 506q0 52 -27.5 71t-82.5 19q-57 0 -87 -16.5t-47 -51.5q-20 -40 -47 -195q-21 -119 -21 -172t26.5 -72t83.5 -19q54 0 83.5 15t46.5 45q24 42 52 203q20 113 20 173z" />
    <glyph glyph-name="two.fitted" unicode="&#xf63a;" horiz-adv-x="563" 
d="M530 535q0 -54 -17 -106t-48 -83q-21 -21 -56.5 -37.5t-57 -23t-86.5 -24.5q-82 -23 -107.5 -45t-36.5 -83l-10 -56h341l-14 -77h-428l27 150q15 83 55 120.5t134 64.5q116 35 142 49q74 41 74 138q0 41 -24 57.5t-88 16.5q-128 0 -142 -81h-85q16 89 73.5 124t157.5 35
q97 0 146.5 -32t49.5 -107z" />
    <glyph glyph-name="three.fitted" unicode="&#xf63b;" horiz-adv-x="563" 
d="M523 543q0 -41 -15 -90t-39 -75q-23 -23 -52 -32q58 -22 58 -103q0 -53 -18.5 -110t-52.5 -88q-59 -53 -185 -53q-196 0 -196 132q0 7 3 28h87q-2 -16 -2 -21q0 -34 28 -47.5t90 -13.5q83 0 118 36q19 20 29.5 56.5t10.5 71.5q0 21 -7.5 36t-17 22t-28.5 10.5t-30 4
t-34 0.5h-12h-86l14 78h97q82 0 114 29q18 17 28.5 48.5t10.5 60.5q0 44 -26.5 58.5t-89.5 14.5q-67 0 -101 -18.5t-44 -62.5h-87q16 89 74 124t162 35q101 0 150 -30t49 -101z" />
    <glyph glyph-name="four.fitted" unicode="&#xf63c;" horiz-adv-x="563" 
d="M505 256l-14 -76h-96l-32 -180h-84l32 180h-292l13 72l367 415h82l-73 -411h97zM375 535l-244 -279h193z" />
    <glyph glyph-name="five.fitted" unicode="&#xf63d;" horiz-adv-x="563" 
d="M537 667l-14 -78h-317l-35 -197q16 19 57 30.5t87 11.5q90 0 129 -37.5t39 -108.5q0 -65 -18.5 -135t-54.5 -106q-54 -55 -180 -55q-195 0 -195 123q0 9 4 37h82q-2 -8 -2 -21q0 -34 25.5 -47.5t85.5 -13.5q84 0 118 33q24 23 37.5 74t13.5 94q0 47 -21.5 66t-84.5 19
q-126 0 -141 -74h-82l68 385h399z" />
    <glyph glyph-name="six.fitted" unicode="&#xf63e;" horiz-adv-x="563" 
d="M522 543q0 -13 -3 -28h-84l1 7q1 6 1 10q0 35 -24.5 49.5t-77.5 14.5q-62 0 -99.5 -24t-54.5 -84q-6 -19 -25 -107q51 53 154 53q87 0 131 -36.5t44 -115.5q0 -61 -20 -128t-56 -104q-57 -58 -179 -58q-88 0 -139 38t-51 120q0 76 21.5 192t47.5 189q27 76 80 109.5
t147 33.5q186 0 186 -131zM399 274q0 46 -23.5 64t-77.5 18q-77 0 -123 -44q-48 -48 -48 -147q0 -51 26.5 -73t84.5 -22q77 0 111 34q25 25 37.5 74.5t12.5 95.5z" />
    <glyph glyph-name="seven.fitted" unicode="&#xf63f;" horiz-adv-x="563" 
d="M556 667l-13 -74l-390 -593h-101l391 589h-333l14 78h432z" />
    <glyph glyph-name="eight.fitted" unicode="&#xf640;" horiz-adv-x="563" 
d="M532 543q0 -42 -15 -91.5t-40 -74.5q-23 -23 -51 -31q58 -22 58 -104q0 -152 -93 -212q-58 -38 -162 -38q-198 0 -198 136q0 45 9.5 87.5t36 81t67.5 49.5q-52 16 -52 95q0 121 62 180q54 53 180 53q101 0 149.5 -30t48.5 -101zM445 531q0 40 -28 52.5t-87 12.5
q-81 0 -113 -31q-19 -18 -29 -52t-10 -66q0 -38 26 -51t89 -13q82 0 113 30q19 18 29 52t10 66zM395 234q0 44 -28.5 58t-89.5 14q-83 0 -117 -34q-19 -20 -29.5 -57.5t-10.5 -72.5q0 -41 27 -56t91 -15q84 0 117 33q19 20 29.5 57.5t10.5 72.5z" />
    <glyph glyph-name="nine.fitted" unicode="&#xf641;" horiz-adv-x="563" 
d="M523 516q0 -76 -21.5 -192t-47.5 -189q-27 -76 -80 -109.5t-147 -33.5q-186 0 -186 131q0 13 3 28h84q-2 -8 -2 -18q0 -33 25 -48t77 -15q66 0 101.5 25t52.5 83q5 17 25 107q-69 -53 -154 -53q-87 0 -131 36.5t-44 115.5q0 61 20 128t56 104q57 58 179 58q88 0 139 -38
t51 -120zM436 501q0 51 -26.5 73t-84.5 22q-77 0 -111 -34q-25 -25 -37.5 -74.5t-12.5 -95.5t23.5 -64t77.5 -18q77 0 123 44q48 48 48 147z" />
    <glyph glyph-name="zero.taboldstyle" unicode="&#xf643;" horiz-adv-x="563" 
d="M524 508q0 -72 -19 -175q-1 -7 -6.5 -39.5t-7.5 -42l-7.5 -37t-9 -38.5l-10.5 -33t-13.5 -34.5t-15.5 -27t-20 -26.5q-60 -63 -180 -63q-114 0 -160 51q-35 37 -35 119q0 59 19 171q2 9 8 45l8 48t8.5 41.5t11.5 43.5l13 35.5t18 36.5t22 28q60 63 181 63q113 0 159 -49
q36 -38 36 -117zM438 506q0 52 -27.5 71t-82.5 19q-57 0 -87 -16.5t-47 -51.5q-20 -40 -47 -195q-21 -119 -21 -172t26.5 -72t83.5 -19q54 0 83.5 15t46.5 45q24 42 52 203q20 113 20 173z" />
    <glyph glyph-name="one.taboldstyle" unicode="&#xf644;" horiz-adv-x="563" 
d="M457 76l-14 -76h-402l14 76h158l83 475l-130 -105l-50 61l208 160h78l-104 -591h159z" />
    <glyph glyph-name="two.taboldstyle" unicode="&#xf645;" horiz-adv-x="563" 
d="M530 535q0 -54 -17 -106t-48 -83q-21 -21 -56.5 -37.5t-57 -23t-86.5 -24.5q-82 -23 -107.5 -45t-36.5 -83l-10 -56h341l-14 -77h-428l27 150q15 83 55 120.5t134 64.5q116 35 142 49q74 41 74 138q0 41 -24 57.5t-88 16.5q-128 0 -142 -81h-85q16 89 73.5 124t157.5 35
q97 0 146.5 -32t49.5 -107z" />
    <glyph glyph-name="three.taboldstyle" unicode="&#xf646;" horiz-adv-x="563" 
d="M523 543q0 -41 -15 -90t-39 -75q-23 -23 -52 -32q58 -22 58 -103q0 -53 -18.5 -110t-52.5 -88q-59 -53 -185 -53q-196 0 -196 132q0 7 3 28h87q-2 -16 -2 -21q0 -34 28 -47.5t90 -13.5q83 0 118 36q19 20 29.5 56.5t10.5 71.5q0 21 -7.5 36t-17 22t-28.5 10.5t-30 4
t-34 0.5h-12h-86l14 78h97q82 0 114 29q18 17 28.5 48.5t10.5 60.5q0 44 -26.5 58.5t-89.5 14.5q-67 0 -101 -18.5t-44 -62.5h-87q16 89 74 124t162 35q101 0 150 -30t49 -101z" />
    <glyph glyph-name="four.taboldstyle" unicode="&#xf647;" horiz-adv-x="563" 
d="M505 256l-14 -76h-96l-32 -180h-84l32 180h-292l13 72l367 415h82l-73 -411h97zM375 535l-244 -279h193z" />
    <glyph glyph-name="five.taboldstyle" unicode="&#xf648;" horiz-adv-x="563" 
d="M537 667l-14 -78h-317l-35 -197q16 19 57 30.5t87 11.5q90 0 129 -37.5t39 -108.5q0 -65 -18.5 -135t-54.5 -106q-54 -55 -180 -55q-195 0 -195 123q0 9 4 37h82q-2 -8 -2 -21q0 -34 25.5 -47.5t85.5 -13.5q84 0 118 33q24 23 37.5 74t13.5 94q0 47 -21.5 66t-84.5 19
q-126 0 -141 -74h-82l68 385h399z" />
    <glyph glyph-name="six.taboldstyle" unicode="&#xf649;" horiz-adv-x="563" 
d="M522 543q0 -13 -3 -28h-84l1 7q1 6 1 10q0 35 -24.5 49.5t-77.5 14.5q-62 0 -99.5 -24t-54.5 -84q-6 -19 -25 -107q51 53 154 53q87 0 131 -36.5t44 -115.5q0 -61 -20 -128t-56 -104q-57 -58 -179 -58q-88 0 -139 38t-51 120q0 76 21.5 192t47.5 189q27 76 80 109.5
t147 33.5q186 0 186 -131zM399 274q0 46 -23.5 64t-77.5 18q-77 0 -123 -44q-48 -48 -48 -147q0 -51 26.5 -73t84.5 -22q77 0 111 34q25 25 37.5 74.5t12.5 95.5z" />
    <glyph glyph-name="seven.taboldstyle" unicode="&#xf64a;" horiz-adv-x="563" 
d="M556 667l-13 -74l-390 -593h-101l391 589h-333l14 78h432z" />
    <glyph glyph-name="eight.taboldstyle" unicode="&#xf64b;" horiz-adv-x="563" 
d="M532 543q0 -42 -15 -91.5t-40 -74.5q-23 -23 -51 -31q58 -22 58 -104q0 -152 -93 -212q-58 -38 -162 -38q-198 0 -198 136q0 45 9.5 87.5t36 81t67.5 49.5q-52 16 -52 95q0 121 62 180q54 53 180 53q101 0 149.5 -30t48.5 -101zM445 531q0 40 -28 52.5t-87 12.5
q-81 0 -113 -31q-19 -18 -29 -52t-10 -66q0 -38 26 -51t89 -13q82 0 113 30q19 18 29 52t10 66zM395 234q0 44 -28.5 58t-89.5 14q-83 0 -117 -34q-19 -20 -29.5 -57.5t-10.5 -72.5q0 -41 27 -56t91 -15q84 0 117 33q19 20 29.5 57.5t10.5 72.5z" />
    <glyph glyph-name="nine.taboldstyle" unicode="&#xf64c;" horiz-adv-x="563" 
d="M523 516q0 -76 -21.5 -192t-47.5 -189q-27 -76 -80 -109.5t-147 -33.5q-186 0 -186 131q0 13 3 28h84q-2 -8 -2 -18q0 -33 25 -48t77 -15q66 0 101.5 25t52.5 83q5 17 25 107q-69 -53 -154 -53q-87 0 -131 36.5t-44 115.5q0 61 20 128t56 104q57 58 179 58q88 0 139 -38
t51 -120zM436 501q0 51 -26.5 73t-84.5 22q-77 0 -111 -34q-25 -25 -37.5 -74.5t-12.5 -95.5t23.5 -64t77.5 -18q77 0 123 44q48 48 48 147z" />
    <glyph glyph-name="Euro.taboldstyle" unicode="&#xf64e;" horiz-adv-x="563" 
d="M556 546q0 -14 -3 -31h-86q2 13 2 20q0 36 -26 48.5t-79 12.5q-100 0 -133 -63q-13 -23 -29 -98h180l-12 -72h-182l-10 -57h182l-13 -72h-179q-8 -46 -8 -73q0 -52 29.5 -71t86.5 -19q61 0 93.5 16t40.5 65h86q-16 -90 -73 -124.5t-150 -34.5q-116 0 -163 49
q-36 37 -36 117q0 24 7 75h-59l13 72h56l10 57h-57l13 72h56q23 118 64 168q57 71 189 71q190 0 190 -128z" />
    <glyph glyph-name="florin.taboldstyle" unicode="&#xf64f;" horiz-adv-x="563" 
d="M561 560q0 -11 -4 -45h-82q2 9 2 24q0 35 -25 46t-77 11q-84 0 -113.5 -32t-44.5 -116l-13 -72h285l-14 -77h-285l-86 -490h-86l86 490h-61l14 77h61l14 82q20 118 70.5 167t166.5 49q23 0 39 -1t41 -4t42.5 -11t34.5 -19.5t26 -32t9 -46.5z" />
    <glyph glyph-name="sterling.taboldstyle" unicode="&#xf651;" horiz-adv-x="563" 
d="M556 560q0 -20 -3 -45h-83q2 9 2 24q0 35 -25 46t-78 11q-85 0 -113.5 -31.5t-44.5 -122.5l-12 -66h284l-14 -77h-283l-39 -221h338l-13 -78h-485l13 78h61l39 221h-61l13 77h61l13 69q7 40 13 64.5t17.5 54.5t28 47t41 33t60.5 23t84 7q186 0 186 -114z" />
    <glyph glyph-name="yen.taboldstyle" unicode="&#xf652;" horiz-adv-x="563" 
d="M616 667l-192 -242h77l-13 -72h-122l-45 -56h156l-13 -72h-158l-40 -225h-87l40 225h-158l13 72h155l-24 56h-123l12 72h77l-105 242h96l124 -294l227 294h103z" />
    <glyph glyph-name="dollar.taboldstyle" unicode="&#xf653;" horiz-adv-x="563" 
d="M527 546q0 -14 -3 -31h-85q3 15 3 27q0 26 -18 37t-61 12l-37 -207q85 -8 120.5 -33t35.5 -88q0 -55 -17.5 -118t-49.5 -93q-46 -45 -156 -52l-18 -99h-77l18 99q-67 3 -111 32t-44 91q0 13 3 28h85q-2 -14 -2 -19q0 -29 18.5 -41t63.5 -13l41 231q-75 8 -111 36t-36 95
q0 47 16 97.5t44 78.5q44 44 150 51l17 95h77l-17 -95q63 -4 107 -32.5t44 -88.5zM286 591q-49 -2 -73 -24q-18 -18 -28.5 -50.5t-10.5 -62.5q0 -36 16.5 -49t59.5 -16zM398 246q0 32 -18.5 43t-67.5 15l-40 -226q56 2 82 29q20 20 32 62t12 77z" />
    <glyph glyph-name="cent.taboldstyle" unicode="&#xf654;" horiz-adv-x="563" 
d="M521 373q0 -13 -3 -30h-80q1 7 1 17q0 50 -79 54l-61 -344q91 6 103 71h81q-17 -143 -198 -149l-15 -87h-75l16 89q-82 7 -117.5 46t-35.5 113q0 71 22 156t61 125q52 54 157 58l15 83h75l-15 -85q148 -12 148 -117zM285 413q-48 -3 -79 -33q-27 -27 -44 -96.5
t-17 -123.5q0 -42 17.5 -63.5t61.5 -25.5z" />
    <glyph glyph-name="zero.dnom" unicode="&#xf655;" 
d="M325 300q0 -25 -11.5 -99.5t-25.5 -117.5q-29 -89 -141 -89q-69 0 -96 27.5t-27 78.5q0 25 11.5 99.5t25.5 117.5q29 89 141 89q69 0 96 -27.5t27 -78.5zM259 294q0 28 -11.5 40.5t-49.5 12.5t-56 -18q-21 -21 -40 -128q-12 -68 -12 -96t11.5 -40.5t50.5 -12.5t57 19
q20 21 39 128q11 66 11 95z" />
    <glyph glyph-name="one.dnom" unicode="&#xf656;" 
d="M291 56l-11 -56h-244l11 56h89l45 255l-63 -49l-36 42l127 96h51l-61 -344h92z" />
    <glyph glyph-name="two.dnom" unicode="&#xf657;" 
d="M339 310q0 -65 -31 -97q-26 -28 -111 -50q-6 -2 -20 -5.5t-19.5 -5t-16 -5t-15.5 -6t-12 -8t-10.5 -11t-7 -14t-5.5 -18.5l-6 -34h210l-10 -56h-273l17 96q4 20 10.5 36t18 28t20 19.5t25.5 14l23.5 9t25.5 7t22 5.5q63 17 81.5 31.5t18.5 59.5q0 22 -12.5 33t-51.5 11
q-41 0 -59.5 -11t-23.5 -40h-61q10 57 45 82t99 25t96.5 -20.5t32.5 -75.5z" />
    <glyph glyph-name="three.dnom" unicode="&#xf658;" 
d="M339 319q0 -41 -14 -72.5t-43 -38.5q31 -14 31 -70q0 -21 -9 -54.5t-30 -54.5q-35 -35 -115 -35q-136 0 -136 85q0 6 2 22h62q-1 -4 -1 -12q0 -17 11 -26t23.5 -11t33.5 -2q54 0 73 19q21 22 21 69q0 25 -17 34.5t-58 9.5h-50l10 55h50q23 0 33.5 1t27 7.5t23.5 23
t7 43.5q0 38 -66 38q-43 -1 -61 -11.5t-23 -39.5h-62q11 60 47 83.5t100 23.5q63 0 96.5 -19t33.5 -68z" />
    <glyph glyph-name="four.dnom" unicode="&#xf659;" 
d="M315 151l-10 -53h-60l-18 -98h-61l18 98h-184l10 50l230 252h59l-45 -249h61zM223 312l-147 -161h117z" />
    <glyph glyph-name="five.dnom" unicode="&#xf65a;" 
d="M34 95h61q-1 -6 -1 -13q0 -32 60 -32q48 0 68 19q13 13 20.5 42t7.5 53t-11 34.5t-43 10.5q-73 0 -83 -45h-59l42 236h244l-10 -55h-184l-19 -101q23 21 81 21q61 0 84 -25t23 -76q0 -36 -13 -75.5t-36 -62.5q-32 -32 -120 -32q-115 0 -115 78q0 14 3 23z" />
    <glyph glyph-name="six.dnom" unicode="&#xf65b;" 
d="M326 324q0 -12 -2 -19h-64q1 5 1 12q0 33 -52 33q-50 0 -64.5 -19t-31.5 -93q23 27 84 27q56 0 82 -22t26 -76q0 -32 -12 -74t-34 -64q-34 -35 -116 -35q-54 0 -86 24t-32 74q0 76 41 223q13 47 47.5 69t95.5 22q49 0 83 -19.5t34 -62.5zM240 164q0 23 -10 34t-43 11
q-48 0 -70 -22q-27 -27 -27 -86q0 -27 12.5 -39t44.5 -12q46 0 66 20q14 14 20.5 44t6.5 50z" />
    <glyph glyph-name="seven.dnom" unicode="&#xf65c;" 
d="M350 400l-12 -51l-229 -349h-72l230 344h-195l14 56h264z" />
    <glyph glyph-name="eight.dnom" unicode="&#xf65d;" 
d="M301 142q0 -30 -10 -63t-29 -52q-33 -33 -119 -33q-126 0 -126 90q0 71 38 106q13 12 38 20q-38 10 -38 60q0 22 5 42q12 53 47 73.5t97 20.5q125 0 125 -82q0 -65 -30 -95q-16 -16 -40 -19q42 -12 42 -68zM261 314q0 36 -58 36q-35 0 -53 -8.5t-24 -34.5q-5 -22 -5 -31
q0 -21 14.5 -29.5t45.5 -9.5q43 0 60 17q20 20 20 60zM238 137q0 48 -67 48q-48 0 -67 -19q-24 -24 -24 -72q0 -24 16 -34t52 -10q48 0 67 19q23 23 23 68z" />
    <glyph glyph-name="nine.dnom" unicode="&#xf65e;" 
d="M30 76q0 12 2 19h64q-1 -5 -1 -12q0 -33 52 -33q50 0 64.5 19t31.5 93q-23 -27 -84 -27q-56 0 -82 22t-26 76q0 32 12 74t34 64q34 35 116 35q54 0 86 -24t32 -74q0 -76 -41 -223q-14 -47 -48 -69t-95 -22q-49 0 -83 19.5t-34 62.5zM116 236q0 -23 10 -34t43 -11
q48 0 70 22q27 27 27 86q0 27 -12.5 39t-44.5 12q-46 0 -66 -20q-14 -14 -20.5 -44t-6.5 -50z" />
    <glyph glyph-name="zero.numr" unicode="&#xf661;" 
d="M379 567q0 -25 -11.5 -99.5t-25.5 -117.5q-29 -89 -141 -89q-69 0 -96 27.5t-27 78.5q0 25 11.5 99.5t25.5 117.5q29 89 141 89q69 0 96 -27.5t27 -78.5zM313 561q0 28 -11.5 40.5t-49.5 12.5t-56 -18q-21 -21 -40 -128q-12 -68 -12 -96t11.5 -40.5t50.5 -12.5t57 19
q20 21 39 128q11 66 11 95z" />
    <glyph glyph-name="one.numr" unicode="&#xf662;" 
d="M331 323l-11 -56h-244l11 56h89l45 255l-63 -49l-36 42l127 96h51l-61 -344h92z" />
    <glyph glyph-name="two.numr" unicode="&#xf663;" 
d="M387 577q0 -65 -31 -97q-26 -28 -111 -50q-6 -2 -20 -5.5t-19.5 -5t-16 -5t-15.5 -6t-12 -8t-10.5 -11t-7 -14t-5.5 -18.5l-6 -34h210l-10 -56h-273l17 96q4 20 10.5 36t18 28t20 19.5t25.5 14l23.5 9t25.5 7t22 5.5q63 17 81.5 31.5t18.5 59.5q0 22 -12.5 33t-51.5 11
q-41 0 -59.5 -11t-23.5 -40h-61q10 57 45 82t99 25t96.5 -20.5t32.5 -75.5z" />
    <glyph glyph-name="three.numr" unicode="&#xf664;" 
d="M380 586q0 -41 -14 -72.5t-43 -38.5q31 -14 31 -70q0 -21 -9 -54.5t-30 -54.5q-35 -35 -115 -35q-136 0 -136 85q0 6 2 22h62q-1 -4 -1 -12q0 -17 11 -26t23.5 -11t33.5 -2q54 0 73 19q21 22 21 69q0 25 -17 34.5t-58 9.5h-50l10 55h50q23 0 33.5 1t27 7.5t23.5 23
t7 43.5q0 38 -66 38q-43 -1 -61 -11.5t-23 -39.5h-62q11 60 47 83.5t100 23.5q63 0 96.5 -19t33.5 -68z" />
    <glyph glyph-name="four.numr" unicode="&#xf665;" 
d="M365 418l-10 -53h-60l-18 -98h-61l18 98h-184l10 50l230 252h59l-45 -249h61zM273 579l-147 -161h117z" />
    <glyph glyph-name="five.numr" unicode="&#xf666;" 
d="M72 362h61q-1 -6 -1 -13q0 -32 60 -32q48 0 68 19q13 13 20.5 42t7.5 53t-11 34.5t-43 10.5q-73 0 -83 -45h-59l42 236h244l-10 -55h-184l-19 -101q23 21 81 21q61 0 84 -25t23 -76q0 -36 -13 -75.5t-36 -62.5q-32 -32 -120 -32q-115 0 -115 78q0 14 3 23z" />
    <glyph glyph-name="six.numr" unicode="&#xf667;" 
d="M371 591q0 -12 -2 -19h-64q1 5 1 12q0 33 -52 33q-50 0 -64.5 -19t-31.5 -93q23 27 84 27q56 0 82 -22t26 -76q0 -32 -12 -74t-34 -64q-34 -35 -116 -35q-54 0 -86 24t-32 74q0 76 41 223q13 47 47.5 69t95.5 22q49 0 83 -19.5t34 -62.5zM285 431q0 23 -10 34t-43 11
q-48 0 -70 -22q-27 -27 -27 -86q0 -27 12.5 -39t44.5 -12q46 0 66 20q14 14 20.5 44t6.5 50z" />
    <glyph glyph-name="seven.numr" unicode="&#xf668;" 
d="M403 667l-12 -51l-229 -349h-72l230 344h-195l14 56h264z" />
    <glyph glyph-name="eight.numr" unicode="&#xf669;" 
d="M354 409q0 -30 -10 -63t-29 -52q-33 -33 -119 -33q-126 0 -126 90q0 71 38 106q13 12 38 20q-38 10 -38 60q0 22 5 42q12 53 47 73.5t97 20.5q125 0 125 -82q0 -65 -30 -95q-16 -16 -40 -19q42 -12 42 -68zM314 581q0 36 -58 36q-35 0 -53 -8.5t-24 -34.5q-5 -22 -5 -31
q0 -21 14.5 -29.5t45.5 -9.5q43 0 60 17q20 20 20 60zM291 404q0 48 -67 48q-48 0 -67 -19q-24 -24 -24 -72q0 -24 16 -34t52 -10q48 0 67 19q23 23 23 68z" />
    <glyph glyph-name="nine.numr" unicode="&#xf66a;" 
d="M79 343q0 12 2 19h64q-1 -5 -1 -12q0 -33 52 -33q50 0 64.5 19t31.5 93q-23 -27 -84 -27q-56 0 -82 22t-26 76q0 32 12 74t34 64q34 35 116 35q54 0 86 -24t32 -74q0 -76 -41 -223q-13 -47 -47.5 -69t-95.5 -22q-49 0 -83 19.5t-34 62.5zM165 503q0 -23 10 -34t43 -11
q48 0 70 22q27 27 27 86q0 27 -12.5 39t-44.5 12q-46 0 -66 -20q-14 -14 -20.5 -44t-6.5 -50z" />
    <glyph glyph-name="Acute" unicode="&#xf6c9;" horiz-adv-x="626" 
d="M546 862l-155 -126h-104l156 126h103z" />
    <glyph glyph-name="Caron" unicode="&#xf6ca;" horiz-adv-x="626" 
d="M215 862h84l68 -77l93 77h97l-155 -127h-76z" />
    <glyph glyph-name="Dieresis" unicode="&#xf6cb;" horiz-adv-x="626" 
d="M557 826q0 -28 -15.5 -44.5t-43.5 -16.5q-40 0 -40 35q0 29 14.5 45.5t42.5 16.5q42 0 42 -36zM341 826q0 -28 -15.5 -44.5t-43.5 -16.5q-40 0 -40 35q0 29 14.5 45.5t42.5 16.5q42 0 42 -36z" />
    <glyph glyph-name="Grave" unicode="&#xf6ce;" horiz-adv-x="626" 
d="M476 736h-88l-110 126h88z" />
    <glyph glyph-name="Hungarumlaut" unicode="&#xf6cf;" horiz-adv-x="428" 
d="M486 862l-148 -126h-91l146 126h93zM303 862l-148 -126h-92l147 126h93z" />
    <glyph glyph-name="Macron" unicode="&#xf6d0;" horiz-adv-x="428" 
d="M476 853l-11 -65h-344l12 65h343z" />
    <glyph glyph-name="one.fitted" unicode="&#xf6dc;" horiz-adv-x="563" 
d="M457 76l-14 -76h-402l14 76h158l83 475l-130 -105l-50 61l208 160h78l-104 -591h159z" />
    <glyph glyph-name="zerooldstyle" unicode="&#xf730;" horiz-adv-x="567" 
d="M526 508q0 -72 -19 -175q-1 -7 -6.5 -39.5t-7.5 -42l-7.5 -37t-9 -38.5l-10.5 -33t-13.5 -34.5t-15.5 -27t-20 -26.5q-60 -63 -180 -63q-114 0 -160 51q-35 37 -35 119q0 59 19 171q2 9 8 45l8 48t8.5 41.5t11.5 43.5l13 35.5t18 36.5t22 28q60 63 181 63q113 0 159 -49
q36 -38 36 -117zM440 506q0 52 -27.5 71t-82.5 19q-57 0 -87 -16.5t-47 -51.5q-20 -40 -47 -195q-21 -119 -21 -172t26.5 -72t83.5 -19q54 0 83.5 15t46.5 45q24 42 52 203q20 113 20 173z" />
    <glyph glyph-name="oneoldstyle" unicode="&#xf731;" horiz-adv-x="471" 
d="M411 76l-14 -76h-402l14 76h158l83 475l-130 -105l-50 61l208 160h78l-104 -591h159z" />
    <glyph glyph-name="twooldstyle" unicode="&#xf732;" horiz-adv-x="552" 
d="M525 535q0 -54 -17 -106t-48 -83q-21 -21 -56.5 -37.5t-57 -23t-86.5 -24.5q-82 -23 -107.5 -45t-36.5 -83l-10 -56h341l-14 -77h-428l27 150q15 83 55 120.5t134 64.5q116 35 142 49q74 41 74 138q0 41 -24 57.5t-88 16.5q-128 0 -142 -81h-85q16 89 73.5 124t157.5 35
q97 0 146.5 -32t49.5 -107z" />
    <glyph glyph-name="threeoldstyle" unicode="&#xf733;" horiz-adv-x="562" 
d="M522 543q0 -41 -15 -90t-39 -75q-23 -23 -52 -32q58 -22 58 -103q0 -53 -18.5 -110t-52.5 -88q-59 -53 -185 -53q-196 0 -196 132q0 7 3 28h87q-2 -16 -2 -21q0 -34 28 -47.5t90 -13.5q83 0 118 36q19 20 29.5 56.5t10.5 71.5q0 21 -7.5 36t-17 22t-28.5 10.5t-30 4
t-34 0.5h-12h-86l14 78h97q82 0 114 29q18 17 28.5 48.5t10.5 60.5q0 44 -26.5 58.5t-89.5 14.5q-67 0 -101 -18.5t-44 -62.5h-87q16 89 74 124t162 35q101 0 150 -30t49 -101z" />
    <glyph glyph-name="fouroldstyle" unicode="&#xf734;" horiz-adv-x="562" 
d="M504 256l-14 -76h-96l-32 -180h-84l32 180h-292l13 72l367 415h82l-73 -411h97zM374 535l-244 -279h193z" />
    <glyph glyph-name="fiveoldstyle" unicode="&#xf735;" horiz-adv-x="567" 
d="M539 667l-14 -78h-317l-35 -197q16 19 57 30.5t87 11.5q90 0 129 -37.5t39 -108.5q0 -65 -18.5 -135t-54.5 -106q-54 -55 -180 -55q-195 0 -195 123q0 9 4 37h82q-2 -8 -2 -21q0 -34 25.5 -47.5t85.5 -13.5q84 0 118 33q24 23 37.5 74t13.5 94q0 47 -21.5 66t-84.5 19
q-126 0 -141 -74h-82l68 385h399z" />
    <glyph glyph-name="sixoldstyle" unicode="&#xf736;" horiz-adv-x="564" 
d="M523 543q0 -13 -3 -28h-84l1 7q1 6 1 10q0 35 -24.5 49.5t-77.5 14.5q-62 0 -99.5 -24t-54.5 -84q-6 -19 -25 -107q51 53 154 53q87 0 131 -36.5t44 -115.5q0 -61 -20 -128t-56 -104q-57 -58 -179 -58q-88 0 -139 38t-51 120q0 76 21.5 192t47.5 189q27 76 80 109.5
t147 33.5q186 0 186 -131zM400 274q0 46 -23.5 64t-77.5 18q-77 0 -123 -44q-48 -48 -48 -147q0 -51 26.5 -73t84.5 -22q77 0 111 34q25 25 37.5 74.5t12.5 95.5z" />
    <glyph glyph-name="sevenoldstyle" unicode="&#xf737;" horiz-adv-x="470" 
d="M510 667l-13 -74l-390 -593h-101l391 589h-333l14 78h432z" />
    <glyph glyph-name="eightoldstyle" unicode="&#xf738;" horiz-adv-x="575" 
d="M538 543q0 -42 -15 -91.5t-40 -74.5q-23 -23 -51 -31q58 -22 58 -104q0 -152 -93 -212q-58 -38 -162 -38q-198 0 -198 136q0 45 9.5 87.5t36 81t67.5 49.5q-52 16 -52 95q0 121 62 180q54 53 180 53q101 0 149.5 -30t48.5 -101zM451 531q0 40 -28 52.5t-87 12.5
q-81 0 -113 -31q-19 -18 -29 -52t-10 -66q0 -38 26 -51t89 -13q82 0 113 30q19 18 29 52t10 66zM401 234q0 44 -28.5 58t-89.5 14q-83 0 -117 -34q-19 -20 -29.5 -57.5t-10.5 -72.5q0 -41 27 -56t91 -15q84 0 117 33q19 20 29.5 57.5t10.5 72.5z" />
    <glyph glyph-name="nineoldstyle" unicode="&#xf739;" horiz-adv-x="564" 
d="M523 516q0 -76 -21.5 -192t-47.5 -189q-27 -76 -80 -109.5t-147 -33.5q-186 0 -186 131q0 13 3 28h84q-2 -8 -2 -18q0 -33 25 -48t77 -15q66 0 101.5 25t52.5 83q5 17 25 107q-69 -53 -154 -53q-87 0 -131 36.5t-44 115.5q0 61 20 128t56 104q57 58 179 58q88 0 139 -38
t51 -120zM436 501q0 51 -26.5 73t-84.5 22q-77 0 -111 -34q-25 -25 -37.5 -74.5t-12.5 -95.5t23.5 -64t77.5 -18q77 0 123 44q48 48 48 147z" />
    <glyph glyph-name="Foundry" unicode="&#xf8ff;" horiz-adv-x="824" 
d="M752 334q0 -195 -73.5 -268t-268.5 -73q-102 0 -165.5 16t-103 57.5t-54.5 105t-15 164.5q0 137 29.5 208t100.5 100.5t208 29.5q102 0 165.5 -15t104 -55t56.5 -104t16 -166zM681 337q0 59 -4 98.5t-16 71.5t-30.5 50.5t-50 30.5t-71.5 16.5t-99 4.5q-61 0 -102 -4.5
t-72 -17.5t-48.5 -30.5t-28.5 -51.5t-14 -72.5t-3 -99.5v-15q0 -38 0.5 -56.5t3.5 -49t11 -47t21.5 -36.5t35.5 -32.5t52 -21.5v223h-62v62h62v49q0 145 162 145q165 0 166 -126h-70q-1 61 -94 61q-49 0 -71.5 -18t-22.5 -62v-49h205v-62h-205v-236q26 -3 74 -3
q88 0 138.5 11.5t81.5 45t41 83.5t10 138z" />
    <glyph glyph-name="Ring" unicode="&#xfff3;" horiz-adv-x="626" 
d="M501 766q0 -32 -10 -66.5t-29 -53.5q-27 -27 -91 -27q-54 0 -79.5 19.5t-25.5 61.5q0 82 39 120q27 27 91 27q54 0 79.5 -19.5t25.5 -61.5zM445 763q0 18 -11.5 25.5t-39.5 7.5q-36 0 -50 -14q-10 -10 -16 -35.5t-6 -43.5t11.5 -25.5t39.5 -7.5q36 0 50 14q10 10 16 35.5
t6 43.5z" />
    <glyph glyph-name="dollar.fitted" horiz-adv-x="563" 
d="M527 546q0 -14 -3 -31h-85q3 15 3 27q0 26 -18 37t-61 12l-37 -207q85 -8 120.5 -33t35.5 -88q0 -55 -17.5 -118t-49.5 -93q-46 -45 -156 -52l-18 -99h-77l18 99q-67 3 -111 32t-44 91q0 13 3 28h85q-2 -14 -2 -19q0 -29 18.5 -41t63.5 -13l41 231q-75 8 -111 36t-36 95
q0 47 16 97.5t44 78.5q44 44 150 51l17 95h77l-17 -95q63 -4 107 -32.5t44 -88.5zM286 591q-49 -2 -73 -24q-18 -18 -28.5 -50.5t-10.5 -62.5q0 -36 16.5 -49t59.5 -16zM398 246q0 32 -18.5 43t-67.5 15l-40 -226q56 2 82 29q20 20 32 62t12 77z" />
    <glyph glyph-name="cent.fitted" horiz-adv-x="563" 
d="M521 373q0 -13 -3 -30h-80q1 7 1 17q0 50 -79 54l-61 -344q91 6 103 71h81q-17 -143 -198 -149l-15 -87h-75l16 89q-82 7 -117.5 46t-35.5 113q0 71 22 156t61 125q52 54 157 58l15 83h75l-15 -85q148 -12 148 -117zM285 413q-48 -3 -79 -33q-27 -27 -44 -96.5
t-17 -123.5q0 -42 17.5 -63.5t61.5 -25.5z" />
    <glyph glyph-name="sterling.fitted" horiz-adv-x="563" 
d="M556 560q0 -20 -3 -45h-83q2 9 2 24q0 35 -25 46t-78 11q-85 0 -113.5 -31.5t-44.5 -122.5l-12 -66h284l-14 -77h-283l-39 -221h338l-13 -78h-485l13 78h61l39 221h-61l13 77h61l13 69q7 40 13 64.5t17.5 54.5t28 47t41 33t60.5 23t84 7q186 0 186 -114z" />
    <glyph glyph-name="florin.fitted" horiz-adv-x="563" 
d="M561 560q0 -11 -4 -45h-82q2 9 2 24q0 35 -25 46t-77 11q-84 0 -113.5 -32t-44.5 -116l-13 -72h285l-14 -77h-285l-86 -490h-86l86 490h-61l14 77h61l14 82q20 118 70.5 167t166.5 49q23 0 39 -1t41 -4t42.5 -11t34.5 -19.5t26 -32t9 -46.5z" />
    <glyph glyph-name="yen.fitted" horiz-adv-x="563" 
d="M616 667l-192 -242h77l-13 -72h-122l-45 -56h156l-13 -72h-158l-40 -225h-87l40 225h-158l13 72h155l-24 56h-123l12 72h77l-105 242h96l124 -294l227 294h103z" />
    <glyph glyph-name="Eurooldstyle" horiz-adv-x="578" 
d="M563 546q0 -14 -3 -31h-86q2 13 2 20q0 36 -26 48.5t-79 12.5q-100 0 -133 -63q-13 -23 -29 -98h180l-12 -72h-182l-10 -57h182l-13 -72h-179q-8 -46 -8 -73q0 -52 29.5 -71t86.5 -19q61 0 93.5 16t40.5 65h86q-16 -90 -73 -124.5t-150 -34.5q-116 0 -163 49
q-36 37 -36 117q0 24 7 75h-59l13 72h56l10 57h-57l13 72h56q23 118 64 168q57 71 189 71q190 0 190 -128z" />
    <glyph glyph-name="dollaroldstyle" horiz-adv-x="566" 
d="M529 546q0 -14 -3 -31h-85q3 15 3 27q0 26 -18 37t-61 12l-37 -207q85 -8 120.5 -33t35.5 -88q0 -55 -17.5 -118t-49.5 -93q-46 -45 -156 -52l-18 -99h-77l18 99q-67 3 -111 32t-44 91q0 13 3 28h85q-2 -14 -2 -19q0 -29 18.5 -41t63.5 -13l41 231q-75 8 -111 36t-36 95
q0 47 16 97.5t44 78.5q44 44 150 51l17 95h77l-17 -95q63 -4 107 -32.5t44 -88.5zM288 591q-49 -2 -73 -24q-18 -18 -28.5 -50.5t-10.5 -62.5q0 -36 16.5 -49t59.5 -16zM400 246q0 32 -18.5 43t-67.5 15l-40 -226q56 2 82 29q20 20 32 62t12 77z" />
    <glyph glyph-name="centoldstyle" horiz-adv-x="537" 
d="M508 373q0 -13 -3 -30h-80q1 7 1 17q0 50 -79 54l-61 -344q91 6 103 71h81q-17 -143 -198 -149l-15 -87h-75l16 89q-82 7 -117.5 46t-35.5 113q0 71 22 156t61 125q52 54 157 58l15 83h75l-15 -85q148 -12 148 -117zM272 413q-48 -3 -79 -33q-27 -27 -44 -96.5
t-17 -123.5q0 -42 17.5 -63.5t61.5 -25.5z" />
    </font>
</defs>
</svg>
