<?xml version="1.0" standalone="no"?>
<!DOCTYPE svg PUBLIC "-//W3C//DTD SVG 1.1//EN" "http://www.w3.org/Graphics/SVG/1.1/DTD/svg11.dtd" >
<svg>
<metadata>
Created by FontForge 20090622 at Tue May 19 19:05:13 2015
 By deploy user
Copyright &#194;&#169; The digitally encoded machine readable outline data for producing the typefaces licensed to you is copyrighted &#194;&#169;, 2010 by The Foundry, London. All rights reserved.
</metadata>
<defs>
<font id="FoundryMonolineOT3-Bold" horiz-adv-x="425" >
  <font-face 
    font-family="Foundry Monoline OT3 Bold "
    font-weight="700"
    font-stretch="normal"
    units-per-em="1000"
    panose-1="2 0 0 0 0 0 0 0 0 0"
    ascent="700"
    descent="-300"
    x-height="488"
    cap-height="667"
    bbox="-193 -263 1571 1018"
    underline-thickness="50"
    underline-position="-50"
    unicode-range="U+0020-U+FFF3"
  />
<missing-glyph horiz-adv-x="500" 
d="M0 700h500v-700h-500v700zM251 271l-113 -171h225zM141 600l110 -167l109 167h-219zM198 352l-88 134v-267zM304 352l86 -130v261z" />
    <glyph glyph-name="IJ" unicode="IJ" horiz-adv-x="818" 
d="M194 0h-118v667h118v-667zM746 218q0 -66 -3 -84q-24 -142 -220 -142q-107 0 -165 43t-58 151h114q0 -54 25 -71t84 -17q38 0 60 6t31.5 24t11.5 34.5t2 53.5v451h118v-449z" />
    <glyph glyph-name="ij" unicode="ij" horiz-adv-x="473" 
d="M181 613q0 -29 -16 -45.5t-46 -16.5t-46 16.5t-16 45.5q0 61 62 61t62 -61zM176 0h-113v488h113v-488zM415 613q0 -29 -16 -45.5t-46 -16.5t-46 16.5t-16 45.5q0 61 62 61t62 -61zM410 -28q0 -166 -190 -166q-79 0 -129 29.5t-50 94.5h110q2 -32 69 -32q43 0 60 15.5
t17 57.5v517h113v-516z" />
    <glyph glyph-name="f_j" unicode="fj" horiz-adv-x="564" 
d="M447 587h-107q-3 28 -66 28q-12 0 -22 -1.5t-17 -3.5t-12.5 -7.5t-9.5 -8.5t-6.5 -11t-4 -11t-2 -13t-0.5 -13v-14.5v-13.5v-30h168v-94h-165v-394h-113v394h-78v94h78v49q0 81 42 122q48 46 147 46q168 0 168 -118zM511 -28q0 -166 -190 -166q-79 0 -129 29.5t-50 94.5
h110q2 -32 69 -32q43 0 60 15.5t17 57.5v517h113v-516z" />
    <glyph glyph-name="f_f" unicode="ff" horiz-adv-x="860" 
d="M854 587h-107q-3 28 -66 28q-12 0 -22 -1.5t-17 -3t-12.5 -6.5t-9.5 -7.5t-6.5 -10.5t-4 -10.5t-2 -13t-0.5 -13.5v-15.5v-15.5v-30h168v-94h-165v-394h-113v394h-294v-394h-113v394h-78v94h78v49q0 81 42 122q48 46 147 46q168 0 168 -118h-107q-3 28 -66 28
q-12 0 -22 -1.5t-17 -3.5t-12.5 -7.5t-9.5 -8.5t-6.5 -11t-4 -11t-2 -13t-0.5 -13v-14.5v-13.5v-30h297v49q0 81 42 122q48 46 147 46q168 0 168 -118z" />
    <glyph glyph-name="fi" unicode="fi" horiz-adv-x="564" 
d="M501 0h-113v488h113v-488zM447 587h-107q-3 28 -66 28q-12 0 -22 -1.5t-17 -3.5t-12.5 -7.5t-9.5 -8.5t-6.5 -11t-4 -11t-2 -13t-0.5 -13v-14.5v-13.5v-30h158v-94h-155v-394h-113v394h-78v94h78v49q0 81 42 122q48 46 147 46q168 0 168 -118z" />
    <glyph glyph-name="fl" unicode="fl" horiz-adv-x="672" 
d="M610 0h-113v697h113v-697zM447 587h-107q-3 28 -66 28q-12 0 -22 -1.5t-17 -3.5t-12.5 -7.5t-9.5 -8.5t-6.5 -11t-4 -11t-2 -13t-0.5 -13v-14.5v-13.5v-30h168v-94h-165v-394h-113v394h-78v94h78v49q0 81 42 122q48 46 147 46q168 0 168 -118z" />
    <glyph glyph-name="f_f_i" unicode="ffi" horiz-adv-x="971" 
d="M854 587h-107q-3 28 -66 28q-12 0 -22 -1.5t-17 -3t-12.5 -6.5t-9.5 -7.5t-6.5 -10.5t-4 -10.5t-2 -13t-0.5 -13.5v-15.5v-15.5v-30h158v-94h-155v-394h-113v394h-294v-394h-113v394h-78v94h78v49q0 81 42 122q48 46 147 46q168 0 168 -118h-107q-3 28 -66 28
q-12 0 -22 -1.5t-17 -3.5t-12.5 -7.5t-9.5 -8.5t-6.5 -11t-4 -11t-2 -13t-0.5 -13v-14.5v-13.5v-30h297v49q0 81 42 122q48 46 147 46q168 0 168 -118zM908 0h-113v488h113v-488z" />
    <glyph glyph-name="f_f_l" unicode="ffl" horiz-adv-x="1079" 
d="M854 587h-107q-3 28 -66 28q-12 0 -22 -1.5t-17 -3t-12.5 -6.5t-9.5 -7.5t-6.5 -10.5t-4 -10.5t-2 -13t-0.5 -13.5v-15.5v-15.5v-30h168v-94h-165v-394h-113v394h-294v-394h-113v394h-78v94h78v49q0 81 42 122q48 46 147 46q168 0 168 -118h-107q-3 28 -66 28
q-12 0 -22 -1.5t-17 -3.5t-12.5 -7.5t-9.5 -8.5t-6.5 -11t-4 -11t-2 -13t-0.5 -13v-14.5v-13.5v-30h297v49q0 81 42 122q48 46 147 46q168 0 168 -118zM1017 0h-113v697h113v-697z" />
    <glyph glyph-name="f_t" unicode="ft" horiz-adv-x="876" 
d="M857 146q0 -82 -50.5 -118t-131.5 -36q-178 0 -178 158v244h-294v-394h-113v394h-78v94h78v49q0 81 42 122q48 46 147 46q168 0 168 -118h-107q-3 28 -66 28q-12 0 -22 -1.5t-17 -3.5t-12.5 -7.5t-9.5 -8.5t-6.5 -11t-4 -11t-2 -13t-0.5 -13v-14.5v-13.5v-30h297v179h113
v-179h199v-94h-199v-244q0 -35 15.5 -50.5t55.5 -15.5q72 0 72 62h104z" />
    <glyph glyph-name=".notdef" horiz-adv-x="500" 
d="M0 700h500v-700h-500v700zM251 271l-113 -171h225zM141 600l110 -167l109 167h-219zM198 352l-88 134v-267zM304 352l86 -130v261z" />
    <glyph glyph-name=".notdef" horiz-adv-x="500" 
d="M0 700h500v-700h-500v700zM251 271l-113 -171h225zM141 600l110 -167l109 167h-219zM198 352l-88 134v-267zM304 352l86 -130v261z" />
    <glyph glyph-name=".null" horiz-adv-x="0" 
 />
    <glyph glyph-name="nonmarkingreturn" horiz-adv-x="333" 
 />
    <glyph glyph-name="space" unicode=" " horiz-adv-x="225" 
 />
    <glyph glyph-name="exclam" unicode="!" horiz-adv-x="298" 
d="M203 190h-110v477h110v-477zM218 63q0 -71 -69 -71t-69 71q0 69 69 69t69 -69z" />
    <glyph glyph-name="quotedbl" unicode="&#x22;" horiz-adv-x="480" 
d="M383 450h-106v217h106v-217zM203 450h-106v217h106v-217z" />
    <glyph glyph-name="numbersign" unicode="#" horiz-adv-x="602" 
d="M583 394h-105l-27 -95h83v-94h-108l-57 -205h-107l57 205h-112l-57 -205h-107l57 205h-81v94h105l27 95h-83v94h109l57 206h107l-58 -206h113l57 206h97l-48 -206h81v-94zM370 394h-111l-27 -95h111z" />
    <glyph glyph-name="dollar" unicode="$" horiz-adv-x="581" 
d="M519 199q0 -98 -44 -144t-138 -55v-99h-100v98q-85 6 -131.5 41t-46.5 117h114q0 -36 26.5 -50.5t89.5 -14.5q71 0 93 23.5t22 73.5q0 63 -23.5 79t-96.5 22q-10 1 -15 1q-32 3 -49.5 5t-43 8t-39.5 13.5t-30.5 21.5t-24.5 33t-13.5 46.5t-5.5 63.5q0 92 44 133.5
t130 50.5v96h100v-95q85 -7 130 -42.5t45 -118.5h-114q0 36 -24 50t-87 14q-64 0 -86.5 -20t-22.5 -71q0 -13 2 -23t7 -17.5l8.5 -13t12.5 -9.5t13.5 -6.5t17 -4.5t16.5 -2.5t18.5 -2t17.5 -1.5q111 -10 144 -23q62 -24 77 -99q7 -32 7 -78z" />
    <glyph glyph-name="percent" unicode="%" horiz-adv-x="939" 
d="M681 667l-337 -667h-85l336 667h86zM583 200v26q0 35 1.5 55.5t9 48t22 42t42.5 25.5t69 11t69 -11t42.5 -25.5t22 -42t9 -48t1.5 -55.5v-26v-26q0 -35 -1.5 -55.5t-9 -48t-22 -42t-42.5 -25.5t-69 -11t-69 11t-42.5 25.5t-22 42t-9 48t-1.5 55.5v26zM794 200
q0 86 -7 109q-11 32 -60 32t-60 -32q-7 -23 -7 -109t7 -109q10 -32 60 -32t60 32q7 23 7 109zM69 467v26q0 35 1.5 55.5t9 48t22 42t42.5 25.5t69 11t69 -11t42.5 -25.5t22 -42t9 -48t1.5 -55.5v-26v-26q0 -35 -1.5 -55.5t-9 -48t-22 -42t-42.5 -25.5t-69 -11t-69 11
t-42.5 25.5t-22 42t-9 48t-1.5 55.5v26zM280 467q0 86 -7 109q-11 32 -60 32t-60 -32q-7 -23 -7 -109t7 -109q10 -32 60 -32t60 32q7 23 7 109z" />
    <glyph glyph-name="ampersand" unicode="&#x26;" horiz-adv-x="618" 
d="M592 288h-58v-58q0 -67 -10 -109.5t-44 -74.5q-58 -54 -186 -54q-62 0 -102.5 7.5t-73.5 28t-48.5 59.5t-15.5 100q0 58 13 95.5t54 55.5q-38 17 -49.5 55.5t-11.5 97.5q0 100 53 141.5t167 41.5q49 0 86 -7.5t68 -25.5t47.5 -52t16.5 -83h-111q0 38 -23 51.5t-84 13.5
q-68 0 -88.5 -20t-20.5 -72q0 -51 23.5 -69t85.5 -18h146v51h108v-51h58v-104zM426 230v58h-146q-71 0 -93 -17.5t-22 -81.5q0 -57 29.5 -76t101.5 -19q81 0 105.5 30t24.5 106z" />
    <glyph glyph-name="quotesingle" unicode="'" horiz-adv-x="300" 
d="M203 450h-106v217h106v-217z" />
    <glyph glyph-name="parenleft" unicode="(" horiz-adv-x="366" 
d="M341 -191q-111 0 -168 28t-79 98q-32 104 -32 371q0 270 32 374q22 70 79 98t168 28v-100q-28 0 -44.5 -1.5t-38 -7t-36 -19.5t-22.5 -36q-27 -72 -27 -335q0 -262 27 -334q8 -22 22.5 -36t36 -19.5t38 -7t44.5 -1.5v-100z" />
    <glyph glyph-name="parenright" unicode=")" horiz-adv-x="366" 
d="M304 306q0 -267 -32 -371q-22 -70 -79 -98t-168 -28v100q28 0 44.5 1.5t38 7t36 19.5t22.5 36q27 72 27 334q0 263 -27 335q-8 22 -22.5 36t-36 19.5t-38 7t-44.5 1.5v100q111 0 168 -28t79 -98q32 -104 32 -374z" />
    <glyph glyph-name="asterisk" unicode="*" horiz-adv-x="530" 
d="M514 463l-170 -52l103 -134l-78 -54l-105 134l-103 -134l-79 54l104 134l-170 52l31 88l169 -51v167h97v-167l169 51z" />
    <glyph glyph-name="plus" unicode="+" horiz-adv-x="602" 
d="M569 193h-220v-193h-99v193h-217v102h218v193h98v-193h220v-102z" />
    <glyph glyph-name="comma" unicode="," horiz-adv-x="241" 
d="M175 28q0 -46 -10 -77t-38 -59l-44 -43l-73 67l14.5 14.5l13 13t10 11t9 12t5.5 11t5 14t2 16t1 20.5v106h105v-106z" />
    <glyph glyph-name="hyphen" unicode="-" horiz-adv-x="540" 
d="M475 193h-410v102h410v-102z" />
    <glyph glyph-name="period" unicode="." horiz-adv-x="242" 
d="M190 63q0 -71 -69 -71t-69 71q0 69 69 69t69 -69z" />
    <glyph glyph-name="slash" unicode="/" horiz-adv-x="533" 
d="M518 784l-396 -897h-107l396 897h107z" />
    <glyph glyph-name="zero" unicode="0" horiz-adv-x="572" 
d="M517 333v-15v-53.5t-1.5 -48.5t-4.5 -47.5t-8.5 -42t-14 -39t-21 -31.5t-29.5 -27.5t-39 -19t-50.5 -13.5t-62.5 -4t-63 4.5t-50.5 13t-39 20.5t-29.5 27t-21 32.5t-14 37.5t-8.5 42t-4 44.5t-1.5 46.5t0 48v25q0 137 9 185q23 112 121 143q42 13 101 13q163 0 208 -108
q23 -58 23 -195v-16v-22zM403 333q0 145 -11 181q-9 29 -31.5 43t-74.5 14t-75 -14.5t-31 -42.5q-11 -36 -11 -181t11 -181q9 -29 31.5 -43t74.5 -14t74.5 14t31.5 43q11 36 11 181z" />
    <glyph glyph-name="one" unicode="1" horiz-adv-x="494" 
d="M478 0h-421v101h153v422l-103 -99l-71 77l184 166h103v-566h155v-101z" />
    <glyph glyph-name="two" unicode="2" horiz-adv-x="555" 
d="M500 473q0 -114 -71 -161q-36 -23 -141 -53q-9 -2 -15 -4q-72 -20 -89.5 -38t-17.5 -70v-46h333v-101h-447v165q0 41 11.5 72t28.5 49t46 32.5t53 21.5l61.5 17.5t60.5 18.5q43 15 58.5 34t15.5 63q0 58 -21.5 78.5t-89.5 20.5q-62 0 -85.5 -14t-23.5 -52h-112
q0 49 16.5 83t48 52t68.5 25.5t86 7.5q119 0 172.5 -44.5t53.5 -156.5z" />
    <glyph glyph-name="three" unicode="3" horiz-adv-x="573" 
d="M506 205q0 -122 -56 -167.5t-174 -45.5q-50 0 -88 7.5t-71 25t-50.5 52t-17.5 83.5h113q0 -36 25.5 -50.5t88.5 -14.5q66 0 91.5 20t25.5 80q0 67 -19 83t-98 16h-94v102h94q66 0 88.5 16t22.5 72q0 53 -20.5 70.5t-90.5 17.5q-63 0 -88.5 -15t-25.5 -51h-113
q0 49 17.5 83.5t50.5 52t71 25t88 7.5q119 0 171.5 -40t52.5 -147q0 -56 -10.5 -87.5t-49.5 -48.5q41 -18 53.5 -53t12.5 -93z" />
    <glyph glyph-name="four" unicode="4" horiz-adv-x="568" 
d="M528 168h-95v-168h-106v168h-288v95l287 404h107v-398h95v-101zM327 269v245l-168 -245h168z" />
    <glyph glyph-name="five" unicode="5" horiz-adv-x="573" 
d="M512 215q0 -122 -56 -172.5t-177 -50.5q-99 0 -157 37t-58 131h111q0 -38 22 -51.5t82 -13.5q72 0 96 23t24 93q0 77 -18.5 103t-88.5 26q-63 0 -86.5 -17.5t-23.5 -52.5h-110v397h419v-102h-310v-157q34 34 113 34q124 0 171 -48.5t47 -178.5z" />
    <glyph glyph-name="six" unicode="6" horiz-adv-x="568" 
d="M513 216q0 -224 -225 -224q-77 0 -132.5 30t-78.5 90q-22 56 -22 194q0 153 12 220q28 148 224 148q209 0 209 -168h-111q0 36 -22.5 51t-74.5 15q-40 0 -64 -7.5t-36 -28t-15.5 -40t-5.5 -58.5q-1 -9 -1 -31q48 35 122 35q119 0 170 -50t51 -176zM400 215q0 77 -21 101
t-82 24q-65 0 -95 -28.5t-30 -91.5q0 -70 26 -97.5t89 -27.5q65 0 89 25t24 95z" />
    <glyph glyph-name="seven" unicode="7" horiz-adv-x="485" 
d="M468 570l-292 -570h-124l292 565h-327v102h451v-97z" />
    <glyph glyph-name="eight" unicode="8" horiz-adv-x="572" 
d="M517 186q0 -59 -16.5 -98.5t-49.5 -59.5t-71.5 -28t-93.5 -8q-113 0 -172 41t-59 153q0 61 13 101.5t53 58.5q-38 17 -49 53.5t-11 96.5q0 99 53.5 138.5t171.5 39.5t171.5 -39.5t53.5 -138.5q0 -60 -11 -96.5t-49 -53.5q40 -18 53 -58.5t13 -101.5zM399 483
q0 52 -23 70.5t-90 18.5t-90 -18.5t-23 -70.5t22.5 -70t90.5 -18t90.5 18t22.5 70zM404 194q0 61 -26 80t-92 19t-92 -19t-26 -80t26 -80t92 -19t92 19t26 80z" />
    <glyph glyph-name="nine" unicode="9" horiz-adv-x="568" 
d="M513 360q0 -152 -12 -220q-28 -148 -224 -148q-209 0 -209 168h111q0 -36 22.5 -51t74.5 -15q40 0 64 7.5t36 28t15.5 40t5.5 58.5q1 9 1 31q-48 -35 -122 -35q-119 0 -170 50t-51 176q0 224 225 224q77 0 132.5 -30t78.5 -90q22 -56 22 -194zM396 446q0 70 -26 97.5
t-89 27.5q-65 0 -89 -25t-24 -95q0 -77 21 -101t82 -24q65 0 95 28.5t30 91.5z" />
    <glyph glyph-name="colon" unicode=":" horiz-adv-x="241" 
d="M189 427q0 -71 -69 -71t-69 71q0 69 69 69t69 -69zM189 63q0 -71 -69 -71t-69 71q0 69 69 69t69 -69z" />
    <glyph glyph-name="semicolon" unicode=";" horiz-adv-x="241" 
d="M194 427q0 -71 -69 -71t-69 71q0 69 69 69t69 -69zM175 28q0 -46 -10 -77t-38 -59l-44 -43l-73 67l14.5 14.5l13 13t10 11t9 12t5.5 11t5 14t2 16t1 20.5v106h105v-106z" />
    <glyph glyph-name="less" unicode="&#x3c;" horiz-adv-x="592" 
d="M564 98l-38 -98l-498 196v96l497 196l39 -99l-387 -145z" />
    <glyph glyph-name="equal" unicode="=" horiz-adv-x="592" 
d="M564 283h-536v102h536v-102zM564 108h-536v102h536v-102z" />
    <glyph glyph-name="greater" unicode="&#x3e;" horiz-adv-x="592" 
d="M564 196l-497 -196l-39 99l387 145l-387 146l38 98l498 -196v-96z" />
    <glyph glyph-name="question" unicode="?" horiz-adv-x="464" 
d="M443 505q0 -117 -84 -166q-16 -9 -36 -19t-27 -14t-15 -13.5t-9.5 -22.5t-1.5 -38v-42h-114v58q0 94 48 135q19 17 55.5 31.5t54 33t17.5 57.5q0 53 -20 75.5t-80 22.5t-81.5 -22.5t-21.5 -74.5h-110q0 110 54 153.5t157 43.5q108 0 161 -44.5t53 -153.5zM283 63
q0 -71 -69 -71t-69 71q0 69 69 69t69 -69z" />
    <glyph glyph-name="at" unicode="@" horiz-adv-x="761" 
d="M697 378q0 -174 -54 -226q-29 -27 -65 -35.5t-95 -7.5v31q-47 -37 -114 -37q-56 0 -92 15.5t-52 47t-21 63t-5 81.5q0 40 2.5 66t12 55.5t27 47t49.5 29t78 11.5q67 0 114 -38v31h68v-334q75 0 75 208q0 73 -11 115.5t-42.5 65.5t-73 29.5t-116.5 6.5q-48 0 -83.5 -5.5
t-61.5 -14.5t-43 -27.5t-28 -38.5t-16.5 -54.5t-7.5 -67.5t-2 -85q0 -56 1 -89.5t6 -70.5t15.5 -57t27.5 -40t44 -29t64 -14.5t88 -5.5q83 0 136.5 15t83.5 64l16 -9l30 -18l16 -9q-29 -50 -83.5 -77t-98 -32t-105.5 -5q-72 0 -123 8.5t-86.5 30.5t-56.5 49t-32.5 74.5
t-15 96t-3.5 123.5q0 106 11.5 169.5t46.5 109t96 63t162 17.5q76 0 125.5 -7t89 -25t60.5 -52t31.5 -85t10.5 -127zM482 310q0 80 -25.5 108.5t-91.5 28.5q-59 0 -74.5 -30t-15.5 -107q0 -78 15.5 -107t75.5 -29q65 0 90.5 28t25.5 108z" />
    <glyph glyph-name="A" unicode="A" horiz-adv-x="651" 
d="M643 0h-129l-62 170h-260l-61 -170h-123l258 667h121zM416 272l-93 264l-94 -264h187z" />
    <glyph glyph-name="B" unicode="B" horiz-adv-x="656" 
d="M591 198q0 -103 -49 -148q-11 -10 -24.5 -18t-24 -13.5t-29 -9t-26.5 -5.5t-30.5 -3t-27.5 -1h-31h-29h-244v667h238h16q36 0 54.5 -0.5t50.5 -3.5t49 -9t39 -18t33.5 -29.5t20 -45t9.5 -62.5q2 -128 -62 -155q40 -18 53.5 -54t13.5 -92zM468 478q0 25 -7.5 41.5t-17 25
t-32.5 12.5t-38 4.5t-49 0.5h-17h-114v-169h121q82 0 106 8q48 16 48 77zM473 196q0 54 -20 72q-10 9 -18 12.5t-37 6t-86 2.5h-119v-183h119q102 0 125 10q36 16 36 80z" />
    <glyph glyph-name="C" unicode="C" horiz-adv-x="656" 
d="M596 480h-116q0 51 -29 69t-114 18q-99 0 -127 -44t-28 -190t27.5 -189.5t126.5 -43.5q86 0 114.5 17.5t28.5 68.5h116q0 -107 -63.5 -150.5t-186.5 -43.5q-46 0 -83 6t-65 14.5t-49 26t-35 32.5t-23.5 42.5t-14.5 46.5t-7.5 54.5t-3 57t-0.5 62.5q0 36 0.5 56.5t2 52
t5.5 49.5t11 43.5t17.5 40.5t25.5 33t36 28t47.5 19.5t61 13.5t75.5 4q123 0 186.5 -43.5t63.5 -150.5z" />
    <glyph glyph-name="D" unicode="D" horiz-adv-x="675" 
d="M611 333q0 -101 -8.5 -153t-34.5 -90q-35 -51 -91 -70.5t-153 -19.5h-248v667h247q97 0 153 -19.5t91 -71.5q26 -38 35 -90.5t9 -152.5zM493 333q0 56 -3 93.5t-13 63.5t-21 40t-34.5 21.5t-44.5 9t-60 1.5h-125v-456h126q40 0 60.5 1.5t44 8.5t34 21t20.5 39.5t13 63
t3 93.5z" />
    <glyph glyph-name="E" unicode="E" horiz-adv-x="595" 
d="M535 0h-459v667h459v-105h-343v-169h333v-104h-333v-183h343v-106z" />
    <glyph glyph-name="F" unicode="F" horiz-adv-x="579" 
d="M525 562h-331v-169h322v-104h-322v-289h-118v667h449v-105z" />
    <glyph glyph-name="G" unicode="G" horiz-adv-x="679" 
d="M605 0h-93v50q-60 -58 -190 -58q-177 0 -228 108q-29 60 -30 202v32q0 36 0.5 56.5t2 52t5.5 49.5t11 43.5t17.5 40.5t25.5 33t36 28t47.5 19.5t61 13.5t75.5 4q122 0 190 -43.5t68 -150.5h-117q0 50 -32.5 68.5t-117.5 18.5q-99 0 -127 -44t-28 -190q0 -76 5 -117.5
t21.5 -69.5t44.5 -37t79 -9q33 0 57.5 4.5t41.5 11t28 21t17.5 27t9.5 36.5t4 42t1 50h-164v102h278v-394z" />
    <glyph glyph-name="H" unicode="H" horiz-adv-x="660" 
d="M584 0h-118v288h-272v-288h-118v667h118v-273h272v273h118v-667z" />
    <glyph glyph-name="I" unicode="I" horiz-adv-x="270" 
d="M194 0h-118v667h118v-667z" />
    <glyph glyph-name="J" unicode="J" horiz-adv-x="548" 
d="M476 218q0 -66 -3 -84q-24 -142 -220 -142q-107 0 -165 43t-58 151h114q0 -54 25 -71t84 -17q38 0 60 6t31.5 24t11.5 34.5t2 53.5v451h118v-449z" />
    <glyph glyph-name="K" unicode="K" horiz-adv-x="642" 
d="M638 0h-172l-272 268v-268h-118v667h118v-270l282 270h159l-355 -331z" />
    <glyph glyph-name="L" unicode="L" horiz-adv-x="531" 
d="M525 0h-449v667h118v-561h331v-106z" />
    <glyph glyph-name="M" unicode="M" horiz-adv-x="824" 
d="M748 0h-110v518l-171 -518h-114l-169 518v-518h-108v667h156l181 -531l180 532h155v-668z" />
    <glyph glyph-name="N" unicode="N" horiz-adv-x="660" 
d="M584 0h-121l-277 479v-479h-110v667h120l278 -475v475h110v-667z" />
    <glyph glyph-name="O" unicode="O" horiz-adv-x="677" 
d="M613 335q0 -53 -1.5 -86t-7.5 -73.5t-17 -64.5t-30.5 -49.5t-49 -39t-71.5 -22t-97 -8.5q-184 0 -240 98q-33 59 -35 198v46q0 53 1 81t6 71t15 65t30 49.5t49 41t72.5 23t100.5 9.5q183 0 239 -94q34 -59 36 -196v-49zM495 334q0 146 -28 189.5t-129 43.5
q-100 0 -128 -43.5t-28 -190.5q0 -146 28 -189.5t128 -43.5t128.5 44t28.5 190z" />
    <glyph glyph-name="P" unicode="P" horiz-adv-x="620" 
d="M585 468q0 -56 -15 -94.5t-37 -59.5t-62 -32t-73.5 -13.5t-87.5 -2.5h-116v-266h-118v667h234q39 0 63 -1t56.5 -5t52 -11.5t41.5 -22t34 -35.5t20 -52.5t8 -71.5zM467 466q0 68 -42 87q-23 9 -117 9h-114v-190h114q96 0 117 9q42 19 42 85z" />
    <glyph glyph-name="Q" unicode="Q" horiz-adv-x="677" 
d="M613 335v-47.5t-1.5 -46.5t-4.5 -48t-8.5 -43.5t-14 -42t-21.5 -35t-29.5 -31.5t-39 -22.5t-50.5 -16.5l45 -100l-92 -43l-61 133q-62 0 -107.5 9t-75.5 31t-48 47.5t-27 69t-11.5 83.5t-2.5 102q0 53 1 81t6 71t15 65t30 49.5t49 41t72.5 23t100.5 9.5q183 0 239 -94
q34 -59 36 -196v-49zM495 334q0 146 -28 189.5t-129 43.5q-100 0 -128 -43.5t-28 -190.5q0 -133 21 -181.5t88 -52.5l-34 79l92 41l50 -117q59 9 77.5 58t18.5 174z" />
    <glyph glyph-name="R" unicode="R" horiz-adv-x="657" 
d="M585 0h-115v173v42t-6.5 26.5t-11.5 18t-27.5 7.5t-40 4h-63.5h-14h-113v-271h-118v667h234q39 0 63 -1t57 -5t52.5 -11t41.5 -21t33.5 -34.5t19.5 -50.5t8 -69q0 -62 -14.5 -97.5t-50.5 -50.5q13 -4 24 -11.5t17.5 -15t11.5 -21t7.5 -22t3.5 -25t1 -23.5v-24.5v-21.5
v-163zM469 470q0 53 -20 71q-10 9 -18 12.5t-36.5 6t-86.5 2.5h-114v-185h121q102 0 120 8q34 16 34 85z" />
    <glyph glyph-name="S" unicode="S" horiz-adv-x="650" 
d="M594 208q-1 -112 -67 -164t-203 -52q-131 0 -199.5 42.5t-68.5 151.5h118q0 -51 31.5 -69.5t120.5 -18.5q92 0 121 23t29 82q0 46 -16.5 60.5t-58.5 17.5q-24 2 -75 3t-81 2.5t-70.5 11.5t-63 28.5t-39 55t-16.5 89.5q0 112 64.5 157.5t201.5 45.5q131 0 198 -43t67 -151
h-116q0 55 -33.5 71.5t-117.5 16.5q-66 0 -97.5 -10t-40 -28t-8.5 -57q0 -43 17.5 -57t57.5 -17q24 -2 65 -2.5t68.5 -2t63.5 -6t59.5 -16t45.5 -31.5t32.5 -53.5t10.5 -79.5z" />
    <glyph glyph-name="T" unicode="T" horiz-adv-x="560" 
d="M542 562h-203v-562h-118v562h-203v105h524v-105z" />
    <glyph glyph-name="U" unicode="U" horiz-adv-x="652" 
d="M580 335q0 -109 -2 -140q-11 -203 -252 -203t-252 203q-2 31 -2 140v332h118v-332q0 -129 6 -159q12 -54 60 -68q26 -8 70 -8q30 0 51 3.5t36 10.5t24.5 18t15 26.5t7.5 36t2.5 46t-0.5 55.5v39v332h118v-332z" />
    <glyph glyph-name="V" unicode="V" horiz-adv-x="622" 
d="M619 667l-251 -667h-116l-249 667h126l183 -518l183 518h124z" />
    <glyph glyph-name="W" unicode="W" horiz-adv-x="898" 
d="M862 667l-155 -667h-124l-135 536l-137 -536h-123l-152 667h115l108 -507l128 507h125l129 -507l109 507h112z" />
    <glyph glyph-name="X" unicode="X" horiz-adv-x="628" 
d="M607 0h-135l-159 253l-158 -253h-134l224 339l-218 328h135l153 -242l152 242h135l-219 -328z" />
    <glyph glyph-name="Y" unicode="Y" horiz-adv-x="611" 
d="M609 667l-245 -379v-288h-118v288l-244 379h137l168 -274l167 274h135z" />
    <glyph glyph-name="Z" unicode="Z" horiz-adv-x="629" 
d="M569 0h-509v102l368 460h-368v105h509v-103l-367 -458h367v-106z" />
    <glyph glyph-name="bracketleft" unicode="[" horiz-adv-x="366" 
d="M341 -191h-257v997h257v-100h-147v-797h147v-100z" />
    <glyph glyph-name="backslash" unicode="\" horiz-adv-x="533" 
d="M518 -113h-107l-396 897h107z" />
    <glyph glyph-name="bracketright" unicode="]" horiz-adv-x="366" 
d="M282 -191h-257v100h147v797h-147v100h257v-997z" />
    <glyph glyph-name="asciicircum" unicode="^" horiz-adv-x="602" 
d="M572 221l-101 -39l-172 355l-168 -355l-101 40l226 454h88z" />
    <glyph glyph-name="underscore" unicode="_" horiz-adv-x="546" 
d="M546 -193h-546v102h546v-102z" />
    <glyph glyph-name="grave" unicode="`" horiz-adv-x="441" 
d="M351 541h-124l-137 126h124z" />
    <glyph glyph-name="a" unicode="a" horiz-adv-x="541" 
d="M485 0h-101v40q-55 -48 -152 -48q-93 0 -141.5 35.5t-48.5 120.5q0 41 12 71t30.5 46.5t48 26t55.5 12t62 2.5h125q0 55 -17 74.5t-86 19.5q-22 0 -36 -1.5t-32.5 -6t-28 -16.5t-9.5 -30h-110q0 45 18 76t51.5 46.5t69.5 21.5t83 6q207 0 207 -178v-318zM377 214h-131
q-53 0 -72 -13t-19 -51q0 -34 20 -49.5t75 -15.5q81 0 104 29t23 100z" />
    <glyph glyph-name="b" unicode="b" horiz-adv-x="563" 
d="M514 243q0 -43 -2.5 -72.5t-14.5 -66.5t-33.5 -59t-61.5 -37.5t-96 -15.5q-89 0 -141 47v-39h-102v697h113v-245q43 44 148 44q49 0 84 -12.5t55.5 -33t32 -55t15 -69t3.5 -83.5zM401 243q0 87 -20 118t-82 31q-74 0 -99.5 -29.5t-25.5 -119.5t25.5 -119.5t99.5 -29.5
q62 0 82 31t20 118z" />
    <glyph glyph-name="c" unicode="c" horiz-adv-x="528" 
d="M481 146q0 -154 -208 -154q-59 0 -101 14t-65.5 35t-37 56.5t-17 68.5t-3.5 80t3.5 79.5t17 67.5t37 55.5t65.5 34t101 13.5q208 0 208 -154h-107q0 19 -9 31t-26.5 16.5t-29.5 5.5t-33 1q-73 0 -93.5 -31.5t-20.5 -120.5t20.5 -120.5t93.5 -31.5q21 0 33 1t29.5 5.5
t26.5 16.5t9 31h107z" />
    <glyph glyph-name="d" unicode="d" horiz-adv-x="563" 
d="M500 0h-102v39q-52 -47 -148 -47q-41 0 -72.5 8t-52.5 20.5t-36 33.5t-22.5 40t-11.5 48t-5 49t-1 52q0 61 7 102.5t26.5 78t58.5 54.5t98 18q105 0 148 -44v245h113v-697zM389 243q0 90 -25.5 119.5t-99.5 29.5q-62 0 -82 -31t-20 -118t20 -118t82 -31q74 0 99.5 29.5
t25.5 119.5z" />
    <glyph glyph-name="e" unicode="e" horiz-adv-x="545" 
d="M496 201h-334q0 -65 24 -90.5t94 -25.5q103 0 104 61h106q0 -154 -214 -154q-71 0 -117.5 17.5t-69.5 53t-31.5 76t-8.5 99.5q0 48 4.5 83t18 70t37.5 56.5t65.5 35t98.5 13.5q45 0 79.5 -8t58 -20.5t39.5 -35t25 -43.5t14 -55.5t6 -62t1 -70.5zM384 293q0 31 -2.5 47.5
t-13 33t-34 23t-61.5 6.5q-68 0 -88.5 -26.5t-20.5 -83.5h220z" />
    <glyph glyph-name="f" unicode="f" horiz-adv-x="453" 
d="M447 587h-107q-3 28 -66 28q-12 0 -22 -1.5t-17 -3t-12.5 -6.5t-9.5 -7.5t-6.5 -10.5t-4 -10.5t-2 -13t-0.5 -13.5v-15.5v-15.5v-30h168v-94h-165v-394h-113v394h-78v94h78v49q0 81 42 122q48 46 147 46q168 0 168 -118z" />
    <glyph glyph-name="g" unicode="g" horiz-adv-x="561" 
d="M498 52q0 -79 -4 -106q-6 -41 -29.5 -70.5t-57.5 -43.5t-67.5 -20t-71.5 -6q-40 0 -74.5 7t-66 23t-50 48t-18.5 76h112q0 -27 24 -42.5t70 -15.5q109 0 118 66q2 17 2 75q-47 -43 -140 -43q-53 0 -91 15.5t-58 37t-31 58t-13.5 65t-2.5 71.5q0 61 7 102t27 77t60 53
t101 17q99 0 152 -47v39h102v-436zM386 247q0 91 -24.5 120t-98.5 29q-62 0 -81.5 -30.5t-19.5 -118.5q0 -87 19.5 -116t81.5 -29q74 0 98.5 27.5t24.5 117.5z" />
    <glyph glyph-name="h" unicode="h" horiz-adv-x="547" 
d="M491 0h-113v257v26v25t-0.5 20t-2.5 19t-5 14.5t-7.5 13t-11 9t-15.5 7.5t-20.5 3t-26.5 2q-24 0 -42.5 -5t-30 -11t-20 -20t-12.5 -22.5t-6 -29.5t-2 -30.5v-34.5v-16v-227h-113v697h113v-240q51 39 126 39q40 0 70.5 -7.5t50 -17t33.5 -29.5t20.5 -34.5t10 -42t4 -42.5
t0.5 -45v-12v-266z" />
    <glyph glyph-name="i" unicode="i" horiz-adv-x="239" 
d="M181 613q0 -29 -16 -45.5t-46 -16.5t-46 16.5t-16 45.5q0 61 62 61t62 -61zM176 0h-113v488h113v-488z" />
    <glyph glyph-name="j" unicode="j" horiz-adv-x="239" 
d="M181 613q0 -29 -16 -45.5t-46 -16.5t-46 16.5t-16 45.5q0 61 62 61t62 -61zM176 -28q0 -166 -190 -166q-79 0 -129 29.5t-50 94.5h110q2 -32 69 -32q43 0 60 15.5t17 57.5v517h113v-516z" />
    <glyph glyph-name="k" unicode="k" horiz-adv-x="539" 
d="M530 0h-145l-208 228v-228h-114v697h113v-404l210 195h140l-241 -224z" />
    <glyph glyph-name="l" unicode="l" horiz-adv-x="238" 
d="M176 0h-113v697h113v-697z" />
    <glyph glyph-name="m" unicode="m" horiz-adv-x="803" 
d="M747 0h-113v294v8q0 27 -1 39.5t-8 28t-23 21t-43 5.5q-16 0 -29 -3t-23 -7.5t-17.5 -13t-12 -15.5t-8 -20l-5.5 -20.5t-2.5 -23t-0.5 -22.5v-24v-22v-225h-112v294v25.5t-1 20.5t-4 20t-8 14t-13.5 13t-20.5 6t-29 3q-20 0 -35.5 -5t-25.5 -11t-17.5 -20.5t-11 -22
t-5.5 -29t-2.5 -27.5t0 -30.5t0.5 -27.5v-223h-113v488h98v-43q51 51 133 51q83 0 128 -51q56 51 147 51q127 0 164 -85q4 -9 7 -19.5t4.5 -18.5t2 -21t0.5 -19v-21.5v-19.5v-292z" />
    <glyph glyph-name="n" unicode="n" horiz-adv-x="547" 
d="M491 0h-113v257v26v25t-0.5 20t-2.5 19t-5 14.5t-7.5 13t-11 9t-15.5 7.5t-20.5 3t-26.5 2q-24 0 -42.5 -5t-30 -11t-20 -20t-12.5 -22.5t-6 -29.5t-2 -30.5v-34.5v-16v-227h-113v488h98v-39q53 47 141 47q40 0 70.5 -7.5t50 -17t33.5 -29.5t20.5 -34.5t10 -42t4 -42.5
t0.5 -45v-12v-266z" />
    <glyph glyph-name="o" unicode="o" horiz-adv-x="562" 
d="M513 244q0 -76 -11 -122t-41 -75q-56 -55 -180 -55t-180 55q-30 29 -41 75t-11 122t11 122t41 75q56 55 180 55t180 -55q30 -29 41 -75t11 -122zM400 244q0 89 -21 120.5t-98 31.5t-98 -31.5t-21 -120.5t21 -120.5t98 -31.5t98 31.5t21 120.5z" />
    <glyph glyph-name="p" unicode="p" horiz-adv-x="563" 
d="M514 243q0 -41 -3.5 -72t-16 -66.5t-34.5 -58.5t-61.5 -38.5t-94.5 -15.5q-87 0 -128 43v-226h-113v679h102v-39q56 49 152 47q64 -1 104 -17.5t60 -52.5t26.5 -77t6.5 -106zM401 243q0 88 -20.5 120.5t-81.5 32.5q-73 0 -98.5 -31t-25.5 -122t25.5 -121t98.5 -30
q62 0 82 31.5t20 119.5z" />
    <glyph glyph-name="q" unicode="q" horiz-adv-x="559" 
d="M496 -191h-113v226q-46 -43 -142 -43q-54 0 -91.5 16t-57 37.5t-29.5 60t-12 65.5t-2 72q0 62 7 103t26.5 78t59 54.5t100.5 17.5q100 0 153 -47v39h101v-679zM384 243q0 91 -25 122t-97 31q-60 0 -80 -32.5t-20 -120.5t20 -119.5t80 -31.5q72 0 97 30t25 121z" />
    <glyph glyph-name="r" unicode="r" horiz-adv-x="465" 
d="M453 342h-109q0 32 -16 43.5t-53 11.5q-67 0 -88 -58q-11 -30 -11 -127v-212h-113v488h98v-44q49 52 134 52q80 0 119 -37.5t39 -116.5z" />
    <glyph glyph-name="s" unicode="s" horiz-adv-x="520" 
d="M476 342h-104q0 35 -20 48t-70 15q-67 2 -90 -11t-24 -41q-1 -20 3.5 -31.5t18 -17t23 -6.5t34.5 -3q101 -6 123 -11q83 -18 99 -92q5 -22 4 -51q-1 -44 -17.5 -74t-47.5 -46.5t-70 -23t-91 -5.5q-100 2 -151.5 35.5t-51.5 118.5h104q0 -33 20 -48t78 -16q68 -2 91 11.5
t24 42.5q1 21 -4 33.5t-19.5 18.5t-26 7.5t-38.5 2.5q-7 0 -20 1q-34 2 -51 3.5t-45.5 6.5t-43 14.5t-30.5 25.5t-22.5 41.5t-5.5 59.5q1 44 17.5 74t48 45.5t70 21.5t90.5 5q97 -2 146 -36.5t49 -117.5z" />
    <glyph glyph-name="t" unicode="t" horiz-adv-x="475" 
d="M456 146q0 -82 -50.5 -118t-131.5 -36q-178 0 -178 158v244h-78v94h78v179h113v-179h199v-94h-199v-244q0 -35 15.5 -50.5t55.5 -15.5q72 0 72 62h104z" />
    <glyph glyph-name="u" unicode="u" horiz-adv-x="547" 
d="M484 0h-98v39q-53 -47 -141 -47q-40 0 -70.5 7.5t-50 17t-33.5 29.5t-20.5 34.5t-10 42t-4 42.5t-0.5 45v12v266h113v-257v-26v-25t0.5 -20t2.5 -19t5 -14.5t7.5 -13t11 -9t15.5 -7.5t20.5 -3t26.5 -2q24 0 42.5 5t30 11t20 20t12.5 22.5t6 29.5t2 30.5v34.5v16v227h113
v-488z" />
    <glyph glyph-name="v" unicode="v" horiz-adv-x="524" 
d="M510 488l-191 -488h-113l-192 488h121l129 -358l129 358h117z" />
    <glyph glyph-name="w" unicode="w" horiz-adv-x="733" 
d="M715 488l-132 -488h-113l-100 380l-103 -380h-117l-132 488h111l85 -364l98 364h110l99 -364l85 364h109z" />
    <glyph glyph-name="x" unicode="x" horiz-adv-x="536" 
d="M521 0h-133l-122 176l-123 -176h-128l186 248l-179 240h133l115 -166l117 166h129l-181 -239z" />
    <glyph glyph-name="y" unicode="y" horiz-adv-x="519" 
d="M502 488l-263 -678h-119l83 202l-186 476h120l125 -351l120 351h120z" />
    <glyph glyph-name="z" unicode="z" horiz-adv-x="500" 
d="M455 0h-410v97l270 297h-270v94h410v-97l-268 -295h268v-96z" />
    <glyph glyph-name="braceleft" unicode="{" horiz-adv-x="400" 
d="M371 -191q-65 0 -102.5 8t-64.5 35q-33 32 -44 70t-11 100v129q0 31 -4 43.5t-20 28.5l-10 10t-11 10.5t-9.5 10t-9.5 12l-7.5 11.5t-6.5 13t-3.5 13.5t-1.5 14.5q0 9 1.5 16.5t5.5 15.5t7.5 13.5t10.5 13.5l10 11.5t12.5 12.5l11.5 11q16 16 20 28.5t4 43.5v129
q0 62 11 100t44 70q27 27 64.5 35t102.5 8v-100q-74 0 -93 -18.5t-19 -91.5v-164q0 -20 -2.5 -34.5t-10 -27t-11 -17.5t-17 -17.5t-16.5 -15.5q-24 -24 -3 -45q4 -4 16.5 -15.5t17.5 -17.5t12.5 -17.5t10.5 -26.5t3 -35v-164q0 -73 19 -91.5t93 -18.5v-100z" />
    <glyph glyph-name="bar" unicode="|" horiz-adv-x="290" 
d="M200 -191h-110v858h110v-858z" />
    <glyph glyph-name="braceright" unicode="}" horiz-adv-x="400" 
d="M334 318q0 -9 -1.5 -16.5t-6 -16l-7 -13t-10.5 -14t-10 -11.5l-12.5 -12.5l-11.5 -11.5q-16 -16 -20 -28.5t-4 -43.5v-129q0 -62 -11 -100t-44 -70q-27 -27 -64.5 -35t-102.5 -8v100q74 0 93 18.5t19 91.5v164q0 20 3 35t10.5 26.5t12.5 17.5t17.5 17.5t16.5 15.5
q21 21 -3 45q-3 3 -16.5 15.5t-17 17.5t-11 17.5t-10 27t-2.5 34.5v164q0 73 -19 91.5t-93 18.5v100q65 0 102.5 -8t64.5 -35q33 -32 44 -70t11 -100v-129q0 -31 4 -43.5t20 -28.5l11.5 -11t12.5 -12.5l10 -11.5t10.5 -13.5t7.5 -13.5t5.5 -15.5t1.5 -16.5z" />
    <glyph glyph-name="asciitilde" unicode="~" horiz-adv-x="601" 
d="M569 257q-35 -31 -60 -49.5t-59 -34t-68.5 -13t-71.5 23.5l-45 25t-34 13t-28.5 4t-28 -9.5t-33 -19.5t-42.5 -34l-67 68q35 31 60 49.5t59 34t68.5 13t71.5 -23.5l45 -25t34 -13t28.5 -4t28 9.5t33 19.5t42.5 34z" />
    <glyph glyph-name="nbspace" unicode="&#xa0;" horiz-adv-x="225" 
 />
    <glyph glyph-name="exclamdown" unicode="&#xa1;" horiz-adv-x="298" 
d="M218 425q0 -69 -69 -69t-69 69q0 71 69 71t69 -71zM203 -179h-110v477h110v-477z" />
    <glyph glyph-name="cent" unicode="&#xa2;" horiz-adv-x="562" 
d="M509 146q0 -138 -174 -152v-89h-98v89q-49 5 -84 21t-55 37.5t-31.5 55t-14.5 64.5t-3 74t3 74t14.5 64t31.5 54t55 36.5t84 19.5v81h98v-81q174 -14 174 -152h-123q0 19 -9 31t-27 16.5t-30.5 5.5t-33.5 1q-74 0 -99 -32.5t-25 -119.5t25 -119.5t99 -32.5q21 0 33.5 1
t30.5 5.5t27 16.5t9 31h123z" />
    <glyph glyph-name="sterling" unicode="&#xa3;" horiz-adv-x="593" 
d="M557 0h-510v102h67v188h-67v102h67v65q0 80 11 110t36 53q57 54 172 54q32 0 54.5 -1.5t55.5 -11t54 -26t36.5 -50t15.5 -79.5h-109q0 40 -23.5 53t-74.5 13q-76 0 -95.5 -22t-19.5 -91v-67h279v-102h-279v-188h330v-102z" />
    <glyph glyph-name="currency" unicode="&#xa4;" horiz-adv-x="595" 
d="M297 575q68 0 124 -39l85 85l70 -70l-85 -85q38 -59 38 -122q0 -69 -37 -127l84 -83l-70 -70l-84 83q-56 -36 -125 -36q-70 0 -126 36l-82 -83l-70 70l83 82q-37 58 -37 128q0 65 36 124l-82 83l70 70l82 -83q58 37 126 37zM297 475q-56 0 -94 -37.5t-38 -93.5t38 -94.5
t94 -38.5q55 0 93.5 39t38.5 94q0 54 -39 92.5t-93 38.5z" />
    <glyph glyph-name="yen" unicode="&#xa5;" horiz-adv-x="629" 
d="M611 667l-148 -232h70v-92h-129l-34 -57h163v-92h-163v-194h-113v194h-164v92h163l-34 57h-129v92h72l-147 232h129l165 -271l169 271h130z" />
    <glyph glyph-name="brokenbar" unicode="&#xa6;" horiz-adv-x="290" 
d="M200 326h-110v341h110v-341zM200 -191h-110v340h110v-340z" />
    <glyph glyph-name="section" unicode="&#xa7;" horiz-adv-x="588" 
d="M516 48q0 -48 -17.5 -81t-50.5 -49.5t-67.5 -23t-79.5 -6.5q-111 -1 -169 35.5t-58 132.5h113q0 -37 23.5 -52t90.5 -14q56 0 77.5 14t21.5 54q0 18 -5.5 29.5t-11.5 18t-21.5 9t-25.5 3t-32 0.5h-13q-40 0 -63 1.5t-53 10.5t-52 26q-50 39 -50 122q0 89 60 115
q-61 29 -61 121q0 48 17.5 81t50.5 49.5t67.5 23t79.5 6.5q111 1 169 -35.5t58 -132.5h-113q0 37 -23.5 52t-90.5 14q-56 0 -77.5 -14t-21.5 -54q0 -18 5 -29.5t11 -18t21.5 -9t25 -3t33.5 -0.5h13q40 0 63 -1.5t53 -10.5t52 -26q50 -39 50 -122q0 -89 -60 -115
q61 -29 61 -121zM399 283q0 40 -24 51t-83 11q-35 0 -54 -3t-34.5 -18.5t-15.5 -45.5q0 -40 24 -51t83 -11q35 0 54 3t34.5 18.5t15.5 45.5z" />
    <glyph glyph-name="dieresis" unicode="&#xa8;" horiz-adv-x="436" 
d="M384 609q0 -59 -59 -59q-58 0 -58 59q0 31 14 44.5t44 13.5q59 0 59 -58zM168 609q0 -59 -59 -59q-58 0 -58 59q0 31 14 44.5t44 13.5q59 0 59 -58z" />
    <glyph glyph-name="copyright" unicode="&#xa9;" horiz-adv-x="798" 
d="M734 334q0 -101 -15 -164t-54.5 -104.5t-102.5 -57.5t-164 -16q-102 0 -165 16.5t-101.5 58t-53 104.5t-14.5 165q0 200 67.5 269t266.5 69q102 0 165 -15.5t102 -56t54 -103.5t15 -165zM660 337q0 84 -10 132.5t-40 80.5t-79 42.5t-133 10.5q-86 0 -135 -11t-78 -43.5
t-38 -81t-9 -134.5q0 -84 9.5 -132t38.5 -81t78.5 -45t133.5 -12q67 0 111.5 8.5t75 26.5t46.5 51.5t22.5 77t6.5 110.5zM589 258q0 -83 -47 -115t-142 -32q-119 0 -160.5 50t-41.5 173q0 121 42.5 171.5t159.5 50.5q95 0 142 -32t47 -115h-76q0 48 -25.5 62.5t-87.5 14.5
q-80 0 -102 -32t-22 -120q0 -46 3.5 -70t15.5 -45.5t37 -29.5t68 -8q62 0 87.5 14t25.5 63h76z" />
    <glyph glyph-name="ordfeminine" unicode="&#xaa;" horiz-adv-x="386" 
d="M350 336h-67v32q-47 -37 -107 -37q-144 0 -144 106q0 29 9 49.5t22 32t34 18t40 8.5t44 2h94q0 35 -12 46q-18 16 -68 16q-77 0 -77 -36h-75q0 101 158 101q71 0 110 -27t39 -92v-29v-190zM274 482h-95q-39 0 -55.5 -9t-16.5 -36q0 -23 13 -32t55 -9q52 0 75.5 19.5
t23.5 66.5z" />
    <glyph glyph-name="guillemotleft" unicode="&#xab;" horiz-adv-x="508" 
d="M472 99l-72 -67q-78 70 -105 105q-40 53 -40 104q0 30 12.5 60t37.5 60t44 49t50 47l73 -68l-39 -39l-13.5 -13.5l-15 -15t-12.5 -13.5t-12 -15.5l-8 -14.5t-6.5 -18t-1.5 -18q0 -7 1 -14t4.5 -14.5l6 -13t8.5 -13t9.5 -11.5t11.5 -12l11.5 -11.5l13 -12.5l12.5 -12z
M255 99l-72 -67q-78 70 -105 105q-40 53 -40 104q0 30 12.5 60t37.5 60t44 49t50 47l73 -68l-39 -39l-13.5 -13.5l-15 -15t-12.5 -13.5t-12 -15.5l-8 -14.5t-6.5 -18t-1.5 -18q0 -7 1 -14t4.5 -14.5l6 -13t8.5 -13t9.5 -11.5t11.5 -12l11.5 -11.5l13 -12.5l12.5 -12z" />
    <glyph glyph-name="logicalnot" unicode="&#xac;" horiz-adv-x="602" 
d="M569 0h-106v283h-430v102h536v-385z" />
    <glyph glyph-name="registered" unicode="&#xae;" horiz-adv-x="518" 
d="M486 448q0 -72 -10.5 -113t-36.5 -66q-49 -48 -180 -48q-132 0 -181 48q-26 25 -36 66t-10 114t10 114t36 66q46 45 181 45t181 -46t46 -180zM428 450q0 107 -32 137q-33 31 -137 31q-105 0 -138 -31q-31 -29 -31 -140q0 -106 31 -137q33 -33 138 -33q104 0 137 33
q32 32 32 140zM362 318h-54v79q0 19 -4 23.5t-18 5.5h-29h-35v-108h-56v265h94q31 0 46 -2q56 -10 56 -67q0 -43 -28 -59q15 -7 21.5 -19.5t6.5 -45.5v-72zM306 505q0 19 -5 24t-46 5h-35v-58h38q36 0 41 2q7 7 7 27z" />
    <glyph glyph-name="macron" unicode="&#xaf;" horiz-adv-x="440" 
d="M397 569h-355v80h355v-80z" />
    <glyph glyph-name="degree" unicode="&#xb0;" horiz-adv-x="511" 
d="M405 524q0 -80 -36 -117t-113 -37q-78 0 -114 37t-36 117t35.5 115t113.5 35q79 0 114.5 -35t35.5 -115zM331 522q0 45 -15.5 62.5t-60.5 17.5q-44 0 -59.5 -17.5t-15.5 -62.5t15.5 -62.5t59.5 -17.5q45 0 60.5 17.5t15.5 62.5z" />
    <glyph glyph-name="plusminus" unicode="&#xb1;" horiz-adv-x="602" 
d="M569 321h-220v-167h-99v167h-217v102h218v167h98v-167h220v-102zM569 0h-536v102h536v-102z" />
    <glyph glyph-name="twosuperior" unicode="&#xb2;" 
d="M353 553q0 -66 -44 -96q-23 -16 -81.5 -32t-69.5 -25q-12 -10 -12 -40v-25h206v-68h-283v102q0 20 4 36.5t15 28.5t19 20t27.5 15.5t28 10.5t33 9.5t30.5 8.5q32 9 41.5 19t9.5 36q0 32 -13 43.5t-53 11.5q-38 0 -52.5 -8t-14.5 -33h-76q0 61 38 84.5t104 23.5
q71 0 107 -28t36 -94z" />
    <glyph glyph-name="threesuperior" unicode="&#xb3;" 
d="M359 382q0 -59 -33 -91q-35 -32 -115 -32q-67 0 -105 24t-38 87h75q0 -25 15 -34.5t53 -9.5q45 0 58.5 10.5t13.5 44.5q0 38 -13.5 49.5t-56.5 11.5h-60v66h60q39 0 52.5 9.5t13.5 39.5q0 28 -12 39.5t-54 11.5q-40 0 -54 -8.5t-14 -32.5h-74q0 62 37.5 85t104.5 23
q72 0 107 -27t35 -89q0 -68 -38 -84q42 -15 42 -93z" />
    <glyph glyph-name="acute" unicode="&#xb4;" horiz-adv-x="436" 
d="M350 667l-138 -127h-126l138 127h126z" />
    <glyph glyph-name="uni00B5" unicode="&#xb5;" horiz-adv-x="554" 
d="M491 0h-102v37q-50 -45 -132 -45q-57 0 -85 18v-201h-109v679h113v-257v-26.5v-24t0.5 -19.5t2.5 -18.5t5 -14t7.5 -13t11 -8.5t15.5 -7.5t20.5 -3t26.5 -1.5q33 0 55.5 9t34 20t17 35t6 38.5t0.5 47.5v16v227h113v-488z" />
    <glyph glyph-name="paragraph" unicode="&#xb6;" horiz-adv-x="621" 
d="M534 0h-100v566h-60v-566h-100v279q-122 -1 -181.5 39t-59.5 154q0 102 52 147.5t159 47.5h63h227v-667zM274 379v187q-78 0 -103 -15t-25 -76q0 -21 3.5 -36t7.5 -25.5t14.5 -17t17.5 -10t24.5 -5.5t27 -2h33.5z" />
    <glyph glyph-name="periodcentered" unicode="&#xb7;" horiz-adv-x="242" 
d="M190 337q0 -71 -69 -71t-69 71q0 69 69 69t69 -69z" />
    <glyph glyph-name="cedilla" unicode="&#xb8;" horiz-adv-x="440" 
d="M303 -110q0 -83 -88 -83t-88 74h54q0 -15 7.5 -19.5t26.5 -4.5q20 0 25.5 7t5.5 24q0 29 -36 31h-29v81h57v-38q65 -4 65 -72z" />
    <glyph glyph-name="onesuperior" unicode="&#xb9;" 
d="M346 267h-255v68h88v224l-59 -51l-47 53l123 106h60v-332h90v-68z" />
    <glyph glyph-name="ordmasculine" unicode="&#xba;" horiz-adv-x="386" 
d="M356 503q0 -96 -38 -133q-39 -38 -125 -38q-87 0 -126 38q-22 21 -29.5 51t-7.5 82t7.5 82t29.5 51q39 38 126 38q86 0 125 -38q38 -37 38 -133zM280 503q0 61 -14 82t-73 21t-73 -21t-14 -82t14 -82t73 -21t73 21t14 82z" />
    <glyph glyph-name="guillemotright" unicode="&#xbb;" horiz-adv-x="508" 
d="M470 241q0 -24 -11 -50.5t-21 -43t-37 -44t-35.5 -35.5t-40.5 -36l-72 67l30 29l12.5 12l13 12.5l11.5 11.5t11.5 12t9.5 11.5t8.5 13l6 13t4.5 14.5t1 14q0 9 -1.5 18t-6.5 18l-8 14.5t-12 15.5t-12.5 13.5l-15 15l-13.5 13.5l-39 39l73 68q31 -28 50 -47t44 -49
t37.5 -60t12.5 -60zM253 241q0 -24 -11 -50.5t-21 -43t-37 -44t-35.5 -35.5t-40.5 -36l-72 67l30 29l12.5 12l13 12.5l11.5 11.5t11.5 12t9.5 11.5t8.5 13l6 13t4.5 14.5t1 14q0 9 -1.5 18t-6.5 18l-8 14.5t-12 15.5t-12.5 13.5l-15 15l-13.5 13.5l-39 39l73 68
q31 -28 50 -47t44 -49t37.5 -60t12.5 -60z" />
    <glyph glyph-name="onequarter" unicode="&#xbc;" horiz-adv-x="939" 
d="M346 267h-255v68h88v224l-59 -51l-47 53l123 106h60v-332h90v-68zM866 91h-55v-91h-75v91h-179v54l182 255h72v-244h55v-65zM736 156v131l-93 -131h93zM681 667l-337 -667h-85l336 667h86z" />
    <glyph glyph-name="onehalf" unicode="&#xbd;" horiz-adv-x="939" 
d="M346 267h-255v68h88v224l-59 -51l-47 53l123 106h60v-332h90v-68zM867 286q0 -66 -44 -96q-23 -16 -81.5 -32t-69.5 -25q-12 -10 -12 -40v-25h206v-68h-283v102q0 20 4 36.5t15 28.5t19 20t27.5 15.5t28 10.5t33 9.5t30.5 8.5q32 9 41.5 19t9.5 36q0 32 -13 43.5
t-53 11.5q-38 0 -52.5 -8t-14.5 -33h-76q0 61 38 84.5t104 23.5q71 0 107 -28t36 -94zM681 667l-337 -667h-85l336 667h86z" />
    <glyph glyph-name="threequarters" unicode="&#xbe;" horiz-adv-x="939" 
d="M359 382q0 -59 -33 -91q-35 -32 -115 -32q-67 0 -105 24t-38 87h75q0 -25 15 -34.5t53 -9.5q45 0 58.5 10.5t13.5 44.5q0 38 -13.5 49.5t-56.5 11.5h-60v66h60q39 0 52.5 9.5t13.5 39.5q0 28 -12 39.5t-54 11.5q-40 0 -54 -8.5t-14 -32.5h-74q0 62 37.5 85t104.5 23
q72 0 107 -27t35 -89q0 -68 -38 -84q42 -15 42 -93zM866 91h-55v-91h-75v91h-179v54l182 255h72v-244h55v-65zM736 156v131l-93 -131h93zM681 667l-337 -667h-85l336 667h86z" />
    <glyph glyph-name="questiondown" unicode="&#xbf;" horiz-adv-x="464" 
d="M319 425q0 -69 -69 -69t-69 69q0 71 69 71t69 -71zM446 -18q0 -110 -54 -153.5t-157 -43.5q-108 0 -161 44.5t-53 153.5q0 117 84 166q16 9 36 19t27 14t15 13.5t9.5 22.5t1.5 38v42h114v-58q0 -94 -48 -135q-19 -17 -55.5 -31.5t-54 -33t-17.5 -57.5q0 -53 20 -75.5
t80 -22.5t81.5 22.5t21.5 74.5h110z" />
    <glyph glyph-name="Agrave" unicode="&#xc0;" horiz-adv-x="651" 
d="M643 0h-129l-62 170h-260l-61 -170h-123l258 667h121zM416 272l-93 264l-94 -264h187zM445 736h-124l-137 126h124z" />
    <glyph glyph-name="Aacute" unicode="&#xc1;" horiz-adv-x="651" 
d="M643 0h-129l-62 170h-260l-61 -170h-123l258 667h121zM416 272l-93 264l-94 -264h187zM472 862l-138 -127h-126l138 127h126z" />
    <glyph glyph-name="Acircumflex" unicode="&#xc2;" horiz-adv-x="651" 
d="M643 0h-129l-62 170h-260l-61 -170h-123l258 667h121zM416 272l-93 264l-94 -264h187zM511 735h-113l-71 69l-69 -69h-115l129 127h110z" />
    <glyph glyph-name="Atilde" unicode="&#xc3;" horiz-adv-x="651" 
d="M643 0h-129l-62 170h-260l-61 -170h-123l258 667h121zM416 272l-93 264l-94 -264h187zM531 789l-77 -39q-72 -36 -133 2q-6 3 -16.5 10.5t-14.5 9.5t-12.5 5t-15.5 2t-18.5 -4.5t-25.5 -10.5l-58 -29l-39 71l32 16.5t36 18t33 12.5t37.5 8t34.5 -4t38 -15q4 -3 14.5 -9.5
t13.5 -8t11.5 -5t14 -3t14.5 1t19 4.5t23 11l53 27z" />
    <glyph glyph-name="Adieresis" unicode="&#xc4;" horiz-adv-x="651" 
d="M643 0h-129l-62 170h-260l-61 -170h-123l258 667h121zM416 272l-93 264l-94 -264h187zM492 804q0 -59 -59 -59q-58 0 -58 59q0 31 14 44.5t44 13.5q59 0 59 -58zM276 804q0 -59 -59 -59q-58 0 -58 59q0 31 14 44.5t44 13.5q59 0 59 -58z" />
    <glyph glyph-name="Aring" unicode="&#xc5;" horiz-adv-x="651" 
d="M643 0h-129l-62 170h-260l-61 -170h-123l244 634q-48 22 -48 105q0 61 27.5 84.5t93.5 23.5t93.5 -23.5t27.5 -84.5q0 -84 -48 -106zM380 732q0 33 -11 44.5t-44 11.5q-34 0 -44 -11t-10 -45q0 -33 10 -42.5t45 -9.5q33 0 43.5 10t10.5 42zM416 272l-94 264l-93 -264h187
z" />
    <glyph glyph-name="AE" unicode="&#xc6;" horiz-adv-x="950" 
d="M890 0h-419v165h-224l-108 -165h-137l446 667h442v-105h-303v-169h293v-104h-293v-183h303v-106zM471 269v239l-155 -239h155z" />
    <glyph glyph-name="Ccedilla" unicode="&#xc7;" horiz-adv-x="656" 
d="M596 480h-116q0 51 -29 69t-114 18q-99 0 -127 -44t-28 -190t27.5 -189.5t126.5 -43.5q86 0 114.5 17.5t28.5 68.5h116q0 -102 -57 -145.5t-167 -47.5v-31q65 -4 65 -72q0 -83 -88 -83t-88 74h54q0 -15 7.5 -19.5t26.5 -4.5q20 0 25.5 7t5.5 24q0 31 -36 31h-29v74
q-169 8 -219 108q-30 60 -31 200v33q0 36 0.5 56.5t2 52t5.5 49.5t11 43.5t17.5 40.5t25.5 33t36 28t47.5 19.5t61 13.5t75.5 4q123 0 186.5 -43.5t63.5 -150.5z" />
    <glyph glyph-name="Egrave" unicode="&#xc8;" horiz-adv-x="595" 
d="M535 0h-459v667h459v-105h-343v-169h333v-104h-333v-183h343v-106zM411 736h-124l-137 126h124z" />
    <glyph glyph-name="Eacute" unicode="&#xc9;" horiz-adv-x="595" 
d="M535 0h-459v667h459v-105h-343v-169h333v-104h-333v-183h343v-106zM440 862l-138 -127h-126l138 127h126z" />
    <glyph glyph-name="Ecircumflex" unicode="&#xca;" horiz-adv-x="595" 
d="M535 0h-459v667h459v-105h-343v-169h333v-104h-333v-183h343v-106zM486 735h-113l-71 69l-69 -69h-115l129 127h110z" />
    <glyph glyph-name="Edieresis" unicode="&#xcb;" horiz-adv-x="595" 
d="M535 0h-459v667h459v-105h-343v-169h333v-104h-333v-183h343v-106zM469 804q0 -59 -59 -59q-58 0 -58 59q0 31 14 44.5t44 13.5q59 0 59 -58zM253 804q0 -59 -59 -59q-58 0 -58 59q0 31 14 44.5t44 13.5q59 0 59 -58z" />
    <glyph glyph-name="Igrave" unicode="&#xcc;" horiz-adv-x="270" 
d="M194 0h-118v667h118v-667zM264 736h-124l-137 126h124z" />
    <glyph glyph-name="Iacute" unicode="&#xcd;" horiz-adv-x="270" 
d="M194 0h-118v667h118v-667zM271 862l-138 -127h-126l138 127h126z" />
    <glyph glyph-name="Icircumflex" unicode="&#xce;" horiz-adv-x="270" 
d="M194 0h-118v667h118v-667zM319 735h-113l-71 69l-69 -69h-115l129 127h110z" />
    <glyph glyph-name="Idieresis" unicode="&#xcf;" horiz-adv-x="270" 
d="M194 0h-118v667h118v-667zM302 804q0 -59 -59 -59q-58 0 -58 59q0 31 14 44.5t44 13.5q59 0 59 -58zM86 804q0 -59 -59 -59q-58 0 -58 59q0 31 14 44.5t44 13.5q59 0 59 -58z" />
    <glyph glyph-name="Eth" unicode="&#xd0;" horiz-adv-x="687" 
d="M623 333q0 -101 -8.5 -153t-34.5 -90q-35 -51 -91 -70.5t-153 -19.5h-248v283h-70v106h70v278h247q97 0 153 -19.5t91 -71.5q26 -38 35 -90.5t9 -152.5zM505 333q0 56 -3 93.5t-13 63.5t-21 40t-34.5 21.5t-44.5 9t-60 1.5h-125v-173h179v-106h-179v-177h126
q40 0 60.5 1.5t44 8.5t34 21t20.5 39.5t13 63t3 93.5z" />
    <glyph glyph-name="Ntilde" unicode="&#xd1;" horiz-adv-x="660" 
d="M584 0h-121l-277 479v-479h-110v667h120l278 -475v475h110v-667zM535 789l-77 -39q-72 -36 -133 2q-6 3 -16.5 10.5t-14.5 9.5t-12.5 5t-15.5 2t-18.5 -4.5t-25.5 -10.5l-58 -29l-39 71l32 16.5t36 18t33 12.5t37.5 8t34.5 -4t38 -15q4 -3 14.5 -9.5t13.5 -8t11.5 -5
t14 -3t14.5 1t19 4.5t23 11l53 27z" />
    <glyph glyph-name="Ograve" unicode="&#xd2;" horiz-adv-x="677" 
d="M613 335q0 -53 -1.5 -86t-7.5 -73.5t-17 -64.5t-30.5 -49.5t-49 -39t-71.5 -22t-97 -8.5q-184 0 -240 98q-33 59 -35 198v46q0 53 1 81t6 71t15 65t30 49.5t49 41t72.5 23t100.5 9.5q183 0 239 -94q34 -59 36 -196v-49zM495 334q0 146 -28 189.5t-129 43.5
q-100 0 -128 -43.5t-28 -190.5q0 -146 28 -189.5t128 -43.5t128.5 44t28.5 190zM472 736h-124l-137 126h124z" />
    <glyph glyph-name="Oacute" unicode="&#xd3;" horiz-adv-x="677" 
d="M613 335q0 -53 -1.5 -86t-7.5 -73.5t-17 -64.5t-30.5 -49.5t-49 -39t-71.5 -22t-97 -8.5q-184 0 -240 98q-33 59 -35 198v46q0 53 1 81t6 71t15 65t30 49.5t49 41t72.5 23t100.5 9.5q183 0 239 -94q34 -59 36 -196v-49zM495 334q0 146 -28 189.5t-129 43.5
q-100 0 -128 -43.5t-28 -190.5q0 -146 28 -189.5t128 -43.5t128.5 44t28.5 190zM490 862l-138 -127h-126l138 127h126z" />
    <glyph glyph-name="Ocircumflex" unicode="&#xd4;" horiz-adv-x="677" 
d="M613 335q0 -53 -1.5 -86t-7.5 -73.5t-17 -64.5t-30.5 -49.5t-49 -39t-71.5 -22t-97 -8.5q-184 0 -240 98q-33 59 -35 198v46q0 53 1 81t6 71t15 65t30 49.5t49 41t72.5 23t100.5 9.5q183 0 239 -94q34 -59 36 -196v-49zM495 334q0 146 -28 189.5t-129 43.5
q-100 0 -128 -43.5t-28 -190.5q0 -146 28 -189.5t128 -43.5t128.5 44t28.5 190zM522 735h-113l-71 69l-69 -69h-115l129 127h110z" />
    <glyph glyph-name="Otilde" unicode="&#xd5;" horiz-adv-x="677" 
d="M613 335q0 -53 -1.5 -86t-7.5 -73.5t-17 -64.5t-30.5 -49.5t-49 -39t-71.5 -22t-97 -8.5q-184 0 -240 98q-33 59 -35 198v46q0 53 1 81t6 71t15 65t30 49.5t49 41t72.5 23t100.5 9.5q183 0 239 -94q34 -59 36 -196v-49zM495 334q0 146 -28 189.5t-129 43.5
q-100 0 -128 -43.5t-28 -190.5q0 -146 28 -189.5t128 -43.5t128.5 44t28.5 190zM542 789l-77 -39q-72 -36 -133 2q-6 3 -16.5 10.5t-14.5 9.5t-12.5 5t-15.5 2t-18.5 -4.5t-25.5 -10.5l-58 -29l-39 71l32 16.5t36 18t33 12.5t37.5 8t34.5 -4t38 -15q4 -3 14.5 -9.5t13.5 -8
t11.5 -5t14 -3t14.5 1t19 4.5t23 11l53 27z" />
    <glyph glyph-name="Odieresis" unicode="&#xd6;" horiz-adv-x="677" 
d="M613 335q0 -53 -1.5 -86t-7.5 -73.5t-17 -64.5t-30.5 -49.5t-49 -39t-71.5 -22t-97 -8.5q-184 0 -240 98q-33 59 -35 198v46q0 53 1 81t6 71t15 65t30 49.5t49 41t72.5 23t100.5 9.5q183 0 239 -94q34 -59 36 -196v-49zM495 334q0 146 -28 189.5t-129 43.5
q-100 0 -128 -43.5t-28 -190.5q0 -146 28 -189.5t128 -43.5t128.5 44t28.5 190zM511 804q0 -59 -59 -59q-58 0 -58 59q0 31 14 44.5t44 13.5q59 0 59 -58zM295 804q0 -59 -59 -59q-58 0 -58 59q0 31 14 44.5t44 13.5q59 0 59 -58z" />
    <glyph glyph-name="multiply" unicode="&#xd7;" horiz-adv-x="595" 
d="M536 84l-70 -70l-169 169l-168 -169l-70 70l169 168l-169 169l70 70l168 -169l169 169l70 -70l-169 -169z" />
    <glyph glyph-name="Oslash" unicode="&#xd8;" horiz-adv-x="677" 
d="M613 333q0 -40 -0.5 -65t-3.5 -58.5t-8 -54.5t-14.5 -46.5t-23.5 -41t-34.5 -31.5t-47.5 -24.5t-62.5 -14t-79.5 -5.5q-20 0 -33 1l-33 -138l-96 22l34 131q-31 8 -54.5 23.5t-39 31.5t-26 43.5t-16 48t-8 57t-3 58t-0.5 63.5q0 145 17 201q29 97 132 125q53 15 128 15
q25 0 28 -1l33 136l95 -24l-33 -126q36 -9 62.5 -25.5t42.5 -43.5t25.5 -50t13 -63t4.5 -63t1 -68v-13zM495 336q0 65 -5 108t-15.5 64t-18 28.5t-21.5 14.5l-108 -451h21q51 0 80.5 12.5t44 45t18.5 70.5t4 108zM347 567q-56 0 -85.5 -7t-49 -34t-25 -71.5t-5.5 -127.5
q0 -103 12 -146.5t43 -62.5z" />
    <glyph glyph-name="Ugrave" unicode="&#xd9;" horiz-adv-x="652" 
d="M580 335q0 -109 -2 -140q-11 -203 -252 -203t-252 203q-2 31 -2 140v332h118v-332q0 -129 6 -159q12 -54 60 -68q26 -8 70 -8q30 0 51 3.5t36 10.5t24.5 18t15 26.5t7.5 36t2.5 46t-0.5 55.5v39v332h118v-332zM446 736h-124l-137 126h124z" />
    <glyph glyph-name="Uacute" unicode="&#xda;" horiz-adv-x="652" 
d="M580 335q0 -109 -2 -140q-11 -203 -252 -203t-252 203q-2 31 -2 140v332h118v-332q0 -129 6 -159q12 -54 60 -68q26 -8 70 -8q30 0 51 3.5t36 10.5t24.5 18t15 26.5t7.5 36t2.5 46t-0.5 55.5v39v332h118v-332zM477 862l-138 -127h-126l138 127h126z" />
    <glyph glyph-name="Ucircumflex" unicode="&#xdb;" horiz-adv-x="652" 
d="M580 335q0 -109 -2 -140q-11 -203 -252 -203t-252 203q-2 31 -2 140v332h118v-332q0 -129 6 -159q12 -54 60 -68q26 -8 70 -8q30 0 51 3.5t36 10.5t24.5 18t15 26.5t7.5 36t2.5 46t-0.5 55.5v39v332h118v-332zM515 735h-113l-71 69l-69 -69h-115l129 127h110z" />
    <glyph glyph-name="Udieresis" unicode="&#xdc;" horiz-adv-x="652" 
d="M580 335q0 -109 -2 -140q-11 -203 -252 -203t-252 203q-2 31 -2 140v332h118v-332q0 -129 6 -159q12 -54 60 -68q26 -8 70 -8q30 0 51 3.5t36 10.5t24.5 18t15 26.5t7.5 36t2.5 46t-0.5 55.5v39v332h118v-332zM496 804q0 -59 -59 -59q-58 0 -58 59q0 31 14 44.5t44 13.5
q59 0 59 -58zM280 804q0 -59 -59 -59q-58 0 -58 59q0 31 14 44.5t44 13.5q59 0 59 -58z" />
    <glyph glyph-name="Yacute" unicode="&#xdd;" horiz-adv-x="611" 
d="M609 667l-245 -379v-288h-118v288l-244 379h137l168 -274l167 274h135zM450 862l-138 -127h-126l138 127h126z" />
    <glyph glyph-name="Thorn" unicode="&#xde;" horiz-adv-x="620" 
d="M585 338q0 -56 -15 -94.5t-37 -59.5t-62 -32t-73.5 -13.5t-87.5 -2.5h-116v-136h-118v667h118v-130h115q34 0 55.5 -0.5t51 -3.5t48 -8.5t40 -15t34.5 -24.5t24.5 -35t17 -48.5t5.5 -63.5zM467 336q0 68 -42 87q-23 9 -118 9h-113v-190h114q96 0 117 9q42 19 42 85z" />
    <glyph glyph-name="germandbls" unicode="&#xdf;" horiz-adv-x="570" 
d="M512 195q0 -51 -13.5 -88t-33.5 -57.5t-52.5 -32t-62 -15t-69.5 -3.5h-47v102h49q70 0 93 20t23 80q0 69 -23.5 89t-100.5 20h-41v102h41q31 0 48 2.5t35.5 11t27 29t8.5 53.5q0 56 -20.5 75t-90.5 19q-32 0 -53 -7t-32 -15.5t-16.5 -28.5t-6 -33t-0.5 -42v-476h-113v473
v18v19.5t0.5 18t1.5 19.5t2.5 17t4 18.5t6 16.5t7.5 17.5t10.5 15t13.5 15.5q57 56 175 56q113 0 167.5 -43.5t54.5 -143.5q0 -127 -69 -154q76 -30 76 -168z" />
    <glyph glyph-name="agrave" unicode="&#xe0;" horiz-adv-x="541" 
d="M485 0h-101v40q-55 -48 -152 -48q-93 0 -141.5 35.5t-48.5 120.5q0 41 12 71t30.5 46.5t48 26t55.5 12t62 2.5h125q0 55 -17 74.5t-86 19.5q-22 0 -36 -1.5t-32.5 -6t-28 -16.5t-9.5 -30h-110q0 45 18 76t51.5 46.5t69.5 21.5t83 6q207 0 207 -178v-318zM377 214h-131
q-53 0 -72 -13t-19 -51q0 -34 20 -49.5t75 -15.5q81 0 104 29t23 100zM395 541h-124l-137 126h124z" />
    <glyph glyph-name="aacute" unicode="&#xe1;" horiz-adv-x="541" 
d="M485 0h-101v40q-55 -48 -152 -48q-93 0 -141.5 35.5t-48.5 120.5q0 41 12 71t30.5 46.5t48 26t55.5 12t62 2.5h125q0 55 -17 74.5t-86 19.5q-22 0 -36 -1.5t-32.5 -6t-28 -16.5t-9.5 -30h-110q0 45 18 76t51.5 46.5t69.5 21.5t83 6q207 0 207 -178v-318zM377 214h-131
q-53 0 -72 -13t-19 -51q0 -34 20 -49.5t75 -15.5q81 0 104 29t23 100zM430 667l-138 -127h-126l138 127h126z" />
    <glyph glyph-name="acircumflex" unicode="&#xe2;" horiz-adv-x="541" 
d="M485 0h-101v40q-55 -48 -152 -48q-93 0 -141.5 35.5t-48.5 120.5q0 41 12 71t30.5 46.5t48 26t55.5 12t62 2.5h125q0 55 -17 74.5t-86 19.5q-22 0 -36 -1.5t-32.5 -6t-28 -16.5t-9.5 -30h-110q0 45 18 76t51.5 46.5t69.5 21.5t83 6q207 0 207 -178v-318zM377 214h-131
q-53 0 -72 -13t-19 -51q0 -34 20 -49.5t75 -15.5q81 0 104 29t23 100zM461 540h-113l-71 69l-69 -69h-115l129 127h110z" />
    <glyph glyph-name="atilde" unicode="&#xe3;" horiz-adv-x="541" 
d="M485 0h-101v40q-55 -48 -152 -48q-93 0 -141.5 35.5t-48.5 120.5q0 41 12 71t30.5 46.5t48 26t55.5 12t62 2.5h125q0 55 -17 74.5t-86 19.5q-22 0 -36 -1.5t-32.5 -6t-28 -16.5t-9.5 -30h-110q0 45 18 76t51.5 46.5t69.5 21.5t83 6q207 0 207 -178v-318zM377 214h-131
q-53 0 -72 -13t-19 -51q0 -34 20 -49.5t75 -15.5q81 0 104 29t23 100zM482 596l-77 -39q-72 -36 -133 2q-6 3 -16.5 10.5t-14.5 9.5t-12.5 5t-15.5 2t-18.5 -4.5t-25.5 -10.5l-58 -29l-39 71l32 16.5t36 18t33 12.5t37.5 8t34.5 -4t38 -15q4 -3 14.5 -9.5t13.5 -8t11.5 -5
t14 -3t14.5 1t19 4.5t23 11l53 27z" />
    <glyph glyph-name="adieresis" unicode="&#xe4;" horiz-adv-x="541" 
d="M485 0h-101v40q-55 -48 -152 -48q-93 0 -141.5 35.5t-48.5 120.5q0 41 12 71t30.5 46.5t48 26t55.5 12t62 2.5h125q0 55 -17 74.5t-86 19.5q-22 0 -36 -1.5t-32.5 -6t-28 -16.5t-9.5 -30h-110q0 45 18 76t51.5 46.5t69.5 21.5t83 6q207 0 207 -178v-318zM377 214h-131
q-53 0 -72 -13t-19 -51q0 -34 20 -49.5t75 -15.5q81 0 104 29t23 100zM443 609q0 -59 -59 -59q-58 0 -58 59q0 31 14 44.5t44 13.5q59 0 59 -58zM227 609q0 -59 -59 -59q-58 0 -58 59q0 31 14 44.5t44 13.5q59 0 59 -58z" />
    <glyph glyph-name="aring" unicode="&#xe5;" horiz-adv-x="541" 
d="M485 0h-101v40q-55 -48 -152 -48q-93 0 -141.5 35.5t-48.5 120.5q0 41 12 71t30.5 46.5t48 26t55.5 12t62 2.5h125q0 55 -17 74.5t-86 19.5q-22 0 -36 -1.5t-32.5 -6t-28 -16.5t-9.5 -30h-110q0 111 113 139q-16 20 -16 74q0 60 28 84t94 24t94 -24t28 -84q0 -54 -16 -74
q104 -35 104 -167v-318zM330 549q0 34 -11 46.5t-44 12.5t-43.5 -12.5t-10.5 -46.5q0 -33 10.5 -44t44.5 -11q33 0 43.5 11t10.5 44zM377 214h-131q-53 0 -72 -13t-19 -51q0 -34 20 -49.5t75 -15.5q81 0 104 29t23 100z" />
    <glyph glyph-name="ae" unicode="&#xe6;" horiz-adv-x="870" 
d="M821 206h-335q0 -66 24 -93.5t94 -27.5q104 0 105 61h106q0 -154 -214 -154q-120 0 -171 57q-55 -57 -194 -57q-94 0 -144 34.5t-50 118.5q0 41 12.5 70.5t31.5 45.5t49 25t56 11t62 2h126q0 59 -19.5 80t-86.5 21q-22 0 -36.5 -1.5t-33 -6t-28 -16.5t-9.5 -30h-110
q0 150 212 150q127 0 175 -54q51 54 155 54q60 0 101.5 -14t65 -36t36.5 -62t16.5 -78.5t3.5 -99.5zM709 298q0 57 -22.5 81.5t-88.5 24.5q-63 0 -86.5 -26.5t-23.5 -79.5h221zM380 206h-132q-54 0 -73.5 -11.5t-19.5 -48.5q0 -33 21 -47t76 -14q44 0 69 5.5t38 22t16.5 36
t4.5 57.5z" />
    <glyph glyph-name="ccedilla" unicode="&#xe7;" horiz-adv-x="528" 
d="M481 146q0 -143 -177 -153v-31q65 -4 65 -72q0 -83 -88 -83t-88 74h54q0 -15 7.5 -19.5t26.5 -4.5q20 0 25.5 7t5.5 24q0 29 -36 31h-29v74q-52 2 -89 17t-58 37t-32.5 57t-15 66.5t-3.5 75.5q0 47 3.5 79.5t17 67.5t37 55.5t65.5 34t101 13.5q208 0 208 -154h-107
q0 19 -9 31t-26.5 16.5t-29.5 5.5t-33 1q-73 0 -93.5 -31.5t-20.5 -120.5t20.5 -120.5t93.5 -31.5q21 0 33 1t29.5 5.5t26.5 16.5t9 31h107z" />
    <glyph glyph-name="egrave" unicode="&#xe8;" horiz-adv-x="545" 
d="M496 201h-334q0 -65 24 -90.5t94 -25.5q103 0 104 61h106q0 -154 -214 -154q-71 0 -117.5 17.5t-69.5 53t-31.5 76t-8.5 99.5q0 48 4.5 83t18 70t37.5 56.5t65.5 35t98.5 13.5q45 0 79.5 -8t58 -20.5t39.5 -35t25 -43.5t14 -55.5t6 -62t1 -70.5zM384 293q0 31 -2.5 47.5
t-13 33t-34 23t-61.5 6.5q-68 0 -88.5 -26.5t-20.5 -83.5h220zM395 541h-124l-137 126h124z" />
    <glyph glyph-name="eacute" unicode="&#xe9;" horiz-adv-x="545" 
d="M496 201h-334q0 -65 24 -90.5t94 -25.5q103 0 104 61h106q0 -154 -214 -154q-71 0 -117.5 17.5t-69.5 53t-31.5 76t-8.5 99.5q0 48 4.5 83t18 70t37.5 56.5t65.5 35t98.5 13.5q45 0 79.5 -8t58 -20.5t39.5 -35t25 -43.5t14 -55.5t6 -62t1 -70.5zM384 293q0 31 -2.5 47.5
t-13 33t-34 23t-61.5 6.5q-68 0 -88.5 -26.5t-20.5 -83.5h220zM419 667l-138 -127h-126l138 127h126z" />
    <glyph glyph-name="ecircumflex" unicode="&#xea;" horiz-adv-x="545" 
d="M496 201h-334q0 -65 24 -90.5t94 -25.5q103 0 104 61h106q0 -154 -214 -154q-71 0 -117.5 17.5t-69.5 53t-31.5 76t-8.5 99.5q0 48 4.5 83t18 70t37.5 56.5t65.5 35t98.5 13.5q45 0 79.5 -8t58 -20.5t39.5 -35t25 -43.5t14 -55.5t6 -62t1 -70.5zM384 293q0 31 -2.5 47.5
t-13 33t-34 23t-61.5 6.5q-68 0 -88.5 -26.5t-20.5 -83.5h220zM460 540h-113l-71 69l-69 -69h-115l129 127h110z" />
    <glyph glyph-name="edieresis" unicode="&#xeb;" horiz-adv-x="545" 
d="M496 201h-334q0 -65 24 -90.5t94 -25.5q103 0 104 61h106q0 -154 -214 -154q-71 0 -117.5 17.5t-69.5 53t-31.5 76t-8.5 99.5q0 48 4.5 83t18 70t37.5 56.5t65.5 35t98.5 13.5q45 0 79.5 -8t58 -20.5t39.5 -35t25 -43.5t14 -55.5t6 -62t1 -70.5zM384 293q0 31 -2.5 47.5
t-13 33t-34 23t-61.5 6.5q-68 0 -88.5 -26.5t-20.5 -83.5h220zM442 609q0 -59 -59 -59q-58 0 -58 59q0 31 14 44.5t44 13.5q59 0 59 -58zM226 609q0 -59 -59 -59q-58 0 -58 59q0 31 14 44.5t44 13.5q59 0 59 -58z" />
    <glyph glyph-name="igrave" unicode="&#xec;" horiz-adv-x="239" 
d="M176 0h-113v488h113v-488zM243 541h-124l-137 126h124z" />
    <glyph glyph-name="iacute" unicode="&#xed;" horiz-adv-x="239" 
d="M267 667l-138 -127h-126l138 127h126zM176 0h-113v488h113v-488z" />
    <glyph glyph-name="icircumflex" unicode="&#xee;" horiz-adv-x="239" 
d="M176 0h-113v488h113v-488zM304 540h-113l-71 69l-69 -69h-115l129 127h110z" />
    <glyph glyph-name="idieresis" unicode="&#xef;" horiz-adv-x="239" 
d="M176 0h-113v488h113v-488zM286 609q0 -59 -59 -59q-58 0 -58 59q0 31 14 44.5t44 13.5q59 0 59 -58zM70 609q0 -59 -59 -59q-58 0 -58 59q0 31 14 44.5t44 13.5q59 0 59 -58z" />
    <glyph glyph-name="eth" unicode="&#xf0;" horiz-adv-x="559" 
d="M510 243q0 -77 -10.5 -120.5t-41.5 -73.5q-57 -57 -179 -57q-123 0 -180 57q-30 29 -39.5 72.5t-10.5 122.5q0 43 3 73t15.5 64.5t36 55.5t66 35t103.5 14l-88 88l-55 -46l-55 57l54 46l-42 43l74 65l46 -44l51 45l57 -57l-50 -43q26 -28 65.5 -66.5l61 -60t47.5 -54
t39 -61t22.5 -68.5t9.5 -87zM397 243q0 90 -28 119t-102 29q-68 0 -87.5 -32.5t-19.5 -115.5q0 -33 1 -50.5t4.5 -37.5t11 -29t21 -18t33 -11.5t48.5 -2.5t48.5 3t33 11.5t20.5 17.5t10.5 29t4.5 37.5t1 50.5z" />
    <glyph glyph-name="ntilde" unicode="&#xf1;" horiz-adv-x="547" 
d="M491 0h-113v257v26v25t-0.5 20t-2.5 19t-5 14.5t-7.5 13t-11 9t-15.5 7.5t-20.5 3t-26.5 2q-24 0 -42.5 -5t-30 -11t-20 -20t-12.5 -22.5t-6 -29.5t-2 -30.5v-34.5v-16v-227h-113v488h98v-39q53 47 141 47q40 0 70.5 -7.5t50 -17t33.5 -29.5t20.5 -34.5t10 -42t4 -42.5
t0.5 -45v-12v-266zM481 596l-77 -39q-72 -36 -133 2q-6 3 -16.5 10.5t-14.5 9.5t-12.5 5t-15.5 2t-18.5 -4.5t-25.5 -10.5l-58 -29l-39 71l32 16.5t36 18t33 12.5t37.5 8t34.5 -4t38 -15q4 -3 14.5 -9.5t13.5 -8t11.5 -5t14 -3t14.5 1t19 4.5t23 11l53 27z" />
    <glyph glyph-name="ograve" unicode="&#xf2;" horiz-adv-x="562" 
d="M513 244q0 -76 -11 -122t-41 -75q-56 -55 -180 -55t-180 55q-30 29 -41 75t-11 122t11 122t41 75q56 55 180 55t180 -55q30 -29 41 -75t11 -122zM400 244q0 89 -21 120.5t-98 31.5t-98 -31.5t-21 -120.5t21 -120.5t98 -31.5t98 31.5t21 120.5zM424 541h-124l-137 126h124
z" />
    <glyph glyph-name="oacute" unicode="&#xf3;" horiz-adv-x="562" 
d="M513 244q0 -76 -11 -122t-41 -75q-56 -55 -180 -55t-180 55q-30 29 -41 75t-11 122t11 122t41 75q56 55 180 55t180 -55q30 -29 41 -75t11 -122zM400 244q0 89 -21 120.5t-98 31.5t-98 -31.5t-21 -120.5t21 -120.5t98 -31.5t98 31.5t21 120.5zM442 667l-138 -127h-126
l138 127h126z" />
    <glyph glyph-name="ocircumflex" unicode="&#xf4;" horiz-adv-x="562" 
d="M513 244q0 -76 -11 -122t-41 -75q-56 -55 -180 -55t-180 55q-30 29 -41 75t-11 122t11 122t41 75q56 55 180 55t180 -55q30 -29 41 -75t11 -122zM400 244q0 89 -21 120.5t-98 31.5t-98 -31.5t-21 -120.5t21 -120.5t98 -31.5t98 31.5t21 120.5zM469 540h-113l-71 69
l-69 -69h-115l129 127h110z" />
    <glyph glyph-name="otilde" unicode="&#xf5;" horiz-adv-x="562" 
d="M513 244q0 -76 -11 -122t-41 -75q-56 -55 -180 -55t-180 55q-30 29 -41 75t-11 122t11 122t41 75q56 55 180 55t180 -55q30 -29 41 -75t11 -122zM400 244q0 89 -21 120.5t-98 31.5t-98 -31.5t-21 -120.5t21 -120.5t98 -31.5t98 31.5t21 120.5zM490 596l-77 -39
q-72 -36 -133 2q-6 3 -16.5 10.5t-14.5 9.5t-12.5 5t-15.5 2t-18.5 -4.5t-25.5 -10.5l-58 -29l-39 71l32 16.5t36 18t33 12.5t37.5 8t34.5 -4t38 -15q4 -3 14.5 -9.5t13.5 -8t11.5 -5t14 -3t14.5 1t19 4.5t23 11l53 27z" />
    <glyph glyph-name="odieresis" unicode="&#xf6;" horiz-adv-x="562" 
d="M513 244q0 -76 -11 -122t-41 -75q-56 -55 -180 -55t-180 55q-30 29 -41 75t-11 122t11 122t41 75q56 55 180 55t180 -55q30 -29 41 -75t11 -122zM400 244q0 89 -21 120.5t-98 31.5t-98 -31.5t-21 -120.5t21 -120.5t98 -31.5t98 31.5t21 120.5zM453 609q0 -59 -59 -59
q-58 0 -58 59q0 31 14 44.5t44 13.5q59 0 59 -58zM237 609q0 -59 -59 -59q-58 0 -58 59q0 31 14 44.5t44 13.5q59 0 59 -58z" />
    <glyph glyph-name="divide" unicode="&#xf7;" horiz-adv-x="612" 
d="M380 427q0 -71 -69 -71t-69 71q0 69 69 69t69 -69zM574 193h-536v102h536v-102zM380 63q0 -71 -69 -71t-69 71q0 69 69 69t69 -69z" />
    <glyph glyph-name="oslash" unicode="&#xf8;" horiz-adv-x="562" 
d="M513 242q0 -76 -11.5 -121t-41.5 -75q-54 -54 -181 -54q-10 0 -46 3l-37 -97l-84 32l34 87q-23 11 -46 32q-32 29 -41.5 73t-9.5 118q0 77 11 124t43 79q54 53 180 53q21 0 45 -2l33 86l86 -32l-31 -79q23 -6 47 -30q31 -31 40.5 -74.5t9.5 -122.5zM400 243q0 62 -5.5 86
t-18.5 40l-107 -277h15q71 0 93.5 30.5t22.5 120.5zM294 396h-18q-69 0 -91.5 -29.5t-22.5 -121.5q0 -47 4 -74.5t8 -34.5t13 -17z" />
    <glyph glyph-name="ugrave" unicode="&#xf9;" horiz-adv-x="547" 
d="M484 0h-98v39q-53 -47 -141 -47q-40 0 -70.5 7.5t-50 17t-33.5 29.5t-20.5 34.5t-10 42t-4 42.5t-0.5 45v12v266h113v-257v-26v-25t0.5 -20t2.5 -19t5 -14.5t7.5 -13t11 -9t15.5 -7.5t20.5 -3t26.5 -2q24 0 42.5 5t30 11t20 20t12.5 22.5t6 29.5t2 30.5v34.5v16v227h113
v-488zM408 541h-124l-137 126h124z" />
    <glyph glyph-name="uacute" unicode="&#xfa;" horiz-adv-x="547" 
d="M484 0h-98v39q-53 -47 -141 -47q-40 0 -70.5 7.5t-50 17t-33.5 29.5t-20.5 34.5t-10 42t-4 42.5t-0.5 45v12v266h113v-257v-26v-25t0.5 -20t2.5 -19t5 -14.5t7.5 -13t11 -9t15.5 -7.5t20.5 -3t26.5 -2q24 0 42.5 5t30 11t20 20t12.5 22.5t6 29.5t2 30.5v34.5v16v227h113
v-488zM430 667l-138 -127h-126l138 127h126z" />
    <glyph glyph-name="ucircumflex" unicode="&#xfb;" horiz-adv-x="547" 
d="M484 0h-98v39q-53 -47 -141 -47q-40 0 -70.5 7.5t-50 17t-33.5 29.5t-20.5 34.5t-10 42t-4 42.5t-0.5 45v12v266h113v-257v-26v-25t0.5 -20t2.5 -19t5 -14.5t7.5 -13t11 -9t15.5 -7.5t20.5 -3t26.5 -2q24 0 42.5 5t30 11t20 20t12.5 22.5t6 29.5t2 30.5v34.5v16v227h113
v-488zM456 540h-113l-71 69l-69 -69h-115l129 127h110z" />
    <glyph glyph-name="udieresis" unicode="&#xfc;" horiz-adv-x="547" 
d="M484 0h-98v39q-53 -47 -141 -47q-40 0 -70.5 7.5t-50 17t-33.5 29.5t-20.5 34.5t-10 42t-4 42.5t-0.5 45v12v266h113v-257v-26v-25t0.5 -20t2.5 -19t5 -14.5t7.5 -13t11 -9t15.5 -7.5t20.5 -3t26.5 -2q24 0 42.5 5t30 11t20 20t12.5 22.5t6 29.5t2 30.5v34.5v16v227h113
v-488zM442 609q0 -59 -59 -59q-58 0 -58 59q0 31 14 44.5t44 13.5q59 0 59 -58zM226 609q0 -59 -59 -59q-58 0 -58 59q0 31 14 44.5t44 13.5q59 0 59 -58z" />
    <glyph glyph-name="yacute" unicode="&#xfd;" horiz-adv-x="519" 
d="M502 488l-263 -678h-119l83 202l-186 476h120l125 -351l120 351h120zM417 667l-138 -127h-126l138 127h126z" />
    <glyph glyph-name="thorn" unicode="&#xfe;" horiz-adv-x="563" 
d="M514 243q0 -41 -3.5 -72t-16 -66.5t-34.5 -58.5t-61.5 -38.5t-94.5 -15.5q-87 0 -128 43v-226h-113v888h102v-248q56 49 152 47q64 -1 104 -17.5t60 -52.5t26.5 -77t6.5 -106zM401 243q0 88 -20.5 120.5t-81.5 32.5q-73 0 -98.5 -31t-25.5 -122t25.5 -121t98.5 -30
q62 0 82 31.5t20 119.5z" />
    <glyph glyph-name="ydieresis" unicode="&#xff;" horiz-adv-x="519" 
d="M502 488l-263 -678h-119l83 202l-186 476h120l125 -351l120 351h120zM419 609q0 -59 -59 -59q-58 0 -58 59q0 31 14 44.5t44 13.5q59 0 59 -58zM203 609q0 -59 -59 -59q-58 0 -58 59q0 31 14 44.5t44 13.5q59 0 59 -58z" />
    <glyph glyph-name="Amacron" unicode="&#x100;" horiz-adv-x="651" 
d="M643 0h-129l-62 170h-260l-61 -170h-123l258 667h121zM416 272l-93 264l-94 -264h187zM503 777h-355v80h355v-80z" />
    <glyph glyph-name="amacron" unicode="&#x101;" horiz-adv-x="541" 
d="M485 0h-101v40q-55 -48 -152 -48q-93 0 -141.5 35.5t-48.5 120.5q0 41 12 71t30.5 46.5t48 26t55.5 12t62 2.5h125q0 55 -17 74.5t-86 19.5q-22 0 -36 -1.5t-32.5 -6t-28 -16.5t-9.5 -30h-110q0 45 18 76t51.5 46.5t69.5 21.5t83 6q207 0 207 -178v-318zM377 214h-131
q-53 0 -72 -13t-19 -51q0 -34 20 -49.5t75 -15.5q81 0 104 29t23 100zM455 569h-355v80h355v-80z" />
    <glyph glyph-name="Abreve" unicode="&#x102;" horiz-adv-x="651" 
d="M643 0h-129l-62 170h-260l-61 -170h-123l258 667h121zM416 272l-93 264l-94 -264h187zM472 867q0 -75 -32 -103t-115 -28t-115 28t-32 103h70q0 -40 19 -52.5t58 -12.5t58 12.5t19 52.5h70z" />
    <glyph glyph-name="abreve" unicode="&#x103;" horiz-adv-x="541" 
d="M485 0h-101v40q-55 -48 -152 -48q-93 0 -141.5 35.5t-48.5 120.5q0 41 12 71t30.5 46.5t48 26t55.5 12t62 2.5h125q0 55 -17 74.5t-86 19.5q-22 0 -36 -1.5t-32.5 -6t-28 -16.5t-9.5 -30h-110q0 45 18 76t51.5 46.5t69.5 21.5t83 6q207 0 207 -178v-318zM377 214h-131
q-53 0 -72 -13t-19 -51q0 -34 20 -49.5t75 -15.5q81 0 104 29t23 100zM424 667q0 -75 -32 -103t-115 -28t-115 28t-32 103h70q0 -40 19 -52.5t58 -12.5t58 12.5t19 52.5h70z" />
    <glyph glyph-name="Aogonek" unicode="&#x104;" horiz-adv-x="651" 
d="M416 272l-93 264l-94 -264h187zM660 -161v-78q-27 -6 -56 -6q-67 0 -113 32t-46 100q0 73 68 117l-61 166h-260l-61 -170h-123l258 667h121l256 -667q-104 -48 -104 -104q0 -59 83 -59q16 0 38 2z" />
    <glyph glyph-name="aogonek" unicode="&#x105;" horiz-adv-x="541" 
d="M377 214h-131q-53 0 -72 -13t-19 -51q0 -34 20 -49.5t75 -15.5q81 0 104 29t23 100zM483 -163l24 1v-80q-16 -3 -45 -3q-64 0 -109 32.5t-45 99.5q0 79 76 124v29q-55 -48 -152 -48q-93 0 -141.5 35.5t-48.5 120.5q0 41 12 71t30.5 46.5t48 26t55.5 12t62 2.5h125
q0 55 -17 74.5t-86 19.5q-22 0 -36 -1.5t-32.5 -6t-28 -16.5t-9.5 -30h-110q0 45 18 76t51.5 46.5t69.5 21.5t83 6q207 0 207 -178v-318q-46 -25 -65.5 -47t-19.5 -57q0 -59 83 -59z" />
    <glyph glyph-name="Cacute" unicode="&#x106;" horiz-adv-x="656" 
d="M596 480h-116q0 51 -29 69t-114 18q-99 0 -127 -44t-28 -190t27.5 -189.5t126.5 -43.5q86 0 114.5 17.5t28.5 68.5h116q0 -107 -63.5 -150.5t-186.5 -43.5q-46 0 -83 6t-65 14.5t-49 26t-35 32.5t-23.5 42.5t-14.5 46.5t-7.5 54.5t-3 57t-0.5 62.5q0 36 0.5 56.5t2 52
t5.5 49.5t11 43.5t17.5 40.5t25.5 33t36 28t47.5 19.5t61 13.5t75.5 4q123 0 186.5 -43.5t63.5 -150.5zM468 862l-138 -127h-126l138 127h126z" />
    <glyph glyph-name="cacute" unicode="&#x107;" horiz-adv-x="528" 
d="M481 146q0 -154 -208 -154q-59 0 -101 14t-65.5 35t-37 56.5t-17 68.5t-3.5 80t3.5 79.5t17 67.5t37 55.5t65.5 34t101 13.5q208 0 208 -154h-107q0 19 -9 31t-26.5 16.5t-29.5 5.5t-33 1q-73 0 -93.5 -31.5t-20.5 -120.5t20.5 -120.5t93.5 -31.5q21 0 33 1t29.5 5.5
t26.5 16.5t9 31h107zM398 667l-138 -127h-126l138 127h126z" />
    <glyph glyph-name="Ccircumflex" unicode="&#x108;" horiz-adv-x="656" 
d="M596 480h-116q0 51 -29 69t-114 18q-99 0 -127 -44t-28 -190t27.5 -189.5t126.5 -43.5q86 0 114.5 17.5t28.5 68.5h116q0 -107 -63.5 -150.5t-186.5 -43.5q-46 0 -83 6t-65 14.5t-49 26t-35 32.5t-23.5 42.5t-14.5 46.5t-7.5 54.5t-3 57t-0.5 62.5q0 36 0.5 56.5t2 52
t5.5 49.5t11 43.5t17.5 40.5t25.5 33t36 28t47.5 19.5t61 13.5t75.5 4q123 0 186.5 -43.5t63.5 -150.5zM522 735h-113l-71 69l-69 -69h-115l129 127h110z" />
    <glyph glyph-name="ccircumflex" unicode="&#x109;" horiz-adv-x="528" 
d="M481 146q0 -154 -208 -154q-59 0 -101 14t-65.5 35t-37 56.5t-17 68.5t-3.5 80t3.5 79.5t17 67.5t37 55.5t65.5 34t101 13.5q208 0 208 -154h-107q0 19 -9 31t-26.5 16.5t-29.5 5.5t-33 1q-73 0 -93.5 -31.5t-20.5 -120.5t20.5 -120.5t93.5 -31.5q21 0 33 1t29.5 5.5
t26.5 16.5t9 31h107zM458 540h-113l-71 69l-69 -69h-115l129 127h110z" />
    <glyph glyph-name="Cdotaccent" unicode="&#x10a;" horiz-adv-x="656" 
d="M596 480h-116q0 51 -29 69t-114 18q-99 0 -127 -44t-28 -190t27.5 -189.5t126.5 -43.5q86 0 114.5 17.5t28.5 68.5h116q0 -107 -63.5 -150.5t-186.5 -43.5q-46 0 -83 6t-65 14.5t-49 26t-35 32.5t-23.5 42.5t-14.5 46.5t-7.5 54.5t-3 57t-0.5 62.5q0 36 0.5 56.5t2 52
t5.5 49.5t11 43.5t17.5 40.5t25.5 33t36 28t47.5 19.5t61 13.5t75.5 4q123 0 186.5 -43.5t63.5 -150.5zM397 804q0 -59 -59 -59q-58 0 -58 59q0 31 14 44.5t44 13.5q59 0 59 -58z" />
    <glyph glyph-name="cdotaccent" unicode="&#x10b;" horiz-adv-x="528" 
d="M481 146q0 -154 -208 -154q-59 0 -101 14t-65.5 35t-37 56.5t-17 68.5t-3.5 80t3.5 79.5t17 67.5t37 55.5t65.5 34t101 13.5q208 0 208 -154h-107q0 19 -9 31t-26.5 16.5t-29.5 5.5t-33 1q-73 0 -93.5 -31.5t-20.5 -120.5t20.5 -120.5t93.5 -31.5q21 0 33 1t29.5 5.5
t26.5 16.5t9 31h107zM333 609q0 -59 -59 -59q-58 0 -58 59q0 31 14 44.5t44 13.5q59 0 59 -58z" />
    <glyph glyph-name="Ccaron" unicode="&#x10c;" horiz-adv-x="656" 
d="M596 480h-116q0 51 -29 69t-114 18q-99 0 -127 -44t-28 -190t27.5 -189.5t126.5 -43.5q86 0 114.5 17.5t28.5 68.5h116q0 -107 -63.5 -150.5t-186.5 -43.5q-46 0 -83 6t-65 14.5t-49 26t-35 32.5t-23.5 42.5t-14.5 46.5t-7.5 54.5t-3 57t-0.5 62.5q0 36 0.5 56.5t2 52
t5.5 49.5t11 43.5t17.5 40.5t25.5 33t36 28t47.5 19.5t61 13.5t75.5 4q123 0 186.5 -43.5t63.5 -150.5zM522 863l-129 -127h-110l-129 127h113l71 -69l69 69h115z" />
    <glyph glyph-name="ccaron" unicode="&#x10d;" horiz-adv-x="528" 
d="M481 146q0 -154 -208 -154q-59 0 -101 14t-65.5 35t-37 56.5t-17 68.5t-3.5 80t3.5 79.5t17 67.5t37 55.5t65.5 34t101 13.5q208 0 208 -154h-107q0 19 -9 31t-26.5 16.5t-29.5 5.5t-33 1q-73 0 -93.5 -31.5t-20.5 -120.5t20.5 -120.5t93.5 -31.5q21 0 33 1t29.5 5.5
t26.5 16.5t9 31h107zM458 667l-129 -127h-110l-129 127h113l71 -69l69 69h115z" />
    <glyph glyph-name="Dcaron" unicode="&#x10e;" horiz-adv-x="675" 
d="M611 333q0 -101 -8.5 -153t-34.5 -90q-35 -51 -91 -70.5t-153 -19.5h-248v667h247q97 0 153 -19.5t91 -71.5q26 -38 35 -90.5t9 -152.5zM493 333q0 56 -3 93.5t-13 63.5t-21 40t-34.5 21.5t-44.5 9t-60 1.5h-125v-456h126q40 0 60.5 1.5t44 8.5t34 21t20.5 39.5t13 63
t3 93.5zM507 863l-129 -127h-110l-129 127h113l71 -69l69 69h115z" />
    <glyph glyph-name="dcaron" unicode="&#x10f;" horiz-adv-x="724" 
d="M500 0h-102v39q-52 -47 -148 -47q-41 0 -72.5 8t-52.5 20.5t-36 33.5t-22.5 40t-11.5 48t-5 49t-1 52q0 61 7 102.5t26.5 78t58.5 54.5t98 18q105 0 148 -44v245h113v-697zM389 243q0 90 -25.5 119.5t-99.5 29.5q-62 0 -82 -31t-20 -118t20 -118t82 -31q74 0 99.5 29.5
t25.5 119.5zM700 657q0 -46 -10 -76.5t-38 -58.5l-44 -44l-70 69l12 12l10.5 10.5t8.5 9t7.5 9t5.5 8.5t5 9.5t3.5 9.5t3 12t1 13.5t0.5 16.5v40h105v-40z" />
    <glyph glyph-name="Dcroat" unicode="&#x110;" horiz-adv-x="687" 
d="M623 333q0 -101 -8.5 -153t-34.5 -90q-35 -51 -91 -70.5t-153 -19.5h-248v283h-70v106h70v278h247q97 0 153 -19.5t91 -71.5q26 -38 35 -90.5t9 -152.5zM505 333q0 56 -3 93.5t-13 63.5t-21 40t-34.5 21.5t-44.5 9t-60 1.5h-125v-173h179v-106h-179v-177h126
q40 0 60.5 1.5t44 8.5t34 21t20.5 39.5t13 63t3 93.5z" />
    <glyph glyph-name="dcroat" unicode="&#x111;" horiz-adv-x="563" 
d="M244 549v79h143v69h113v-69h84v-79h-84v-549h-102v39q-52 -47 -148 -47q-41 0 -72.5 8t-52.5 20.5t-36 33.5t-22.5 40t-11.5 48t-5 49t-1 52q0 61 7 102.5t26.5 78t58.5 54.5t98 18q105 0 148 -44v97h-143zM389 243q0 90 -25.5 119.5t-99.5 29.5q-62 0 -82 -31t-20 -118
t20 -118t82 -31q74 0 99.5 29.5t25.5 119.5z" />
    <glyph glyph-name="Emacron" unicode="&#x112;" horiz-adv-x="595" 
d="M535 0h-459v667h459v-105h-343v-169h333v-104h-333v-183h343v-106zM483 777h-355v80h355v-80z" />
    <glyph glyph-name="emacron" unicode="&#x113;" horiz-adv-x="545" 
d="M496 201h-334q0 -65 24 -90.5t94 -25.5q103 0 104 61h106q0 -154 -214 -154q-71 0 -117.5 17.5t-69.5 53t-31.5 76t-8.5 99.5q0 48 4.5 83t18 70t37.5 56.5t65.5 35t98.5 13.5q45 0 79.5 -8t58 -20.5t39.5 -35t25 -43.5t14 -55.5t6 -62t1 -70.5zM384 293q0 31 -2.5 47.5
t-13 33t-34 23t-61.5 6.5q-68 0 -88.5 -26.5t-20.5 -83.5h220zM454 569h-355v80h355v-80z" />
    <glyph glyph-name="Ebreve" unicode="&#x114;" horiz-adv-x="595" 
d="M535 0h-459v667h459v-105h-343v-169h333v-104h-333v-183h343v-106zM451 867q0 -75 -32 -103t-115 -28t-115 28t-32 103h70q0 -40 19 -52.5t58 -12.5t58 12.5t19 52.5h70z" />
    <glyph glyph-name="ebreve" unicode="&#x115;" horiz-adv-x="545" 
d="M496 201h-334q0 -65 24 -90.5t94 -25.5q103 0 104 61h106q0 -154 -214 -154q-71 0 -117.5 17.5t-69.5 53t-31.5 76t-8.5 99.5q0 48 4.5 83t18 70t37.5 56.5t65.5 35t98.5 13.5q45 0 79.5 -8t58 -20.5t39.5 -35t25 -43.5t14 -55.5t6 -62t1 -70.5zM384 293q0 31 -2.5 47.5
t-13 33t-34 23t-61.5 6.5q-68 0 -88.5 -26.5t-20.5 -83.5h220zM423 667q0 -75 -32 -103t-115 -28t-115 28t-32 103h70q0 -40 19 -52.5t58 -12.5t58 12.5t19 52.5h70z" />
    <glyph glyph-name="Edotaccent" unicode="&#x116;" horiz-adv-x="595" 
d="M535 0h-459v667h459v-105h-343v-169h333v-104h-333v-183h343v-106zM365 804q0 -59 -59 -59q-58 0 -58 59q0 31 14 44.5t44 13.5q59 0 59 -58z" />
    <glyph glyph-name="edotaccent" unicode="&#x117;" horiz-adv-x="545" 
d="M496 201h-334q0 -65 24 -90.5t94 -25.5q103 0 104 61h106q0 -154 -214 -154q-71 0 -117.5 17.5t-69.5 53t-31.5 76t-8.5 99.5q0 48 4.5 83t18 70t37.5 56.5t65.5 35t98.5 13.5q45 0 79.5 -8t58 -20.5t39.5 -35t25 -43.5t14 -55.5t6 -62t1 -70.5zM384 293q0 31 -2.5 47.5
t-13 33t-34 23t-61.5 6.5q-68 0 -88.5 -26.5t-20.5 -83.5h220zM335 609q0 -59 -59 -59q-58 0 -58 59q0 31 14 44.5t44 13.5q59 0 59 -58z" />
    <glyph glyph-name="Eogonek" unicode="&#x118;" horiz-adv-x="595" 
d="M337 -113q0 32 17.5 63.5t49.5 49.5h-328v667h459v-105h-343v-169h333v-104h-333v-183h343v-106q-104 -48 -104 -104q0 -59 83 -59q16 0 38 2v-78q-27 -6 -56 -6q-67 0 -113 32t-46 100z" />
    <glyph glyph-name="eogonek" unicode="&#x119;" horiz-adv-x="545" 
d="M384 293q0 31 -2.5 47.5t-13 33t-34 23t-61.5 6.5q-68 0 -88.5 -26.5t-20.5 -83.5h220zM211 -113q0 70 52 105q-67 1 -111 19.5t-65.5 54t-29.5 75.5t-8 97q0 48 4.5 83t18 70t37.5 56.5t65.5 35t98.5 13.5q45 0 79.5 -8t58 -20.5t39.5 -35t25 -43.5t14 -55.5t6 -62
t1 -70.5h-334q0 -65 24 -90.5t94 -25.5q103 0 104 61h106q0 -46 -19.5 -77.5t-47 -47.5l-54.5 -30.5t-46.5 -37.5t-19.5 -57q0 -59 83 -59l24 1v-80q-16 -3 -45 -3q-64 0 -109 32.5t-45 99.5z" />
    <glyph glyph-name="Ecaron" unicode="&#x11a;" horiz-adv-x="595" 
d="M535 0h-459v667h459v-105h-343v-169h333v-104h-333v-183h343v-106zM489 863l-129 -127h-110l-129 127h113l71 -69l69 69h115z" />
    <glyph glyph-name="ecaron" unicode="&#x11b;" horiz-adv-x="545" 
d="M496 201h-334q0 -65 24 -90.5t94 -25.5q103 0 104 61h106q0 -154 -214 -154q-71 0 -117.5 17.5t-69.5 53t-31.5 76t-8.5 99.5q0 48 4.5 83t18 70t37.5 56.5t65.5 35t98.5 13.5q45 0 79.5 -8t58 -20.5t39.5 -35t25 -43.5t14 -55.5t6 -62t1 -70.5zM384 293q0 31 -2.5 47.5
t-13 33t-34 23t-61.5 6.5q-68 0 -88.5 -26.5t-20.5 -83.5h220zM460 667l-129 -127h-110l-129 127h113l71 -69l69 69h115z" />
    <glyph glyph-name="Gcircumflex" unicode="&#x11c;" horiz-adv-x="679" 
d="M605 0h-93v50q-60 -58 -190 -58q-177 0 -228 108q-29 60 -30 202v32q0 36 0.5 56.5t2 52t5.5 49.5t11 43.5t17.5 40.5t25.5 33t36 28t47.5 19.5t61 13.5t75.5 4q122 0 190 -43.5t68 -150.5h-117q0 50 -32.5 68.5t-117.5 18.5q-99 0 -127 -44t-28 -190q0 -76 5 -117.5
t21.5 -69.5t44.5 -37t79 -9q33 0 57.5 4.5t41.5 11t28 21t17.5 27t9.5 36.5t4 42t1 50h-164v102h278v-394zM523 735h-113l-71 69l-69 -69h-115l129 127h110z" />
    <glyph glyph-name="gcircumflex" unicode="&#x11d;" horiz-adv-x="561" 
d="M498 52q0 -79 -4 -106q-6 -41 -29.5 -70.5t-57.5 -43.5t-67.5 -20t-71.5 -6q-40 0 -74.5 7t-66 23t-50 48t-18.5 76h112q0 -27 24 -42.5t70 -15.5q109 0 118 66q2 17 2 75q-47 -43 -140 -43q-53 0 -91 15.5t-58 37t-31 58t-13.5 65t-2.5 71.5q0 61 7 102t27 77t60 53
t101 17q99 0 152 -47v39h102v-436zM386 247q0 91 -24.5 120t-98.5 29q-62 0 -81.5 -30.5t-19.5 -118.5q0 -87 19.5 -116t81.5 -29q74 0 98.5 27.5t24.5 117.5zM458 540h-113l-71 69l-69 -69h-115l129 127h110z" />
    <glyph glyph-name="Gbreve" unicode="&#x11e;" horiz-adv-x="679" 
d="M605 0h-93v50q-60 -58 -190 -58q-177 0 -228 108q-29 60 -30 202v32q0 36 0.5 56.5t2 52t5.5 49.5t11 43.5t17.5 40.5t25.5 33t36 28t47.5 19.5t61 13.5t75.5 4q122 0 190 -43.5t68 -150.5h-117q0 50 -32.5 68.5t-117.5 18.5q-99 0 -127 -44t-28 -190q0 -76 5 -117.5
t21.5 -69.5t44.5 -37t79 -9q33 0 57.5 4.5t41.5 11t28 21t17.5 27t9.5 36.5t4 42t1 50h-164v102h278v-394zM485 867q0 -75 -32 -103t-115 -28t-115 28t-32 103h70q0 -40 19 -52.5t58 -12.5t58 12.5t19 52.5h70z" />
    <glyph glyph-name="gbreve" unicode="&#x11f;" horiz-adv-x="561" 
d="M498 52q0 -79 -4 -106q-6 -41 -29.5 -70.5t-57.5 -43.5t-67.5 -20t-71.5 -6q-40 0 -74.5 7t-66 23t-50 48t-18.5 76h112q0 -27 24 -42.5t70 -15.5q109 0 118 66q2 17 2 75q-47 -43 -140 -43q-53 0 -91 15.5t-58 37t-31 58t-13.5 65t-2.5 71.5q0 61 7 102t27 77t60 53
t101 17q99 0 152 -47v39h102v-436zM386 247q0 91 -24.5 120t-98.5 29q-62 0 -81.5 -30.5t-19.5 -118.5q0 -87 19.5 -116t81.5 -29q74 0 98.5 27.5t24.5 117.5zM421 667q0 -75 -32 -103t-115 -28t-115 28t-32 103h70q0 -40 19 -52.5t58 -12.5t58 12.5t19 52.5h70z" />
    <glyph glyph-name="Gdotaccent" unicode="&#x120;" horiz-adv-x="679" 
d="M605 0h-93v50q-60 -58 -190 -58q-177 0 -228 108q-29 60 -30 202v32q0 36 0.5 56.5t2 52t5.5 49.5t11 43.5t17.5 40.5t25.5 33t36 28t47.5 19.5t61 13.5t75.5 4q122 0 190 -43.5t68 -150.5h-117q0 50 -32.5 68.5t-117.5 18.5q-99 0 -127 -44t-28 -190q0 -76 5 -117.5
t21.5 -69.5t44.5 -37t79 -9q33 0 57.5 4.5t41.5 11t28 21t17.5 27t9.5 36.5t4 42t1 50h-164v102h278v-394zM397 804q0 -59 -59 -59q-58 0 -58 59q0 31 14 44.5t44 13.5q59 0 59 -58z" />
    <glyph glyph-name="gdotaccent" unicode="&#x121;" horiz-adv-x="561" 
d="M498 52q0 -79 -4 -106q-6 -41 -29.5 -70.5t-57.5 -43.5t-67.5 -20t-71.5 -6q-40 0 -74.5 7t-66 23t-50 48t-18.5 76h112q0 -27 24 -42.5t70 -15.5q109 0 118 66q2 17 2 75q-47 -43 -140 -43q-53 0 -91 15.5t-58 37t-31 58t-13.5 65t-2.5 71.5q0 61 7 102t27 77t60 53
t101 17q99 0 152 -47v39h102v-436zM386 247q0 91 -24.5 120t-98.5 29q-62 0 -81.5 -30.5t-19.5 -118.5q0 -87 19.5 -116t81.5 -29q74 0 98.5 27.5t24.5 117.5zM333 609q0 -59 -59 -59q-58 0 -58 59q0 31 14 44.5t44 13.5q59 0 59 -58z" />
    <glyph glyph-name="Gcommaaccent" unicode="&#x122;" horiz-adv-x="679" 
d="M605 0h-93v50q-60 -58 -190 -58q-177 0 -228 108q-29 60 -30 202v32q0 36 0.5 56.5t2 52t5.5 49.5t11 43.5t17.5 40.5t25.5 33t36 28t47.5 19.5t61 13.5t75.5 4q122 0 190 -43.5t68 -150.5h-117q0 50 -32.5 68.5t-117.5 18.5q-99 0 -127 -44t-28 -190q0 -76 5 -117.5
t21.5 -69.5t44.5 -37t79 -9q33 0 57.5 4.5t41.5 11t28 21t17.5 27t9.5 36.5t4 42t1 50h-164v102h278v-394zM387 -84q0 -46 -10 -76.5t-38 -58.5l-44 -44l-70 69l12 12l10.5 10.5t8.5 9t7.5 9t5.5 8.5t5 9.5t3.5 9.5t3 12t1 13.5t0.5 16.5v40h105v-40z" />
    <glyph glyph-name="gcommaaccent" unicode="&#x123;" horiz-adv-x="561" 
d="M498 52q0 -79 -4 -106q-6 -41 -29.5 -70.5t-57.5 -43.5t-67.5 -20t-71.5 -6q-40 0 -74.5 7t-66 23t-50 48t-18.5 76h112q0 -27 24 -42.5t70 -15.5q109 0 118 66q2 17 2 75q-47 -43 -140 -43q-53 0 -91 15.5t-58 37t-31 58t-13.5 65t-2.5 71.5q0 61 7 102t27 77t60 53
t101 17q99 0 152 -47v39h102v-436zM386 247q0 91 -24.5 120t-98.5 29q-62 0 -81.5 -30.5t-19.5 -118.5q0 -87 19.5 -116t81.5 -29q74 0 98.5 27.5t24.5 117.5zM191 580q0 46 10 76.5t38 58.5l44 44l70 -69l-12 -12l-10.5 -10.5t-8.5 -9t-7.5 -9t-5.5 -8.5t-5 -9.5t-3.5 -9.5
t-3 -12t-1 -13.5t-0.5 -16.5v-40h-105v40z" />
    <glyph glyph-name="Hcircumflex" unicode="&#x124;" horiz-adv-x="660" 
d="M584 0h-118v288h-272v-288h-118v667h118v-273h272v273h118v-667zM514 735h-113l-71 69l-69 -69h-115l129 127h110z" />
    <glyph glyph-name="hcircumflex" unicode="&#x125;" horiz-adv-x="547" 
d="M304 749h-113l-71 69l-69 -69h-115l129 127h110zM491 0h-113v257v26v25t-0.5 20t-2.5 19t-5 14.5t-7.5 13t-11 9t-15.5 7.5t-20.5 3t-26.5 2q-24 0 -42.5 -5t-30 -11t-20 -20t-12.5 -22.5t-6 -29.5t-2 -30.5v-34.5v-16v-227h-113v697h113v-240q51 39 126 39
q40 0 70.5 -7.5t50 -17t33.5 -29.5t20.5 -34.5t10 -42t4 -42.5t0.5 -45v-12v-266z" />
    <glyph glyph-name="Hbar" unicode="&#x126;" horiz-adv-x="660" 
d="M584 0h-118v288h-272v-288h-118v480h-90v106h90v81h118v-81h272v81h118v-81h90v-106h-90v-480zM194 394h272v86h-272v-86z" />
    <glyph glyph-name="hbar" unicode="&#x127;" horiz-adv-x="547" 
d="M176 549v-92q51 39 126 39q40 0 70.5 -7.5t50 -17t33.5 -29.5t20.5 -34.5t10 -42t4 -42.5t0.5 -45v-12v-266h-113v257v26v25t-0.5 20t-2.5 19t-5 14.5t-7.5 13t-11 9t-15.5 7.5t-20.5 3t-26.5 2q-24 0 -42.5 -5t-30 -11t-20 -20t-12.5 -22.5t-6 -29.5t-2 -30.5v-34.5v-16
v-227h-113v549h-84v79h84v69h113v-69h143v-79h-143z" />
    <glyph glyph-name="Itilde" unicode="&#x128;" horiz-adv-x="270" 
d="M194 0h-118v667h118v-667zM340 789l-77 -39q-72 -36 -133 2q-6 3 -16.5 10.5t-14.5 9.5t-12.5 5t-15.5 2t-18.5 -4.5t-25.5 -10.5l-58 -29l-39 71l32 16.5t36 18t33 12.5t37.5 8t34.5 -4t38 -15q4 -3 14.5 -9.5t13.5 -8t11.5 -5t14 -3t14.5 1t19 4.5t23 11l53 27z" />
    <glyph glyph-name="itilde" unicode="&#x129;" horiz-adv-x="239" 
d="M176 0h-113v488h113v-488zM325 596l-77 -39q-72 -36 -133 2q-6 3 -16.5 10.5t-14.5 9.5t-12.5 5t-15.5 2t-18.5 -4.5t-25.5 -10.5l-58 -29l-39 71l32 16.5t36 18t33 12.5t37.5 8t34.5 -4t38 -15q4 -3 14.5 -9.5t13.5 -8t11.5 -5t14 -3t14.5 1t19 4.5t23 11l53 27z" />
    <glyph glyph-name="Imacron" unicode="&#x12a;" horiz-adv-x="270" 
d="M194 0h-118v667h118v-667zM313 777h-355v80h355v-80z" />
    <glyph glyph-name="imacron" unicode="&#x12b;" horiz-adv-x="239" 
d="M176 0h-113v488h113v-488zM297 569h-355v80h355v-80z" />
    <glyph glyph-name="Ibreve" unicode="&#x12c;" horiz-adv-x="270" 
d="M194 0h-118v667h118v-667zM282 867q0 -75 -32 -103t-115 -28t-115 28t-32 103h70q0 -40 19 -52.5t58 -12.5t58 12.5t19 52.5h70z" />
    <glyph glyph-name="ibreve" unicode="&#x12d;" horiz-adv-x="239" 
d="M176 0h-113v488h113v-488zM267 667q0 -75 -32 -103t-115 -28t-115 28t-32 103h70q0 -40 19 -52.5t58 -12.5t58 12.5t19 52.5h70z" />
    <glyph glyph-name="Iogonek" unicode="&#x12e;" horiz-adv-x="270" 
d="M-4 -113q0 80 80 124v656h118v-667q-104 -48 -104 -104q0 -59 83 -59q16 0 38 2v-78q-27 -6 -56 -6q-67 0 -113 32t-46 100z" />
    <glyph glyph-name="iogonek" unicode="&#x12f;" horiz-adv-x="239" 
d="M176 0q-46 -25 -65.5 -47t-19.5 -57q0 -59 83 -59l24 1v-80q-16 -3 -45 -3q-64 0 -109 32.5t-45 99.5q0 74 64 116v485h113v-488zM181 613q0 -29 -16 -45.5t-46 -16.5t-46 16.5t-16 45.5q0 61 62 61t62 -61z" />
    <glyph glyph-name="Idotaccent" unicode="&#x130;" horiz-adv-x="270" 
d="M194 0h-118v667h118v-667zM194 804q0 -59 -59 -59q-58 0 -58 59q0 31 14 44.5t44 13.5q59 0 59 -58z" />
    <glyph glyph-name="dotlessi" unicode="&#x131;" horiz-adv-x="239" 
d="M176 0h-113v488h113v-488z" />
    <glyph glyph-name="Jcircumflex" unicode="&#x134;" horiz-adv-x="548" 
d="M476 218q0 -66 -3 -84q-24 -142 -220 -142q-107 0 -165 43t-58 151h114q0 -54 25 -71t84 -17q38 0 60 6t31.5 24t11.5 34.5t2 53.5v451h118v-449zM601 735h-113l-71 69l-69 -69h-115l129 127h110z" />
    <glyph glyph-name="jcircumflex" unicode="&#x135;" horiz-adv-x="239" 
d="M176 -28q0 -166 -190 -166q-79 0 -129 29.5t-50 94.5h110q2 -32 69 -32q43 0 60 15.5t17 57.5v517h113v-516zM304 540h-113l-71 69l-69 -69h-115l129 127h110z" />
    <glyph glyph-name="Kcommaaccent" unicode="&#x136;" horiz-adv-x="642" 
d="M638 0h-172l-272 268v-268h-118v667h118v-270l282 270h159l-355 -331zM384 -84q0 -46 -10 -76.5t-38 -58.5l-44 -44l-70 69l12 12l10.5 10.5t8.5 9t7.5 9t5.5 8.5t5 9.5t3.5 9.5t3 12t1 13.5t0.5 16.5v40h105v-40z" />
    <glyph glyph-name="kcommaaccent" unicode="&#x137;" horiz-adv-x="539" 
d="M530 0h-145l-208 228v-228h-114v697h113v-404l210 195h140l-241 -224zM349 -84q0 -46 -10 -76.5t-38 -58.5l-44 -44l-70 69l12 12l10.5 10.5t8.5 9t7.5 9t5.5 8.5t5 9.5t3.5 9.5t3 12t1 13.5t0.5 16.5v40h105v-40z" />
    <glyph glyph-name="Lacute" unicode="&#x139;" horiz-adv-x="531" 
d="M525 0h-449v667h118v-561h331v-106zM339 862l-138 -127h-126l138 127h126z" />
    <glyph glyph-name="lacute" unicode="&#x13a;" horiz-adv-x="238" 
d="M176 0h-113v697h113v-697zM327 863l-138 -127h-126l138 127h126z" />
    <glyph glyph-name="Lcommaaccent" unicode="&#x13b;" horiz-adv-x="531" 
d="M525 0h-449v667h118v-561h331v-106zM355 -84q0 -46 -10 -76.5t-38 -58.5l-44 -44l-70 69l12 12l10.5 10.5t8.5 9t7.5 9t5.5 8.5t5 9.5t3.5 9.5t3 12t1 13.5t0.5 16.5v40h105v-40z" />
    <glyph glyph-name="lcommaaccent" unicode="&#x13c;" horiz-adv-x="238" 
d="M176 0h-113v697h113v-697zM172 -84q0 -46 -10 -76.5t-38 -58.5l-44 -44l-70 69l12 12l10.5 10.5t8.5 9t7.5 9t5.5 8.5t5 9.5t3.5 9.5t3 12t1 13.5t0.5 16.5v40h105v-40z" />
    <glyph glyph-name="Lcaron" unicode="&#x13d;" horiz-adv-x="531" 
d="M525 0h-449v667h118v-561h331v-106zM422 627q0 -46 -10 -76.5t-38 -58.5l-44 -44l-70 69l12 12l10.5 10.5t8.5 9t7.5 9t5.5 8.5t5 9.5t3.5 9.5t3 12t1 13.5t0.5 16.5v40h105v-40z" />
    <glyph glyph-name="lcaron" unicode="&#x13e;" horiz-adv-x="400" 
d="M176 0h-113v697h113v-697zM376 657q0 -46 -10 -76.5t-38 -58.5l-44 -44l-70 69l12 12l10.5 10.5t8.5 9t7.5 9t5.5 8.5t5 9.5t3.5 9.5t3 12t1 13.5t0.5 16.5v40h105v-40z" />
    <glyph glyph-name="Ldot" unicode="&#x13f;" horiz-adv-x="531" 
d="M525 0h-449v667h118v-561h331v-106zM459 341q0 -59 -59 -59q-58 0 -58 59q0 31 14 44.5t44 13.5q59 0 59 -58z" />
    <glyph glyph-name="ldot" unicode="&#x140;" horiz-adv-x="356" 
d="M176 0h-113v697h113v-697zM356 341q0 -59 -59 -59q-58 0 -58 59q0 31 14 44.5t44 13.5q59 0 59 -58z" />
    <glyph glyph-name="Lslash" unicode="&#x141;" horiz-adv-x="604" 
d="M598 0h-449v218l-56 -52l-75 74l131 126v301h118v-198l56 54l75 -74l-131 -126v-217h331v-106z" />
    <glyph glyph-name="lslash" unicode="&#x142;" horiz-adv-x="304" 
d="M320 440l-113 -117v-323h-113v224l-35 -36l-75 68l110 113v328h113v-229l40 42z" />
    <glyph glyph-name="Nacute" unicode="&#x143;" horiz-adv-x="660" 
d="M584 0h-121l-277 479v-479h-110v667h120l278 -475v475h110v-667zM466 862l-138 -127h-126l138 127h126z" />
    <glyph glyph-name="nacute" unicode="&#x144;" horiz-adv-x="547" 
d="M491 0h-113v257v26v25t-0.5 20t-2.5 19t-5 14.5t-7.5 13t-11 9t-15.5 7.5t-20.5 3t-26.5 2q-24 0 -42.5 -5t-30 -11t-20 -20t-12.5 -22.5t-6 -29.5t-2 -30.5v-34.5v-16v-227h-113v488h98v-39q53 47 141 47q40 0 70.5 -7.5t50 -17t33.5 -29.5t20.5 -34.5t10 -42t4 -42.5
t0.5 -45v-12v-266zM413 667l-138 -127h-126l138 127h126z" />
    <glyph glyph-name="Ncommaaccent" unicode="&#x145;" horiz-adv-x="660" 
d="M584 0h-121l-277 479v-479h-110v667h120l278 -475v475h110v-667zM383 -84q0 -46 -10 -76.5t-38 -58.5l-44 -44l-70 69l12 12l10.5 10.5t8.5 9t7.5 9t5.5 8.5t5 9.5t3.5 9.5t3 12t1 13.5t0.5 16.5v40h105v-40z" />
    <glyph glyph-name="ncommaaccent" unicode="&#x146;" horiz-adv-x="547" 
d="M491 0h-113v257v26v25t-0.5 20t-2.5 19t-5 14.5t-7.5 13t-11 9t-15.5 7.5t-20.5 3t-26.5 2q-24 0 -42.5 -5t-30 -11t-20 -20t-12.5 -22.5t-6 -29.5t-2 -30.5v-34.5v-16v-227h-113v488h98v-39q53 47 141 47q40 0 70.5 -7.5t50 -17t33.5 -29.5t20.5 -34.5t10 -42t4 -42.5
t0.5 -45v-12v-266zM330 -84q0 -46 -10 -76.5t-38 -58.5l-44 -44l-70 69l12 12l10.5 10.5t8.5 9t7.5 9t5.5 8.5t5 9.5t3.5 9.5t3 12t1 13.5t0.5 16.5v40h105v-40z" />
    <glyph glyph-name="Ncaron" unicode="&#x147;" horiz-adv-x="660" 
d="M584 0h-121l-277 479v-479h-110v667h120l278 -475v475h110v-667zM515 863l-129 -127h-110l-129 127h113l71 -69l69 69h115z" />
    <glyph glyph-name="ncaron" unicode="&#x148;" horiz-adv-x="547" 
d="M491 0h-113v257v26v25t-0.5 20t-2.5 19t-5 14.5t-7.5 13t-11 9t-15.5 7.5t-20.5 3t-26.5 2q-24 0 -42.5 -5t-30 -11t-20 -20t-12.5 -22.5t-6 -29.5t-2 -30.5v-34.5v-16v-227h-113v488h98v-39q53 47 141 47q40 0 70.5 -7.5t50 -17t33.5 -29.5t20.5 -34.5t10 -42t4 -42.5
t0.5 -45v-12v-266zM462 667l-129 -127h-110l-129 127h113l71 -69l69 69h115z" />
    <glyph glyph-name="Eng" unicode="&#x14a;" horiz-adv-x="660" 
d="M330 -191v91q27 -2 66 -2q42 0 58.5 19.5t16.5 63.5v19l-285 479v-479h-110v667h120l275 -466v466h113v-695q0 -167 -190 -167q-37 0 -64 4z" />
    <glyph glyph-name="eng" unicode="&#x14b;" horiz-adv-x="547" 
d="M256 -191v90q24 -1 47 -1q42 0 58.5 19.5t16.5 63.5v276v26v25t-0.5 20t-2.5 19t-5 14.5t-7.5 13t-11 9t-15.5 7.5t-20.5 3t-26.5 2q-24 0 -42.5 -5t-30 -11t-20 -20t-12.5 -22.5t-6 -29.5t-2 -30.5v-34.5v-16v-227h-113v488h98v-39q53 47 141 47q40 0 70.5 -7.5t50 -17
t33.5 -29.5t20.5 -34.5t10 -42t4 -42.5t0.5 -45v-12v-294q0 -166 -190 -166q-20 0 -45 3z" />
    <glyph glyph-name="Omacron" unicode="&#x14c;" horiz-adv-x="677" 
d="M613 335q0 -53 -1.5 -86t-7.5 -73.5t-17 -64.5t-30.5 -49.5t-49 -39t-71.5 -22t-97 -8.5q-184 0 -240 98q-33 59 -35 198v46q0 53 1 81t6 71t15 65t30 49.5t49 41t72.5 23t100.5 9.5q183 0 239 -94q34 -59 36 -196v-49zM495 334q0 146 -28 189.5t-129 43.5
q-100 0 -128 -43.5t-28 -190.5q0 -146 28 -189.5t128 -43.5t128.5 44t28.5 190zM516 777h-355v80h355v-80z" />
    <glyph glyph-name="omacron" unicode="&#x14d;" horiz-adv-x="562" 
d="M513 244q0 -76 -11 -122t-41 -75q-56 -55 -180 -55t-180 55q-30 29 -41 75t-11 122t11 122t41 75q56 55 180 55t180 -55q30 -29 41 -75t11 -122zM400 244q0 89 -21 120.5t-98 31.5t-98 -31.5t-21 -120.5t21 -120.5t98 -31.5t98 31.5t21 120.5zM458 569h-355v80h355v-80z
" />
    <glyph glyph-name="Obreve" unicode="&#x14e;" horiz-adv-x="677" 
d="M613 335q0 -53 -1.5 -86t-7.5 -73.5t-17 -64.5t-30.5 -49.5t-49 -39t-71.5 -22t-97 -8.5q-184 0 -240 98q-33 59 -35 198v46q0 53 1 81t6 71t15 65t30 49.5t49 41t72.5 23t100.5 9.5q183 0 239 -94q34 -59 36 -196v-49zM495 334q0 146 -28 189.5t-129 43.5
q-100 0 -128 -43.5t-28 -190.5q0 -146 28 -189.5t128 -43.5t128.5 44t28.5 190zM485 867q0 -75 -32 -103t-115 -28t-115 28t-32 103h70q0 -40 19 -52.5t58 -12.5t58 12.5t19 52.5h70z" />
    <glyph glyph-name="obreve" unicode="&#x14f;" horiz-adv-x="562" 
d="M513 244q0 -76 -11 -122t-41 -75q-56 -55 -180 -55t-180 55q-30 29 -41 75t-11 122t11 122t41 75q56 55 180 55t180 -55q30 -29 41 -75t11 -122zM400 244q0 89 -21 120.5t-98 31.5t-98 -31.5t-21 -120.5t21 -120.5t98 -31.5t98 31.5t21 120.5zM427 667q0 -75 -32 -103
t-115 -28t-115 28t-32 103h70q0 -40 19 -52.5t58 -12.5t58 12.5t19 52.5h70z" />
    <glyph glyph-name="Ohungarumlaut" unicode="&#x150;" horiz-adv-x="677" 
d="M613 335q0 -53 -1.5 -86t-7.5 -73.5t-17 -64.5t-30.5 -49.5t-49 -39t-71.5 -22t-97 -8.5q-184 0 -240 98q-33 59 -35 198v46q0 53 1 81t6 71t15 65t30 49.5t49 41t72.5 23t100.5 9.5q183 0 239 -94q34 -59 36 -196v-49zM495 334q0 146 -28 189.5t-129 43.5
q-100 0 -128 -43.5t-28 -190.5q0 -146 28 -189.5t128 -43.5t128.5 44t28.5 190zM586 862l-126 -126h-113l126 126h113zM403 862l-126 -126h-113l126 126h113z" />
    <glyph glyph-name="ohungarumlaut" unicode="&#x151;" horiz-adv-x="562" 
d="M513 244q0 -76 -11 -122t-41 -75q-56 -55 -180 -55t-180 55q-30 29 -41 75t-11 122t11 122t41 75q56 55 180 55t180 -55q30 -29 41 -75t11 -122zM400 244q0 89 -21 120.5t-98 31.5t-98 -31.5t-21 -120.5t21 -120.5t98 -31.5t98 31.5t21 120.5zM528 667l-125 -126h-113
l125 126h113zM345 667l-125 -126h-113l125 126h113z" />
    <glyph glyph-name="OE" unicode="&#x152;" horiz-adv-x="908" 
d="M848 0h-497q-97 0 -153 19.5t-91 70.5q-26 38 -34.5 90t-8.5 153q0 100 9 152.5t35 90.5q35 52 91 71.5t153 19.5h496v-105h-293v-169h283v-104h-283v-183h293v-106zM439 106v456h-81q-39 0 -60 -1.5t-44.5 -9t-34.5 -21.5t-21 -40t-13 -63.5t-3 -93.5t3 -93.5t13 -63
t20.5 -39.5t34 -21t44 -8.5t60.5 -1.5h82z" />
    <glyph glyph-name="oe" unicode="&#x153;" horiz-adv-x="896" 
d="M847 201h-334q0 -65 24 -90.5t94 -25.5q103 0 104 61h106q0 -154 -214 -154q-120 0 -171 57q-54 -57 -175 -57q-124 0 -180 55q-30 29 -41 75t-11 122t11 122t41 75q56 55 180 55q121 0 174 -57q51 57 169 57q45 0 79.5 -8t58 -20.5t39.5 -35t25 -43.5t14 -55.5t6 -62
t1 -70.5zM735 293q0 31 -2.5 47.5t-13 33t-34 23t-61.5 6.5q-68 0 -88.5 -26.5t-20.5 -83.5h220zM400 244q0 89 -21 120.5t-98 31.5t-98 -31.5t-21 -120.5t21 -120.5t98 -31.5t98 31.5t21 120.5z" />
    <glyph glyph-name="Racute" unicode="&#x154;" horiz-adv-x="657" 
d="M585 0h-115v173v42t-6.5 26.5t-11.5 18t-27.5 7.5t-40 4h-63.5h-14h-113v-271h-118v667h234q39 0 63 -1t57 -5t52.5 -11t41.5 -21t33.5 -34.5t19.5 -50.5t8 -69q0 -62 -14.5 -97.5t-50.5 -50.5q13 -4 24 -11.5t17.5 -15t11.5 -21t7.5 -22t3.5 -25t1 -23.5v-24.5v-21.5
v-163zM469 470q0 53 -20 71q-10 9 -18 12.5t-36.5 6t-86.5 2.5h-114v-185h121q102 0 120 8q34 16 34 85zM466 862l-138 -127h-126l138 127h126z" />
    <glyph glyph-name="racute" unicode="&#x155;" horiz-adv-x="465" 
d="M453 342h-109q0 32 -16 43.5t-53 11.5q-67 0 -88 -58q-11 -30 -11 -127v-212h-113v488h98v-44q49 52 134 52q80 0 119 -37.5t39 -116.5zM393 667l-138 -127h-126l138 127h126z" />
    <glyph glyph-name="Rcommaaccent" unicode="&#x156;" horiz-adv-x="657" 
d="M585 0h-115v173v42t-6.5 26.5t-11.5 18t-27.5 7.5t-40 4h-63.5h-14h-113v-271h-118v667h234q39 0 63 -1t57 -5t52.5 -11t41.5 -21t33.5 -34.5t19.5 -50.5t8 -69q0 -62 -14.5 -97.5t-50.5 -50.5q13 -4 24 -11.5t17.5 -15t11.5 -21t7.5 -22t3.5 -25t1 -23.5v-24.5v-21.5
v-163zM469 470q0 53 -20 71q-10 9 -18 12.5t-36.5 6t-86.5 2.5h-114v-185h121q102 0 120 8q34 16 34 85zM383 -84q0 -46 -10 -76.5t-38 -58.5l-44 -44l-70 69l12 12l10.5 10.5t8.5 9t7.5 9t5.5 8.5t5 9.5t3.5 9.5t3 12t1 13.5t0.5 16.5v40h105v-40z" />
    <glyph glyph-name="rcommaaccent" unicode="&#x157;" horiz-adv-x="465" 
d="M453 342h-109q0 32 -16 43.5t-53 11.5q-67 0 -88 -58q-11 -30 -11 -127v-212h-113v488h98v-44q49 52 134 52q80 0 119 -37.5t39 -116.5zM172 -84q0 -46 -10 -76.5t-38 -58.5l-44 -44l-70 69l12 12l10.5 10.5t8.5 9t7.5 9t5.5 8.5t5 9.5t3.5 9.5t3 12t1 13.5t0.5 16.5v40
h105v-40z" />
    <glyph glyph-name="Rcaron" unicode="&#x158;" horiz-adv-x="657" 
d="M585 0h-115v173v42t-6.5 26.5t-11.5 18t-27.5 7.5t-40 4h-63.5h-14h-113v-271h-118v667h234q39 0 63 -1t57 -5t52.5 -11t41.5 -21t33.5 -34.5t19.5 -50.5t8 -69q0 -62 -14.5 -97.5t-50.5 -50.5q13 -4 24 -11.5t17.5 -15t11.5 -21t7.5 -22t3.5 -25t1 -23.5v-24.5v-21.5
v-163zM469 470q0 53 -20 71q-10 9 -18 12.5t-36.5 6t-86.5 2.5h-114v-185h121q102 0 120 8q34 16 34 85zM494 863l-129 -127h-110l-129 127h113l71 -69l69 69h115z" />
    <glyph glyph-name="rcaron" unicode="&#x159;" horiz-adv-x="465" 
d="M453 342h-109q0 32 -16 43.5t-53 11.5q-67 0 -88 -58q-11 -30 -11 -127v-212h-113v488h98v-44q49 52 134 52q80 0 119 -37.5t39 -116.5zM443 667l-129 -127h-110l-129 127h113l71 -69l69 69h115z" />
    <glyph glyph-name="Sacute" unicode="&#x15a;" horiz-adv-x="650" 
d="M594 208q-1 -112 -67 -164t-203 -52q-131 0 -199.5 42.5t-68.5 151.5h118q0 -51 31.5 -69.5t120.5 -18.5q92 0 121 23t29 82q0 46 -16.5 60.5t-58.5 17.5q-24 2 -75 3t-81 2.5t-70.5 11.5t-63 28.5t-39 55t-16.5 89.5q0 112 64.5 157.5t201.5 45.5q131 0 198 -43t67 -151
h-116q0 55 -33.5 71.5t-117.5 16.5q-66 0 -97.5 -10t-40 -28t-8.5 -57q0 -43 17.5 -57t57.5 -17q24 -2 65 -2.5t68.5 -2t63.5 -6t59.5 -16t45.5 -31.5t32.5 -53.5t10.5 -79.5zM460 862l-138 -127h-126l138 127h126z" />
    <glyph glyph-name="sacute" unicode="&#x15b;" horiz-adv-x="520" 
d="M476 342h-104q0 35 -20 48t-70 15q-67 2 -90 -11t-24 -41q-1 -20 3.5 -31.5t18 -17t23 -6.5t34.5 -3q101 -6 123 -11q83 -18 99 -92q5 -22 4 -51q-1 -44 -17.5 -74t-47.5 -46.5t-70 -23t-91 -5.5q-100 2 -151.5 35.5t-51.5 118.5h104q0 -33 20 -48t78 -16q68 -2 91 11.5
t24 42.5q1 21 -4 33.5t-19.5 18.5t-26 7.5t-38.5 2.5q-7 0 -20 1q-34 2 -51 3.5t-45.5 6.5t-43 14.5t-30.5 25.5t-22.5 41.5t-5.5 59.5q1 44 17.5 74t48 45.5t70 21.5t90.5 5q97 -2 146 -36.5t49 -117.5zM394 667l-138 -127h-126l138 127h126z" />
    <glyph glyph-name="Scircumflex" unicode="&#x15c;" horiz-adv-x="650" 
d="M594 208q-1 -112 -67 -164t-203 -52q-131 0 -199.5 42.5t-68.5 151.5h118q0 -51 31.5 -69.5t120.5 -18.5q92 0 121 23t29 82q0 46 -16.5 60.5t-58.5 17.5q-24 2 -75 3t-81 2.5t-70.5 11.5t-63 28.5t-39 55t-16.5 89.5q0 112 64.5 157.5t201.5 45.5q131 0 198 -43t67 -151
h-116q0 55 -33.5 71.5t-117.5 16.5q-66 0 -97.5 -10t-40 -28t-8.5 -57q0 -43 17.5 -57t57.5 -17q24 -2 65 -2.5t68.5 -2t63.5 -6t59.5 -16t45.5 -31.5t32.5 -53.5t10.5 -79.5zM508 735h-113l-71 69l-69 -69h-115l129 127h110z" />
    <glyph glyph-name="scircumflex" unicode="&#x15d;" horiz-adv-x="520" 
d="M476 342h-104q0 35 -20 48t-70 15q-67 2 -90 -11t-24 -41q-1 -20 3.5 -31.5t18 -17t23 -6.5t34.5 -3q101 -6 123 -11q83 -18 99 -92q5 -22 4 -51q-1 -44 -17.5 -74t-47.5 -46.5t-70 -23t-91 -5.5q-100 2 -151.5 35.5t-51.5 118.5h104q0 -33 20 -48t78 -16q68 -2 91 11.5
t24 42.5q1 21 -4 33.5t-19.5 18.5t-26 7.5t-38.5 2.5q-7 0 -20 1q-34 2 -51 3.5t-45.5 6.5t-43 14.5t-30.5 25.5t-22.5 41.5t-5.5 59.5q1 44 17.5 74t48 45.5t70 21.5t90.5 5q97 -2 146 -36.5t49 -117.5zM452 540h-113l-71 69l-69 -69h-115l129 127h110z" />
    <glyph glyph-name="Scedilla" unicode="&#x15e;" horiz-adv-x="650" 
d="M418 -110q0 -83 -88 -83t-88 74h54q0 -15 7.5 -19.5t26.5 -4.5q20 0 25.5 7t5.5 24q0 29 -36 31h-29v74q-117 3 -178.5 46.5t-61.5 146.5h118q0 -51 31.5 -69.5t120.5 -18.5q92 0 121 23t29 82q0 46 -16.5 60.5t-58.5 17.5q-24 2 -75 3t-81 2.5t-70.5 11.5t-63 28.5
t-39 55t-16.5 89.5q0 112 64.5 157.5t201.5 45.5q131 0 198 -43t67 -151h-116q0 55 -33.5 71.5t-117.5 16.5q-66 0 -97.5 -10t-40 -28t-8.5 -57q0 -43 17.5 -57t57.5 -17q24 -2 65 -2.5t68.5 -2t63.5 -6t59.5 -16t45.5 -31.5t32.5 -53.5t10.5 -79.5q-1 -207 -241 -215v-31
q65 -4 65 -72z" />
    <glyph glyph-name="scedilla" unicode="&#x15f;" horiz-adv-x="520" 
d="M339 -110q0 -83 -88 -83t-88 74h54q0 -15 7.5 -19.5t26.5 -4.5q20 0 25.5 7t5.5 24q0 29 -36 31h-29v74q-86 6 -129.5 40.5t-43.5 112.5h104q0 -33 20 -48t78 -16q68 -2 91 11.5t24 42.5q1 21 -4 33.5t-19.5 18.5t-26 7.5t-38.5 2.5q-7 0 -20 1q-34 2 -51 3.5t-45.5 6.5
t-43 14.5t-30.5 25.5t-22.5 41.5t-5.5 59.5q1 44 17.5 74t48 45.5t70 21.5t90.5 5q97 -2 146 -36.5t49 -117.5h-104q0 35 -20 48t-70 15q-67 2 -90 -11t-24 -41q-1 -20 3.5 -31.5t18 -17t23 -6.5t34.5 -3q101 -6 123 -11q83 -18 99 -92q5 -22 4 -51q-1 -79 -52.5 -113
t-146.5 -36v-30q65 -4 65 -72z" />
    <glyph glyph-name="Scaron" unicode="&#x160;" horiz-adv-x="650" 
d="M594 208q-1 -112 -67 -164t-203 -52q-131 0 -199.5 42.5t-68.5 151.5h118q0 -51 31.5 -69.5t120.5 -18.5q92 0 121 23t29 82q0 46 -16.5 60.5t-58.5 17.5q-24 2 -75 3t-81 2.5t-70.5 11.5t-63 28.5t-39 55t-16.5 89.5q0 112 64.5 157.5t201.5 45.5q131 0 198 -43t67 -151
h-116q0 55 -33.5 71.5t-117.5 16.5q-66 0 -97.5 -10t-40 -28t-8.5 -57q0 -43 17.5 -57t57.5 -17q24 -2 65 -2.5t68.5 -2t63.5 -6t59.5 -16t45.5 -31.5t32.5 -53.5t10.5 -79.5zM508 853l-129 -127h-110l-129 127h113l71 -69l69 69h115z" />
    <glyph glyph-name="scaron" unicode="&#x161;" horiz-adv-x="520" 
d="M476 342h-104q0 35 -20 48t-70 15q-67 2 -90 -11t-24 -41q-1 -20 3.5 -31.5t18 -17t23 -6.5t34.5 -3q101 -6 123 -11q83 -18 99 -92q5 -22 4 -51q-1 -44 -17.5 -74t-47.5 -46.5t-70 -23t-91 -5.5q-100 2 -151.5 35.5t-51.5 118.5h104q0 -33 20 -48t78 -16q68 -2 91 11.5
t24 42.5q1 21 -4 33.5t-19.5 18.5t-26 7.5t-38.5 2.5q-7 0 -20 1q-34 2 -51 3.5t-45.5 6.5t-43 14.5t-30.5 25.5t-22.5 41.5t-5.5 59.5q1 44 17.5 74t48 45.5t70 21.5t90.5 5q97 -2 146 -36.5t49 -117.5zM452 667l-129 -127h-110l-129 127h113l71 -69l69 69h115z" />
    <glyph glyph-name="Tcommaaccent" unicode="&#x162;" horiz-adv-x="560" 
d="M542 562h-203v-562h-118v562h-203v105h524v-105zM333 -84q0 -46 -10 -76.5t-38 -58.5l-44 -44l-70 69l12 12l10.5 10.5t8.5 9t7.5 9t5.5 8.5t5 9.5t3.5 9.5t3 12t1 13.5t0.5 16.5v40h105v-40z" />
    <glyph glyph-name="tcommaaccent" unicode="&#x163;" horiz-adv-x="475" 
d="M456 146q0 -82 -50.5 -118t-131.5 -36q-178 0 -178 158v244h-78v94h78v179h113v-179h199v-94h-199v-244q0 -35 15.5 -50.5t55.5 -15.5q72 0 72 62h104zM327 -84q0 -46 -10 -76.5t-38 -58.5l-44 -44l-70 69l12 12l10.5 10.5t8.5 9t7.5 9t5.5 8.5t5 9.5t3.5 9.5t3 12
t1 13.5t0.5 16.5v40h105v-40z" />
    <glyph glyph-name="Tcaron" unicode="&#x164;" horiz-adv-x="560" 
d="M542 562h-203v-562h-118v562h-203v105h524v-105zM464 863l-129 -127h-110l-129 127h113l71 -69l69 69h115z" />
    <glyph glyph-name="tcaron" unicode="&#x165;" horiz-adv-x="572" 
d="M456 146q0 -82 -50.5 -118t-131.5 -36q-178 0 -178 158v244h-78v94h78v179h113v-179h199v-94h-199v-244q0 -35 15.5 -50.5t55.5 -15.5q72 0 72 62h104zM572 657q0 -46 -10 -76.5t-38 -58.5l-44 -44l-70 69l12 12l10.5 10.5t8.5 9t7.5 9t5.5 8.5t5 9.5t3.5 9.5t3 12
t1 13.5t0.5 16.5v40h105v-40z" />
    <glyph glyph-name="Tbar" unicode="&#x166;" horiz-adv-x="560" 
d="M449 288h-110v-288h-118v288h-110v106h110v168h-203v105h524v-105h-203v-168h110v-106z" />
    <glyph glyph-name="tbar" unicode="&#x167;" horiz-adv-x="475" 
d="M408 201h-199v-51q0 -35 15.5 -50.5t55.5 -15.5q72 0 72 62h104q0 -82 -50.5 -118t-131.5 -36q-178 0 -178 158v51h-78v92h78v101h-78v94h78v179h113v-179h199v-94h-199v-101h199v-92z" />
    <glyph glyph-name="Utilde" unicode="&#x168;" horiz-adv-x="652" 
d="M580 335q0 -109 -2 -140q-11 -203 -252 -203t-252 203q-2 31 -2 140v332h118v-332q0 -129 6 -159q12 -54 60 -68q26 -8 70 -8q30 0 51 3.5t36 10.5t24.5 18t15 26.5t7.5 36t2.5 46t-0.5 55.5v39v332h118v-332zM531 789l-77 -39q-72 -36 -133 2q-6 3 -16.5 10.5t-14.5 9.5
t-12.5 5t-15.5 2t-18.5 -4.5t-25.5 -10.5l-58 -29l-39 71l32 16.5t36 18t33 12.5t37.5 8t34.5 -4t38 -15q4 -3 14.5 -9.5t13.5 -8t11.5 -5t14 -3t14.5 1t19 4.5t23 11l53 27z" />
    <glyph glyph-name="utilde" unicode="&#x169;" horiz-adv-x="547" 
d="M484 0h-98v39q-53 -47 -141 -47q-40 0 -70.5 7.5t-50 17t-33.5 29.5t-20.5 34.5t-10 42t-4 42.5t-0.5 45v12v266h113v-257v-26v-25t0.5 -20t2.5 -19t5 -14.5t7.5 -13t11 -9t15.5 -7.5t20.5 -3t26.5 -2q24 0 42.5 5t30 11t20 20t12.5 22.5t6 29.5t2 30.5v34.5v16v227h113
v-488zM478 596l-77 -39q-72 -36 -133 2q-6 3 -16.5 10.5t-14.5 9.5t-12.5 5t-15.5 2t-18.5 -4.5t-25.5 -10.5l-58 -29l-39 71l32 16.5t36 18t33 12.5t37.5 8t34.5 -4t38 -15q4 -3 14.5 -9.5t13.5 -8t11.5 -5t14 -3t14.5 1t19 4.5t23 11l53 27z" />
    <glyph glyph-name="Umacron" unicode="&#x16a;" horiz-adv-x="652" 
d="M580 335q0 -109 -2 -140q-11 -203 -252 -203t-252 203q-2 31 -2 140v332h118v-332q0 -129 6 -159q12 -54 60 -68q26 -8 70 -8q30 0 51 3.5t36 10.5t24.5 18t15 26.5t7.5 36t2.5 46t-0.5 55.5v39v332h118v-332zM509 777h-355v80h355v-80z" />
    <glyph glyph-name="umacron" unicode="&#x16b;" horiz-adv-x="547" 
d="M484 0h-98v39q-53 -47 -141 -47q-40 0 -70.5 7.5t-50 17t-33.5 29.5t-20.5 34.5t-10 42t-4 42.5t-0.5 45v12v266h113v-257v-26v-25t0.5 -20t2.5 -19t5 -14.5t7.5 -13t11 -9t15.5 -7.5t20.5 -3t26.5 -2q24 0 42.5 5t30 11t20 20t12.5 22.5t6 29.5t2 30.5v34.5v16v227h113
v-488zM450 569h-355v80h355v-80z" />
    <glyph glyph-name="Ubreve" unicode="&#x16c;" horiz-adv-x="652" 
d="M580 335q0 -109 -2 -140q-11 -203 -252 -203t-252 203q-2 31 -2 140v332h118v-332q0 -129 6 -159q12 -54 60 -68q26 -8 70 -8q30 0 51 3.5t36 10.5t24.5 18t15 26.5t7.5 36t2.5 46t-0.5 55.5v39v332h118v-332zM478 867q0 -75 -32 -103t-115 -28t-115 28t-32 103h70
q0 -40 19 -52.5t58 -12.5t58 12.5t19 52.5h70z" />
    <glyph glyph-name="ubreve" unicode="&#x16d;" horiz-adv-x="547" 
d="M484 0h-98v39q-53 -47 -141 -47q-40 0 -70.5 7.5t-50 17t-33.5 29.5t-20.5 34.5t-10 42t-4 42.5t-0.5 45v12v266h113v-257v-26v-25t0.5 -20t2.5 -19t5 -14.5t7.5 -13t11 -9t15.5 -7.5t20.5 -3t26.5 -2q24 0 42.5 5t30 11t20 20t12.5 22.5t6 29.5t2 30.5v34.5v16v227h113
v-488zM419 667q0 -75 -32 -103t-115 -28t-115 28t-32 103h70q0 -40 19 -52.5t58 -12.5t58 12.5t19 52.5h70z" />
    <glyph glyph-name="Uring" unicode="&#x16e;" horiz-adv-x="652" 
d="M580 335q0 -109 -2 -140q-11 -203 -252 -203t-252 203q-2 31 -2 140v332h118v-332q0 -129 6 -159q12 -54 60 -68q26 -8 70 -8q30 0 51 3.5t36 10.5t24.5 18t15 26.5t7.5 36t2.5 46t-0.5 55.5v39v332h118v-332zM454 794q0 -62 -28.5 -90.5t-94.5 -28.5t-94.5 28.5
t-28.5 90.5t28.5 89.5t94.5 27.5t94.5 -27.5t28.5 -89.5zM386 793q0 34 -11 46.5t-44 12.5t-44 -12.5t-11 -46.5t11 -46.5t44 -12.5t44 12.5t11 46.5z" />
    <glyph glyph-name="uring" unicode="&#x16f;" horiz-adv-x="547" 
d="M484 0h-98v39q-53 -47 -141 -47q-40 0 -70.5 7.5t-50 17t-33.5 29.5t-20.5 34.5t-10 42t-4 42.5t-0.5 45v12v266h113v-257v-26v-25t0.5 -20t2.5 -19t5 -14.5t7.5 -13t11 -9t15.5 -7.5t20.5 -3t26.5 -2q24 0 42.5 5t30 11t20 20t12.5 22.5t6 29.5t2 30.5v34.5v16v227h113
v-488zM391 626q0 -62 -28.5 -90.5t-94.5 -28.5t-94.5 28.5t-28.5 90.5t28.5 89.5t94.5 27.5t94.5 -27.5t28.5 -89.5zM323 625q0 34 -11 46.5t-44 12.5t-44 -12.5t-11 -46.5t11 -46.5t44 -12.5t44 12.5t11 46.5z" />
    <glyph glyph-name="Uhungarumlaut" unicode="&#x170;" horiz-adv-x="652" 
d="M580 335q0 -109 -2 -140q-11 -203 -252 -203t-252 203q-2 31 -2 140v332h118v-332q0 -129 6 -159q12 -54 60 -68q26 -8 70 -8q30 0 51 3.5t36 10.5t24.5 18t15 26.5t7.5 36t2.5 46t-0.5 55.5v39v332h118v-332zM573 862l-126 -126h-113l126 126h113zM390 862l-126 -126
h-113l126 126h113z" />
    <glyph glyph-name="uhungarumlaut" unicode="&#x171;" horiz-adv-x="547" 
d="M484 0h-98v39q-53 -47 -141 -47q-40 0 -70.5 7.5t-50 17t-33.5 29.5t-20.5 34.5t-10 42t-4 42.5t-0.5 45v12v266h113v-257v-26v-25t0.5 -20t2.5 -19t5 -14.5t7.5 -13t11 -9t15.5 -7.5t20.5 -3t26.5 -2q24 0 42.5 5t30 11t20 20t12.5 22.5t6 29.5t2 30.5v34.5v16v227h113
v-488zM514 664l-125 -126h-113l125 126h113zM331 664l-125 -126h-113l125 126h113z" />
    <glyph glyph-name="Uogonek" unicode="&#x172;" horiz-adv-x="652" 
d="M277 -113q0 65 46 105q-238 2 -249 203q-2 31 -2 140v332h118v-332q0 -129 6 -159q12 -54 60 -68q26 -8 70 -8q30 0 51 3.5t36 10.5t24.5 18t15 26.5t7.5 36t2.5 46t-0.5 55.5v39v332h118v-332q0 -109 -2 -140q-3 -60 -26 -101t-52.5 -62.5t-59 -38.5t-49.5 -40.5
t-20 -56.5q0 -59 83 -59q16 0 38 2v-78q-27 -6 -56 -6q-67 0 -113 32t-46 100z" />
    <glyph glyph-name="uogonek" unicode="&#x173;" horiz-adv-x="547" 
d="M386 12v27q-53 -47 -141 -47q-40 0 -70.5 7.5t-50 17t-33.5 29.5t-20.5 34.5t-10 42t-4 42.5t-0.5 45v12v266h113v-257v-26v-25t0.5 -20t2.5 -19t5 -14.5t7.5 -13t11 -9t15.5 -7.5t20.5 -3t26.5 -2q24 0 42.5 5t30 11t20 20t12.5 22.5t6 29.5t2 30.5v34.5v16v227h113
v-488q-46 -25 -65 -46.5t-19 -57.5q0 -59 83 -59l24 1v-80q-16 -3 -45 -3q-64 0 -109 32.5t-45 99.5q0 79 78 125z" />
    <glyph glyph-name="Wcircumflex" unicode="&#x174;" horiz-adv-x="898" 
d="M862 667l-155 -667h-124l-135 536l-137 -536h-123l-152 667h115l108 -507l128 507h125l129 -507l109 507h112zM632 735h-113l-71 69l-69 -69h-115l129 127h110z" />
    <glyph glyph-name="wcircumflex" unicode="&#x175;" horiz-adv-x="733" 
d="M715 488l-132 -488h-113l-100 380l-103 -380h-117l-132 488h111l85 -364l98 364h110l99 -364l85 364h109zM554 540h-113l-71 69l-69 -69h-115l129 127h110z" />
    <glyph glyph-name="Ycircumflex" unicode="&#x176;" horiz-adv-x="611" 
d="M609 667l-245 -379v-288h-118v288l-244 379h137l168 -274l167 274h135zM491 735h-113l-71 69l-69 -69h-115l129 127h110z" />
    <glyph glyph-name="ycircumflex" unicode="&#x177;" horiz-adv-x="519" 
d="M502 488l-263 -678h-119l83 202l-186 476h120l125 -351l120 351h120zM446 540h-113l-71 69l-69 -69h-115l129 127h110z" />
    <glyph glyph-name="Ydieresis" unicode="&#x178;" horiz-adv-x="611" 
d="M609 667l-245 -379v-288h-118v288l-244 379h137l168 -274l167 274h135zM474 804q0 -59 -59 -59q-58 0 -58 59q0 31 14 44.5t44 13.5q59 0 59 -58zM258 804q0 -59 -59 -59q-58 0 -58 59q0 31 14 44.5t44 13.5q59 0 59 -58z" />
    <glyph glyph-name="Zacute" unicode="&#x179;" horiz-adv-x="629" 
d="M569 0h-509v102l368 460h-368v105h509v-103l-367 -458h367v-106zM449 862l-138 -127h-126l138 127h126z" />
    <glyph glyph-name="zacute" unicode="&#x17a;" horiz-adv-x="500" 
d="M455 0h-410v97l270 297h-270v94h410v-97l-268 -295h268v-96zM385 667l-138 -127h-126l138 127h126z" />
    <glyph glyph-name="Zdotaccent" unicode="&#x17b;" horiz-adv-x="629" 
d="M569 0h-509v102l368 460h-368v105h509v-103l-367 -458h367v-106zM373 804q0 -59 -59 -59q-58 0 -58 59q0 31 14 44.5t44 13.5q59 0 59 -58z" />
    <glyph glyph-name="zdotaccent" unicode="&#x17c;" horiz-adv-x="500" 
d="M455 0h-410v97l270 297h-270v94h410v-97l-268 -295h268v-96zM309 609q0 -59 -59 -59q-58 0 -58 59q0 31 14 44.5t44 13.5q59 0 59 -58z" />
    <glyph glyph-name="Zcaron" unicode="&#x17d;" horiz-adv-x="629" 
d="M569 0h-509v102l368 460h-368v105h509v-103l-367 -458h367v-106zM487 853l-129 -127h-110l-129 127h113l71 -69l69 69h115z" />
    <glyph glyph-name="zcaron" unicode="&#x17e;" horiz-adv-x="500" 
d="M455 0h-410v97l270 297h-270v94h410v-97l-268 -295h268v-96zM438 667l-129 -127h-110l-129 127h113l71 -69l69 69h115z" />
    <glyph glyph-name="florin" unicode="&#x192;" horiz-adv-x="591" 
d="M556 506h-109q0 40 -23 53t-75 13q-76 0 -95.5 -22t-19.5 -91v-67h279v-102h-279v-481h-113v481h-67v102h67v65q0 80 11 110t36 53q57 54 172 54q32 0 54.5 -1.5t55.5 -11t54 -26t36.5 -50t15.5 -79.5z" />
    <glyph glyph-name="Aringacute" unicode="&#x1fa;" horiz-adv-x="651" 
d="M472 1018l-138 -127h-126l138 127h126zM643 0h-129l-62 170h-260l-61 -170h-123l244 634q-48 22 -48 105q0 61 27.5 84.5t93.5 23.5t93.5 -23.5t27.5 -84.5q0 -84 -48 -106zM380 732q0 33 -11 44.5t-44 11.5q-34 0 -44 -11t-10 -45q0 -33 10 -42.5t45 -9.5q33 0 43.5 10
t10.5 42zM416 272l-94 264l-93 -264h187z" />
    <glyph glyph-name="aringacute" unicode="&#x1fb;" horiz-adv-x="541" 
d="M485 0h-101v40q-55 -48 -152 -48q-93 0 -141.5 35.5t-48.5 120.5q0 41 12 71t30.5 46.5t48 26t55.5 12t62 2.5h125q0 55 -17 74.5t-86 19.5q-22 0 -36 -1.5t-32.5 -6t-28 -16.5t-9.5 -30h-110q0 111 113 139q-16 20 -16 74q0 60 28 84t94 24t94 -24t28 -84q0 -54 -16 -74
q104 -35 104 -167v-318zM330 549q0 34 -11 46.5t-44 12.5t-43.5 -12.5t-10.5 -46.5q0 -33 10.5 -44t44.5 -11q33 0 43.5 11t10.5 44zM377 214h-131q-53 0 -72 -13t-19 -51q0 -34 20 -49.5t75 -15.5q81 0 104 29t23 100zM430 838l-138 -127h-126l138 127h126z" />
    <glyph glyph-name="AEacute" unicode="&#x1fc;" horiz-adv-x="950" 
d="M890 0h-419v165h-224l-108 -165h-137l446 667h442v-105h-303v-169h293v-104h-293v-183h303v-106zM471 269v239l-155 -239h155zM718 862l-138 -127h-126l138 127h126z" />
    <glyph glyph-name="aeacute" unicode="&#x1fd;" horiz-adv-x="870" 
d="M821 206h-335q0 -66 24 -93.5t94 -27.5q104 0 105 61h106q0 -154 -214 -154q-120 0 -171 57q-55 -57 -194 -57q-94 0 -144 34.5t-50 118.5q0 41 12.5 70.5t31.5 45.5t49 25t56 11t62 2h126q0 59 -19.5 80t-86.5 21q-22 0 -36.5 -1.5t-33 -6t-28 -16.5t-9.5 -30h-110
q0 150 212 150q127 0 175 -54q51 54 155 54q60 0 101.5 -14t65 -36t36.5 -62t16.5 -78.5t3.5 -99.5zM709 298q0 57 -22.5 81.5t-88.5 24.5q-63 0 -86.5 -26.5t-23.5 -79.5h221zM380 206h-132q-54 0 -73.5 -11.5t-19.5 -48.5q0 -33 21 -47t76 -14q44 0 69 5.5t38 22t16.5 36
t4.5 57.5zM593 667l-138 -127h-126l138 127h126z" />
    <glyph glyph-name="Oslashacute" unicode="&#x1fe;" horiz-adv-x="677" 
d="M430 862l-138 -127h-126l138 127h126zM613 333q0 -40 -0.5 -65t-3.5 -58.5t-8 -54.5t-14.5 -46.5t-23.5 -41t-34.5 -31.5t-47.5 -24.5t-62.5 -14t-79.5 -5.5q-20 0 -33 1l-33 -138l-96 22l34 131q-31 8 -54.5 23.5t-39 31.5t-26 43.5t-16 48t-8 57t-3 58t-0.5 63.5
q0 145 17 201q29 97 132 125q53 15 128 15q25 0 28 -1l33 136l95 -24l-33 -126q36 -9 62.5 -25.5t42.5 -43.5t25.5 -50t13 -63t4.5 -63t1 -68v-13zM495 336q0 65 -5 108t-15.5 64t-18 28.5t-21.5 14.5l-108 -451h21q51 0 80.5 12.5t44 45t18.5 70.5t4 108zM347 567
q-56 0 -85.5 -7t-49 -34t-25 -71.5t-5.5 -127.5q0 -103 12 -146.5t43 -62.5z" />
    <glyph glyph-name="oslashacute" unicode="&#x1ff;" horiz-adv-x="562" 
d="M513 242q0 -76 -11.5 -121t-41.5 -75q-54 -54 -181 -54q-10 0 -46 3l-37 -97l-84 32l34 87q-23 11 -46 32q-32 29 -41.5 73t-9.5 118q0 77 11 124t43 79q54 53 180 53q21 0 45 -2l33 86l86 -32l-31 -79q23 -6 47 -30q31 -31 40.5 -74.5t9.5 -122.5zM400 243q0 62 -5.5 86
t-18.5 40l-107 -277h15q71 0 93.5 30.5t22.5 120.5zM294 396h-18q-69 0 -91.5 -29.5t-22.5 -121.5q0 -47 4 -74.5t8 -34.5t13 -17zM413 667l-138 -127h-126l138 127h126z" />
    <glyph glyph-name="Scommaaccent" unicode="&#x218;" horiz-adv-x="650" 
d="M594 208q-1 -112 -67 -164t-203 -52q-131 0 -199.5 42.5t-68.5 151.5h118q0 -51 31.5 -69.5t120.5 -18.5q92 0 121 23t29 82q0 46 -16.5 60.5t-58.5 17.5q-24 2 -75 3t-81 2.5t-70.5 11.5t-63 28.5t-39 55t-16.5 89.5q0 112 64.5 157.5t201.5 45.5q131 0 198 -43t67 -151
h-116q0 55 -33.5 71.5t-117.5 16.5q-66 0 -97.5 -10t-40 -28t-8.5 -57q0 -43 17.5 -57t57.5 -17q24 -2 65 -2.5t68.5 -2t63.5 -6t59.5 -16t45.5 -31.5t32.5 -53.5t10.5 -79.5zM376 -84q0 -46 -10 -76.5t-38 -58.5l-44 -44l-70 69l12 12l10.5 10.5t8.5 9t7.5 9t5.5 8.5t5 9.5
t3.5 9.5t3 12t1 13.5t0.5 16.5v40h105v-40z" />
    <glyph glyph-name="scommaaccent" unicode="&#x219;" horiz-adv-x="520" 
d="M476 342h-104q0 35 -20 48t-70 15q-67 2 -90 -11t-24 -41q-1 -20 3.5 -31.5t18 -17t23 -6.5t34.5 -3q101 -6 123 -11q83 -18 99 -92q5 -22 4 -51q-1 -44 -17.5 -74t-47.5 -46.5t-70 -23t-91 -5.5q-100 2 -151.5 35.5t-51.5 118.5h104q0 -33 20 -48t78 -16q68 -2 91 11.5
t24 42.5q1 21 -4 33.5t-19.5 18.5t-26 7.5t-38.5 2.5q-7 0 -20 1q-34 2 -51 3.5t-45.5 6.5t-43 14.5t-30.5 25.5t-22.5 41.5t-5.5 59.5q1 44 17.5 74t48 45.5t70 21.5t90.5 5q97 -2 146 -36.5t49 -117.5zM335 -84q0 -46 -10 -76.5t-38 -58.5l-44 -44l-70 69l12 12l10.5 10.5
t8.5 9t7.5 9t5.5 8.5t5 9.5t3.5 9.5t3 12t1 13.5t0.5 16.5v40h105v-40z" />
    <glyph glyph-name="uni021A" unicode="&#x21a;" horiz-adv-x="560" 
d="M542 562h-203v-562h-118v562h-203v105h524v-105zM333 -84q0 -46 -10 -76.5t-38 -58.5l-44 -44l-70 69l12 12l10.5 10.5t8.5 9t7.5 9t5.5 8.5t5 9.5t3.5 9.5t3 12t1 13.5t0.5 16.5v40h105v-40z" />
    <glyph glyph-name="uni021B" unicode="&#x21b;" horiz-adv-x="475" 
d="M456 146q0 -82 -50.5 -118t-131.5 -36q-178 0 -178 158v244h-78v94h78v179h113v-179h199v-94h-199v-244q0 -35 15.5 -50.5t55.5 -15.5q72 0 72 62h104zM327 -84q0 -46 -10 -76.5t-38 -58.5l-44 -44l-70 69l12 12l10.5 10.5t8.5 9t7.5 9t5.5 8.5t5 9.5t3.5 9.5t3 12
t1 13.5t0.5 16.5v40h105v-40z" />
    <glyph glyph-name="circumflex" unicode="&#x2c6;" horiz-adv-x="440" 
d="M404 540h-113l-71 69l-69 -69h-115l129 127h110z" />
    <glyph glyph-name="caron" unicode="&#x2c7;" horiz-adv-x="440" 
d="M404 667l-129 -127h-110l-129 127h113l71 -69l69 69h115z" />
    <glyph glyph-name="breve" unicode="&#x2d8;" horiz-adv-x="440" 
d="M367 667q0 -75 -32 -103t-115 -28t-115 28t-32 103h70q0 -40 19 -52.5t58 -12.5t58 12.5t19 52.5h70z" />
    <glyph glyph-name="dotaccent" unicode="&#x2d9;" horiz-adv-x="440" 
d="M278 609q0 -59 -59 -59q-58 0 -58 59q0 31 14 44.5t44 13.5q59 0 59 -58z" />
    <glyph glyph-name="ring" unicode="&#x2da;" horiz-adv-x="540" 
d="M391 626q0 -62 -28.5 -90.5t-94.5 -28.5t-94.5 28.5t-28.5 90.5t28.5 89.5t94.5 27.5t94.5 -27.5t28.5 -89.5zM323 625q0 34 -11 46.5t-44 12.5t-44 -12.5t-11 -46.5t11 -46.5t44 -12.5t44 12.5t11 46.5z" />
    <glyph glyph-name="ogonek" unicode="&#x2db;" horiz-adv-x="391" 
d="M77 -113q0 75 64 123h122q-94 -44 -94 -114q0 -59 83 -59h14v-79q-16 -3 -35 -3q-64 0 -109 32.5t-45 99.5z" />
    <glyph glyph-name="tilde" unicode="&#x2dc;" horiz-adv-x="440" 
d="M425 596l-77 -39q-72 -36 -133 2q-6 3 -16.5 10.5t-14.5 9.5t-12.5 5t-15.5 2t-18.5 -4.5t-25.5 -10.5l-58 -29l-39 71l32 16.5t36 18t33 12.5t37.5 8t34.5 -4t38 -15q4 -3 14.5 -9.5t13.5 -8t11.5 -5t14 -3t14.5 1t19 4.5t23 11l53 27z" />
    <glyph glyph-name="hungarumlaut" unicode="&#x2dd;" horiz-adv-x="438" 
d="M434 667l-125 -126h-113l125 126h113zM251 667l-125 -126h-113l125 126h113z" />
    <glyph glyph-name="uni0326" unicode="&#x326;" horiz-adv-x="440" 
d="M265 -84q0 -46 -10 -76.5t-38 -58.5l-44 -44l-70 69l12 12l10.5 10.5t8.5 9t7.5 9t5.5 8.5t5 9.5t3.5 9.5t3 12t1 13.5t0.5 16.5v40h105v-40z" />
    <glyph glyph-name="Delta" unicode="&#x394;" horiz-adv-x="651" 
d="M643 0h-635l258 667h121zM477 102l-154 434l-155 -434h309z" />
    <glyph glyph-name="Omega" unicode="&#x3a9;" horiz-adv-x="678" 
d="M614 0h-257v106q93 9 114 39q14 19 19.5 53.5t5.5 137.5q0 145 -28 188t-128 43q-101 0 -129.5 -43.5t-28.5 -187.5q0 -103 5.5 -137.5t19.5 -53.5q21 -30 114 -39v-106h-257v106h46q-22 23 -32.5 62.5t-12 71.5t-1.5 98q0 143 17 199q30 96 136 124q50 13 122 13
q183 0 239 -93q34 -58 36 -193v-50q0 -66 -1.5 -98t-12 -71.5t-32.5 -62.5h46v-106z" />
    <glyph glyph-name="mu" unicode="&#x3bc;" horiz-adv-x="554" 
d="M491 0h-102v37q-50 -45 -132 -45q-57 0 -85 18v-201h-109v679h113v-257v-26.5v-24t0.5 -19.5t2.5 -18.5t5 -14t7.5 -13t11 -8.5t15.5 -7.5t20.5 -3t26.5 -1.5q33 0 55.5 9t34 20t17 35t6 38.5t0.5 47.5v16v227h113v-488z" />
    <glyph glyph-name="pi" unicode="&#x3c0;" horiz-adv-x="669" 
d="M585 394h-56v-260v-12t1 -9t3 -8.5l6.5 -5t11.5 -4t17 -0.5h15v-95h-36q-75 0 -103 27t-28 93v274h-173v-394h-113v394h-56v94h511v-94z" />
    <glyph glyph-name="uni0400" unicode="&#x400;" horiz-adv-x="595" 
d="M535 0h-459v667h459v-105h-343v-169h333v-104h-333v-183h343v-106zM411 736h-124l-137 126h124z" />
    <glyph glyph-name="afii10023" unicode="&#x401;" horiz-adv-x="595" 
d="M472 804q0 -59 -59 -59q-58 0 -58 59q0 31 14 44.5t44 13.5q59 0 59 -58zM256 804q0 -59 -59 -59q-58 0 -58 59q0 31 14 44.5t44 13.5q59 0 59 -58zM535 0h-459v667h459v-105h-343v-169h333v-104h-333v-183h343v-106z" />
    <glyph glyph-name="afii10051" unicode="&#x402;" horiz-adv-x="728" 
d="M662 146q0 -120 -10 -182t-46 -98q-31 -31 -74.5 -43t-121.5 -12v104q48 0 72.5 7.5t40 35.5t19 69t3.5 121q0 36 -1 54.5t-6.5 42.5t-17 35.5t-32.5 20t-53 8.5q-74 0 -121 -21v-288h-118v562h-178v105h495v-105h-199v-168q56 21 129 21q108 0 163 -56q26 -26 39 -66
t15 -69t2 -78z" />
    <glyph glyph-name="afii10052" unicode="&#x403;" horiz-adv-x="531" 
d="M441 862l-138 -126h-126l138 126h126zM525 561h-331v-561h-118v667h449v-106z" />
    <glyph glyph-name="afii10053" unicode="&#x404;" horiz-adv-x="656" 
d="M596 480h-116q0 51 -29 69t-114 18q-89 0 -119.5 -34.5t-34.5 -141.5h236v-100h-237q3 -117 32.5 -154t121.5 -37q86 0 114.5 17.5t28.5 68.5h116q0 -107 -63.5 -150.5t-186.5 -43.5q-46 0 -83 6t-65 14.5t-49 26t-35 32.5t-23.5 42.5t-14.5 46.5t-7.5 54.5t-3 57
t-0.5 62.5q0 36 0.5 56.5t2 52t5.5 49.5t11 43.5t17.5 40.5t25.5 33t36 28t47.5 19.5t61 13.5t75.5 4q123 0 186.5 -43.5t63.5 -150.5z" />
    <glyph glyph-name="afii10054" unicode="&#x405;" horiz-adv-x="650" 
d="M594 208q0 -112 -66.5 -164t-203.5 -52q-131 0 -199.5 42.5t-68.5 151.5h118q0 -51 31.5 -69.5t120.5 -18.5q92 0 121 23t29 82q0 46 -16.5 60.5t-58.5 17.5q-24 2 -75 3t-81 2.5t-70.5 11.5t-63 28.5t-39 55t-16.5 89.5q0 112 64.5 157.5t201.5 45.5q131 0 198 -43
t67 -151h-116q0 55 -33.5 71.5t-117.5 16.5q-66 0 -97.5 -10t-40 -28t-8.5 -57q0 -43 17.5 -57t57.5 -17q24 -2 64.5 -2.5t68.5 -2t63.5 -6t59.5 -16t46 -31.5t32.5 -53.5t10.5 -79.5z" />
    <glyph glyph-name="afii10055" unicode="&#x406;" horiz-adv-x="270" 
d="M194 0h-118v667h118v-667z" />
    <glyph glyph-name="afii10056" unicode="&#x407;" horiz-adv-x="270" 
d="M302 804q0 -59 -59 -59q-58 0 -58 59q0 31 14 44.5t44 13.5q59 0 59 -58zM86 804q0 -59 -59 -59q-58 0 -58 59q0 31 14 44.5t44 13.5q59 0 59 -58zM194 0h-118v667h118v-667z" />
    <glyph glyph-name="afii10057" unicode="&#x408;" horiz-adv-x="548" 
d="M476 218q0 -66 -3 -84q-24 -142 -220 -142q-107 0 -165 43t-58 151h114q0 -54 25 -71t84 -17q38 0 60 6t31.5 24t11.5 34.5t2 53.5v451h118v-449z" />
    <glyph glyph-name="afii10058" unicode="&#x409;" horiz-adv-x="1017" 
d="M982 195q0 -36 -5 -64t-17.5 -48t-25 -34.5t-35 -23.5t-39.5 -14t-47.5 -7.5t-50 -3t-55.5 -0.5h-251v558h-142l-91 -401q-20 -89 -64.5 -127t-152.5 -38v108q50 0 72.5 22.5t33.5 72.5l107 472h355v-274h133q39 0 63 -1t57 -5t52.5 -11.5t41.5 -22t33.5 -35.5t19.5 -52
t8 -71zM864 197q0 62 -42 81q-21 9 -117 9h-131v-182h131q95 0 117 9q42 19 42 83z" />
    <glyph glyph-name="afii10059" unicode="&#x40a;" horiz-adv-x="1027" 
d="M992 195q0 -36 -5 -64t-17.5 -48t-25 -34.5t-35 -23.5t-39.5 -14t-47.5 -7.5t-50 -3t-55.5 -0.5h-251v288h-272v-288h-118v667h118v-273h272v273h118v-274h133q39 0 63 -1t57 -5t52.5 -11.5t41.5 -22t33.5 -35.5t19.5 -52t8 -71zM874 197q0 62 -42 81q-21 9 -117 9h-131
v-182h131q95 0 117 9q42 19 42 83z" />
    <glyph glyph-name="afii10060" unicode="&#x40b;" horiz-adv-x="728" 
d="M662 0h-118v157q0 88 -18.5 120t-90.5 32q-74 0 -121 -21v-288h-118v562h-178v105h495v-105h-199v-168q56 21 130 21q109 0 164 -56q25 -25 37.5 -64t14.5 -68.5t2 -80.5v-146z" />
    <glyph glyph-name="afii10061" unicode="&#x40c;" horiz-adv-x="642" 
d="M487 862l-138 -126h-126l138 126h126zM638 0h-172l-272 268v-268h-118v667h118v-270l282 270h159l-355 -331z" />
    <glyph glyph-name="uni040D" unicode="&#x40d;" horiz-adv-x="660" 
d="M584 0h-110v479l-277 -479h-121v667h110v-475l278 475h120v-667zM460 736h-124l-137 126h124z" />
    <glyph glyph-name="afii10062" unicode="&#x40e;" horiz-adv-x="606" 
d="M452 862q-1 -69 -33.5 -97.5t-113.5 -28.5t-113.5 28.5t-33.5 97.5h70q0 -40 19 -52.5t58 -12.5t58 12.5t19 52.5h70zM606 667l-349 -667h-133l116 220l-234 447h134l166 -323l168 323h132z" />
    <glyph glyph-name="afii10145" unicode="&#x40f;" horiz-adv-x="660" 
d="M584 0h-197v-117h-114v117h-197v667h118v-561h272v561h118v-667z" />
    <glyph glyph-name="afii10017" unicode="&#x410;" horiz-adv-x="651" 
d="M643 0h-129l-62 170h-260l-61 -170h-123l258 667h121zM416 272l-93 264l-94 -264h187z" />
    <glyph glyph-name="afii10018" unicode="&#x411;" horiz-adv-x="620" 
d="M585 195q0 -36 -5 -64t-17.5 -48t-25 -34.5t-35 -23.5t-39.5 -14t-47.5 -7.5t-50 -3t-55.5 -0.5h-234v667h449v-106h-331v-168h150q58 0 95.5 -6t74 -25.5t54 -60.5t17.5 -106zM467 197q0 62 -42 81q-21 9 -117 9h-114v-182h114q94 0 117 9q42 19 42 83z" />
    <glyph glyph-name="afii10019" unicode="&#x412;" horiz-adv-x="656" 
d="M591 198q0 -103 -49 -148q-11 -10 -24.5 -18t-24 -13.5t-29 -9t-26.5 -5.5t-30.5 -3t-27.5 -1h-31h-29h-244v667h238h16q36 0 54.5 -0.5t50.5 -3.5t49 -9t39 -18t33.5 -29.5t20 -45t9.5 -62.5q2 -128 -62 -155q40 -18 53.5 -54t13.5 -92zM468 478q0 25 -7.5 41.5t-17 25
t-32.5 12.5t-38 4.5t-49 0.5h-17h-114v-169h121q82 0 106 8q48 16 48 77zM473 196q0 54 -20 72q-10 9 -18 12.5t-37 6t-86 2.5h-119v-183h119q102 0 125 10q36 16 36 80z" />
    <glyph glyph-name="afii10020" unicode="&#x413;" horiz-adv-x="531" 
d="M525 561h-331v-561h-118v667h449v-106z" />
    <glyph glyph-name="afii10021" unicode="&#x414;" horiz-adv-x="688" 
d="M652 -117h-113v119h-420v-119h-113v222q50 2 72.5 24t34.5 72l111 466h352v-562h76v-222zM458 105v457h-139l-87 -364q-18 -72 -48 -93h274z" />
    <glyph glyph-name="afii10022" unicode="&#x415;" horiz-adv-x="595" 
d="M535 0h-459v667h459v-105h-343v-169h333v-104h-333v-183h343v-106z" />
    <glyph glyph-name="afii10024" unicode="&#x416;" horiz-adv-x="906" 
d="M902 0h-160l-230 268v-268h-118v268l-232 -268h-158l302 334l-302 333h152l238 -270v270h118v-270l240 270h147l-301 -331z" />
    <glyph glyph-name="afii10025" unicode="&#x417;" horiz-adv-x="657" 
d="M593 186q0 -104 -66.5 -149t-204.5 -45q-129 0 -195 42.5t-66 151.5h116q0 -50 30 -68t116 -18q92 0 125.5 19t33.5 75q0 63 -26.5 80t-129.5 17h-79v100h79q85 0 116 19t31 73q0 35 -8.5 51t-41 24.5t-101.5 8.5q-86 0 -116 -18t-30 -69h-116q0 108 66.5 151t195.5 43
q142 0 203 -40t61 -135q0 -55 -20 -93t-74 -59q63 -18 82 -56.5t19 -104.5z" />
    <glyph glyph-name="afii10026" unicode="&#x418;" horiz-adv-x="660" 
d="M584 0h-110v479l-277 -479h-121v667h110v-475l278 475h120v-667z" />
    <glyph glyph-name="afii10027" unicode="&#x419;" horiz-adv-x="660" 
d="M477 863q-1 -69 -33.5 -97.5t-113.5 -28.5t-113.5 28.5t-33.5 97.5h70q0 -40 19 -52.5t58 -12.5t58 12.5t19 52.5h70zM584 0h-110v479l-277 -479h-121v667h110v-475l278 475h120v-667z" />
    <glyph glyph-name="afii10028" unicode="&#x41a;" horiz-adv-x="642" 
d="M638 0h-172l-272 268v-268h-118v667h118v-270l282 270h159l-355 -331z" />
    <glyph glyph-name="afii10029" unicode="&#x41b;" horiz-adv-x="650" 
d="M574 0h-118v558h-142l-91 -401q-20 -89 -64.5 -127t-152.5 -38v108q50 0 72.5 22.5t33.5 72.5l107 472h355v-667z" />
    <glyph glyph-name="afii10030" unicode="&#x41c;" horiz-adv-x="824" 
d="M748 0h-110v518l-171 -518h-114l-169 518v-518h-108v667h156l181 -531l180 532h155v-668z" />
    <glyph glyph-name="afii10031" unicode="&#x41d;" horiz-adv-x="660" 
d="M584 0h-118v288h-272v-288h-118v667h118v-273h272v273h118v-667z" />
    <glyph glyph-name="afii10032" unicode="&#x41e;" horiz-adv-x="677" 
d="M613 335q0 -53 -1.5 -86t-7.5 -73.5t-17 -64.5t-30.5 -49.5t-49 -39t-71.5 -22t-97 -8.5q-184 0 -240 98q-33 59 -35 198v46q0 53 1 81t6 71t15 65t30 49.5t49 41t72.5 23t100.5 9.5q183 0 239 -94q34 -59 36 -196v-49zM495 334q0 146 -28 189.5t-129 43.5
q-100 0 -128 -43.5t-28 -190.5q0 -146 28 -189.5t128 -43.5t128.5 44t28.5 190z" />
    <glyph glyph-name="afii10033" unicode="&#x41f;" horiz-adv-x="660" 
d="M584 0h-118v562h-272v-562h-118v667h508v-667z" />
    <glyph glyph-name="afii10034" unicode="&#x420;" horiz-adv-x="620" 
d="M585 468q0 -56 -15 -94.5t-37 -59.5t-62 -32t-73.5 -13.5t-87.5 -2.5h-116v-266h-118v667h234q39 0 63 -1t56.5 -5t52 -11.5t41.5 -22t34 -35.5t20 -52.5t8 -71.5zM467 466q0 68 -42 87q-23 9 -117 9h-114v-190h114q96 0 117 9q42 19 42 85z" />
    <glyph glyph-name="afii10035" unicode="&#x421;" horiz-adv-x="656" 
d="M596 480h-116q0 51 -29 69t-114 18q-99 0 -127 -44t-28 -190t27.5 -189.5t126.5 -43.5q86 0 114.5 17.5t28.5 68.5h116q0 -107 -63.5 -150.5t-186.5 -43.5q-46 0 -83 6t-65 14.5t-49 26t-35 32.5t-23.5 42.5t-14.5 46.5t-7.5 54.5t-3 57t-0.5 62.5q0 36 0.5 56.5t2 52
t5.5 49.5t11 43.5t17.5 40.5t25.5 33t36 28t47.5 19.5t61 13.5t75.5 4q123 0 186.5 -43.5t63.5 -150.5z" />
    <glyph glyph-name="afii10036" unicode="&#x422;" horiz-adv-x="560" 
d="M542 562h-203v-562h-118v562h-203v105h524v-105z" />
    <glyph glyph-name="afii10037" unicode="&#x423;" horiz-adv-x="606" 
d="M606 667l-349 -667h-133l116 220l-234 447h134l166 -323l168 323h132z" />
    <glyph glyph-name="afii10038" unicode="&#x424;" horiz-adv-x="790" 
d="M741 334q0 -155 -65.5 -212.5t-221.5 -62.5v-59h-118v59q-156 5 -221.5 62.5t-65.5 212.5q0 157 65 215.5t222 63.5v54h118v-54q157 -5 222 -63.5t65 -215.5zM623 336q0 56 -6.5 87t-28.5 48.5t-50 23t-84 8.5v-334q56 3 84 8.5t50 23t28.5 48.5t6.5 87zM336 169v334
q-56 -3 -84 -8.5t-50 -23t-28.5 -48.5t-6.5 -87t6.5 -87t28.5 -48.5t50 -23t84 -8.5z" />
    <glyph glyph-name="afii10039" unicode="&#x425;" horiz-adv-x="628" 
d="M607 0h-135l-159 253l-158 -253h-134l224 339l-218 328h135l153 -242l152 242h135l-219 -328z" />
    <glyph glyph-name="afii10040" unicode="&#x426;" horiz-adv-x="672" 
d="M660 -117h-114v117h-470v667h118v-562h272v562h118v-562h76v-222z" />
    <glyph glyph-name="afii10041" unicode="&#x427;" horiz-adv-x="633" 
d="M557 0h-118v261q-63 -21 -146 -21q-117 0 -174 56q-27 25 -40 64.5t-15 68t-2 80.5v158h117v-163q0 -47 2.5 -69.5t14 -44.5t37 -30t69.5 -8q83 0 137 21v294h118v-667z" />
    <glyph glyph-name="afii10042" unicode="&#x428;" horiz-adv-x="889" 
d="M813 0h-737v667h118v-562h192v562h118v-562h191v562h118v-667z" />
    <glyph glyph-name="afii10043" unicode="&#x429;" horiz-adv-x="901" 
d="M889 -117h-113v117h-700v667h118v-562h192v562h118v-562h191v562h118v-562h76v-222z" />
    <glyph glyph-name="afii10044" unicode="&#x42a;" horiz-adv-x="715" 
d="M680 195q0 -36 -5 -64t-17.5 -48t-25 -34.5t-35 -23.5t-39.5 -14t-47.5 -7.5t-50 -3t-55.5 -0.5h-234v562h-177v105h295v-274h150q58 0 95.5 -6t74 -25.5t54 -60.5t17.5 -106zM562 197q0 62 -42 81q-21 9 -117 9h-114v-182h114q95 0 117 9q42 19 42 83z" />
    <glyph glyph-name="afii10045" unicode="&#x42b;" horiz-adv-x="864" 
d="M788 0h-118v667h118v-667zM585 195q0 -36 -5 -64t-17.5 -48t-25 -34.5t-35 -23.5t-39.5 -14t-47.5 -7.5t-50 -3t-55.5 -0.5h-234v667h118v-274h116q39 0 63 -1t57 -5t52.5 -11.5t41.5 -22t33.5 -35.5t19.5 -52t8 -71zM467 197q0 62 -42 81q-21 9 -117 9h-114v-182h114
q94 0 117 9q42 19 42 83z" />
    <glyph glyph-name="afii10046" unicode="&#x42c;" horiz-adv-x="620" 
d="M585 195q0 -36 -5 -64t-17.5 -48t-25 -34.5t-35 -23.5t-39.5 -14t-47.5 -7.5t-50 -3t-55.5 -0.5h-234v667h118v-274h116q39 0 63 -1t57 -5t52.5 -11.5t41.5 -22t33.5 -35.5t19.5 -52t8 -71zM467 197q0 62 -42 81q-21 9 -117 9h-114v-182h114q94 0 117 9q42 19 42 83z" />
    <glyph glyph-name="afii10047" unicode="&#x42d;" horiz-adv-x="656" 
d="M592 334q0 -41 -0.5 -62.5t-3 -57t-7.5 -54.5t-14.5 -46.5t-23.5 -42.5t-35 -32.5t-49 -26t-65 -14.5t-83 -6q-123 0 -186.5 43.5t-63.5 150.5h116q0 -51 28.5 -68.5t114.5 -17.5q92 0 121.5 36.5t32.5 152.5h-227v104h226q-4 105 -34.5 139.5t-119.5 34.5
q-85 0 -114 -18t-29 -69h-116q0 107 63.5 150.5t186.5 43.5q41 0 75.5 -4t61 -13.5t47.5 -19.5t36 -28t25.5 -33t17.5 -40.5t11 -43.5t5.5 -49.5t2 -52t0.5 -56.5z" />
    <glyph glyph-name="afii10048" unicode="&#x42e;" horiz-adv-x="938" 
d="M874 335q0 -53 -1.5 -86t-7.5 -73.5t-17 -64.5t-30.5 -49.5t-49 -39t-71.5 -22t-97 -8.5q-73 0 -124 15t-80 38.5t-45 65t-20.5 80t-5.5 97.5h-131v-288h-118v667h118v-273h131q1 39 3.5 67.5t9.5 59.5t19.5 52.5t33 41.5t48.5 32.5t68.5 19.5t91.5 7q183 0 239 -94
q34 -59 36 -196v-49zM756 334q0 146 -28 189.5t-129 43.5q-100 0 -128 -43.5t-28 -190.5q0 -146 28 -189.5t128 -43.5t128.5 44t28.5 190z" />
    <glyph glyph-name="afii10049" unicode="&#x42f;" horiz-adv-x="657" 
d="M581 0h-118v271h-113q-114 0 -135 -7q-24 -9 -27 -44q-1 -12 -1 -47v-173h-115v163v21.5v24.5t1 23.5t3.5 25t7.5 22t11.5 21t17.5 15t24 11.5q-36 15 -50.5 50.5t-14.5 97.5q0 39 8 69t19.5 50.5t33.5 34.5t41.5 21t52.5 11t57 5t63 1h234v-667zM463 377v185h-114
q-58 0 -86.5 -2.5t-36.5 -6t-18 -12.5q-20 -18 -20 -71q0 -69 34 -85q18 -8 120 -8h121z" />
    <glyph glyph-name="afii10065" unicode="&#x430;" horiz-adv-x="541" 
d="M485 0h-101v40q-55 -48 -152 -48q-93 0 -141.5 35.5t-48.5 120.5q0 41 12 71t30.5 46.5t48 26t55.5 12t62 2.5h125q0 55 -17 74.5t-86 19.5q-22 0 -36 -1.5t-32.5 -6t-28 -16.5t-9.5 -30h-110q0 45 18 76t51.5 46.5t69.5 21.5t83 6q207 0 207 -178v-318zM377 214h-131
q-53 0 -72 -13t-19 -51q0 -34 20 -49.5t75 -15.5q81 0 104 29t23 100z" />
    <glyph glyph-name="afii10066" unicode="&#x431;" horiz-adv-x="553" 
d="M507 244q0 -76 -10.5 -122t-39.5 -75q-55 -55 -175 -55t-175 55q-23 23 -35 62t-14 66t-2 69v181q0 123 47 170q20 20 48 31.5t47.5 15t52.5 6.5q6 1 18 1.5t18 1.5t16 2t15 2.5t12.5 4t11.5 6t8 8t5.5 11t1.5 14.5h112q0 -75 -34 -109q-25 -25 -75.5 -32.5t-99 -13.5
t-68.5 -26q-22 -22 -22 -65q44 43 147 43q61 0 100 -17.5t58 -54t25.5 -77.5t6.5 -103zM394 243q0 87 -20 118t-82 31q-74 0 -99.5 -29.5t-25.5 -119.5q0 -89 20 -120t94 -31t93.5 31t19.5 120z" />
    <glyph glyph-name="afii10067" unicode="&#x432;" horiz-adv-x="536" 
d="M496 145q0 -76 -41 -109q-11 -9 -22 -15t-27 -10t-24.5 -6.5t-29.5 -3.5t-26 -1h-31h-27h-205v488h200h14q35 0 53.5 -0.5t48.5 -3.5t46 -11t33.5 -21t25 -35t7.5 -52q0 -47 -11 -74.5t-41 -38.5q34 -14 45.5 -40t11.5 -67zM379 343q0 27 -14 37q-8 5 -13 6.5t-26 3
t-62 1.5h-88v-95h88q72 0 89 5q26 9 26 42zM379 149q0 31 -14 41q-8 5 -13 7t-26 3.5t-62 1.5h-88v-105h88q72 0 89 6q26 9 26 46z" />
    <glyph glyph-name="afii10068" unicode="&#x433;" horiz-adv-x="444" 
d="M441 388h-265v-388h-113v488h378v-100z" />
    <glyph glyph-name="afii10069" unicode="&#x434;" horiz-adv-x="569" 
d="M547 -117h-106v119h-329v-119h-106v217q39 0 59 17t29 56l74 315h316v-388h63v-217zM371 100v288h-112l-49 -208q-15 -64 -44 -80h205z" />
    <glyph glyph-name="afii10070" unicode="&#x435;" horiz-adv-x="545" 
d="M496 201h-334q0 -65 24 -90.5t94 -25.5q103 0 104 61h106q0 -154 -214 -154q-71 0 -117.5 17.5t-69.5 53t-31.5 76t-8.5 99.5q0 48 4.5 83t18 70t37.5 56.5t65.5 35t98.5 13.5q45 0 79.5 -8t58 -20.5t39.5 -35t25 -43.5t14 -55.5t6 -62t1 -70.5zM384 293q0 31 -2.5 47.5
t-13 33t-34 23t-61.5 6.5q-68 0 -88.5 -26.5t-20.5 -83.5h220z" />
    <glyph glyph-name="afii10072" unicode="&#x436;" horiz-adv-x="761" 
d="M755 0h-138l-180 219v-219h-113v219l-180 -219h-138l212 253l-211 235h135l182 -204v204h113v-204l182 204h132l-210 -233z" />
    <glyph glyph-name="afii10073" unicode="&#x437;" horiz-adv-x="534" 
d="M485 142q0 -81 -57 -115.5t-168 -34.5q-213 0 -213 154h107q0 -19 10 -31t29.5 -17t33.5 -6t37 -1q64 0 91 12t27 45q0 36 -21 46t-93 10h-55v95h55q60 0 84 9.5t24 39.5q0 27 -22.5 37t-89.5 10q-23 0 -36.5 -1t-33.5 -5.5t-30 -16t-10 -30.5h-107q0 46 17.5 77.5
t49 47.5t66.5 22.5t80 6.5q114 0 166.5 -31t52.5 -106q0 -74 -52 -104q36 -16 47 -43.5t11 -69.5z" />
    <glyph glyph-name="afii10074" unicode="&#x438;" horiz-adv-x="554" 
d="M491 0h-104v331l-209 -331h-115v488h104v-329l210 329h114v-488z" />
    <glyph glyph-name="afii10075" unicode="&#x439;" horiz-adv-x="554" 
d="M424 667q-1 -69 -33.5 -97.5t-113.5 -28.5t-113.5 28.5t-33.5 97.5h70q0 -40 19 -52.5t58 -12.5t58 12.5t19 52.5h70zM491 0h-104v331l-209 -331h-115v488h104v-329l210 329h114v-488z" />
    <glyph glyph-name="afii10076" unicode="&#x43a;" horiz-adv-x="536" 
d="M530 0h-147l-206 219v-219h-114v488h114v-204l209 204h140l-241 -233z" />
    <glyph glyph-name="afii10077" unicode="&#x43b;" horiz-adv-x="547" 
d="M484 0h-113v388h-113l-53 -227q-7 -31 -10 -42t-11 -35t-15.5 -33t-22.5 -23.5t-33 -20t-45 -10.5t-62 -5v110q41 0 60 16.5t28 55.5l74 314h316v-488z" />
    <glyph glyph-name="afii10078" unicode="&#x43c;" horiz-adv-x="676" 
d="M613 0h-108v320l-116 -320h-105l-115 319v-319h-106v496h141l135 -358l134 359h140v-497z" />
    <glyph glyph-name="afii10079" unicode="&#x43d;" horiz-adv-x="554" 
d="M491 0h-113v201h-202v-201h-113v488h113v-187h202v187h113v-488z" />
    <glyph glyph-name="afii10080" unicode="&#x43e;" horiz-adv-x="562" 
d="M513 244q0 -76 -11 -122t-41 -75q-56 -55 -180 -55t-180 55q-30 29 -41 75t-11 122t11 122t41 75q56 55 180 55t180 -55q30 -29 41 -75t11 -122zM400 244q0 89 -21 120.5t-98 31.5t-98 -31.5t-21 -120.5t21 -120.5t98 -31.5t98 31.5t21 120.5z" />
    <glyph glyph-name="afii10081" unicode="&#x43f;" horiz-adv-x="554" 
d="M491 0h-113v388h-202v-388h-113v488h428v-488z" />
    <glyph glyph-name="afii10082" unicode="&#x440;" horiz-adv-x="563" 
d="M514 243q0 -41 -3.5 -72t-16 -66.5t-34.5 -58.5t-61.5 -38.5t-94.5 -15.5q-87 0 -128 43v-226h-113v679h102v-39q56 49 152 47q64 -1 104 -17.5t60 -52.5t26.5 -77t6.5 -106zM401 243q0 88 -20.5 120.5t-81.5 32.5q-73 0 -98.5 -31t-25.5 -122t25.5 -121t98.5 -30
q62 0 82 31.5t20 119.5z" />
    <glyph glyph-name="afii10083" unicode="&#x441;" horiz-adv-x="528" 
d="M481 146q0 -154 -208 -154q-59 0 -101 14t-65.5 35t-37 56.5t-17 68.5t-3.5 80t3.5 79.5t17 67.5t37 55.5t65.5 34t101 13.5q208 0 208 -154h-107q0 19 -9 31t-26.5 16.5t-29.5 5.5t-33 1q-73 0 -93.5 -31.5t-20.5 -120.5t20.5 -120.5t93.5 -31.5q21 0 33 1t29.5 5.5
t26.5 16.5t9 31h107z" />
    <glyph glyph-name="afii10084" unicode="&#x442;" horiz-adv-x="457" 
d="M451 388h-166v-388h-113v388h-166v100h445v-100z" />
    <glyph glyph-name="afii10085" unicode="&#x443;" horiz-adv-x="519" 
d="M502 488l-263 -678h-119l83 202l-186 476h120l125 -351l120 351h120z" />
    <glyph glyph-name="afii10086" unicode="&#x444;" horiz-adv-x="835" 
d="M786 244q0 -56 -8 -97.5t-29.5 -78.5t-63 -56.5t-103.5 -19.5q-36 0 -65.5 11.5t-42.5 24.5v-219h-113v219q-28 -36 -116 -36q-64 0 -105 18t-60 55.5t-25 77t-6 100.5q0 49 3.5 83.5t15.5 68.5t33 54.5t57 33.5t87 13q86 0 116 -37v239h113v-239q50 37 117 37
q63 0 103.5 -18t60 -55.5t25.5 -77t6 -101.5zM673 244q0 80 -18 116t-75 36q-61 0 -85 -32.5t-24 -119.5t24 -119.5t85 -32.5q56 0 74.5 36t18.5 116zM364 244q0 87 -24 119.5t-85 32.5q-57 0 -75 -35.5t-18 -116.5q0 -82 17.5 -117t75.5 -35q61 0 85 32.5t24 119.5z" />
    <glyph glyph-name="afii10087" unicode="&#x445;" horiz-adv-x="536" 
d="M521 0h-133l-122 176l-123 -176h-128l186 248l-179 240h133l115 -166l117 166h129l-181 -239z" />
    <glyph glyph-name="afii10088" unicode="&#x446;" horiz-adv-x="554" 
d="M554 -117h-106v117h-385v488h113v-388h202v388h113v-388h63v-217z" />
    <glyph glyph-name="afii10089" unicode="&#x447;" horiz-adv-x="533" 
d="M470 0h-113v181q-49 -19 -126 -19q-100 0 -145 45q-21 21 -31 53t-11.5 56.5t-1.5 72.5v99h113v-90q0 -80 15.5 -108t80.5 -28q69 0 106 16v210h113v-488z" />
    <glyph glyph-name="afii10090" unicode="&#x448;" horiz-adv-x="765" 
d="M702 0h-639v488h113v-388h150v388h113v-388h150v388h113v-488z" />
    <glyph glyph-name="afii10091" unicode="&#x449;" horiz-adv-x="765" 
d="M765 -117h-106v117h-596v488h113v-388h150v388h113v-388h150v388h113v-388h63v-217z" />
    <glyph glyph-name="afii10092" unicode="&#x44a;" horiz-adv-x="567" 
d="M528 151q0 -84 -35 -115q-39 -36 -127 -36h-271v388h-101v100h214v-187h135q58 0 93 -7.5t58 -30.5q34 -34 34 -112zM411 150q0 31 -14 41q-8 5 -13 7t-26 3.5t-62 1.5h-88v-105h88q72 0 89 6q26 9 26 46z" />
    <glyph glyph-name="afii10093" unicode="&#x44b;" horiz-adv-x="746" 
d="M683 0h-113v488h113v-488zM496 151q0 -84 -35 -115q-39 -36 -127 -36h-271v488h113v-187h135q58 0 93 -7.5t58 -30.5q34 -34 34 -112zM379 150q0 31 -14 41q-8 5 -13 7t-26 3.5t-62 1.5h-88v-105h88q72 0 89 6q26 9 26 46z" />
    <glyph glyph-name="afii10094" unicode="&#x44c;" horiz-adv-x="535" 
d="M496 151q0 -84 -35 -115q-39 -36 -127 -36h-271v488h113v-187h135q58 0 93 -7.5t58 -30.5q34 -34 34 -112zM379 150q0 31 -14 41q-8 5 -13 7t-26 3.5t-62 1.5h-88v-105h88q72 0 89 6q26 9 26 46z" />
    <glyph glyph-name="afii10095" unicode="&#x44d;" horiz-adv-x="528" 
d="M479 246q0 -47 -3.5 -80t-17 -68.5t-37 -56.5t-65.5 -35t-101 -14q-208 0 -208 154h107q0 -19 9 -31t26.5 -16.5t29.5 -5.5t33 -1q66 0 89.5 24.5t23.5 87.5h-154v94h153q0 54 -25 76t-87 22q-21 0 -33 -1t-29.5 -5.5t-26.5 -16.5t-9 -31h-107q0 154 208 154
q59 0 101 -13.5t65.5 -34t37 -55.5t17 -67.5t3.5 -79.5z" />
    <glyph glyph-name="afii10096" unicode="&#x44e;" horiz-adv-x="784" 
d="M735 244q0 -76 -11 -122t-41 -75q-56 -55 -180 -55t-180 55q-46 45 -51 154h-96v-201h-113v488h113v-187h96q6 96 51 140q56 55 180 55t180 -55q30 -29 41 -75t11 -122zM622 244q0 89 -21 120.5t-98 31.5t-98 -31.5t-21 -120.5t21 -120.5t98 -31.5t98 31.5t21 120.5z" />
    <glyph glyph-name="afii10097" unicode="&#x44f;" horiz-adv-x="544" 
d="M481 0h-113v195h-84q-41 0 -62 -1.5t-26 -3.5t-13 -7q-14 -10 -14 -51v-132h-117v138q0 28 2.5 44.5t14.5 35t36 27.5q-52 23 -52 107q0 38 11.5 64t27 40t44 21.5t51.5 9t60 1.5h234v-488zM367 289v102h-88q-41 0 -62 -1.5t-26 -3.5t-13 -7q-14 -10 -14 -39
q0 -37 26 -46q14 -5 89 -5h88z" />
    <glyph glyph-name="uni0450" unicode="&#x450;" horiz-adv-x="545" 
d="M496 201h-334q0 -65 24 -90.5t94 -25.5q103 0 104 61h106q0 -154 -214 -154q-71 0 -117.5 17.5t-69.5 53t-31.5 76t-8.5 99.5q0 48 4.5 83t18 70t37.5 56.5t65.5 35t98.5 13.5q45 0 79.5 -8t58 -20.5t39.5 -35t25 -43.5t14 -55.5t6 -62t1 -70.5zM384 293q0 31 -2.5 47.5
t-13 33t-34 23t-61.5 6.5q-68 0 -88.5 -26.5t-20.5 -83.5h220zM395 541h-124l-137 126h124z" />
    <glyph glyph-name="afii10071" unicode="&#x451;" horiz-adv-x="545" 
d="M439 609q0 -59 -59 -59q-58 0 -58 59q0 31 14 44.5t44 13.5q59 0 59 -58zM223 609q0 -59 -59 -59q-58 0 -58 59q0 31 14 44.5t44 13.5q59 0 59 -58zM496 201h-334q0 -65 24 -90.5t94 -25.5q103 0 104 61h106q0 -154 -214 -154q-71 0 -117.5 17.5t-69.5 53t-31.5 76
t-8.5 99.5q0 48 4.5 83t18 70t37.5 56.5t65.5 35t98.5 13.5q45 0 79.5 -8t58 -20.5t39.5 -35t25 -43.5t14 -55.5t6 -62t1 -70.5zM384 293q0 31 -2.5 47.5t-13 33t-34 23t-61.5 6.5q-68 0 -88.5 -26.5t-20.5 -83.5h220z" />
    <glyph glyph-name="afii10099" unicode="&#x452;" horiz-adv-x="590" 
d="M421 97v160v26v25t-0.5 20t-2.5 19t-5 14.5t-7.5 13t-11 9t-15.5 7.5t-20.5 3t-26.5 2q-24 0 -42.5 -5t-30 -11t-20 -20t-12.5 -22.5t-6 -29.5t-2 -30.5v-34.5v-16v-227h-113v549h-88v79h88v70h113v-70h143v-79h-143v-92q51 39 126 39q40 0 70.5 -7.5t50 -17t33.5 -29.5
t20.5 -34.5t10 -42t4 -42.5t0.5 -45v-12v-160q0 -54 -2.5 -89t-11 -72.5t-25.5 -59.5t-44.5 -40.5t-69.5 -26.5t-100 -8v101q89 0 114.5 39.5t25.5 146.5z" />
    <glyph glyph-name="afii10100" unicode="&#x453;" horiz-adv-x="444" 
d="M404 667l-138 -126h-126l138 126h126zM441 388h-265v-388h-113v488h378v-100z" />
    <glyph glyph-name="afii10101" unicode="&#x454;" horiz-adv-x="528" 
d="M481 146q0 -154 -208 -154q-59 0 -101 14t-65.5 35t-37 56.5t-17 68.5t-3.5 80t3.5 79.5t17 67.5t37 55.5t65.5 34t101 13.5q208 0 208 -154h-107q0 19 -9 31t-26.5 16.5t-29.5 5.5t-33 1q-62 0 -87 -22t-25 -76h156v-94h-157q0 -63 23.5 -87.5t89.5 -24.5q21 0 33 1
t29.5 5.5t26.5 16.5t9 31h107z" />
    <glyph glyph-name="afii10102" unicode="&#x455;" horiz-adv-x="520" 
d="M476 342h-104q0 35 -21 49t-72 14q-66 0 -88.5 -12t-22.5 -41q0 -20 4 -31.5t17.5 -16.5t22 -6t35.5 -3q10 -1 33 -2t33.5 -1.5t31 -3t30.5 -5.5t26.5 -8.5t24.5 -13l19 -18.5t16 -25t8.5 -33t3.5 -42q0 -58 -30.5 -92.5t-78.5 -47t-118 -11.5q-100 2 -151 35.5
t-51 118.5h104q0 -33 21.5 -48.5t79.5 -15.5q66 0 89 12t23 43q0 17 -4.5 28.5t-9.5 17.5t-19.5 9t-23 4t-31.5 2q-99 5 -129 14q-80 23 -88 114q-1 11 -1 23q0 84 57.5 115.5t165.5 31.5q96 0 147 -35.5t51 -118.5z" />
    <glyph glyph-name="afii10103" unicode="&#x456;" horiz-adv-x="239" 
d="M181 613q0 -29 -16 -45.5t-46 -16.5t-46 16.5t-16 45.5q0 61 62 61t62 -61zM176 0h-113v488h113v-488z" />
    <glyph glyph-name="afii10104" unicode="&#x457;" horiz-adv-x="239" 
d="M286 609q0 -59 -59 -59q-58 0 -58 59q0 31 14 44.5t44 13.5q59 0 59 -58zM70 609q0 -59 -59 -59q-58 0 -58 59q0 31 14 44.5t44 13.5q59 0 59 -58zM176 0h-113v488h113v-488z" />
    <glyph glyph-name="afii10105" unicode="&#x458;" horiz-adv-x="239" 
d="M181 613q0 -29 -16 -45.5t-46 -16.5t-46 16.5t-16 45.5q0 61 62 61t62 -61zM176 -28q0 -166 -190 -166q-79 0 -129 29.5t-50 94.5h110q2 -32 69 -32q43 0 60 15.5t17 57.5v517h113v-516z" />
    <glyph glyph-name="afii10106" unicode="&#x459;" horiz-adv-x="831" 
d="M803 151q0 -84 -35 -115q-39 -36 -127 -36h-270h-1v388h-111l-53 -227q-8 -34 -12 -48.5t-13.5 -39.5t-22 -35.5t-32.5 -23.5t-50 -17.5t-70 -4.5v110q41 0 60 17t28 55l74 314h315v-187h135q58 0 93 -7.5t58 -30.5q34 -34 34 -112zM686 150q0 31 -14 41q-8 5 -13 7
t-26 3.5t-62 1.5h-88v-105h88q72 0 89 6q26 9 26 46z" />
    <glyph glyph-name="afii10107" unicode="&#x45a;" horiz-adv-x="839" 
d="M811 151q0 -84 -35 -115q-39 -36 -127 -36h-271v201h-202v-201h-113v488h113v-187h202v187h113v-187h135q58 0 93 -7.5t58 -30.5q34 -34 34 -112zM694 150q0 31 -14 41q-8 5 -13 7t-26 3.5t-62 1.5h-88v-105h88q72 0 89 6q26 9 26 46z" />
    <glyph glyph-name="afii10108" unicode="&#x45b;" horiz-adv-x="590" 
d="M534 0h-113v257v26v25t-0.5 20t-2.5 19t-5 14.5t-7.5 13t-11 9t-15.5 7.5t-20.5 3t-26.5 2q-24 0 -42.5 -5t-30 -11t-20 -20t-12.5 -22.5t-6 -29.5t-2 -30.5v-34.5v-16v-227h-113v549h-88v79h88v69h113v-69h143v-79h-143v-92q51 39 126 39q40 0 70.5 -7.5t50 -17
t33.5 -29.5t20.5 -34.5t10 -42t4 -42.5t0.5 -45v-12v-266z" />
    <glyph glyph-name="afii10109" unicode="&#x45c;" horiz-adv-x="536" 
d="M441 667l-138 -126h-126l138 126h126zM530 0h-147l-206 219v-219h-114v488h114v-203l208 203h141l-241 -233z" />
    <glyph glyph-name="uni045D" unicode="&#x45d;" horiz-adv-x="554" 
d="M491 0h-104v331l-209 -331h-115v488h104v-329l210 329h114v-488zM397 541h-124l-137 126h124z" />
    <glyph glyph-name="afii10110" unicode="&#x45e;" horiz-adv-x="519" 
d="M407 667q-1 -69 -33.5 -97.5t-113.5 -28.5t-113.5 28.5t-33.5 97.5h70q0 -40 19 -52.5t58 -12.5t58 12.5t19 52.5h70zM502 488l-263 -678h-119l83 202l-186 476h120l125 -351l120 351h120z" />
    <glyph glyph-name="afii10193" unicode="&#x45f;" horiz-adv-x="554" 
d="M491 0h-160v-117h-106v117h-162v488h113v-390h202v390h113v-488z" />
    <glyph glyph-name="afii10146" unicode="&#x462;" horiz-adv-x="715" 
d="M680 195q0 -36 -5 -64t-17.5 -48t-25 -34.5t-35 -23.5t-39.5 -14t-47.5 -7.5t-50 -3t-55.5 -0.5h-234v480h-177v106h177v81h118v-81h203v-106h-203v-87h150q58 0 95.5 -6t74 -25.5t54 -60.5t17.5 -106zM562 197q0 62 -42 81q-21 9 -117 9h-114v-182h114q95 0 117 9
q42 19 42 83z" />
    <glyph glyph-name="afii10194" unicode="&#x463;" horiz-adv-x="567" 
d="M528 151q0 -84 -35 -115q-39 -36 -127 -36h-271v394h-101v94h101v179h113v-179h199v-94h-199v-93h135q58 0 93 -7.5t58 -30.5q34 -34 34 -112zM411 150q0 31 -14 41q-8 5 -13 7t-26 3.5t-62 1.5h-88v-105h88q72 0 89 6q26 9 26 46z" />
    <glyph glyph-name="afii10147" unicode="&#x472;" horiz-adv-x="677" 
d="M613 335q0 -53 -1.5 -86t-7.5 -73.5t-17 -64.5t-30.5 -49.5t-49 -39t-71.5 -22t-97 -8.5q-184 0 -240 98q-33 59 -35 198v46q0 53 1 81t6 71t15 65t30 49.5t49 41t72.5 23t100.5 9.5q183 0 239 -94q34 -59 36 -196v-49zM338 100q93 0 123 36.5t33 151.5h-312
q3 -115 33 -151.5t123 -36.5zM338 567q-90 0 -120.5 -34t-34.5 -139h311q-4 105 -35 139t-121 34z" />
    <glyph glyph-name="afii10195" unicode="&#x473;" horiz-adv-x="562" 
d="M513 244q0 -76 -11 -122t-41 -75q-56 -55 -180 -55t-180 55q-30 29 -41 75t-11 122t11 122t41 75q56 55 180 55t180 -55q30 -29 41 -75t11 -122zM281 92q68 0 92.5 25t25.5 86h-236q1 -61 25.5 -86t92.5 -25zM281 396q-64 0 -89.5 -22t-27.5 -75h234q-2 53 -27.5 75
t-89.5 22z" />
    <glyph glyph-name="afii10148" unicode="&#x474;" horiz-adv-x="639" 
d="M368 0h-116l-249 667h126l183 -518l127 356q24 67 43 99t56 51.5t98 19.5v-105q-33 -1 -51.5 -21.5t-39.5 -77.5z" />
    <glyph glyph-name="afii10196" unicode="&#x475;" horiz-adv-x="524" 
d="M319 0h-113l-192 488h121l129 -358l74 198l17.5 45.5t14.5 36t15 30t16 21.5t19.5 17l23 9.5t29.5 7t37 1.5v-106q-27 -1 -40.5 -16t-30.5 -60z" />
    <glyph glyph-name="afii10050" unicode="&#x490;" horiz-adv-x="531" 
d="M525 561h-331v-561h-118v667h339v109h110v-215z" />
    <glyph glyph-name="afii10098" unicode="&#x491;" horiz-adv-x="444" 
d="M441 388h-265v-388h-113v488h272v115h106v-215z" />
    <glyph glyph-name="Wgrave" unicode="&#x1e80;" horiz-adv-x="898" 
d="M862 667l-155 -667h-124l-135 536l-137 -536h-123l-152 667h115l108 -507l128 507h125l129 -507l109 507h112zM557 736h-124l-137 126h124z" />
    <glyph glyph-name="wgrave" unicode="&#x1e81;" horiz-adv-x="733" 
d="M715 488l-132 -488h-113l-100 380l-103 -380h-117l-132 488h111l85 -364l98 364h110l99 -364l85 364h109zM481 541h-124l-137 126h124z" />
    <glyph glyph-name="Wacute" unicode="&#x1e82;" horiz-adv-x="898" 
d="M862 667l-155 -667h-124l-135 536l-137 -536h-123l-152 667h115l108 -507l128 507h125l129 -507l109 507h112zM620 862l-138 -127h-126l138 127h126z" />
    <glyph glyph-name="wacute" unicode="&#x1e83;" horiz-adv-x="733" 
d="M715 488l-132 -488h-113l-100 380l-103 -380h-117l-132 488h111l85 -364l98 364h110l99 -364l85 364h109zM524 667l-138 -127h-126l138 127h126z" />
    <glyph glyph-name="Wdieresis" unicode="&#x1e84;" horiz-adv-x="898" 
d="M862 667l-155 -667h-124l-135 536l-137 -536h-123l-152 667h115l108 -507l128 507h125l129 -507l109 507h112zM615 804q0 -59 -59 -59q-58 0 -58 59q0 31 14 44.5t44 13.5q59 0 59 -58zM399 804q0 -59 -59 -59q-58 0 -58 59q0 31 14 44.5t44 13.5q59 0 59 -58z" />
    <glyph glyph-name="wdieresis" unicode="&#x1e85;" horiz-adv-x="733" 
d="M715 488l-132 -488h-113l-100 380l-103 -380h-117l-132 488h111l85 -364l98 364h110l99 -364l85 364h109zM537 609q0 -59 -59 -59q-58 0 -58 59q0 31 14 44.5t44 13.5q59 0 59 -58zM321 609q0 -59 -59 -59q-58 0 -58 59q0 31 14 44.5t44 13.5q59 0 59 -58z" />
    <glyph glyph-name="Ygrave" unicode="&#x1ef2;" horiz-adv-x="611" 
d="M609 667l-245 -379v-288h-118v288l-244 379h137l168 -274l167 274h135zM429 736h-124l-137 126h124z" />
    <glyph glyph-name="ygrave" unicode="&#x1ef3;" horiz-adv-x="519" 
d="M502 488l-263 -678h-119l83 202l-186 476h120l125 -351l120 351h120zM378 541h-124l-137 126h124z" />
    <glyph glyph-name="figuredash" unicode="&#x2012;" horiz-adv-x="602" 
d="M569 193h-536v102h536v-102z" />
    <glyph glyph-name="endash" unicode="&#x2013;" horiz-adv-x="602" 
d="M569 193h-536v102h536v-102z" />
    <glyph glyph-name="emdash" unicode="&#x2014;" horiz-adv-x="1007" 
d="M909 193h-811v102h811v-102z" />
    <glyph glyph-name="quoteleft" unicode="&#x2018;" horiz-adv-x="241" 
d="M231 609l-14.5 -14.5l-13 -13t-10 -11t-9 -12t-5.5 -11t-5 -14t-2 -16t-1 -20.5v-106h-105v106q0 46 10 77t38 59l44 43z" />
    <glyph glyph-name="quoteright" unicode="&#x2019;" horiz-adv-x="241" 
d="M175 561q0 -46 -10 -77t-38 -59l-44 -43l-73 67l14.5 14.5l13 13t10 11t9 12t5.5 11t5 14t2 16t1 20.5v106h105v-106z" />
    <glyph glyph-name="quotesinglbase" unicode="&#x201a;" horiz-adv-x="246" 
d="M175 28q0 -46 -10 -77t-38 -59l-44 -43l-73 67l14.5 14.5l13 13t10 11t9 12t5.5 11t5 14t2 16t1 20.5v106h105v-106z" />
    <glyph glyph-name="quotedblleft" unicode="&#x201c;" horiz-adv-x="422" 
d="M412 609l-14.5 -14.5l-13 -13t-10 -11t-9 -12t-5.5 -11t-5 -14t-2 -16t-1 -20.5v-106h-105v106q0 46 10 77t38 59l44 43zM225 609q-35 -35 -44.5 -52.5t-9.5 -59.5v-106h-105v106q0 50 7.5 79.5t34.5 56.5l44 43z" />
    <glyph glyph-name="quotedblright" unicode="&#x201d;" horiz-adv-x="422" 
d="M356 561q0 -50 -7.5 -79.5t-34.5 -56.5l-44 -43l-73 67q35 35 44.5 52.5t9.5 59.5v106h105v-106zM175 561q0 -46 -10 -77t-38 -59l-44 -43l-73 67l14.5 14.5l13 13t10 11t9 12t5.5 11t5 14t2 16t1 20.5v106h105v-106z" />
    <glyph glyph-name="quotedblbase" unicode="&#x201e;" horiz-adv-x="427" 
d="M356 28q0 -50 -7.5 -79.5t-34.5 -56.5l-44 -43l-73 67q35 35 44.5 52.5t9.5 59.5v106h105v-106zM175 28q0 -46 -10 -77t-38 -59l-44 -43l-73 67l14.5 14.5l13 13t10 11t9 12t5.5 11t5 14t2 16t1 20.5v106h105v-106z" />
    <glyph glyph-name="dagger" unicode="&#x2020;" horiz-adv-x="573" 
d="M488 394h-146v-485h-110v485h-147v94h147v179h110v-179h146v-94z" />
    <glyph glyph-name="daggerdbl" unicode="&#x2021;" horiz-adv-x="573" 
d="M488 194h-146v-285h-110v285h-147v94h147v106h-147v94h147v179h110v-179h146v-94h-146v-105l146 -1v-94z" />
    <glyph glyph-name="bullet" unicode="&#x2022;" horiz-adv-x="493" 
d="M368 334q0 -64 -28.5 -92.5t-92.5 -28.5t-93 28.5t-29 92.5t29 93t93 29t92.5 -29t28.5 -93z" />
    <glyph glyph-name="ellipsis" unicode="&#x2026;" horiz-adv-x="984" 
d="M889 63q0 -71 -69 -71t-69 71q0 69 69 69t69 -69zM561 63q0 -71 -69 -71t-69 71q0 69 69 69t69 -69zM233 63q0 -71 -69 -71t-69 71q0 69 69 69t69 -69z" />
    <glyph glyph-name="perthousand" unicode="&#x2030;" horiz-adv-x="1278" 
d="M681 667l-337 -667h-85l336 667h86zM583 200v26q0 35 1.5 55.5t9 48t22 42t42.5 25.5t69 11t69 -11t42.5 -25.5t22 -42t9 -48t1.5 -55.5v-26v-26q0 -35 -1.5 -55.5t-9 -48t-22 -42t-42.5 -25.5t-69 -11t-69 11t-42.5 25.5t-22 42t-9 48t-1.5 55.5v26zM794 200
q0 86 -7 109q-11 32 -60 32t-60 -32q-7 -23 -7 -109t7 -109q10 -32 60 -32t60 32q7 23 7 109zM69 467v26q0 35 1.5 55.5t9 48t22 42t42.5 25.5t69 11t69 -11t42.5 -25.5t22 -42t9 -48t1.5 -55.5v-26v-26q0 -35 -1.5 -55.5t-9 -48t-22 -42t-42.5 -25.5t-69 -11t-69 11
t-42.5 25.5t-22 42t-9 48t-1.5 55.5v26zM280 467q0 86 -7 109q-11 32 -60 32t-60 -32q-7 -23 -7 -109t7 -109q10 -32 60 -32t60 32q7 23 7 109zM922 200v26q0 35 1.5 55.5t9 48t22 42t42.5 25.5t69 11t69 -11t42.5 -25.5t22 -42t9 -48t1.5 -55.5v-26v-26q0 -35 -1.5 -55.5
t-9 -48t-22 -42t-42.5 -25.5t-69 -11t-69 11t-42.5 25.5t-22 42t-9 48t-1.5 55.5v26zM1133 200q0 86 -7 109q-11 32 -60 32t-60 -32q-7 -23 -7 -109t7 -109q10 -32 60 -32t60 32q7 23 7 109z" />
    <glyph glyph-name="guilsinglleft" unicode="&#x2039;" horiz-adv-x="291" 
d="M255 99l-72 -67q-78 70 -105 105q-40 53 -40 104q0 30 12.5 60t37.5 60t44 49t50 47l73 -68l-39 -39l-13.5 -13.5l-15 -15t-12.5 -13.5t-12 -15.5l-8 -14.5t-6.5 -18t-1.5 -18q0 -7 1 -14t4.5 -14.5l6 -13t8.5 -13t9.5 -11.5t11.5 -12l11.5 -11.5l13 -12.5l12.5 -12z" />
    <glyph glyph-name="guilsinglright" unicode="&#x203a;" horiz-adv-x="291" 
d="M253 241q0 -24 -11 -50.5t-21 -43t-37 -44t-35.5 -35.5t-40.5 -36l-72 67l30 29l12.5 12l13 12.5l11.5 11.5t11.5 12t9.5 11.5t8.5 13l6 13t4.5 14.5t1 14q0 9 -1.5 18t-6.5 18l-8 14.5t-12 15.5t-12.5 13.5l-15 15l-13.5 13.5l-39 39l73 68q31 -28 50 -47t44 -49
t37.5 -60t12.5 -60z" />
    <glyph glyph-name="fraction" unicode="&#x2044;" horiz-adv-x="89" 
d="M256 667l-337 -667h-85l336 667h86z" />
    <glyph glyph-name="zerosuperior" unicode="&#x2070;" 
d="M69 467v26q0 35 1.5 55.5t9 48t22 42t42.5 25.5t69 11t69 -11t42.5 -25.5t22 -42t9 -48t1.5 -55.5v-26v-26q0 -35 -1.5 -55.5t-9 -48t-22 -42t-42.5 -25.5t-69 -11t-69 11t-42.5 25.5t-22 42t-9 48t-1.5 55.5v26zM280 467q0 86 -7 109q-11 32 -60 32t-60 -32
q-7 -23 -7 -109t7 -109q10 -32 60 -32t60 32q7 23 7 109z" />
    <glyph glyph-name="foursuperior" unicode="&#x2074;" 
d="M352 358h-55v-91h-75v91h-179v54l182 255h72v-244h55v-65zM222 423v131l-93 -131h93z" />
    <glyph glyph-name="fivesuperior" unicode="&#x2075;" 
d="M78 359h76q0 -18 15 -25.5t49 -7.5q36 0 50.5 17.5t14.5 53.5q0 40 -13.5 55.5t-51.5 15.5q-50 0 -58 -37h-75v236h253v-64h-178v-88q17 19 68 19q73 0 102 -31t29 -104q0 -75 -36 -107.5t-105 -32.5q-65 0 -102.5 21.5t-37.5 78.5z" />
    <glyph glyph-name="sixsuperior" unicode="&#x2076;" 
d="M338 574h-77q-1 34 -51 34q-19 0 -32 -5t-19.5 -11t-10 -22t-4 -25.5t-0.5 -33.5q30 23 76 23q66 0 96 -30.5t30 -106.5q0 -138 -136 -138q-101 0 -130 74q-12 33 -12 116q0 104 6 135q18 91 136 91q128 0 128 -101zM270 396q0 39 -14 55t-46 16q-65 0 -65 -68
q0 -73 65 -73q33 0 46.5 15.5t13.5 54.5z" />
    <glyph glyph-name="sevensuperior" unicode="&#x2077;" 
d="M352 614l-171 -347h-83l167 334h-190v66h277v-53z" />
    <glyph glyph-name="eightsuperior" unicode="&#x2078;" 
d="M354 379q0 -70 -36 -95t-105 -25t-105.5 25t-36.5 95q0 79 44 96q-25 9 -32.5 31t-7.5 60q0 62 32.5 85.5t105.5 23.5q72 0 105 -24t33 -85q0 -37 -8 -59t-32 -31q26 -10 34.5 -34.5t8.5 -62.5zM213 324q34 0 50 14t16 45q0 63 -66 63t-66 -63q0 -31 16 -45t50 -14z
M213 508q35 0 48.5 12t13.5 38t-13.5 39t-48.5 13t-48.5 -13t-13.5 -39t13.5 -38t48.5 -12z" />
    <glyph glyph-name="ninesuperior" unicode="&#x2079;" 
d="M87 360h77q1 -34 51 -34q24 0 38 6t19.5 21.5t7 28.5t1.5 41q-30 -23 -76 -23q-66 0 -96 30.5t-30 106.5q0 138 136 138q101 0 130 -74q12 -33 12 -116q0 -104 -6 -135q-18 -91 -136 -91q-128 0 -128 101zM155 538q0 -39 14 -55t46 -16q65 0 65 68q0 73 -65 73
q-33 0 -46.5 -15.5t-13.5 -54.5z" />
    <glyph glyph-name="parenleftsuperior" unicode="&#x207d;" horiz-adv-x="239" 
d="M54 466v51t1.5 46.5t4 44.5t6.5 38.5t10.5 35.5t16 29t22.5 24.5t29.5 16.5t37.5 11.5t47 3.5v-70q-66 0 -82 -46.5t-16 -184.5q0 -49 0.5 -75t3.5 -57t9 -45.5t17 -29t27.5 -19.5t40.5 -5v-70q-26 0 -47 3.5t-37.5 11.5t-29.5 16.5t-22.5 24.5t-16 29t-10.5 35.5
t-6.5 38.5t-4 44.5t-1.5 46.5v51z" />
    <glyph glyph-name="parenrightsuperior" unicode="&#x207e;" horiz-adv-x="239" 
d="M185 466v-51t-1.5 -46.5t-4 -44.5t-6.5 -38.5t-10.5 -35.5t-16 -29t-22.5 -24.5t-29.5 -16.5t-37.5 -11.5t-47 -3.5v70q66 0 82 46.5t16 184.5q0 49 -0.5 75t-3.5 57t-9 45.5t-17 29t-27.5 19.5t-40.5 5v70q26 0 47 -3.5t37.5 -11.5t29.5 -16.5t22.5 -24.5t16 -29
t10.5 -35.5t6.5 -38.5t4 -44.5t1.5 -46.5v-51z" />
    <glyph glyph-name="zeroinferior" unicode="&#x2080;" 
d="M69 200v26q0 35 1.5 55.5t9 48t22 42t42.5 25.5t69 11t69 -11t42.5 -25.5t22 -42t9 -48t1.5 -55.5v-26v-26q0 -35 -1.5 -55.5t-9 -48t-22 -42t-42.5 -25.5t-69 -11t-69 11t-42.5 25.5t-22 42t-9 48t-1.5 55.5v26zM280 200q0 86 -7 109q-11 32 -60 32t-60 -32
q-7 -23 -7 -109t7 -109q10 -32 60 -32t60 32q7 23 7 109z" />
    <glyph glyph-name="oneinferior" unicode="&#x2081;" 
d="M346 0h-255v68h88v224l-59 -51l-47 53l123 106h60v-332h90v-68z" />
    <glyph glyph-name="twoinferior" unicode="&#x2082;" 
d="M353 286q0 -66 -44 -96q-23 -16 -81.5 -32t-69.5 -25q-12 -10 -12 -40v-25h206v-68h-283v102q0 20 4 36.5t15 28.5t19 20t27.5 15.5t28 10.5t33 9.5t30.5 8.5q32 9 41.5 19t9.5 36q0 32 -13 43.5t-53 11.5q-38 0 -52.5 -8t-14.5 -33h-76q0 61 38 84.5t104 23.5
q71 0 107 -28t36 -94z" />
    <glyph glyph-name="threeinferior" unicode="&#x2083;" 
d="M359 115q0 -59 -33 -91q-35 -32 -115 -32q-67 0 -105 24t-38 87h75q0 -25 15 -34.5t53 -9.5q45 0 58.5 10.5t13.5 44.5q0 38 -13.5 49.5t-56.5 11.5h-60v66h60q39 0 52.5 9.5t13.5 39.5q0 28 -12 39.5t-54 11.5q-40 0 -54 -8.5t-14 -32.5h-74q0 62 37.5 85t104.5 23
q72 0 107 -27t35 -89q0 -68 -38 -84q42 -15 42 -93z" />
    <glyph glyph-name="fourinferior" unicode="&#x2084;" 
d="M352 91h-55v-91h-75v91h-179v54l182 255h72v-244h55v-65zM222 156v131l-93 -131h93z" />
    <glyph glyph-name="fiveinferior" unicode="&#x2085;" 
d="M78 92h76q0 -18 15 -25.5t49 -7.5q36 0 50.5 17.5t14.5 53.5q0 40 -13.5 55.5t-51.5 15.5q-50 0 -58 -37h-75v236h253v-64h-178v-88q17 19 68 19q73 0 102 -31t29 -104q0 -75 -36 -107.5t-105 -32.5q-65 0 -102.5 21.5t-37.5 78.5z" />
    <glyph glyph-name="sixinferior" unicode="&#x2086;" 
d="M338 307h-77q-1 34 -51 34q-19 0 -32 -5t-19.5 -11t-10 -22t-4 -25.5t-0.5 -33.5q30 23 76 23q66 0 96 -30.5t30 -106.5q0 -138 -136 -138q-101 0 -130 74q-12 33 -12 116q0 104 6 135q18 91 136 91q128 0 128 -101zM270 129q0 39 -14 55t-46 16q-65 0 -65 -68
q0 -73 65 -73q33 0 46.5 15.5t13.5 54.5z" />
    <glyph glyph-name="seveninferior" unicode="&#x2087;" 
d="M352 347l-171 -347h-83l167 334h-190v66h277v-53z" />
    <glyph glyph-name="eightinferior" unicode="&#x2088;" 
d="M354 112q0 -70 -36 -95t-105 -25t-105.5 25t-36.5 95q0 79 44 96q-25 9 -32.5 31t-7.5 60q0 62 32.5 85.5t105.5 23.5q72 0 105 -24t33 -85q0 -37 -8 -59t-32 -31q26 -10 34.5 -34.5t8.5 -62.5zM213 57q34 0 50 14t16 45q0 61 -66 61t-66 -61q0 -31 16 -45t50 -14z
M213 241q35 0 48.5 12t13.5 38t-13.5 39t-48.5 13t-48.5 -13t-13.5 -39t13.5 -38t48.5 -12z" />
    <glyph glyph-name="nineinferior" unicode="&#x2089;" 
d="M87 93h77q1 -34 51 -34q24 0 38 6t19.5 21.5t7 28.5t1.5 41q-30 -23 -76 -23q-66 0 -96 30.5t-30 106.5q0 138 136 138q101 0 130 -74q12 -33 12 -116q0 -104 -6 -135q-18 -91 -136 -91q-128 0 -128 101zM155 271q0 -39 14 -55t46 -16q65 0 65 68q0 73 -65 73
q-33 0 -46.5 -15.5t-13.5 -54.5z" />
    <glyph glyph-name="parenleftinferior" unicode="&#x208d;" horiz-adv-x="239" 
d="M54 199v51t1.5 46.5t4 44.5t6.5 38.5t10.5 35.5t16 29t22.5 24.5t29.5 16.5t37.5 11.5t47 3.5v-70q-66 0 -82 -46.5t-16 -184.5q0 -49 0.5 -75t3.5 -57t9 -45.5t17 -29t27.5 -19.5t40.5 -5v-70q-26 0 -47 3.5t-37.5 11.5t-29.5 16.5t-22.5 24.5t-16 29t-10.5 35.5
t-6.5 38.5t-4 44.5t-1.5 46.5v51z" />
    <glyph glyph-name="parenrightinferior" unicode="&#x208e;" horiz-adv-x="239" 
d="M185 199v-51t-1.5 -46.5t-4 -44.5t-6.5 -38.5t-10.5 -35.5t-16 -29t-22.5 -24.5t-29.5 -16.5t-37.5 -11.5t-47 -3.5v70q66 0 82 46.5t16 184.5q0 49 -0.5 75t-3.5 57t-9 45.5t-17 29t-27.5 19.5t-40.5 5v70q26 0 47 -3.5t37.5 -11.5t29.5 -16.5t22.5 -24.5t16 -29
t10.5 -35.5t6.5 -38.5t4 -44.5t1.5 -46.5v-51z" />
    <glyph glyph-name="franc" unicode="&#x20a3;" horiz-adv-x="988" 
d="M525 562h-331v-169h322v-104h-322v-289h-118v667h449v-105zM976 247h-109q0 32 -16 43.5t-53 11.5q-67 0 -88 -58q-11 -30 -11 -127v-117h-113v393h98v-44q49 52 134 52q80 0 119 -37.5t39 -116.5z" />
    <glyph glyph-name="lira" unicode="&#x20a4;" horiz-adv-x="593" 
d="M402 215h-175v-113h330v-102h-510v102h67v113h-67v91h67v57h-67v91h67v3q0 80 11 110t36 53q57 54 172 54q32 0 54.5 -1.5t55.5 -11t54 -26t36.5 -50t15.5 -79.5h-109q0 40 -23.5 53t-74.5 13q-76 0 -95.5 -22t-19.5 -91v-5h176v-91h-176v-57h175v-91z" />
    <glyph glyph-name="peseta" unicode="&#x20a7;" horiz-adv-x="1615" 
d="M585 468q0 -56 -15 -94.5t-37 -59.5t-62 -32t-73.5 -13.5t-87.5 -2.5h-116v-266h-118v667h234q39 0 63 -1t56.5 -5t52 -11.5t41.5 -22t34 -35.5t20 -52.5t8 -71.5zM467 466q0 68 -42 87q-23 9 -117 9h-114v-190h114q96 0 117 9q42 19 42 85zM1076 146q0 -82 -50.5 -118
t-131.5 -36q-178 0 -178 158v244h-78v94h78v179h113v-179h199v-94h-199v-244q0 -35 15.5 -50.5t55.5 -15.5q72 0 72 62h104zM1571 342h-104q0 35 -20 48t-70 15q-67 2 -90 -11t-24 -41q-1 -20 3.5 -31.5t18 -17t23 -6.5t34.5 -3q101 -6 123 -11q83 -18 99 -92q5 -22 4 -51
q-1 -44 -17.5 -74t-47.5 -46.5t-70 -23t-91 -5.5q-100 2 -151.5 35.5t-51.5 118.5h104q0 -33 20 -48t78 -16q68 -2 91 11.5t24 42.5q1 21 -4 33.5t-19.5 18.5t-26 7.5t-38.5 2.5q-7 0 -20 1q-34 2 -51 3.5t-45.5 6.5t-43 14.5t-30.5 25.5t-22.5 41.5t-5.5 59.5q1 44 17.5 74
t48 45.5t70 21.5t90.5 5q97 -2 146 -36.5t49 -117.5z" />
    <glyph glyph-name="Euro" unicode="&#x20ac;" horiz-adv-x="602" 
d="M556 160q0 -168 -217 -168q-125 0 -175.5 56t-56.5 167h-66v91h66v57h-67v91h67q6 111 56.5 165.5t175.5 54.5q217 0 217 -168h-115q0 39 -24 52t-78 13q-38 0 -61.5 -7t-35 -24t-15.5 -35.5t-5 -50.5h175v-91h-178v-57h177v-91h-174q1 -32 5 -50.5t15.5 -36.5t35 -25.5
t61.5 -7.5q54 0 78 13t24 52h115z" />
    <glyph glyph-name="afii61289" unicode="&#x2113;" horiz-adv-x="500" 
d="M249 269q-33 -171 -33 -208q0 -25 18 -25q26 0 51 54q8 18 19 18q13 0 13 -15q0 -23 -26 -60q-37 -47 -76 -47q-31 0 -49 23.5t-18 64.5q0 36 10 127q-41 -38 -49 -38q-5 0 -9.5 5t-4.5 11q0 10 20 27q23 20 50 52q41 216 89 318t108 102q29 0 46 -22t17 -59
q0 -87 -64 -192q-36 -58 -112 -136zM260 333q125 140 125 260q0 44 -23 44q-11 0 -22.5 -12.5t-18.5 -31.5q-31 -86 -61 -260z" />
    <glyph glyph-name="afii61352" unicode="&#x2116;" horiz-adv-x="1052" 
d="M1008 318q0 -54 -8 -86t-30 -53q-43 -40 -132 -40q-92 0 -133 40q-22 21 -29.5 52.5t-7.5 86.5t7.5 86t29.5 52q41 40 133 40q89 0 132 -40q22 -22 30 -53t8 -85zM998 0h-320v90h320v-90zM584 0h-121l-277 479v-479h-110v667h120l278 -475v475h110v-667zM915 318
q0 54 -15 68q-18 16 -62 16q-51 0 -64 -17.5t-13 -66.5t13 -66.5t64 -17.5t64 17.5t13 66.5z" />
    <glyph glyph-name="trademark" unicode="&#x2122;" horiz-adv-x="844" 
d="M795 233h-75v295l-102 -295h-76l-98 294v-294h-73v435h96l116 -330l117 330h95v-435zM344 596h-124v-363h-80v363h-124v72h328v-72z" />
    <glyph glyph-name="uni2126" unicode="&#x2126;" horiz-adv-x="678" 
d="M614 0h-257v106q93 9 114 39q14 19 19.5 53.5t5.5 137.5q0 145 -28 188t-128 43q-101 0 -129.5 -43.5t-28.5 -187.5q0 -103 5.5 -137.5t19.5 -53.5q21 -30 114 -39v-106h-257v106h46q-22 23 -32.5 62.5t-12 71.5t-1.5 98q0 143 17 199q30 96 136 124q50 13 122 13
q183 0 239 -93q34 -58 36 -193v-50q0 -66 -1.5 -98t-12 -71.5t-32.5 -62.5h46v-106z" />
    <glyph glyph-name="estimated" unicode="&#x212e;" horiz-adv-x="798" 
d="M769 311h-599q-6 0 -6 -4v-181q0 -10 9 -21q93 -98 227 -98q70 0 131.5 29.5t106.5 80.5h54q-51 -60 -128.5 -95t-164.5 -35q-153 0 -261.5 97.5t-108.5 235.5q0 137 108.5 234.5t261.5 97.5t261.5 -97.5t108.5 -234.5v-9zM634 335v181q0 12 -10 22q-92 94 -224 94
t-226 -97q-10 -10 -10 -23v-177q0 -5 6 -5h459q5 0 5 5z" />
    <glyph glyph-name="onethird" unicode="&#x2153;" horiz-adv-x="939" 
d="M346 267h-255v68h88v224l-59 -51l-47 53l123 106h60v-332h90v-68zM873 115q0 -59 -33 -91q-35 -32 -115 -32q-67 0 -105 24t-38 87h75q0 -25 15 -34.5t53 -9.5q45 0 58.5 10.5t13.5 44.5q0 38 -13.5 49.5t-56.5 11.5h-60v66h60q39 0 52.5 9.5t13.5 39.5q0 28 -12 39.5
t-54 11.5q-40 0 -54 -8.5t-14 -32.5h-74q0 62 37.5 85t104.5 23q72 0 107 -27t35 -89q0 -68 -38 -84q42 -15 42 -93zM681 667l-337 -667h-85l336 667h86z" />
    <glyph glyph-name="twothirds" unicode="&#x2154;" horiz-adv-x="939" 
d="M353 553q0 -66 -44 -96q-23 -16 -81.5 -32t-69.5 -25q-12 -10 -12 -40v-25h206v-68h-283v102q0 20 4 36.5t15 28.5t19 20t27.5 15.5t28 10.5t33 9.5t30.5 8.5q32 9 41.5 19t9.5 36q0 32 -13 43.5t-53 11.5q-38 0 -52.5 -8t-14.5 -33h-76q0 61 38 84.5t104 23.5
q71 0 107 -28t36 -94zM873 115q0 -59 -33 -91q-35 -32 -115 -32q-67 0 -105 24t-38 87h75q0 -25 15 -34.5t53 -9.5q45 0 58.5 10.5t13.5 44.5q0 38 -13.5 49.5t-56.5 11.5h-60v66h60q39 0 52.5 9.5t13.5 39.5q0 28 -12 39.5t-54 11.5q-40 0 -54 -8.5t-14 -32.5h-74
q0 62 37.5 85t104.5 23q72 0 107 -27t35 -89q0 -68 -38 -84q42 -15 42 -93zM681 667l-337 -667h-85l336 667h86z" />
    <glyph glyph-name="oneeighth" unicode="&#x215b;" horiz-adv-x="939" 
d="M346 267h-255v68h88v224l-59 -51l-47 53l123 106h60v-332h90v-68zM868 112q0 -70 -36 -95t-105 -25t-105.5 25t-36.5 95q0 79 44 96q-25 9 -32.5 31t-7.5 60q0 62 32.5 85.5t105.5 23.5q72 0 105 -24t33 -85q0 -37 -8 -59t-32 -31q26 -10 34.5 -34.5t8.5 -62.5zM727 57
q34 0 50 14t16 45q0 61 -66 61t-66 -61q0 -31 16 -45t50 -14zM727 241q35 0 48.5 12t13.5 38t-13.5 39t-48.5 13t-48.5 -13t-13.5 -39t13.5 -38t48.5 -12zM681 667l-337 -667h-85l336 667h86z" />
    <glyph glyph-name="threeeighths" unicode="&#x215c;" horiz-adv-x="939" 
d="M359 382q0 -59 -33 -91q-35 -32 -115 -32q-67 0 -105 24t-38 87h75q0 -25 15 -34.5t53 -9.5q45 0 58.5 10.5t13.5 44.5q0 38 -13.5 49.5t-56.5 11.5h-60v66h60q39 0 52.5 9.5t13.5 39.5q0 28 -12 39.5t-54 11.5q-40 0 -54 -8.5t-14 -32.5h-74q0 62 37.5 85t104.5 23
q72 0 107 -27t35 -89q0 -68 -38 -84q42 -15 42 -93zM868 112q0 -70 -36 -95t-105 -25t-105.5 25t-36.5 95q0 79 44 96q-25 9 -32.5 31t-7.5 60q0 62 32.5 85.5t105.5 23.5q72 0 105 -24t33 -85q0 -37 -8 -59t-32 -31q26 -10 34.5 -34.5t8.5 -62.5zM727 57q34 0 50 14t16 45
q0 61 -66 61t-66 -61q0 -31 16 -45t50 -14zM727 241q35 0 48.5 12t13.5 38t-13.5 39t-48.5 13t-48.5 -13t-13.5 -39t13.5 -38t48.5 -12zM681 667l-337 -667h-85l336 667h86z" />
    <glyph glyph-name="fiveeighths" unicode="&#x215d;" horiz-adv-x="939" 
d="M868 112q0 -70 -36 -95t-105 -25t-105.5 25t-36.5 95q0 79 44 96q-25 9 -32.5 31t-7.5 60q0 62 32.5 85.5t105.5 23.5q72 0 105 -24t33 -85q0 -37 -8 -59t-32 -31q26 -10 34.5 -34.5t8.5 -62.5zM727 57q34 0 50 14t16 45q0 61 -66 61t-66 -61q0 -31 16 -45t50 -14z
M727 241q35 0 48.5 12t13.5 38t-13.5 39t-48.5 13t-48.5 -13t-13.5 -39t13.5 -38t48.5 -12zM681 667l-337 -667h-85l336 667h86zM78 359h76q0 -18 15 -25.5t49 -7.5q36 0 50.5 17.5t14.5 53.5q0 40 -13.5 55.5t-51.5 15.5q-50 0 -58 -37h-75v236h253v-64h-178v-88
q17 19 68 19q73 0 102 -31t29 -104q0 -75 -36 -107.5t-105 -32.5q-65 0 -102.5 21.5t-37.5 78.5z" />
    <glyph glyph-name="seveneighths" unicode="&#x215e;" horiz-adv-x="939" 
d="M868 112q0 -70 -36 -95t-105 -25t-105.5 25t-36.5 95q0 79 44 96q-25 9 -32.5 31t-7.5 60q0 62 32.5 85.5t105.5 23.5q72 0 105 -24t33 -85q0 -37 -8 -59t-32 -31q26 -10 34.5 -34.5t8.5 -62.5zM727 57q34 0 50 14t16 45q0 61 -66 61t-66 -61q0 -31 16 -45t50 -14z
M727 241q35 0 48.5 12t13.5 38t-13.5 39t-48.5 13t-48.5 -13t-13.5 -39t13.5 -38t48.5 -12zM681 667l-337 -667h-85l336 667h86zM352 614l-171 -347h-83l167 334h-190v66h277v-53z" />
    <glyph glyph-name="arrowleft" unicode="&#x2190;" horiz-adv-x="719" 
d="M691 276h-458l213 -206l-78 -78l-340 339l339 339l78 -77l-212 -207h458v-110z" />
    <glyph glyph-name="arrowup" unicode="&#x2191;" horiz-adv-x="730" 
d="M704 323l-77 -78l-207 213v-458h-110v458l-206 -213l-78 78l339 340z" />
    <glyph glyph-name="arrowright" unicode="&#x2192;" horiz-adv-x="721" 
d="M692 331l-340 -339l-78 78l213 206h-458v110h458l-212 207l78 77z" />
    <glyph glyph-name="arrowdown" unicode="&#x2193;" horiz-adv-x="730" 
d="M704 340l-339 -340l-339 339l77 78l207 -212v458h110v-458l206 213z" />
    <glyph glyph-name="uni2196" unicode="&#x2196;" horiz-adv-x="700" 
d="M604 237l-78 -78l-324 324l4 -296h-110v480h480v-110l-296 4z" />
    <glyph glyph-name="uni2197" unicode="&#x2197;" horiz-adv-x="700" 
d="M604 187h-110l4 296l-324 -324l-78 78l324 324l-296 -4v110h480v-480z" />
    <glyph glyph-name="uni2198" unicode="&#x2198;" horiz-adv-x="701" 
d="M605 0h-480v110l296 -4l-325 324l79 78l324 -324l-4 296h110v-480z" />
    <glyph glyph-name="uni2199" unicode="&#x2199;" horiz-adv-x="701" 
d="M605 430l-325 -324l296 4v-110h-480v480h110l-4 -296l324 324z" />
    <glyph glyph-name="partialdiff" unicode="&#x2202;" horiz-adv-x="559" 
d="M273 486l-186 188l75 71q187 -185 244 -246q53 -57 78.5 -114.5t25.5 -141.5q0 -77 -10.5 -120.5t-41.5 -73.5q-57 -57 -179 -57q-123 0 -180 57q-30 29 -39.5 72.5t-10.5 122.5q0 43 3 73t15.5 64.5t36 55.5t66 35t103.5 14zM397 243q0 90 -28 119t-102 29
q-68 0 -87.5 -32.5t-19.5 -115.5q0 -33 1 -50.5t4.5 -37.5t11 -29t21 -18t33 -11.5t48.5 -2.5t48.5 3t33 11.5t20.5 17.5t10.5 29t4.5 37.5t1 50.5z" />
    <glyph glyph-name="uni2206" unicode="&#x2206;" horiz-adv-x="651" 
d="M643 0h-635l258 667h121zM477 102l-154 434l-155 -434h309z" />
    <glyph glyph-name="product" unicode="&#x220f;" horiz-adv-x="684" 
d="M596 0h-118v561h-272v-561h-118v561h-70v106h648v-106h-70v-561z" />
    <glyph glyph-name="summation" unicode="&#x2211;" horiz-adv-x="629" 
d="M569 0h-509v104l209 237l-209 224v102h509v-105h-358l207 -221l-207 -235h358v-106z" />
    <glyph glyph-name="minus" unicode="&#x2212;" horiz-adv-x="602" 
d="M569 193h-536v102h536v-102z" />
    <glyph glyph-name="radical" unicode="&#x221a;" horiz-adv-x="588" 
d="M549 722l-212 -722h-123l-90 289h-124v105h197l75 -264l201 697h309v-105h-233z" />
    <glyph glyph-name="infinity" unicode="&#x221e;" horiz-adv-x="567" 
d="M413 107q-65 0 -130 76q-67 -76 -129 -76q-65 0 -98.5 27t-33.5 104q0 75 33 103.5t98 28.5q76 0 130 -72q60 72 131 72q131 0 131 -132q0 -75 -36 -103t-96 -28zM413 293q-43 0 -81 -53q48 -56 81 -56q45 0 45 54q0 31 -11.5 43t-33.5 12zM234 239q-41 54 -80 54
q-22 0 -33.5 -12t-11.5 -43q0 -54 45 -54q33 0 80 55z" />
    <glyph glyph-name="integral" unicode="&#x222b;" horiz-adv-x="438" 
d="M63 539q0 166 190 166q79 0 129 -29.5t50 -94.5h-110q-2 32 -69 32q-43 0 -60 -15.5t-17 -57.5v-568q0 -166 -190 -166q-79 0 -129 29.5t-50 94.5h110q2 -32 69 -32q43 0 60 15.5t17 57.5v568z" />
    <glyph glyph-name="approxequal" unicode="&#x2248;" horiz-adv-x="603" 
d="M570 350q-35 -31 -60 -49.5t-59 -34t-68.5 -13t-71.5 23.5l-45 25t-34 13t-28.5 4t-28 -9.5t-33 -19.5t-42.5 -34l-67 68q35 31 60 49.5t59 34t68.5 13t71.5 -23.5l45 -25t34 -13t28.5 -4t28 9.5t33 19.5t42.5 34zM570 167q-35 -31 -60 -49.5t-59 -34t-68.5 -13
t-71.5 23.5l-45 25t-34 13t-28.5 4t-28 -9.5t-33 -19.5t-42.5 -34l-67 68q35 31 60 49.5t59 34t68.5 13t71.5 -23.5l45 -25t34 -13t28.5 -4t28 9.5t33 19.5t42.5 34z" />
    <glyph glyph-name="notequal" unicode="&#x2260;" horiz-adv-x="602" 
d="M569 111h-334l-107 -111l-65 65l43 46h-73v99h167l74 73h-241v99h338l107 111l65 -65l-45 -46h71v-99h-165l-73 -73h238v-99z" />
    <glyph glyph-name="lessequal" unicode="&#x2264;" horiz-adv-x="602" 
d="M569 254l-38 -98l-498 174v84l497 176l39 -99l-367 -119zM569 0h-536v102h536v-102z" />
    <glyph glyph-name="greaterequal" unicode="&#x2265;" horiz-adv-x="602" 
d="M569 330l-498 -174l-38 98l367 118l-367 119l39 99l497 -176v-84zM569 0h-536v102h536v-102z" />
    <glyph glyph-name="lozenge" unicode="&#x25ca;" horiz-adv-x="618" 
d="M261 667h90l247 -333l-247 -334h-90l-241 334zM307 537l-145 -203l144 -205l151 205z" />
    <glyph glyph-name="Euro.fitted" unicode="&#xe002;" horiz-adv-x="572" 
d="M541 160q0 -168 -217 -168q-125 0 -175.5 56t-56.5 167h-66v91h66v57h-67v91h67q6 111 56.5 165.5t175.5 54.5q217 0 217 -168h-115q0 39 -24 52t-78 13q-38 0 -61.5 -7t-35 -24t-15.5 -35.5t-5 -50.5h175v-91h-178v-57h177v-91h-174q1 -32 5 -50.5t15.5 -36.5t35 -25.5
t61.5 -7.5q54 0 78 13t24 52h115z" />
    <glyph glyph-name="Dotaccent" unicode="&#xefed;" horiz-adv-x="440" 
d="M278 804q0 -59 -59 -59q-58 0 -58 59q0 31 14 44.5t44 13.5q59 0 59 -58z" />
    <glyph glyph-name="Breve" unicode="&#xefee;" horiz-adv-x="440" 
d="M367 867q0 -75 -32 -103t-115 -28t-115 28t-32 103h70q0 -40 19 -52.5t58 -12.5t58 12.5t19 52.5h70z" />
    <glyph glyph-name="Ogonek" unicode="&#xeff1;" horiz-adv-x="391" 
d="M75 -114q0 76 66 124h122q-94 -44 -94 -114q0 -59 83 -59q16 0 38 2v-78q-27 -6 -56 -6q-67 0 -113 32t-46 99z" />
    <glyph glyph-name="Cedilla" unicode="&#xeff2;" horiz-adv-x="440" 
d="M303 -110q0 -83 -88 -83t-88 74h54q0 -15 7.5 -19.5t26.5 -4.5q20 0 25.5 7t5.5 24q0 29 -36 31h-29v81h57v-38q65 -4 65 -72z" />
    <glyph glyph-name="Tilde" unicode="&#xeff5;" horiz-adv-x="440" 
d="M425 789l-77 -39q-72 -36 -133 2q-6 3 -16.5 10.5t-14.5 9.5t-12.5 5t-15.5 2t-18.5 -4.5t-25.5 -10.5l-58 -29l-39 71l32 16.5t36 18t33 12.5t37.5 8t34.5 -4t38 -15q4 -3 14.5 -9.5t13.5 -8t11.5 -5t14 -3t14.5 1t19 4.5t23 11l53 27z" />
    <glyph glyph-name="Circumflex" unicode="&#xeff7;" horiz-adv-x="440" 
d="M404 735h-113l-71 69l-69 -69h-115l129 127h110z" />
    <glyph glyph-name="parenleft.dnom" unicode="&#xf62c;" horiz-adv-x="239" 
d="M54 199v51t1.5 46.5t4 44.5t6.5 38.5t10.5 35.5t16 29t22.5 24.5t29.5 16.5t37.5 11.5t47 3.5v-70q-66 0 -82 -46.5t-16 -184.5q0 -49 0.5 -75t3.5 -57t9 -45.5t17 -29t27.5 -19.5t40.5 -5v-70q-26 0 -47 3.5t-37.5 11.5t-29.5 16.5t-22.5 24.5t-16 29t-10.5 35.5
t-6.5 38.5t-4 44.5t-1.5 46.5v51z" />
    <glyph glyph-name="parenright.dnom" unicode="&#xf62d;" horiz-adv-x="239" 
d="M185 199v-51t-1.5 -46.5t-4 -44.5t-6.5 -38.5t-10.5 -35.5t-16 -29t-22.5 -24.5t-29.5 -16.5t-37.5 -11.5t-47 -3.5v70q66 0 82 46.5t16 184.5q0 49 -0.5 75t-3.5 57t-9 45.5t-17 29t-27.5 19.5t-40.5 5v70q26 0 47 -3.5t37.5 -11.5t29.5 -16.5t22.5 -24.5t16 -29
t10.5 -35.5t6.5 -38.5t4 -44.5t1.5 -46.5v-51z" />
    <glyph glyph-name="parenleft.numr" unicode="&#xf631;" horiz-adv-x="239" 
d="M54 466v51t1.5 46.5t4 44.5t6.5 38.5t10.5 35.5t16 29t22.5 24.5t29.5 16.5t37.5 11.5t47 3.5v-70q-66 0 -82 -46.5t-16 -184.5q0 -49 0.5 -75t3.5 -57t9 -45.5t17 -29t27.5 -19.5t40.5 -5v-70q-26 0 -47 3.5t-37.5 11.5t-29.5 16.5t-22.5 24.5t-16 29t-10.5 35.5
t-6.5 38.5t-4 44.5t-1.5 46.5v51z" />
    <glyph glyph-name="parenright.numr" unicode="&#xf632;" horiz-adv-x="239" 
d="M185 466v-51t-1.5 -46.5t-4 -44.5t-6.5 -38.5t-10.5 -35.5t-16 -29t-22.5 -24.5t-29.5 -16.5t-37.5 -11.5t-47 -3.5v70q66 0 82 46.5t16 184.5q0 49 -0.5 75t-3.5 57t-9 45.5t-17 29t-27.5 19.5t-40.5 5v70q26 0 47 -3.5t37.5 -11.5t29.5 -16.5t22.5 -24.5t16 -29
t10.5 -35.5t6.5 -38.5t4 -44.5t1.5 -46.5v-51z" />
    <glyph glyph-name="zero.fitted" unicode="&#xf639;" horiz-adv-x="572" 
d="M517 333v-15v-53.5t-1.5 -48.5t-4.5 -47.5t-8.5 -42t-14 -39t-21 -31.5t-29.5 -27.5t-39 -19t-50.5 -13.5t-62.5 -4t-63 4.5t-50.5 13t-39 20.5t-29.5 27t-21 32.5t-14 37.5t-8.5 42t-4 44.5t-1.5 46.5t0 48v25q0 137 9 185q23 112 121 143q42 13 101 13q163 0 208 -108
q23 -58 23 -195v-16v-22zM403 333q0 145 -11 181q-9 29 -31.5 43t-74.5 14t-75 -14.5t-31 -42.5q-11 -36 -11 -181t11 -181q9 -29 31.5 -43t74.5 -14t74.5 14t31.5 43q11 36 11 181z" />
    <glyph glyph-name="two.fitted" unicode="&#xf63a;" horiz-adv-x="572" 
d="M508 473q0 -114 -71 -161q-36 -23 -141 -53q-9 -2 -15 -4q-72 -20 -89.5 -38t-17.5 -70v-46h333v-101h-447v165q0 41 11.5 72t28.5 49t46 32.5t53 21.5l61.5 17.5t60.5 18.5q43 15 58.5 34t15.5 63q0 58 -21.5 78.5t-89.5 20.5q-62 0 -85.5 -14t-23.5 -52h-112
q0 49 16.5 83t48 52t68.5 25.5t86 7.5q119 0 172.5 -44.5t53.5 -156.5z" />
    <glyph glyph-name="three.fitted" unicode="&#xf63b;" horiz-adv-x="572" 
d="M505 205q0 -122 -56 -167.5t-174 -45.5q-50 0 -88 7.5t-71 25t-50.5 52t-17.5 83.5h113q0 -36 25.5 -50.5t88.5 -14.5q66 0 91.5 20t25.5 80q0 67 -19 83t-98 16h-94v102h94q66 0 88.5 16t22.5 72q0 53 -20.5 70.5t-90.5 17.5q-63 0 -88.5 -15t-25.5 -51h-113
q0 49 17.5 83.5t50.5 52t71 25t88 7.5q119 0 171.5 -40t52.5 -147q0 -56 -10.5 -87.5t-49.5 -48.5q41 -18 53.5 -53t12.5 -93z" />
    <glyph glyph-name="four.fitted" unicode="&#xf63c;" horiz-adv-x="572" 
d="M530 168h-95v-168h-106v168h-288v95l287 404h107v-398h95v-101zM329 269v245l-168 -245h168z" />
    <glyph glyph-name="five.fitted" unicode="&#xf63d;" horiz-adv-x="572" 
d="M511 215q0 -122 -56 -172.5t-177 -50.5q-99 0 -157 37t-58 131h111q0 -38 22 -51.5t82 -13.5q72 0 96 23t24 93q0 77 -18.5 103t-88.5 26q-63 0 -86.5 -17.5t-23.5 -52.5h-110v397h419v-102h-310v-157q34 34 113 34q124 0 171 -48.5t47 -178.5z" />
    <glyph glyph-name="six.fitted" unicode="&#xf63e;" horiz-adv-x="572" 
d="M515 216q0 -224 -225 -224q-77 0 -132.5 30t-78.5 90q-22 56 -22 194q0 153 12 220q28 148 224 148q209 0 209 -168h-111q0 36 -22.5 51t-74.5 15q-40 0 -64 -7.5t-36 -28t-15.5 -40t-5.5 -58.5q-1 -9 -1 -31q48 35 122 35q119 0 170 -50t51 -176zM402 215q0 77 -21 101
t-82 24q-65 0 -95 -28.5t-30 -91.5q0 -70 26 -97.5t89 -27.5q65 0 89 25t24 95z" />
    <glyph glyph-name="seven.fitted" unicode="&#xf63f;" horiz-adv-x="572" 
d="M511 570l-292 -570h-124l292 565h-327v102h451v-97z" />
    <glyph glyph-name="eight.fitted" unicode="&#xf640;" horiz-adv-x="572" 
d="M517 186q0 -59 -16.5 -98.5t-49.5 -59.5t-71.5 -28t-93.5 -8q-113 0 -172 41t-59 153q0 61 13 101.5t53 58.5q-38 17 -49 53.5t-11 96.5q0 99 53.5 138.5t171.5 39.5t171.5 -39.5t53.5 -138.5q0 -60 -11 -96.5t-49 -53.5q40 -18 53 -58.5t13 -101.5zM399 483
q0 52 -23 70.5t-90 18.5t-90 -18.5t-23 -70.5t22.5 -70t90.5 -18t90.5 18t22.5 70zM404 194q0 61 -26 80t-92 19t-92 -19t-26 -80t26 -80t92 -19t92 19t26 80z" />
    <glyph glyph-name="nine.fitted" unicode="&#xf641;" horiz-adv-x="572" 
d="M515 360q0 -152 -12 -220q-28 -148 -224 -148q-209 0 -209 168h111q0 -36 22.5 -51t74.5 -15q40 0 64 7.5t36 28t15.5 40t5.5 58.5q1 9 1 31q-48 -35 -122 -35q-119 0 -170 50t-51 176q0 224 225 224q77 0 132.5 -30t78.5 -90q22 -56 22 -194zM398 446q0 70 -26 97.5
t-89 27.5q-65 0 -89 -25t-24 -95q0 -77 21 -101t82 -24q65 0 95 28.5t30 91.5z" />
    <glyph glyph-name="zero.taboldstyle" unicode="&#xf643;" horiz-adv-x="572" 
d="M517 333v-15v-53.5t-1.5 -48.5t-4.5 -47.5t-8.5 -42t-14 -39t-21 -31.5t-29.5 -27.5t-39 -19t-50.5 -13.5t-62.5 -4t-63 4.5t-50.5 13t-39 20.5t-29.5 27t-21 32.5t-14 37.5t-8.5 42t-4 44.5t-1.5 46.5t0 48v25q0 137 9 185q23 112 121 143q42 13 101 13q163 0 208 -108
q23 -58 23 -195v-16v-22zM403 333q0 145 -11 181q-9 29 -31.5 43t-74.5 14t-75 -14.5t-31 -42.5q-11 -36 -11 -181t11 -181q9 -29 31.5 -43t74.5 -14t74.5 14t31.5 43q11 36 11 181z" />
    <glyph glyph-name="one.taboldstyle" unicode="&#xf644;" horiz-adv-x="572" 
d="M517 0h-421v101h153v422l-103 -99l-71 77l184 166h103v-566h155v-101z" />
    <glyph glyph-name="two.taboldstyle" unicode="&#xf645;" horiz-adv-x="572" 
d="M508 473q0 -114 -71 -161q-36 -23 -141 -53q-9 -2 -15 -4q-72 -20 -89.5 -38t-17.5 -70v-46h333v-101h-447v165q0 41 11.5 72t28.5 49t46 32.5t53 21.5l61.5 17.5t60.5 18.5q43 15 58.5 34t15.5 63q0 58 -21.5 78.5t-89.5 20.5q-62 0 -85.5 -14t-23.5 -52h-112
q0 49 16.5 83t48 52t68.5 25.5t86 7.5q119 0 172.5 -44.5t53.5 -156.5z" />
    <glyph glyph-name="three.taboldstyle" unicode="&#xf646;" horiz-adv-x="572" 
d="M505 205q0 -122 -56 -167.5t-174 -45.5q-50 0 -88 7.5t-71 25t-50.5 52t-17.5 83.5h113q0 -36 25.5 -50.5t88.5 -14.5q66 0 91.5 20t25.5 80q0 67 -19 83t-98 16h-94v102h94q66 0 88.5 16t22.5 72q0 53 -20.5 70.5t-90.5 17.5q-63 0 -88.5 -15t-25.5 -51h-113
q0 49 17.5 83.5t50.5 52t71 25t88 7.5q119 0 171.5 -40t52.5 -147q0 -56 -10.5 -87.5t-49.5 -48.5q41 -18 53.5 -53t12.5 -93z" />
    <glyph glyph-name="four.taboldstyle" unicode="&#xf647;" horiz-adv-x="572" 
d="M530 168h-95v-168h-106v168h-288v95l287 404h107v-398h95v-101zM329 269v245l-168 -245h168z" />
    <glyph glyph-name="five.taboldstyle" unicode="&#xf648;" horiz-adv-x="572" 
d="M511 215q0 -122 -56 -172.5t-177 -50.5q-99 0 -157 37t-58 131h111q0 -38 22 -51.5t82 -13.5q72 0 96 23t24 93q0 77 -18.5 103t-88.5 26q-63 0 -86.5 -17.5t-23.5 -52.5h-110v397h419v-102h-310v-157q34 34 113 34q124 0 171 -48.5t47 -178.5z" />
    <glyph glyph-name="six.taboldstyle" unicode="&#xf649;" horiz-adv-x="572" 
d="M515 216q0 -224 -225 -224q-77 0 -132.5 30t-78.5 90q-22 56 -22 194q0 153 12 220q28 148 224 148q209 0 209 -168h-111q0 36 -22.5 51t-74.5 15q-40 0 -64 -7.5t-36 -28t-15.5 -40t-5.5 -58.5q-1 -9 -1 -31q48 35 122 35q119 0 170 -50t51 -176zM402 215q0 77 -21 101
t-82 24q-65 0 -95 -28.5t-30 -91.5q0 -70 26 -97.5t89 -27.5q65 0 89 25t24 95z" />
    <glyph glyph-name="seven.taboldstyle" unicode="&#xf64a;" horiz-adv-x="572" 
d="M511 570l-292 -570h-124l292 565h-327v102h451v-97z" />
    <glyph glyph-name="eight.taboldstyle" unicode="&#xf64b;" horiz-adv-x="572" 
d="M517 186q0 -59 -16.5 -98.5t-49.5 -59.5t-71.5 -28t-93.5 -8q-113 0 -172 41t-59 153q0 61 13 101.5t53 58.5q-38 17 -49 53.5t-11 96.5q0 99 53.5 138.5t171.5 39.5t171.5 -39.5t53.5 -138.5q0 -60 -11 -96.5t-49 -53.5q40 -18 53 -58.5t13 -101.5zM399 483
q0 52 -23 70.5t-90 18.5t-90 -18.5t-23 -70.5t22.5 -70t90.5 -18t90.5 18t22.5 70zM404 194q0 61 -26 80t-92 19t-92 -19t-26 -80t26 -80t92 -19t92 19t26 80z" />
    <glyph glyph-name="nine.taboldstyle" unicode="&#xf64c;" horiz-adv-x="572" 
d="M515 360q0 -152 -12 -220q-28 -148 -224 -148q-209 0 -209 168h111q0 -36 22.5 -51t74.5 -15q40 0 64 7.5t36 28t15.5 40t5.5 58.5q1 9 1 31q-48 -35 -122 -35q-119 0 -170 50t-51 176q0 224 225 224q77 0 132.5 -30t78.5 -90q22 -56 22 -194zM398 446q0 70 -26 97.5
t-89 27.5q-65 0 -89 -25t-24 -95q0 -77 21 -101t82 -24q65 0 95 28.5t30 91.5z" />
    <glyph glyph-name="Euro.taboldstyle" unicode="&#xf64e;" horiz-adv-x="572" 
d="M541 160q0 -168 -217 -168q-125 0 -175.5 56t-56.5 167h-66v91h66v57h-67v91h67q6 111 56.5 165.5t175.5 54.5q217 0 217 -168h-115q0 39 -24 52t-78 13q-38 0 -61.5 -7t-35 -24t-15.5 -35.5t-5 -50.5h175v-91h-178v-57h177v-91h-174q1 -32 5 -50.5t15.5 -36.5t35 -25.5
t61.5 -7.5q54 0 78 13t24 52h115z" />
    <glyph glyph-name="florin.taboldstyle" unicode="&#xf64f;" horiz-adv-x="572" 
d="M547 506h-109q0 40 -23 53t-75 13q-76 0 -95.5 -22t-19.5 -91v-67h279v-102h-279v-481h-113v481h-67v102h67v65q0 80 11 110t36 53q57 54 172 54q32 0 54.5 -1.5t55.5 -11t54 -26t36.5 -50t15.5 -79.5z" />
    <glyph glyph-name="sterling.taboldstyle" unicode="&#xf651;" horiz-adv-x="572" 
d="M547 0h-510v102h67v188h-67v102h67v65q0 80 11 110t36 53q57 54 172 54q32 0 54.5 -1.5t55.5 -11t54 -26t36.5 -50t15.5 -79.5h-109q0 40 -23.5 53t-74.5 13q-76 0 -95.5 -22t-19.5 -91v-67h279v-102h-279v-188h330v-102z" />
    <glyph glyph-name="yen.taboldstyle" unicode="&#xf652;" horiz-adv-x="572" 
d="M583 667l-148 -232h70v-92h-129l-34 -57h163v-92h-163v-194h-113v194h-164v92h163l-34 57h-129v92h72l-147 232h129l165 -271l169 271h130z" />
    <glyph glyph-name="dollar.taboldstyle" unicode="&#xf653;" horiz-adv-x="572" 
d="M515 199q0 -98 -44 -144t-138 -55v-99h-100v98q-85 6 -131.5 41t-46.5 117h114q0 -36 26.5 -50.5t89.5 -14.5q71 0 93 23.5t22 73.5q0 63 -23.5 79t-96.5 22q-10 1 -15 1q-32 3 -49.5 5t-43 8t-39.5 13.5t-30.5 21.5t-24.5 33t-13.5 46.5t-5.5 63.5q0 92 44 133.5
t130 50.5v96h100v-95q85 -7 130 -42.5t45 -118.5h-114q0 36 -24 50t-87 14q-64 0 -86.5 -20t-22.5 -71q0 -13 2 -23t7 -17.5l8.5 -13t12.5 -9.5t13.5 -6.5t17 -4.5t16.5 -2.5t18.5 -2t17.5 -1.5q111 -10 144 -23q62 -24 77 -99q7 -32 7 -78z" />
    <glyph glyph-name="cent.taboldstyle" unicode="&#xf654;" horiz-adv-x="572" 
d="M514 146q0 -138 -174 -152v-89h-98v89q-49 5 -84 21t-55 37.5t-31.5 55t-14.5 64.5t-3 74t3 74t14.5 64t31.5 54t55 36.5t84 19.5v81h98v-81q174 -14 174 -152h-123q0 19 -9 31t-27 16.5t-30.5 5.5t-33.5 1q-74 0 -99 -32.5t-25 -119.5t25 -119.5t99 -32.5q21 0 33.5 1
t30.5 5.5t27 16.5t9 31h123z" />
    <glyph glyph-name="zero.dnom" unicode="&#xf655;" 
d="M69 200v26q0 35 1.5 55.5t9 48t22 42t42.5 25.5t69 11t69 -11t42.5 -25.5t22 -42t9 -48t1.5 -55.5v-26v-26q0 -35 -1.5 -55.5t-9 -48t-22 -42t-42.5 -25.5t-69 -11t-69 11t-42.5 25.5t-22 42t-9 48t-1.5 55.5v26zM280 200q0 86 -7 109q-11 32 -60 32t-60 -32
q-7 -23 -7 -109t7 -109q10 -32 60 -32t60 32q7 23 7 109z" />
    <glyph glyph-name="one.dnom" unicode="&#xf656;" 
d="M346 0h-255v68h88v224l-59 -51l-47 53l123 106h60v-332h90v-68z" />
    <glyph glyph-name="two.dnom" unicode="&#xf657;" 
d="M353 286q0 -66 -44 -96q-23 -16 -81.5 -32t-69.5 -25q-12 -10 -12 -40v-25h206v-68h-283v102q0 20 4 36.5t15 28.5t19 20t27.5 15.5t28 10.5t33 9.5t30.5 8.5q32 9 41.5 19t9.5 36q0 32 -13 43.5t-53 11.5q-38 0 -52.5 -8t-14.5 -33h-76q0 61 38 84.5t104 23.5
q71 0 107 -28t36 -94z" />
    <glyph glyph-name="three.dnom" unicode="&#xf658;" 
d="M359 115q0 -59 -33 -91q-35 -32 -115 -32q-67 0 -105 24t-38 87h75q0 -25 15 -34.5t53 -9.5q45 0 58.5 10.5t13.5 44.5q0 38 -13.5 49.5t-56.5 11.5h-60v66h60q39 0 52.5 9.5t13.5 39.5q0 28 -12 39.5t-54 11.5q-40 0 -54 -8.5t-14 -32.5h-74q0 62 37.5 85t104.5 23
q72 0 107 -27t35 -89q0 -68 -38 -84q42 -15 42 -93z" />
    <glyph glyph-name="four.dnom" unicode="&#xf659;" 
d="M352 91h-55v-91h-75v91h-179v54l182 255h72v-244h55v-65zM222 156v131l-93 -131h93z" />
    <glyph glyph-name="five.dnom" unicode="&#xf65a;" 
d="M78 92h76q0 -18 15 -25.5t49 -7.5q36 0 50.5 17.5t14.5 53.5q0 40 -13.5 55.5t-51.5 15.5q-50 0 -58 -37h-75v236h253v-64h-178v-88q17 19 68 19q73 0 102 -31t29 -104q0 -75 -36 -107.5t-105 -32.5q-65 0 -102.5 21.5t-37.5 78.5z" />
    <glyph glyph-name="six.dnom" unicode="&#xf65b;" 
d="M338 307h-77q-1 34 -51 34q-19 0 -32 -5t-19.5 -11t-10 -22t-4 -25.5t-0.5 -33.5q30 23 76 23q66 0 96 -30.5t30 -106.5q0 -138 -136 -138q-101 0 -130 74q-12 33 -12 116q0 104 6 135q18 91 136 91q128 0 128 -101zM270 129q0 39 -14 55t-46 16q-65 0 -65 -68
q0 -73 65 -73q33 0 46.5 15.5t13.5 54.5z" />
    <glyph glyph-name="seven.dnom" unicode="&#xf65c;" 
d="M352 347l-171 -347h-83l167 334h-190v66h277v-53z" />
    <glyph glyph-name="eight.dnom" unicode="&#xf65d;" 
d="M354 112q0 -70 -36 -95t-105 -25t-105.5 25t-36.5 95q0 79 44 96q-25 9 -32.5 31t-7.5 60q0 62 32.5 85.5t105.5 23.5q72 0 105 -24t33 -85q0 -37 -8 -59t-32 -31q26 -10 34.5 -34.5t8.5 -62.5zM213 57q34 0 50 14t16 45q0 61 -66 61t-66 -61q0 -31 16 -45t50 -14z
M213 241q35 0 48.5 12t13.5 38t-13.5 39t-48.5 13t-48.5 -13t-13.5 -39t13.5 -38t48.5 -12z" />
    <glyph glyph-name="nine.dnom" unicode="&#xf65e;" 
d="M87 93h77q1 -34 51 -34q24 0 38 6t19.5 21.5t7 28.5t1.5 41q-30 -23 -76 -23q-66 0 -96 30.5t-30 106.5q0 138 136 138q101 0 130 -74q12 -33 12 -116q0 -104 -6 -135q-18 -91 -136 -91q-128 0 -128 101zM155 271q0 -39 14 -55t46 -16q65 0 65 68q0 73 -65 73
q-33 0 -46.5 -15.5t-13.5 -54.5z" />
    <glyph glyph-name="zero.numr" unicode="&#xf661;" 
d="M69 467v26q0 35 1.5 55.5t9 48t22 42t42.5 25.5t69 11t69 -11t42.5 -25.5t22 -42t9 -48t1.5 -55.5v-26v-26q0 -35 -1.5 -55.5t-9 -48t-22 -42t-42.5 -25.5t-69 -11t-69 11t-42.5 25.5t-22 42t-9 48t-1.5 55.5v26zM280 467q0 86 -7 109q-11 32 -60 32t-60 -32
q-7 -23 -7 -109t7 -109q10 -32 60 -32t60 32q7 23 7 109z" />
    <glyph glyph-name="one.numr" unicode="&#xf662;" 
d="M346 267h-255v68h88v224l-59 -51l-47 53l123 106h60v-332h90v-68z" />
    <glyph glyph-name="two.numr" unicode="&#xf663;" 
d="M353 553q0 -66 -44 -96q-23 -16 -81.5 -32t-69.5 -25q-12 -10 -12 -40v-25h206v-68h-283v102q0 20 4 36.5t15 28.5t19 20t27.5 15.5t28 10.5t33 9.5t30.5 8.5q32 9 41.5 19t9.5 36q0 32 -13 43.5t-53 11.5q-38 0 -52.5 -8t-14.5 -33h-76q0 61 38 84.5t104 23.5
q71 0 107 -28t36 -94z" />
    <glyph glyph-name="three.numr" unicode="&#xf664;" 
d="M359 382q0 -59 -33 -91q-35 -32 -115 -32q-67 0 -105 24t-38 87h75q0 -25 15 -34.5t53 -9.5q45 0 58.5 10.5t13.5 44.5q0 38 -13.5 49.5t-56.5 11.5h-60v66h60q39 0 52.5 9.5t13.5 39.5q0 28 -12 39.5t-54 11.5q-40 0 -54 -8.5t-14 -32.5h-74q0 62 37.5 85t104.5 23
q72 0 107 -27t35 -89q0 -68 -38 -84q42 -15 42 -93z" />
    <glyph glyph-name="four.numr" unicode="&#xf665;" 
d="M352 358h-55v-91h-75v91h-179v54l182 255h72v-244h55v-65zM222 423v131l-93 -131h93z" />
    <glyph glyph-name="five.numr" unicode="&#xf666;" 
d="M78 359h76q0 -18 15 -25.5t49 -7.5q36 0 50.5 17.5t14.5 53.5q0 40 -13.5 55.5t-51.5 15.5q-50 0 -58 -37h-75v236h253v-64h-178v-88q17 19 68 19q73 0 102 -31t29 -104q0 -75 -36 -107.5t-105 -32.5q-65 0 -102.5 21.5t-37.5 78.5z" />
    <glyph glyph-name="six.numr" unicode="&#xf667;" 
d="M338 574h-77q-1 34 -51 34q-19 0 -32 -5t-19.5 -11t-10 -22t-4 -25.5t-0.5 -33.5q30 23 76 23q66 0 96 -30.5t30 -106.5q0 -138 -136 -138q-101 0 -130 74q-12 33 -12 116q0 104 6 135q18 91 136 91q128 0 128 -101zM270 396q0 39 -14 55t-46 16q-65 0 -65 -68
q0 -73 65 -73q33 0 46.5 15.5t13.5 54.5z" />
    <glyph glyph-name="seven.numr" unicode="&#xf668;" 
d="M352 614l-171 -347h-83l167 334h-190v66h277v-53z" />
    <glyph glyph-name="eight.numr" unicode="&#xf669;" 
d="M354 379q0 -70 -36 -95t-105 -25t-105.5 25t-36.5 95q0 79 44 96q-25 9 -32.5 31t-7.5 60q0 62 32.5 85.5t105.5 23.5q72 0 105 -24t33 -85q0 -37 -8 -59t-32 -31q26 -10 34.5 -34.5t8.5 -62.5zM213 324q34 0 50 14t16 45q0 61 -66 61t-66 -61q0 -31 16 -45t50 -14z
M213 508q35 0 48.5 12t13.5 38t-13.5 39t-48.5 13t-48.5 -13t-13.5 -39t13.5 -38t48.5 -12z" />
    <glyph glyph-name="nine.numr" unicode="&#xf66a;" 
d="M87 360h77q1 -34 51 -34q24 0 38 6t19.5 21.5t7 28.5t1.5 41q-30 -23 -76 -23q-66 0 -96 30.5t-30 106.5q0 138 136 138q101 0 130 -74q12 -33 12 -116q0 -104 -6 -135q-18 -91 -136 -91q-128 0 -128 101zM155 538q0 -39 14 -55t46 -16q65 0 65 68q0 73 -65 73
q-33 0 -46.5 -15.5t-13.5 -54.5z" />
    <glyph glyph-name="Acute" unicode="&#xf6c9;" horiz-adv-x="436" 
d="M350 862l-138 -127h-126l138 127h126z" />
    <glyph glyph-name="Caron" unicode="&#xf6ca;" horiz-adv-x="440" 
d="M404 863l-129 -127h-110l-129 127h113l71 -69l69 69h115z" />
    <glyph glyph-name="Dieresis" unicode="&#xf6cb;" horiz-adv-x="436" 
d="M384 804q0 -59 -59 -59q-58 0 -58 59q0 31 14 44.5t44 13.5q59 0 59 -58zM168 804q0 -59 -59 -59q-58 0 -58 59q0 31 14 44.5t44 13.5q59 0 59 -58z" />
    <glyph glyph-name="Grave" unicode="&#xf6ce;" horiz-adv-x="441" 
d="M351 736h-124l-137 126h124z" />
    <glyph glyph-name="Hungarumlaut" unicode="&#xf6cf;" horiz-adv-x="438" 
d="M422 862l-126 -126h-113l126 126h113zM239 862l-126 -126h-113l126 126h113z" />
    <glyph glyph-name="Macron" unicode="&#xf6d0;" horiz-adv-x="440" 
d="M397 777h-355v80h355v-80z" />
    <glyph glyph-name="one.fitted" unicode="&#xf6dc;" horiz-adv-x="572" 
d="M517 0h-421v101h153v422l-103 -99l-71 77l184 166h103v-566h155v-101z" />
    <glyph glyph-name="zerooldstyle" unicode="&#xf730;" horiz-adv-x="572" 
d="M517 333v-15v-53.5t-1.5 -48.5t-4.5 -47.5t-8.5 -42t-14 -39t-21 -31.5t-29.5 -27.5t-39 -19t-50.5 -13.5t-62.5 -4t-63 4.5t-50.5 13t-39 20.5t-29.5 27t-21 32.5t-14 37.5t-8.5 42t-4 44.5t-1.5 46.5t0 48v25q0 137 9 185q23 112 121 143q42 13 101 13q163 0 208 -108
q23 -58 23 -195v-16v-22zM403 333q0 145 -11 181q-9 29 -31.5 43t-74.5 14t-75 -14.5t-31 -42.5q-11 -36 -11 -181t11 -181q9 -29 31.5 -43t74.5 -14t74.5 14t31.5 43q11 36 11 181z" />
    <glyph glyph-name="oneoldstyle" unicode="&#xf731;" horiz-adv-x="494" 
d="M478 0h-421v101h153v422l-103 -99l-71 77l184 166h103v-566h155v-101z" />
    <glyph glyph-name="twooldstyle" unicode="&#xf732;" horiz-adv-x="555" 
d="M500 473q0 -114 -71 -161q-36 -23 -141 -53q-9 -2 -15 -4q-72 -20 -89.5 -38t-17.5 -70v-46h333v-101h-447v165q0 41 11.5 72t28.5 49t46 32.5t53 21.5l61.5 17.5t60.5 18.5q43 15 58.5 34t15.5 63q0 58 -21.5 78.5t-89.5 20.5q-62 0 -85.5 -14t-23.5 -52h-112
q0 49 16.5 83t48 52t68.5 25.5t86 7.5q119 0 172.5 -44.5t53.5 -156.5z" />
    <glyph glyph-name="threeoldstyle" unicode="&#xf733;" horiz-adv-x="573" 
d="M506 205q0 -122 -56 -167.5t-174 -45.5q-50 0 -88 7.5t-71 25t-50.5 52t-17.5 83.5h113q0 -36 25.5 -50.5t88.5 -14.5q66 0 91.5 20t25.5 80q0 67 -19 83t-98 16h-94v102h94q66 0 88.5 16t22.5 72q0 53 -20.5 70.5t-90.5 17.5q-63 0 -88.5 -15t-25.5 -51h-113
q0 49 17.5 83.5t50.5 52t71 25t88 7.5q119 0 171.5 -40t52.5 -147q0 -56 -10.5 -87.5t-49.5 -48.5q41 -18 53.5 -53t12.5 -93z" />
    <glyph glyph-name="fouroldstyle" unicode="&#xf734;" horiz-adv-x="568" 
d="M528 168h-95v-168h-106v168h-288v95l287 404h107v-398h95v-101zM327 269v245l-168 -245h168z" />
    <glyph glyph-name="fiveoldstyle" unicode="&#xf735;" horiz-adv-x="573" 
d="M512 215q0 -122 -56 -172.5t-177 -50.5q-99 0 -157 37t-58 131h111q0 -38 22 -51.5t82 -13.5q72 0 96 23t24 93q0 77 -18.5 103t-88.5 26q-63 0 -86.5 -17.5t-23.5 -52.5h-110v397h419v-102h-310v-157q34 34 113 34q124 0 171 -48.5t47 -178.5z" />
    <glyph glyph-name="sixoldstyle" unicode="&#xf736;" horiz-adv-x="568" 
d="M513 216q0 -224 -225 -224q-77 0 -132.5 30t-78.5 90q-22 56 -22 194q0 153 12 220q28 148 224 148q209 0 209 -168h-111q0 36 -22.5 51t-74.5 15q-40 0 -64 -7.5t-36 -28t-15.5 -40t-5.5 -58.5q-1 -9 -1 -31q48 35 122 35q119 0 170 -50t51 -176zM400 215q0 77 -21 101
t-82 24q-65 0 -95 -28.5t-30 -91.5q0 -70 26 -97.5t89 -27.5q65 0 89 25t24 95z" />
    <glyph glyph-name="sevenoldstyle" unicode="&#xf737;" horiz-adv-x="485" 
d="M468 570l-292 -570h-124l292 565h-327v102h451v-97z" />
    <glyph glyph-name="eightoldstyle" unicode="&#xf738;" horiz-adv-x="572" 
d="M517 186q0 -59 -16.5 -98.5t-49.5 -59.5t-71.5 -28t-93.5 -8q-113 0 -172 41t-59 153q0 61 13 101.5t53 58.5q-38 17 -49 53.5t-11 96.5q0 99 53.5 138.5t171.5 39.5t171.5 -39.5t53.5 -138.5q0 -60 -11 -96.5t-49 -53.5q40 -18 53 -58.5t13 -101.5zM399 483
q0 52 -23 70.5t-90 18.5t-90 -18.5t-23 -70.5t22.5 -70t90.5 -18t90.5 18t22.5 70zM404 194q0 61 -26 80t-92 19t-92 -19t-26 -80t26 -80t92 -19t92 19t26 80z" />
    <glyph glyph-name="nineoldstyle" unicode="&#xf739;" horiz-adv-x="568" 
d="M513 360q0 -152 -12 -220q-28 -148 -224 -148q-209 0 -209 168h111q0 -36 22.5 -51t74.5 -15q40 0 64 7.5t36 28t15.5 40t5.5 58.5q1 9 1 31q-48 -35 -122 -35q-119 0 -170 50t-51 176q0 224 225 224q77 0 132.5 -30t78.5 -90q22 -56 22 -194zM396 446q0 70 -26 97.5
t-89 27.5q-65 0 -89 -25t-24 -95q0 -77 21 -101t82 -24q65 0 95 28.5t30 91.5z" />
    <glyph glyph-name="Foundry" unicode="&#xf8ff;" horiz-adv-x="811" 
d="M749 334q0 -109 -18 -170t-59 -100q-42 -39 -105.5 -55.5t-162.5 -16.5t-162.5 16.5t-105.5 55.5q-41 38 -57.5 99.5t-16.5 172.5q0 110 16.5 171t57.5 99t104 53t164 15t164 -15t104 -53q41 -39 59 -101t18 -171zM665 337q0 97 -12 142.5t-38 70.5q-49 46 -211 46
t-211 -46q-28 -27 -37.5 -68t-9.5 -149q0 -98 11 -143.5t36 -69.5q17 -17 61 -31v192h-61v75h61v46q0 148 168 148q169 0 169 -118h-84q0 41 -83 41q-47 0 -66.5 -15.5t-19.5 -55.5v-46h199v-75h-199v-207q29 -3 66 -3q159 0 211 49q26 25 38 72t12 145z" />
    <glyph glyph-name="Ring" unicode="&#xfff3;" horiz-adv-x="540" 
d="M393 794q0 -62 -28.5 -90.5t-94.5 -28.5t-94.5 28.5t-28.5 90.5t28.5 89.5t94.5 27.5t94.5 -27.5t28.5 -89.5zM325 793q0 34 -11 46.5t-44 12.5t-44 -12.5t-11 -46.5t11 -46.5t44 -12.5t44 12.5t11 46.5z" />
    <glyph glyph-name="CR" horiz-adv-x="500" 
 />
    <glyph glyph-name="commaaccent" horiz-adv-x="440" 
d="M265 -84q0 -46 -10 -76.5t-38 -58.5l-44 -44l-70 69l12 12l10.5 10.5t8.5 9t7.5 9t5.5 8.5t5 9.5t3.5 9.5t3 12t1 13.5t0.5 16.5v40h105v-40z" />
    <glyph glyph-name="Commaaccent" horiz-adv-x="440" 
d="M265 -84q0 -46 -10 -76.5t-38 -58.5l-44 -44l-70 69l12 12l10.5 10.5t8.5 9t7.5 9t5.5 8.5t5 9.5t3.5 9.5t3 12t1 13.5t0.5 16.5v40h105v-40z" />
    <glyph glyph-name="dollar.fitted" horiz-adv-x="572" 
d="M515 199q0 -98 -44 -144t-138 -55v-99h-100v98q-85 6 -131.5 41t-46.5 117h114q0 -36 26.5 -50.5t89.5 -14.5q71 0 93 23.5t22 73.5q0 63 -23.5 79t-96.5 22q-10 1 -15 1q-32 3 -49.5 5t-43 8t-39.5 13.5t-30.5 21.5t-24.5 33t-13.5 46.5t-5.5 63.5q0 92 44 133.5
t130 50.5v96h100v-95q85 -7 130 -42.5t45 -118.5h-114q0 36 -24 50t-87 14q-64 0 -86.5 -20t-22.5 -71q0 -13 2 -23t7 -17.5l8.5 -13t12.5 -9.5t13.5 -6.5t17 -4.5t16.5 -2.5t18.5 -2t17.5 -1.5q111 -10 144 -23q62 -24 77 -99q7 -32 7 -78z" />
    <glyph glyph-name="cent.fitted" horiz-adv-x="572" 
d="M514 146q0 -138 -174 -152v-89h-98v89q-49 5 -84 21t-55 37.5t-31.5 55t-14.5 64.5t-3 74t3 74t14.5 64t31.5 54t55 36.5t84 19.5v81h98v-81q174 -14 174 -152h-123q0 19 -9 31t-27 16.5t-30.5 5.5t-33.5 1q-74 0 -99 -32.5t-25 -119.5t25 -119.5t99 -32.5q21 0 33.5 1
t30.5 5.5t27 16.5t9 31h123z" />
    <glyph glyph-name="sterling.fitted" horiz-adv-x="572" 
d="M547 0h-510v102h67v188h-67v102h67v65q0 80 11 110t36 53q57 54 172 54q32 0 54.5 -1.5t55.5 -11t54 -26t36.5 -50t15.5 -79.5h-109q0 40 -23.5 53t-74.5 13q-76 0 -95.5 -22t-19.5 -91v-67h279v-102h-279v-188h330v-102z" />
    <glyph glyph-name="florin.fitted" horiz-adv-x="572" 
d="M547 506h-109q0 40 -23 53t-75 13q-76 0 -95.5 -22t-19.5 -91v-67h279v-102h-279v-481h-113v481h-67v102h67v65q0 80 11 110t36 53q57 54 172 54q32 0 54.5 -1.5t55.5 -11t54 -26t36.5 -50t15.5 -79.5z" />
    <glyph glyph-name="yen.fitted" horiz-adv-x="572" 
d="M583 667l-148 -232h70v-92h-129l-34 -57h163v-92h-163v-194h-113v194h-164v92h163l-34 57h-129v92h72l-147 232h129l165 -271l169 271h130z" />
    <glyph glyph-name="Eurooldstyle" horiz-adv-x="602" 
d="M556 160q0 -168 -217 -168q-125 0 -175.5 56t-56.5 167h-66v91h66v57h-67v91h67q6 111 56.5 165.5t175.5 54.5q217 0 217 -168h-115q0 39 -24 52t-78 13q-38 0 -61.5 -7t-35 -24t-15.5 -35.5t-5 -50.5h175v-91h-178v-57h177v-91h-174q1 -32 5 -50.5t15.5 -36.5t35 -25.5
t61.5 -7.5q54 0 78 13t24 52h115z" />
    <glyph glyph-name="dollaroldstyle" horiz-adv-x="581" 
d="M519 199q0 -98 -44 -144t-138 -55v-99h-100v98q-85 6 -131.5 41t-46.5 117h114q0 -36 26.5 -50.5t89.5 -14.5q71 0 93 23.5t22 73.5q0 63 -23.5 79t-96.5 22q-10 1 -15 1q-32 3 -49.5 5t-43 8t-39.5 13.5t-30.5 21.5t-24.5 33t-13.5 46.5t-5.5 63.5q0 92 44 133.5
t130 50.5v96h100v-95q85 -7 130 -42.5t45 -118.5h-114q0 36 -24 50t-87 14q-64 0 -86.5 -20t-22.5 -71q0 -13 2 -23t7 -17.5l8.5 -13t12.5 -9.5t13.5 -6.5t17 -4.5t16.5 -2.5t18.5 -2t17.5 -1.5q111 -10 144 -23q62 -24 77 -99q7 -32 7 -78z" />
    <glyph glyph-name="centoldstyle" horiz-adv-x="562" 
d="M509 146q0 -138 -174 -152v-89h-98v89q-49 5 -84 21t-55 37.5t-31.5 55t-14.5 64.5t-3 74t3 74t14.5 64t31.5 54t55 36.5t84 19.5v81h98v-81q174 -14 174 -152h-123q0 19 -9 31t-27 16.5t-30.5 5.5t-33.5 1q-74 0 -99 -32.5t-25 -119.5t25 -119.5t99 -32.5q21 0 33.5 1
t30.5 5.5t27 16.5t9 31h123z" />
    <glyph glyph-name="sterlingoldstyle" horiz-adv-x="593" 
d="M557 0h-510v102h67v188h-67v102h67v65q0 80 11 110t36 53q57 54 172 54q32 0 54.5 -1.5t55.5 -11t54 -26t36.5 -50t15.5 -79.5h-109q0 40 -23.5 53t-74.5 13q-76 0 -95.5 -22t-19.5 -91v-67h279v-102h-279v-188h330v-102z" />
    <glyph glyph-name="florinoldstyle" horiz-adv-x="591" 
d="M556 506h-109q0 40 -23 53t-75 13q-76 0 -95.5 -22t-19.5 -91v-67h279v-102h-279v-481h-113v481h-67v102h67v65q0 80 11 110t36 53q57 54 172 54q32 0 54.5 -1.5t55.5 -11t54 -26t36.5 -50t15.5 -79.5z" />
    <glyph glyph-name="yenoldstyle" horiz-adv-x="629" 
d="M611 667l-148 -232h70v-92h-129l-34 -57h163v-92h-163v-194h-113v194h-164v92h163l-34 57h-129v92h72l-147 232h129l165 -271l169 271h130z" />
    <glyph glyph-name="commaaccent.cap" horiz-adv-x="440" 
d="M265 -84q0 -46 -10 -76.5t-38 -58.5l-44 -44l-70 69l12 12l10.5 10.5t8.5 9t7.5 9t5.5 8.5t5 9.5t3.5 9.5t3 12t1 13.5t0.5 16.5v40h105v-40z" />
    </font>
</defs>
</svg>
