<?xml version="1.0" standalone="no"?>
<!DOCTYPE svg PUBLIC "-//W3C//DTD SVG 1.1//EN" "http://www.w3.org/Graphics/SVG/1.1/DTD/svg11.dtd" >
<svg>
<metadata>
Created by FontForge 20090622 at Tue May 19 19:07:14 2015
 By deploy user
Copyright &#194;&#169; The digitally encoded machine readable outline data for producing the typefaces licensed to you is copyrighted &#194;&#169;, 2010 by The Foundry, London. All rights reserved.
</metadata>
<defs>
<font id="FoundryMonolineOT3-Regular" horiz-adv-x="400" >
  <font-face 
    font-family="Foundry Monoline OT3 Regular"
    font-weight="400"
    font-stretch="normal"
    units-per-em="1000"
    panose-1="2 0 0 0 0 0 0 0 0 0"
    ascent="700"
    descent="-300"
    x-height="480"
    cap-height="667"
    bbox="-190 -226 1511 1026"
    underline-thickness="50"
    underline-position="-50"
    unicode-range="U+0020-U+FFF3"
  />
<missing-glyph horiz-adv-x="500" 
d="M0 0v700h500v-700h-500zM250 395l170 255h-340zM280 350l170 -255v510zM80 50h340l-170 255zM50 605v-510l170 255z" />
    <glyph glyph-name="IJ" unicode="IJ" horiz-adv-x="776" 
d="M151 0h-59v667h59v-667zM687 208q0 -62 -4 -87q-11 -72 -62 -100.5t-135 -28.5q-104 0 -153.5 40t-49.5 139h56q0 -73 33.5 -98.5t113.5 -25.5q62 0 97.5 18t42.5 69q2 14 2 72v461h59v-459z" />
    <glyph glyph-name="ij" unicode="ij" horiz-adv-x="423" 
d="M137 636q0 -39 -39 -39q-38 0 -38 39q0 38 38 38q39 0 39 -38zM127 0h-58v480h58v-480zM353 636q0 -39 -39 -39q-38 0 -38 39q0 38 38 38q39 0 39 -38zM344 -46q0 -68 -36 -104q-46 -44 -132 -44q-73 0 -116 30.5t-44 93.5h56q0 -5 0.5 -10t6 -17.5t15.5 -21.5t31.5 -16
t50.5 -7q59 0 91 32q5 5 8 10t5 12l3.5 12t2 14t0.5 13v14v12v503h58v-526z" />
    <glyph glyph-name="f_j" unicode="fj" horiz-adv-x="559" 
d="M433 595h-57q-3 31 -28.5 42.5t-72.5 11.5q-57 0 -83.5 -18t-26.5 -69v-82h190v-52h-190v-428h-58v428h-81v52h81v82q0 142 166 142q157 0 160 -109zM480 -46q0 -68 -36 -104q-44 -44 -132 -44q-73 0 -115.5 30.5t-44.5 93.5h56q0 -5 0.5 -10.5t6.5 -17.5t16 -21t31 -16
t50 -7q59 0 91 32q5 5 8 10t5 12l3.5 12t2 14t0.5 13v14v12v503h58v-526z" />
    <glyph glyph-name="f_f" unicode="ff" horiz-adv-x="836" 
d="M825 595h-57q-3 31 -28.5 42.5t-72.5 11.5q-57 0 -83.5 -18t-26.5 -69v-82h190v-52h-190v-428h-58v428h-334v-428h-58v428h-81v52h81v82q0 142 166 142q157 0 160 -109h-57q-3 31 -28.5 42.5t-72.5 11.5q-57 0 -83.5 -18t-26.5 -69v-82h334v82q0 142 166 142
q157 0 160 -109z" />
    <glyph glyph-name="fi" unicode="fi" horiz-adv-x="557" 
d="M480 0h-58v480h58v-480zM433 595h-57q-3 31 -28.5 42.5t-72.5 11.5q-57 0 -83.5 -18t-26.5 -69v-82h190v-52h-190v-428h-58v428h-81v52h81v82q0 142 166 142q157 0 160 -109z" />
    <glyph glyph-name="fl" unicode="fl" horiz-adv-x="636" 
d="M557 0h-58v697h58v-697zM433 595h-57q-3 31 -28.5 42.5t-72.5 11.5q-57 0 -83.5 -18t-26.5 -69v-82h190v-52h-190v-428h-58v428h-81v52h81v82q0 142 166 142q157 0 160 -109z" />
    <glyph glyph-name="f_f_i" unicode="ffi" horiz-adv-x="951" 
d="M825 595h-57q-3 31 -28.5 42.5t-72.5 11.5q-57 0 -83.5 -18t-26.5 -69v-82h190v-52h-190v-428h-58v428h-334v-428h-58v428h-81v52h81v82q0 142 166 142q157 0 160 -109h-57q-3 31 -28.5 42.5t-72.5 11.5q-57 0 -83.5 -18t-26.5 -69v-82h334v82q0 142 166 142
q157 0 160 -109zM872 0h-58v480h58v-480z" />
    <glyph glyph-name="f_f_l" unicode="ffl" horiz-adv-x="1029" 
d="M825 595h-57q-3 31 -28.5 42.5t-72.5 11.5q-57 0 -83.5 -18t-26.5 -69v-82h190v-52h-190v-428h-58v428h-334v-428h-58v428h-81v52h81v82q0 142 166 142q157 0 160 -109h-57q-3 31 -28.5 42.5t-72.5 11.5q-57 0 -83.5 -18t-26.5 -69v-82h334v82q0 142 166 142
q157 0 160 -109zM949 0h-58v697h58v-697z" />
    <glyph glyph-name="f_t" unicode="ft" horiz-adv-x="846" 
d="M816 136q0 -144 -161 -144q-80 0 -118 34.5t-38 108.5v293h-334v-428h-58v428h-81v52h81v82q0 142 166 142q157 0 160 -109h-57q-3 31 -28.5 42.5t-72.5 11.5q-57 0 -83.5 -18t-26.5 -69v-82h334v187h58v-187h219v-52h-219v-293q0 -51 23 -71t77 -20q57 0 81 21.5
t24 70.5h54z" />
    <glyph glyph-name=".notdef" horiz-adv-x="500" 
d="M0 0v700h500v-700h-500zM250 395l170 255h-340zM280 350l170 -255v510zM80 50h340l-170 255zM50 605v-510l170 255z" />
    <glyph glyph-name=".notdef" horiz-adv-x="500" 
d="M0 0v700h500v-700h-500zM250 395l170 255h-340zM280 350l170 -255v510zM80 50h340l-170 255zM50 605v-510l170 255z" />
    <glyph glyph-name=".null" horiz-adv-x="330" 
 />
    <glyph glyph-name="nonmarkingreturn" horiz-adv-x="333" 
 />
    <glyph glyph-name="space" unicode=" " horiz-adv-x="255" 
 />
    <glyph glyph-name="exclam" unicode="!" horiz-adv-x="285" 
d="M171 190h-57v477h57v-477zM183 32q0 -40 -40 -40q-41 0 -41 40t40 40q41 0 41 -40z" />
    <glyph glyph-name="quotedbl" unicode="&#x22;" horiz-adv-x="435" 
d="M318 450h-53v217h53v-217zM169 450h-53v217h53v-217z" />
    <glyph glyph-name="numbersign" unicode="#" horiz-adv-x="567" 
d="M548 415h-127l-37 -137h113v-51h-126l-60 -227h-52l60 227h-135l-60 -227h-52l60 227h-114v51h127l37 137h-113v51h127l60 228h52l-61 -228h135l61 228h52l-61 -228h114v-51zM368 415h-134l-36 -137h134z" />
    <glyph glyph-name="dollar" unicode="$" horiz-adv-x="556" 
d="M484 190q0 -96 -43.5 -141.5t-137.5 -48.5v-99h-54v99q-91 2 -134.5 35t-43.5 109h56q0 -49 26.5 -69.5t95.5 -21.5v267q-92 8 -132.5 43.5t-40.5 128.5q0 89 43.5 130.5t129.5 44.5v95h54v-95q91 -2 132.5 -34.5t41.5 -109.5h-56q0 50 -24.5 70t-93.5 21v-241
q55 -4 86.5 -12t54.5 -28.5t31.5 -54t8.5 -88.5zM249 376v238q-65 -2 -91.5 -30t-26.5 -97q0 -66 25.5 -86.5t92.5 -24.5zM429 194q0 76 -23.5 97t-102.5 27v-266q69 2 97.5 34.5t28.5 107.5z" />
    <glyph glyph-name="percent" unicode="%" horiz-adv-x="839" 
d="M614 667l-337 -667h-52l336 667h53zM639 40q55 0 70 33.5t15 126.5q0 95 -15 127.5t-70 32.5t-70 -32.5t-15 -127.5q0 -93 15 -126.5t70 -33.5zM639 -6q-25 0 -44.5 4t-33.5 13.5t-24 18.5t-16 26.5t-9.5 29.5t-5 35.5t-2 37.5t-0.5 41q0 31 0.5 46t3 41t7.5 40
t14.5 31.5t23.5 26t36 15t50 6.5t50 -6.5t36 -15t23.5 -26t14.5 -31.5t7.5 -40t3 -41t0.5 -46q0 -28 -0.5 -41.5t-2 -37.5t-5 -36t-9.5 -29.5t-16 -26.5t-24 -18t-33.5 -13t-44.5 -4zM200 307q55 0 70 33.5t15 126.5q0 95 -15 127.5t-70 32.5t-70 -32.5t-15 -127.5
q0 -93 15 -126.5t70 -33.5zM200 261q-25 0 -44.5 4t-33.5 13.5t-24 18.5t-16 26.5t-9.5 29.5t-5 35.5t-2 37.5t-0.5 41q0 31 0.5 46t3 41t7.5 40t14.5 31.5t23.5 26t36 15t50 6.5t50 -6.5t36 -15t23.5 -26t14.5 -31.5t7.5 -40t3 -41t0.5 -46q0 -28 -0.5 -41.5t-2 -37.5
t-5 -36t-9.5 -29.5t-16 -26.5t-24 -18t-33.5 -13t-44.5 -4z" />
    <glyph glyph-name="ampersand" unicode="&#x26;" horiz-adv-x="606" 
d="M571 324h-60v-103q0 -69 -9 -109.5t-39 -68.5q-50 -50 -174 -50q-117 0 -168.5 41t-51.5 151q0 71 21 111t67 56q-47 19 -64.5 52t-17.5 95q0 95 46.5 135t153.5 40q101 0 150.5 -34t49.5 -117h-57q0 54 -32.5 75t-110.5 21q-85 0 -114 -25t-29 -97q0 -71 33.5 -94.5
t109.5 -23.5h180v64h56v-64h60v-55zM455 221v103h-180q-87 0 -118 -28.5t-31 -113.5q0 -83 38 -108.5t125 -25.5q100 0 134 34q19 18 25.5 49.5t6.5 89.5z" />
    <glyph glyph-name="quotesingle" unicode="'" horiz-adv-x="286" 
d="M169 450h-53v217h53v-217z" />
    <glyph glyph-name="parenleft" unicode="(" horiz-adv-x="296" 
d="M261 -191q-86 0 -131.5 26t-64.5 87q-31 104 -31 384q0 283 31 387q19 61 64.5 87t131.5 26v-51q-65 0 -94 -15.5t-43 -49.5q-14 -36 -24 -142.5t-10 -240.5t10 -240t24 -142q14 -34 43 -49.5t94 -15.5v-51z" />
    <glyph glyph-name="parenright" unicode=")" horiz-adv-x="296" 
d="M261 306q0 -285 -31 -384q-18 -61 -63.5 -87t-132.5 -26v51q66 0 95 15.5t42 49.5q15 35 24.5 140.5t9.5 241.5t-9.5 242t-24.5 141q-13 34 -42 49.5t-95 15.5v51q87 0 132.5 -26t63.5 -87q31 -99 31 -387z" />
    <glyph glyph-name="asterisk" unicode="*" horiz-adv-x="528" 
d="M505 483l-201 -62l123 -160l-41 -29l-123 160l-122 -160l-41 29l123 160l-201 62l16 46l200 -61v199h51v-199l200 61z" />
    <glyph glyph-name="plus" unicode="+" horiz-adv-x="567" 
d="M522 214h-212v-214h-56v214h-211v53h211v213h56v-213h212v-53z" />
    <glyph glyph-name="comma" unicode="," horiz-adv-x="213" 
d="M133 -11q0 -43 -8.5 -67t-35.5 -47l-30 -26l-34 34q40 35 47.5 49t7.5 57v81h53v-81z" />
    <glyph glyph-name="hyphen" unicode="-" horiz-adv-x="485" 
d="M394 214h-304v53h304v-53z" />
    <glyph glyph-name="period" unicode="." horiz-adv-x="212" 
d="M146 32q0 -40 -40 -40t-40 40t40 40t40 -40z" />
    <glyph glyph-name="slash" unicode="/" horiz-adv-x="461" 
d="M471 755l-424 -839h-56l423 839h57z" />
    <glyph glyph-name="zero" unicode="0" horiz-adv-x="567" 
d="M494 333q0 -112 -3 -156.5t-13 -72.5q-38 -112 -195 -112q-156 0 -195 112q-16 47 -16 229q0 121 5 169.5t20 80.5q45 91 186 91q142 0 186 -91q16 -31 20.5 -79t4.5 -171zM436 333q0 167 -14 209q-12 41 -43.5 59.5t-95.5 18.5q-63 0 -94.5 -18.5t-44.5 -59.5
q-14 -47 -14 -209q0 -182 19 -225q15 -32 46 -47t88 -15q107 0 134 62q11 24 15 70.5t4 154.5z" />
    <glyph glyph-name="one" unicode="1" horiz-adv-x="453" 
d="M435 0h-382v53h162v541l-131 -118l-38 38l174 153h53v-614h162v-53z" />
    <glyph glyph-name="two" unicode="2" horiz-adv-x="555" 
d="M489 485q0 -92 -50 -139q-37 -35 -165 -70q-47 -13 -69.5 -21t-40 -24t-22.5 -38.5t-5 -61.5v-78h351v-53h-409v150q0 27 5 49t12 37.5t22 29t26 21.5t34.5 16.5t37.5 13t43 12.5q116 33 140 59q32 32 32 97q0 75 -31.5 105t-115.5 30q-78 0 -112 -21t-34 -76h-57
q0 83 50 117t151 34q104 0 154 -40q53 -41 53 -149z" />
    <glyph glyph-name="three" unicode="3" horiz-adv-x="556" 
d="M483 186q0 -104 -51.5 -149t-159.5 -45q-45 0 -78.5 6t-63.5 22t-45.5 47t-15.5 77h58q0 -54 33.5 -76t112.5 -22q80 0 116 29t36 108q0 86 -29.5 111t-123.5 25h-87v54h87q80 0 113.5 24t33.5 100q0 72 -29.5 97.5t-117.5 25.5q-80 0 -115.5 -22t-35.5 -75h-58
q0 83 52.5 117t156.5 34q110 0 157.5 -40t47.5 -135q0 -116 -73 -152q49 -18 64 -56.5t15 -104.5z" />
    <glyph glyph-name="four" unicode="4" horiz-adv-x="557" 
d="M503 192h-98v-192h-56v192h-298v51l298 424h56v-422h98v-53zM349 245v337l-234 -337h234z" />
    <glyph glyph-name="five" unicode="5" horiz-adv-x="567" 
d="M492 205q0 -116 -49 -164q-50 -49 -165 -49q-99 0 -148 34t-49 118h56q0 -54 31.5 -76t109.5 -22q88 0 122 33t34 122q0 91 -27 129.5t-116 38.5q-145 0 -145 -83h-55v381h379v-54h-323v-234q38 44 146 44q114 0 156.5 -53.5t42.5 -164.5z" />
    <glyph glyph-name="six" unicode="6" horiz-adv-x="561" 
d="M492 206q0 -111 -49.5 -162.5t-156.5 -51.5q-72 0 -122.5 28.5t-70.5 82.5q-21 55 -21 201q0 164 13 233q24 137 204 137q190 0 190 -151h-56q0 50 -32.5 73.5t-100.5 23.5q-65 0 -98 -19t-45 -60q-13 -44 -16 -188q54 70 159 70q109 0 155.5 -50.5t46.5 -166.5zM434 205
q0 94 -30.5 129t-108.5 35q-161 0 -161 -159q0 -87 36 -125.5t115 -38.5q82 0 115.5 35.5t33.5 123.5z" />
    <glyph glyph-name="seven" unicode="7" horiz-adv-x="460" 
d="M436 615l-293 -615h-62l295 613h-353v54h413v-52z" />
    <glyph glyph-name="eight" unicode="8" horiz-adv-x="569" 
d="M497 184q0 -97 -45 -143q-49 -49 -167 -49q-119 0 -167 49q-46 46 -46 143q0 70 21 107.5t68 54.5q-46 19 -64.5 55t-18.5 98q0 95 48 135t158 40q111 0 159 -40t48 -135q0 -63 -17.5 -98.5t-64.5 -54.5q47 -17 67.5 -54.5t20.5 -107.5zM432 497h1q0 72 -30.5 97.5
t-117.5 25.5q-88 0 -118.5 -25.5t-30.5 -95.5q0 -76 30 -100q38 -27 118 -27q83 0 119 27q29 22 29 98zM439 181q0 83 -37 112q-32 25 -117 25q-91 0 -123 -26t-32 -110q0 -82 33.5 -109t120.5 -27q86 0 120.5 27t34.5 108z" />
    <glyph glyph-name="nine" unicode="9" horiz-adv-x="562" 
d="M489 362q0 -164 -13 -233q-24 -137 -204 -137q-190 0 -190 151h56q0 -50 32.5 -73.5t100.5 -23.5q66 0 98.5 19t44.5 60q16 50 16 188q-54 -70 -159 -70q-109 0 -155.5 50.5t-46.5 166.5q0 110 50 162t156 52q73 0 123 -28.5t70 -82.5q21 -55 21 -201zM427 456
q0 87 -36 125.5t-115 38.5q-82 0 -115.5 -35.5t-33.5 -123.5q0 -94 30.5 -129t108.5 -35q82 0 121.5 39t39.5 120z" />
    <glyph glyph-name="colon" unicode=":" horiz-adv-x="213" 
d="M146 448q0 -40 -40 -40t-40 40t40 40t40 -40zM146 32q0 -40 -40 -40t-40 40t40 40t40 -40z" />
    <glyph glyph-name="semicolon" unicode=";" horiz-adv-x="213" 
d="M146 448q0 -40 -40 -40t-40 40t40 40t40 -40zM133 -11q0 -43 -8.5 -67t-35.5 -47l-30 -26l-34 34q40 35 47.5 49t7.5 57v81h53v-81z" />
    <glyph glyph-name="less" unicode="&#x3c;" horiz-adv-x="567" 
d="M527 52l-21 -52l-467 214v54l467 212l21 -52l-420 -186z" />
    <glyph glyph-name="equal" unicode="=" horiz-adv-x="567" 
d="M521 311h-476v53h476v-53zM521 118h-476v53h476v-53z" />
    <glyph glyph-name="greater" unicode="&#x3e;" horiz-adv-x="567" 
d="M527 214l-467 -214l-21 52l420 190l-420 186l21 52l467 -212v-54z" />
    <glyph glyph-name="question" unicode="?" horiz-adv-x="425" 
d="M399 505q0 -63 -26.5 -100t-84.5 -62q-43 -19 -53 -38.5t-10 -72.5v-42h-57v58q0 55 18 86t43.5 42.5l51 22t43.5 35.5t18 71q0 65 -27 90t-100 25q-72 0 -101 -21.5t-29 -75.5h-55q0 82 45.5 116.5t137.5 34.5q96 0 141 -38.5t45 -130.5zM237 32q0 -40 -40 -40t-40 40
t40 40t40 -40z" />
    <glyph glyph-name="at" unicode="@" horiz-adv-x="772" 
d="M694 380q0 -176 -51 -225q-26 -26 -59 -34t-83 -7v42q-43 -48 -127 -48q-54 0 -88 14.5t-49.5 44.5t-20.5 61.5t-5 81.5q0 51 4.5 82t20 62t49.5 45.5t88 14.5q84 0 127 -48v41h50v-342q32 -1 51 18q40 40 40 205q0 87 -11.5 125.5t-35.5 61.5q-52 49 -203 49
q-152 0 -203 -51q-56 -57 -56 -263q0 -221 53 -274q30 -30 77.5 -41.5t132.5 -11.5q88 0 145 17t85 72l45 -23q-19 -38 -50 -63t-72.5 -35.5t-76 -14t-81.5 -3.5q-98 0 -154.5 16t-94.5 54q-36 36 -49.5 112.5t-13.5 199.5q0 231 72 298q67 61 239 61q180 0 245 -59
q33 -30 46.5 -81t13.5 -154zM500 310q0 88 -29 120.5t-101 32.5q-67 0 -85.5 -35.5t-18.5 -117.5q0 -42 2.5 -64.5t12.5 -45.5t31.5 -32t58.5 -9q72 0 100.5 32t28.5 119z" />
    <glyph glyph-name="A" unicode="A" horiz-adv-x="615" 
d="M593 0h-64l-75 197h-297l-74 -197h-62l258 667h56zM434 249l-128 344l-129 -344h257z" />
    <glyph glyph-name="B" unicode="B" horiz-adv-x="649" 
d="M567 186q0 -101 -41 -140q-27 -27 -56.5 -35t-77.5 -10q-20 -1 -71 -1h-229v667h223q111 0 141 -6q78 -16 97 -90q8 -31 8 -73q0 -123 -72 -154q78 -35 78 -158zM503 491q0 26 -4.5 45.5t-9.5 32.5t-19 22t-22 13.5t-30 6.5t-31.5 2.5t-38.5 0t-40 -0.5h-157v-244h164h23
q40 0 58.5 0.5t43.5 6.5t36 18.5t19 36.5t8 60zM508 184q0 76 -26 101q-20 20 -50.5 25.5t-118.5 5.5h-162v-262h162h19h46.5t37.5 2.5t33.5 7.5t24.5 14t19.5 23t10 34.5t4.5 48.5z" />
    <glyph glyph-name="C" unicode="C" horiz-adv-x="641" 
d="M571 172q0 -99 -54.5 -139.5t-176.5 -40.5q-169 1 -222 83q-36 54 -39 189v69q0 151 16 207q26 91 117 118q51 16 128 16q122 0 176.5 -40.5t54.5 -139.5h-56q0 71 -38.5 97.5t-145.5 26.5q-122 0 -160 -54q-18 -28 -25.5 -72t-7.5 -159t7.5 -158.5t25.5 -71.5
q38 -55 160 -55q107 0 145.5 26.5t38.5 97.5h56z" />
    <glyph glyph-name="D" unicode="D" horiz-adv-x="667" 
d="M587 333q0 -109 -8 -161t-31 -88q-30 -47 -79.5 -65.5t-143.5 -18.5h-233v667h233q93 0 143.5 -18.5t79.5 -65.5q23 -36 31 -88t8 -162zM528 333q0 103 -8 150.5t-27 75.5q-20 29 -57 41t-117 12h-168v-557h168q80 0 117.5 11.5t56.5 40.5q19 28 27 76t8 150z" />
    <glyph glyph-name="E" unicode="E" horiz-adv-x="586" 
d="M509 0h-417v667h417v-54h-359v-244h349v-53h-349v-262h359v-54z" />
    <glyph glyph-name="F" unicode="F" horiz-adv-x="561" 
d="M499 613h-348v-244h339v-54h-339v-315h-59v667h407v-54z" />
    <glyph glyph-name="G" unicode="G" horiz-adv-x="666" 
d="M582 0h-53v69q-61 -77 -211 -77q-158 0 -206 89q-31 57 -33 199v53q0 41 0.5 61.5t2 54.5t5 51.5t9.5 43.5t16 39.5l24 31t33.5 26t44.5 17.5t57 12.5t71 3.5q122 0 181 -41t59 -139h-58q0 71 -42 97.5t-149 26.5q-123 0 -163 -55q-19 -27 -25.5 -70t-6.5 -160
q0 -115 7.5 -158.5t25.5 -71.5q38 -55 160 -55q123 0 166 63q18 25 24 66.5t6 133.5v5h-200v53h255v-187v-182z" />
    <glyph glyph-name="H" unicode="H" horiz-adv-x="653" 
d="M560 0h-59v316h-350v-316h-59v667h59v-298h350v298h59v-667z" />
    <glyph glyph-name="I" unicode="I" horiz-adv-x="244" 
d="M151 0h-59v667h59v-667z" />
    <glyph glyph-name="J" unicode="J" horiz-adv-x="532" 
d="M443 208q0 -62 -4 -87q-11 -72 -62 -100.5t-135 -28.5q-104 0 -153.5 40t-49.5 139h56q0 -73 33.5 -98.5t113.5 -25.5q62 0 97.5 18t42.5 69q2 14 2 72v461h59v-459z" />
    <glyph glyph-name="K" unicode="K" horiz-adv-x="575" 
d="M566 0h-85l-330 316v-316h-59v667h58v-298l336 298h79l-366 -320z" />
    <glyph glyph-name="L" unicode="L" horiz-adv-x="512" 
d="M499 0h-407v667h59v-613h348v-54z" />
    <glyph glyph-name="M" unicode="M" horiz-adv-x="823" 
d="M730 0h-56v569l-234 -569h-58l-234 568v-568h-56v667h72l248 -598l246 599h72v-668z" />
    <glyph glyph-name="N" unicode="N" horiz-adv-x="651" 
d="M558 0h-67l-343 578v-578h-56v667h66l344 -577v577h56v-667z" />
    <glyph glyph-name="O" unicode="O" horiz-adv-x="670" 
d="M590 335q0 -149 -13 -202q-24 -95 -114 -124q-51 -17 -128 -17q-167 0 -220 86q-34 56 -36 192v64q0 149 14 202q25 93 115 122q50 16 126 16q168 0 220 -84q34 -55 36 -188v-67zM531 334q0 117 -6.5 159t-25.5 69q-38 56 -165 56q-124 0 -164 -57q-19 -27 -25.5 -69.5
t-6.5 -158.5t6.5 -159t25.5 -70q39 -56 165 -56q125 0 164 57q19 27 25.5 69.5t6.5 159.5z" />
    <glyph glyph-name="P" unicode="P" horiz-adv-x="612" 
d="M561 485q0 -44 -7 -76t-24 -52t-35 -32t-51 -17.5t-60 -7t-73 -1.5h-160v-299h-59v667h219q41 0 63 -0.5t53.5 -4t47.5 -10.5t35.5 -20t28.5 -32.5t15.5 -48t6.5 -66.5zM502 483q0 24 -2.5 43t-11 32.5l-14.5 23t-22 15.5t-24.5 9.5t-31 5t-32 1.5h-36.5h-19h-158v-260
h158q96 0 122 7q62 18 70 96q1 13 1 27z" />
    <glyph glyph-name="Q" unicode="Q" horiz-adv-x="670" 
d="M590 334q0 -150 -15 -204q-25 -94 -116 -122q-24 -8 -53 -12l51 -115l-51 -22l-60 133q-43 0 -78 4.5t-61.5 12t-46.5 23t-33.5 29.5t-22.5 40t-14 45.5t-7.5 55.5t-3 61t-0.5 70q0 148 13 201q24 94 113 123q51 17 129 17q168 0 220 -85q34 -55 36 -190v-65zM531 333
q0 117 -6.5 159.5t-25.5 69.5q-38 56 -165 56q-124 0 -164 -57q-19 -27 -25.5 -70t-6.5 -159t6.5 -158.5t25.5 -69.5q39 -55 154 -56l-42 97l51 21l50 -116q85 8 116 55q19 27 25.5 69.5t6.5 158.5z" />
    <glyph glyph-name="R" unicode="R" horiz-adv-x="648" 
d="M561 0h-58v164q0 39 -0.5 53.5t-6 33.5t-17.5 31t-35 17t-45 6t-73 1h-18h-157v-306h-59v667h219q43 0 65 -0.5t53.5 -4t47.5 -11t35 -21t28 -33.5t15 -49.5t6 -69.5q0 -113 -75 -144q15 -5 27.5 -13t20 -15.5t13.5 -21.5t8.5 -22.5t4 -25.5t1.5 -23.5v-25v-21.5v-166z
M503 481q0 32 -5 55.5t-19 38t-25.5 22.5t-37.5 11.5t-41 4t-49 0.5h-17h-158v-253h164h25q40 0 58 0.5t43 6.5t35.5 18.5t18.5 36t8 59.5z" />
    <glyph glyph-name="S" unicode="S" horiz-adv-x="641" 
d="M570 197q0 -107 -59 -156t-192 -49q-132 0 -190.5 41t-58.5 141h58q0 -72 41.5 -99t151.5 -27q109 0 149 32.5t40 111.5q0 83 -41 104q-5 3 -11 5t-14 4t-14.5 3t-16.5 2t-16.5 1.5t-19 0.5t-18.5 0.5t-20 0.5h-20q-115 2 -155 15q-88 28 -94 140v16q0 106 56.5 148
t190.5 42q131 0 188.5 -40.5t57.5 -139.5h-56q0 34 -10 57.5t-24.5 36.5t-41.5 20t-51.5 8.5t-64.5 1.5q-110 0 -148 -28t-38 -105q0 -76 42 -99q30 -16 150 -18q112 -2 150 -12q88 -25 98 -127q1 -15 1 -32z" />
    <glyph glyph-name="T" unicode="T" horiz-adv-x="542" 
d="M514 613h-214v-613h-59v613h-214v54h487v-54z" />
    <glyph glyph-name="U" unicode="U" horiz-adv-x="653" 
d="M564 336q0 -119 -2 -152q-1 -47 -14 -78q-43 -114 -222 -114q-178 0 -222 114q-11 31 -14 78q-2 66 -2 152v331h59v-331v-51v-47.5t0.5 -38t2.5 -36t5.5 -26.5t9.5 -24q37 -65 161 -65q126 0 161 65q7 12 11 26.5t5.5 40t2 40.5t0 56t-0.5 60v331h59v-331z" />
    <glyph glyph-name="V" unicode="V" horiz-adv-x="567" 
d="M560 667l-250 -667h-56l-248 667h63l215 -591l215 591h61z" />
    <glyph glyph-name="W" unicode="W" horiz-adv-x="875" 
d="M832 667l-171 -667h-63l-161 580l-161 -580h-66l-168 667h61l142 -574l161 574h63l160 -574l145 574h58z" />
    <glyph glyph-name="X" unicode="X" horiz-adv-x="556" 
d="M527 0h-68l-182 291l-180 -291h-69l214 340l-208 327h68l175 -279l175 279h69l-209 -327z" />
    <glyph glyph-name="Y" unicode="Y" horiz-adv-x="530" 
d="M525 667l-231 -374v-293h-59v293l-231 374h67l195 -317l194 317h65z" />
    <glyph glyph-name="Z" unicode="Z" horiz-adv-x="604" 
d="M535 0h-467v53l398 560h-398v54h467v-54l-398 -559h398v-54z" />
    <glyph glyph-name="bracketleft" unicode="[" horiz-adv-x="296" 
d="M261 -191h-206v997h206v-51h-150v-895h150v-51z" />
    <glyph glyph-name="backslash" unicode="\" horiz-adv-x="522" 
d="M500 -84h-56l-423 839h56z" />
    <glyph glyph-name="bracketright" unicode="]" horiz-adv-x="296" 
d="M240 -191h-206v51h150v895h-150v51h206v-997z" />
    <glyph glyph-name="asciicircum" unicode="^" horiz-adv-x="567" 
d="M523 209l-52 -21l-190 420l-186 -420l-52 21l212 467h54z" />
    <glyph glyph-name="underscore" unicode="_" horiz-adv-x="505" 
d="M503 -195h-501v55h501v-55z" />
    <glyph glyph-name="grave" unicode="`" horiz-adv-x="416" 
d="M306 541h-67l-130 126h67z" />
    <glyph glyph-name="a" unicode="a" horiz-adv-x="534" 
d="M463 0h-55v54q-41 -62 -170 -62q-95 0 -140.5 34.5t-45.5 110.5q0 48 14 79t42.5 46t59 20.5t75.5 5.5h161v16v14.5v16t-0.5 15t-2 16t-4 13.5t-6.5 14.5t-10 11.5q-28 28 -117 28q-33 0 -52.5 -2t-44 -10t-36.5 -27t-12 -50h-54q0 80 53 112t154 32q168 0 187 -117
q4 -21 4 -95v-276zM404 236h-165q-68 0 -98 -19t-30 -79q0 -50 27.5 -72t96.5 -22q58 0 92.5 11t51 38.5t21 57.5t4.5 85z" />
    <glyph glyph-name="b" unicode="b" horiz-adv-x="556" 
d="M492 241q0 -50 -3 -82.5t-14 -67t-32 -54t-58 -32.5t-90 -13q-112 0 -160 66v-58h-56v697h58v-271q50 62 158 62q54 0 92 -14t58.5 -34t31 -56t13 -65.5t2.5 -77.5zM434 239q0 104 -25.5 149t-108.5 45q-93 0 -128.5 -41t-35.5 -153t35.5 -151.5t128.5 -39.5
q83 0 108.5 43.5t25.5 147.5z" />
    <glyph glyph-name="c" unicode="c" horiz-adv-x="522" 
d="M466 136q0 -144 -194 -144q-56 0 -94.5 12t-61 31t-34.5 53t-15.5 67t-3.5 84t3.5 84.5t15.5 67.5t34.5 53.5t61 31.5t94.5 12q194 0 194 -144h-54q0 29 -11.5 47.5t-34 27t-43.5 11.5t-50 3q-42 0 -70.5 -8.5t-44.5 -22t-24.5 -40.5t-10.5 -52t-2 -69t2 -69.5
t10.5 -52.5t24.5 -40.5t44.5 -22t70.5 -8.5q29 0 50 2.5t43.5 11t34 27t11.5 47.5h54z" />
    <glyph glyph-name="d" unicode="d" horiz-adv-x="556" 
d="M476 0h-56v58q-48 -66 -160 -66q-53 0 -90 12.5t-57.5 32.5t-32 54.5t-14.5 67t-3 82.5q0 48 2.5 77.5t13 65.5t31 56t58.5 34t92 14q110 0 158 -62v271h58v-697zM419 239q0 113 -35.5 153.5t-128.5 40.5q-83 0 -108.5 -45t-25.5 -149t25.5 -147.5t108.5 -43.5
q94 0 129 39.5t35 151.5z" />
    <glyph glyph-name="e" unicode="e" horiz-adv-x="536" 
d="M472 226h-351q0 -100 28 -140t123 -40q28 0 49.5 3t43.5 11.5t34 27.5t12 48h54q0 -144 -194 -144q-67 0 -109.5 15.5t-63.5 50.5t-28 75t-7 105t7 106.5t28.5 76.5t63 51t106.5 16q57 0 96 -13t60 -32t32 -57t13.5 -70.5t2.5 -89.5zM416 279q0 88 -31 122t-117 34
q-82 0 -114 -36.5t-32 -119.5h294z" />
    <glyph glyph-name="f" unicode="f" horiz-adv-x="444" 
d="M433 595h-57q-3 31 -28.5 42.5t-72.5 11.5q-57 0 -83.5 -18t-26.5 -69v-82h190v-52h-190v-428h-58v428h-81v52h81v82q0 142 166 142q157 0 160 -109z" />
    <glyph glyph-name="g" unicode="g" horiz-adv-x="556" 
d="M476 45q0 -89 -4 -111q-19 -128 -207 -128q-86 0 -138 32t-52 102h56q0 -81 131 -81q141 0 153 90q2 16 2.5 37.5t0 38t0.5 37.5q-49 -63 -157 -63q-53 0 -90 12.5t-58 31.5t-32.5 53.5t-14.5 66.5t-3 82q0 60 6 97.5t25 74t60 54t105 17.5q113 0 161 -62v54h56v-435z
M419 243q0 109 -35.5 149.5t-128.5 40.5q-84 0 -109 -43t-25 -147q0 -102 25.5 -145t108.5 -43q93 0 128.5 39t35.5 149z" />
    <glyph glyph-name="h" unicode="h" horiz-adv-x="538" 
d="M467 0h-58v253v24v41t-2 33.5t-7 29.5t-13.5 21.5t-21.5 17.5t-33 9t-46 4q-31 0 -55 -6.5t-40 -15.5t-26.5 -27.5t-16 -32t-8 -41.5t-3 -43t-0.5 -48v-219h-58v697h58v-271q49 62 153 62q33 0 59 -4.5t44 -13t31.5 -20.5t21 -26.5t13 -31.5t6.5 -36l2 -39t0 -41v-23
v-253z" />
    <glyph glyph-name="i" unicode="i" horiz-adv-x="217" 
d="M147 636q0 -39 -39 -39q-38 0 -38 39q0 38 38 38q39 0 39 -38zM137 0h-58v480h58v-480z" />
    <glyph glyph-name="j" unicode="j" horiz-adv-x="217" 
d="M147 636q0 -39 -39 -39q-38 0 -38 39q0 38 38 38q39 0 39 -38zM138 -46q0 -68 -36 -104q-46 -44 -132 -44q-73 0 -116 30.5t-44 93.5h56q0 -5 0.5 -10t6 -17.5t15.5 -21.5t31.5 -16t50.5 -7q59 0 91 32q5 5 8 10t5 12l3.5 12t2 14t0.5 13v14v12v503h58v-526z" />
    <glyph glyph-name="k" unicode="k" horiz-adv-x="470" 
d="M464 0h-81l-246 232v-232h-58v697h58v-411l244 199h80l-278 -225z" />
    <glyph glyph-name="l" unicode="l" horiz-adv-x="217" 
d="M137 0h-58v697h58v-697z" />
    <glyph glyph-name="m" unicode="m" horiz-adv-x="806" 
d="M735 0h-58v292q0 28 -0.5 41.5t-3.5 33.5t-9.5 29t-18.5 19.5t-30.5 14t-45.5 3.5q-32 0 -56 -8t-38 -25.5t-22.5 -33.5t-12 -45.5t-4 -46.5t-0.5 -51v-8v-215h-58v292q0 28 -0.5 41.5t-3.5 33.5t-9.5 29t-18.5 19.5t-30.5 14t-45.5 3.5q-28 0 -49.5 -7t-35.5 -17
t-23.5 -29t-14 -33.5t-7 -40.5t-3 -41t-0.5 -44v-8v-213h-58v480h56v-56q43 64 144 64q111 0 142 -77q50 77 156 77q114 0 145 -76q13 -32 13 -122v-290z" />
    <glyph glyph-name="n" unicode="n" horiz-adv-x="538" 
d="M467 0h-58v253v24v41t-2 33.5t-7 29.5t-13.5 21.5t-21.5 17.5t-33 9t-46 4q-31 0 -55 -6.5t-40 -15.5t-26.5 -27.5t-16 -32t-8 -41.5t-3 -43t-0.5 -48v-219h-58v480h56v-56q48 64 155 64q33 0 59 -4.5t44 -13t31.5 -20.5t21 -26.5t13 -31.5t6.5 -36l2 -39t0 -41v-23v-253
z" />
    <glyph glyph-name="o" unicode="o" horiz-adv-x="552" 
d="M488 240q0 -80 -10 -124t-36 -71q-52 -53 -166 -53t-167 53q-26 27 -36 71.5t-10 123.5t10 123.5t36 71.5q53 53 167 53t166 -53q26 -27 36 -71t10 -124zM430 242q0 56 -4 85.5t-18.5 57t-46.5 38t-85 10.5q-44 0 -73.5 -9t-45.5 -22t-24 -40.5t-10 -51.5t-2 -68
q0 -56 3.5 -84.5t18 -57.5t47 -40.5t86.5 -11.5q32 0 55.5 4.5t40 12t27.5 22t17 27.5t9.5 36.5t4 41.5t0.5 50z" />
    <glyph glyph-name="p" unicode="p" horiz-adv-x="556" 
d="M492 239q0 -48 -2.5 -77.5t-13 -65.5t-31 -56t-58.5 -34t-92 -14q-108 0 -158 62v-245h-58v671h56v-58q48 66 160 66q53 0 90 -13t58 -32.5t32 -54t14 -67t3 -82.5zM434 240q0 104 -25.5 148.5t-108.5 44.5q-93 0 -128.5 -40.5t-35.5 -152.5t35.5 -152t128.5 -40
q83 0 108.5 44t25.5 148z" />
    <glyph glyph-name="q" unicode="q" horiz-adv-x="556" 
d="M476 -191h-58v245q-48 -62 -158 -62q-54 0 -92 14t-58.5 34t-31 56t-13 65.5t-2.5 77.5q0 50 3 82.5t14.5 67t32 54.5t57.5 32.5t90 12.5q112 0 160 -66v58h56v-671zM419 240q0 113 -35 153t-129 40q-83 0 -108.5 -44.5t-25.5 -148.5t25.5 -148t108.5 -44q94 0 129 40
t35 152z" />
    <glyph glyph-name="r" unicode="r" horiz-adv-x="442" 
d="M428 348h-54q0 49 -23 67t-81 18q-28 0 -49.5 -7.5t-35.5 -17t-23.5 -29t-14.5 -33.5t-7.5 -41t-2.5 -40v-42v-15v-208h-58v480h56v-56q47 64 146 64q147 0 147 -140z" />
    <glyph glyph-name="s" unicode="s" horiz-adv-x="508" 
d="M451 137q0 -79 -49 -112t-153 -33q-100 0 -146 33t-46 111h54q0 -50 29.5 -69t107.5 -19q80 0 112.5 19t32.5 63q0 59 -22 70.5t-113 14.5q-94 3 -122 12q-69 27 -71 120q0 79 49 110t153 31q92 0 138 -32t46 -112h-54q0 49 -28.5 69.5t-100.5 20.5q-81 0 -113 -18
t-32 -61q0 -15 1 -26t5 -19.5t6 -14t11 -9.5t12.5 -6.5t18 -4t19.5 -1.5t25.5 -1t28.5 -1t37.5 -1t38 -2t32.5 -4.5t32 -8.5l23.5 -15t21 -23.5t11 -34t5.5 -46.5z" />
    <glyph glyph-name="t" unicode="t" horiz-adv-x="454" 
d="M424 136q0 -144 -161 -144q-80 0 -118 34.5t-38 108.5v293h-81v52h81v187h58v-187h219v-52h-219v-293q0 -51 23 -71t77 -20q57 0 81 21.5t24 70.5h54z" />
    <glyph glyph-name="u" unicode="u" horiz-adv-x="538" 
d="M459 0h-56v56q-48 -64 -155 -64q-37 0 -66 7t-47.5 15.5t-31.5 27t-19 31.5t-9.5 40.5t-3.5 40.5v45v18v263h58v-253v-24q0 -38 0.5 -55.5t6.5 -41.5t18.5 -34t36.5 -18t61 -8q31 0 55 6.5t40 15.5t26.5 28t16 32.5t8 41t3 43t0.5 48.5v219h58v-480z" />
    <glyph glyph-name="v" unicode="v" horiz-adv-x="462" 
d="M447 480l-187 -480h-58l-188 480h61l157 -411l154 411h61z" />
    <glyph glyph-name="w" unicode="w" horiz-adv-x="698" 
d="M673 480l-145 -480h-61l-119 401l-118 -401h-61l-145 480h60l116 -399l119 399h58l121 -398l115 398h60z" />
    <glyph glyph-name="x" unicode="x" horiz-adv-x="462" 
d="M443 0h-71l-143 202l-144 -202h-67l178 245l-171 235h71l136 -192l138 192h67l-172 -234z" />
    <glyph glyph-name="y" unicode="y" horiz-adv-x="429" 
d="M417 480l-252 -670h-60l75 197l-176 473h61l146 -403l145 403h61z" />
    <glyph glyph-name="z" unicode="z" horiz-adv-x="479" 
d="M428 0h-378v47l306 381h-306v52h378v-47l-305 -380h305v-53z" />
    <glyph glyph-name="braceleft" unicode="{" horiz-adv-x="367" 
d="M329 -191q-85 0 -122 37q-29 28 -38.5 63t-9.5 96v185q0 13 -21.5 30.5t-43 39.5t-21.5 47q0 27 30 57l54 54q1 0 1 3v209q0 61 10 96t38 63q38 37 123 37v-51q-59 0 -85 -26q-29 -28 -29 -118v-202q0 -17 -9.5 -35t-18 -27.5t-28.5 -28t-24 -22.5q-10 -9 -1 -18l56 -53
q24 -23 24 -61v-180q0 -89 30 -119q26 -25 85 -25v-51z" />
    <glyph glyph-name="bar" unicode="|" horiz-adv-x="286" 
d="M171 -191h-56v858h56v-858z" />
    <glyph glyph-name="braceright" unicode="}" horiz-adv-x="367" 
d="M294 307q0 -20 -13.5 -38.5t-29 -29.5t-29 -24.5t-13.5 -24.5v-185q0 -61 -10 -96t-38 -63q-38 -37 -123 -37v51q59 0 84 25q30 29 30 119v180q0 37 24 61l56 53q10 9 1 18q-5 5 -19.5 18t-22.5 21t-18 21t-15 26t-5 27v202q0 89 -29 118q-27 26 -86 26v51q85 0 122 -37
q29 -28 38.5 -62.5t9.5 -96.5v-209q0 -2 1 -3l54 -54q31 -28 31 -57z" />
    <glyph glyph-name="asciitilde" unicode="~" horiz-adv-x="567" 
d="M531 254l-80 -58q-33 -25 -77 -26t-78 23q-54 39 -76 47q-39 12 -76 -13l-78 -55l-31 47l81 58q35 24 77.5 26t76.5 -22q1 -1 13.5 -10l14.5 -10.5t13.5 -9t15.5 -8.5t14.5 -6t15.5 -5t15 -1.5t17 1t15.5 6t17.5 9.5l79 54z" />
    <glyph glyph-name="nbspace" unicode="&#xa0;" horiz-adv-x="286" 
 />
    <glyph glyph-name="exclamdown" unicode="&#xa1;" horiz-adv-x="285" 
d="M182 448q0 -40 -40 -40t-40 40t40 40t40 -40zM171 -187h-57v477h57v-477z" />
    <glyph glyph-name="cent" unicode="&#xa2;" horiz-adv-x="522" 
d="M466 136q0 -134 -168 -143v-88h-54v88q-90 6 -135 52q-26 27 -36 71.5t-10 124.5q0 79 10 123t36 71q45 46 135 52v88h54v-88q168 -9 168 -143h-54q0 83 -114 89v-386q114 6 114 89h54zM244 47v386q-34 -3 -56.5 -13t-36 -24t-20 -40t-8.5 -50.5t-2 -64.5
q0 -100 22 -143.5t101 -50.5z" />
    <glyph glyph-name="sterling" unicode="&#xa3;" horiz-adv-x="567" 
d="M520 0h-460v54h56v253h-56v53h56v98v18.5v20.5t0.5 18.5t1.5 21t3 18.5t5 20l7 17t10 17.5t13 14.5q52 50 159 50q33 0 56 -2t52 -10.5t46 -23.5t29.5 -44.5t12.5 -70.5h-56q0 60 -32 78.5t-98 18.5q-95 0 -128 -37q-6 -6 -10 -14t-6.5 -17.5t-4 -16.5t-2 -19.5t-0.5 -18
v-19v-17.5v-101h292v-53h-292v-253h346v-54z" />
    <glyph glyph-name="currency" unicode="&#xa4;" horiz-adv-x="554" 
d="M9 109l89 92q-50 67 -50 142q0 67 51 140l-93 92l36 36l92 -93q72 52 143 52t142 -52l93 92l35 -35l-92 -92q51 -67 51 -142q0 -38 -10.5 -69t-38.5 -71l91 -92l-35 -36l-92 92q-66 -51 -140 -51q-69 0 -146 51l-91 -91zM280 515q-73 0 -123.5 -49.5t-50.5 -121.5
t50 -122.5t121 -50.5t121 50.5t50 121.5q0 70 -50 121t-118 51z" />
    <glyph glyph-name="yen" unicode="&#xa5;" horiz-adv-x="538" 
d="M521 667l-150 -252h84v-52h-115l-33 -56h148v-52h-157v-255h-58v255h-157v52h149l-34 56h-115v52h84l-151 252h67l188 -318l185 318h65z" />
    <glyph glyph-name="brokenbar" unicode="&#xa6;" horiz-adv-x="287" 
d="M171 361h-56v306h56v-306zM171 -191h-56v306h56v-306z" />
    <glyph glyph-name="section" unicode="&#xa7;" horiz-adv-x="566" 
d="M475 49q0 -89 -47.5 -121t-138.5 -33q-105 -1 -152 32.5t-47 118.5h56q0 -55 30 -75.5t113 -19.5q64 0 96 18t32 80q0 28 -8 46.5t-17 27.5t-31.5 13.5t-36 5t-45.5 0.5q-58 0 -91 6t-58 28q-40 34 -40 109q0 88 60 114q-60 28 -60 121q0 89 47.5 121t138.5 33
q105 1 151.5 -32t47.5 -119h-56q0 56 -30 77t-113 20q-64 0 -96 -19t-32 -81q0 -28 8 -46.5t17 -27.5t31.5 -13.5t36 -5t45.5 -0.5q58 0 91 -6t58 -28q40 -34 40 -109q0 -88 -60 -114q60 -28 60 -121zM417 284q0 26 -7.5 43.5t-18 27t-31 14t-36 5.5t-43.5 1q-34 0 -53 -2
t-40 -10t-30.5 -27.5t-9.5 -50.5q0 -26 7.5 -43.5t18 -27t31 -14t36 -5.5t43.5 -1q27 0 42.5 1t35 5.5t30 14t18 27t7.5 42.5z" />
    <glyph glyph-name="dieresis" unicode="&#xa8;" horiz-adv-x="420" 
d="M357 629q0 -40 -40 -40t-40 40t40 40t40 -40zM142 629q0 -40 -40 -40t-40 40t40 40t40 -40z" />
    <glyph glyph-name="copyright" unicode="&#xa9;" horiz-adv-x="830" 
d="M750 334q0 -112 -17 -173t-56 -99t-101 -54t-162 -16q-99 0 -161 16t-102 54q-38 38 -55 99.5t-17 174.5q0 112 17 173t55 99q39 37 100.5 51.5t162.5 14.5q102 0 163.5 -14.5t99.5 -51.5q39 -37 56 -99t17 -175zM696 337q0 103 -13 153.5t-43 79.5q-56 54 -226 54
q-169 0 -226 -54q-29 -29 -42 -81t-13 -156q0 -103 12.5 -153.5t42.5 -79.5q61 -58 226 -58q166 0 226 58q30 29 43 81t13 156zM612 249q0 -33 -4 -47q-22 -106 -192 -106q-117 0 -165 51q-26 28 -35.5 67.5t-9.5 119.5q0 79 9.5 118t35.5 67q49 52 165 52q35 0 62.5 -4
t56 -14t47.5 -32t26 -55q4 -16 4 -47h-53q0 51 -19 68q-34 34 -123 34q-90 0 -126 -38q-17 -18 -23.5 -48t-6.5 -101q0 -72 6.5 -102t23.5 -48q36 -38 126 -38q88 0 123 35q19 17 19 68h53z" />
    <glyph glyph-name="ordfeminine" unicode="&#xaa;" horiz-adv-x="384" 
d="M341 336h-41v41q-24 -23 -51 -34.5t-74 -11.5q-70 0 -103 23t-33 77q0 64 36.5 85.5t104.5 21.5h113v2q0 55 -17 71q-18 18 -82 18q-98 0 -98 -54h-47q0 99 151 99q125 0 139 -83q2 -10 2 -63v-192zM292 494h-115q-45 0 -67.5 -12t-22.5 -50q0 -32 18 -44.5t68 -12.5
q85 0 107 48q11 21 12 46v25z" />
    <glyph glyph-name="guillemotleft" unicode="&#xab;" horiz-adv-x="452" 
d="M407 404q-3 -4 -21 -21.5t-26.5 -26.5t-23.5 -27t-23 -31t-14.5 -29.5t-6.5 -30.5t6.5 -30.5t13 -28.5t22.5 -30.5t23 -26t26.5 -26.5l21.5 -21l-37 -37l-22.5 22t-27 27l-23 25.5t-23.5 30.5t-16.5 28.5t-14 33.5t-3.5 32q0 19 7.5 39.5t15 35.5t26 38t26.5 32t31 33
l26 27zM218 404q-3 -4 -21 -21.5t-26.5 -26.5t-23.5 -27t-23 -31t-14.5 -29.5t-6.5 -30.5t6.5 -30.5t13 -28.5t22.5 -30.5t23 -26t26.5 -26.5l21.5 -21l-37 -37l-22.5 22t-27 27l-23 25.5t-23.5 30.5t-16.5 28.5t-14 33.5t-3.5 32q0 19 7.5 39.5t15 35.5t26 38t26.5 32
t31 33l26 27z" />
    <glyph glyph-name="logicalnot" unicode="&#xac;" horiz-adv-x="567" 
d="M521 0h-56v311h-420v53h476v-364z" />
    <glyph glyph-name="registered" unicode="&#xae;" horiz-adv-x="536" 
d="M493 448q0 -74 -10.5 -115t-35.5 -65q-47 -47 -179 -47t-180 47q-46 46 -46 181t46 181q45 44 180 44t179 -44q25 -24 35.5 -65.5t10.5 -116.5zM454 450q0 68 -8 101t-27 51q-33 35 -151 35q-117 0 -152 -35q-34 -34 -34 -155q0 -118 34 -152q38 -36 152 -36
q115 0 151 36q35 34 35 155zM372 308h-39v81q0 25 -7 35t-29 11q-9 1 -34 1h-54v-128h-40v285h97q35 0 51 -3q55 -10 55 -77q0 -38 -29 -59q29 -19 29 -63v-83zM333 514q0 28 -8 35q-6 6 -16 7.5t-46 1.5h-55v-88h58q44 0 52 4q15 7 15 40z" />
    <glyph glyph-name="macron" unicode="&#xaf;" horiz-adv-x="420" 
d="M377 607h-333v50h333v-50z" />
    <glyph glyph-name="degree" unicode="&#xb0;" horiz-adv-x="568" 
d="M433 524q0 -80 -35.5 -117t-113.5 -37q-77 0 -113.5 37t-36.5 117q0 79 36 114.5t114 35.5t113.5 -35t35.5 -115zM378 522q0 57 -19 79t-75 22t-75.5 -22t-19.5 -79t19.5 -78.5t75.5 -21.5t75 21.5t19 78.5z" />
    <glyph glyph-name="plusminus" unicode="&#xb1;" horiz-adv-x="567" 
d="M522 293h-212v-188h-56v188h-211v53h211v187h56v-187h212v-53zM533 0h-500v53h500v-53z" />
    <glyph glyph-name="twosuperior" unicode="&#xb2;" 
d="M319 557q0 -26 -6.5 -45.5t-15 -31t-27.5 -21.5t-31.5 -14t-40.5 -12q-9 -3 -14 -4q-33 -10 -46 -15.5t-22 -20.5t-9 -43v-39h211v-44h-261v93q0 20 4 35.5t14 27t18.5 19t26 14.5l26.5 10.5t31 9.5t30 8q36 11 49.5 25.5t13.5 47.5q0 41 -18 56t-64 15
q-44 0 -63.5 -10.5t-19.5 -44.5h-49q0 55 33.5 77.5t97.5 22.5q67 0 99.5 -26t32.5 -90z" />
    <glyph glyph-name="threesuperior" unicode="&#xb3;" 
d="M325 378q0 -58 -30 -87q-30 -30 -107 -30q-65 0 -98.5 23t-33.5 80h48q1 -33 19.5 -45.5t64.5 -12.5q52 0 70 12.5t18 58.5q0 47 -18 62t-68 15h-69v45h69q45 0 63.5 11t18.5 51q0 39 -16 53t-66 14q-46 0 -64.5 -12.5t-19.5 -45.5h-47q0 56 33 79.5t98 23.5
q69 0 100 -25.5t31 -84.5q0 -36 -8 -56t-32 -31q44 -19 44 -98z" />
    <glyph glyph-name="acute" unicode="&#xb4;" horiz-adv-x="420" 
d="M308 667l-129 -126h-67l129 126h67z" />
    <glyph glyph-name="uni00B5" unicode="&#xb5;" horiz-adv-x="547" 
d="M468 0h-56v56q-48 -64 -155 -64q-79 0 -119 38v-221h-59v671h59v-253v-18q0 -31 0.5 -45.5t2.5 -36t6.5 -30.5t13 -21t22 -16.5t32.5 -8t45 -3.5q32 0 56 6.5t39.5 15t26.5 27.5t16 32t7.5 41t3 42.5t0.5 48.5v219h59v-480z" />
    <glyph glyph-name="paragraph" unicode="&#xb6;" horiz-adv-x="564" 
d="M452 0h-56v613h-56v-613h-56v303h-26h-28t-25.5 1t-27.5 2.5t-24 5t-26 8.5t-22 12.5t-22 17.5q-40 39 -40 134q0 156 121 178q29 5 124 5h164v-667zM284 358v255h-17q-39 0 -58 -1t-44.5 -7.5t-36.5 -19.5t-19.5 -37t-8.5 -61q0 -27 4 -47.5t9.5 -34.5t19.5 -23t24 -14
t33 -7t37.5 -2.5t46.5 -0.5h10z" />
    <glyph glyph-name="periodcentered" unicode="&#xb7;" horiz-adv-x="213" 
d="M146 335q0 -40 -40 -40t-40 40t40 40t40 -40z" />
    <glyph glyph-name="cedilla" unicode="&#xb8;" horiz-adv-x="420" 
d="M282 -116q0 -38 -18 -56.5t-60 -18.5q-43 0 -62 15.5t-19 51.5h39q0 -19 8.5 -25.5t31.5 -6.5q24 0 31 9.5t7 29.5q0 7 -2 13t-4 10t-7 6.5l-8 4t-10.5 2t-10.5 0.5h-12h-11v81h42v-49q32 0 48.5 -18t16.5 -49z" />
    <glyph glyph-name="onesuperior" unicode="&#xb9;" 
d="M320 267h-231v43h90v291l-66 -59l-29 32l103 93h42v-357h91v-43z" />
    <glyph glyph-name="ordmasculine" unicode="&#xba;" horiz-adv-x="384" 
d="M347 503q0 -55 -7 -85t-27 -49q-36 -37 -121 -37t-122 37q-19 19 -26 49t-7 85t7 85t26 49q37 37 122 37t121 -37q20 -19 27 -49t7 -85zM299 503q0 81 -22 103q-21 23 -85 23q-71 0 -89 -26t-18 -100t18 -100t89 -26q70 0 88.5 26.5t18.5 99.5z" />
    <glyph glyph-name="guillemotright" unicode="&#xbb;" horiz-adv-x="452" 
d="M402 237q0 -16 -3.5 -32t-14 -33.5t-16.5 -28.5t-23.5 -30.5l-23 -25.5t-27 -27l-22.5 -22l-37 37l21.5 21t26.5 26.5t23 26t22.5 30.5t13 28.5t6.5 30.5t-6.5 30.5t-14.5 29.5t-23 31t-23.5 27t-26.5 26.5t-21 21.5l37 38l26 -27t31 -33t26.5 -32t26 -38t15 -35.5
t7.5 -39.5zM213 237q0 -16 -3.5 -32t-14 -33.5t-16.5 -28.5t-23.5 -30.5l-23 -25.5t-27 -27l-22.5 -22l-37 37l21.5 21t26.5 26.5t23 26t22.5 30.5t13 28.5t6.5 30.5t-6.5 30.5t-14.5 29.5t-23 31t-23.5 27t-26.5 26.5t-21 21.5l37 38l26 -27t31 -33t26.5 -32t26 -38
t15 -35.5t7.5 -39.5z" />
    <glyph glyph-name="onequarter" unicode="&#xbc;" horiz-adv-x="839" 
d="M778 105h-61v-105h-48v105h-182v41l186 254h44v-254h61v-41zM669 146v180l-127 -180h127zM614 667l-337 -667h-52l336 667h53zM320 267h-231v43h90v291l-66 -59l-29 32l103 93h42v-357h91v-43z" />
    <glyph glyph-name="onehalf" unicode="&#xbd;" horiz-adv-x="839" 
d="M758 290q0 -26 -6.5 -45.5t-15 -31t-27.5 -21.5t-31.5 -14t-40.5 -12q-9 -3 -14 -4q-33 -10 -46 -15.5t-22 -20.5t-9 -43v-39h211v-44h-261v93q0 20 4 35.5t14 27t18.5 19t26 14.5l26.5 10.5t31 9.5t30 8q36 11 49.5 25.5t13.5 47.5q0 41 -18 56t-64 15
q-44 0 -63.5 -10.5t-19.5 -44.5h-49q0 55 33.5 77.5t97.5 22.5q67 0 99.5 -26t32.5 -90zM614 667l-337 -667h-52l336 667h53zM320 267h-231v43h90v291l-66 -59l-29 32l103 93h42v-357h91v-43z" />
    <glyph glyph-name="threequarters" unicode="&#xbe;" horiz-adv-x="839" 
d="M778 105h-61v-105h-48v105h-182v41l186 254h44v-254h61v-41zM669 146v180l-127 -180h127zM325 378q0 -58 -30 -87q-30 -30 -107 -30q-65 0 -98.5 23t-33.5 80h48q1 -33 19.5 -45.5t64.5 -12.5q52 0 70 12.5t18 58.5q0 47 -18 62t-68 15h-69v45h69q45 0 63.5 11t18.5 51
q0 39 -16 53t-66 14q-46 0 -64.5 -12.5t-19.5 -45.5h-47q0 56 33 79.5t98 23.5q69 0 100 -25.5t31 -84.5q0 -36 -8 -56t-32 -31q44 -19 44 -98zM614 667l-337 -667h-52l336 667h53z" />
    <glyph glyph-name="questiondown" unicode="&#xbf;" horiz-adv-x="425" 
d="M273 448q0 -40 -40 -40q-41 0 -41 40t40 40q41 0 41 -40zM400 -43q0 -82 -45.5 -116.5t-137.5 -34.5q-96 0 -141.5 39t-45.5 130q0 63 27 100t84 62q44 19 53.5 38.5t9.5 72.5v42h58v-58q0 -55 -18 -86t-44 -42.5l-51.5 -22t-43.5 -35.5t-18 -71q0 -65 27.5 -90t99.5 -25
t101 21.5t29 75.5h56z" />
    <glyph glyph-name="Agrave" unicode="&#xc0;" horiz-adv-x="615" 
d="M593 0h-64l-75 197h-297l-74 -197h-62l258 667h56zM434 249l-128 344l-129 -344h257zM388 736h-67l-130 126h67z" />
    <glyph glyph-name="Aacute" unicode="&#xc1;" horiz-adv-x="615" 
d="M593 0h-64l-75 197h-297l-74 -197h-62l258 667h56zM434 249l-128 344l-129 -344h257zM422 862l-129 -126h-67l129 126h67z" />
    <glyph glyph-name="Acircumflex" unicode="&#xc2;" horiz-adv-x="615" 
d="M593 0h-64l-75 197h-297l-74 -197h-62l258 667h56zM434 249l-128 344l-129 -344h257zM461 736h-67l-87 83l-87 -83h-68l133 126h42z" />
    <glyph glyph-name="Atilde" unicode="&#xc3;" horiz-adv-x="615" 
d="M593 0h-64l-75 197h-297l-74 -197h-62l258 667h56zM434 249l-128 344l-129 -344h257zM489 817l-62 -33q-61 -33 -116 -1l-18 11t-19.5 11t-17 6.5t-21 1.5t-22.5 -8l-66 -35l-24 45q5 3 23 13t25 13.5t23 10.5t26.5 8.5t25 2.5t28 -3t27.5 -12q2 -1 14.5 -8.5t16.5 -9.5
t15 -6.5t17.5 -4.5t16.5 1.5t19 6.5l65 35z" />
    <glyph glyph-name="Adieresis" unicode="&#xc4;" horiz-adv-x="614" 
d="M593 0h-64l-75 197h-297l-74 -197h-62l258 667h56zM434 249l-128 344l-129 -344h257zM453 824q0 -40 -40 -40t-40 40t40 40t40 -40zM238 824q0 -40 -40 -40t-40 40t40 40t40 -40z" />
    <glyph glyph-name="Aring" unicode="&#xc5;" horiz-adv-x="615" 
d="M593 0h-64l-75 197h-297l-74 -197h-62l241 625q-73 12 -73 114q0 60 27 84t91 24t91.5 -26.5t27.5 -87.5q0 -99 -74 -109zM375 732q0 42 -13 55.5t-55 13.5t-54.5 -13.5t-12.5 -55.5q0 -41 12.5 -53t55.5 -12q42 0 54.5 12.5t12.5 52.5zM434 249l-128 344l-129 -344h257z
" />
    <glyph glyph-name="AE" unicode="&#xc6;" horiz-adv-x="909" 
d="M832 0h-376v202h-251l-135 -202h-66l445 667h383v-54h-318v-244h308v-53h-308v-262h318v-54zM456 254v329l-218 -329h218z" />
    <glyph glyph-name="Ccedilla" unicode="&#xc7;" horiz-adv-x="641" 
d="M571 172q0 -95 -50.5 -136t-163.5 -44v-42q32 0 48.5 -18t16.5 -49q0 -38 -18 -56.5t-61 -18.5q-42 0 -61 15.5t-19 51.5h39q0 -19 8.5 -25.5t31.5 -6.5q24 0 31 9.5t7 29.5q0 7 -2 13t-4 10t-7.5 6.5t-8.5 4t-10.5 2t-10.5 0.5h-11.5h-10.5v74q-154 7 -202 90
q-32 55 -34 191v60q0 151 16 207q26 91 117 118q51 16 128 16q122 0 176.5 -40.5t54.5 -139.5h-56q0 71 -38.5 97.5t-145.5 26.5q-122 0 -160 -54q-18 -28 -25.5 -72t-7.5 -159t7.5 -158.5t25.5 -71.5q38 -55 160 -55q107 0 145.5 26.5t38.5 97.5h56z" />
    <glyph glyph-name="Egrave" unicode="&#xc8;" horiz-adv-x="586" 
d="M509 0h-417v667h417v-54h-359v-244h349v-53h-349v-262h359v-54zM379 736h-67l-130 126h67z" />
    <glyph glyph-name="Eacute" unicode="&#xc9;" horiz-adv-x="586" 
d="M509 0h-417v667h417v-54h-359v-244h349v-53h-349v-262h359v-54zM408 862l-129 -126h-67l129 126h67z" />
    <glyph glyph-name="Ecircumflex" unicode="&#xca;" horiz-adv-x="586" 
d="M509 0h-417v667h417v-54h-359v-244h349v-53h-349v-262h359v-54zM464 736h-67l-87 83l-87 -83h-68l133 126h42z" />
    <glyph glyph-name="Edieresis" unicode="&#xcb;" horiz-adv-x="586" 
d="M509 0h-417v667h417v-54h-359v-244h349v-53h-349v-262h359v-54zM443 823q0 -40 -40 -40t-40 40t40 40t40 -40zM228 823q0 -40 -40 -40t-40 40t40 40t40 -40z" />
    <glyph glyph-name="Igrave" unicode="&#xcc;" horiz-adv-x="274" 
d="M169 0h-59v667h59v-667zM232 736h-67l-129 126h67z" />
    <glyph glyph-name="Iacute" unicode="&#xcd;" horiz-adv-x="274" 
d="M169 0h-59v667h59v-667zM244 862l-129 -126h-67l129 126h67z" />
    <glyph glyph-name="Icircumflex" unicode="&#xce;" horiz-adv-x="274" 
d="M169 0h-59v667h59v-667zM293 736h-67l-87 83l-87 -83h-67l133 126h42z" />
    <glyph glyph-name="Idieresis" unicode="&#xcf;" horiz-adv-x="274" 
d="M169 0h-59v667h59v-667zM287 824q0 -40 -40 -40t-40 40t40 40t40 -40zM72 824q0 -40 -40 -40t-40 40t40 40t40 -40z" />
    <glyph glyph-name="Eth" unicode="&#xd0;" horiz-adv-x="690" 
d="M610 333q0 -109 -8 -161t-31 -88q-30 -47 -79.5 -65.5t-143.5 -18.5h-233v309h-81v53h81v305h233q93 0 143.5 -18.5t79.5 -65.5q23 -36 31 -88t8 -162zM551 333q0 104 -8 151.5t-27 74.5q-20 29 -57 41t-117 12h-168v-250h181v-53h-181v-254h168q80 0 117.5 11.5
t56.5 40.5q19 28 27 76t8 150z" />
    <glyph glyph-name="Ntilde" unicode="&#xd1;" horiz-adv-x="651" 
d="M558 0h-67l-343 578v-578h-56v667h66l344 -577v577h56v-667zM508 817l-62 -33q-61 -33 -116 -1l-18 11t-19.5 11t-17 6.5t-21 1.5t-22.5 -8l-66 -35l-24 45q5 3 23 13t25 13.5t23.5 10.5t26.5 8.5t24.5 2.5t28 -3t27.5 -12q2 -1 14.5 -8.5t16.5 -9.5t15 -6.5t17.5 -4.5
t16.5 1.5t19 6.5l65 35z" />
    <glyph glyph-name="Ograve" unicode="&#xd2;" horiz-adv-x="670" 
d="M590 335q0 -149 -13 -202q-24 -95 -114 -124q-51 -17 -128 -17q-167 0 -220 86q-34 56 -36 192v64q0 149 14 202q25 93 115 122q50 16 126 16q168 0 220 -84q34 -55 36 -188v-67zM531 334q0 117 -6.5 159t-25.5 69q-38 56 -165 56q-124 0 -164 -57q-19 -27 -25.5 -69.5
t-6.5 -158.5t6.5 -159t25.5 -70q39 -56 165 -56q125 0 164 57q19 27 25.5 69.5t6.5 159.5zM436 736h-67l-130 126h67z" />
    <glyph glyph-name="Oacute" unicode="&#xd3;" horiz-adv-x="670" 
d="M590 335q0 -149 -13 -202q-24 -95 -114 -124q-51 -17 -128 -17q-167 0 -220 86q-34 56 -36 192v64q0 149 14 202q25 93 115 122q50 16 126 16q168 0 220 -84q34 -55 36 -188v-67zM531 334q0 117 -6.5 159t-25.5 69q-38 56 -165 56q-124 0 -164 -57q-19 -27 -25.5 -69.5
t-6.5 -158.5t6.5 -159t25.5 -70q39 -56 165 -56q125 0 164 57q19 27 25.5 69.5t6.5 159.5zM428 862l-129 -126h-67l129 126h67z" />
    <glyph glyph-name="Ocircumflex" unicode="&#xd4;" horiz-adv-x="670" 
d="M590 335q0 -149 -13 -202q-24 -95 -114 -124q-51 -17 -128 -17q-167 0 -220 86q-34 56 -36 192v64q0 149 14 202q25 93 115 122q50 16 126 16q168 0 220 -84q34 -55 36 -188v-67zM531 334q0 117 -6.5 159t-25.5 69q-38 56 -165 56q-124 0 -164 -57q-19 -27 -25.5 -69.5
t-6.5 -158.5t6.5 -159t25.5 -70q39 -56 165 -56q125 0 164 57q19 27 25.5 69.5t6.5 159.5zM488 736h-67l-87 83l-87 -83h-68l133 126h42z" />
    <glyph glyph-name="Otilde" unicode="&#xd5;" horiz-adv-x="670" 
d="M590 335q0 -149 -13 -202q-24 -95 -114 -124q-51 -17 -128 -17q-167 0 -220 86q-34 56 -36 192v64q0 149 14 202q25 93 115 122q50 16 126 16q168 0 220 -84q34 -55 36 -188v-67zM531 334q0 117 -6.5 159t-25.5 69q-38 56 -165 56q-124 0 -164 -57q-19 -27 -25.5 -69.5
t-6.5 -158.5t6.5 -159t25.5 -70q39 -56 165 -56q125 0 164 57q19 27 25.5 69.5t6.5 159.5zM517 817l-62 -33q-61 -33 -116 -1l-18 11t-19.5 11t-17 6.5t-21 1.5t-22.5 -8l-66 -35l-24 45q5 3 23 13t25 13.5t23 10.5t26.5 8.5t25 2.5t28 -3t27.5 -12q2 -1 14.5 -8.5
t16.5 -9.5t15 -6.5t17.5 -4.5t16.5 1.5t19 6.5l65 35z" />
    <glyph glyph-name="Odieresis" unicode="&#xd6;" horiz-adv-x="670" 
d="M590 335q0 -149 -14 -203q-25 -95 -116 -124q-50 -16 -125 -16q-167 0 -220 86q-34 56 -36 192v64q0 149 14 202q25 93 115 122q50 16 126 16q167 0 219 -84q35 -55 37 -189v-66zM531 334q0 116 -6.5 158.5t-25.5 69.5q-38 56 -165 56q-125 0 -164 -57
q-19 -27 -25.5 -69.5t-6.5 -158.5t6.5 -159t25.5 -70q38 -56 165 -56q125 0 164 57q19 27 25.5 70t6.5 159zM482 824q0 -40 -40 -40t-40 40t40 40t40 -40zM267 824q0 -40 -40 -40t-40 40t40 40t40 -40z" />
    <glyph glyph-name="multiply" unicode="&#xd7;" horiz-adv-x="567" 
d="M511 63l-38 -38l-190 190l-189 -190l-38 38l190 189l-190 190l38 38l189 -190l190 190l38 -38l-190 -190z" />
    <glyph glyph-name="Oslash" unicode="&#xd8;" horiz-adv-x="670" 
d="M590 333q-1 -149 -15 -201q-25 -95 -115 -124q-50 -17 -127 -16q-19 0 -47 2l-31 -135l-52 10l31 133q-39 8 -66.5 24t-44 38.5t-26.5 51.5t-13 63t-4 73.5t0 83.5q1 148 15 200q25 94 113 122q51 17 129 16q18 0 46 -2l30 132l52 -11l-29 -129q32 -7 56.5 -19t41 -28.5
t28 -38t17 -47t8.5 -56.5t3 -66.5v-75.5zM531 332q1 117 -5.5 159.5t-24.5 69.5q-26 37 -78 48l-125 -560q11 -1 35 -1q123 -1 164 56q19 26 26 69t8 159zM371 617q-11 1 -34 1q-124 1 -165 -56q-19 -26 -25.5 -68t-7.5 -159t5.5 -160t24.5 -70q26 -37 77 -48z" />
    <glyph glyph-name="Ugrave" unicode="&#xd9;" horiz-adv-x="653" 
d="M564 336q0 -119 -2 -152q-1 -47 -14 -78q-43 -114 -222 -114q-178 0 -222 114q-11 31 -14 78q-2 66 -2 152v331h59v-331v-51v-47.5t0.5 -38t2.5 -36t5.5 -26.5t9.5 -24q37 -65 161 -65q126 0 161 65q7 12 11 26.5t5.5 40t2 40.5t0 56t-0.5 60v331h59v-331zM414 735h-67
l-130 126h67z" />
    <glyph glyph-name="Uacute" unicode="&#xda;" horiz-adv-x="653" 
d="M564 336q0 -119 -2 -152q-1 -47 -14 -78q-43 -114 -222 -114q-178 0 -222 114q-11 31 -14 78q-2 66 -2 152v331h59v-331v-51v-47.5t0.5 -38t2.5 -36t5.5 -26.5t9.5 -24q37 -65 161 -65q126 0 161 65q7 12 11 26.5t5.5 40t2 40.5t0 56t-0.5 60v331h59v-331zM448 862
l-129 -126h-67l129 126h67z" />
    <glyph glyph-name="Ucircumflex" unicode="&#xdb;" horiz-adv-x="653" 
d="M564 336q0 -119 -2 -152q-1 -47 -14 -78q-43 -114 -222 -114q-178 0 -222 114q-11 31 -14 78q-2 66 -2 152v331h59v-331v-51v-47.5t0.5 -38t2.5 -36t5.5 -26.5t9.5 -24q37 -65 161 -65q126 0 161 65q7 12 11 26.5t5.5 40t2 40.5t0 56t-0.5 60v331h59v-331zM488 736h-67
l-87 83l-87 -83h-68l133 126h42z" />
    <glyph glyph-name="Udieresis" unicode="&#xdc;" horiz-adv-x="653" 
d="M564 336q0 -119 -2 -152q-3 -47 -14 -78q-44 -114 -222 -114t-222 114q-11 31 -14 78q-2 33 -2 152v331h59v-331v-51v-47.5t0.5 -38t2.5 -36t5.5 -26.5t9.5 -24q37 -65 161 -65t161 65q6 10 9.5 24t5.5 26.5t2.5 36t0.5 38v47.5v51v331h59v-331zM477 824q0 -40 -40 -40
t-40 40t40 40t40 -40zM262 824q0 -40 -40 -40t-40 40t40 40t40 -40z" />
    <glyph glyph-name="Yacute" unicode="&#xdd;" horiz-adv-x="530" 
d="M525 667l-231 -374v-293h-59v293l-231 374h67l195 -317l194 317h65zM367 862l-129 -126h-67l129 126h67z" />
    <glyph glyph-name="Thorn" unicode="&#xde;" horiz-adv-x="612" 
d="M561 336q0 -44 -7 -76t-24 -52t-35 -32t-51 -17.5t-60 -7t-73 -1.5h-160v-150h-59v667h59v-149h160q41 0 63 -0.5t53.5 -4t47.5 -10.5t35.5 -20t28.5 -32.5t15.5 -48t6.5 -66.5zM502 334q0 24 -2.5 43t-11 32.5l-14.5 23t-22 15.5t-24.5 9.5t-31 5t-32 1.5h-36.5h-19
h-158v-260h158q96 0 122 7q62 18 70 96q1 13 1 27z" />
    <glyph glyph-name="germandbls" unicode="&#xdf;" horiz-adv-x="566" 
d="M492 196q0 -114 -55 -155t-157 -41h-76v51h78q83 0 117 29.5t35 111.5q1 91 -34.5 122t-125.5 31h-70v52h70q85 0 125 30q29 23 29 98q0 72 -30 97.5t-116 25.5q-51 0 -81 -9t-43.5 -33t-16.5 -47t-3 -70v-489h-58v486q0 84 9 114q30 104 193 104q108 0 156 -40t48 -136
q0 -121 -75 -157q45 -18 63 -60t18 -115z" />
    <glyph glyph-name="agrave" unicode="&#xe0;" horiz-adv-x="534" 
d="M463 0h-55v54q-41 -62 -170 -62q-95 0 -140.5 34.5t-45.5 110.5q0 48 14 79t42.5 46t59 20.5t75.5 5.5h161v16v14.5v16t-0.5 15t-2 16t-4 13.5t-6.5 14.5t-10 11.5q-28 28 -117 28q-33 0 -52.5 -2t-44 -10t-36.5 -27t-12 -50h-54q0 80 53 112t154 32q168 0 187 -117
q4 -21 4 -95v-276zM404 236h-165q-68 0 -98 -19t-30 -79q0 -50 27.5 -72t96.5 -22q58 0 92.5 11t51 38.5t21 57.5t4.5 85zM356 541h-67l-130 126h67z" />
    <glyph glyph-name="aacute" unicode="&#xe1;" horiz-adv-x="534" 
d="M463 0h-55v54q-41 -62 -170 -62q-95 0 -140.5 34.5t-45.5 110.5q0 48 14 79t42.5 46t59 20.5t75.5 5.5h161v16v14.5v16t-0.5 15t-2 16t-4 13.5t-6.5 14.5t-10 11.5q-28 28 -117 28q-33 0 -52.5 -2t-44 -10t-36.5 -27t-12 -50h-54q0 80 53 112t154 32q168 0 187 -117
q4 -21 4 -95v-276zM404 236h-165q-68 0 -98 -19t-30 -79q0 -50 27.5 -72t96.5 -22q58 0 92.5 11t51 38.5t21 57.5t4.5 85zM376 667l-129 -126h-67l129 126h67z" />
    <glyph glyph-name="acircumflex" unicode="&#xe2;" horiz-adv-x="534" 
d="M463 0h-55v54q-41 -62 -170 -62q-95 0 -140.5 34.5t-45.5 110.5q0 48 14 79t42.5 46t59 20.5t75.5 5.5h161v16v14.5v16t-0.5 15t-2 16t-4 13.5t-6.5 14.5t-10 11.5q-28 28 -117 28q-33 0 -52.5 -2t-44 -10t-36.5 -27t-12 -50h-54q0 80 53 112t154 32q168 0 187 -117
q4 -21 4 -95v-276zM404 236h-165q-68 0 -98 -19t-30 -79q0 -50 27.5 -72t96.5 -22q58 0 92.5 11t51 38.5t21 57.5t4.5 85zM421 541h-67l-87 83l-87 -83h-68l133 126h42z" />
    <glyph glyph-name="atilde" unicode="&#xe3;" horiz-adv-x="534" 
d="M463 0h-55v54q-41 -62 -170 -62q-95 0 -140.5 34.5t-45.5 110.5q0 48 14 79t42.5 46t59 20.5t75.5 5.5h161v16v14.5v16t-0.5 15t-2 16t-4 13.5t-6.5 14.5t-10 11.5q-28 28 -117 28q-33 0 -52.5 -2t-44 -10t-36.5 -27t-12 -50h-54q0 80 53 112t154 32q168 0 187 -117
q4 -21 4 -95v-276zM404 236h-165q-68 0 -98 -19t-30 -79q0 -50 27.5 -72t96.5 -22q58 0 92.5 11t51 38.5t21 57.5t4.5 85zM445 622l-62 -33q-61 -33 -116 -1l-18 11t-19.5 11t-17 6.5t-21 1.5t-22.5 -8l-66 -35l-24 45q5 3 23 13t25 13.5t23 10.5t26.5 8.5t25 2.5t28 -3
t27.5 -12q2 -1 14.5 -8.5t16.5 -9.5t15 -6.5t17.5 -4.5t16.5 1.5t19 6.5l65 35z" />
    <glyph glyph-name="adieresis" unicode="&#xe4;" horiz-adv-x="534" 
d="M463 0h-55v54q-41 -62 -170 -62q-95 0 -140.5 34.5t-45.5 110.5q0 48 14 79t42 46t59 20.5t76 5.5h161v16v12.5v14t-0.5 13t-1.5 14t-2.5 12.5t-4 13t-6 11t-8.5 11q-28 28 -117 28q-33 0 -52.5 -2t-44 -10t-36.5 -27t-12 -50h-54q0 80 53 112t154 32q167 0 187 -117
q4 -26 4 -95v-276zM404 236h-165q-68 0 -98 -19t-30 -79q0 -50 27.5 -72t96.5 -22q58 0 92.5 11t51 38.5t21 57.5t4.5 85zM414 629q0 -40 -40 -40t-40 40t40 40t40 -40zM199 629q0 -40 -40 -40t-40 40t40 40t40 -40z" />
    <glyph glyph-name="aring" unicode="&#xe5;" horiz-adv-x="534" 
d="M465 0h-55v54q-41 -62 -170 -62q-95 0 -141.5 34.5t-46.5 110.5q0 48 14.5 79t43 46t59.5 20.5t76 5.5h161v16v14.5v16t-0.5 15t-2 16t-4 13.5t-6.5 14.5t-10 11.5q-29 29 -117 29q-25 0 -41.5 -1t-38 -6t-34.5 -14t-22 -26.5t-9 -42.5h-54q0 116 107 134q-22 16 -22 80
q0 60 27 84.5t91 24.5q65 0 92 -24t27 -85q0 -65 -25 -82q38 -9 64 -35.5t33 -69.5q4 -21 4 -95v-276zM339 551q0 43 -13 57t-56 14t-55.5 -14t-12.5 -57q0 -42 12.5 -54t56.5 -12q42 0 55 12.5t13 53.5zM406 236h-165q-68 0 -98 -19t-30 -79q0 -50 27.5 -72t96.5 -22
q58 0 92.5 11t51 38.5t21 57.5t4.5 85z" />
    <glyph glyph-name="ae" unicode="&#xe6;" horiz-adv-x="880" 
d="M816 232h-351q0 -51 5 -81t20 -56.5t45.5 -37.5t80.5 -11q28 0 49.5 3t43.5 11.5t34 27.5t12 48h54q0 -61 -31 -92q-14 -15 -28 -24t-50.5 -18.5t-87.5 -9.5q-144 0 -177 88q-47 -88 -195 -88q-96 0 -142 33.5t-46 109.5q0 48 14.5 79t43 46t59.5 20.5t76 5.5h163v16
v14.5v16.5t-0.5 15.5t-2 16.5t-4 14t-6.5 14.5t-10 11.5q-28 28 -119 28q-26 0 -42 -1t-38.5 -5.5t-35 -13.5t-22 -26.5t-9.5 -42.5h-54q0 80 53.5 112t155.5 32q133 0 171 -70q45 70 167 70q64 0 105 -13.5t62.5 -44.5t29 -69t7.5 -98v-31zM760 285q0 87 -30.5 117.5
t-117.5 30.5q-83 0 -114.5 -33t-31.5 -115h294zM408 234h-167q-68 0 -99 -19t-31 -79q0 -50 28.5 -71t97.5 -21q47 0 78.5 8t50 21.5t28 39t12 52t2.5 69.5z" />
    <glyph glyph-name="ccedilla" unicode="&#xe7;" horiz-adv-x="522" 
d="M466 136q0 -138 -175 -144v-41q32 0 48.5 -18t16.5 -49q0 -38 -18 -56.5t-61 -18.5q-42 0 -61 15.5t-19 51.5h39q0 -19 8.5 -25.5t31.5 -6.5q24 0 31 9.5t7 29.5q0 7 -2 13t-4 10t-7.5 6.5t-8.5 4t-10.5 2t-10.5 0.5h-11.5h-10.5v73q-91 4 -140 51q-46 47 -46 196
q0 51 3.5 84.5t15.5 67.5t34.5 53.5t61 31.5t94.5 12q194 0 194 -144h-54q0 29 -11.5 47.5t-34 27t-43.5 11.5t-50 3q-42 0 -70.5 -8.5t-44.5 -22t-24.5 -40.5t-10.5 -52t-2 -69q0 -55 4 -85t18.5 -58.5t46 -40t83.5 -11.5q29 0 50.5 3t43 11.5t33.5 27.5t12 48h54z" />
    <glyph glyph-name="egrave" unicode="&#xe8;" horiz-adv-x="536" 
d="M472 226h-351q0 -100 28 -140t123 -40q28 0 49.5 3t43.5 11.5t34 27.5t12 48h54q0 -144 -194 -144q-67 0 -109.5 15.5t-63.5 50.5t-28 75t-7 105t7 106.5t28.5 76.5t63 51t106.5 16q57 0 96 -13t60 -32t32 -57t13.5 -70.5t2.5 -89.5zM416 279q0 88 -31 122t-117 34
q-82 0 -114 -36.5t-32 -119.5h294zM354 541h-67l-130 126h67z" />
    <glyph glyph-name="eacute" unicode="&#xe9;" horiz-adv-x="536" 
d="M472 226h-351q0 -100 28 -140t123 -40q28 0 49.5 3t43.5 11.5t34 27.5t12 48h54q0 -144 -194 -144q-67 0 -109.5 15.5t-63.5 50.5t-28 75t-7 105t7 106.5t28.5 76.5t63 51t106.5 16q57 0 96 -13t60 -32t32 -57t13.5 -70.5t2.5 -89.5zM416 279q0 88 -31 122t-117 34
q-82 0 -114 -36.5t-32 -119.5h294zM375 667l-129 -126h-67l129 126h67z" />
    <glyph glyph-name="ecircumflex" unicode="&#xea;" horiz-adv-x="536" 
d="M472 226h-351q0 -100 28 -140t123 -40q28 0 49.5 3t43.5 11.5t34 27.5t12 48h54q0 -144 -194 -144q-67 0 -109.5 15.5t-63.5 50.5t-28 75t-7 105t7 106.5t28.5 76.5t63 51t106.5 16q57 0 96 -13t60 -32t32 -57t13.5 -70.5t2.5 -89.5zM416 279q0 88 -31 122t-117 34
q-82 0 -114 -36.5t-32 -119.5h294zM420 541h-67l-87 83l-87 -83h-68l133 126h42z" />
    <glyph glyph-name="edieresis" unicode="&#xeb;" horiz-adv-x="536" 
d="M472 226h-351q0 -100 28 -140t123 -40q28 0 49.5 3t43.5 11.5t34 27.5t12 48h54q0 -144 -194 -144q-67 0 -109.5 15.5t-63.5 50.5t-28 75t-7 105t7 106.5t28 76.5t62.5 51t107.5 16q57 0 95.5 -13t60 -32t32.5 -56.5t13.5 -70.5t2.5 -90zM416 279q0 88 -31.5 122
t-116.5 34q-82 0 -114 -36.5t-32 -119.5h294zM414 629q0 -40 -40 -40t-40 40t40 40t40 -40zM199 629q0 -40 -40 -40t-40 40t40 40t40 -40z" />
    <glyph glyph-name="igrave" unicode="&#xec;" horiz-adv-x="213" 
d="M140 0h-58v480h58v-480zM208 541h-67l-129 126h67z" />
    <glyph glyph-name="iacute" unicode="&#xed;" horiz-adv-x="214" 
d="M140 0h-58v480h58v-480zM209 667l-129 -126h-67l129 126h67z" />
    <glyph glyph-name="icircumflex" unicode="&#xee;" horiz-adv-x="213" 
d="M140 0h-58v480h58v-480zM263 541h-67l-87 83l-87 -83h-67l133 126h42z" />
    <glyph glyph-name="idieresis" unicode="&#xef;" horiz-adv-x="213" 
d="M140 0h-58v480h58v-480zM256 629q0 -40 -40 -40t-40 40t40 40t40 -40zM41 629q0 -40 -40 -40t-40 40t40 40t40 -40z" />
    <glyph glyph-name="eth" unicode="&#xf0;" horiz-adv-x="550" 
d="M486 240q0 -80 -10 -124t-36 -71q-52 -53 -166 -53t-167 53q-25 27 -34.5 71t-9.5 125q0 46 3 77t14.5 66t32 56t57.5 34.5t90 13.5q36 0 65 -6l-105 105l-60 -43l-31 35l57 43l-52 54l40 33l55 -56l62 46l31 -36l-59 -45l135 -139q55 -55 71.5 -102t16.5 -137zM428 240
q0 109 -37.5 150.5t-128.5 42.5q-47 0 -77 -13.5t-43.5 -42.5t-18 -59t-4.5 -78q0 -56 3.5 -84.5t18 -57.5t47 -40.5t86.5 -11.5q32 0 55.5 4.5t40 12t27.5 22t17 27.5t9.5 36.5t4 41.5t0.5 50z" />
    <glyph glyph-name="ntilde" unicode="&#xf1;" horiz-adv-x="538" 
d="M467 0h-58v253v24v41t-2 33.5t-7 29.5t-13.5 21.5t-21.5 17.5t-33 9t-46 4q-31 0 -55 -6.5t-40 -15.5t-26.5 -27.5t-16 -32t-8 -41.5t-3 -43t-0.5 -48v-219h-58v480h56v-56q48 64 155 64q33 0 59 -4.5t44 -13t31.5 -20.5t21 -26.5t13 -31.5t6.5 -36l2 -39t0 -41v-23v-253
zM451 622l-62 -33q-61 -33 -116 -1l-18 11t-19.5 11t-17 6.5t-21 1.5t-22.5 -8l-66 -35l-24 45q5 3 23 13t25 13.5t23 10.5t26.5 8.5t25 2.5t28 -3t27.5 -12q2 -1 14.5 -8.5t16.5 -9.5t15 -6.5t17.5 -4.5t16.5 1.5t19 6.5l65 35z" />
    <glyph glyph-name="ograve" unicode="&#xf2;" horiz-adv-x="552" 
d="M488 240q0 -80 -10 -124t-36 -71q-52 -53 -166 -53t-167 53q-26 27 -36 71.5t-10 123.5t10 123.5t36 71.5q53 53 167 53t166 -53q26 -27 36 -71t10 -124zM430 242q0 56 -4 85.5t-18.5 57t-46.5 38t-85 10.5q-44 0 -73.5 -9t-45.5 -22t-24 -40.5t-10 -51.5t-2 -68
q0 -56 3.5 -84.5t18 -57.5t47 -40.5t86.5 -11.5q32 0 55.5 4.5t40 12t27.5 22t17 27.5t9.5 36.5t4 41.5t0.5 50zM382 541h-67l-130 126h67z" />
    <glyph glyph-name="oacute" unicode="&#xf3;" horiz-adv-x="552" 
d="M488 240q0 -80 -10 -124t-36 -71q-52 -53 -166 -53t-167 53q-26 27 -36 71.5t-10 123.5t10 123.5t36 71.5q53 53 167 53t166 -53q26 -27 36 -71t10 -124zM430 242q0 56 -4 85.5t-18.5 57t-46.5 38t-85 10.5q-44 0 -73.5 -9t-45.5 -22t-24 -40.5t-10 -51.5t-2 -68
q0 -56 3.5 -84.5t18 -57.5t47 -40.5t86.5 -11.5q32 0 55.5 4.5t40 12t27.5 22t17 27.5t9.5 36.5t4 41.5t0.5 50zM365 667l-129 -126h-67l129 126h67z" />
    <glyph glyph-name="ocircumflex" unicode="&#xf4;" horiz-adv-x="552" 
d="M488 240q0 -80 -10 -124t-36 -71q-52 -53 -166 -53t-167 53q-26 27 -36 71.5t-10 123.5t10 123.5t36 71.5q53 53 167 53t166 -53q26 -27 36 -71t10 -124zM430 242q0 56 -4 85.5t-18.5 57t-46.5 38t-85 10.5q-44 0 -73.5 -9t-45.5 -22t-24 -40.5t-10 -51.5t-2 -68
q0 -56 3.5 -84.5t18 -57.5t47 -40.5t86.5 -11.5q32 0 55.5 4.5t40 12t27.5 22t17 27.5t9.5 36.5t4 41.5t0.5 50zM430 541h-67l-87 83l-87 -83h-68l133 126h42z" />
    <glyph glyph-name="otilde" unicode="&#xf5;" horiz-adv-x="552" 
d="M488 240q0 -80 -10 -124t-36 -71q-52 -53 -166 -53t-167 53q-26 27 -36 71.5t-10 123.5t10 123.5t36 71.5q53 53 167 53t166 -53q26 -27 36 -71t10 -124zM430 242q0 56 -4 85.5t-18.5 57t-46.5 38t-85 10.5q-44 0 -73.5 -9t-45.5 -22t-24 -40.5t-10 -51.5t-2 -68
q0 -56 3.5 -84.5t18 -57.5t47 -40.5t86.5 -11.5q32 0 55.5 4.5t40 12t27.5 22t17 27.5t9.5 36.5t4 41.5t0.5 50zM458 622l-62 -33q-61 -33 -116 -1l-18 11t-19.5 11t-17 6.5t-21 1.5t-22.5 -8l-66 -35l-24 45q5 3 23 13t25 13.5t23 10.5t26.5 8.5t25 2.5t28 -3t27.5 -12
q2 -1 14.5 -8.5t16.5 -9.5t15 -6.5t17.5 -4.5t16.5 1.5t19 6.5l65 35z" />
    <glyph glyph-name="odieresis" unicode="&#xf6;" horiz-adv-x="552" 
d="M488 240q0 -80 -10 -124t-36 -71q-52 -53 -166 -53q-115 0 -167 53q-26 27 -36 71t-10 124t10 124t36 71q52 53 167 53q114 0 166 -53q26 -27 36 -71t10 -124zM430 242q0 56 -4 85.5t-18.5 57t-46.5 38t-85 10.5q-44 0 -73.5 -9t-45.5 -22t-24 -40.5t-10 -51.5t-2 -68
q0 -56 3.5 -84.5t18 -57.5t47 -40.5t86.5 -11.5q32 0 55.5 4.5t40 12t27.5 22t17 27.5t9.5 36.5t4 41.5t0.5 50zM423 629q0 -40 -40 -40t-40 40t40 40t40 -40zM208 629q0 -40 -40 -40t-40 40t40 40t40 -40z" />
    <glyph glyph-name="divide" unicode="&#xf7;" horiz-adv-x="567" 
d="M323 448q0 -40 -40 -40t-40 40t40 40t40 -40zM521 214h-476v53h476v-53zM323 32q0 -40 -40 -40t-40 40t40 40t40 -40z" />
    <glyph glyph-name="oslash" unicode="&#xf8;" horiz-adv-x="552" 
d="M488 238q-1 -81 -11 -124.5t-36 -69.5q-53 -53 -167 -52q-23 0 -57 4l-33 -93l-52 18l32 88q-33 13 -56 37q-26 27 -35.5 71.5t-8.5 124.5q1 81 11 124.5t36 69.5q53 53 168 52q27 0 55 -4l32 90l51 -18l-30 -85q35 -14 57 -37q26 -27 35.5 -71.5t8.5 -124.5zM431 241
q1 78 -10 119.5t-53 58.5l-131 -369q22 -2 38 -2q44 0 73.5 9t45.5 22t24.5 41.5t10.5 52.5t2 68zM315 432q-22 2 -37 2q-44 0 -73.5 -8.5t-45.5 -21.5t-24.5 -41t-10.5 -52t-2 -69q-1 -80 10 -120.5t53 -57.5z" />
    <glyph glyph-name="ugrave" unicode="&#xf9;" horiz-adv-x="538" 
d="M459 0h-56v56q-48 -64 -155 -64q-37 0 -66 7t-47.5 15.5t-31.5 27t-19 31.5t-9.5 40.5t-3.5 40.5v45v18v263h58v-253v-24q0 -38 0.5 -55.5t6.5 -41.5t18.5 -34t36.5 -18t61 -8q31 0 55 6.5t40 15.5t26.5 28t16 32.5t8 41t3 43t0.5 48.5v219h58v-480zM355 541h-67
l-130 126h67z" />
    <glyph glyph-name="uacute" unicode="&#xfa;" horiz-adv-x="538" 
d="M459 0h-56v56q-48 -64 -155 -64q-37 0 -66 7t-47.5 15.5t-31.5 27t-19 31.5t-9.5 40.5t-3.5 40.5v45v18v263h58v-253v-24q0 -38 0.5 -55.5t6.5 -41.5t18.5 -34t36.5 -18t61 -8q31 0 55 6.5t40 15.5t26.5 28t16 32.5t8 41t3 43t0.5 48.5v219h58v-480zM378 667l-129 -126
h-67l129 126h67z" />
    <glyph glyph-name="ucircumflex" unicode="&#xfb;" horiz-adv-x="538" 
d="M459 0h-56v56q-48 -64 -155 -64q-37 0 -66 7t-47.5 15.5t-31.5 27t-19 31.5t-9.5 40.5t-3.5 40.5v45v18v263h58v-253v-24q0 -38 0.5 -55.5t6.5 -41.5t18.5 -34t36.5 -18t61 -8q31 0 55 6.5t40 15.5t26.5 28t16 32.5t8 41t3 43t0.5 48.5v219h58v-480zM423 541h-67l-87 83
l-87 -83h-68l133 126h42z" />
    <glyph glyph-name="udieresis" unicode="&#xfc;" horiz-adv-x="537" 
d="M458 0h-56v56q-48 -64 -155 -64q-37 0 -66 7t-47.5 15.5t-31.5 27t-19 31.5t-9.5 40.5t-3.5 40.5v45v18v263h58v-253v-24q0 -38 0.5 -55.5t6.5 -41.5t18.5 -34t36.5 -18t61 -8q31 0 55 6.5t40 15.5t26.5 28t16 32.5t8 41t3 43t0.5 48.5v219h58v-480zM416 629
q0 -40 -40 -40t-40 40t40 40t40 -40zM201 629q0 -40 -40 -40t-40 40t40 40t40 -40z" />
    <glyph glyph-name="yacute" unicode="&#xfd;" horiz-adv-x="429" 
d="M417 480l-252 -670h-60l75 197l-176 473h61l146 -403l145 403h61zM315 667l-129 -126h-67l129 126h67z" />
    <glyph glyph-name="thorn" unicode="&#xfe;" horiz-adv-x="556" 
d="M492 239q0 -48 -2.5 -77.5t-13 -65.5t-31 -56t-58.5 -34t-92 -14q-108 0 -158 62v-245h-58v888h58v-272q49 63 158 63q53 0 90 -13t58 -32.5t32 -54t14 -67t3 -82.5zM434 240q0 104 -25.5 148.5t-108.5 44.5q-93 0 -128.5 -40.5t-35.5 -152.5t35.5 -152t128.5 -40
q83 0 108.5 44t25.5 148z" />
    <glyph glyph-name="ydieresis" unicode="&#xff;" horiz-adv-x="430" 
d="M418 480l-252 -670h-60l75 197l-176 473h61l146 -403l145 403h61zM362 629q0 -40 -40 -40t-40 40t40 40t40 -40zM147 629q0 -40 -40 -40t-40 40t40 40t40 -40z" />
    <glyph glyph-name="Amacron" unicode="&#x100;" horiz-adv-x="615" 
d="M593 0h-64l-75 197h-297l-74 -197h-62l258 667h56zM434 249l-128 344l-129 -344h257zM474 799h-333v50h333v-50z" />
    <glyph glyph-name="amacron" unicode="&#x101;" horiz-adv-x="534" 
d="M463 0h-55v54q-41 -62 -170 -62q-95 0 -140.5 34.5t-45.5 110.5q0 48 14 79t42.5 46t59 20.5t75.5 5.5h161v16v14.5v16t-0.5 15t-2 16t-4 13.5t-6.5 14.5t-10 11.5q-28 28 -117 28q-33 0 -52.5 -2t-44 -10t-36.5 -27t-12 -50h-54q0 80 53 112t154 32q168 0 187 -117
q4 -21 4 -95v-276zM404 236h-165q-68 0 -98 -19t-30 -79q0 -50 27.5 -72t96.5 -22q58 0 92.5 11t51 38.5t21 57.5t4.5 85zM433 607h-333v50h333v-50z" />
    <glyph glyph-name="Abreve" unicode="&#x102;" horiz-adv-x="615" 
d="M593 0h-64l-75 197h-297l-74 -197h-62l258 667h56zM434 249l-128 344l-129 -344h257zM446 867q0 -68 -32 -97q-32 -28 -107 -28q-79 0 -109.5 28.5t-30.5 96.5h55q0 -47 15.5 -60.5t68.5 -13.5q54 0 69 13.5t15 60.5h56z" />
    <glyph glyph-name="abreve" unicode="&#x103;" horiz-adv-x="534" 
d="M463 0h-55v54q-41 -62 -170 -62q-95 0 -140.5 34.5t-45.5 110.5q0 48 14 79t42.5 46t59 20.5t75.5 5.5h161v16v14.5v16t-0.5 15t-2 16t-4 13.5t-6.5 14.5t-10 11.5q-28 28 -117 28q-33 0 -52.5 -2t-44 -10t-36.5 -27t-12 -50h-54q0 80 53 112t154 32q168 0 187 -117
q4 -21 4 -95v-276zM404 236h-165q-68 0 -98 -19t-30 -79q0 -50 27.5 -72t96.5 -22q58 0 92.5 11t51 38.5t21 57.5t4.5 85zM406 667q0 -68 -32 -97q-32 -28 -107 -28q-79 0 -109.5 28.5t-30.5 96.5h55q0 -47 15.5 -60.5t68.5 -13.5q54 0 69 13.5t15 60.5h56z" />
    <glyph glyph-name="Aogonek" unicode="&#x104;" horiz-adv-x="615" 
d="M593 0q-85 -41 -85 -103q0 -58 68 -58q14 0 32 2v-45q-20 -3 -35 -3q-53 0 -85 24.5t-32 77.5q0 71 70 113l-72 189h-297l-74 -197h-62l258 667h56zM434 249l-128 344l-129 -344h257z" />
    <glyph glyph-name="aogonek" unicode="&#x105;" horiz-adv-x="534" 
d="M404 236h-165q-68 0 -98 -19t-30 -79q0 -50 27.5 -72t96.5 -22q58 0 92.5 11t51 38.5t21 57.5t4.5 85zM326 -105q0 39 24.5 71.5t57.5 47.5v40q-41 -62 -170 -62q-95 0 -140.5 34.5t-45.5 110.5q0 48 14 79t42.5 46t59 20.5t75.5 5.5h161v16v14.5v16t-0.5 15t-2 16
t-4 13.5t-6.5 14.5t-10 11.5q-28 28 -117 28q-33 0 -52.5 -2t-44 -10t-36.5 -27t-12 -50h-54q0 80 53 112t154 32q168 0 187 -117q4 -21 4 -95v-276q-45 -19 -66 -47.5t-21 -55.5q0 -59 70 -59q14 0 32 2v-44q-20 -3 -35 -3q-53 0 -85 24.5t-32 77.5z" />
    <glyph glyph-name="Cacute" unicode="&#x106;" horiz-adv-x="641" 
d="M428 862l-129 -126h-67l129 126h67zM571 172q0 -99 -54.5 -139.5t-176.5 -40.5q-169 1 -222 83q-36 54 -39 189v69q0 151 16 207q26 91 117 118q51 16 128 16q122 0 176.5 -40.5t54.5 -139.5h-56q0 71 -38.5 97.5t-145.5 26.5q-122 0 -160 -54q-18 -28 -25.5 -72
t-7.5 -159t7.5 -158.5t25.5 -71.5q38 -55 160 -55q107 0 145.5 26.5t38.5 97.5h56z" />
    <glyph glyph-name="cacute" unicode="&#x107;" horiz-adv-x="522" 
d="M466 136q0 -144 -194 -144q-56 0 -94.5 12t-61 31t-34.5 53t-15.5 67t-3.5 84t3.5 84.5t15.5 67.5t34.5 53.5t61 31.5t94.5 12q194 0 194 -144h-54q0 29 -11.5 47.5t-34 27t-43.5 11.5t-50 3q-42 0 -70.5 -8.5t-44.5 -22t-24.5 -40.5t-10.5 -52t-2 -69t2 -69.5
t10.5 -52.5t24.5 -40.5t44.5 -22t70.5 -8.5q29 0 50 2.5t43.5 11t34 27t11.5 47.5h54zM365 667l-129 -126h-67l129 126h67z" />
    <glyph glyph-name="Ccircumflex" unicode="&#x108;" horiz-adv-x="641" 
d="M571 172q0 -99 -54.5 -139.5t-176.5 -40.5q-169 1 -222 83q-36 54 -39 189v69q0 151 16 207q26 91 117 118q51 16 128 16q122 0 176.5 -40.5t54.5 -139.5h-56q0 71 -38.5 97.5t-145.5 26.5q-122 0 -160 -54q-18 -28 -25.5 -72t-7.5 -159t7.5 -158.5t25.5 -71.5
q38 -55 160 -55q107 0 145.5 26.5t38.5 97.5h56zM488 736h-67l-87 83l-87 -83h-68l133 126h42z" />
    <glyph glyph-name="ccircumflex" unicode="&#x109;" horiz-adv-x="522" 
d="M466 136q0 -144 -194 -144q-56 0 -94.5 12t-61 31t-34.5 53t-15.5 67t-3.5 84t3.5 84.5t15.5 67.5t34.5 53.5t61 31.5t94.5 12q194 0 194 -144h-54q0 29 -11.5 47.5t-34 27t-43.5 11.5t-50 3q-42 0 -70.5 -8.5t-44.5 -22t-24.5 -40.5t-10.5 -52t-2 -69t2 -69.5
t10.5 -52.5t24.5 -40.5t44.5 -22t70.5 -8.5q29 0 50 2.5t43.5 11t34 27t11.5 47.5h54zM430 541h-67l-87 83l-87 -83h-68l133 126h42z" />
    <glyph glyph-name="Cdotaccent" unicode="&#x10a;" horiz-adv-x="641" 
d="M571 172q0 -99 -54.5 -139.5t-176.5 -40.5q-169 1 -222 83q-36 54 -39 189v69q0 151 16 207q26 91 117 118q51 16 128 16q122 0 176.5 -40.5t54.5 -139.5h-56q0 71 -38.5 97.5t-145.5 26.5q-122 0 -160 -54q-18 -28 -25.5 -72t-7.5 -159t7.5 -158.5t25.5 -71.5
q38 -55 160 -55q107 0 145.5 26.5t38.5 97.5h56zM373 824q0 -40 -40 -40t-40 40t40 40t40 -40z" />
    <glyph glyph-name="cdotaccent" unicode="&#x10b;" horiz-adv-x="522" 
d="M466 136q0 -144 -194 -144q-56 0 -94.5 12t-61 31t-34.5 53t-15.5 67t-3.5 84t3.5 84.5t15.5 67.5t34.5 53.5t61 31.5t94.5 12q194 0 194 -144h-54q0 29 -11.5 47.5t-34 27t-43.5 11.5t-50 3q-42 0 -70.5 -8.5t-44.5 -22t-24.5 -40.5t-10.5 -52t-2 -69t2 -69.5
t10.5 -52.5t24.5 -40.5t44.5 -22t70.5 -8.5q29 0 50 2.5t43.5 11t34 27t11.5 47.5h54zM316 629q0 -40 -40 -40t-40 40t40 40t40 -40z" />
    <glyph glyph-name="Ccaron" unicode="&#x10c;" horiz-adv-x="641" 
d="M571 172q0 -99 -54.5 -139.5t-176.5 -40.5q-169 1 -222 83q-36 54 -39 189v69q0 151 16 207q26 91 117 118q51 16 128 16q122 0 176.5 -40.5t54.5 -139.5h-56q0 71 -38.5 97.5t-145.5 26.5q-122 0 -160 -54q-18 -28 -25.5 -72t-7.5 -159t7.5 -158.5t25.5 -71.5
q38 -55 160 -55q107 0 145.5 26.5t38.5 97.5h56zM489 852l-133 -126h-42l-134 126h67l87 -83l87 83h68z" />
    <glyph glyph-name="ccaron" unicode="&#x10d;" horiz-adv-x="522" 
d="M466 136q0 -144 -194 -144q-56 0 -94.5 12t-61 31t-34.5 53t-15.5 67t-3.5 84t3.5 84.5t15.5 67.5t34.5 53.5t61 31.5t94.5 12q194 0 194 -144h-54q0 29 -11.5 47.5t-34 27t-43.5 11.5t-50 3q-42 0 -70.5 -8.5t-44.5 -22t-24.5 -40.5t-10.5 -52t-2 -69t2 -69.5
t10.5 -52.5t24.5 -40.5t44.5 -22t70.5 -8.5q29 0 50 2.5t43.5 11t34 27t11.5 47.5h54zM431 667l-133 -126h-42l-134 126h67l87 -83l87 83h68z" />
    <glyph glyph-name="Dcaron" unicode="&#x10e;" horiz-adv-x="667" 
d="M587 333q0 -109 -8 -161t-31 -88q-30 -47 -79.5 -65.5t-143.5 -18.5h-233v667h233q93 0 143.5 -18.5t79.5 -65.5q23 -36 31 -88t8 -162zM528 333q0 103 -8 150.5t-27 75.5q-20 29 -57 41t-117 12h-168v-557h168q80 0 117.5 11.5t56.5 40.5q19 28 27 76t8 150zM494 852
l-133 -126h-42l-134 126h67l87 -83l87 83h68z" />
    <glyph glyph-name="dcaron" unicode="&#x10f;" horiz-adv-x="624" 
d="M476 0h-56v58q-48 -66 -160 -66q-53 0 -90 12.5t-57.5 32.5t-32 54.5t-14.5 67t-3 82.5q0 48 2.5 77.5t13 65.5t31 56t58.5 34t92 14q110 0 158 -62v271h58v-697zM419 239q0 113 -35.5 153.5t-128.5 40.5q-83 0 -108.5 -45t-25.5 -149t25.5 -147.5t108.5 -43.5
q94 0 129 39.5t35 151.5zM624 655q0 -43 -8.5 -67t-35.5 -47l-30 -26l-34 34q40 35 47.5 49t7.5 57v42h53v-42z" />
    <glyph glyph-name="Dcroat" unicode="&#x110;" horiz-adv-x="690" 
d="M610 333q0 -109 -8 -161t-31 -88q-30 -47 -79.5 -65.5t-143.5 -18.5h-233v309h-81v53h81v305h233q93 0 143.5 -18.5t79.5 -65.5q23 -36 31 -88t8 -162zM551 333q0 104 -8 151.5t-27 74.5q-20 29 -57 41t-117 12h-168v-250h181v-53h-181v-254h168q80 0 117.5 11.5
t56.5 40.5q19 28 27 76t8 150z" />
    <glyph glyph-name="dcroat" unicode="&#x111;" horiz-adv-x="556" 
d="M224 550v50h194v97h58v-97h81v-50h-81v-550h-56v58q-48 -66 -160 -66q-53 0 -90 12.5t-57.5 32.5t-32 54.5t-14.5 67t-3 82.5q0 48 2.5 77.5t13 65.5t31 56t58.5 34t92 14q110 0 158 -62v124h-194zM419 239q0 113 -35.5 153.5t-128.5 40.5q-83 0 -108.5 -45t-25.5 -149
t25.5 -147.5t108.5 -43.5q94 0 129 39.5t35 151.5z" />
    <glyph glyph-name="Emacron" unicode="&#x112;" horiz-adv-x="586" 
d="M509 0h-417v667h417v-54h-359v-244h349v-53h-349v-262h359v-54zM467 799h-333v50h333v-50z" />
    <glyph glyph-name="emacron" unicode="&#x113;" horiz-adv-x="536" 
d="M472 226h-351q0 -100 28 -140t123 -40q28 0 49.5 3t43.5 11.5t34 27.5t12 48h54q0 -144 -194 -144q-67 0 -109.5 15.5t-63.5 50.5t-28 75t-7 105t7 106.5t28.5 76.5t63 51t106.5 16q57 0 96 -13t60 -32t32 -57t13.5 -70.5t2.5 -89.5zM416 279q0 88 -31 122t-117 34
q-82 0 -114 -36.5t-32 -119.5h294zM434 607h-333v50h333v-50z" />
    <glyph glyph-name="Ebreve" unicode="&#x114;" horiz-adv-x="586" 
d="M509 0h-417v667h417v-54h-359v-244h349v-53h-349v-262h359v-54zM450 867q0 -68 -32 -97q-32 -28 -107 -28q-79 0 -109.5 28.5t-30.5 96.5h55q0 -47 15.5 -60.5t68.5 -13.5q54 0 69 13.5t15 60.5h56z" />
    <glyph glyph-name="ebreve" unicode="&#x115;" horiz-adv-x="536" 
d="M472 226h-351q0 -100 28 -140t123 -40q28 0 49.5 3t43.5 11.5t34 27.5t12 48h54q0 -144 -194 -144q-67 0 -109.5 15.5t-63.5 50.5t-28 75t-7 105t7 106.5t28.5 76.5t63 51t106.5 16q57 0 96 -13t60 -32t32 -57t13.5 -70.5t2.5 -89.5zM416 279q0 88 -31 122t-117 34
q-82 0 -114 -36.5t-32 -119.5h294zM407 667q0 -68 -32 -97q-32 -28 -107 -28q-79 0 -109.5 28.5t-30.5 96.5h55q0 -47 15.5 -60.5t68.5 -13.5q54 0 69 13.5t15 60.5h56z" />
    <glyph glyph-name="Edotaccent" unicode="&#x116;" horiz-adv-x="586" 
d="M509 0h-417v667h417v-54h-359v-244h349v-53h-349v-262h359v-54zM349 824q0 -40 -40 -40t-40 40t40 40t40 -40z" />
    <glyph glyph-name="edotaccent" unicode="&#x117;" horiz-adv-x="536" 
d="M472 226h-351q0 -100 28 -140t123 -40q28 0 49.5 3t43.5 11.5t34 27.5t12 48h54q0 -144 -194 -144q-67 0 -109.5 15.5t-63.5 50.5t-28 75t-7 105t7 106.5t28.5 76.5t63 51t106.5 16q57 0 96 -13t60 -32t32 -57t13.5 -70.5t2.5 -89.5zM416 279q0 88 -31 122t-117 34
q-82 0 -114 -36.5t-32 -119.5h294zM307 629q0 -40 -40 -40t-40 40t40 40t40 -40z" />
    <glyph glyph-name="Eogonek" unicode="&#x118;" horiz-adv-x="586" 
d="M372 -105q0 35 18.5 63.5t45.5 41.5h-344v667h417v-54h-359v-244h349v-53h-349v-262h359v-54q-85 -41 -85 -103q0 -58 68 -58q14 0 32 2v-45q-20 -3 -35 -3q-53 0 -85 24.5t-32 77.5z" />
    <glyph glyph-name="eogonek" unicode="&#x119;" horiz-adv-x="536" 
d="M416 279q0 88 -31 122t-117 34q-82 0 -114 -36.5t-32 -119.5h294zM234 -105q0 30 15 58t38 39h-16q-67 0 -109.5 15.5t-63.5 50.5t-28 75t-7 105t7 106.5t28.5 76.5t63 51t106.5 16q57 0 96 -13t60 -32t32 -57t13.5 -70.5t2.5 -89.5h-351q0 -100 28 -140t123 -40
q28 0 49.5 3t43.5 11.5t34 27.5t12 48h54q0 -38 -13.5 -66t-33.5 -42.5t-43.5 -29t-43.5 -25.5t-33.5 -30.5t-13.5 -45.5q0 -59 70 -59q14 0 32 2v-44q-20 -3 -35 -3q-53 0 -85 24.5t-32 77.5z" />
    <glyph glyph-name="Ecaron" unicode="&#x11a;" horiz-adv-x="586" 
d="M509 0h-417v667h417v-54h-359v-244h349v-53h-349v-262h359v-54zM456 852l-133 -126h-42l-134 126h67l87 -83l87 83h68z" />
    <glyph glyph-name="ecaron" unicode="&#x11b;" horiz-adv-x="536" 
d="M472 226h-351q0 -100 28 -140t123 -40q28 0 49.5 3t43.5 11.5t34 27.5t12 48h54q0 -144 -194 -144q-67 0 -109.5 15.5t-63.5 50.5t-28 75t-7 105t7 106.5t28.5 76.5t63 51t106.5 16q57 0 96 -13t60 -32t32 -57t13.5 -70.5t2.5 -89.5zM416 279q0 88 -31 122t-117 34
q-82 0 -114 -36.5t-32 -119.5h294zM422 667l-133 -126h-42l-134 126h67l87 -83l87 83h68z" />
    <glyph glyph-name="Gcircumflex" unicode="&#x11c;" horiz-adv-x="666" 
d="M582 0h-53v69q-61 -77 -211 -77q-158 0 -206 89q-31 57 -33 199v53q0 41 0.5 61.5t2 54.5t5 51.5t9.5 43.5t16 39.5l24 31t33.5 26t44.5 17.5t57 12.5t71 3.5q122 0 181 -41t59 -139h-58q0 71 -42 97.5t-149 26.5q-123 0 -163 -55q-19 -27 -25.5 -70t-6.5 -160
q0 -115 7.5 -158.5t25.5 -71.5q38 -55 160 -55q123 0 166 63q18 25 24 66.5t6 133.5v5h-200v53h255v-187v-182zM487 736h-67l-87 83l-87 -83h-68l133 126h42z" />
    <glyph glyph-name="gcircumflex" unicode="&#x11d;" horiz-adv-x="556" 
d="M476 45q0 -89 -4 -111q-19 -128 -207 -128q-86 0 -138 32t-52 102h56q0 -81 131 -81q141 0 153 90q2 16 2.5 37.5t0 38t0.5 37.5q-49 -63 -157 -63q-53 0 -90 12.5t-58 31.5t-32.5 53.5t-14.5 66.5t-3 82q0 60 6 97.5t25 74t60 54t105 17.5q113 0 161 -62v54h56v-435z
M419 243q0 109 -35.5 149.5t-128.5 40.5q-84 0 -109 -43t-25 -147q0 -102 25.5 -145t108.5 -43q93 0 128.5 39t35.5 149zM426 541h-67l-87 83l-87 -83h-68l133 126h42z" />
    <glyph glyph-name="Gbreve" unicode="&#x11e;" horiz-adv-x="666" 
d="M582 0h-53v69q-61 -77 -211 -77q-158 0 -206 89q-31 57 -33 199v53q0 41 0.5 61.5t2 54.5t5 51.5t9.5 43.5t16 39.5l24 31t33.5 26t44.5 17.5t57 12.5t71 3.5q122 0 181 -41t59 -139h-58q0 71 -42 97.5t-149 26.5q-123 0 -163 -55q-19 -27 -25.5 -70t-6.5 -160
q0 -115 7.5 -158.5t25.5 -71.5q38 -55 160 -55q123 0 166 63q18 25 24 66.5t6 133.5v5h-200v53h255v-187v-182zM472 867q0 -68 -32 -97q-32 -28 -107 -28q-79 0 -109.5 28.5t-30.5 96.5h55q0 -47 15.5 -60.5t68.5 -13.5q54 0 69 13.5t15 60.5h56z" />
    <glyph glyph-name="gbreve" unicode="&#x11f;" horiz-adv-x="556" 
d="M476 45q0 -89 -4 -111q-19 -128 -207 -128q-86 0 -138 32t-52 102h56q0 -81 131 -81q141 0 153 90q2 16 2.5 37.5t0 38t0.5 37.5q-49 -63 -157 -63q-53 0 -90 12.5t-58 31.5t-32.5 53.5t-14.5 66.5t-3 82q0 60 6 97.5t25 74t60 54t105 17.5q113 0 161 -62v54h56v-435z
M419 243q0 109 -35.5 149.5t-128.5 40.5q-84 0 -109 -43t-25 -147q0 -102 25.5 -145t108.5 -43q93 0 128.5 39t35.5 149zM410 667q0 -68 -32 -97q-32 -28 -107 -28q-79 0 -109.5 28.5t-30.5 96.5h55q0 -47 15.5 -60.5t68.5 -13.5q54 0 69 13.5t15 60.5h56z" />
    <glyph glyph-name="Gdotaccent" unicode="&#x120;" horiz-adv-x="666" 
d="M582 0h-53v69q-61 -77 -211 -77q-158 0 -206 89q-31 57 -33 199v53q0 41 0.5 61.5t2 54.5t5 51.5t9.5 43.5t16 39.5l24 31t33.5 26t44.5 17.5t57 12.5t71 3.5q122 0 181 -41t59 -139h-58q0 71 -42 97.5t-149 26.5q-123 0 -163 -55q-19 -27 -25.5 -70t-6.5 -160
q0 -115 7.5 -158.5t25.5 -71.5q38 -55 160 -55q123 0 166 63q18 25 24 66.5t6 133.5v5h-200v53h255v-187v-182zM373 824q0 -40 -40 -40t-40 40t40 40t40 -40z" />
    <glyph glyph-name="gdotaccent" unicode="&#x121;" horiz-adv-x="556" 
d="M476 45q0 -89 -4 -111q-19 -128 -207 -128q-86 0 -138 32t-52 102h56q0 -81 131 -81q141 0 153 90q2 16 2.5 37.5t0 38t0.5 37.5q-49 -63 -157 -63q-53 0 -90 12.5t-58 31.5t-32.5 53.5t-14.5 66.5t-3 82q0 60 6 97.5t25 74t60 54t105 17.5q113 0 161 -62v54h56v-435z
M419 243q0 109 -35.5 149.5t-128.5 40.5q-84 0 -109 -43t-25 -147q0 -102 25.5 -145t108.5 -43q93 0 128.5 39t35.5 149zM310 629q0 -40 -40 -40t-40 40t40 40t40 -40z" />
    <glyph glyph-name="Gcommaaccent" unicode="&#x122;" horiz-adv-x="666" 
d="M582 0h-53v69q-61 -77 -211 -77q-158 0 -206 89q-31 57 -33 199v53q0 41 0.5 61.5t2 54.5t5 51.5t9.5 43.5t16 39.5l24 31t33.5 26t44.5 17.5t57 12.5t71 3.5q122 0 181 -41t59 -139h-58q0 71 -42 97.5t-149 26.5q-123 0 -163 -55q-19 -27 -25.5 -70t-6.5 -160
q0 -115 7.5 -158.5t25.5 -71.5q38 -55 160 -55q123 0 166 63q18 25 24 66.5t6 133.5v5h-200v53h255v-187v-182zM357 -86q0 -43 -8.5 -67t-35.5 -47l-30 -26l-34 34q40 35 47.5 49t7.5 57v42h53v-42z" />
    <glyph glyph-name="gcommaaccent" unicode="&#x123;" horiz-adv-x="556" 
d="M230 582q0 43 8.5 67t35.5 47l30 26l34 -34q-40 -35 -47.5 -49t-7.5 -57v-42h-53v42zM476 45q0 -89 -4 -111q-19 -128 -207 -128q-86 0 -138 32t-52 102h56q0 -81 131 -81q141 0 153 90q2 16 2.5 37.5t0 38t0.5 37.5q-49 -63 -157 -63q-53 0 -90 12.5t-58 31.5
t-32.5 53.5t-14.5 66.5t-3 82q0 60 6 97.5t25 74t60 54t105 17.5q113 0 161 -62v54h56v-435zM419 243q0 109 -35.5 149.5t-128.5 40.5q-84 0 -109 -43t-25 -147q0 -102 25.5 -145t108.5 -43q93 0 128.5 39t35.5 149z" />
    <glyph glyph-name="Hcircumflex" unicode="&#x124;" horiz-adv-x="653" 
d="M560 0h-59v316h-350v-316h-59v667h59v-298h350v298h59v-667zM481 736h-67l-87 83l-87 -83h-68l133 126h42z" />
    <glyph glyph-name="hcircumflex" unicode="&#x125;" horiz-adv-x="538" 
d="M467 0h-58v253v24v41t-2 33.5t-7 29.5t-13.5 21.5t-21.5 17.5t-33 9t-46 4q-31 0 -55 -6.5t-40 -15.5t-26.5 -27.5t-16 -32t-8 -41.5t-3 -43t-0.5 -48v-219h-58v697h58v-271q49 62 153 62q33 0 59 -4.5t44 -13t31.5 -20.5t21 -26.5t13 -31.5t6.5 -36l2 -39t0 -41v-23
v-253zM262 758h-67l-87 83l-87 -83h-67l133 126h42z" />
    <glyph glyph-name="Hbar" unicode="&#x126;" horiz-adv-x="653" 
d="M560 0h-59v316h-350v-316h-59v492h-82v53h82v122h59v-122h350v122h59v-122h82v-53h-82v-492zM151 369h350v123h-350v-123z" />
    <glyph glyph-name="hbar" unicode="&#x127;" horiz-adv-x="538" 
d="M137 550v-124q49 62 153 62q33 0 59 -4.5t44 -13t31.5 -20.5t21 -26.5t13 -31.5t6.5 -36l2 -39t0 -41v-23v-253h-58v253v24v41t-2 33.5t-7 29.5t-13.5 21.5t-21.5 17.5t-33 9t-46 4q-31 0 -55 -6.5t-40 -15.5t-26.5 -27.5t-16 -32t-8 -41.5t-3 -43t-0.5 -48v-219h-58v550
h-81v50h81v97h58v-97h194v-50h-194z" />
    <glyph glyph-name="Itilde" unicode="&#x128;" horiz-adv-x="244" 
d="M151 0h-59v667h59v-667zM305 817l-62 -33q-61 -33 -116 -1l-18 11t-19.5 11t-17 6.5t-21 1.5t-22.5 -8l-66 -35l-24 45q5 3 23 13t25 13.5t23 10.5t26.5 8.5t25 2.5t28 -3t27.5 -12q2 -1 14.5 -8.5t16.5 -9.5t15 -6.5t17.5 -4.5t16.5 1.5t19 6.5l65 35z" />
    <glyph glyph-name="itilde" unicode="&#x129;" horiz-adv-x="217" 
d="M137 0h-58v480h58v-480zM292 622l-62 -33q-61 -33 -116 -1l-18 11t-19.5 11t-17 6.5t-21 1.5t-22.5 -8l-66 -35l-24 45q5 3 23 13t25 13.5t23 10.5t26.5 8.5t25 2.5t28 -3t27.5 -12q2 -1 14.5 -8.5t16.5 -9.5t15 -6.5t17.5 -4.5t16.5 1.5t19 6.5l65 35z" />
    <glyph glyph-name="Imacron" unicode="&#x12a;" horiz-adv-x="244" 
d="M151 0h-59v667h59v-667zM289 799h-333v50h333v-50z" />
    <glyph glyph-name="imacron" unicode="&#x12b;" horiz-adv-x="217" 
d="M137 0h-58v480h58v-480zM275 607h-333v50h333v-50z" />
    <glyph glyph-name="Ibreve" unicode="&#x12c;" horiz-adv-x="244" 
d="M151 0h-59v667h59v-667zM262 867q0 -68 -32 -97q-32 -28 -107 -28q-79 0 -109.5 28.5t-30.5 96.5h55q0 -47 15.5 -60.5t68.5 -13.5q54 0 69 13.5t15 60.5h56z" />
    <glyph glyph-name="ibreve" unicode="&#x12d;" horiz-adv-x="217" 
d="M137 0h-58v480h58v-480zM248 667q0 -68 -32 -97q-32 -28 -107 -28q-79 0 -109.5 28.5t-30.5 96.5h55q0 -47 15.5 -60.5t68.5 -13.5q54 0 69 13.5t15 60.5h56z" />
    <glyph glyph-name="Iogonek" unicode="&#x12e;" horiz-adv-x="244" 
d="M14 -105q0 75 78 118v654h59v-667q-85 -41 -85 -103q0 -58 68 -58q14 0 32 2v-45q-19 -3 -35 -3q-53 0 -85 24.5t-32 77.5z" />
    <glyph glyph-name="iogonek" unicode="&#x12f;" horiz-adv-x="217" 
d="M147 636q0 -39 -39 -39q-38 0 -38 39q0 38 38 38q39 0 39 -38zM0 -105q0 39 23 72.5t56 47.5v465h58v-480q-45 -19 -66 -47.5t-21 -55.5q0 -59 70 -59q14 0 32 2v-44q-20 -3 -35 -3q-53 0 -85 24.5t-32 77.5z" />
    <glyph glyph-name="Idotaccent" unicode="&#x130;" horiz-adv-x="244" 
d="M151 0h-59v667h59v-667zM162 824q0 -40 -40 -40t-40 40t40 40t40 -40z" />
    <glyph glyph-name="dotlessi" unicode="&#x131;" horiz-adv-x="215" 
d="M138 0h-59v480h59v-480z" />
    <glyph glyph-name="Jcircumflex" unicode="&#x134;" horiz-adv-x="532" 
d="M443 208q0 -62 -4 -87q-11 -72 -62 -100.5t-135 -28.5q-104 0 -153.5 40t-49.5 139h56q0 -73 33.5 -98.5t113.5 -25.5q62 0 97.5 18t42.5 69q2 14 2 72v461h59v-459zM567 736h-67l-87 83l-87 -83h-68l133 126h42z" />
    <glyph glyph-name="jcircumflex" unicode="&#x135;" horiz-adv-x="217" 
d="M138 -46q0 -68 -36 -104q-46 -44 -132 -44q-73 0 -116 30.5t-44 93.5h56q0 -5 0.5 -10t6 -17.5t15.5 -21.5t31.5 -16t50.5 -7q59 0 91 32q5 5 8 10t5 12l3.5 12t2 14t0.5 13v14v12v503h58v-526zM263 541h-67l-87 83l-87 -83h-68l133 126h42z" />
    <glyph glyph-name="Kcommaaccent" unicode="&#x136;" horiz-adv-x="575" 
d="M566 0h-85l-330 316v-316h-59v667h58v-298l336 298h79l-366 -320zM332 -86q0 -43 -8.5 -67t-35.5 -47l-30 -26l-34 34q40 35 47.5 49t7.5 57v42h53v-42z" />
    <glyph glyph-name="kcommaaccent" unicode="&#x137;" horiz-adv-x="470" 
d="M464 0h-81l-246 232v-232h-58v697h58v-411l244 199h80l-278 -225zM298 -86q0 -43 -8.5 -67t-35.5 -47l-30 -26l-34 34q40 35 47.5 49t7.5 57v42h53v-42z" />
    <glyph glyph-name="Lacute" unicode="&#x139;" horiz-adv-x="512" 
d="M499 0h-407v667h59v-613h348v-54zM287 862l-129 -126h-67l129 126h67z" />
    <glyph glyph-name="lacute" unicode="&#x13a;" horiz-adv-x="217" 
d="M137 0h-58v697h58v-697zM274 862l-129 -126h-67l129 126h67z" />
    <glyph glyph-name="Lcommaaccent" unicode="&#x13b;" horiz-adv-x="512" 
d="M499 0h-407v667h59v-613h348v-54zM322 -86q0 -43 -8.5 -67t-35.5 -47l-30 -26l-34 34q40 35 47.5 49t7.5 57v42h53v-42z" />
    <glyph glyph-name="lcommaaccent" unicode="&#x13c;" horiz-adv-x="217" 
d="M137 0h-58v697h58v-697zM135 -86q0 -43 -8.5 -67t-35.5 -47l-30 -26l-34 34q40 35 47.5 49t7.5 57v42h53v-42z" />
    <glyph glyph-name="Lcaron" unicode="&#x13d;" horiz-adv-x="512" 
d="M499 0h-407v667h59v-613h348v-54zM327 625q0 -43 -8.5 -67t-35.5 -47l-30 -26l-34 34q40 35 47.5 49t7.5 57v42h53v-42z" />
    <glyph glyph-name="lcaron" unicode="&#x13e;" horiz-adv-x="284" 
d="M137 0h-58v697h58v-697zM284 655q0 -43 -8.5 -67t-35.5 -47l-30 -26l-34 34q40 35 47.5 49t7.5 57v42h53v-42z" />
    <glyph glyph-name="Ldot" unicode="&#x13f;" horiz-adv-x="512" 
d="M499 0h-407v667h59v-613h348v-54zM417 343q0 -40 -40 -40t-40 40t40 40t40 -40z" />
    <glyph glyph-name="ldot" unicode="&#x140;" horiz-adv-x="297" 
d="M137 0h-58v697h58v-697zM297 343q0 -40 -40 -40t-40 40t40 40t40 -40z" />
    <glyph glyph-name="Lslash" unicode="&#x141;" horiz-adv-x="531" 
d="M518 0h-407v283l-54 -56l-37 36l91 94v310h59v-259l77 78l36 -36l-113 -116v-280h348v-54z" />
    <glyph glyph-name="lslash" unicode="&#x142;" horiz-adv-x="217" 
d="M228 437l-90 -100v-337h-58v287l-54 -59l-37 34l90 99v336h58v-286l55 61z" />
    <glyph glyph-name="Nacute" unicode="&#x143;" horiz-adv-x="651" 
d="M558 0h-67l-343 578v-578h-56v667h66l344 -577v577h56v-667zM463 862l-129 -126h-67l129 126h67z" />
    <glyph glyph-name="nacute" unicode="&#x144;" horiz-adv-x="538" 
d="M467 0h-58v253v24v41t-2 33.5t-7 29.5t-13.5 21.5t-21.5 17.5t-33 9t-46 4q-31 0 -55 -6.5t-40 -15.5t-26.5 -27.5t-16 -32t-8 -41.5t-3 -43t-0.5 -48v-219h-58v480h56v-56q48 64 155 64q33 0 59 -4.5t44 -13t31.5 -20.5t21 -26.5t13 -31.5t6.5 -36l2 -39t0 -41v-23v-253
zM410 667l-129 -126h-67l129 126h67z" />
    <glyph glyph-name="Ncommaaccent" unicode="&#x145;" horiz-adv-x="651" 
d="M558 0h-67l-343 578v-578h-56v667h66l344 -577v577h56v-667zM351 -86q0 -43 -8.5 -67t-35.5 -47l-30 -26l-34 34q40 35 47.5 49t7.5 57v42h53v-42z" />
    <glyph glyph-name="ncommaaccent" unicode="&#x146;" horiz-adv-x="538" 
d="M467 0h-58v253v24v41t-2 33.5t-7 29.5t-13.5 21.5t-21.5 17.5t-33 9t-46 4q-31 0 -55 -6.5t-40 -15.5t-26.5 -27.5t-16 -32t-8 -41.5t-3 -43t-0.5 -48v-219h-58v480h56v-56q48 64 155 64q33 0 59 -4.5t44 -13t31.5 -20.5t21 -26.5t13 -31.5t6.5 -36l2 -39t0 -41v-23v-253
zM299 -86q0 -43 -8.5 -67t-35.5 -47l-30 -26l-34 34q40 35 47.5 49t7.5 57v42h53v-42z" />
    <glyph glyph-name="Ncaron" unicode="&#x147;" horiz-adv-x="651" 
d="M558 0h-67l-343 578v-578h-56v667h66l344 -577v577h56v-667zM480 852l-133 -126h-42l-134 126h67l87 -83l87 83h68z" />
    <glyph glyph-name="ncaron" unicode="&#x148;" horiz-adv-x="538" 
d="M467 0h-58v253v24v41t-2 33.5t-7 29.5t-13.5 21.5t-21.5 17.5t-33 9t-46 4q-31 0 -55 -6.5t-40 -15.5t-26.5 -27.5t-16 -32t-8 -41.5t-3 -43t-0.5 -48v-219h-58v480h56v-56q48 64 155 64q33 0 59 -4.5t44 -13t31.5 -20.5t21 -26.5t13 -31.5t6.5 -36l2 -39t0 -41v-23v-253
zM426 667l-133 -126h-42l-134 126h67l87 -83l87 83h68z" />
    <glyph glyph-name="Eng" unicode="&#x14a;" horiz-adv-x="651" 
d="M502 -24v24l-354 578v-578h-56v667h66l344 -562v562h56v-667v-47q0 -68 -36 -104q-46 -44 -136 -44q-43 0 -69 4v51q29 -3 71 -3q63 0 95 32q5 5 8 10t5 12l3.5 12t2 14t0.5 13v14v12z" />
    <glyph glyph-name="eng" unicode="&#x14b;" horiz-adv-x="538" 
d="M299 -142q59 0 91 32q5 5 8 10t5 12l3.5 12t2 14t0.5 13v14v12v23v253v24v41t-2 33.5t-7 29.5t-13.5 21.5t-21.5 17.5t-33 9t-46 4q-31 0 -55 -6.5t-40 -15.5t-26.5 -27.5t-16 -32t-8 -41.5t-3 -43t-0.5 -48v-219h-58v480h56v-56q48 64 155 64q33 0 59 -4.5t44 -13
t31.5 -20.5t21 -26.5t13 -31.5t6.5 -36l2 -39t0 -41v-23v-253v-46q0 -68 -36 -104q-46 -44 -132 -44q-23 0 -43 3v51q19 -2 43 -2z" />
    <glyph glyph-name="Omacron" unicode="&#x14c;" horiz-adv-x="670" 
d="M590 335q0 -149 -13 -202q-24 -95 -114 -124q-51 -17 -128 -17q-167 0 -220 86q-34 56 -36 192v64q0 149 14 202q25 93 115 122q50 16 126 16q168 0 220 -84q34 -55 36 -188v-67zM531 334q0 117 -6.5 159t-25.5 69q-38 56 -165 56q-124 0 -164 -57q-19 -27 -25.5 -69.5
t-6.5 -158.5t6.5 -159t25.5 -70q39 -56 165 -56q125 0 164 57q19 27 25.5 69.5t6.5 159.5zM500 799h-333v50h333v-50z" />
    <glyph glyph-name="omacron" unicode="&#x14d;" horiz-adv-x="552" 
d="M488 240q0 -80 -10 -124t-36 -71q-52 -53 -166 -53t-167 53q-26 27 -36 71.5t-10 123.5t10 123.5t36 71.5q53 53 167 53t166 -53q26 -27 36 -71t10 -124zM430 242q0 56 -4 85.5t-18.5 57t-46.5 38t-85 10.5q-44 0 -73.5 -9t-45.5 -22t-24 -40.5t-10 -51.5t-2 -68
q0 -56 3.5 -84.5t18 -57.5t47 -40.5t86.5 -11.5q32 0 55.5 4.5t40 12t27.5 22t17 27.5t9.5 36.5t4 41.5t0.5 50zM442 607h-333v50h333v-50z" />
    <glyph glyph-name="Obreve" unicode="&#x14e;" horiz-adv-x="670" 
d="M590 335q0 -149 -13 -202q-24 -95 -114 -124q-51 -17 -128 -17q-167 0 -220 86q-34 56 -36 192v64q0 149 14 202q25 93 115 122q50 16 126 16q168 0 220 -84q34 -55 36 -188v-67zM531 334q0 117 -6.5 159t-25.5 69q-38 56 -165 56q-124 0 -164 -57q-19 -27 -25.5 -69.5
t-6.5 -158.5t6.5 -159t25.5 -70q39 -56 165 -56q125 0 164 57q19 27 25.5 69.5t6.5 159.5zM474 867q0 -68 -32 -97q-32 -28 -107 -28q-79 0 -109.5 28.5t-30.5 96.5h55q0 -47 15.5 -60.5t68.5 -13.5q54 0 69 13.5t15 60.5h56z" />
    <glyph glyph-name="obreve" unicode="&#x14f;" horiz-adv-x="552" 
d="M488 240q0 -80 -10 -124t-36 -71q-52 -53 -166 -53t-167 53q-26 27 -36 71.5t-10 123.5t10 123.5t36 71.5q53 53 167 53t166 -53q26 -27 36 -71t10 -124zM430 242q0 56 -4 85.5t-18.5 57t-46.5 38t-85 10.5q-44 0 -73.5 -9t-45.5 -22t-24 -40.5t-10 -51.5t-2 -68
q0 -56 3.5 -84.5t18 -57.5t47 -40.5t86.5 -11.5q32 0 55.5 4.5t40 12t27.5 22t17 27.5t9.5 36.5t4 41.5t0.5 50zM415 667q0 -68 -32 -97q-32 -28 -107 -28q-79 0 -109.5 28.5t-30.5 96.5h55q0 -47 15.5 -60.5t68.5 -13.5q54 0 69 13.5t15 60.5h56z" />
    <glyph glyph-name="Ohungarumlaut" unicode="&#x150;" horiz-adv-x="670" 
d="M590 335q0 -149 -13 -202q-24 -95 -114 -124q-51 -17 -128 -17q-167 0 -220 86q-34 56 -36 192v64q0 149 14 202q25 93 115 122q50 16 126 16q168 0 220 -84q34 -55 36 -188v-67zM531 334q0 117 -6.5 159t-25.5 69q-38 56 -165 56q-124 0 -164 -57q-19 -27 -25.5 -69.5
t-6.5 -158.5t6.5 -159t25.5 -70q39 -56 165 -56q125 0 164 57q19 27 25.5 69.5t6.5 159.5zM552 862l-126 -126h-68l126 126h68zM391 862l-125 -126h-68l126 126h67z" />
    <glyph glyph-name="ohungarumlaut" unicode="&#x151;" horiz-adv-x="552" 
d="M488 240q0 -80 -10 -124t-36 -71q-52 -53 -166 -53t-167 53q-26 27 -36 71.5t-10 123.5t10 123.5t36 71.5q53 53 167 53t166 -53q26 -27 36 -71t10 -124zM430 242q0 56 -4 85.5t-18.5 57t-46.5 38t-85 10.5q-44 0 -73.5 -9t-45.5 -22t-24 -40.5t-10 -51.5t-2 -68
q0 -56 3.5 -84.5t18 -57.5t47 -40.5t86.5 -11.5q32 0 55.5 4.5t40 12t27.5 22t17 27.5t9.5 36.5t4 41.5t0.5 50zM493 667l-126 -126h-68l126 126h68zM332 667l-125 -126h-68l126 126h67z" />
    <glyph glyph-name="OE" unicode="&#x152;" horiz-adv-x="921" 
d="M844 0h-503q-93 0 -143 18t-80 66q-23 36 -31 88.5t-8 161.5q0 108 8 160.5t31 88.5q30 47 80 65.5t143 18.5h503v-54h-326v-244h316v-53h-316v-262h326v-54zM460 54v559h-114q-79 0 -117 -12.5t-58 -41.5q-18 -27 -25.5 -74.5t-7.5 -150.5q0 -104 7 -151t26 -75
q20 -29 58 -41.5t117 -12.5h114z" />
    <glyph glyph-name="oe" unicode="&#x153;" horiz-adv-x="903" 
d="M839 226h-351q0 -100 28 -140t123 -40q28 0 49.5 3t43.5 11.5t34 27.5t12 48h54q0 -61 -31 -92q-14 -15 -28 -24t-50.5 -18.5t-87.5 -9.5q-143 0 -177 90q-33 -90 -182 -90q-114 0 -167 53q-26 27 -36 71.5t-10 123.5t10 123.5t36 71.5q53 53 169 53q147 0 180 -91
q35 91 177 91q57 0 95.5 -13t60 -32t32.5 -56.5t13.5 -70.5t2.5 -90zM783 279q0 88 -31 121t-117 33q-82 0 -114 -35.5t-32 -118.5h294zM430 242q0 56 -4 85.5t-18.5 57t-46.5 38t-85 10.5q-44 0 -73.5 -9t-45.5 -22t-24 -40.5t-10 -51.5t-2 -68q0 -56 3.5 -84.5t18 -57.5
t47 -40.5t86.5 -11.5q32 0 55.5 4.5t40 12t27.5 22t17 27.5t9.5 36.5t4 41.5t0.5 50z" />
    <glyph glyph-name="Racute" unicode="&#x154;" horiz-adv-x="648" 
d="M561 0h-58v164q0 39 -0.5 53.5t-6 33.5t-17.5 31t-35 17t-45 6t-73 1h-18h-157v-306h-59v667h219q43 0 65 -0.5t53.5 -4t47.5 -11t35 -21t28 -33.5t15 -49.5t6 -69.5q0 -113 -75 -144q15 -5 27.5 -13t20 -15.5t13.5 -21.5t8.5 -22.5t4 -25.5t1.5 -23.5v-25v-21.5v-166z
M503 481q0 32 -5 55.5t-19 38t-25.5 22.5t-37.5 11.5t-41 4t-49 0.5h-17h-158v-253h164h25q40 0 58 0.5t43 6.5t35.5 18.5t18.5 36t8 59.5zM465 862l-129 -126h-67l129 126h67z" />
    <glyph glyph-name="racute" unicode="&#x155;" horiz-adv-x="442" 
d="M428 348h-54q0 49 -23 67t-81 18q-28 0 -49.5 -7.5t-35.5 -17t-23.5 -29t-14.5 -33.5t-7.5 -41t-2.5 -40v-42v-15v-208h-58v480h56v-56q47 64 146 64q147 0 147 -140zM391 667l-129 -126h-67l129 126h67z" />
    <glyph glyph-name="Rcommaaccent" unicode="&#x156;" horiz-adv-x="648" 
d="M561 0h-58v164q0 39 -0.5 53.5t-6 33.5t-17.5 31t-35 17t-45 6t-73 1h-18h-157v-306h-59v667h219q43 0 65 -0.5t53.5 -4t47.5 -11t35 -21t28 -33.5t15 -49.5t6 -69.5q0 -113 -75 -144q15 -5 27.5 -13t20 -15.5t13.5 -21.5t8.5 -22.5t4 -25.5t1.5 -23.5v-25v-21.5v-166z
M503 481q0 32 -5 55.5t-19 38t-25.5 22.5t-37.5 11.5t-41 4t-49 0.5h-17h-158v-253h164h25q40 0 58 0.5t43 6.5t35.5 18.5t18.5 36t8 59.5zM353 -86q0 -43 -8.5 -67t-35.5 -47l-30 -26l-34 34q40 35 47.5 49t7.5 57v42h53v-42z" />
    <glyph glyph-name="rcommaaccent" unicode="&#x157;" horiz-adv-x="442" 
d="M428 348h-54q0 49 -23 67t-81 18q-28 0 -49.5 -7.5t-35.5 -17t-23.5 -29t-14.5 -33.5t-7.5 -41t-2.5 -40v-42v-15v-208h-58v480h56v-56q47 64 146 64q147 0 147 -140zM135 -86q0 -43 -8.5 -67t-35.5 -47l-30 -26l-34 34q40 35 47.5 49t7.5 57v42h53v-42z" />
    <glyph glyph-name="Rcaron" unicode="&#x158;" horiz-adv-x="648" 
d="M561 0h-58v164q0 39 -0.5 53.5t-6 33.5t-17.5 31t-35 17t-45 6t-73 1h-18h-157v-306h-59v667h219q43 0 65 -0.5t53.5 -4t47.5 -11t35 -21t28 -33.5t15 -49.5t6 -69.5q0 -113 -75 -144q15 -5 27.5 -13t20 -15.5t13.5 -21.5t8.5 -22.5t4 -25.5t1.5 -23.5v-25v-21.5v-166z
M503 481q0 32 -5 55.5t-19 38t-25.5 22.5t-37.5 11.5t-41 4t-49 0.5h-17h-158v-253h164h25q40 0 58 0.5t43 6.5t35.5 18.5t18.5 36t8 59.5zM481 852l-133 -126h-42l-134 126h67l87 -83l87 83h68z" />
    <glyph glyph-name="rcaron" unicode="&#x159;" horiz-adv-x="442" 
d="M428 348h-54q0 49 -23 67t-81 18q-28 0 -49.5 -7.5t-35.5 -17t-23.5 -29t-14.5 -33.5t-7.5 -41t-2.5 -40v-42v-15v-208h-58v480h56v-56q47 64 146 64q147 0 147 -140zM408 667l-133 -126h-42l-134 126h67l87 -83l87 83h68z" />
    <glyph glyph-name="Sacute" unicode="&#x15a;" horiz-adv-x="641" 
d="M570 197q0 -107 -59 -156t-192 -49q-132 0 -190.5 41t-58.5 141h58q0 -72 41.5 -99t151.5 -27q109 0 149 32.5t40 111.5q0 83 -41 104q-5 3 -11 5t-14 4t-14.5 3t-16.5 2t-16.5 1.5t-19 0.5t-18.5 0.5t-20 0.5h-20q-115 2 -155 15q-88 28 -94 140v16q0 106 56.5 148
t190.5 42q131 0 188.5 -40.5t57.5 -139.5h-56q0 34 -10 57.5t-24.5 36.5t-41.5 20t-51.5 8.5t-64.5 1.5q-110 0 -148 -28t-38 -105q0 -76 42 -99q30 -16 150 -18q112 -2 150 -12q88 -25 98 -127q1 -15 1 -32zM458 862l-129 -126h-67l129 126h67z" />
    <glyph glyph-name="sacute" unicode="&#x15b;" horiz-adv-x="508" 
d="M451 137q0 -79 -49 -112t-153 -33q-100 0 -146 33t-46 111h54q0 -50 29.5 -69t107.5 -19q80 0 112.5 19t32.5 63q0 59 -22 70.5t-113 14.5q-94 3 -122 12q-69 27 -71 120q0 79 49 110t153 31q92 0 138 -32t46 -112h-54q0 49 -28.5 69.5t-100.5 20.5q-81 0 -113 -18
t-32 -61q0 -15 1 -26t5 -19.5t6 -14t11 -9.5t12.5 -6.5t18 -4t19.5 -1.5t25.5 -1t28.5 -1t37.5 -1t38 -2t32.5 -4.5t32 -8.5l23.5 -15t21 -23.5t11 -34t5.5 -46.5zM391 667l-129 -126h-67l129 126h67z" />
    <glyph glyph-name="Scircumflex" unicode="&#x15c;" horiz-adv-x="641" 
d="M570 197q0 -107 -59 -156t-192 -49q-132 0 -190.5 41t-58.5 141h58q0 -72 41.5 -99t151.5 -27q109 0 149 32.5t40 111.5q0 83 -41 104q-5 3 -11 5t-14 4t-14.5 3t-16.5 2t-16.5 1.5t-19 0.5t-18.5 0.5t-20 0.5h-20q-115 2 -155 15q-88 28 -94 140v16q0 106 56.5 148
t190.5 42q131 0 188.5 -40.5t57.5 -139.5h-56q0 34 -10 57.5t-24.5 36.5t-41.5 20t-51.5 8.5t-64.5 1.5q-110 0 -148 -28t-38 -105q0 -76 42 -99q30 -16 150 -18q112 -2 150 -12q88 -25 98 -127q1 -15 1 -32zM474 736h-67l-87 83l-87 -83h-68l133 126h42z" />
    <glyph glyph-name="scircumflex" unicode="&#x15d;" horiz-adv-x="508" 
d="M451 137q0 -79 -49 -112t-153 -33q-100 0 -146 33t-46 111h54q0 -50 29.5 -69t107.5 -19q80 0 112.5 19t32.5 63q0 59 -22 70.5t-113 14.5q-94 3 -122 12q-69 27 -71 120q0 79 49 110t153 31q92 0 138 -32t46 -112h-54q0 49 -28.5 69.5t-100.5 20.5q-81 0 -113 -18
t-32 -61q0 -15 1 -26t5 -19.5t6 -14t11 -9.5t12.5 -6.5t18 -4t19.5 -1.5t25.5 -1t28.5 -1t37.5 -1t38 -2t32.5 -4.5t32 -8.5l23.5 -15t21 -23.5t11 -34t5.5 -46.5zM411 541h-67l-87 83l-87 -83h-68l133 126h42z" />
    <glyph glyph-name="Scedilla" unicode="&#x15e;" horiz-adv-x="641" 
d="M570 197q0 -103 -54 -152t-176 -53v-42q32 0 48.5 -18t16.5 -49q0 -38 -18 -56.5t-60 -18.5q-43 0 -62 15.5t-19 51.5h39q0 -19 8.5 -25.5t31.5 -6.5q24 0 31 9.5t7 29.5q0 7 -2 13t-4 10t-7 6.5l-8 4t-10.5 2t-10.5 0.5h-12h-11v74q-120 3 -174 44.5t-54 137.5h58
q0 -72 41.5 -99t151.5 -27q109 0 149 32.5t40 111.5q0 83 -41 104q-5 3 -11 5t-14 4t-14.5 3t-16.5 2t-16.5 1.5t-19 0.5t-18.5 0.5t-20 0.5h-20q-115 2 -155 15q-88 28 -94 140v16q0 106 56.5 148t190.5 42q131 0 188.5 -40.5t57.5 -139.5h-56q0 34 -10 57.5t-24.5 36.5
t-41.5 20t-51.5 8.5t-64.5 1.5q-110 0 -148 -28t-38 -105q0 -76 42 -99q30 -16 150 -18q112 -2 150 -12q88 -25 98 -127q1 -15 1 -32z" />
    <glyph glyph-name="scedilla" unicode="&#x15f;" horiz-adv-x="508" 
d="M335 -116q0 -38 -18 -56.5t-60 -18.5q-43 0 -62 15.5t-19 51.5h39q0 -19 8.5 -25.5t31.5 -6.5q24 0 31 9.5t7 29.5q0 7 -2 13t-4 10t-7 6.5l-8 4t-10.5 2t-10.5 0.5h-12h-11v73q-89 4 -130 37t-41 107h54q0 -50 29.5 -69t107.5 -19q80 0 112.5 19t32.5 63q0 59 -22 70.5
t-113 14.5q-94 3 -122 12q-69 27 -71 120q0 79 49 110t153 31q92 0 138 -32t46 -112h-54q0 49 -28.5 69.5t-100.5 20.5q-81 0 -113 -18t-32 -61q0 -15 1 -26t5 -19.5t6 -14t11 -9.5t12.5 -6.5t18 -4t19.5 -1.5t25.5 -1t28.5 -1t37.5 -1t38 -2t32.5 -4.5t32 -8.5l23.5 -15
t21 -23.5t11 -34t5.5 -46.5q0 -75 -44.5 -108.5t-136.5 -36.5v-41q32 0 48.5 -18t16.5 -49z" />
    <glyph glyph-name="Scaron" unicode="&#x160;" horiz-adv-x="641" 
d="M570 197q0 -107 -59 -156t-192 -49q-132 0 -190.5 41t-58.5 141h58q0 -72 41.5 -99t151.5 -27q109 0 149 32.5t40 111.5q0 83 -41 104q-5 3 -11 5t-14 4t-14.5 3t-16.5 2t-16.5 1.5t-19 0.5t-18.5 0.5t-20 0.5h-20q-115 2 -155 15q-88 28 -94 140v16q0 106 56.5 148
t190.5 42q131 0 188.5 -40.5t57.5 -139.5h-56q0 34 -10 57.5t-24.5 36.5t-41.5 20t-51.5 8.5t-64.5 1.5q-110 0 -148 -28t-38 -105q0 -76 42 -99q30 -16 150 -18q112 -2 150 -12q88 -25 98 -127q1 -15 1 -32zM474 852l-133 -126h-42l-134 126h67l87 -83l87 83h68z" />
    <glyph glyph-name="scaron" unicode="&#x161;" horiz-adv-x="508" 
d="M451 137q0 -79 -49 -112t-153 -33q-100 0 -146 33t-46 111h54q0 -50 29.5 -69t107.5 -19q80 0 112.5 19t32.5 63q0 59 -22 70.5t-113 14.5q-94 3 -122 12q-69 27 -71 120q0 79 49 110t153 31q92 0 138 -32t46 -112h-54q0 49 -28.5 69.5t-100.5 20.5q-81 0 -113 -18
t-32 -61q0 -15 1 -26t5 -19.5t6 -14t11 -9.5t12.5 -6.5t18 -4t19.5 -1.5t25.5 -1t28.5 -1t37.5 -1t38 -2t32.5 -4.5t32 -8.5l23.5 -15t21 -23.5t11 -34t5.5 -46.5zM411 667l-133 -126h-42l-134 126h67l87 -83l87 83h68z" />
    <glyph glyph-name="Tcommaaccent" unicode="&#x162;" horiz-adv-x="542" 
d="M514 613h-214v-613h-59v613h-214v54h487v-54zM297 -86q0 -43 -8.5 -67t-35.5 -47l-30 -26l-34 34q40 35 47.5 49t7.5 57v42h53v-42z" />
    <glyph glyph-name="tcommaaccent" unicode="&#x163;" horiz-adv-x="454" 
d="M424 136q0 -144 -161 -144q-80 0 -118 34.5t-38 108.5v293h-81v52h81v187h58v-187h219v-52h-219v-293q0 -51 23 -71t77 -20q57 0 81 21.5t24 70.5h54zM290 -86q0 -43 -8.5 -67t-35.5 -47l-30 -26l-34 34q40 35 47.5 49t7.5 57v42h53v-42z" />
    <glyph glyph-name="Tcaron" unicode="&#x164;" horiz-adv-x="542" 
d="M514 613h-214v-613h-59v613h-214v54h487v-54zM425 852l-133 -126h-42l-134 126h67l87 -83l87 83h68z" />
    <glyph glyph-name="tcaron" unicode="&#x165;" horiz-adv-x="497" 
d="M424 136q0 -144 -161 -144q-80 0 -118 34.5t-38 108.5v293h-81v52h81v187h58v-187h219v-52h-219v-293q0 -51 23 -71t77 -20q57 0 81 21.5t24 70.5h54zM497 655q0 -43 -8.5 -67t-35.5 -47l-30 -26l-34 34q40 35 47.5 49t7.5 57v42h53v-42z" />
    <glyph glyph-name="Tbar" unicode="&#x166;" horiz-adv-x="542" 
d="M421 316h-121v-316h-59v316h-121v53h121v244h-214v54h487v-54h-214v-244h121v-53z" />
    <glyph glyph-name="tbar" unicode="&#x167;" horiz-adv-x="454" 
d="M107 278v150h-81v52h81v187h58v-187h219v-52h-219v-150h219v-52h-219v-91q0 -51 23 -71t77 -20q57 0 81 21.5t24 70.5h54q0 -144 -161 -144q-80 0 -118 34.5t-38 108.5v91h-81v52h81z" />
    <glyph glyph-name="Utilde" unicode="&#x168;" horiz-adv-x="653" 
d="M564 336q0 -119 -2 -152q-1 -47 -14 -78q-43 -114 -222 -114q-178 0 -222 114q-11 31 -14 78q-2 66 -2 152v331h59v-331v-51v-47.5t0.5 -38t2.5 -36t5.5 -26.5t9.5 -24q37 -65 161 -65q126 0 161 65q7 12 11 26.5t5.5 40t2 40.5t0 56t-0.5 60v331h59v-331zM509 817
l-62 -33q-61 -33 -116 -1l-18 11t-19.5 11t-17 6.5t-21 1.5t-22.5 -8l-66 -35l-24 45q5 3 23 13t25 13.5t23 10.5t26.5 8.5t25 2.5t28 -3t27.5 -12q2 -1 14.5 -8.5t16.5 -9.5t15 -6.5t17.5 -4.5t16.5 1.5t19 6.5l65 35z" />
    <glyph glyph-name="utilde" unicode="&#x169;" horiz-adv-x="538" 
d="M459 0h-56v56q-48 -64 -155 -64q-37 0 -66 7t-47.5 15.5t-31.5 27t-19 31.5t-9.5 40.5t-3.5 40.5v45v18v263h58v-253v-24q0 -38 0.5 -55.5t6.5 -41.5t18.5 -34t36.5 -18t61 -8q31 0 55 6.5t40 15.5t26.5 28t16 32.5t8 41t3 43t0.5 48.5v219h58v-480zM452 622l-62 -33
q-61 -33 -116 -1l-18 11t-19.5 11t-17 6.5t-21 1.5t-22.5 -8l-66 -35l-24 45q5 3 23 13t25 13.5t23 10.5t26.5 8.5t25 2.5t28 -3t27.5 -12q2 -1 14.5 -8.5t16.5 -9.5t15 -6.5t17.5 -4.5t16.5 1.5t19 6.5l65 35z" />
    <glyph glyph-name="Umacron" unicode="&#x16a;" horiz-adv-x="653" 
d="M564 336q0 -119 -2 -152q-1 -47 -14 -78q-43 -114 -222 -114q-178 0 -222 114q-11 31 -14 78q-2 66 -2 152v331h59v-331v-51v-47.5t0.5 -38t2.5 -36t5.5 -26.5t9.5 -24q37 -65 161 -65q126 0 161 65q7 12 11 26.5t5.5 40t2 40.5t0 56t-0.5 60v331h59v-331zM493 799h-333
v50h333v-50z" />
    <glyph glyph-name="umacron" unicode="&#x16b;" horiz-adv-x="538" 
d="M459 0h-56v56q-48 -64 -155 -64q-37 0 -66 7t-47.5 15.5t-31.5 27t-19 31.5t-9.5 40.5t-3.5 40.5v45v18v263h58v-253v-24q0 -38 0.5 -55.5t6.5 -41.5t18.5 -34t36.5 -18t61 -8q31 0 55 6.5t40 15.5t26.5 28t16 32.5t8 41t3 43t0.5 48.5v219h58v-480zM436 607h-333v50h333
v-50z" />
    <glyph glyph-name="Ubreve" unicode="&#x16c;" horiz-adv-x="653" 
d="M564 336q0 -119 -2 -152q-1 -47 -14 -78q-43 -114 -222 -114q-178 0 -222 114q-11 31 -14 78q-2 66 -2 152v331h59v-331v-51v-47.5t0.5 -38t2.5 -36t5.5 -26.5t9.5 -24q37 -65 161 -65q126 0 161 65q7 12 11 26.5t5.5 40t2 40.5t0 56t-0.5 60v331h59v-331zM466 867
q0 -68 -32 -97q-32 -28 -107 -28q-79 0 -109.5 28.5t-30.5 96.5h55q0 -47 15.5 -60.5t68.5 -13.5q54 0 69 13.5t15 60.5h56z" />
    <glyph glyph-name="ubreve" unicode="&#x16d;" horiz-adv-x="538" 
d="M459 0h-56v56q-48 -64 -155 -64q-37 0 -66 7t-47.5 15.5t-31.5 27t-19 31.5t-9.5 40.5t-3.5 40.5v45v18v263h58v-253v-24q0 -38 0.5 -55.5t6.5 -41.5t18.5 -34t36.5 -18t61 -8q31 0 55 6.5t40 15.5t26.5 28t16 32.5t8 41t3 43t0.5 48.5v219h58v-480zM408 667
q0 -68 -32 -97q-32 -28 -107 -28q-79 0 -109.5 28.5t-30.5 96.5h55q0 -47 15.5 -60.5t68.5 -13.5q54 0 69 13.5t15 60.5h56z" />
    <glyph glyph-name="Uring" unicode="&#x16e;" horiz-adv-x="653" 
d="M564 336q0 -119 -2 -152q-1 -47 -14 -78q-43 -114 -222 -114q-178 0 -222 114q-11 31 -14 78q-2 66 -2 152v331h59v-331v-51v-47.5t0.5 -38t2.5 -36t5.5 -26.5t9.5 -24q37 -65 161 -65q126 0 161 65q7 12 11 26.5t5.5 40t2 40.5t0 56t-0.5 60v331h59v-331zM433 798
q0 -61 -23 -86.5t-83 -25.5t-83.5 25.5t-23.5 86.5q0 59 24 83.5t83 24.5q58 0 82 -24.5t24 -83.5zM388 797q0 40 -10.5 53t-50.5 13t-51 -13t-11 -53q0 -42 11 -55t51 -13t50.5 13.5t10.5 54.5z" />
    <glyph glyph-name="uring" unicode="&#x16f;" horiz-adv-x="538" 
d="M459 0h-56v56q-48 -64 -155 -64q-37 0 -66 7t-47.5 15.5t-31.5 27t-19 31.5t-9.5 40.5t-3.5 40.5v45v18v263h58v-253v-24q0 -38 0.5 -55.5t6.5 -41.5t18.5 -34t36.5 -18t61 -8q31 0 55 6.5t40 15.5t26.5 28t16 32.5t8 41t3 43t0.5 48.5v219h58v-480zM376 625
q0 -61 -23 -86.5t-83 -25.5t-83.5 25.5t-23.5 86.5q0 59 24 83.5t83 24.5q58 0 82 -24.5t24 -83.5zM331 624q0 40 -10.5 53t-50.5 13t-51 -13t-11 -53q0 -42 11 -55t51 -13t50.5 13.5t10.5 54.5z" />
    <glyph glyph-name="Uhungarumlaut" unicode="&#x170;" horiz-adv-x="653" 
d="M564 336q0 -119 -2 -152q-1 -47 -14 -78q-43 -114 -222 -114q-178 0 -222 114q-11 31 -14 78q-2 66 -2 152v331h59v-331v-51v-47.5t0.5 -38t2.5 -36t5.5 -26.5t9.5 -24q37 -65 161 -65q126 0 161 65q7 12 11 26.5t5.5 40t2 40.5t0 56t-0.5 60v331h59v-331zM543 862
l-126 -126h-68l126 126h68zM382 862l-125 -126h-68l126 126h67z" />
    <glyph glyph-name="uhungarumlaut" unicode="&#x171;" horiz-adv-x="538" 
d="M459 0h-56v56q-48 -64 -155 -64q-37 0 -66 7t-47.5 15.5t-31.5 27t-19 31.5t-9.5 40.5t-3.5 40.5v45v18v263h58v-253v-24q0 -38 0.5 -55.5t6.5 -41.5t18.5 -34t36.5 -18t61 -8q31 0 55 6.5t40 15.5t26.5 28t16 32.5t8 41t3 43t0.5 48.5v219h58v-480zM482 667l-126 -126
h-68l126 126h68zM321 667l-125 -126h-68l126 126h67z" />
    <glyph glyph-name="Uogonek" unicode="&#x172;" horiz-adv-x="653" 
d="M292 -105q0 32 16 59t42 38h-24q-178 0 -222 114q-11 31 -14 78q-2 66 -2 152v331h59v-331v-51v-47.5t0.5 -38t2.5 -36t5.5 -26.5t9.5 -24q37 -65 161 -65q126 0 161 65q7 12 11 26.5t5.5 40t2 40.5t0 56t-0.5 60v331h59v-331q0 -119 -2 -152q0 -57 -22.5 -96.5
t-54.5 -59.5t-64 -36.5t-54.5 -39t-22.5 -55.5q0 -58 68 -58q14 0 32 2v-45q-20 -3 -35 -3q-53 0 -85 24.5t-32 77.5z" />
    <glyph glyph-name="uogonek" unicode="&#x173;" horiz-adv-x="538" 
d="M322 -105q0 39 24 71t57 47v43q-48 -64 -155 -64q-37 0 -66 7t-47.5 15.5t-31.5 27t-19 31.5t-9.5 40.5t-3.5 40.5v45v18v263h58v-253v-24q0 -38 0.5 -55.5t6.5 -41.5t18.5 -34t36.5 -18t61 -8q31 0 55 6.5t40 15.5t26.5 28t16 32.5t8 41t3 43t0.5 48.5v219h58v-480
q-45 -19 -66 -47.5t-21 -55.5q0 -59 70 -59q14 0 32 2v-44q-19 -3 -35 -3q-53 0 -85 24.5t-32 77.5z" />
    <glyph glyph-name="Wcircumflex" unicode="&#x174;" horiz-adv-x="875" 
d="M832 667l-171 -667h-63l-161 580l-161 -580h-66l-168 667h61l142 -574l161 574h63l160 -574l145 574h58zM594 736h-67l-87 83l-87 -83h-68l133 126h42z" />
    <glyph glyph-name="wcircumflex" unicode="&#x175;" horiz-adv-x="698" 
d="M673 480l-145 -480h-61l-119 401l-118 -401h-61l-145 480h60l116 -399l119 399h58l121 -398l115 398h60zM503 541h-67l-87 83l-87 -83h-68l133 126h42z" />
    <glyph glyph-name="Ycircumflex" unicode="&#x176;" horiz-adv-x="530" 
d="M525 667l-231 -374v-293h-59v293l-231 374h67l195 -317l194 317h65zM421 736h-67l-87 83l-87 -83h-68l133 126h42z" />
    <glyph glyph-name="ycircumflex" unicode="&#x177;" horiz-adv-x="429" 
d="M417 480l-252 -670h-60l75 197l-176 473h61l146 -403l145 403h61zM366 541h-67l-87 83l-87 -83h-68l133 126h42z" />
    <glyph glyph-name="Ydieresis" unicode="&#x178;" horiz-adv-x="531" 
d="M526 667l-231 -374v-293h-59v293l-231 374h67l195 -317l194 317h65zM414 824q0 -40 -40 -40t-40 40t40 40t40 -40zM199 824q0 -40 -40 -40t-40 40t40 40t40 -40z" />
    <glyph glyph-name="Zacute" unicode="&#x179;" horiz-adv-x="604" 
d="M535 0h-467v53l398 560h-398v54h467v-54l-398 -559h398v-54zM439 862l-129 -126h-67l129 126h67z" />
    <glyph glyph-name="zacute" unicode="&#x17a;" horiz-adv-x="479" 
d="M428 0h-378v47l306 381h-306v52h378v-47l-305 -380h305v-53zM376 667l-129 -126h-67l129 126h67z" />
    <glyph glyph-name="Zdotaccent" unicode="&#x17b;" horiz-adv-x="604" 
d="M535 0h-467v53l398 560h-398v54h467v-54l-398 -559h398v-54zM342 824q0 -40 -40 -40t-40 40t40 40t40 -40z" />
    <glyph glyph-name="zdotaccent" unicode="&#x17c;" horiz-adv-x="479" 
d="M428 0h-378v47l306 381h-306v52h378v-47l-305 -380h305v-53zM280 629q0 -40 -40 -40t-40 40t40 40t40 -40z" />
    <glyph glyph-name="Zcaron" unicode="&#x17d;" horiz-adv-x="604" 
d="M535 0h-467v53l397 559h-397v55h467v-54l-397 -558h397v-55zM455 852l-133 -126h-42l-133 126h67l87 -83l87 83h67z" />
    <glyph glyph-name="zcaron" unicode="&#x17e;" horiz-adv-x="479" 
d="M428 0h-378v47l306 381h-306v52h378v-47l-305 -380h305v-53zM393 667l-133 -126h-42l-134 126h67l87 -83l87 83h68z" />
    <glyph glyph-name="florin" unicode="&#x192;" horiz-adv-x="567" 
d="M520 523h-56q0 60 -32 78.5t-98 18.5q-95 0 -128 -37q-6 -6 -10 -14t-6.5 -17.5t-4 -16.5t-2 -19.5t-0.5 -18v-19v-17.5v-101h292v-53h-292v-498h-58v498h-56v53h56v98v18.5v20.5t0.5 18.5t1.5 21t3 18.5t5 20l7 17t10 17.5t13 14.5q52 50 159 50q33 0 56 -2t52 -10.5
t46 -23.5t29.5 -44.5t12.5 -70.5z" />
    <glyph glyph-name="Aringacute" unicode="&#x1fa;" horiz-adv-x="615" 
d="M593 0h-64l-75 197h-297l-74 -197h-62l241 625q-73 12 -73 114q0 60 27 84t91 24t91.5 -26.5t27.5 -87.5q0 -99 -74 -109zM375 732q0 42 -13 55.5t-55 13.5t-54.5 -13.5t-12.5 -55.5q0 -41 12.5 -53t55.5 -12q42 0 54.5 12.5t12.5 52.5zM434 249l-128 344l-129 -344h257z
M422 1026l-129 -126h-67l129 126h67z" />
    <glyph glyph-name="aringacute" unicode="&#x1fb;" horiz-adv-x="534" 
d="M376 846l-129 -126h-67l129 126h67zM465 0h-55v54q-41 -62 -170 -62q-95 0 -141.5 34.5t-46.5 110.5q0 48 14.5 79t43 46t59.5 20.5t76 5.5h161v16v14.5v16t-0.5 15t-2 16t-4 13.5t-6.5 14.5t-10 11.5q-29 29 -117 29q-25 0 -41.5 -1t-38 -6t-34.5 -14t-22 -26.5
t-9 -42.5h-54q0 116 107 134q-22 16 -22 80q0 60 27 84.5t91 24.5q65 0 92 -24t27 -85q0 -65 -25 -82q38 -9 64 -35.5t33 -69.5q4 -21 4 -95v-276zM339 551q0 43 -13 57t-56 14t-55.5 -14t-12.5 -57q0 -42 12.5 -54t56.5 -12q42 0 55 12.5t13 53.5zM406 236h-165
q-68 0 -98 -19t-30 -79q0 -50 27.5 -72t96.5 -22q58 0 92.5 11t51 38.5t21 57.5t4.5 85z" />
    <glyph glyph-name="AEacute" unicode="&#x1fc;" horiz-adv-x="909" 
d="M832 0h-376v202h-251l-135 -202h-66l445 667h383v-54h-318v-244h308v-53h-308v-262h318v-54zM456 254v329l-218 -329h218zM644 862l-129 -126h-67l129 126h67z" />
    <glyph glyph-name="aeacute" unicode="&#x1fd;" horiz-adv-x="880" 
d="M816 232h-351q0 -51 5 -81t20 -56.5t45.5 -37.5t80.5 -11q28 0 49.5 3t43.5 11.5t34 27.5t12 48h54q0 -61 -31 -92q-14 -15 -28 -24t-50.5 -18.5t-87.5 -9.5q-144 0 -177 88q-47 -88 -195 -88q-96 0 -142 33.5t-46 109.5q0 48 14.5 79t43 46t59.5 20.5t76 5.5h163v16
v14.5v16.5t-0.5 15.5t-2 16.5t-4 14t-6.5 14.5t-10 11.5q-28 28 -119 28q-26 0 -42 -1t-38.5 -5.5t-35 -13.5t-22 -26.5t-9.5 -42.5h-54q0 80 53.5 112t155.5 32q133 0 171 -70q45 70 167 70q64 0 105 -13.5t62.5 -44.5t29 -69t7.5 -98v-31zM760 285q0 87 -30.5 117.5
t-117.5 30.5q-83 0 -114.5 -33t-31.5 -115h294zM408 234h-167q-68 0 -99 -19t-31 -79q0 -50 28.5 -71t97.5 -21q47 0 78.5 8t50 21.5t28 39t12 52t2.5 69.5zM559 667l-129 -126h-67l129 126h67z" />
    <glyph glyph-name="Oslashacute" unicode="&#x1fe;" horiz-adv-x="670" 
d="M428 862l-129 -126h-67l129 126h67zM590 333q-1 -149 -15 -201q-25 -95 -115 -124q-50 -17 -127 -16q-19 0 -47 2l-31 -135l-52 10l31 133q-39 8 -66.5 24t-44 38.5t-26.5 51.5t-13 63t-4 73.5t0 83.5q1 148 15 200q25 94 113 122q51 17 129 16q18 0 46 -2l30 132l52 -11
l-29 -129q32 -7 56.5 -19t41 -28.5t28 -38t17 -47t8.5 -56.5t3 -66.5v-75.5zM531 332q1 117 -5.5 159.5t-24.5 69.5q-26 37 -78 48l-125 -560q11 -1 35 -1q123 -1 164 56q19 26 26 69t8 159zM371 617q-11 1 -34 1q-124 1 -165 -56q-19 -26 -25.5 -68t-7.5 -159t5.5 -160
t24.5 -70q26 -37 77 -48z" />
    <glyph glyph-name="oslashacute" unicode="&#x1ff;" horiz-adv-x="552" 
d="M365 667l-129 -126h-67l129 126h67zM488 238q-1 -81 -11 -124.5t-36 -69.5q-53 -53 -167 -52q-23 0 -57 4l-33 -93l-52 18l32 88q-33 13 -56 37q-26 27 -35.5 71.5t-8.5 124.5q1 81 11 124.5t36 69.5q53 53 168 52q27 0 55 -4l32 90l51 -18l-30 -85q35 -14 57 -37
q26 -27 35.5 -71.5t8.5 -124.5zM431 241q1 78 -10 119.5t-53 58.5l-131 -369q22 -2 38 -2q44 0 73.5 9t45.5 22t24.5 41.5t10.5 52.5t2 68zM315 432q-22 2 -37 2q-44 0 -73.5 -8.5t-45.5 -21.5t-24.5 -41t-10.5 -52t-2 -69q-1 -80 10 -120.5t53 -57.5z" />
    <glyph glyph-name="Scommaaccent" unicode="&#x218;" horiz-adv-x="641" 
d="M570 197q0 -107 -59 -156t-192 -49q-132 0 -190.5 41t-58.5 141h58q0 -72 41.5 -99t151.5 -27q109 0 149 32.5t40 111.5q0 83 -41 104q-5 3 -11 5t-14 4t-14.5 3t-16.5 2t-16.5 1.5t-19 0.5t-18.5 0.5t-20 0.5h-20q-115 2 -155 15q-88 28 -94 140v16q0 106 56.5 148
t190.5 42q131 0 188.5 -40.5t57.5 -139.5h-56q0 34 -10 57.5t-24.5 36.5t-41.5 20t-51.5 8.5t-64.5 1.5q-110 0 -148 -28t-38 -105q0 -76 42 -99q30 -16 150 -18q112 -2 150 -12q88 -25 98 -127q1 -15 1 -32zM347 -86q0 -43 -8.5 -67t-35.5 -47l-30 -26l-34 34
q40 35 47.5 49t7.5 57v42h53v-42z" />
    <glyph glyph-name="scommaaccent" unicode="&#x219;" horiz-adv-x="508" 
d="M451 137q0 -79 -49 -112t-153 -33q-100 0 -146 33t-46 111h54q0 -50 29.5 -69t107.5 -19q80 0 112.5 19t32.5 63q0 59 -22 70.5t-113 14.5q-94 3 -122 12q-69 27 -71 120q0 79 49 110t153 31q92 0 138 -32t46 -112h-54q0 49 -28.5 69.5t-100.5 20.5q-81 0 -113 -18
t-32 -61q0 -15 1 -26t5 -19.5t6 -14t11 -9.5t12.5 -6.5t18 -4t19.5 -1.5t25.5 -1t28.5 -1t37.5 -1t38 -2t32.5 -4.5t32 -8.5l23.5 -15t21 -23.5t11 -34t5.5 -46.5zM277 -86q0 -43 -8.5 -67t-35.5 -47l-30 -26l-34 34q40 35 47.5 49t7.5 57v42h53v-42z" />
    <glyph glyph-name="uni021A" unicode="&#x21a;" horiz-adv-x="542" 
d="M514 613h-214v-613h-59v613h-214v54h487v-54zM325 -86q0 -43 -8.5 -67t-35.5 -47l-30 -26l-34 34q40 35 47.5 49t7.5 57v42h53v-42z" />
    <glyph glyph-name="uni021B" unicode="&#x21b;" horiz-adv-x="454" 
d="M424 136q0 -144 -161 -144q-80 0 -118 34.5t-38 108.5v293h-81v52h81v187h58v-187h219v-52h-219v-293q0 -51 23 -71t77 -20q57 0 81 21.5t24 70.5h54zM289 -86q0 -43 -8.5 -67t-35.5 -47l-30 -26l-34 34q40 35 47.5 49t7.5 57v42h53v-42z" />
    <glyph glyph-name="circumflex" unicode="&#x2c6;" horiz-adv-x="420" 
d="M365 541h-67l-87 83l-87 -83h-68l133 126h42z" />
    <glyph glyph-name="caron" unicode="&#x2c7;" horiz-adv-x="420" 
d="M365 667l-133 -126h-42l-134 126h67l87 -83l87 83h68z" />
    <glyph glyph-name="breve" unicode="&#x2d8;" horiz-adv-x="420" 
d="M350 667q0 -68 -32 -97q-32 -28 -107 -28q-79 0 -109.5 28.5t-30.5 96.5h55q0 -47 15.5 -60.5t68.5 -13.5q54 0 69 13.5t15 60.5h56z" />
    <glyph glyph-name="dotaccent" unicode="&#x2d9;" horiz-adv-x="421" 
d="M251 629q0 -40 -40 -40t-40 40t40 40t40 -40z" />
    <glyph glyph-name="ring" unicode="&#x2da;" horiz-adv-x="421" 
d="M317 625q0 -61 -23 -86.5t-83 -25.5t-83.5 25.5t-23.5 86.5q0 59 24 83.5t83 24.5q58 0 82 -24.5t24 -83.5zM272 624q0 40 -10.5 53t-50.5 13t-51 -13t-11 -53q0 -42 11 -55t51 -13t50.5 13.5t10.5 54.5z" />
    <glyph glyph-name="ogonek" unicode="&#x2db;" horiz-adv-x="420" 
d="M212 14l55 -14q-45 -19 -66 -47.5t-21 -55.5q0 -59 70 -59q14 0 32 2v-44q-20 -3 -35 -3q-53 0 -85 24.5t-32 77.5q0 39 24.5 71.5t57.5 47.5z" />
    <glyph glyph-name="tilde" unicode="&#x2dc;" horiz-adv-x="420" 
d="M393 622l-62 -33q-61 -33 -116 -1l-18 11t-19.5 11t-17 6.5t-21 1.5t-22.5 -8l-66 -35l-24 45q5 3 23 13t25 13.5t23 10.5t26.5 8.5t25 2.5t28 -3t27.5 -12q2 -1 14.5 -8.5t16.5 -9.5t15 -6.5t17.5 -4.5t16.5 1.5t19 6.5l65 35z" />
    <glyph glyph-name="hungarumlaut" unicode="&#x2dd;" horiz-adv-x="420" 
d="M402 667l-126 -126h-68l126 126h68zM241 667l-125 -126h-68l126 126h67z" />
    <glyph glyph-name="uni0326" unicode="&#x326;" horiz-adv-x="420" 
d="M231 -86q0 -43 -8.5 -67t-35.5 -47l-30 -26l-34 34q40 35 47.5 49t7.5 57v42h53v-42z" />
    <glyph glyph-name="Delta" unicode="&#x394;" horiz-adv-x="615" 
d="M593 0h-572l258 667h56zM509 52l-203 541l-203 -541h406z" />
    <glyph glyph-name="Omega" unicode="&#x3a9;" horiz-adv-x="670" 
d="M590 0h-204v52q81 8 113 56q19 27 25.5 69.5t6.5 158.5q0 115 -6.5 156t-25.5 69q-40 57 -164 57t-164 -57q-19 -28 -25.5 -69t-6.5 -156q0 -116 6.5 -158.5t25.5 -69.5q32 -48 113 -56v-52h-204v52h80q-20 10 -34 25t-22.5 39t-13.5 42.5t-7 55t-2.5 57t-0.5 66.5
q0 147 14 200q24 92 112 121q51 16 129 16q167 0 219 -83q34 -54 36 -187v-67q0 -53 -0.5 -79t-4.5 -66t-12 -62t-24 -44t-39 -34h80v-52z" />
    <glyph glyph-name="mu" unicode="&#x3bc;" horiz-adv-x="547" 
d="M468 0h-56v56q-48 -64 -155 -64q-79 0 -119 38v-221h-59v671h59v-253v-18q0 -31 0.5 -45.5t2.5 -36t6.5 -30.5t13 -21t22 -16.5t32.5 -8t45 -3.5q32 0 56 6.5t39.5 15t26.5 27.5t16 32t7.5 41t3 42.5t0.5 48.5v219h59v-480z" />
    <glyph glyph-name="pi" unicode="&#x3c0;" horiz-adv-x="640" 
d="M550 0h-10q-63 0 -83.5 22t-20.5 84v321h-243v-427h-58v427h-56v53h471v-53h-56v-327q0 -27 10 -37.5t38 -10.5h8v-52z" />
    <glyph glyph-name="uni0400" unicode="&#x400;" horiz-adv-x="586" 
d="M509 0h-417v667h417v-54h-359v-244h349v-53h-349v-262h359v-54zM379 736h-67l-130 126h67z" />
    <glyph glyph-name="afii10023" unicode="&#x401;" horiz-adv-x="586" 
d="M443 823q0 -40 -40 -40t-40 40t40 40t40 -40zM228 823q0 -40 -40 -40t-40 40t40 40t40 -40zM509 0h-417v667h417v-54h-359v-244h349v-53h-349v-262h359v-54z" />
    <glyph glyph-name="afii10051" unicode="&#x402;" horiz-adv-x="714" 
d="M637 153v-7q0 -40 -0.5 -59t-1.5 -52.5t-4.5 -50l-9.5 -43t-15.5 -39.5l-23.5 -31t-32.5 -27t-43 -18t-55.5 -12.5t-69 -3.5v59q125 0 164 57q19 27 25.5 69.5t6.5 159.5q0 56 -3.5 85.5t-18.5 57t-46.5 38t-84.5 10.5q-91 0 -161 -38v-308h-59v613h-178v54h455v-54h-218
v-245q62 33 161 33q114 0 166 -53q26 -27 36 -71t10 -124z" />
    <glyph glyph-name="afii10052" unicode="&#x403;" horiz-adv-x="512" 
d="M402 862l-126 -126h-67l126 126h67zM499 613h-348v-613h-59v667h407v-54z" />
    <glyph glyph-name="afii10053" unicode="&#x404;" horiz-adv-x="641" 
d="M571 172q0 -99 -54.5 -139.5t-176.5 -40.5q-169 1 -222 83q-36 54 -39 189v69q0 151 16 207q26 91 117 118q51 16 128 16q122 0 176.5 -40.5t54.5 -139.5h-56q0 71 -38.5 97.5t-145.5 26.5q-122 0 -160 -54q-17 -25 -24.5 -62t-8.5 -131h266v-53h-266q1 -106 8 -147.5
t25 -67.5q38 -55 160 -55q107 0 145.5 26.5t38.5 97.5h56z" />
    <glyph glyph-name="afii10054" unicode="&#x405;" horiz-adv-x="641" 
d="M570 197q0 -107 -59 -156t-192 -49q-132 0 -190.5 41t-58.5 141h58q0 -72 41.5 -99t151.5 -27q109 0 149 32.5t40 111.5q0 83 -41 104q-5 3 -11 5t-14 4t-14.5 3t-16.5 2t-16.5 1.5t-19 0.5t-18.5 0.5t-20 0.5h-20q-115 2 -155 15q-88 28 -94 140v16q0 106 56.5 148
t190.5 42q131 0 188.5 -40.5t57.5 -139.5h-56q0 34 -10 57.5t-24.5 36.5t-41.5 20t-51.5 8.5t-64.5 1.5q-110 0 -148 -28t-38 -105q0 -76 42 -99q30 -16 150 -18q112 -2 150 -12q88 -25 98 -127q1 -15 1 -32z" />
    <glyph glyph-name="afii10055" unicode="&#x406;" horiz-adv-x="244" 
d="M151 0h-59v667h59v-667z" />
    <glyph glyph-name="afii10056" unicode="&#x407;" horiz-adv-x="244" 
d="M270 824q0 -40 -40 -40t-40 40t40 40t40 -40zM55 824q0 -40 -40 -40t-40 40t40 40t40 -40zM151 0h-59v667h59v-667z" />
    <glyph glyph-name="afii10057" unicode="&#x408;" horiz-adv-x="532" 
d="M443 208q0 -62 -4 -87q-11 -72 -62 -100.5t-135 -28.5q-104 0 -153.5 40t-49.5 139h56q0 -73 33.5 -98.5t113.5 -25.5q62 0 97.5 18t42.5 69q2 14 2 72v461h59v-459z" />
    <glyph glyph-name="afii10058" unicode="&#x409;" horiz-adv-x="1001" 
d="M950 186q0 -101 -43 -142q-21 -21 -53 -31t-56.5 -11.5t-75.5 -1.5h-18h-229v613h-198l-106 -465q-19 -85 -53 -119q-36 -37 -112 -37v54q42 0 67 22q23 21 38 90l116 509h307v-298h213q110 0 156.5 -38t46.5 -145zM891 185q0 80 -31.5 105.5t-122.5 25.5h-203v-262h162
h17h41t34.5 1.5t31.5 5t24.5 9.5t21 15.5t13.5 23.5t9.5 33t2.5 43z" />
    <glyph glyph-name="afii10059" unicode="&#x40a;" horiz-adv-x="1023" 
d="M972 186q0 -101 -43 -142q-21 -21 -53 -31t-56.5 -11.5t-75.5 -1.5h-18h-225v316h-350v-316h-59v667h59v-298h350v298h59v-298h209q110 0 156.5 -38t46.5 -145zM913 185q0 80 -31.5 105.5t-122.5 25.5h-199v-262h158h17h41t34.5 1.5t31.5 5t24.5 9.5t21 15.5t13.5 23.5
t9.5 33t2.5 43z" />
    <glyph glyph-name="afii10060" unicode="&#x40b;" horiz-adv-x="720" 
d="M631 0h-59v144q0 68 -6 103.5t-29 60.5q-34 37 -113 37q-92 0 -160 -37v-308h-59v613h-178v54h455v-54h-218v-245q62 33 161 33q109 0 158 -52q22 -24 33 -60.5t13 -66t2 -84.5v-138z" />
    <glyph glyph-name="afii10061" unicode="&#x40c;" horiz-adv-x="575" 
d="M466 862l-126 -126h-67l126 126h67zM566 0h-85l-330 316v-316h-59v667h59v-298l335 298h79l-366 -320z" />
    <glyph glyph-name="uni040D" unicode="&#x40d;" horiz-adv-x="651" 
d="M558 0h-56v578l-343 -578h-67v667h56v-577l344 577h66v-667zM411 736h-67l-130 126h67z" />
    <glyph glyph-name="afii10062" unicode="&#x40e;" horiz-adv-x="553" 
d="M419 862q0 -68 -32 -97q-32 -28 -108 -28q-79 0 -109.5 28.5t-30.5 96.5h55q0 -47 15.5 -60.5t68.5 -13.5q54 0 69.5 13.5t15.5 60.5h56zM547 667l-349 -667h-65l114 218l-235 449h67l202 -385l201 385h65z" />
    <glyph glyph-name="afii10145" unicode="&#x40f;" horiz-adv-x="653" 
d="M560 0h-206v-117h-57v117h-205v667h59v-613h350v613h59v-667z" />
    <glyph glyph-name="afii10017" unicode="&#x410;" horiz-adv-x="615" 
d="M593 0h-64l-75 197h-297l-74 -197h-62l258 667h56zM434 249l-128 344l-129 -344h257z" />
    <glyph glyph-name="afii10018" unicode="&#x411;" horiz-adv-x="649" 
d="M567 186q0 -101 -43 -142q-21 -21 -53 -31t-56.5 -11.5t-75.5 -1.5h-18h-229v667h414v-54h-355v-244h213q110 0 156.5 -38t46.5 -145zM508 185q0 80 -31.5 105.5t-122.5 25.5h-203v-262h162h17h41t34.5 1.5t31.5 5t24.5 9.5t21 15.5t13.5 23.5t9.5 33t2.5 43z" />
    <glyph glyph-name="afii10019" unicode="&#x412;" horiz-adv-x="649" 
d="M567 186q0 -99 -41 -140q-27 -26 -57 -34.5t-77 -10.5q-20 -1 -71 -1h-229v667h223h22h46.5t41.5 -2t39 -6.5t31.5 -12t28 -20t19.5 -30t14 -42.5t4 -56q0 -123 -72 -154q78 -35 78 -158zM503 491q0 68 -28 96q-5 5 -10.5 9t-12.5 6.5l-12.5 4.5t-15.5 3t-16.5 2t-20.5 1
h-22h-27h-30h-157v-244h164h23q40 0 58.5 0.5t43.5 6.5t36 18.5t19 36.5t8 60zM508 184q0 76 -26 101q-20 20 -50.5 25.5t-118.5 5.5h-162v-262h162h19h46.5t37.5 2.5t33.5 7.5t24.5 14t19.5 23t10 34.5t4.5 48.5z" />
    <glyph glyph-name="afii10020" unicode="&#x413;" horiz-adv-x="512" 
d="M499 613h-348v-613h-59v667h407v-54z" />
    <glyph glyph-name="afii10021" unicode="&#x414;" horiz-adv-x="632" 
d="M585 -115h-58v117h-463v-117h-58v171q46 0 67.5 22.5t33.5 72.5l124 516h303v-611h51v-171zM475 56v557h-194l-114 -465q-18 -72 -44 -92h352z" />
    <glyph glyph-name="afii10022" unicode="&#x415;" horiz-adv-x="586" 
d="M509 0h-417v667h417v-54h-359v-244h349v-53h-349v-262h359v-54z" />
    <glyph glyph-name="afii10024" unicode="&#x416;" horiz-adv-x="820" 
d="M811 0h-79l-292 319v-319h-59v319l-293 -319h-79l321 345l-320 322h76l295 -300v300h59v-300l296 300h74l-322 -320z" />
    <glyph glyph-name="afii10025" unicode="&#x417;" horiz-adv-x="653" 
d="M571 186q0 -104 -61.5 -149t-189.5 -45q-59 0 -99.5 7t-74.5 25.5t-50.5 55t-16.5 92.5h56q0 -77 42.5 -100.5t143.5 -23.5t146 28t45 107q0 85 -37 110.5t-151 25.5h-78v54h78q96 0 138 24t42 100q0 72 -37 96.5t-147 24.5q-102 0 -143.5 -24.5t-41.5 -99.5h-56
q0 58 18.5 96t55 55.5t74 23t93.5 5.5q131 0 187.5 -40t56.5 -135q0 -55 -18.5 -93t-68.5 -59q41 -12 62.5 -38.5t26.5 -53t5 -69.5z" />
    <glyph glyph-name="afii10026" unicode="&#x418;" horiz-adv-x="651" 
d="M558 0h-56v578l-343 -578h-67v667h56v-577l344 577h66v-667z" />
    <glyph glyph-name="afii10027" unicode="&#x419;" horiz-adv-x="651" 
d="M465 862q0 -68 -32 -97q-32 -28 -108 -28q-79 0 -109.5 28.5t-30.5 96.5h55q0 -47 15.5 -60.5t68.5 -13.5q54 0 69.5 13.5t15.5 60.5h56zM558 0h-56v578l-343 -578h-67v667h56v-577l344 577h66v-667z" />
    <glyph glyph-name="afii10028" unicode="&#x41a;" horiz-adv-x="575" 
d="M566 0h-85l-330 316v-316h-59v667h59v-298l335 298h79l-366 -320z" />
    <glyph glyph-name="afii10029" unicode="&#x41b;" horiz-adv-x="626" 
d="M534 0h-59v613h-198l-106 -465q-19 -85 -53 -119q-36 -37 -112 -37v54q42 0 67 22q23 21 38 90l116 509h307v-667z" />
    <glyph glyph-name="afii10030" unicode="&#x41c;" horiz-adv-x="823" 
d="M730 0h-56v569l-234 -569h-58l-234 568v-568h-56v667h72l248 -598l246 599h72v-668z" />
    <glyph glyph-name="afii10031" unicode="&#x41d;" horiz-adv-x="653" 
d="M560 0h-59v316h-350v-316h-59v667h59v-298h350v298h59v-667z" />
    <glyph glyph-name="afii10032" unicode="&#x41e;" horiz-adv-x="670" 
d="M590 335q0 -149 -13 -202q-24 -95 -114 -124q-51 -17 -128 -17q-167 0 -220 86q-34 56 -36 192v64q0 149 14 202q25 93 115 122q50 16 126 16q168 0 220 -84q34 -55 36 -188v-67zM531 334q0 117 -6.5 159t-25.5 69q-38 56 -165 56q-124 0 -164 -57q-19 -27 -25.5 -69.5
t-6.5 -158.5t6.5 -159t25.5 -70q39 -56 165 -56q125 0 164 57q19 27 25.5 69.5t6.5 159.5z" />
    <glyph glyph-name="afii10033" unicode="&#x41f;" horiz-adv-x="653" 
d="M560 0h-59v613h-350v-613h-59v667h468v-667z" />
    <glyph glyph-name="afii10034" unicode="&#x420;" horiz-adv-x="612" 
d="M561 485q0 -44 -7 -76t-24 -52t-35 -32t-51 -17.5t-60 -7t-73 -1.5h-160v-299h-59v667h219q41 0 63 -0.5t53.5 -4t47.5 -10.5t35.5 -20t28.5 -32.5t15.5 -48t6.5 -66.5zM502 483q0 24 -2.5 43t-11 32.5l-14.5 23t-22 15.5t-24.5 9.5t-31 5t-32 1.5h-36.5h-19h-158v-260
h158q96 0 122 7q62 18 70 96q1 13 1 27z" />
    <glyph glyph-name="afii10035" unicode="&#x421;" horiz-adv-x="641" 
d="M571 172q0 -99 -54.5 -139.5t-176.5 -40.5q-169 1 -222 83q-36 54 -39 189v69q0 151 16 207q26 91 117 118q51 16 128 16q122 0 176.5 -40.5t54.5 -139.5h-56q0 71 -38.5 97.5t-145.5 26.5q-122 0 -160 -54q-18 -28 -25.5 -72t-7.5 -159t7.5 -158.5t25.5 -71.5
q38 -55 160 -55q107 0 145.5 26.5t38.5 97.5h56z" />
    <glyph glyph-name="afii10036" unicode="&#x422;" horiz-adv-x="542" 
d="M514 613h-214v-613h-59v613h-214v54h487v-54z" />
    <glyph glyph-name="afii10037" unicode="&#x423;" horiz-adv-x="553" 
d="M547 667l-349 -667h-65l114 218l-235 449h67l202 -385l201 385h65z" />
    <glyph glyph-name="afii10038" unicode="&#x424;" horiz-adv-x="782" 
d="M718 337q0 -93 -16.5 -143.5t-54.5 -81.5q-34 -28 -87 -39.5t-140 -13.5v-59h-59v59q-166 3 -227 53q-38 31 -54.5 82t-16.5 144t16.5 143.5t54.5 81.5q34 28 86.5 38t140.5 12v54h59v-54q89 -2 141.5 -12t85.5 -38q38 -31 54.5 -81.5t16.5 -144.5zM659 339q0 79 -13 119
t-42 63q-40 31 -184 36v-442q139 5 184 40q29 23 42 63.5t13 120.5zM361 115v442q-145 -5 -185 -36q-28 -22 -41 -63.5t-13 -121.5q0 -79 13 -119t41 -62q45 -35 185 -40z" />
    <glyph glyph-name="afii10039" unicode="&#x425;" horiz-adv-x="556" 
d="M527 0h-68l-182 291l-180 -291h-69l214 340l-208 327h68l175 -279l175 279h69l-209 -327z" />
    <glyph glyph-name="afii10040" unicode="&#x426;" horiz-adv-x="659" 
d="M611 -117h-57v117h-462v667h59v-613h350v613h59v-613h51v-171z" />
    <glyph glyph-name="afii10041" unicode="&#x427;" horiz-adv-x="625" 
d="M532 0h-59v295q-66 -33 -172 -33q-115 0 -167 52q-23 23 -35 60t-14 66.5t-2 84.5v142h59v-148q0 -67 6.5 -103t31.5 -61q37 -37 121 -37q98 0 172 37v312h59v-667z" />
    <glyph glyph-name="afii10042" unicode="&#x428;" horiz-adv-x="882" 
d="M789 0h-697v667h59v-613h260v613h59v-613h260v613h59v-667z" />
    <glyph glyph-name="afii10043" unicode="&#x429;" horiz-adv-x="889" 
d="M841 -117h-57v117h-692v667h59v-613h260v613h59v-613h261v613h59v-613h51v-171z" />
    <glyph glyph-name="afii10044" unicode="&#x42a;" horiz-adv-x="706" 
d="M655 186q0 -101 -43 -142q-21 -21 -53 -31t-56.5 -11.5t-75.5 -1.5h-18h-229v613h-177v54h236v-298h213q110 0 156.5 -38t46.5 -145zM596 185q0 80 -31.5 105.5t-122.5 25.5h-203v-262h162h17h41t34.5 1.5t31.5 5t24.5 9.5t21 15.5t13.5 23.5t9.5 33t2.5 43z" />
    <glyph glyph-name="afii10045" unicode="&#x42b;" horiz-adv-x="821" 
d="M729 0h-59v667h59v-667zM567 186q0 -101 -43 -142q-21 -21 -53 -31t-56.5 -11.5t-75.5 -1.5h-18h-229v667h59v-298h213q110 0 156.5 -38t46.5 -145zM508 185q0 80 -31.5 105.5t-122.5 25.5h-203v-262h162h17h41t34.5 1.5t31.5 5t24.5 9.5t21 15.5t13.5 23.5t9.5 33
t2.5 43z" />
    <glyph glyph-name="afii10046" unicode="&#x42c;" horiz-adv-x="595" 
d="M567 186q0 -101 -43 -142q-21 -21 -53 -31t-56.5 -11.5t-75.5 -1.5h-18h-229v667h59v-298h213q110 0 156.5 -38t46.5 -145zM508 185q0 80 -31.5 105.5t-122.5 25.5h-203v-262h162h17h41t34.5 1.5t31.5 5t24.5 9.5t21 15.5t13.5 23.5t9.5 33t2.5 43z" />
    <glyph glyph-name="afii10047" unicode="&#x42d;" horiz-adv-x="641" 
d="M571 333q0 -151 -16 -206q-26 -90 -116 -119q-51 -16 -129 -16q-122 0 -176.5 40.5t-54.5 139.5h56q0 -71 38.5 -97.5t145.5 -26.5q122 0 160 55q18 26 25 67.5t8 147.5h-266v53h266q-1 94 -8.5 131t-24.5 62q-38 54 -160 54q-107 0 -145.5 -26.5t-38.5 -97.5h-56
q0 99 54.5 139.5t176.5 40.5q169 0 222 -82q36 -55 39 -190v-69z" />
    <glyph glyph-name="afii10048" unicode="&#x42e;" horiz-adv-x="890" 
d="M810 335q0 -149 -13 -202q-24 -95 -114 -124q-51 -17 -128 -17q-53 0 -93 8.5t-67 21t-45.5 37.5t-28.5 47t-15 61.5t-6 68.5t-1 80h-148v-316h-59v667h59v-298h148q0 47 1.5 76t7 65t16 57.5t29 44t45.5 34.5t66 20t90 8q168 0 220 -84q34 -55 36 -188v-67zM751 334
q0 117 -6.5 159t-25.5 69q-38 56 -165 56q-124 0 -164 -57q-19 -27 -25.5 -69.5t-6.5 -158.5t6.5 -159t25.5 -70q39 -56 165 -56q125 0 164 57q19 27 25.5 69.5t6.5 159.5z" />
    <glyph glyph-name="afii10049" unicode="&#x42f;" horiz-adv-x="648" 
d="M556 0h-59v306h-157h-18q-51 0 -73 -1t-45 -6t-35 -17t-17.5 -31t-6 -33.5t-0.5 -53.5v-164h-58v166v21.5v25t1.5 23.5t4 25.5t8.5 22.5t13.5 21.5t20 15.5t27.5 13q-75 31 -75 144q0 40 6 69.5t15 49.5t28 33.5t35 21t47.5 11t53.5 4t65 0.5h219v-667zM497 360v253h-158
q-96 0 -124 -8q-63 -19 -69 -101q-1 -11 -1 -23q0 -26 3.5 -45.5t10.5 -32.5t17.5 -21.5t24 -13t30 -6.5t36 -2h41.5h25h164z" />
    <glyph glyph-name="afii10065" unicode="&#x430;" horiz-adv-x="534" 
d="M463 0h-55v54q-41 -62 -170 -62q-95 0 -140.5 34.5t-45.5 110.5q0 48 14 79t42.5 46t59 20.5t75.5 5.5h161v16v14.5v16t-0.5 15t-2 16t-4 13.5t-6.5 14.5t-10 11.5q-28 28 -117 28q-33 0 -52.5 -2t-44 -10t-36.5 -27t-12 -50h-54q0 80 53 112t154 32q167 0 187 -117
q4 -26 4 -95v-276zM404 236h-165q-68 0 -98 -19t-30 -79q0 -50 27.5 -72t96.5 -22q58 0 92.5 11t51 38.5t21 57.5t4.5 85z" />
    <glyph glyph-name="afii10066" unicode="&#x431;" horiz-adv-x="556" 
d="M492 241q0 -81 -10 -125t-35 -71q-49 -53 -162 -53q-110 0 -158 48q-31 31 -39.5 74t-8.5 121v206q0 101 46 149q35 37 89 48.5t102 14.5t66 18q13 11 13 28h55q0 -47 -27 -71q-25 -22 -76 -27.5t-101.5 -14t-77.5 -37.5q-31 -34 -31 -96v-27q48 62 158 62q54 0 92 -14
t58.5 -34t31 -56t13 -65.5t2.5 -77.5zM434 240q0 104 -25.5 148t-108.5 44q-94 0 -129 -40t-35 -155q0 -56 3.5 -85.5t18 -56.5t45 -37.5t82.5 -10.5q30 0 53 4.5t39 11.5t26.5 21t16.5 27t9.5 36.5t4 42t0.5 50.5z" />
    <glyph glyph-name="afii10067" unicode="&#x432;" horiz-adv-x="535" 
d="M472 138q0 -72 -32 -104q-17 -16 -43.5 -24t-45.5 -9t-64 -1h-208v480h203q99 0 129 -12q56 -23 56 -113q0 -84 -51 -106q56 -25 56 -111zM410 350q0 46 -18 62q-17 16 -90 16h-165v-155h145q95 0 110 15q18 18 18 62zM414 136q0 48 -17 65q-11 10 -27 14.5t-30.5 5
t-58.5 0.5h-144v-169h144q81 0 101 9q32 14 32 75z" />
    <glyph glyph-name="afii10068" unicode="&#x433;" horiz-adv-x="424" 
d="M418 428h-281v-428h-58v480h339v-52z" />
    <glyph glyph-name="afii10069" unicode="&#x434;" horiz-adv-x="529" 
d="M487 -117h-55v121h-370v-121h-56v173q38 0 55.5 17t26.5 55l81 352h273v-424h45v-173zM384 56v372h-168l-67 -294q-13 -62 -38 -78h273z" />
    <glyph glyph-name="afii10070" unicode="&#x435;" horiz-adv-x="536" 
d="M472 226h-351q0 -100 28 -140t123 -40q28 0 49.5 3t43.5 11.5t34 27.5t12 48h54q0 -144 -194 -144q-67 0 -109.5 15.5t-63.5 50.5t-28 75t-7 105t7 106.5t28.5 76.5t63 51t106.5 16q57 0 96 -13t60 -32t32 -57t13.5 -70.5t2.5 -89.5zM416 279q0 88 -31 122t-117 34
q-82 0 -114 -36.5t-32 -119.5h294z" />
    <glyph glyph-name="afii10072" unicode="&#x436;" horiz-adv-x="644" 
d="M638 0h-75l-212 223v-223h-58v223l-212 -223h-75l247 249l-244 231h73l211 -205v205h58v-205l213 205h71l-245 -230z" />
    <glyph glyph-name="afii10073" unicode="&#x437;" horiz-adv-x="528" 
d="M465 136q0 -78 -52.5 -111t-158.5 -33q-198 0 -198 144h54q0 -38 23 -58.5t50.5 -25t71.5 -4.5q85 0 119.5 17.5t34.5 68.5q0 56 -28 71.5t-121 15.5h-45v52h45q78 0 110 16.5t32 65.5q0 45 -30 61.5t-118 16.5q-31 0 -53 -3t-44.5 -11.5t-34.5 -27t-12 -47.5h-54
q0 81 53.5 112.5t144.5 31.5q109 0 157 -29.5t48 -101.5q0 -81 -63 -107q42 -13 55.5 -41t13.5 -73z" />
    <glyph glyph-name="afii10074" unicode="&#x438;" horiz-adv-x="546" 
d="M467 0h-56v395l-265 -395h-67v480h56v-397l266 397h66v-480z" />
    <glyph glyph-name="afii10075" unicode="&#x439;" horiz-adv-x="546" 
d="M412 667q0 -68 -32 -97q-32 -28 -107 -28q-79 0 -109.5 28.5t-30.5 96.5h55q0 -47 15.5 -60.5t68.5 -13.5q54 0 69 13.5t15 60.5h56zM467 0h-56v395l-265 -395h-67v480h56v-397l266 397h66v-480z" />
    <glyph glyph-name="afii10076" unicode="&#x43a;" horiz-adv-x="470" 
d="M464 0h-83l-244 221v-221h-58v480h58v-207l245 207h79l-278 -232z" />
    <glyph glyph-name="afii10077" unicode="&#x43b;" horiz-adv-x="523" 
d="M443 0h-58v428h-168l-74 -322q-14 -61 -44 -87.5t-93 -26.5v53q38 0 54.5 16.5t25.5 55.5l84 363h273v-480z" />
    <glyph glyph-name="afii10078" unicode="&#x43c;" horiz-adv-x="667" 
d="M588 0h-56v377l-173 -377h-52l-172 376v-376h-56v480h66l189 -411l190 411h64v-480z" />
    <glyph glyph-name="afii10079" unicode="&#x43d;" horiz-adv-x="546" 
d="M467 0h-58v221h-272v-221h-58v480h58v-207h272v207h58v-480z" />
    <glyph glyph-name="afii10080" unicode="&#x43e;" horiz-adv-x="552" 
d="M488 240q0 -80 -10 -124t-36 -71q-52 -53 -166 -53q-117 0 -167 53q-26 27 -36 71t-10 124t10 124t36 71q50 53 167 53q114 0 166 -53q26 -27 36 -71t10 -124zM430 242q0 56 -4 85.5t-18.5 57t-46.5 38t-85 10.5q-44 0 -73.5 -9t-45.5 -22t-24 -40.5t-10 -51.5t-2 -68
q0 -56 3.5 -84.5t18 -57.5t47 -40.5t86.5 -11.5q32 0 55.5 4.5t40 12t27.5 22t17 27.5t9.5 36.5t4 41.5t0.5 50z" />
    <glyph glyph-name="afii10081" unicode="&#x43f;" horiz-adv-x="546" 
d="M467 0h-58v428h-272v-428h-58v480h388v-480z" />
    <glyph glyph-name="afii10082" unicode="&#x440;" horiz-adv-x="556" 
d="M492 239q0 -48 -2.5 -77.5t-13 -65.5t-31 -56t-58.5 -34t-92 -14q-108 0 -158 62v-245h-58v671h56v-58q48 66 160 66q53 0 90 -13t58 -32.5t32 -54t14 -67t3 -82.5zM434 240q0 104 -25.5 148.5t-108.5 44.5q-93 0 -128.5 -40.5t-35.5 -152.5t35.5 -152t128.5 -40
q83 0 108.5 44t25.5 148z" />
    <glyph glyph-name="afii10083" unicode="&#x441;" horiz-adv-x="522" 
d="M466 136q0 -144 -194 -144q-56 0 -94.5 12t-61 31t-34.5 53t-15.5 67t-3.5 84t3.5 84.5t15.5 67.5t34.5 53.5t61 31.5t94.5 12q194 0 194 -144h-54q0 29 -11.5 47.5t-34 27t-43.5 11.5t-50 3q-42 0 -70.5 -8.5t-44.5 -22t-24.5 -40.5t-10.5 -52t-2 -69t2 -69.5
t10.5 -52.5t24.5 -40.5t44.5 -22t70.5 -8.5q29 0 50 2.5t43.5 11t34 27t11.5 47.5h54z" />
    <glyph glyph-name="afii10084" unicode="&#x442;" horiz-adv-x="445" 
d="M425 428h-174v-428h-58v428h-173v52h405v-52z" />
    <glyph glyph-name="afii10085" unicode="&#x443;" horiz-adv-x="429" 
d="M417 480l-252 -670h-60l75 197l-176 473h61l146 -403l145 403h61z" />
    <glyph glyph-name="afii10086" unicode="&#x444;" horiz-adv-x="823" 
d="M759 239q0 -50 -2.5 -82t-12.5 -66.5t-28.5 -54t-52 -32t-81.5 -12.5q-96 0 -142 57v-240h-58v240q-46 -57 -142 -57q-48 0 -81.5 12.5t-52 32t-28.5 54t-12.5 66.5t-2.5 82t2.5 82.5t12.5 67t28.5 54t52 32.5t81.5 13q96 0 142 -57v266h58v-266q46 57 142 57
q48 0 81.5 -13t52 -32.5t28.5 -54t12.5 -67t2.5 -82.5zM701 240q0 104 -22.5 148.5t-95.5 44.5q-80 0 -112 -40.5t-32 -152.5t32 -152.5t112 -40.5q73 0 95.5 44.5t22.5 148.5zM383 240q0 112 -32 152.5t-112 40.5q-73 0 -95.5 -44.5t-22.5 -148.5t22.5 -148.5t95.5 -44.5
q80 0 112 40.5t32 152.5z" />
    <glyph glyph-name="afii10087" unicode="&#x445;" horiz-adv-x="462" 
d="M443 0h-71l-143 202l-144 -202h-67l178 245l-171 235h71l136 -192l138 192h67l-172 -234z" />
    <glyph glyph-name="afii10088" unicode="&#x446;" horiz-adv-x="570" 
d="M512 -117h-55v117h-378v480h58v-428h272v428h58v-428h45v-169z" />
    <glyph glyph-name="afii10089" unicode="&#x447;" horiz-adv-x="527" 
d="M448 1h-58v201q-52 -26 -141 -26q-100 0 -145 45q-21 21 -31 53t-11.5 56.5t-1.5 72.5v77h58v-82q0 -57 5.5 -87t25.5 -50q30 -30 100 -30q88 0 141 28v221h58v-479z" />
    <glyph glyph-name="afii10090" unicode="&#x448;" horiz-adv-x="756" 
d="M677 0h-598v480h58v-428h212v428h58v-428h212v428h58v-480z" />
    <glyph glyph-name="afii10091" unicode="&#x449;" horiz-adv-x="780" 
d="M722 -117h-55v117h-588v480h58v-428h212v428h58v-428h212v428h58v-428h45v-169z" />
    <glyph glyph-name="afii10092" unicode="&#x44a;" horiz-adv-x="549" 
d="M495 137q0 -75 -30 -104q-20 -19 -41 -24.5t-58 -7.5q-15 -1 -52 -1h-207v429h-101v51h159v-207h181q86 0 119 -33q30 -30 30 -103zM435 136q0 49 -16 65q-20 20 -82 20h-172v-170h145q73 0 92 9q33 15 33 76z" />
    <glyph glyph-name="afii10093" unicode="&#x44b;" horiz-adv-x="696" 
d="M617 0h-58v480h58v-480zM467 137q0 -75 -30 -104q-20 -19 -41 -24.5t-58 -7.5q-15 -1 -52 -1h-207v480h58v-207h181q86 0 119 -33q30 -30 30 -103zM407 136q0 49 -16 65q-20 20 -82 20h-172v-170h145q73 0 92 9q33 15 33 76z" />
    <glyph glyph-name="afii10094" unicode="&#x44c;" horiz-adv-x="521" 
d="M467 137q0 -75 -30 -104q-20 -19 -41 -24.5t-58 -7.5q-15 -1 -52 -1h-207v480h58v-207h181q86 0 119 -33q30 -30 30 -103zM407 136q0 49 -16 65q-20 20 -82 20h-172v-170h145q73 0 92 9q33 15 33 76z" />
    <glyph glyph-name="afii10095" unicode="&#x44d;" horiz-adv-x="522" 
d="M459 239q0 -51 -3.5 -84t-15.5 -67t-34.5 -53t-61 -31t-94.5 -12q-194 0 -194 144h54q0 -29 11.5 -47.5t34 -27t43.5 -11t50 -2.5q49 0 80 10.5t46 34.5t20.5 52.5t5.5 75.5h-186v52h186q-1 43 -6.5 70t-21 49t-46 31.5t-78.5 9.5q-29 0 -50 -3t-43.5 -11.5t-34 -27
t-11.5 -47.5h-54q0 144 194 144q56 0 94.5 -12t61 -31.5t34.5 -53.5t15.5 -67.5t3.5 -84.5z" />
    <glyph glyph-name="afii10096" unicode="&#x44e;" horiz-adv-x="759" 
d="M695 240q0 -80 -10 -124t-36 -71q-52 -53 -166 -53q-117 0 -167 53q-45 45 -46 178h-133v-223h-58v480h58v-205h133q3 115 46 160q50 53 167 53q114 0 166 -53q26 -27 36 -71t10 -124zM637 242q0 56 -4 85.5t-18.5 57t-46.5 38t-85 10.5q-44 0 -73.5 -9t-45.5 -22
t-24 -40.5t-10 -51.5t-2 -68q0 -56 3.5 -84.5t18 -57.5t47 -40.5t86.5 -11.5q32 0 55.5 4.5t40 12t27.5 22t17 27.5t9.5 36.5t4 41.5t0.5 50z" />
    <glyph glyph-name="afii10097" unicode="&#x44f;" horiz-adv-x="536" 
d="M457 0h-58v213h-140h-20q-51 0 -70 -2.5t-30 -13.5q-13 -13 -13 -75v-122h-57v119v14v15.5t0.5 15t2 16.5t4 15t7 15l10 11.5t13.5 11t18 7.5q-55 22 -55 101q0 48 11 77t37 42t51.5 16.5t71.5 3.5h217v-480zM399 266v162h-141h-20.5h-21t-18 -1t-18.5 -2.5t-14.5 -4.5
t-14 -7t-10.5 -10.5t-9 -15t-4 -19.5t-2 -25q0 -16 3 -28l5 -20.5t11.5 -14t13.5 -8.5t19.5 -4.5t20.5 -1.5h27h28h145z" />
    <glyph glyph-name="uni0450" unicode="&#x450;" horiz-adv-x="536" 
d="M472 226h-351q0 -100 28 -140t123 -40q28 0 49.5 3t43.5 11.5t34 27.5t12 48h54q0 -144 -194 -144q-67 0 -109.5 15.5t-63.5 50.5t-28 75t-7 105t7 106.5t28.5 76.5t63 51t106.5 16q57 0 96 -13t60 -32t32 -57t13.5 -70.5t2.5 -89.5zM416 279q0 88 -31 122t-117 34
q-82 0 -114 -36.5t-32 -119.5h294zM354 541h-67l-130 126h67z" />
    <glyph glyph-name="afii10071" unicode="&#x451;" horiz-adv-x="536" 
d="M414 629q0 -40 -40 -40t-40 40t40 40t40 -40zM199 629q0 -40 -40 -40t-40 40t40 40t40 -40zM472 226h-351q0 -100 28 -140t123 -40q28 0 49.5 3t43.5 11.5t34 27.5t12 48h54q0 -144 -194 -144q-67 0 -109.5 15.5t-63.5 50.5t-28 75t-7 105t7 106.5t28 76.5t62.5 51
t107.5 16q57 0 95.5 -13t60 -32t32.5 -56.5t13.5 -70.5t2.5 -90zM416 279q0 88 -31.5 122t-116.5 34q-82 0 -114 -36.5t-32 -119.5h294z" />
    <glyph glyph-name="afii10099" unicode="&#x452;" horiz-adv-x="560" 
d="M431 106v147v24v41t-2 33.5t-7 29.5t-13.5 21.5t-21.5 17.5t-33 9t-46 4q-31 0 -55 -6.5t-40 -15.5t-26.5 -27.5t-16 -32t-8 -41.5t-3 -43t-0.5 -48v-219h-58v544h-75v50h75v103h58v-103h169v-50h-169v-118q49 62 153 62q33 0 59 -4.5t44 -13t31.5 -20.5t21 -26.5
t13 -31.5t6.5 -36l2 -39t0 -41v-23v-147q0 -45 -1.5 -76t-6 -64.5t-13.5 -54.5t-24.5 -41t-37.5 -31.5t-53.5 -18t-72.5 -6.5v55q35 0 59.5 5.5t41.5 19t27 30t15 46.5t6.5 59.5t1.5 76.5z" />
    <glyph glyph-name="afii10100" unicode="&#x453;" horiz-adv-x="424" 
d="M330 667l-126 -126h-67l126 126h67zM418 428h-281v-428h-58v480h339v-52z" />
    <glyph glyph-name="afii10101" unicode="&#x454;" horiz-adv-x="522" 
d="M466 136q0 -144 -194 -144q-56 0 -94.5 12t-61 31t-34.5 53t-15.5 67t-3.5 84t3.5 84.5t15.5 67.5t34.5 53.5t61 31.5t94.5 12q194 0 194 -144h-54q0 29 -11.5 47.5t-34 27t-43.5 11.5t-50 3q-48 0 -78.5 -9.5t-46 -31.5t-21 -49t-6.5 -70h186v-52h-186q0 -47 5.5 -75.5
t20.5 -52.5t46 -34.5t80 -10.5q29 0 50 2.5t43.5 11t34 27t11.5 47.5h54z" />
    <glyph glyph-name="afii10102" unicode="&#x455;" horiz-adv-x="508" 
d="M451 137q0 -79 -49 -112t-153 -33q-100 0 -146 33t-46 111h54q0 -50 29.5 -69t107.5 -19q80 0 112.5 19t32.5 63q0 59 -22 70.5t-113 14.5q-94 3 -122 12q-69 27 -71 120q0 79 49 110t153 31q92 0 138 -32t46 -112h-54q0 49 -28.5 69.5t-100.5 20.5q-81 0 -113 -18
t-32 -61q0 -15 1 -26t5 -19.5t6 -14t11 -9.5t12.5 -6.5t18 -4t19.5 -1.5t25.5 -1t28.5 -1t37.5 -1t38 -2t32.5 -4.5t32 -8.5l23.5 -15t21 -23.5t11 -34t5.5 -46.5z" />
    <glyph glyph-name="afii10103" unicode="&#x456;" horiz-adv-x="217" 
d="M147 636q0 -39 -39 -39q-38 0 -38 39q0 38 38 38q39 0 39 -38zM137 0h-58v480h58v-480z" />
    <glyph glyph-name="afii10104" unicode="&#x457;" horiz-adv-x="217" 
d="M256 629q0 -40 -40 -40t-40 40t40 40t40 -40zM41 629q0 -40 -40 -40t-40 40t40 40t40 -40zM137 0h-58v480h58v-480z" />
    <glyph glyph-name="afii10105" unicode="&#x458;" horiz-adv-x="217" 
d="M147 636q0 -39 -39 -39q-38 0 -38 39q0 38 38 38q39 0 39 -38zM138 -46q0 -68 -36 -104q-46 -44 -132 -44q-73 0 -116 30.5t-44 93.5h56q0 -5 0.5 -10t6 -17.5t15.5 -21.5t31.5 -16t50.5 -7q59 0 91 32q5 5 8 10t5 12l3.5 12t2 14t0.5 13v14v12v503h58v-526z" />
    <glyph glyph-name="afii10106" unicode="&#x459;" horiz-adv-x="818" 
d="M764 137q0 -75 -30 -104q-20 -19 -41 -24.5t-58 -7.5q-15 -1 -52 -1h-198v428h-168l-74 -322q-14 -61 -44 -87.5t-93 -26.5v53q38 0 54.5 16.5t25.5 55.5l84 363h273v-207h172q86 0 119 -33q30 -30 30 -103zM704 136q0 49 -16 65q-20 20 -82 20h-163v-170h136q73 0 92 9
q33 15 33 76z" />
    <glyph glyph-name="afii10107" unicode="&#x45a;" horiz-adv-x="842" 
d="M788 137q0 -75 -30 -104q-20 -19 -41 -24.5t-58 -7.5q-15 -1 -52 -1h-198v221h-272v-221h-58v480h58v-207h272v207h58v-207h172q86 0 119 -33q30 -30 30 -103zM728 136q0 49 -16 65q-20 20 -82 20h-163v-170h136q73 0 92 9q33 15 33 76z" />
    <glyph glyph-name="afii10108" unicode="&#x45b;" horiz-adv-x="560" 
d="M489 0h-58v253v24v41t-2 33.5t-7 29.5t-13.5 21.5t-21.5 17.5t-33 9t-46 4q-31 0 -55 -6.5t-40 -15.5t-26.5 -27.5t-16 -32t-8 -41.5t-3 -43t-0.5 -48v-219h-58v544h-75v50h75v103h58v-103h169v-50h-169v-118q49 62 153 62q33 0 59 -4.5t44 -13t31.5 -20.5t21 -26.5
t13 -31.5t6.5 -36l2 -39t0 -41v-23v-253z" />
    <glyph glyph-name="afii10109" unicode="&#x45c;" horiz-adv-x="470" 
d="M408 667l-126 -126h-67l126 126h67zM464 0h-83l-244 221v-221h-58v480h58v-207l245 207h79l-278 -232z" />
    <glyph glyph-name="uni045D" unicode="&#x45d;" horiz-adv-x="546" 
d="M467 0h-56v395l-265 -395h-67v480h56v-397l266 397h66v-480zM361 541h-67l-130 126h67z" />
    <glyph glyph-name="afii10110" unicode="&#x45e;" horiz-adv-x="429" 
d="M350 667q0 -68 -32 -97q-32 -28 -107 -28q-79 0 -109.5 28.5t-30.5 96.5h55q0 -47 15.5 -60.5t68.5 -13.5q54 0 69 13.5t15 60.5h56zM417 480l-252 -670h-60l75 197l-176 473h61l146 -403l145 403h61z" />
    <glyph glyph-name="afii10193" unicode="&#x45f;" horiz-adv-x="546" 
d="M467 0h-166v-117h-56v117h-166v480h58v-428h272v428h58v-480z" />
    <glyph glyph-name="afii10146" unicode="&#x462;" horiz-adv-x="706" 
d="M3 492v53h177v122h59v-122h218v-53h-218v-123h213q110 0 156.5 -38t46.5 -145q0 -101 -43 -142q-21 -21 -53 -31t-56.5 -11.5t-75.5 -1.5h-18h-229v492h-177zM596 185q0 80 -31.5 105.5t-122.5 25.5h-203v-262h162h17h41t34.5 1.5t31.5 5t24.5 9.5t21 15.5t13.5 23.5
t9.5 33t2.5 43z" />
    <glyph glyph-name="afii10194" unicode="&#x463;" horiz-adv-x="549" 
d="M495 137q0 -75 -30 -104q-20 -19 -41 -24.5t-58 -7.5q-15 -1 -52 -1h-207v428h-101v52h101v187h58v-187h219v-52h-219v-155h181q86 0 119 -33q30 -30 30 -103zM435 136q0 49 -16 65q-20 20 -82 20h-172v-170h145q73 0 92 9q33 15 33 76z" />
    <glyph glyph-name="afii10147" unicode="&#x472;" horiz-adv-x="670" 
d="M590 335q0 -149 -13 -202q-24 -95 -114 -124q-51 -17 -128 -17q-167 0 -220 86q-34 56 -36 192v64q0 149 14 202q25 93 115 122q50 16 126 16q168 0 220 -84q34 -55 36 -188v-67zM499 105q18 25 24.5 65t6.5 146h-391q0 -105 6.5 -145.5t24.5 -66.5q39 -56 165 -56
q125 0 164 57zM170 561q-17 -27 -24 -63t-7 -129h391q0 94 -6.5 130.5t-24.5 62.5q-38 56 -165 56q-124 0 -164 -57z" />
    <glyph glyph-name="afii10195" unicode="&#x473;" horiz-adv-x="552" 
d="M488 240q0 -80 -10 -124t-36 -71q-52 -53 -166 -53t-167 53q-26 27 -36 71.5t-10 123.5t10 123.5t36 71.5q53 53 167 53t166 -53q26 -27 36 -71t10 -124zM276 48q51 0 82.5 10.5t46.5 35.5t20 52.5t5 74.5h-309q0 -47 5 -74.5t20 -52.5t46.5 -35.5t83.5 -10.5zM276 433
q-50 0 -81 -9.5t-47 -32t-21 -48.5t-6 -70h309q-1 44 -6.5 71t-21.5 49t-46.5 31t-79.5 9z" />
    <glyph glyph-name="afii10148" unicode="&#x474;" horiz-adv-x="596" 
d="M310 0h-56l-248 667h63l215 -591l162 442q36 98 61.5 127t81.5 29v-50q-34 -1 -47.5 -22t-49.5 -116z" />
    <glyph glyph-name="afii10196" unicode="&#x475;" horiz-adv-x="478" 
d="M260 0h-58l-188 480h61l157 -411l114 304q24 65 47 90t70 25v-50q-24 -1 -34 -14.5t-28 -61.5z" />
    <glyph glyph-name="afii10050" unicode="&#x490;" horiz-adv-x="519" 
d="M499 613h-348v-613h-59v667h351v88h56v-142z" />
    <glyph glyph-name="afii10098" unicode="&#x491;" horiz-adv-x="423" 
d="M418 428h-281v-428h-58v480h286v80h53v-132z" />
    <glyph glyph-name="Wgrave" unicode="&#x1e80;" horiz-adv-x="875" 
d="M832 667l-171 -667h-63l-161 580l-161 -580h-66l-168 667h61l142 -574l161 574h63l160 -574l145 574h58zM508 736h-67l-130 126h67z" />
    <glyph glyph-name="wgrave" unicode="&#x1e81;" horiz-adv-x="698" 
d="M673 480l-145 -480h-61l-119 401l-118 -401h-61l-145 480h60l116 -399l119 399h58l121 -398l115 398h60zM422 541h-67l-130 126h67z" />
    <glyph glyph-name="Wacute" unicode="&#x1e82;" horiz-adv-x="875" 
d="M832 667l-171 -667h-63l-161 580l-161 -580h-66l-168 667h61l142 -574l161 574h63l160 -574l145 574h58zM575 862l-129 -126h-67l129 126h67z" />
    <glyph glyph-name="wacute" unicode="&#x1e83;" horiz-adv-x="698" 
d="M673 480l-145 -480h-61l-119 401l-118 -401h-61l-145 480h60l116 -399l119 399h58l121 -398l115 398h60zM471 667l-129 -126h-67l129 126h67z" />
    <glyph glyph-name="Wdieresis" unicode="&#x1e84;" horiz-adv-x="875" 
d="M832 667l-171 -667h-63l-161 580l-161 -580h-66l-168 667h61l142 -574l161 574h63l160 -574l145 574h58zM585 824q0 -40 -40 -40t-40 40t40 40t40 -40zM370 824q0 -40 -40 -40t-40 40t40 40t40 -40z" />
    <glyph glyph-name="wdieresis" unicode="&#x1e85;" horiz-adv-x="698" 
d="M673 480l-145 -480h-61l-119 401l-118 -401h-61l-145 480h60l116 -399l119 399h58l121 -398l115 398h60zM496 629q0 -40 -40 -40t-40 40t40 40t40 -40zM281 629q0 -40 -40 -40t-40 40t40 40t40 -40z" />
    <glyph glyph-name="Ygrave" unicode="&#x1ef2;" horiz-adv-x="530" 
d="M525 667l-231 -374v-293h-59v293l-231 374h67l195 -317l194 317h65zM357 736h-67l-130 126h67z" />
    <glyph glyph-name="ygrave" unicode="&#x1ef3;" horiz-adv-x="429" 
d="M417 480l-252 -670h-60l75 197l-176 473h61l146 -403l145 403h61zM310 541h-67l-130 126h67z" />
    <glyph glyph-name="figuredash" unicode="&#x2012;" horiz-adv-x="567" 
d="M521 214h-476v53h476v-53z" />
    <glyph glyph-name="endash" unicode="&#x2013;" horiz-adv-x="567" 
d="M533 214h-500v53h500v-53z" />
    <glyph glyph-name="emdash" unicode="&#x2014;" horiz-adv-x="1005" 
d="M902 214h-800v53h800v-53z" />
    <glyph glyph-name="quoteleft" unicode="&#x2018;" horiz-adv-x="213" 
d="M187 642l-30.5 -28t-15 -19t-9 -24t-0.5 -35v-81h-53v81q0 43 8.5 67t35.5 47l30 26z" />
    <glyph glyph-name="quoteright" unicode="&#x2019;" horiz-adv-x="213" 
d="M133 586q0 -43 -8.5 -67t-35.5 -47l-30 -26l-34 34l30.5 28t15 19t9 24t0.5 35v81h53v-81z" />
    <glyph glyph-name="quotesinglbase" unicode="&#x201a;" horiz-adv-x="213" 
d="M133 -11q0 -43 -8.5 -67t-35.5 -47l-30 -26l-34 34l30.5 28t15 19t9 24t0.5 35v81h53v-81z" />
    <glyph glyph-name="quotedblleft" unicode="&#x201c;" horiz-adv-x="375" 
d="M349 642l-30.5 -28t-15 -19t-9 -24t-0.5 -35v-81h-53v81q0 43 8.5 67t35.5 47l30 26zM187 642l-30.5 -28t-15 -19t-9 -24t-0.5 -35v-81h-53v81q0 43 8.5 67t35.5 47l30 26z" />
    <glyph glyph-name="quotedblright" unicode="&#x201d;" horiz-adv-x="375" 
d="M295 586q0 -43 -8.5 -67t-35.5 -47l-30 -26l-34 34l30.5 28t15 19t9 24t0.5 35v81h53v-81zM133 586q0 -43 -8.5 -67t-35.5 -47l-30 -26l-34 34l30.5 28t15 19t9 24t0.5 35v81h53v-81z" />
    <glyph glyph-name="quotedblbase" unicode="&#x201e;" horiz-adv-x="375" 
d="M295 -11q0 -43 -8.5 -67t-35.5 -47l-30 -26l-34 34l30.5 28t15 19t9 24t0.5 35v81h53v-81zM133 -11q0 -43 -8.5 -67t-35.5 -47l-30 -26l-34 34l30.5 28t15 19t9 24t0.5 35v81h53v-81z" />
    <glyph glyph-name="dagger" unicode="&#x2020;" horiz-adv-x="566" 
d="M460 428h-149v-519h-57v519h-149v52h149v187h57v-187h149v-52z" />
    <glyph glyph-name="daggerdbl" unicode="&#x2021;" horiz-adv-x="566" 
d="M460 200h-149v-291h-57v291h-149v52h149v176h-149v52h149v187h57v-187h149v-52h-149v-176h149v-52z" />
    <glyph glyph-name="bullet" unicode="&#x2022;" horiz-adv-x="504" 
d="M345 334q0 -49 -22 -71t-71 -22t-71.5 22t-22.5 71t22.5 71.5t71.5 22.5t71 -22.5t22 -71.5z" />
    <glyph glyph-name="ellipsis" unicode="&#x2026;" horiz-adv-x="1006" 
d="M877 32q0 -40 -40 -40q-41 0 -41 40t40 40q41 0 41 -40zM542 32h1q0 -40 -40 -40q-41 0 -41 40t40 40t40 -40zM209 32h1q0 -40 -40 -40q-41 0 -41 40t40 40t40 -40z" />
    <glyph glyph-name="perthousand" unicode="&#x2030;" horiz-adv-x="1169" 
d="M614 667l-337 -667h-52l336 667h53zM639 40q55 0 70 33.5t15 126.5q0 95 -15 127.5t-70 32.5t-70 -32.5t-15 -127.5q0 -93 15 -126.5t70 -33.5zM639 -6q-25 0 -44.5 4t-33.5 13.5t-24 18.5t-16 26.5t-9.5 29.5t-5 35.5t-2 37.5t-0.5 41q0 31 0.5 46t3 41t7.5 40
t14.5 31.5t23.5 26t36 15t50 6.5t50 -6.5t36 -15t23.5 -26t14.5 -31.5t7.5 -40t3 -41t0.5 -46q0 -28 -0.5 -41.5t-2 -37.5t-5 -36t-9.5 -29.5t-16 -26.5t-24 -18t-33.5 -13t-44.5 -4zM200 307q55 0 70 33.5t15 126.5q0 95 -15 127.5t-70 32.5t-70 -32.5t-15 -127.5
q0 -93 15 -126.5t70 -33.5zM200 261q-25 0 -44.5 4t-33.5 13.5t-24 18.5t-16 26.5t-9.5 29.5t-5 35.5t-2 37.5t-0.5 41q0 31 0.5 46t3 41t7.5 40t14.5 31.5t23.5 26t36 15t50 6.5t50 -6.5t36 -15t23.5 -26t14.5 -31.5t7.5 -40t3 -41t0.5 -46q0 -28 -0.5 -41.5t-2 -37.5
t-5 -36t-9.5 -29.5t-16 -26.5t-24 -18t-33.5 -13t-44.5 -4zM969 40q55 0 70 33.5t15 126.5q0 95 -15 127.5t-70 32.5t-70 -32.5t-15 -127.5q0 -93 15 -126.5t70 -33.5zM969 -6q-25 0 -44.5 4t-33.5 13.5t-24 18.5t-16 26.5t-9.5 29.5t-5 35.5t-2 37.5t-0.5 41q0 31 0.5 46
t3 41t7.5 40t14.5 31.5t23.5 26t36 15t50 6.5t50 -6.5t36 -15t23.5 -26t14.5 -31.5t7.5 -40t3 -41t0.5 -46q0 -28 -0.5 -41.5t-2 -37.5t-5 -36t-9.5 -29.5t-16 -26.5t-24 -18t-33.5 -13t-44.5 -4z" />
    <glyph glyph-name="guilsinglleft" unicode="&#x2039;" horiz-adv-x="263" 
d="M218 404q-3 -4 -21 -21.5t-26.5 -26.5t-23.5 -27t-23 -31t-14.5 -29.5t-6.5 -30.5q0 -17 6.5 -34.5t23 -38l25.5 -31t32 -33.5l26 -26l-37 -37l-26 26l-31.5 32t-26 30.5t-25.5 36.5t-14 34.5t-7 39.5t7.5 39.5t15 35.5t26 38t26.5 32t31 33l26 27z" />
    <glyph glyph-name="guilsinglright" unicode="&#x203a;" horiz-adv-x="263" 
d="M213 237q0 -16 -3.5 -32t-14 -33.5t-16.5 -28.5t-23.5 -30.5l-23 -25.5t-27 -27l-22.5 -22l-37 37l21.5 21t26.5 26.5t23 26t22.5 30.5t13 28.5t6.5 30.5q0 12 -4 25t-13 27.5l-15.5 25t-21.5 26l-21 22t-22 22.5l-18 18l37 38l22.5 -23t26.5 -28l23.5 -26.5t24.5 -31.5
l17 -30t14 -34t4 -32z" />
    <glyph glyph-name="fraction" unicode="&#x2044;" horiz-adv-x="39" 
d="M214 667l-337 -667h-52l336 667h53z" />
    <glyph glyph-name="zerosuperior" unicode="&#x2070;" 
d="M200 307q55 0 70 33.5t15 126.5q0 95 -15 127.5t-70 32.5t-70 -32.5t-15 -127.5q0 -93 15 -126.5t70 -33.5zM200 261q-25 0 -44.5 4t-33.5 13.5t-24 18.5t-16 26.5t-9.5 29.5t-5 35.5t-2 37.5t-0.5 41q0 31 0.5 46t3 41t7.5 40t14.5 31.5t23.5 26t36 15t50 6.5t50 -6.5
t36 -15t23.5 -26t14.5 -31.5t7.5 -40t3 -41t0.5 -46q0 -28 -0.5 -41.5t-2 -37.5t-5 -36t-9.5 -29.5t-16 -26.5t-24 -18t-33.5 -13t-44.5 -4z" />
    <glyph glyph-name="foursuperior" unicode="&#x2074;" 
d="M345 372h-61v-105h-48v105h-182v41l186 254h44v-254h61v-41zM236 413v180l-127 -180h127z" />
    <glyph glyph-name="fivesuperior" unicode="&#x2075;" 
d="M332 393q0 -69 -33 -101q-32 -31 -107 -31q-62 0 -95.5 23.5t-33.5 79.5h48q0 -31 19.5 -44t61.5 -13q51 0 71 17.5t20 65.5t-16.5 69.5t-65.5 21.5q-82 0 -82 -48h-47v234h238v-45h-191v-122q32 26 84 26q72 0 100.5 -33t28.5 -100z" />
    <glyph glyph-name="sixsuperior" unicode="&#x2076;" 
d="M330 392q0 -68 -31.5 -99.5t-98.5 -31.5q-43 0 -71 14t-40.5 41.5t-16.5 53t-4 63.5v51.5t1.5 44t3.5 39.5t6.5 31.5t11.5 27.5l17 19.5t23.5 15.5t31.5 7.5t40 3.5q119 0 119 -101h-47q0 56 -72 56q-56 0 -71 -27t-15 -107q33 30 86 30q69 0 98 -30.5t29 -101.5z
M281 391q0 50 -16 69t-58 19q-88 0 -88 -85q0 -46 19.5 -66.5t61.5 -20.5q45 0 63 18.5t18 65.5z" />
    <glyph glyph-name="sevensuperior" unicode="&#x2077;" 
d="M325 628l-174 -361h-52l173 355h-204v45h257v-39z" />
    <glyph glyph-name="eightsuperior" unicode="&#x2078;" 
d="M200 628q-47 0 -63.5 -14t-16.5 -51q0 -40 15.5 -54t64.5 -14q51 0 65.5 13.5t14.5 53.5q0 38 -16.5 52t-63.5 14zM284 378q0 46 -18 59q-16 12 -66 12q-49 0 -66 -13.5t-17 -57.5q0 -43 18 -57t65 -14t65.5 14t18.5 57zM333 380q0 -59 -29 -88q-32 -31 -104 -31
q-71 0 -103 31q-29 29 -29 88q0 71 43 93q-39 24 -39 90q0 60 29.5 85t98.5 25t99 -25t30 -85q0 -67 -39 -90q43 -22 43 -93z" />
    <glyph glyph-name="ninesuperior" unicode="&#x2079;" 
d="M70 542q0 68 31.5 99.5t98.5 31.5q43 0 71 -14t40.5 -41.5t16.5 -53t4 -63.5v-49.5t-1 -41.5t-2.5 -37.5t-5 -30.5t-8.5 -26.5l-12.5 -19.5t-17 -16.5t-22.5 -10t-29.5 -7t-36.5 -1.5q-119 0 -119 101h47q0 -56 72 -56q56 0 71 27t15 107q-33 -30 -86 -30q-69 0 -98 30.5
t-29 101.5zM119 543q0 -50 16 -69t58 -19q88 0 88 85q0 46 -19.5 66.5t-61.5 20.5q-45 0 -63 -18.5t-18 -65.5z" />
    <glyph glyph-name="parenleftsuperior" unicode="&#x207d;" horiz-adv-x="213" 
d="M68 460q0 153 17 214q11 37 41.5 53t86.5 16v-49q-65 0 -76 -29q-17 -39 -17 -204q0 -161 17 -203q6 -15 22 -21.5t54 -6.5v-50q-56 0 -86.5 16t-41.5 53q-17 61 -17 211z" />
    <glyph glyph-name="parenrightsuperior" unicode="&#x207e;" horiz-adv-x="213" 
d="M145 460q0 -150 -17 -211q-11 -37 -41.5 -53t-86.5 -16v50q38 0 54 6.5t22 21.5q17 42 17 203q0 165 -17 204q-11 29 -76 29v49q56 0 86.5 -16t41.5 -53q17 -61 17 -214z" />
    <glyph glyph-name="zeroinferior" unicode="&#x2080;" 
d="M200 40q55 0 70 33.5t15 126.5q0 95 -15 127.5t-70 32.5t-70 -32.5t-15 -127.5q0 -93 15 -126.5t70 -33.5zM200 -6q-25 0 -44.5 4t-33.5 13.5t-24 18.5t-16 26.5t-9.5 29.5t-5 35.5t-2 37.5t-0.5 41q0 31 0.5 46t3 41t7.5 40t14.5 31.5t23.5 26t36 15t50 6.5t50 -6.5
t36 -15t23.5 -26t14.5 -31.5t7.5 -40t3 -41t0.5 -46q0 -28 -0.5 -41.5t-2 -37.5t-5 -36t-9.5 -29.5t-16 -26.5t-24 -18t-33.5 -13t-44.5 -4z" />
    <glyph glyph-name="oneinferior" unicode="&#x2081;" 
d="M320 0h-231v43h90v291l-66 -59l-29 32l103 93h42v-357h91v-43z" />
    <glyph glyph-name="twoinferior" unicode="&#x2082;" 
d="M319 290q0 -26 -6.5 -45.5t-15 -31t-27.5 -21.5t-31.5 -14t-40.5 -12q-9 -3 -14 -4q-33 -10 -46 -15.5t-22 -20.5t-9 -43v-39h211v-44h-261v93q0 20 4 35.5t14 27t18.5 19t26 14.5l26.5 10.5t31 9.5t30 8q36 11 49.5 25.5t13.5 47.5q0 41 -18 56t-64 15
q-44 0 -63.5 -10.5t-19.5 -44.5h-49q0 55 33.5 77.5t97.5 22.5q67 0 99.5 -26t32.5 -90z" />
    <glyph glyph-name="threeinferior" unicode="&#x2083;" 
d="M325 111q0 -58 -30 -87q-30 -30 -107 -30q-65 0 -98.5 23t-33.5 80h48q1 -33 19.5 -45.5t64.5 -12.5q52 0 70 12.5t18 58.5q0 47 -18 61t-68 14h-69v45h69q45 0 63.5 11.5t18.5 51.5q0 39 -16 53.5t-66 14.5q-46 0 -64.5 -12.5t-19.5 -45.5h-47q0 56 33 79.5t98 23.5
q69 0 100 -26t31 -85q0 -36 -8.5 -56.5t-31.5 -31.5q24 -11 34 -32.5t10 -63.5z" />
    <glyph glyph-name="fourinferior" unicode="&#x2084;" 
d="M339 105h-61v-105h-48v105h-182v41l186 254h44v-254h61v-41zM230 146v180l-127 -180h127z" />
    <glyph glyph-name="fiveinferior" unicode="&#x2085;" 
d="M332 126q0 -69 -33 -101q-32 -31 -107 -31q-62 0 -95.5 23.5t-33.5 79.5h48q0 -31 19.5 -44t61.5 -13q51 0 71 17.5t20 65.5t-16.5 69.5t-65.5 21.5q-82 0 -82 -48h-47v234h238v-45h-191v-122q32 26 84 26q72 0 100.5 -33t28.5 -100z" />
    <glyph glyph-name="sixinferior" unicode="&#x2086;" 
d="M330 125q0 -68 -31.5 -99.5t-98.5 -31.5q-43 0 -71 14t-40.5 41.5t-16.5 53t-4 63.5v51.5t1.5 44t3.5 39.5t6.5 31.5t11.5 27.5l17 19.5t23.5 15.5t31.5 7.5t40 3.5q119 0 119 -101h-47q0 56 -72 56q-56 0 -71 -27t-15 -107q33 30 86 30q69 0 98 -30.5t29 -101.5z
M281 124q0 50 -16 69t-58 19q-88 0 -88 -85q0 -46 19.5 -66.5t61.5 -20.5q45 0 63 18.5t18 65.5z" />
    <glyph glyph-name="seveninferior" unicode="&#x2087;" 
d="M325 361l-174 -361h-52l173 355h-204v45h257v-39z" />
    <glyph glyph-name="eightinferior" unicode="&#x2088;" 
d="M200 361q-47 0 -63.5 -14t-16.5 -51q0 -40 15.5 -54t64.5 -14q51 0 65.5 13.5t14.5 53.5q0 38 -16.5 52t-63.5 14zM284 111q0 46 -18 59q-16 12 -66 12q-49 0 -66 -13.5t-17 -57.5q0 -43 18 -57t65 -14t65.5 14t18.5 57zM333 113q0 -59 -29 -88q-32 -31 -104 -31
q-71 0 -103 31q-29 29 -29 88q0 71 43 93q-39 24 -39 90q0 60 29.5 85t98.5 25t99 -25t30 -85q0 -67 -39 -90q43 -22 43 -93z" />
    <glyph glyph-name="nineinferior" unicode="&#x2089;" 
d="M70 275q0 68 31.5 99.5t98.5 31.5q43 0 71 -14t40.5 -41.5t16.5 -53t4 -63.5v-49.5t-1 -41.5t-2.5 -37.5t-5 -30.5t-8.5 -26.5l-12.5 -19.5t-17 -16.5t-22.5 -10t-29.5 -7t-36.5 -1.5q-119 0 -119 101h47q0 -56 72 -56q56 0 71 27t15 107q-33 -30 -86 -30q-69 0 -98 30.5
t-29 101.5zM119 276q0 -50 16 -69t58 -19q88 0 88 85q0 46 -19.5 66.5t-61.5 20.5q-45 0 -63 -18.5t-18 -65.5z" />
    <glyph glyph-name="parenleftinferior" unicode="&#x208d;" horiz-adv-x="213" 
d="M68 193q0 153 17 214q11 37 41.5 53t86.5 16v-49q-65 0 -76 -29q-17 -39 -17 -204q0 -160 17 -203q6 -15 22 -21.5t54 -6.5v-50q-56 0 -86.5 16t-41.5 53q-17 61 -17 211z" />
    <glyph glyph-name="parenrightinferior" unicode="&#x208e;" horiz-adv-x="213" 
d="M145 193q0 -150 -17 -211q-11 -37 -41.5 -53t-86.5 -16v50q38 0 54 6.5t22 21.5q17 43 17 203q0 165 -17 204q-11 29 -76 29v49q56 0 86.5 -16t41.5 -53q17 -61 17 -214z" />
    <glyph glyph-name="franc" unicode="&#x20a3;" horiz-adv-x="930" 
d="M499 613h-348v-244h339v-54h-339v-315h-59v667h407v-54zM916 237h-54q0 49 -23 67t-81 18q-28 0 -49.5 -7.5t-35.5 -17t-23.5 -29t-14.5 -33.5t-7.5 -41t-2.5 -40v-42v-15v-97h-58v369h56v-56q47 64 146 64q147 0 147 -140z" />
    <glyph glyph-name="lira" unicode="&#x20a4;" horiz-adv-x="567" 
d="M466 225h-292v-171h346v-54h-460v54h56v171h-56v53h56v57h-56v53h56v70v18.5v20.5t0.5 18.5t1.5 21t3 18.5t5 20l7 17t10 17.5t13 14.5q52 50 159 50q33 0 56 -2t52 -10.5t46 -23.5t29.5 -44.5t12.5 -70.5h-56q0 60 -32 78.5t-98 18.5q-95 0 -128 -37q-6 -6 -10 -14
t-6.5 -17.5t-4 -16.5t-2 -19.5t-0.5 -18v-19v-17.5v-73h292v-53h-292v-57h292v-53z" />
    <glyph glyph-name="peseta" unicode="&#x20a7;" horiz-adv-x="1568" 
d="M561 485q0 -44 -7 -76t-24 -52t-35 -32t-51 -17.5t-60 -7t-73 -1.5h-160v-299h-59v667h219q41 0 63 -0.5t53.5 -4t47.5 -10.5t35.5 -20t28.5 -32.5t15.5 -48t6.5 -66.5zM502 483q0 24 -2.5 43t-11 32.5l-14.5 23t-22 15.5t-24.5 9.5t-31 5t-32 1.5h-36.5h-19h-158v-260
h158q96 0 122 7q62 18 70 96q1 13 1 27zM1036 136q0 -144 -161 -144q-80 0 -118 34.5t-38 108.5v293h-81v52h81v187h58v-187h219v-52h-219v-293q0 -51 23 -71t77 -20q57 0 81 21.5t24 70.5h54zM1511 137q0 -79 -49 -112t-153 -33q-100 0 -146 33t-46 111h54q0 -50 29.5 -69
t107.5 -19q80 0 112.5 19t32.5 63q0 59 -22 70.5t-113 14.5q-94 3 -122 12q-69 27 -71 120q0 79 49 110t153 31q92 0 138 -32t46 -112h-54q0 49 -28.5 69.5t-100.5 20.5q-81 0 -113 -18t-32 -61q0 -15 1 -26t5 -19.5t6 -14t11 -9.5t12.5 -6.5t18 -4t19.5 -1.5t25.5 -1
t28.5 -1t37.5 -1t38 -2t32.5 -4.5t32 -8.5l23.5 -15t21 -23.5t11 -34t5.5 -46.5z" />
    <glyph glyph-name="Euro" unicode="&#x20ac;" horiz-adv-x="567" 
d="M509 144q0 -85 -49 -118.5t-144 -33.5q-155 0 -195 113q-14 43 -15 148h-52v53h52v56h-52v53h52q1 121 24 168q46 91 186 91q92 0 142.5 -33t50.5 -118h-57q0 58 -34.5 77.5t-101.5 19.5q-63 0 -94.5 -18.5t-44.5 -59.5q-12 -39 -13 -127h182v-53h-182v-56h182v-53h-182
q1 -104 18 -144q15 -32 45 -46.5t88 -14.5q69 0 103 19t34 77h57z" />
    <glyph glyph-name="afii61289" unicode="&#x2113;" horiz-adv-x="500" 
d="M249 269q-33 -171 -33 -208q0 -25 18 -25q26 0 51 54q8 18 19 18q13 0 13 -15q0 -23 -26 -60q-37 -47 -76 -47q-31 0 -49 23.5t-18 64.5q0 36 10 127q-41 -38 -49 -38q-5 0 -9.5 5t-4.5 11q0 10 20 27q23 20 50 52q41 216 89 318t108 102q29 0 46 -22t17 -59
q0 -87 -64 -192q-36 -58 -112 -136zM260 333q125 140 125 260q0 44 -23 44q-11 0 -22.5 -12.5t-18.5 -31.5q-31 -86 -61 -260z" />
    <glyph glyph-name="afii61352" unicode="&#x2116;" horiz-adv-x="1036" 
d="M972 317q0 -55 -7 -84.5t-27 -49.5q-37 -37 -121 -37q-85 0 -122 37q-19 19 -26 49t-7 85t7 85t26 49q37 37 122 37q84 0 121 -37q20 -20 27 -49.5t7 -84.5zM962 0h-290v50h290v-50zM558 0h-67l-343 578v-578h-56v667h66l344 -577v577h56v-667zM919 317q0 75 -21 98
q-22 22 -81 22q-67 0 -84.5 -25t-17.5 -95t17.5 -95t84.5 -25t84.5 25.5t17.5 94.5z" />
    <glyph glyph-name="trademark" unicode="&#x2122;" horiz-adv-x="853" 
d="M789 232h-47v346l-134 -346h-53l-132 345v-345h-48v435h63l144 -373l146 373h61v-435zM334 623h-131v-391h-50v391h-131v44h312v-44z" />
    <glyph glyph-name="uni2126" unicode="&#x2126;" horiz-adv-x="670" 
d="M590 0h-204v52q81 8 113 56q19 27 25.5 69.5t6.5 158.5q0 115 -6.5 156t-25.5 69q-40 57 -164 57t-164 -57q-19 -28 -25.5 -69t-6.5 -156q0 -116 6.5 -158.5t25.5 -69.5q32 -48 113 -56v-52h-204v52h80q-20 10 -34 25t-22.5 39t-13.5 42.5t-7 55t-2.5 57t-0.5 66.5
q0 147 14 200q24 92 112 121q51 16 129 16q167 0 219 -83q34 -54 36 -187v-67q0 -53 -0.5 -79t-4.5 -66t-12 -62t-24 -44t-39 -34h80v-52z" />
    <glyph glyph-name="estimated" unicode="&#x212e;" horiz-adv-x="798" 
d="M769 311h-599q-6 0 -6 -4v-181q0 -10 9 -21q93 -98 227 -98q70 0 131.5 29.5t106.5 80.5h54q-51 -60 -128.5 -95t-164.5 -35q-153 0 -261.5 97.5t-108.5 235.5q0 137 108.5 234.5t261.5 97.5t261.5 -97.5t108.5 -234.5v-9zM634 335v181q0 12 -10 22q-92 94 -224 94
t-226 -97q-10 -10 -10 -23v-177q0 -5 6 -5h459q5 0 5 5z" />
    <glyph glyph-name="onethird" unicode="&#x2153;" horiz-adv-x="839" 
d="M764 111q0 -58 -30 -87q-30 -30 -107 -30q-65 0 -98.5 23t-33.5 80h48q1 -33 19.5 -45.5t64.5 -12.5q52 0 70 12.5t18 58.5q0 47 -18 61t-68 14h-69v45h69q45 0 63.5 11.5t18.5 51.5q0 39 -16 53.5t-66 14.5q-46 0 -64.5 -12.5t-19.5 -45.5h-47q0 56 33 79.5t98 23.5
q69 0 100 -26t31 -85q0 -36 -8.5 -56.5t-31.5 -31.5q24 -11 34 -32.5t10 -63.5zM614 667l-337 -667h-52l336 667h53zM320 267h-231v43h90v291l-66 -59l-29 32l103 93h42v-357h91v-43z" />
    <glyph glyph-name="twothirds" unicode="&#x2154;" horiz-adv-x="839" 
d="M764 111q0 -58 -30 -87q-30 -30 -107 -30q-65 0 -98.5 23t-33.5 80h48q1 -33 19.5 -45.5t64.5 -12.5q52 0 70 12.5t18 58.5q0 47 -18 61t-68 14h-69v45h69q45 0 63.5 11.5t18.5 51.5q0 39 -16 53.5t-66 14.5q-46 0 -64.5 -12.5t-19.5 -45.5h-47q0 56 33 79.5t98 23.5
q69 0 100 -26t31 -85q0 -36 -8.5 -56.5t-31.5 -31.5q24 -11 34 -32.5t10 -63.5zM319 557q0 -26 -6.5 -45.5t-15 -31t-27.5 -21.5t-31.5 -14t-40.5 -12q-9 -3 -14 -4q-33 -10 -46 -15.5t-22 -20.5t-9 -43v-39h211v-44h-261v93q0 20 4 35.5t14 27t18.5 19t26 14.5l26.5 10.5
t31 9.5t30 8q36 11 49.5 25.5t13.5 47.5q0 41 -18 56t-64 15q-44 0 -63.5 -10.5t-19.5 -44.5h-49q0 55 33.5 77.5t97.5 22.5q67 0 99.5 -26t32.5 -90zM614 667l-337 -667h-52l336 667h53z" />
    <glyph glyph-name="oneeighth" unicode="&#x215b;" horiz-adv-x="839" 
d="M639 361q47 0 63.5 -14t16.5 -52q0 -40 -14.5 -53.5t-65.5 -13.5q-49 0 -64.5 14t-15.5 54q0 37 16.5 51t63.5 14zM723 111q0 -43 -18.5 -57t-65.5 -14t-65 14t-18 57q0 44 17 57.5t66 13.5q50 0 66 -12q18 -13 18 -59zM772 113q0 71 -43 93q39 23 39 90q0 60 -30 85
t-99 25t-98.5 -25t-29.5 -85q0 -66 39 -90q-43 -22 -43 -93q0 -59 29 -88q32 -31 103 -31q72 0 104 31q29 29 29 88zM614 667l-337 -667h-52l336 667h53zM320 267h-231v43h90v291l-66 -59l-29 32l103 93h42v-357h91v-43z" />
    <glyph glyph-name="threeeighths" unicode="&#x215c;" horiz-adv-x="839" 
d="M639 361q47 0 63.5 -14t16.5 -52q0 -40 -14.5 -53.5t-65.5 -13.5q-49 0 -64.5 14t-15.5 54q0 37 16.5 51t63.5 14zM723 111q0 -43 -18.5 -57t-65.5 -14t-65 14t-18 57q0 44 17 57.5t66 13.5q50 0 66 -12q18 -13 18 -59zM772 113q0 71 -43 93q39 23 39 90q0 60 -30 85
t-99 25t-98.5 -25t-29.5 -85q0 -66 39 -90q-43 -22 -43 -93q0 -59 29 -88q32 -31 103 -31q72 0 104 31q29 29 29 88zM325 378q0 -58 -30 -87q-30 -30 -107 -30q-65 0 -98.5 23t-33.5 80h48q1 -33 19.5 -45.5t64.5 -12.5q52 0 70 12.5t18 58.5q0 47 -18 62t-68 15h-69v45h69
q45 0 63.5 11t18.5 51q0 39 -16 53t-66 14q-46 0 -64.5 -12.5t-19.5 -45.5h-47q0 56 33 79.5t98 23.5q69 0 100 -25.5t31 -84.5q0 -36 -8 -56t-32 -31q44 -19 44 -98zM614 667l-337 -667h-52l336 667h53z" />
    <glyph glyph-name="fiveeighths" unicode="&#x215d;" horiz-adv-x="839" 
d="M639 361q47 0 63.5 -14t16.5 -52q0 -40 -14.5 -53.5t-65.5 -13.5q-49 0 -64.5 14t-15.5 54q0 37 16.5 51t63.5 14zM723 111q0 -43 -18.5 -57t-65.5 -14t-65 14t-18 57q0 44 17 57.5t66 13.5q50 0 66 -12q18 -13 18 -59zM772 113q0 71 -43 93q39 23 39 90q0 60 -30 85
t-99 25t-98.5 -25t-29.5 -85q0 -66 39 -90q-43 -22 -43 -93q0 -59 29 -88q32 -31 103 -31q72 0 104 31q29 29 29 88zM332 393q0 -69 -33 -101q-32 -31 -107 -31q-62 0 -95.5 23.5t-33.5 79.5h48q0 -31 19.5 -44t61.5 -13q51 0 71 17.5t20 65.5t-16.5 69.5t-65.5 21.5
q-82 0 -82 -48h-47v234h238v-45h-191v-122q32 26 84 26q72 0 100.5 -33t28.5 -100zM614 667l-337 -667h-52l336 667h53z" />
    <glyph glyph-name="seveneighths" unicode="&#x215e;" horiz-adv-x="839" 
d="M325 628l-174 -361h-52l173 355h-204v45h257v-39zM639 361q47 0 63.5 -14t16.5 -52q0 -40 -14.5 -53.5t-65.5 -13.5q-49 0 -64.5 14t-15.5 54q0 37 16.5 51t63.5 14zM723 111q0 -43 -18.5 -57t-65.5 -14t-65 14t-18 57q0 44 17 57.5t66 13.5q50 0 66 -12q18 -13 18 -59z
M772 113q0 71 -43 93q39 23 39 90q0 60 -30 85t-99 25t-98.5 -25t-29.5 -85q0 -66 39 -90q-43 -22 -43 -93q0 -59 29 -88q32 -31 103 -31q72 0 104 31q29 29 29 88zM614 667l-337 -667h-52l336 667h53z" />
    <glyph glyph-name="arrowleft" unicode="&#x2190;" horiz-adv-x="725" 
d="M688 301h-552l267 -264l-38 -38l-329 328l329 329l38 -38l-267 -263h552v-54z" />
    <glyph glyph-name="arrowup" unicode="&#x2191;" horiz-adv-x="728" 
d="M693 323l-38 -38l-263 267v-552h-54v552l-264 -267l-39 38l328 329z" />
    <glyph glyph-name="arrowright" unicode="&#x2192;" horiz-adv-x="725" 
d="M688 327l-329 -328l-38 38l267 264h-552v54h552l-267 263l38 38z" />
    <glyph glyph-name="arrowdown" unicode="&#x2193;" horiz-adv-x="725" 
d="M691 329l-329 -329l-328 329l38 38l264 -267v552h54v-552l263 267z" />
    <glyph glyph-name="uni2196" unicode="&#x2196;" horiz-adv-x="725" 
d="M601 226l-38 -38l-391 391l2 -377h-52v465h463v-52l-376 2z" />
    <glyph glyph-name="uni2197" unicode="&#x2197;" horiz-adv-x="725" 
d="M601 202h-52l2 377l-391 -391l-38 38l392 391l-376 -2v52h463v-465z" />
    <glyph glyph-name="uni2198" unicode="&#x2198;" horiz-adv-x="725" 
d="M601 0h-463v52l376 -2l-392 391l38 38l391 -391l-2 377h52v-465z" />
    <glyph glyph-name="uni2199" unicode="&#x2199;" horiz-adv-x="725" 
d="M601 441l-392 -391l376 2v-52h-463v465h52l-2 -377l391 391z" />
    <glyph glyph-name="partialdiff" unicode="&#x2202;" horiz-adv-x="561" 
d="M486 240q0 -80 -10 -124t-36 -71q-52 -53 -166 -53t-167 53q-25 27 -34.5 71t-9.5 125q0 46 3 77t14.5 66t32 56t57.5 34.5t90 13.5q36 0 65 -6l-189 192l38 35l224 -230q55 -55 71.5 -102t16.5 -137zM428 240q0 109 -37.5 150.5t-128.5 42.5q-47 0 -77 -13.5
t-43.5 -42.5t-18 -59t-4.5 -78q0 -56 3.5 -84.5t18 -57.5t47 -40.5t86.5 -11.5q32 0 55.5 4.5t40 12t27.5 22t17 27.5t9.5 36.5t4 41.5t0.5 50z" />
    <glyph glyph-name="uni2206" unicode="&#x2206;" horiz-adv-x="615" 
d="M593 0h-572l258 667h56zM509 52l-203 541l-203 -541h406z" />
    <glyph glyph-name="product" unicode="&#x220f;" horiz-adv-x="653" 
d="M560 0h-59v613h-350v-613h-59v613h-81v54h630v-54h-81v-613z" />
    <glyph glyph-name="summation" unicode="&#x2211;" horiz-adv-x="523" 
d="M33 667h468v-54h-395l252 -288l-251 -272l394 1v-54h-468v52l253 275l-253 287v53z" />
    <glyph glyph-name="minus" unicode="&#x2212;" horiz-adv-x="567" 
d="M521 214h-476v53h476v-53z" />
    <glyph glyph-name="radical" unicode="&#x221a;" horiz-adv-x="733" 
d="M733 827v-52h-233l-224 -775h-77l-89 318h-110v52h156l82 -300l217 757h278z" />
    <glyph glyph-name="infinity" unicode="&#x221e;" horiz-adv-x="567" 
d="M282 205q-35 -45 -64.5 -65.5t-67.5 -20.5q-52 0 -81 25t-29 93q0 67 28.5 93t80.5 26q47 0 73.5 -16.5t60.5 -68.5q37 52 62.5 68.5t71.5 16.5q52 0 80.5 -26t28.5 -93q0 -68 -29 -93t-81 -25q-38 0 -68.5 21t-65.5 65zM253 237q-5 6 -14.5 19t-13 17l-11 12t-11 10.5
l-10 7t-12.5 6t-13.5 2.5t-17.5 1q-32 0 -45 -15t-13 -60t14.5 -59t43.5 -14q28 0 46.5 14.5t56.5 58.5zM312 238q27 -32 38.5 -43.5t28.5 -21t37 -9.5q29 0 43.5 14t14.5 59t-13 60t-45 15q-8 0 -14.5 -1t-11.5 -1.5t-10.5 -3l-9 -4t-9 -6.5t-8 -7.5t-9 -10l-9.5 -11
t-11 -14z" />
    <glyph glyph-name="integral" unicode="&#x222b;" horiz-adv-x="415" 
d="M-190 -85h57q3 -31 28.5 -42.5t72.5 -11.5q57 0 83.5 18t26.5 69v614q0 142 166 142q157 0 160 -109h-57q-3 31 -28.5 42.5t-72.5 11.5q-57 0 -83.5 -18t-26.5 -69v-614q0 -142 -166 -142q-157 0 -160 109z" />
    <glyph glyph-name="approxequal" unicode="&#x2248;" horiz-adv-x="567" 
d="M531 355l-80 -58q-33 -25 -77 -26t-78 23q-54 39 -76 47q-39 12 -76 -13l-78 -55l-31 47l81 58q35 24 77.5 26t76.5 -22q1 -1 13.5 -10l14.5 -10.5t13.5 -9t15.5 -8.5t14.5 -6t15.5 -5t15 -1.5t17 1t15.5 6t17.5 9.5l79 54zM531 161l-80 -58q-33 -25 -77 -26t-78 23
q-54 39 -76 47q-39 12 -76 -13l-78 -55l-31 47l81 58q35 24 77.5 26t76.5 -22q1 -1 13.5 -10l14.5 -10.5t13.5 -9t15.5 -8.5t14.5 -6t15.5 -5t15 -1.5t17 1t15.5 6t17.5 9.5l79 54z" />
    <glyph glyph-name="notequal" unicode="&#x2260;" horiz-adv-x="567" 
d="M521 118h-327l-112 -108l-37 37l75 71h-75v53h129l145 140h-274v53h329l110 106l37 -37l-73 -69h73v-53h-127l-145 -140h272v-53z" />
    <glyph glyph-name="lessequal" unicode="&#x2264;" horiz-adv-x="567" 
d="M531 157l-21 -52l-467 188v54l467 186l21 -52l-420 -160zM533 0h-500v53h500v-53z" />
    <glyph glyph-name="greaterequal" unicode="&#x2265;" horiz-adv-x="567" 
d="M523 293l-467 -188l-21 52l420 164l-420 160l21 52l467 -186v-54zM533 0h-500v53h500v-53z" />
    <glyph glyph-name="lozenge" unicode="&#x25ca;" horiz-adv-x="654" 
d="M293 667h66l256 -333l-256 -334h-66l-251 334zM326 614l-211 -280l211 -281l218 281z" />
    <glyph glyph-name="Euro.fitted" unicode="&#xe002;" horiz-adv-x="555" 
d="M503 144q0 -85 -49 -118.5t-144 -33.5q-155 0 -195 113q-14 43 -15 148h-52v53h52v56h-52v53h52q1 121 24 168q46 91 186 91q92 0 142.5 -33t50.5 -118h-57q0 58 -34.5 77.5t-101.5 19.5q-63 0 -94.5 -18.5t-44.5 -59.5q-12 -39 -13 -127h182v-53h-182v-56h182v-53h-182
q1 -104 18 -144q15 -32 45 -46.5t88 -14.5q69 0 103 19t34 77h57z" />
    <glyph glyph-name="Dotaccent" unicode="&#xefed;" horiz-adv-x="421" 
d="M251 824q0 -40 -40 -40t-40 40t40 40t40 -40z" />
    <glyph glyph-name="Breve" unicode="&#xefee;" horiz-adv-x="420" 
d="M350 867q0 -68 -32 -97q-32 -28 -107 -28q-79 0 -109.5 28.5t-30.5 96.5h55q0 -47 15.5 -60.5t68.5 -13.5q54 0 69 13.5t15 60.5h56z" />
    <glyph glyph-name="Ogonek" unicode="&#xeff1;" horiz-adv-x="420" 
d="M182 -103q0 -58 68 -58q14 0 32 2v-45q-20 -3 -35 -3q-53 0 -85 24.5t-32 77.5q0 39 24.5 71.5t57.5 47.5l55 -14q-85 -41 -85 -103z" />
    <glyph glyph-name="Cedilla" unicode="&#xeff2;" horiz-adv-x="420" 
d="M282 -117q0 -38 -18 -56.5t-60 -18.5q-43 0 -62 15.5t-19 51.5h39q0 -19 8.5 -25.5t31.5 -6.5q24 0 31 9.5t7 29.5q0 7 -2 13t-4 10t-7 6.5l-8 4t-10.5 2t-10.5 0.5h-12h-11v82h42v-50q32 0 48.5 -18t16.5 -49z" />
    <glyph glyph-name="Tilde" unicode="&#xeff5;" horiz-adv-x="420" 
d="M393 817l-62 -33q-61 -33 -116 -1l-18 11t-19.5 11t-17 6.5t-21 1.5t-22.5 -8l-66 -35l-24 45q5 3 23 13t25 13.5t23 10.5t26.5 8.5t25 2.5t28 -3t27.5 -12q2 -1 14.5 -8.5t16.5 -9.5t15 -6.5t17.5 -4.5t16.5 1.5t19 6.5l65 35z" />
    <glyph glyph-name="Circumflex" unicode="&#xeff7;" horiz-adv-x="420" 
d="M365 736h-67l-87 83l-87 -83h-68l133 126h42z" />
    <glyph glyph-name="parenleft.dnom" unicode="&#xf62c;" horiz-adv-x="213" 
d="M68 193q0 153 17 214q11 37 41.5 53t86.5 16v-49q-65 0 -76 -29q-17 -39 -17 -204q0 -160 17 -203q6 -15 22 -21.5t54 -6.5v-50q-56 0 -86.5 16t-41.5 53q-17 61 -17 211z" />
    <glyph glyph-name="parenright.dnom" unicode="&#xf62d;" horiz-adv-x="213" 
d="M145 193q0 -150 -17 -211q-11 -37 -41.5 -53t-86.5 -16v50q38 0 54 6.5t22 21.5q17 43 17 203q0 165 -17 204q-11 29 -76 29v49q56 0 86.5 -16t41.5 -53q17 -61 17 -214z" />
    <glyph glyph-name="parenleft.numr" unicode="&#xf631;" horiz-adv-x="213" 
d="M68 460q0 153 17 214q11 37 41.5 53t86.5 16v-49q-65 0 -76 -29q-17 -39 -17 -204q0 -161 17 -203q6 -15 22 -21.5t54 -6.5v-50q-56 0 -86.5 16t-41.5 53q-17 61 -17 211z" />
    <glyph glyph-name="parenright.numr" unicode="&#xf632;" horiz-adv-x="213" 
d="M145 460q0 -150 -17 -211q-11 -37 -41.5 -53t-86.5 -16v50q38 0 54 6.5t22 21.5q17 42 17 203q0 165 -17 204q-11 29 -76 29v49q56 0 86.5 -16t41.5 -53q17 -61 17 -214z" />
    <glyph glyph-name="zero.fitted" unicode="&#xf639;" horiz-adv-x="555" 
d="M488 333q0 -112 -3 -156.5t-13 -72.5q-38 -112 -195 -112q-156 0 -195 112q-16 47 -16 229q0 121 5 169.5t20 80.5q45 91 186 91q142 0 186 -91q16 -31 20.5 -79t4.5 -171zM430 333q0 167 -14 209q-12 41 -43.5 59.5t-95.5 18.5q-63 0 -94.5 -18.5t-44.5 -59.5
q-14 -47 -14 -209q0 -182 19 -225q15 -32 46 -47t88 -15q107 0 134 62q11 24 15 70.5t4 154.5z" />
    <glyph glyph-name="two.fitted" unicode="&#xf63a;" horiz-adv-x="555" 
d="M489 485q0 -92 -50 -139q-37 -35 -165 -70q-47 -13 -69.5 -21t-40 -24t-22.5 -38.5t-5 -61.5v-78h351v-53h-409v150q0 27 5 49t12 37.5t22 29t26 21.5t34.5 16.5t37.5 13t43 12.5q116 33 140 59q32 32 32 97q0 75 -31.5 105t-115.5 30q-78 0 -112 -21t-34 -76h-57
q0 83 50 117t151 34q104 0 154 -40q53 -41 53 -149z" />
    <glyph glyph-name="three.fitted" unicode="&#xf63b;" horiz-adv-x="555" 
d="M483 186q0 -104 -51.5 -149t-159.5 -45q-45 0 -78.5 6t-63.5 22t-45.5 47t-15.5 77h58q0 -54 33.5 -76t112.5 -22q80 0 116 29t36 108q0 86 -29.5 111t-123.5 25h-87v54h87q80 0 113.5 24t33.5 100q0 72 -29.5 97.5t-117.5 25.5q-80 0 -115.5 -22t-35.5 -75h-58
q0 83 52.5 117t156.5 34q110 0 157.5 -40t47.5 -135q0 -116 -73 -152q49 -18 64 -56.5t15 -104.5z" />
    <glyph glyph-name="four.fitted" unicode="&#xf63c;" horiz-adv-x="555" 
d="M503 192h-98v-192h-56v192h-298v51l298 424h56v-422h98v-53zM349 245v337l-234 -337h234z" />
    <glyph glyph-name="five.fitted" unicode="&#xf63d;" horiz-adv-x="555" 
d="M485 205q0 -116 -49 -164q-50 -49 -165 -49q-99 0 -148 34t-49 118h56q0 -54 31.5 -76t109.5 -22q88 0 122 33t34 122q0 91 -27 129.5t-116 38.5q-145 0 -145 -83h-55v381h379v-54h-323v-234q38 44 146 44q114 0 156.5 -53.5t42.5 -164.5z" />
    <glyph glyph-name="six.fitted" unicode="&#xf63e;" horiz-adv-x="555" 
d="M487 206q0 -111 -49.5 -162.5t-156.5 -51.5q-72 0 -122.5 28.5t-70.5 82.5q-21 55 -21 201q0 164 13 233q24 137 204 137q190 0 190 -151h-56q0 50 -32.5 73.5t-100.5 23.5q-65 0 -98 -19t-45 -60q-13 -44 -16 -188q54 70 159 70q109 0 155.5 -50.5t46.5 -166.5zM429 205
q0 94 -30.5 129t-108.5 35q-161 0 -161 -159q0 -87 36 -125.5t115 -38.5q82 0 115.5 35.5t33.5 123.5z" />
    <glyph glyph-name="seven.fitted" unicode="&#xf63f;" horiz-adv-x="555" 
d="M484 615l-293 -615h-62l295 613h-353v54h413v-52z" />
    <glyph glyph-name="eight.fitted" unicode="&#xf640;" horiz-adv-x="555" 
d="M490 184q0 -97 -45 -143q-49 -49 -167 -49q-119 0 -167 49q-46 46 -46 143q0 70 21 107.5t68 54.5q-46 19 -64.5 55t-18.5 98q0 95 48 135t158 40q111 0 159 -40t48 -135q0 -63 -17.5 -98.5t-64.5 -54.5q47 -17 67.5 -54.5t20.5 -107.5zM425 497h1q0 72 -30.5 97.5
t-117.5 25.5q-88 0 -118.5 -25.5t-30.5 -95.5q0 -76 30 -100q37 -27 118 -27q83 0 119 27q29 22 29 98zM432 181q0 83 -37 112q-32 25 -117 25q-91 0 -123 -26t-32 -110q0 -82 33.5 -109t120.5 -27q86 0 120.5 27t34.5 108z" />
    <glyph glyph-name="nine.fitted" unicode="&#xf641;" horiz-adv-x="555" 
d="M488 362q0 -164 -13 -233q-24 -137 -204 -137q-190 0 -190 151h56q0 -50 32.5 -73.5t100.5 -23.5q66 0 98.5 19t44.5 60q16 50 16 188q-54 -70 -159 -70q-109 0 -155.5 50.5t-46.5 166.5q0 110 50 162t156 52q73 0 123 -28.5t70 -82.5q21 -55 21 -201zM426 456
q0 87 -36 125.5t-115 38.5q-82 0 -115.5 -35.5t-33.5 -123.5q0 -94 30.5 -129t108.5 -35q82 0 121.5 39t39.5 120z" />
    <glyph glyph-name="zero.taboldstyle" unicode="&#xf643;" horiz-adv-x="555" 
d="M488 333q0 -112 -3 -156.5t-13 -72.5q-38 -112 -195 -112q-156 0 -195 112q-16 47 -16 229q0 121 5 169.5t20 80.5q45 91 186 91q142 0 186 -91q16 -31 20.5 -79t4.5 -171zM430 333q0 167 -14 209q-12 41 -43.5 59.5t-95.5 18.5q-63 0 -94.5 -18.5t-44.5 -59.5
q-14 -47 -14 -209q0 -182 19 -225q15 -32 46 -47t88 -15q107 0 134 62q11 24 15 70.5t4 154.5z" />
    <glyph glyph-name="one.taboldstyle" unicode="&#xf644;" horiz-adv-x="555" 
d="M490 0h-382v53h162v541l-131 -118l-38 38l174 153h53v-614h162v-53z" />
    <glyph glyph-name="two.taboldstyle" unicode="&#xf645;" horiz-adv-x="555" 
d="M489 485q0 -92 -50 -139q-37 -35 -165 -70q-47 -13 -69.5 -21t-40 -24t-22.5 -38.5t-5 -61.5v-78h351v-53h-409v150q0 27 5 49t12 37.5t22 29t26 21.5t34.5 16.5t37.5 13t43 12.5q116 33 140 59q32 32 32 97q0 75 -31.5 105t-115.5 30q-78 0 -112 -21t-34 -76h-57
q0 83 50 117t151 34q104 0 154 -40q53 -41 53 -149z" />
    <glyph glyph-name="three.taboldstyle" unicode="&#xf646;" horiz-adv-x="555" 
d="M483 186q0 -104 -51.5 -149t-159.5 -45q-45 0 -78.5 6t-63.5 22t-45.5 47t-15.5 77h58q0 -54 33.5 -76t112.5 -22q80 0 116 29t36 108q0 86 -29.5 111t-123.5 25h-87v54h87q80 0 113.5 24t33.5 100q0 72 -29.5 97.5t-117.5 25.5q-80 0 -115.5 -22t-35.5 -75h-58
q0 83 52.5 117t156.5 34q110 0 157.5 -40t47.5 -135q0 -116 -73 -152q49 -18 64 -56.5t15 -104.5z" />
    <glyph glyph-name="four.taboldstyle" unicode="&#xf647;" horiz-adv-x="555" 
d="M503 192h-98v-192h-56v192h-298v51l298 424h56v-422h98v-53zM349 245v337l-234 -337h234z" />
    <glyph glyph-name="five.taboldstyle" unicode="&#xf648;" horiz-adv-x="555" 
d="M485 205q0 -116 -49 -164q-50 -49 -165 -49q-99 0 -148 34t-49 118h56q0 -54 31.5 -76t109.5 -22q88 0 122 33t34 122q0 91 -27 129.5t-116 38.5q-145 0 -145 -83h-55v381h379v-54h-323v-234q38 44 146 44q114 0 156.5 -53.5t42.5 -164.5z" />
    <glyph glyph-name="six.taboldstyle" unicode="&#xf649;" horiz-adv-x="555" 
d="M487 206q0 -111 -49.5 -162.5t-156.5 -51.5q-72 0 -122.5 28.5t-70.5 82.5q-21 55 -21 201q0 164 13 233q24 137 204 137q190 0 190 -151h-56q0 50 -32.5 73.5t-100.5 23.5q-65 0 -98 -19t-45 -60q-13 -44 -16 -188q54 70 159 70q109 0 155.5 -50.5t46.5 -166.5zM429 205
q0 94 -30.5 129t-108.5 35q-161 0 -161 -159q0 -87 36 -125.5t115 -38.5q82 0 115.5 35.5t33.5 123.5z" />
    <glyph glyph-name="seven.taboldstyle" unicode="&#xf64a;" horiz-adv-x="555" 
d="M484 615l-293 -615h-62l295 613h-353v54h413v-52z" />
    <glyph glyph-name="eight.taboldstyle" unicode="&#xf64b;" horiz-adv-x="555" 
d="M490 184q0 -97 -45 -143q-49 -49 -167 -49q-119 0 -167 49q-46 46 -46 143q0 70 21 107.5t68 54.5q-46 19 -64.5 55t-18.5 98q0 95 48 135t158 40q111 0 159 -40t48 -135q0 -63 -17.5 -98.5t-64.5 -54.5q47 -17 67.5 -54.5t20.5 -107.5zM425 497h1q0 72 -30.5 97.5
t-117.5 25.5q-88 0 -118.5 -25.5t-30.5 -95.5q0 -76 30 -100q37 -27 118 -27q83 0 119 27q29 22 29 98zM432 181q0 83 -37 112q-32 25 -117 25q-91 0 -123 -26t-32 -110q0 -82 33.5 -109t120.5 -27q86 0 120.5 27t34.5 108z" />
    <glyph glyph-name="nine.taboldstyle" unicode="&#xf64c;" horiz-adv-x="555" 
d="M488 362q0 -164 -13 -233q-24 -137 -204 -137q-190 0 -190 151h56q0 -50 32.5 -73.5t100.5 -23.5q66 0 98.5 19t44.5 60q16 50 16 188q-54 -70 -159 -70q-109 0 -155.5 50.5t-46.5 166.5q0 110 50 162t156 52q73 0 123 -28.5t70 -82.5q21 -55 21 -201zM426 456
q0 87 -36 125.5t-115 38.5q-82 0 -115.5 -35.5t-33.5 -123.5q0 -94 30.5 -129t108.5 -35q82 0 121.5 39t39.5 120z" />
    <glyph glyph-name="Euro.taboldstyle" unicode="&#xf64e;" horiz-adv-x="555" 
d="M503 144q0 -85 -49 -118.5t-144 -33.5q-155 0 -195 113q-14 43 -15 148h-52v53h52v56h-52v53h52q1 121 24 168q46 91 186 91q92 0 142.5 -33t50.5 -118h-57q0 58 -34.5 77.5t-101.5 19.5q-63 0 -94.5 -18.5t-44.5 -59.5q-12 -39 -13 -127h182v-53h-182v-56h182v-53h-182
q1 -104 18 -144q15 -32 45 -46.5t88 -14.5q69 0 103 19t34 77h57z" />
    <glyph glyph-name="florin.taboldstyle" unicode="&#xf64f;" horiz-adv-x="555" 
d="M509 523h-56q0 60 -32 78.5t-98 18.5q-95 0 -128 -37q-6 -6 -10 -14t-6.5 -17.5t-4 -16.5t-2 -19.5t-0.5 -18v-19v-17.5v-101h292v-53h-292v-498h-58v498h-56v53h56v98v18.5v20.5t0.5 18.5t1.5 21t3 18.5t5 20l7 17t10 17.5t13 14.5q52 50 159 50q33 0 56 -2t52 -10.5
t46 -23.5t29.5 -44.5t12.5 -70.5z" />
    <glyph glyph-name="sterling.taboldstyle" unicode="&#xf651;" horiz-adv-x="555" 
d="M518 0h-460v54h56v253h-56v53h56v98v18.5v20.5t0.5 18.5t1.5 21t3 18.5t5 20l7 17t10 17.5t13 14.5q52 50 159 50q33 0 56 -2t52 -10.5t46 -23.5t29.5 -44.5t12.5 -70.5h-56q0 60 -32 78.5t-98 18.5q-95 0 -128 -37q-6 -6 -10 -14t-6.5 -17.5t-4 -16.5t-2 -19.5t-0.5 -18
v-19v-17.5v-101h292v-53h-292v-253h346v-54z" />
    <glyph glyph-name="yen.taboldstyle" unicode="&#xf652;" horiz-adv-x="555" 
d="M530 667l-150 -252h84v-52h-115l-33 -56h148v-52h-157v-255h-58v255h-157v52h149l-34 56h-115v52h84l-151 252h67l188 -318l185 318h65z" />
    <glyph glyph-name="dollar.taboldstyle" unicode="&#xf653;" horiz-adv-x="555" 
d="M484 190q0 -96 -43.5 -141.5t-137.5 -48.5v-99h-54v99q-91 2 -134.5 35t-43.5 109h56q0 -49 26.5 -69.5t95.5 -21.5v267q-92 8 -132.5 43.5t-40.5 128.5q0 89 43.5 130.5t129.5 44.5v95h54v-95q91 -2 132.5 -34.5t41.5 -109.5h-56q0 50 -24.5 70t-93.5 21v-241
q55 -4 86.5 -12t54.5 -28.5t31.5 -54t8.5 -88.5zM249 376v238q-65 -2 -91.5 -30t-26.5 -97q0 -66 25.5 -86.5t92.5 -24.5zM429 194q0 76 -23.5 97t-102.5 27v-266q69 2 97.5 34.5t28.5 107.5z" />
    <glyph glyph-name="cent.taboldstyle" unicode="&#xf654;" horiz-adv-x="555" 
d="M479 136q0 -134 -168 -143v-88h-54v88q-90 6 -135 52q-26 27 -36 71.5t-10 124.5q0 79 10 123t36 71q45 46 135 52v88h54v-88q168 -9 168 -143h-54q0 83 -114 89v-386q114 6 114 89h54zM257 47v386q-34 -3 -56.5 -13t-36 -24t-20 -40t-8.5 -50.5t-2 -64.5
q0 -100 22 -143.5t101 -50.5z" />
    <glyph glyph-name="zero.dnom" unicode="&#xf655;" 
d="M200 40q55 0 70 33.5t15 126.5q0 95 -15 127.5t-70 32.5t-70 -32.5t-15 -127.5q0 -93 15 -126.5t70 -33.5zM200 -6q-25 0 -44.5 4t-33.5 13.5t-24 18.5t-16 26.5t-9.5 29.5t-5 35.5t-2 37.5t-0.5 41q0 31 0.5 46t3 41t7.5 40t14.5 31.5t23.5 26t36 15t50 6.5t50 -6.5
t36 -15t23.5 -26t14.5 -31.5t7.5 -40t3 -41t0.5 -46q0 -28 -0.5 -41.5t-2 -37.5t-5 -36t-9.5 -29.5t-16 -26.5t-24 -18t-33.5 -13t-44.5 -4z" />
    <glyph glyph-name="one.dnom" unicode="&#xf656;" 
d="M320 0h-231v43h90v291l-66 -59l-29 32l103 93h42v-357h91v-43z" />
    <glyph glyph-name="two.dnom" unicode="&#xf657;" 
d="M319 290q0 -26 -6.5 -45.5t-15 -31t-27.5 -21.5t-31.5 -14t-40.5 -12q-9 -3 -14 -4q-33 -10 -46 -15.5t-22 -20.5t-9 -43v-39h211v-44h-261v93q0 20 4 35.5t14 27t18.5 19t26 14.5l26.5 10.5t31 9.5t30 8q36 11 49.5 25.5t13.5 47.5q0 41 -18 56t-64 15
q-44 0 -63.5 -10.5t-19.5 -44.5h-49q0 55 33.5 77.5t97.5 22.5q67 0 99.5 -26t32.5 -90z" />
    <glyph glyph-name="three.dnom" unicode="&#xf658;" 
d="M325 111q0 -58 -30 -87q-30 -30 -107 -30q-65 0 -98.5 23t-33.5 80h48q1 -33 19.5 -45.5t64.5 -12.5q52 0 70 12.5t18 58.5q0 47 -18 61t-68 14h-69v45h69q45 0 63.5 11.5t18.5 51.5q0 39 -16 53.5t-66 14.5q-46 0 -64.5 -12.5t-19.5 -45.5h-47q0 56 33 79.5t98 23.5
q69 0 100 -26t31 -85q0 -36 -8.5 -56.5t-31.5 -31.5q24 -11 34 -32.5t10 -63.5z" />
    <glyph glyph-name="four.dnom" unicode="&#xf659;" 
d="M339 105h-61v-105h-48v105h-182v41l186 254h44v-254h61v-41zM230 146v180l-127 -180h127z" />
    <glyph glyph-name="five.dnom" unicode="&#xf65a;" 
d="M332 126q0 -69 -33 -101q-32 -31 -107 -31q-62 0 -95.5 23.5t-33.5 79.5h48q0 -31 19.5 -44t61.5 -13q51 0 71 17.5t20 65.5t-16.5 69.5t-65.5 21.5q-82 0 -82 -48h-47v234h238v-45h-191v-122q32 26 84 26q72 0 100.5 -33t28.5 -100z" />
    <glyph glyph-name="six.dnom" unicode="&#xf65b;" 
d="M330 125q0 -68 -31.5 -99.5t-98.5 -31.5q-43 0 -71 14t-40.5 41.5t-16.5 53t-4 63.5v51.5t1.5 44t3.5 39.5t6.5 31.5t11.5 27.5l17 19.5t23.5 15.5t31.5 7.5t40 3.5q119 0 119 -101h-47q0 56 -72 56q-56 0 -71 -27t-15 -107q33 30 86 30q69 0 98 -30.5t29 -101.5z
M281 124q0 50 -16 69t-58 19q-88 0 -88 -85q0 -46 19.5 -66.5t61.5 -20.5q45 0 63 18.5t18 65.5z" />
    <glyph glyph-name="seven.dnom" unicode="&#xf65c;" 
d="M325 361l-174 -361h-52l173 355h-204v45h257v-39z" />
    <glyph glyph-name="eight.dnom" unicode="&#xf65d;" 
d="M200 361q-47 0 -63.5 -14t-16.5 -51q0 -40 15.5 -54t64.5 -14q51 0 65.5 13.5t14.5 53.5q0 38 -16.5 52t-63.5 14zM284 111q0 46 -18 59q-16 12 -66 12q-49 0 -66 -13.5t-17 -57.5q0 -43 18 -57t65 -14t65.5 14t18.5 57zM333 113q0 -59 -29 -88q-32 -31 -104 -31
q-71 0 -103 31q-29 29 -29 88q0 71 43 93q-39 24 -39 90q0 60 29.5 85t98.5 25t99 -25t30 -85q0 -67 -39 -90q43 -22 43 -93z" />
    <glyph glyph-name="nine.dnom" unicode="&#xf65e;" 
d="M70 275q0 68 31.5 99.5t98.5 31.5q43 0 71 -14t40.5 -41.5t16.5 -53t4 -63.5v-49.5t-1 -41.5t-2.5 -37.5t-5 -30.5t-8.5 -26.5l-12.5 -19.5t-17 -16.5t-22.5 -10t-29.5 -7t-36.5 -1.5q-119 0 -119 101h47q0 -56 72 -56q56 0 71 27t15 107q-33 -30 -86 -30q-69 0 -98 30.5
t-29 101.5zM119 276q0 -50 16 -69t58 -19q88 0 88 85q0 46 -19.5 66.5t-61.5 20.5q-45 0 -63 -18.5t-18 -65.5z" />
    <glyph glyph-name="zero.numr" unicode="&#xf661;" 
d="M200 307q55 0 70 33.5t15 126.5q0 95 -15 127.5t-70 32.5t-70 -32.5t-15 -127.5q0 -93 15 -126.5t70 -33.5zM200 261q-25 0 -44.5 4t-33.5 13.5t-24 18.5t-16 26.5t-9.5 29.5t-5 35.5t-2 37.5t-0.5 41q0 31 0.5 46t3 41t7.5 40t14.5 31.5t23.5 26t36 15t50 6.5t50 -6.5
t36 -15t23.5 -26t14.5 -31.5t7.5 -40t3 -41t0.5 -46q0 -28 -0.5 -41.5t-2 -37.5t-5 -36t-9.5 -29.5t-16 -26.5t-24 -18t-33.5 -13t-44.5 -4z" />
    <glyph glyph-name="one.numr" unicode="&#xf662;" 
d="M320 267h-231v43h90v291l-66 -59l-29 32l103 93h42v-357h91v-43z" />
    <glyph glyph-name="two.numr" unicode="&#xf663;" 
d="M319 557q0 -26 -6.5 -45.5t-15 -31t-27.5 -21.5t-31.5 -14t-40.5 -12q-9 -3 -14 -4q-33 -10 -46 -15.5t-22 -20.5t-9 -43v-39h211v-44h-261v93q0 20 4 35.5t14 27t18.5 19t26 14.5l26.5 10.5t31 9.5t30 8q36 11 49.5 25.5t13.5 47.5q0 41 -18 56t-64 15
q-44 0 -63.5 -10.5t-19.5 -44.5h-49q0 55 33.5 77.5t97.5 22.5q67 0 99.5 -26t32.5 -90z" />
    <glyph glyph-name="three.numr" unicode="&#xf664;" 
d="M325 378q0 -58 -30 -87q-30 -30 -107 -30q-65 0 -98.5 23t-33.5 80h48q1 -33 19.5 -45.5t64.5 -12.5q52 0 70 12.5t18 58.5q0 47 -18 62t-68 15h-69v45h69q45 0 63.5 11t18.5 51q0 39 -16 53t-66 14q-46 0 -64.5 -12.5t-19.5 -45.5h-47q0 56 33 79.5t98 23.5
q69 0 100 -25.5t31 -84.5q0 -36 -8 -56t-32 -31q44 -19 44 -98z" />
    <glyph glyph-name="four.numr" unicode="&#xf665;" 
d="M345 372h-61v-105h-48v105h-182v41l186 254h44v-254h61v-41zM236 413v180l-127 -180h127z" />
    <glyph glyph-name="five.numr" unicode="&#xf666;" 
d="M332 393q0 -69 -33 -101q-32 -31 -107 -31q-62 0 -95.5 23.5t-33.5 79.5h48q0 -31 19.5 -44t61.5 -13q51 0 71 17.5t20 65.5t-16.5 69.5t-65.5 21.5q-82 0 -82 -48h-47v234h238v-45h-191v-122q32 26 84 26q72 0 100.5 -33t28.5 -100z" />
    <glyph glyph-name="six.numr" unicode="&#xf667;" 
d="M330 392q0 -68 -31.5 -99.5t-98.5 -31.5q-43 0 -71 14t-40.5 41.5t-16.5 53t-4 63.5v51.5t1.5 44t3.5 39.5t6.5 31.5t11.5 27.5l17 19.5t23.5 15.5t31.5 7.5t40 3.5q119 0 119 -101h-47q0 56 -72 56q-56 0 -71 -27t-15 -107q33 30 86 30q69 0 98 -30.5t29 -101.5z
M281 391q0 50 -16 69t-58 19q-88 0 -88 -85q0 -46 19.5 -66.5t61.5 -20.5q45 0 63 18.5t18 65.5z" />
    <glyph glyph-name="seven.numr" unicode="&#xf668;" 
d="M325 628l-174 -361h-52l173 355h-204v45h257v-39z" />
    <glyph glyph-name="eight.numr" unicode="&#xf669;" 
d="M200 628q-47 0 -63.5 -14t-16.5 -51q0 -40 15.5 -54t64.5 -14q51 0 65.5 13.5t14.5 53.5q0 38 -16.5 52t-63.5 14zM284 378q0 46 -18 59q-16 12 -66 12q-49 0 -66 -13.5t-17 -57.5q0 -43 18 -57t65 -14t65.5 14t18.5 57zM333 380q0 -59 -29 -88q-32 -31 -104 -31
q-71 0 -103 31q-29 29 -29 88q0 71 43 93q-39 24 -39 90q0 60 29.5 85t98.5 25t99 -25t30 -85q0 -67 -39 -90q43 -22 43 -93z" />
    <glyph glyph-name="nine.numr" unicode="&#xf66a;" 
d="M70 542q0 68 31.5 99.5t98.5 31.5q43 0 71 -14t40.5 -41.5t16.5 -53t4 -63.5v-49.5t-1 -41.5t-2.5 -37.5t-5 -30.5t-8.5 -26.5l-12.5 -19.5t-17 -16.5t-22.5 -10t-29.5 -7t-36.5 -1.5q-119 0 -119 101h47q0 -56 72 -56q56 0 71 27t15 107q-33 -30 -86 -30q-69 0 -98 30.5
t-29 101.5zM119 543q0 -50 16 -69t58 -19q88 0 88 85q0 46 -19.5 66.5t-61.5 20.5q-45 0 -63 -18.5t-18 -65.5z" />
    <glyph glyph-name="Acute" unicode="&#xf6c9;" horiz-adv-x="420" 
d="M308 862l-129 -126h-67l129 126h67z" />
    <glyph glyph-name="Caron" unicode="&#xf6ca;" horiz-adv-x="420" 
d="M365 852l-133 -126h-42l-134 126h67l87 -83l87 83h68z" />
    <glyph glyph-name="Dieresis" unicode="&#xf6cb;" horiz-adv-x="420" 
d="M357 824q0 -40 -40 -40t-40 40t40 40t40 -40zM142 824q0 -40 -40 -40t-40 40t40 40t40 -40z" />
    <glyph glyph-name="Grave" unicode="&#xf6ce;" horiz-adv-x="416" 
d="M306 736h-67l-130 126h67z" />
    <glyph glyph-name="Hungarumlaut" unicode="&#xf6cf;" horiz-adv-x="420" 
d="M402 862l-126 -126h-68l126 126h68zM241 862l-125 -126h-68l126 126h67z" />
    <glyph glyph-name="Macron" unicode="&#xf6d0;" horiz-adv-x="420" 
d="M377 799h-333v50h333v-50z" />
    <glyph glyph-name="one.fitted" unicode="&#xf6dc;" horiz-adv-x="555" 
d="M490 0h-382v53h162v541l-131 -118l-38 38l174 153h53v-614h162v-53z" />
    <glyph glyph-name="zerooldstyle" unicode="&#xf730;" horiz-adv-x="567" 
d="M494 333q0 -112 -3 -156.5t-13 -72.5q-38 -112 -195 -112q-156 0 -195 112q-16 47 -16 229q0 121 5 169.5t20 80.5q45 91 186 91q142 0 186 -91q16 -31 20.5 -79t4.5 -171zM436 333q0 167 -14 209q-12 41 -43.5 59.5t-95.5 18.5q-63 0 -94.5 -18.5t-44.5 -59.5
q-14 -47 -14 -209q0 -182 19 -225q15 -32 46 -47t88 -15q107 0 134 62q11 24 15 70.5t4 154.5z" />
    <glyph glyph-name="oneoldstyle" unicode="&#xf731;" horiz-adv-x="453" 
d="M435 0h-382v53h162v541l-131 -118l-38 38l174 153h53v-614h162v-53z" />
    <glyph glyph-name="twooldstyle" unicode="&#xf732;" horiz-adv-x="555" 
d="M489 485q0 -92 -50 -139q-37 -35 -165 -70q-47 -13 -69.5 -21t-40 -24t-22.5 -38.5t-5 -61.5v-78h351v-53h-409v150q0 27 5 49t12 37.5t22 29t26 21.5t34.5 16.5t37.5 13t43 12.5q116 33 140 59q32 32 32 97q0 75 -31.5 105t-115.5 30q-78 0 -112 -21t-34 -76h-57
q0 83 50 117t151 34q104 0 154 -40q53 -41 53 -149z" />
    <glyph glyph-name="threeoldstyle" unicode="&#xf733;" horiz-adv-x="556" 
d="M483 186q0 -104 -51.5 -149t-159.5 -45q-45 0 -78.5 6t-63.5 22t-45.5 47t-15.5 77h58q0 -54 33.5 -76t112.5 -22q80 0 116 29t36 108q0 86 -29.5 111t-123.5 25h-87v54h87q80 0 113.5 24t33.5 100q0 72 -29.5 97.5t-117.5 25.5q-80 0 -115.5 -22t-35.5 -75h-58
q0 83 52.5 117t156.5 34q110 0 157.5 -40t47.5 -135q0 -116 -73 -152q49 -18 64 -56.5t15 -104.5z" />
    <glyph glyph-name="fouroldstyle" unicode="&#xf734;" horiz-adv-x="557" 
d="M503 192h-98v-192h-56v192h-298v51l298 424h56v-422h98v-53zM349 245v337l-234 -337h234z" />
    <glyph glyph-name="fiveoldstyle" unicode="&#xf735;" horiz-adv-x="567" 
d="M492 205q0 -116 -49 -164q-50 -49 -165 -49q-99 0 -148 34t-49 118h56q0 -54 31.5 -76t109.5 -22q88 0 122 33t34 122q0 91 -27 129.5t-116 38.5q-145 0 -145 -83h-55v381h379v-54h-323v-234q38 44 146 44q114 0 156.5 -53.5t42.5 -164.5z" />
    <glyph glyph-name="sixoldstyle" unicode="&#xf736;" horiz-adv-x="561" 
d="M492 206q0 -111 -49.5 -162.5t-156.5 -51.5q-72 0 -122.5 28.5t-70.5 82.5q-21 55 -21 201q0 164 13 233q24 137 204 137q190 0 190 -151h-56q0 50 -32.5 73.5t-100.5 23.5q-65 0 -98 -19t-45 -60q-13 -44 -16 -188q54 70 159 70q109 0 155.5 -50.5t46.5 -166.5zM434 205
q0 94 -30.5 129t-108.5 35q-161 0 -161 -159q0 -87 36 -125.5t115 -38.5q82 0 115.5 35.5t33.5 123.5z" />
    <glyph glyph-name="sevenoldstyle" unicode="&#xf737;" horiz-adv-x="460" 
d="M436 615l-293 -615h-62l295 613h-353v54h413v-52z" />
    <glyph glyph-name="eightoldstyle" unicode="&#xf738;" horiz-adv-x="569" 
d="M497 184q0 -97 -45 -143q-49 -49 -167 -49q-119 0 -167 49q-46 46 -46 143q0 70 21 107.5t68 54.5q-46 19 -64.5 55t-18.5 98q0 95 48 135t158 40q111 0 159 -40t48 -135q0 -63 -17.5 -98.5t-64.5 -54.5q47 -17 67.5 -54.5t20.5 -107.5zM432 497h1q0 72 -30.5 97.5
t-117.5 25.5q-88 0 -118.5 -25.5t-30.5 -95.5q0 -76 30 -100q38 -27 118 -27q83 0 119 27q29 22 29 98zM439 181q0 83 -37 112q-32 25 -117 25q-91 0 -123 -26t-32 -110q0 -82 33.5 -109t120.5 -27q86 0 120.5 27t34.5 108z" />
    <glyph glyph-name="nineoldstyle" unicode="&#xf739;" horiz-adv-x="562" 
d="M489 362q0 -164 -13 -233q-24 -137 -204 -137q-190 0 -190 151h56q0 -50 32.5 -73.5t100.5 -23.5q66 0 98.5 19t44.5 60q16 50 16 188q-54 -70 -159 -70q-109 0 -155.5 50.5t-46.5 166.5q0 110 50 162t156 52q73 0 123 -28.5t70 -82.5q21 -55 21 -201zM427 456
q0 87 -36 125.5t-115 38.5q-82 0 -115.5 -35.5t-33.5 -123.5q0 -94 30.5 -129t108.5 -35q82 0 121.5 39t39.5 120z" />
    <glyph glyph-name="Foundry" unicode="&#xf8ff;" horiz-adv-x="832" 
d="M752 334q0 -111 -17.5 -172t-56.5 -99t-101.5 -54t-162.5 -16q-99 0 -161.5 16t-102.5 54q-39 37 -55 98.5t-16 174.5t16 173.5t55 97.5t101 52t163 15q102 0 163.5 -15t100.5 -52q40 -37 57 -99t17 -174zM695 337q0 103 -13 153.5t-43 78.5q-53 52 -225 52
q-170 0 -225 -52q-32 -31 -42.5 -77t-10.5 -159q0 -103 12 -153.5t41 -78.5q28 -26 86 -41v254h-62v50h62v51q0 142 157 142q161 0 162 -133h-56q-1 43 -25.5 61.5t-78.5 18.5q-52 0 -77 -20t-25 -69v-51h217v-50h-217v-264q39 -4 82 -4q168 0 225 55q30 28 43 80.5
t13 155.5z" />
    <glyph glyph-name="Ring" unicode="&#xfff3;" horiz-adv-x="421" 
d="M317 798q0 -61 -23 -86.5t-83 -25.5t-83.5 25.5t-23.5 86.5q0 59 24 83.5t83 24.5q58 0 82 -24.5t24 -83.5zM272 797q0 40 -10.5 53t-50.5 13t-51 -13t-11 -53q0 -42 11 -55t51 -13t50.5 13.5t10.5 54.5z" />
    <glyph glyph-name="CR" horiz-adv-x="505" 
 />
    <glyph glyph-name="commaaccent" horiz-adv-x="420" 
d="M231 -86q0 -43 -8.5 -67t-35.5 -47l-30 -26l-34 34q40 35 47.5 49t7.5 57v42h53v-42z" />
    <glyph glyph-name="Commaaccent" horiz-adv-x="420" 
d="M231 -86q0 -43 -8.5 -67t-35.5 -47l-30 -26l-34 34q40 35 47.5 49t7.5 57v42h53v-42z" />
    <glyph glyph-name="dollar.fitted" horiz-adv-x="555" 
d="M484 190q0 -96 -43.5 -141.5t-137.5 -48.5v-99h-54v99q-91 2 -134.5 35t-43.5 109h56q0 -49 26.5 -69.5t95.5 -21.5v267q-92 8 -132.5 43.5t-40.5 128.5q0 89 43.5 130.5t129.5 44.5v95h54v-95q91 -2 132.5 -34.5t41.5 -109.5h-56q0 50 -24.5 70t-93.5 21v-241
q55 -4 86.5 -12t54.5 -28.5t31.5 -54t8.5 -88.5zM249 376v238q-65 -2 -91.5 -30t-26.5 -97q0 -66 25.5 -86.5t92.5 -24.5zM429 194q0 76 -23.5 97t-102.5 27v-266q69 2 97.5 34.5t28.5 107.5z" />
    <glyph glyph-name="cent.fitted" horiz-adv-x="555" 
d="M479 136q0 -134 -168 -143v-88h-54v88q-90 6 -135 52q-26 27 -36 71.5t-10 124.5q0 79 10 123t36 71q45 46 135 52v88h54v-88q168 -9 168 -143h-54q0 83 -114 89v-386q114 6 114 89h54zM257 47v386q-34 -3 -56.5 -13t-36 -24t-20 -40t-8.5 -50.5t-2 -64.5
q0 -100 22 -143.5t101 -50.5z" />
    <glyph glyph-name="sterling.fitted" horiz-adv-x="555" 
d="M518 0h-460v54h56v253h-56v53h56v98v18.5v20.5t0.5 18.5t1.5 21t3 18.5t5 20l7 17t10 17.5t13 14.5q52 50 159 50q33 0 56 -2t52 -10.5t46 -23.5t29.5 -44.5t12.5 -70.5h-56q0 60 -32 78.5t-98 18.5q-95 0 -128 -37q-6 -6 -10 -14t-6.5 -17.5t-4 -16.5t-2 -19.5t-0.5 -18
v-19v-17.5v-101h292v-53h-292v-253h346v-54z" />
    <glyph glyph-name="florin.fitted" horiz-adv-x="555" 
d="M509 523h-56q0 60 -32 78.5t-98 18.5q-95 0 -128 -37q-6 -6 -10 -14t-6.5 -17.5t-4 -16.5t-2 -19.5t-0.5 -18v-19v-17.5v-101h292v-53h-292v-498h-58v498h-56v53h56v98v18.5v20.5t0.5 18.5t1.5 21t3 18.5t5 20l7 17t10 17.5t13 14.5q52 50 159 50q33 0 56 -2t52 -10.5
t46 -23.5t29.5 -44.5t12.5 -70.5z" />
    <glyph glyph-name="yen.fitted" horiz-adv-x="555" 
d="M530 667l-150 -252h84v-52h-115l-33 -56h148v-52h-157v-255h-58v255h-157v52h149l-34 56h-115v52h84l-151 252h67l188 -318l185 318h65z" />
    <glyph glyph-name="Eurooldstyle" horiz-adv-x="567" 
d="M509 144q0 -85 -49 -118.5t-144 -33.5q-155 0 -195 113q-14 43 -15 148h-52v53h52v56h-52v53h52q1 121 24 168q46 91 186 91q92 0 142.5 -33t50.5 -118h-57q0 58 -34.5 77.5t-101.5 19.5q-63 0 -94.5 -18.5t-44.5 -59.5q-12 -39 -13 -127h182v-53h-182v-56h182v-53h-182
q1 -104 18 -144q15 -32 45 -46.5t88 -14.5q69 0 103 19t34 77h57z" />
    <glyph glyph-name="dollaroldstyle" horiz-adv-x="556" 
d="M484 190q0 -96 -43.5 -141.5t-137.5 -48.5v-99h-54v99q-91 2 -134.5 35t-43.5 109h56q0 -49 26.5 -69.5t95.5 -21.5v267q-92 8 -132.5 43.5t-40.5 128.5q0 89 43.5 130.5t129.5 44.5v95h54v-95q91 -2 132.5 -34.5t41.5 -109.5h-56q0 50 -24.5 70t-93.5 21v-241
q55 -4 86.5 -12t54.5 -28.5t31.5 -54t8.5 -88.5zM249 376v238q-65 -2 -91.5 -30t-26.5 -97q0 -66 25.5 -86.5t92.5 -24.5zM429 194q0 76 -23.5 97t-102.5 27v-266q69 2 97.5 34.5t28.5 107.5z" />
    <glyph glyph-name="centoldstyle" horiz-adv-x="522" 
d="M466 136q0 -134 -168 -143v-88h-54v88q-90 6 -135 52q-26 27 -36 71.5t-10 124.5q0 79 10 123t36 71q45 46 135 52v88h54v-88q168 -9 168 -143h-54q0 83 -114 89v-386q114 6 114 89h54zM244 47v386q-34 -3 -56.5 -13t-36 -24t-20 -40t-8.5 -50.5t-2 -64.5
q0 -100 22 -143.5t101 -50.5z" />
    <glyph glyph-name="sterlingoldstyle" horiz-adv-x="567" 
d="M520 0h-460v54h56v253h-56v53h56v98v18.5v20.5t0.5 18.5t1.5 21t3 18.5t5 20l7 17t10 17.5t13 14.5q52 50 159 50q33 0 56 -2t52 -10.5t46 -23.5t29.5 -44.5t12.5 -70.5h-56q0 60 -32 78.5t-98 18.5q-95 0 -128 -37q-6 -6 -10 -14t-6.5 -17.5t-4 -16.5t-2 -19.5t-0.5 -18
v-19v-17.5v-101h292v-53h-292v-253h346v-54z" />
    <glyph glyph-name="florinoldstyle" horiz-adv-x="567" 
d="M520 523h-56q0 60 -32 78.5t-98 18.5q-95 0 -128 -37q-6 -6 -10 -14t-6.5 -17.5t-4 -16.5t-2 -19.5t-0.5 -18v-19v-17.5v-101h292v-53h-292v-498h-58v498h-56v53h56v98v18.5v20.5t0.5 18.5t1.5 21t3 18.5t5 20l7 17t10 17.5t13 14.5q52 50 159 50q33 0 56 -2t52 -10.5
t46 -23.5t29.5 -44.5t12.5 -70.5z" />
    <glyph glyph-name="yenoldstyle" horiz-adv-x="538" 
d="M521 667l-150 -252h84v-52h-115l-33 -56h148v-52h-157v-255h-58v255h-157v52h149l-34 56h-115v52h84l-151 252h67l188 -318l185 318h65z" />
    <glyph glyph-name="commaaccent.cap" horiz-adv-x="420" 
d="M231 -86q0 -43 -8.5 -67t-35.5 -47l-30 -26l-34 34q40 35 47.5 49t7.5 57v42h53v-42z" />
    </font>
</defs>
</svg>
