<?xml version="1.0" standalone="no"?>
<!DOCTYPE svg PUBLIC "-//W3C//DTD SVG 1.1//EN" "http://www.w3.org/Graphics/SVG/1.1/DTD/svg11.dtd" >
<svg>
<metadata>
Created by FontForge 20090622 at Tue May 19 19:07:29 2015
 By deploy user
Copyright &#194;&#169; The digitally encoded machine readable outline data for producing the typefaces licensed to you is copyrighted &#194;&#169;, 2010 by The Foundry, London. All rights reserved.
</metadata>
<defs>
<font id="FoundryMonolineOT3-UltraLight" horiz-adv-x="330" >
  <font-face 
    font-family="Foundry Monoline OT3 UltraLight"
    font-weight="250"
    font-stretch="normal"
    units-per-em="1000"
    panose-1="2 0 5 3 2 0 0 2 0 4"
    ascent="700"
    descent="-300"
    x-height="476"
    cap-height="667"
    bbox="-200 -199 1481 1024"
    underline-thickness="50"
    underline-position="-50"
    unicode-range="U+0020-U+FFF3"
  />
<missing-glyph horiz-adv-x="500" 
d="M0 667h500v-667h-500v667zM235 330l-206 286v-573zM47 640l206 -286l206 286h-412zM253 306l-202 -279h403zM270 330l201 -278v556z" />
    <glyph glyph-name="IJ" unicode="IJ" horiz-adv-x="716" 
d="M130 0h-29v667h29v-667zM618 203q0 -45 -1 -64t-8 -46t-23 -47q-41 -53 -157 -53q-108 0 -155 47q-37 38 -37 127h27q0 -76 29 -106q43 -42 136 -42q100 0 133 44q14 17 20 41.5t6.5 39t0.5 57.5v466h29v-464z" />
    <glyph glyph-name="ij" unicode="ij" horiz-adv-x="466" 
d="M199 649q0 -26 -26 -26t-26 26q0 25 26 25t26 -25zM187 0h-28v476h28v-476zM391 649q0 -26 -26 -26t-26 26q0 25 26 25t26 -25zM379 -47q0 -74 -33 -107q-43 -41 -123 -41q-148 0 -148 123h26q0 -96 120 -96q71 0 106 35q24 24 24 75v534h28v-523z" />
    <glyph glyph-name="f_j" unicode="fj" horiz-adv-x="629" 
d="M419 592h-26q0 34 -22 55q-30 30 -108 30q-73 0 -105 -31q-23 -23 -23 -75v-95h223v-26h-223v-450h-28v450h-82v26h82v95q0 63 33 96q38 37 121 37q91 0 127 -36q31 -30 31 -76zM459 -47q0 -74 -33 -107q-41 -41 -123 -41q-148 0 -148 123h26q0 -96 120 -96q71 0 106 35
q24 24 24 75v534h28v-523z" />
    <glyph glyph-name="f_f" unicode="ff" horiz-adv-x="807" 
d="M799 592h-26q0 34 -22 55q-30 30 -108 30q-73 0 -105 -31q-23 -23 -23 -75v-95h223v-26h-223v-450h-28v450h-352v-450h-28v450h-82v26h82v95q0 63 33 96q38 37 121 37q91 0 127 -36q31 -30 31 -76h-26q0 34 -22 55q-30 30 -108 30q-73 0 -105 -31q-23 -23 -23 -75v-95
h352v95q0 63 33 96q38 37 121 37q91 0 127 -36q31 -30 31 -76z" />
    <glyph glyph-name="fi" unicode="fi" horiz-adv-x="546" 
d="M458 0h-28v476h28v-476zM419 592h-26q0 34 -22 55q-30 30 -108 30q-73 0 -105 -31q-23 -23 -23 -75v-95h223v-26h-223v-450h-28v450h-82v26h82v95q0 63 33 96q38 37 121 37q91 0 127 -36q31 -30 31 -76z" />
    <glyph glyph-name="fl" unicode="fl" horiz-adv-x="603" 
d="M516 0h-29v697h29v-697zM419 592h-26q0 34 -22 55q-30 30 -108 30q-73 0 -105 -31q-23 -23 -23 -75v-95h223v-26h-223v-450h-28v450h-82v26h82v95q0 63 33 96q38 37 121 37q91 0 127 -36q31 -30 31 -76z" />
    <glyph glyph-name="f_f_i" unicode="ffi" horiz-adv-x="926" 
d="M799 592h-26q0 34 -22 55q-30 30 -108 30q-73 0 -105 -31q-23 -23 -23 -75v-95h223v-26h-223v-450h-28v450h-352v-450h-28v450h-82v26h82v95q0 63 33 96q38 37 121 37q91 0 127 -36q31 -30 31 -76h-26q0 34 -22 55q-30 30 -108 30q-73 0 -105 -31q-23 -23 -23 -75v-95
h352v95q0 63 33 96q38 37 121 37q91 0 127 -36q31 -30 31 -76zM838 0h-28v476h28v-476z" />
    <glyph glyph-name="f_f_l" unicode="ffl" horiz-adv-x="983" 
d="M799 592h-26q0 34 -22 55q-30 30 -108 30q-73 0 -105 -31q-23 -23 -23 -75v-95h223v-26h-223v-450h-28v450h-352v-450h-28v450h-82v26h82v95q0 63 33 96q38 37 121 37q91 0 127 -36q31 -30 31 -76h-26q0 34 -22 55q-30 30 -108 30q-73 0 -105 -31q-23 -23 -23 -75v-95
h352v95q0 63 33 96q38 37 121 37q91 0 127 -36q31 -30 31 -76zM896 0h-29v697h29v-697z" />
    <glyph glyph-name="f_t" unicode="ft" horiz-adv-x="809" 
d="M779 126q0 -71 -37.5 -102t-110.5 -31q-78 0 -112 37q-32 35 -32 96v324h-352v-450h-28v450h-82v26h82v95q0 63 33 96q38 37 121 37q91 0 127 -36q31 -30 31 -76h-26q0 34 -22 55q-30 30 -108 30q-73 0 -105 -31q-23 -23 -23 -75v-95h352v191h28v-191h223v-26h-223v-324
q0 -51 23 -75q29 -31 95 -31q60 0 90 24t30 82h26z" />
    <glyph glyph-name=".notdef" horiz-adv-x="500" 
d="M0 667h500v-667h-500v667zM235 330l-206 286v-573zM47 640l206 -286l206 286h-412zM253 306l-202 -279h403zM270 330l201 -278v556z" />
    <glyph glyph-name=".notdef" horiz-adv-x="500" 
d="M0 667h500v-667h-500v667zM235 330l-206 286v-573zM47 640l206 -286l206 286h-412zM253 306l-202 -279h403zM270 330l201 -278v556z" />
    <glyph glyph-name=".null" horiz-adv-x="0" 
 />
    <glyph glyph-name="nonmarkingreturn" horiz-adv-x="333" 
 />
    <glyph glyph-name="space" unicode=" " horiz-adv-x="283" 
 />
    <glyph glyph-name="exclam" unicode="!" horiz-adv-x="276" 
d="M151 190h-28v477h28v-477zM167 21q0 -28 -29 -28q-30 0 -30 28t29 28q30 0 30 -28z" />
    <glyph glyph-name="quotedbl" unicode="&#x22;" horiz-adv-x="425" 
d="M302 470h-30v197h30v-197zM152 470h-30v197h30v-197z" />
    <glyph glyph-name="numbersign" unicode="#" horiz-adv-x="557" 
d="M543 431h-141l-45 -169h133v-26h-140l-63 -236h-28l63 236h-147l-63 -236h-28l63 236h-134v26h141l45 169h-133v26h141l63 237h28l-64 -237h147l64 237h28l-64 -237h134v-26zM374 431h-147l-45 -169h147z" />
    <glyph glyph-name="dollar" unicode="$" horiz-adv-x="548" 
d="M480 185q0 -97 -46 -141t-148 -44v-99l-28 1v98q-99 0 -145 28.5t-46 95.5h27q0 -55 39 -76.5t125 -21.5v309q-20 1 -35 3q-82 7 -116.5 42.5t-34.5 117.5q0 99 59 139q44 30 127 30v95h28v-95q98 0 142 -28.5t44 -96.5h-27q0 55 -37 76.5t-122 21.5v-280q6 -1 33 -3
t47.5 -4.5t45 -12.5t37.5 -27q31 -40 31 -128zM258 362v278q-85 0 -121.5 -32.5t-36.5 -114.5q0 -67 28 -95.5t99 -33.5zM452 189q0 69 -23 103q-14 21 -43 28.5t-100 12.5v-307q89 0 127.5 37.5t38.5 125.5z" />
    <glyph glyph-name="percent" unicode="%" horiz-adv-x="779" 
d="M290 468q0 -126 -14 -155q-26 -52 -111 -52q-93 0 -115 64q-10 27 -10 143q0 123 15 153q26 52 110 52q94 0 116 -65q9 -28 9 -140zM263 468q0 117 -11 141q-17 39 -87 39q-76 0 -90 -49q-8 -25 -8 -131q0 -116 12 -143q17 -39 86 -39q77 0 91 49q7 22 7 133zM572 667
l-337 -667h-27l336 667h28zM739 201q0 -126 -14 -155q-26 -52 -111 -52q-93 0 -115 64q-10 27 -10 143q0 123 15 153q26 52 110 52q94 0 116 -65q9 -28 9 -140zM712 201q0 117 -11 141q-17 39 -87 39q-76 0 -90 -49q-8 -25 -8 -131q0 -116 12 -143q17 -39 86 -39q77 0 91 49
q7 22 7 133z" />
    <glyph glyph-name="ampersand" unicode="&#x26;" horiz-adv-x="596" 
d="M556 339h-61v-123q0 -72 -8 -111.5t-35 -66.5q-44 -45 -169 -45t-169 45q-41 44 -41 140q0 80 28.5 123t88.5 52q-41 7 -71 30q-40 34 -40 124q0 93 42.5 130t147.5 37q99 0 142 -32.5t47 -110.5h-27q-4 65 -40 90.5t-122 25.5q-93 0 -127.5 -30.5t-34.5 -112.5
q0 -79 35 -107q41 -31 127 -31h198v77h27v-77h62v-27zM467 216v123h-198q-89 0 -127 -30q-41 -34 -41 -134q0 -80 32 -118q33 -37 150 -37q114 0 150 37q21 21 27.5 57.5t6.5 101.5z" />
    <glyph glyph-name="quotesingle" unicode="'" horiz-adv-x="276" 
d="M152 470h-30v197h30v-197z" />
    <glyph glyph-name="parenleft" unicode="(" horiz-adv-x="290" 
d="M243 -191q-71 0 -110 24t-56 81q-31 110 -31 392q0 285 31 395q17 57 56 81t110 24v-26q-60 0 -89 -17t-45 -56q-15 -39 -25.5 -150t-10.5 -250t10.5 -249.5t25.5 -149.5q16 -39 45 -56t89 -17v-26z" />
    <glyph glyph-name="parenright" unicode=")" horiz-adv-x="290" 
d="M243 306q0 -288 -31 -392q-16 -57 -55 -81t-111 -24v26q60 0 89.5 17.5t44.5 55.5q15 39 25.5 149.5t10.5 249.5t-10.5 250t-25.5 150q-15 38 -44.5 55.5t-89.5 17.5v26q72 0 111 -24t55 -81q31 -104 31 -395z" />
    <glyph glyph-name="asterisk" unicode="*" horiz-adv-x="518" 
d="M484 493l-206 -67l126 -174l-20 -15l-126 173l-125 -173l-20 15l126 174l-206 67l8 24l205 -66v216h25v-216l205 66z" />
    <glyph glyph-name="plus" unicode="+" horiz-adv-x="557" 
d="M515 226h-224v-226h-27v226h-224v26h224v224h27v-224h224v-26z" />
    <glyph glyph-name="comma" unicode="," horiz-adv-x="203" 
d="M116 -19q0 -45 -8 -69.5t-32 -48.5l-19 -19l-21 20l20 20q15 15 22 33.5t7.5 28.5t0.5 35v68h30v-68z" />
    <glyph glyph-name="hyphen" unicode="-" horiz-adv-x="475" 
d="M377 226h-280v26h280v-26z" />
    <glyph glyph-name="period" unicode="." horiz-adv-x="203" 
d="M130 21q0 -28 -29 -28t-29 28t29 28t29 -28z" />
    <glyph glyph-name="slash" unicode="/" horiz-adv-x="489" 
d="M466 755l-417 -839h-27l416 839h28z" />
    <glyph glyph-name="zero" unicode="0" horiz-adv-x="557" 
d="M474 333q0 -188 -16 -234q-34 -106 -180 -106q-145 0 -180 106q-16 49 -16 234q0 126 5 175.5t19 79.5q41 86 172 86t172 -86q14 -30 19 -79.5t5 -175.5zM446 333q0 180 -14 223q-13 48 -49.5 69.5t-104.5 21.5q-67 0 -103.5 -21.5t-50.5 -69.5t-14 -223q0 -191 20 -240
q17 -38 52 -55.5t96 -17.5q117 0 148 73q20 46 20 240z" />
    <glyph glyph-name="one" unicode="1" horiz-adv-x="443" 
d="M415 0h-352v26h162v608l-144 -130l-18 18l162 145h28v-641h162v-26z" />
    <glyph glyph-name="two" unicode="2" horiz-adv-x="545" 
d="M469 492q0 -92 -46 -135q-32 -32 -138.5 -63t-133.5 -52q-16 -13 -24 -37t-8.5 -37.5t-0.5 -45.5v-95h349v-27h-378v141q0 42 6.5 68.5t29.5 48.5q25 23 83 40.5l115.5 36t82.5 45.5q35 36 35 112q0 63 -16 94q-28 61 -146 61q-83 0 -123.5 -24t-40.5 -81h-27
q0 70 47 101t142 31q98 0 144 -38q48 -39 48 -144z" />
    <glyph glyph-name="three" unicode="3" horiz-adv-x="546" 
d="M463 178q0 -96 -41 -140q-42 -45 -160 -45q-96 0 -142.5 31t-46.5 101h27q0 -57 39.5 -81t122.5 -24q109 0 141 37q32 36 32 118q0 95 -41 128q-37 30 -127 30h-87v27h87q88 0 127 31q35 27 35 113q0 82 -34.5 112.5t-127.5 30.5q-83 0 -122 -24t-39 -81h-27q0 70 46 101
t142 31q105 0 147.5 -37t42.5 -130q0 -97 -40 -130q-28 -23 -71 -30q61 -9 89 -49t28 -120z" />
    <glyph glyph-name="four" unicode="4" horiz-adv-x="547" 
d="M483 206h-98v-206h-28v206h-301v26l296 435h33v-435h98v-26zM357 232v397l-269 -397h269z" />
    <glyph glyph-name="five" unicode="5" horiz-adv-x="557" 
d="M472 200q0 -115 -45 -160q-46 -47 -152 -47q-96 0 -141 30.5t-45 101.5h27q0 -57 38 -81t121 -24q96 0 132.5 38t36.5 138q0 108 -30 144q-36 45 -128 45q-150 0 -160 -93h-25v375h349v-27h-323v-288q42 60 161 60q108 0 148 -54q36 -46 36 -158z" />
    <glyph glyph-name="six" unicode="6" horiz-adv-x="552" 
d="M473 201q0 -109 -45.5 -158.5t-145.5 -49.5q-141 0 -178 106q-21 57 -21 205q0 168 13 240q11 67 57 98.5t132 31.5q179 0 179 -132h-27q0 105 -151 105q-70 0 -107 -21.5t-51 -70.5q-17 -58 -17 -224v-23q43 104 175 104q102 0 144.5 -48t42.5 -163zM446 200
q0 103 -34 144t-120 41q-176 0 -176 -180q0 -96 40 -140.5t126 -44.5q89 0 126.5 41.5t37.5 138.5z" />
    <glyph glyph-name="seven" unicode="7" horiz-adv-x="450" 
d="M416 640l-288 -640h-30l288 640h-353v27h383v-27z" />
    <glyph glyph-name="eight" unicode="8" horiz-adv-x="558" 
d="M476 178q0 -96 -41 -140q-44 -45 -155 -45q-63 0 -98.5 10t-57.5 35q-42 44 -42 140q0 79 29 119.5t90 49.5q-45 7 -72 30q-41 34 -41 130q0 93 43 130t148 37t148 -37t43 -130q0 -96 -40 -130q-30 -23 -72 -30q61 -9 89.5 -49t28.5 -120zM441 504h1q0 82 -34.5 112.5
t-127.5 30.5t-128.5 -30.5t-35.5 -110.5q0 -86 36 -115q41 -31 127 -31q88 0 127 31q35 27 35 113zM448 175q0 94 -41 128q-38 30 -127 30q-91 0 -128 -30q-42 -35 -42 -127q0 -82 32 -119q19 -21 49 -29t88 -8t88.5 8.5t47.5 28.5q33 38 33 118z" />
    <glyph glyph-name="nine" unicode="9" horiz-adv-x="552" 
d="M469 363q0 -168 -13 -240q-11 -67 -57 -98.5t-132 -31.5q-179 0 -179 132h27q0 -105 151 -105q70 0 107 21.5t51 70.5q17 55 17 224v23q-43 -104 -175 -104q-102 0 -144.5 48t-42.5 163q0 109 45.5 158.5t145.5 49.5q141 0 178 -106q21 -57 21 -205zM436 462
q0 96 -40 140.5t-126 44.5q-89 0 -126.5 -41.5t-37.5 -138.5q0 -103 34 -144t120 -41q176 0 176 180z" />
    <glyph glyph-name="colon" unicode=":" horiz-adv-x="203" 
d="M130 455q0 -28 -29 -28t-29 28t29 28t29 -28zM130 21q0 -28 -29 -28t-29 28t29 28t29 -28z" />
    <glyph glyph-name="semicolon" unicode=";" horiz-adv-x="203" 
d="M130 455q0 -28 -29 -28t-29 28t29 28t29 -28zM115 -19q0 -45 -8 -69.5t-32 -48.5l-19 -19l-21 20l20 20q15 15 22 33.5t7.5 28.5t0.5 35v68h30v-68z" />
    <glyph glyph-name="less" unicode="&#x3c;" horiz-adv-x="557" 
d="M516 24l-12 -24l-464 226v26l464 224l12 -24l-441 -213z" />
    <glyph glyph-name="equal" unicode="=" horiz-adv-x="557" 
d="M516 323h-476v26h476v-26zM516 129h-476v26h476v-26z" />
    <glyph glyph-name="greater" unicode="&#x3e;" horiz-adv-x="557" 
d="M516 226l-464 -226l-12 24l441 215l-441 213l12 24l464 -224v-26z" />
    <glyph glyph-name="question" unicode="?" horiz-adv-x="415" 
d="M382 510q0 -62 -24.5 -97.5t-79.5 -60.5q-50 -22 -61.5 -47t-11.5 -85v-37h-28v54q0 58 18.5 87.5t72.5 52.5q48 20 67.5 50t19.5 83q0 54 -15 84q-25 53 -130 53q-78 0 -113 -24t-35 -81h-26q0 70 41.5 101t130.5 31q88 0 130 -34q44 -35 44 -130zM221 21q0 -28 -29 -28
t-29 28t29 28t29 -28z" />
    <glyph glyph-name="at" unicode="@" horiz-adv-x="760" 
d="M672 383q0 -64 -7 -127q-7 -66 -38 -97q-37 -37 -121 -37v56q-37 -63 -136 -63q-97 0 -127 56q-22 41 -22 139q0 100 22 141q30 56 127 56q99 0 136 -63v56h26v-352q49 1 75 27q23 23 30.5 69.5t7.5 147.5q0 95 -10 139t-36 68q-50 49 -212 49q-164 0 -214 -53
q-58 -61 -58 -285q0 -221 46 -283q52 -68 230 -68q157 0 204 53q11 12 24 34l25 -13q-12 -24 -27 -39q-58 -61 -231 -61q-190 0 -246 75q-52 70 -52 307t66 301q59 58 231 58q176 0 235 -56q30 -28 41 -77.5t11 -157.5zM507 310q0 96 -31 134t-110 38q-33 0 -56 -9.5
t-35 -22.5t-18.5 -39t-7.5 -46t-1 -55q0 -30 1 -46.5t4 -40t10.5 -35.5t20.5 -25t33.5 -18t49.5 -5q79 0 109.5 37.5t30.5 132.5z" />
    <glyph glyph-name="A" unicode="A" horiz-adv-x="603" 
d="M570 0h-29l-81 210h-319l-80 -210h-29l251 667h36zM450 236l-149 405l-150 -405h299z" />
    <glyph glyph-name="B" unicode="B" horiz-adv-x="642" 
d="M554 179q0 -98 -37 -135q-31 -31 -67.5 -37.5t-130.5 -6.5h-218v667h212h5q40 0 58.5 -0.5t48.5 -3.5t44 -9t32.5 -18t26.5 -30t14 -44.5t6 -61.5q0 -91 -37 -128q-25 -25 -58 -31q38 -4 64 -30q37 -37 37 -132zM520 503q0 34 -6 58.5t-17.5 39t-27.5 23.5t-36.5 12
t-45 4t-51.5 0h-30h-176v-285h183q93 0 122.5 5t53.5 29q31 31 31 114zM526 176q0 86 -31 117q-23 24 -56.5 30t-126.5 6h-182v-302h182q94 0 126.5 5.5t56.5 29.5q31 31 31 114z" />
    <glyph glyph-name="C" unicode="C" horiz-adv-x="631" 
d="M555 167q0 -95 -49.5 -134.5t-170.5 -39.5q-87 0 -135.5 18.5t-77.5 61.5q-20 32 -27.5 86t-7.5 174t7.5 174.5t27.5 86.5q29 43 77.5 61.5t135.5 18.5q121 0 170.5 -39.5t49.5 -134.5h-27q-2 83 -44.5 115t-157.5 32q-132 0 -177 -64q-20 -30 -26.5 -76.5t-6.5 -173.5
t6 -173t27 -76q45 -64 177 -64q115 0 157.5 32t44.5 115h27z" />
    <glyph glyph-name="D" unicode="D" horiz-adv-x="653" 
d="M565 334q0 -114 -7.5 -166.5t-28.5 -87.5q-26 -44 -73.5 -62t-136.5 -18h-218v667h218q91 0 137.5 -18t72.5 -62q21 -34 28.5 -86t7.5 -167zM536 334q0 111 -7.5 162t-27.5 82q-23 35 -64.5 48.5t-123.5 13.5h-183v-613h183q83 0 124 13.5t64 48.5q20 32 27.5 83t7.5 162
z" />
    <glyph glyph-name="E" unicode="E" horiz-adv-x="564" 
d="M486 0h-385v667h385v-27h-357v-284h347v-26h-347v-303h357v-27z" />
    <glyph glyph-name="F" unicode="F" horiz-adv-x="554" 
d="M486 640h-356v-284h346v-26h-346v-330h-29v667h385v-27z" />
    <glyph glyph-name="G" unicode="G" horiz-adv-x="659" 
d="M567 0h-27v112q-18 -56 -70 -87t-135 -32q-86 -1 -135 18t-78 62q-20 32 -27.5 86t-7.5 174t7.5 174.5t27.5 86.5q29 42 79 61t137 19q122 0 175.5 -40t53.5 -134h-27q-1 82 -48 114.5t-163 32.5q-135 0 -180 -64q-20 -30 -26.5 -76.5t-6.5 -173.5t6 -173t27 -76
q45 -64 177 -64q131 0 180 73q21 29 27.5 74t6.5 142v21h-216v26h243v-181v-175z" />
    <glyph glyph-name="H" unicode="H" horiz-adv-x="649" 
d="M547 0h-29v329h-388v-329h-29v667h29v-311h388v311h29v-667z" />
    <glyph glyph-name="I" unicode="I" horiz-adv-x="232" 
d="M130 0h-29v667h29v-667z" />
    <glyph glyph-name="J" unicode="J" horiz-adv-x="524" 
d="M426 203q0 -45 -1 -64t-8 -46t-23 -47q-41 -53 -157 -53q-108 0 -155 47q-37 38 -37 127h27q0 -76 29 -106q43 -42 136 -42q100 0 133 44q14 17 20 41.5t6.5 39t0.5 57.5v466h29v-464z" />
    <glyph glyph-name="K" unicode="K" horiz-adv-x="568" 
d="M528 0h-43l-355 324v-324h-29v667h28v-327l357 327h41l-368 -333z" />
    <glyph glyph-name="L" unicode="L" horiz-adv-x="505" 
d="M486 0h-385v667h29v-640h356v-27z" />
    <glyph glyph-name="M" unicode="M" horiz-adv-x="811" 
d="M709 0h-28v641l-259 -641h-36l-257 641v-641h-28v667h47l257 -639l257 639h47v-667z" />
    <glyph glyph-name="N" unicode="N" horiz-adv-x="647" 
d="M545 0h-44l-372 637v-637h-28v667h43l373 -637v637h28v-667z" />
    <glyph glyph-name="O" unicode="O" horiz-adv-x="665" 
d="M577 333q0 -122 -7 -175.5t-28 -84.5q-51 -80 -210 -80q-158 0 -210 80q-20 32 -27.5 85.5t-7.5 174.5q0 120 7.5 174.5t27.5 86.5q54 80 210 80q159 0 210 -80q21 -31 28 -85t7 -176zM548 333q0 125 -6.5 172.5t-26.5 77.5q-43 64 -183 64q-139 0 -183 -64
q-20 -31 -26.5 -79t-6.5 -172q0 -123 6.5 -170t26.5 -78q44 -64 183 -64q140 0 183 64q20 30 26.5 76.5t6.5 172.5z" />
    <glyph glyph-name="P" unicode="P" horiz-adv-x="594" 
d="M548 491q0 -92 -37 -129q-31 -31 -67.5 -37.5t-130.5 -6.5h-183v-318h-29v667h212q94 0 130.5 -6.5t67.5 -37.5q37 -37 37 -132zM520 494q0 80 -31 111q-24 24 -56.5 29.5t-126.5 5.5h-176v-295h176q94 0 126.5 5.5t56.5 29.5q31 31 31 114z" />
    <glyph glyph-name="Q" unicode="Q" horiz-adv-x="665" 
d="M577 334q0 -122 -7 -176t-28 -85q-45 -71 -163 -78l52 -123l-24 -11l-56 132h-19q-157 -1 -210 80q-20 32 -27.5 86t-7.5 175q0 120 7.5 174t27.5 86q54 80 210 80q159 0 210 -80q21 -31 28 -84.5t7 -175.5zM548 334q0 125 -6.5 172t-26.5 77q-43 64 -183 64
q-139 0 -183 -64q-20 -31 -26.5 -78.5t-6.5 -171.5t6.5 -171t26.5 -78q44 -64 183 -64h7l-42 101l24 10l46 -110q43 1 84.5 15.5t63.5 47.5q20 30 26.5 77t6.5 173z" />
    <glyph glyph-name="R" unicode="R" horiz-adv-x="642" 
d="M548 0h-28v176q0 86 -31 117q-23 24 -56.5 30t-126.5 6h-176v-329h-29v667h212q94 0 130.5 -6.5t67.5 -37.5q37 -37 37 -128q0 -86 -37 -123q-24 -24 -60 -31q35 -5 60 -30q37 -37 37 -132v-179zM520 498q0 76 -31 107q-24 24 -56.5 29.5t-126.5 5.5h-176v-285h183
q93 0 122.5 5t53.5 29q31 31 31 109z" />
    <glyph glyph-name="S" unicode="S" horiz-adv-x="630" 
d="M553 187q0 -104 -54.5 -149t-184.5 -45q-132 0 -184.5 39t-53.5 135h27q2 -84 47 -115.5t166 -31.5q116 0 162.5 38t46.5 128q0 94 -51 122q-22 12 -51.5 15.5t-108.5 4.5q-93 1 -127 8q-60 13 -85.5 48.5t-25.5 106.5q0 103 52 143t184 40q131 0 183 -39t53 -135h-27
q-2 84 -46.5 115.5t-164.5 31.5q-117 0 -161.5 -33t-44.5 -122q0 -88 51 -117q22 -12 51.5 -15.5t107.5 -4.5q95 -1 128 -8q59 -13 85 -50.5t26 -109.5z" />
    <glyph glyph-name="T" unicode="T" horiz-adv-x="532" 
d="M498 640h-218v-640h-29v640h-218v27h465v-27z" />
    <glyph glyph-name="U" unicode="U" horiz-adv-x="648" 
d="M550 336v-25q0 -108 -2 -145.5t-13 -64.5q-40 -108 -212 -108q-170 0 -212 108q-10 27 -12 64t-2 145v26v331h29v-331v-41.5v-37v-31t0.5 -28t1 -23t1.5 -20.5l2.5 -17t3.5 -16.5t4.5 -13.5t5.5 -13q42 -75 178 -75q137 0 178 75q3 6 6 13t5 13.5t3.5 16.5l2.5 17t1.5 21
t1 22.5t0.5 28v31v37v41.5v331h29v-331z" />
    <glyph glyph-name="V" unicode="V" horiz-adv-x="557" 
d="M538 667l-243 -667h-36l-241 667h30l230 -640l232 640h28z" />
    <glyph glyph-name="W" unicode="W" horiz-adv-x="869" 
d="M811 667l-162 -667h-42l-173 644l-175 -644h-42l-160 667h28l154 -643l174 643h42l174 -643l154 643h28z" />
    <glyph glyph-name="X" unicode="X" horiz-adv-x="546" 
d="M499 0h-33l-195 311l-192 -311h-33l209 333l-209 334h33l194 -313l192 313h34l-208 -334z" />
    <glyph glyph-name="Y" unicode="Y" horiz-adv-x="514" 
d="M495 667l-224 -372v-295h-29v295l-224 372h32l208 -346l207 346h30z" />
    <glyph glyph-name="Z" unicode="Z" horiz-adv-x="594" 
d="M519 0h-445v29l414 611h-414v27h445v-29l-414 -611h414v-27z" />
    <glyph glyph-name="bracketleft" unicode="[" horiz-adv-x="341" 
d="M294 -191h-178v997h178v-26h-151v-945h151v-26z" />
    <glyph glyph-name="backslash" unicode="\" horiz-adv-x="513" 
d="M478 -84h-28l-416 839h28z" />
    <glyph glyph-name="bracketright" unicode="]" horiz-adv-x="341" 
d="M224 -191h-178v26h151v945h-151v26h178v-997z" />
    <glyph glyph-name="asciicircum" unicode="^" horiz-adv-x="557" 
d="M516 206l-24 -12l-213 441l-215 -441l-24 12l226 464h26z" />
    <glyph glyph-name="underscore" unicode="_" horiz-adv-x="495" 
d="M498 -192h-501v27h501v-27z" />
    <glyph glyph-name="grave" unicode="`" horiz-adv-x="410" 
d="M290 535h-36l-133 132h36z" />
    <glyph glyph-name="a" unicode="a" horiz-adv-x="528" 
d="M446 0h-25v96q-39 -103 -186 -103q-90 0 -131 33t-41 106q0 74 35 109q18 18 48.5 27t46.5 9.5t47 0.5h179v27q0 67 -11 92q-7 13 -17 24q-32 35 -130 35q-97 0 -130 -33q-30 -31 -30 -73h-26q0 54 34 88q46 45 160 45q100 0 140 -41q19 -19 27.5 -48t9 -46t0.5 -69v-279
zM419 252h-183q-87 0 -116 -29q-30 -30 -30 -90q0 -61 32.5 -87t109.5 -26q132 0 169 84q11 26 14 50t4 98z" />
    <glyph glyph-name="b" unicode="b" horiz-adv-x="548" 
d="M478 237q0 -127 -27 -175q-37 -69 -159 -69q-134 0 -178 93v-86h-27v697h28v-306q43 92 177 92q122 0 159 -69q27 -48 27 -177zM450 237q0 132 -30 173q-33 46 -123 46q-102 0 -142.5 -48t-40.5 -171q0 -121 40.5 -169t142.5 -48q90 0 123 46q30 41 30 171z" />
    <glyph glyph-name="c" unicode="c" horiz-adv-x="511" 
d="M448 126q0 -55 -28 -85q-43 -48 -154 -48q-108 0 -155 51q-23 26 -32.5 68.5t-9.5 125.5t9.5 125.5t32.5 68.5q47 51 155 51q111 0 154 -48q28 -30 28 -85h-26q0 44 -23 67q-38 39 -132 39q-96 0 -136 -43q-19 -22 -26.5 -60t-7.5 -115t7.5 -115t26.5 -60q40 -43 137 -43
q94 0 132 39q22 22 22 67h26z" />
    <glyph glyph-name="d" unicode="d" horiz-adv-x="548" 
d="M460 0h-27v86q-43 -93 -178 -93q-121 0 -159 69q-27 51 -27 175q0 126 27 177q38 69 159 69q134 0 177 -92v306h28v-697zM433 237q0 123 -40.5 171t-142.5 48q-88 0 -123 -46q-30 -43 -30 -173q0 -128 30 -171q35 -46 123 -46q102 0 142.5 48t40.5 169z" />
    <glyph glyph-name="e" unicode="e" horiz-adv-x="526" 
d="M456 243h-359q0 -70 6 -113t28 -67q40 -43 136 -43q92 0 132 40q23 23 23 66h26q0 -54 -28 -84q-43 -49 -154 -49q-108 0 -155 51q-23 26 -32.5 68.5t-9.5 125.5t9.5 125.5t32.5 68.5q47 51 152 51q55 0 89 -11t62 -39q42 -42 42 -173v-17zM428 269q0 106 -34 144
q-38 43 -131 43q-92 0 -132 -43q-34 -38 -34 -144h331z" />
    <glyph glyph-name="f" unicode="f" horiz-adv-x="427" 
d="M419 592h-26q0 34 -22 55q-30 30 -108 30q-73 0 -105 -31q-23 -23 -23 -75v-95h223v-26h-223v-450h-28v450h-82v26h82v95q0 63 33 96q38 37 121 37q91 0 127 -36q31 -30 31 -76z" />
    <glyph glyph-name="g" unicode="g" horiz-adv-x="547" 
d="M459 40q0 -105 -8 -133q-8 -29 -30 -51q-50 -50 -161 -50q-90 0 -134.5 34.5t-45.5 106.5h26q1 -115 151 -115q101 0 142 42q7 7 12 14.5t8.5 14t6 17.5t3.5 17.5t1.5 22t0.5 22.5v28v31v50q-43 -92 -177 -92q-121 0 -159 69q-26 49 -26 174q0 123 26 172q38 69 159 69
q134 0 178 -93v86h27v-436zM432 242q0 121 -40 167.5t-143 46.5q-88 0 -123 -46q-29 -42 -29 -168q0 -128 29 -170q35 -46 123 -46q103 0 143 47t40 169z" />
    <glyph glyph-name="h" unicode="h" horiz-adv-x="533" 
d="M451 0h-28v241q0 93 -5 127t-27 56q-32 32 -109 32q-80 0 -119 -39q-23 -24 -34.5 -62t-12.5 -64t-1 -86v-205h-28v697h28v-308q40 94 166 94q90 0 128 -38q30 -30 36 -66t6 -132v-247z" />
    <glyph glyph-name="i" unicode="i" horiz-adv-x="203" 
d="M127 649q0 -26 -26 -26t-26 26q0 25 26 25t26 -25zM115 0h-28v476h28v-476z" />
    <glyph glyph-name="j" unicode="j" horiz-adv-x="203" 
d="M128 649q0 -26 -26 -26t-26 26q0 25 26 25t26 -25zM116 -47q0 -74 -33 -107q-43 -41 -123 -41q-148 0 -148 123h26q0 -96 120 -96q71 0 106 35q24 24 24 75v534h28v-523z" />
    <glyph glyph-name="k" unicode="k" horiz-adv-x="458" 
d="M425 0h-40l-269 255v-255h-29v697h28v-438l267 217h40l-271 -220z" />
    <glyph glyph-name="l" unicode="l" horiz-adv-x="203" 
d="M115 0h-28v697h28v-697z" />
    <glyph glyph-name="m" unicode="m" horiz-adv-x="807" 
d="M725 0h-28v289q0 61 -5 88.5t-22 45.5q-29 33 -99 33t-110 -40q-7 -8 -13.5 -17t-10.5 -20.5t-7 -21t-5 -24.5t-3 -24t-1.5 -27t-0.5 -25v-27v-25v-205h-28v290q0 60 -5.5 88t-22.5 46q-28 32 -98 32q-71 0 -110 -39q-7 -8 -13.5 -17t-10.5 -20.5t-7 -21t-5 -24.5t-3 -24
t-1.5 -27t-0.5 -25v-27v-25v-206h-28v476h27v-82q39 89 151 89q84 0 119 -39q23 -24 29 -57q10 29 29.5 49t43 29.5t43.5 13.5t40 4q86 0 121 -39q23 -26 29 -56t6 -100v-288z" />
    <glyph glyph-name="n" unicode="n" horiz-adv-x="533" 
d="M451 0h-28v241q0 93 -5 127t-27 56q-32 32 -109 32q-80 0 -119 -39q-23 -24 -34.5 -62t-12.5 -64t-1 -86v-205h-28v476h27v-88q41 95 167 95q90 0 128 -38q30 -30 36 -66t6 -132v-247z" />
    <glyph glyph-name="o" unicode="o" horiz-adv-x="532" 
d="M462 238q0 -84 -9 -126.5t-33 -67.5q-45 -51 -154 -51q-108 0 -155 51q-23 26 -32.5 68.5t-9.5 125.5t9.5 125.5t32.5 68.5q47 51 155 51q109 0 154 -51q24 -25 33 -67.5t9 -126.5zM434 238q0 78 -7.5 115.5t-26.5 59.5q-38 43 -134 43q-95 0 -135 -43q-19 -22 -26.5 -60
t-7.5 -115t7.5 -115t26.5 -60q40 -43 135 -43q96 0 134 43q19 22 26.5 59.5t7.5 115.5z" />
    <glyph glyph-name="p" unicode="p" horiz-adv-x="548" 
d="M478 239q0 -129 -27 -177q-37 -69 -159 -69q-134 0 -177 92v-276h-28v667h27v-86q44 93 178 93q122 0 159 -69q27 -48 27 -175zM450 239q0 130 -30 171q-33 46 -123 46q-102 0 -142.5 -48t-40.5 -169q0 -123 40.5 -171t142.5 -48q90 0 123 46q30 41 30 173z" />
    <glyph glyph-name="q" unicode="q" horiz-adv-x="548" 
d="M460 -191h-28v276q-43 -92 -177 -92q-121 0 -159 69q-27 51 -27 177q0 124 27 175q38 69 159 69q135 0 178 -93v86h27v-667zM433 239q0 121 -40.5 169t-142.5 48q-88 0 -123 -46q-30 -43 -30 -171q0 -130 30 -173q35 -46 123 -46q102 0 142.5 48t40.5 171z" />
    <glyph glyph-name="r" unicode="r" horiz-adv-x="458" 
d="M412 350h-26q0 50 -24 75q-27 31 -96 31t-107 -38q-21 -21 -31 -57t-11.5 -62.5t-1.5 -75.5v-17v-206h-28v476h27v-85q40 92 150 92q83 0 116 -37q33 -36 32 -96z" />
    <glyph glyph-name="s" unicode="s" horiz-adv-x="498" 
d="M433 131q0 -74 -44.5 -106.5t-144.5 -31.5q-103 1 -141 28t-38 105h27q0 -65 30.5 -85.5t120.5 -21.5q84 -1 123 24t39 80q1 46 -12 68.5t-49 29.5q-28 5 -131 8q-86 3 -116 32q-27 27 -25 87q2 75 45 105.5t143 29.5q102 -1 141 -40q30 -29 30 -93h-27q0 56 -31 81
t-112 25q-85 0 -123 -22.5t-39 -77.5q-1 -47 12.5 -68t49.5 -28q12 -2 115 -6q35 -1 54.5 -3t42 -9t34 -19.5t19 -35.5t7.5 -56z" />
    <glyph glyph-name="t" unicode="t" horiz-adv-x="430" 
d="M400 126q0 -71 -37.5 -102t-110.5 -31q-78 0 -112 37q-32 35 -32 96v324h-82v26h82v191h28v-191h223v-26h-223v-324q0 -51 23 -75q29 -31 95 -31q60 0 90 24t30 82h26z" />
    <glyph glyph-name="u" unicode="u" horiz-adv-x="533" 
d="M445 0h-27v88q-41 -95 -167 -95q-90 0 -128 38q-30 30 -36 66t-6 132v247h28v-241q0 -93 5 -127t27 -56q32 -32 109 -32q80 0 119 39q24 24 35 62.5t12 63t1 86.5v205h28v-476z" />
    <glyph glyph-name="v" unicode="v" horiz-adv-x="452" 
d="M424 476l-180 -476h-37l-180 476h29l170 -450l169 450h29z" />
    <glyph glyph-name="w" unicode="w" horiz-adv-x="688" 
d="M654 476l-139 -476h-39l-132 454l-133 -454h-39l-139 476h29l130 -450l133 450h38l133 -450l129 450h29z" />
    <glyph glyph-name="x" unicode="x" horiz-adv-x="452" 
d="M412 0h-34l-153 215l-154 -215h-32l170 238l-170 238h34l153 -215l154 215h32l-170 -237z" />
    <glyph glyph-name="y" unicode="y" horiz-adv-x="450" 
d="M416 476l-246 -667h-28l71 192l-174 475h29l160 -436l159 436h29z" />
    <glyph glyph-name="z" unicode="z" horiz-adv-x="469" 
d="M411 0h-354v28l322 422h-322v26h354v-28l-322 -422h322v-26z" />
    <glyph glyph-name="braceleft" unicode="{" horiz-adv-x="360" 
d="M318 -191q-64 0 -98 34q-26 26 -35 59t-9 94v190q0 10 -6 18l-55 55q-27 27 -27 48q0 20 26 48l55 55q6 6 6 14v215q0 61 9 94t35 59q35 34 99 34v-24q-51 0 -82 -31q-19 -19 -26 -49t-7 -82v-208q0 -27 -21 -50l-55 -55q-20 -19 -1 -40l55 -55q21 -21 21 -52v-185
q0 -53 7 -82.5t26 -48.5q31 -31 83 -31v-24z" />
    <glyph glyph-name="bar" unicode="|" horiz-adv-x="276" 
d="M152 -191h-28v858h28v-858z" />
    <glyph glyph-name="braceright" unicode="}" horiz-adv-x="360" 
d="M272 307q0 -22 -26 -48l-55 -55q-6 -6 -6 -18v-190q0 -61 -9 -94t-35 -59q-35 -34 -99 -34v24q51 0 82 31q19 19 26 48.5t7 82.5v185q0 29 21 52l55 55q21 21 1 40l-55 55q-21 21 -21 50v208q0 52 -7 82t-26 49q-31 31 -83 31v24q64 0 98 -34q26 -26 35 -59t9 -94v-215
q0 -6 6 -14l55 -55q27 -27 27 -48z" />
    <glyph glyph-name="asciitilde" unicode="~" horiz-adv-x="557" 
d="M521 265l-74 -55q-32 -24 -73.5 -25t-72.5 22l-57 40q-62 42 -122 -2l-71 -51l-16 20l75 54q33 24 73.5 25t72.5 -21l58 -41q61 -42 121 2l71 52z" />
    <glyph glyph-name="nbspace" unicode="&#xa0;" horiz-adv-x="283" 
 />
    <glyph glyph-name="exclamdown" unicode="&#xa1;" horiz-adv-x="276" 
d="M168 455q0 -28 -29 -28q-30 0 -30 28t29 28q30 0 30 -28zM151 -191h-27v477h27v-477z" />
    <glyph glyph-name="cent" unicode="&#xa2;" horiz-adv-x="511" 
d="M449 126q3 -54 -31 -88q-45 -45 -138 -45v-88h-27v88q-96 1 -141 51q-23 26 -32.5 68.5t-9.5 125.5t9.5 125.5t32.5 68.5q47 50 141 50v93h27v-93q95 0 137 -42q16 -16 24 -38.5t8 -37.5v-14h-26q0 44 -24 68q-37 37 -119 37v-435q88 2 121 39q11 12 16.5 28.5t5.5 27.5
v11h26zM253 20v435q-83 0 -121 -42q-19 -22 -26.5 -60t-7.5 -115t7.5 -115t26.5 -60q35 -39 121 -43z" />
    <glyph glyph-name="sterling" unicode="&#xa3;" horiz-adv-x="557" 
d="M505 0h-439v27h58v294h-58v26h58v117v21v21.5t0.5 19t1.5 20.5t2.5 17.5t4 18l6 15.5t9 16t11.5 13q50 48 152 48q33 0 56 -2t49.5 -9.5t42.5 -21t26.5 -39t10.5 -60.5h-27q0 63 -39 84t-108 21q-101 0 -143 -42q-14 -14 -20.5 -40t-7 -41.5t-0.5 -56.5v-120h299v-26
h-299v-294h354v-27z" />
    <glyph glyph-name="currency" unicode="&#xa4;" horiz-adv-x="557" 
d="M542 102l-19 -18l-95 95q-63 -58 -148 -58t-146 55l-91 -92l-19 18l92 92q-57 63 -57 150q0 85 56 147l-92 92l19 19l92 -92q65 55 149 55q82 0 145 -58l96 95l19 -19l-96 -96q54 -64 54 -144q0 -82 -55 -145zM283 538q-82 0 -139 -56.5t-57 -137.5t56.5 -138t136.5 -57
t136.5 57t56.5 137q0 79 -56.5 137t-133.5 58z" />
    <glyph glyph-name="yen" unicode="&#xa5;" horiz-adv-x="528" 
d="M495 667l-154 -264h98v-25h-112l-50 -86h162v-25h-160v-267h-28v267h-161v25h163l-51 86h-112v25h98l-155 264h32l201 -346l198 346h31z" />
    <glyph glyph-name="brokenbar" unicode="&#xa6;" horiz-adv-x="276" 
d="M151 381h-27v286h27v-286zM151 -191h-27v286h27v-286z" />
    <glyph glyph-name="section" unicode="&#xa7;" horiz-adv-x="556" 
d="M460 38q0 -78 -40 -111t-135 -33q-105 0 -147 29.5t-42 102.5h27q0 -59 36 -82t126 -23q81 0 114 26.5t33 91.5q0 59 -25.5 83.5t-86.5 26.5l-45 1q-91 1 -124 18q-55 29 -55 117q0 55 19 82t63 38q-82 18 -82 124q0 79 40 112t135 33q104 0 146 -29.5t42 -103.5h-27
q0 59 -36 82.5t-125 23.5q-80 0 -113 -26.5t-33 -91.5q0 -59 26 -85t86 -26h44q88 0 124 -18q30 -15 44 -51q10 -26 10 -65q0 -41 -7.5 -62.5t-27.5 -37.5q-19 -15 -46 -21q82 -16 82 -125zM431 284q0 67 -32 87t-140 20q-78 0 -106 -23t-28 -87q0 -68 38 -87q19 -10 62 -14
q33 -3 72 -3q51 0 78 8q34 9 46 39q10 23 10 60z" />
    <glyph glyph-name="dieresis" unicode="&#xa8;" horiz-adv-x="409" 
d="M337 642q0 -26 -26 -26t-26 26q0 25 26 25t26 -25zM124 642q0 -26 -26 -26t-26 26q0 25 26 25t26 -25z" />
    <glyph glyph-name="copyright" unicode="&#xa9;" horiz-adv-x="819" 
d="M732 334q0 -115 -16 -175t-52 -97q-37 -37 -96.5 -53t-157.5 -16t-158 16t-96 53q-37 37 -53 98t-16 176t16 175.5t52 97.5q36 36 95 50.5t159 14.5t159.5 -14.5t94.5 -50.5q36 -36 52.5 -98t16.5 -177zM704 337h1q0 108 -14 164t-46 89q-59 58 -235 58q-177 0 -235 -58
q-33 -33 -47 -90.5t-14 -166.5q0 -108 14 -163.5t46 -88.5q63 -62 235 -62q173 0 235 62q33 33 46.5 89.5t13.5 166.5zM593 236q0 -55 -27 -85q-44 -48 -154 -48t-155 51q-25 26 -34 64t-9 120q0 81 9 119.5t33 64.5q47 51 155 51q111 0 154 -48q29 -31 29 -85h-26
q0 42 -23 67q-41 39 -132 39q-98 0 -136 -43q-20 -22 -27.5 -55.5t-7.5 -109.5t7.5 -109t26.5 -56q40 -43 136 -43q93 0 132 39q23 23 23 67h26z" />
    <glyph glyph-name="ordfeminine" unicode="&#xaa;" horiz-adv-x="374" 
d="M329 336h-24v54q-38 -59 -134 -59q-67 0 -98 23.5t-31 75.5q0 63 34 83.5t99 20.5h126v14v9v9.5v8.5t-1 10t-1.5 8.5t-2 9l-3.5 8t-5 8.5t-6 7q-24 23 -92 23q-52 0 -82 -14.5t-30 -57.5h-26q0 56 38.5 76.5t104.5 20.5q119 0 131 -79q3 -14 3 -65v-194zM301 510h-128
q-61 0 -82 -21q-22 -20 -22 -58q0 -41 22.5 -58t76.5 -17q93 0 119 57q9 18 11.5 34t2.5 63z" />
    <glyph glyph-name="guillemotleft" unicode="&#xab;" horiz-adv-x="443" 
d="M385 404l-24 -25q-50 -52 -68.5 -82t-18.5 -59t18.5 -60t68.5 -81l22 -22l-19 -19l-21 21q-53 53 -74.5 89.5t-21.5 70.5q0 33 21.5 69.5t74.5 92.5l23 24zM196 404l-24 -25q-50 -52 -68.5 -82t-18.5 -59t18.5 -60t68.5 -81l22 -22l-19 -19l-21 21q-53 53 -74.5 89.5
t-21.5 70.5q0 33 21.5 69.5t74.5 92.5l23 24z" />
    <glyph glyph-name="logicalnot" unicode="&#xac;" horiz-adv-x="557" 
d="M516 0h-27v323h-449v26h476v-349z" />
    <glyph glyph-name="registered" unicode="&#xae;" horiz-adv-x="526" 
d="M476 448q0 -75 -10.5 -116t-34.5 -65q-46 -46 -167 -46q-123 0 -168 46q-24 24 -35 65t-11 117q0 137 45 182q43 43 168 43t167 -43q24 -24 35 -65.5t11 -117.5zM451 450h1q0 125 -38 164q-38 37 -150 37q-114 0 -151 -37q-39 -39 -39 -167q0 -125 38 -164
q41 -39 151 -39q111 0 150 39q38 38 38 167zM367 303h-24v81q0 41 -15.5 50t-59.5 9h-7h-67v-140h-26v297h95q42 0 53 -2q52 -9 52 -78q0 -49 -29 -65q28 -15 28 -69v-83zM343 521q0 30 -11 42q-9 9 -21 11t-50 2h-68v-110h70q51 0 63 8q17 11 17 47z" />
    <glyph glyph-name="macron" unicode="&#xaf;" horiz-adv-x="410" 
d="M360 628h-309v26h309v-26z" />
    <glyph glyph-name="degree" unicode="&#xb0;" horiz-adv-x="558" 
d="M422 534q0 -87 -33 -119q-31 -30 -111 -30q-78 0 -108 30q-34 31 -34 125q0 42 7 63.5t26 40.5q31 30 110 30t109 -30q34 -31 34 -110zM395 528h1q0 72 -25 95q-31 27 -91 27q-63 0 -92 -27q-26 -23 -26 -95q0 -70 25 -93q28 -26 90 -26q64 0 93 27q25 22 25 92z" />
    <glyph glyph-name="plusminus" unicode="&#xb1;" horiz-adv-x="557" 
d="M517 280h-224v-198h-28v198h-225v26h224v196h28v-196h225v-26zM517 0h-477v26h477v-26z" />
    <glyph glyph-name="twosuperior" unicode="&#xb2;" 
d="M287 562q0 -58 -30 -85q-23 -22 -99 -41q-53 -15 -69 -26q-19 -14 -19 -67v-51h216v-25h-243v87q0 39 14 60q13 18 37 28q19 7 57 18q36 10 37 11q39 12 56 31.5t17 59.5q0 34 -10 53q-17 33 -86 33q-50 0 -73.5 -13.5t-23.5 -46.5h-26q0 46 30.5 65.5t91.5 19.5
q63 0 92 -23q31 -24 31 -88z" />
    <glyph glyph-name="threesuperior" unicode="&#xb3;" 
d="M295 374q0 -58 -27 -85q-28 -28 -101 -28q-62 0 -92.5 19.5t-30.5 65.5h27q0 -33 23 -46.5t73 -13.5q65 0 84 20q18 18 18 67q0 60 -24 78q-21 17 -76 17h-58v24h58q53 0 76 17q20 14 20 60t-20 62.5t-76 16.5q-50 0 -73 -13.5t-23 -46.5h-26q0 85 122 85
q67 0 94.5 -22.5t27.5 -79.5t-26 -77q-11 -10 -27 -14q57 -19 57 -106z" />
    <glyph glyph-name="acute" unicode="&#xb4;" horiz-adv-x="410" 
d="M290 667l-132 -132h-37l132 132h37z" />
    <glyph glyph-name="uni00B5" unicode="&#xb5;" horiz-adv-x="530" 
d="M444 0h-27v90q-42 -97 -165 -97q-103 0 -137 56v-240h-29v667h29v-240v-20q0 -83 4 -113t24 -50q34 -33 107 -33q78 0 117 40q24 24 35 62.5t12 63t1 86.5v204h29v-476z" />
    <glyph glyph-name="paragraph" unicode="&#xb6;" horiz-adv-x="554" 
d="M437 0h-28v640h-85v-640h-28v318h-11q-94 0 -130.5 6.5t-67.5 37.5q-38 38 -38 129q0 94 37 132q31 31 67.5 37.5t130.5 6.5h153v-667zM295 345l1 295h-4q-94 0 -126.5 -5.5t-56.5 -29.5q-32 -31 -32 -111q0 -83 31 -114q24 -24 57 -29.5t126 -5.5h4z" />
    <glyph glyph-name="periodcentered" unicode="&#xb7;" horiz-adv-x="202" 
d="M130 335q0 -28 -29 -28t-29 28t29 28t29 -28z" />
    <glyph glyph-name="cedilla" unicode="&#xb8;" horiz-adv-x="409" 
d="M275 -113h-1q0 -39 -15.5 -55.5t-55.5 -16.5t-56.5 13t-16.5 43h26q0 -20 10.5 -26t35.5 -6q28 0 37 10.5t8 36.5q0 12 -3 20.5t-5.5 13t-11 7t-12 3t-16.5 1t-17 0.5v69h27v-46q66 0 66 -67z" />
    <glyph glyph-name="onesuperior" unicode="&#xb9;" 
d="M272 267h-211v24h92v343l-75 -71l-17 17l92 87h27v-376h92v-24z" />
    <glyph glyph-name="ordmasculine" unicode="&#xba;" horiz-adv-x="374" 
d="M335 503q0 -102 -32 -135q-36 -36 -115 -36q-81 0 -116 36q-32 32 -32 135t31 135q36 36 116 36t115 -36q33 -33 33 -135zM308 503q0 92 -25 118q-28 28 -95 28q-70 0 -96 -28q-25 -25 -25 -118t24 -118q28 -28 96 -28q69 0 95 28q25 25 26 118z" />
    <glyph glyph-name="guillemotright" unicode="&#xbb;" horiz-adv-x="443" 
d="M385 237q0 -34 -21.5 -70.5t-74.5 -89.5l-21 -21l-19 19l22 22q50 50 68.5 81t18.5 60t-18.5 59t-68.5 82l-24 25l19 19l23 -24q53 -56 74.5 -92.5t21.5 -69.5zM196 237q0 -34 -21.5 -70.5t-74.5 -89.5l-21 -21l-19 19l22 22q50 50 68.5 81t18.5 60t-18.5 59t-68.5 82
l-24 25l19 19l23 -24q53 -56 74.5 -92.5t21.5 -69.5z" />
    <glyph glyph-name="onequarter" unicode="&#xbc;" horiz-adv-x="779" 
d="M731 118h-63v-118h-26v118h-178v25l178 257h26v-259h63v-23zM642 141v216l-149 -216h149zM572 667l-337 -667h-27l336 667h28zM272 267h-211v24h92v343l-75 -71l-17 17l92 87h27v-376h92v-24z" />
    <glyph glyph-name="onehalf" unicode="&#xbd;" horiz-adv-x="779" 
d="M736 293q0 -56 -30 -83q-23 -22 -99 -41q-53 -15 -69 -26q-19 -14 -19 -67v-51h216v-25h-243v87q0 39 14 60q13 18 37 28q19 7 57 18q36 10 37 11q39 12 56 30.5t17 58.5q0 34 -10 53q-16 33 -86 33q-50 0 -73.5 -13.5t-23.5 -46.5h-26q0 46 30.5 65.5t91.5 19.5
q63 0 92 -23q31 -24 31 -88zM572 667l-337 -667h-27l336 667h28zM272 267h-211v24h92v343l-75 -71l-17 17l92 87h27v-376h92v-24z" />
    <glyph glyph-name="threequarters" unicode="&#xbe;" horiz-adv-x="779" 
d="M572 667l-337 -667h-27l336 667h28zM295 374q0 -58 -27 -85q-28 -28 -101 -28q-62 0 -92.5 19.5t-30.5 65.5h27q0 -33 23 -46.5t73 -13.5q65 0 84 20q18 18 18 67q0 60 -24 78q-21 17 -76 17h-58v24h58q53 0 76 17q20 14 20 60t-20 62.5t-76 16.5q-50 0 -73 -13.5
t-23 -46.5h-26q0 85 122 85q67 0 94.5 -22.5t27.5 -79.5t-26 -77q-11 -10 -27 -14q57 -19 57 -106zM731 118h-63v-118h-26v118h-178v25l178 257h26v-259h63v-23zM642 141v216l-149 -216h149z" />
    <glyph glyph-name="questiondown" unicode="&#xbf;" horiz-adv-x="415" 
d="M256 455q0 -28 -29 -28q-30 0 -30 28t29 28q30 0 30 -28zM383 -66q0 -70 -41.5 -101t-130.5 -31q-88 0 -130 34q-45 36 -45 130q0 62 24.5 97.5t79.5 60.5q50 22 61.5 46.5t11.5 85.5v37h29v-54q0 -58 -18.5 -87.5t-72.5 -52.5q-49 -20 -68.5 -50t-19.5 -83q0 -51 15 -84
q26 -53 130 -53q78 0 113 24t35 81h27z" />
    <glyph glyph-name="Agrave" unicode="&#xc0;" horiz-adv-x="603" 
d="M570 0h-29l-81 210h-319l-80 -210h-29l251 667h36zM450 236l-149 405l-150 -405h299zM394 726h-36l-133 132h36z" />
    <glyph glyph-name="Aacute" unicode="&#xc1;" horiz-adv-x="603" 
d="M570 0h-29l-81 210h-319l-80 -210h-29l251 667h36zM450 236l-149 405l-150 -405h299zM379 858l-132 -132h-37l132 132h37z" />
    <glyph glyph-name="Acircumflex" unicode="&#xc2;" horiz-adv-x="603" 
d="M570 0h-29l-81 210h-319l-80 -210h-29l251 667h36zM450 236l-149 405l-150 -405h299zM453 726h-36l-114 117l-118 -117h-37l132 132h40z" />
    <glyph glyph-name="Atilde" unicode="&#xc3;" horiz-adv-x="603" 
d="M570 0h-29l-81 210h-319l-80 -210h-29l251 667h36zM450 236l-149 405l-150 -405h299zM489 837l-57 -39q-60 -41 -116 -5q-8 5 -41 28q-47 29 -90 -2l-57 -39l-15 19l57 39q59 41 116 4q28 -18 41 -27q48 -29 90 1l57 39z" />
    <glyph glyph-name="Adieresis" unicode="&#xc4;" horiz-adv-x="603" 
d="M570 0h-29l-81 210h-319l-80 -210h-29l251 667h36zM450 236l-149 405l-150 -405h299zM433 830q0 -26 -26 -26t-26 26q0 25 26 25t26 -25zM220 830q0 -26 -26 -26t-26 26q0 25 26 25t26 -25z" />
    <glyph glyph-name="Aring" unicode="&#xc5;" horiz-adv-x="603" 
d="M570 0h-29l-81 210h-319l-80 -210h-29l233 619q-28 4 -45 21q-24 24 -24 81v7q0 58 24 82q23 23 81 23q59 0 82 -23q24 -24 24 -81v-7q0 -58 -24 -82q-17 -17 -46 -21zM450 236l-141 381h-8h-9l-141 -381h299zM382 720v7q0 50 -16 66q-18 18 -65 18t-65 -18
q-15 -15 -15 -66v-7q0 -48 15 -63q17 -17 65 -17t65 17q16 16 16 63z" />
    <glyph glyph-name="AE" unicode="&#xc6;" horiz-adv-x="878" 
d="M800 0h-353v209h-281l-136 -209h-31l434 667h367v-27h-325v-284h315v-26h-315v-303h325v-27zM447 235v407l-265 -407h265z" />
    <glyph glyph-name="Ccedilla" unicode="&#xc7;" horiz-adv-x="631" 
d="M555 167q0 -94 -48 -133t-162 -41v-39q34 0 50 -16t15 -51q0 -39 -16 -55.5t-56 -16.5q-39 0 -55.5 13t-16.5 43h26q0 -20 10.5 -26t35.5 -6q28 0 36.5 10.5t8.5 36.5q0 12 -3 20.5t-5.5 13t-11 7t-12 3t-16.5 1t-17 0.5v62q-78 1 -123.5 20t-72.5 60q-20 32 -27.5 86
t-7.5 174t7.5 174.5t27.5 86.5q29 43 77.5 61.5t135.5 18.5q121 0 170.5 -39.5t49.5 -134.5h-27q-2 83 -44.5 115t-157.5 32q-132 0 -177 -64q-20 -30 -26.5 -76.5t-6.5 -173.5q0 -126 6.5 -172.5t26.5 -76.5q45 -64 177 -64q115 0 157.5 32t44.5 115h27z" />
    <glyph glyph-name="Egrave" unicode="&#xc8;" horiz-adv-x="564" 
d="M486 0h-385v667h385v-27h-357v-284h347v-26h-347v-303h357v-27zM369 726h-36l-133 132h36z" />
    <glyph glyph-name="Eacute" unicode="&#xc9;" horiz-adv-x="564" 
d="M486 0h-385v667h385v-27h-357v-284h347v-26h-347v-303h357v-27zM368 858l-132 -132h-37l132 132h37z" />
    <glyph glyph-name="Ecircumflex" unicode="&#xca;" horiz-adv-x="564" 
d="M486 0h-385v667h385v-27h-357v-284h347v-26h-347v-303h357v-27zM440 726h-36l-114 117l-118 -117h-37l132 132h40z" />
    <glyph glyph-name="Edieresis" unicode="&#xcb;" horiz-adv-x="564" 
d="M486 0h-385v667h385v-27h-357v-284h347v-26h-347v-303h357v-27zM432 833q0 -26 -26 -26t-26 26q0 25 26 25t26 -25zM219 833q0 -26 -26 -26t-26 26q0 25 26 25t26 -25z" />
    <glyph glyph-name="Igrave" unicode="&#xcc;" horiz-adv-x="263" 
d="M144 0h-29v667h29v-667zM215 726h-36l-132 132h36z" />
    <glyph glyph-name="Iacute" unicode="&#xcd;" horiz-adv-x="263" 
d="M144 0h-29v667h29v-667zM215 858l-132 -132h-36l132 132h36z" />
    <glyph glyph-name="Icircumflex" unicode="&#xce;" horiz-adv-x="262" 
d="M144 0h-29v667h29v-667zM282 726h-36l-114 117l-118 -117h-36l132 132h40z" />
    <glyph glyph-name="Idieresis" unicode="&#xcf;" horiz-adv-x="264" 
d="M144 0h-29v667h29v-667zM262 833q0 -26 -26 -26t-26 26q0 25 26 25t26 -25zM49 833q0 -26 -26 -26t-26 26q0 25 26 25t26 -25z" />
    <glyph glyph-name="Eth" unicode="&#xd0;" horiz-adv-x="668" 
d="M581 334q0 -112 -7.5 -165t-28.5 -89q-27 -44 -74 -62t-136 -18h-218v323h-94v26h93v318h218q91 0 137.5 -18t72.5 -62q22 -34 29.5 -86.5t7.5 -166.5zM551 334h1q0 109 -7.5 161t-27.5 83q-23 34 -64 47.5t-124 13.5h-184v-290h196v-26h-196v-296h183q83 0 124 13.5
t64 48.5q20 32 27.5 83t7.5 162z" />
    <glyph glyph-name="Ntilde" unicode="&#xd1;" horiz-adv-x="647" 
d="M545 0h-44l-372 637v-637h-28v667h43l373 -637v637h28v-667zM511 837l-57 -39q-60 -41 -116 -5q-8 5 -41 28q-47 29 -90 -2l-57 -39l-15 19l57 39q59 41 116 4q28 -18 41 -27q48 -29 90 1l57 39z" />
    <glyph glyph-name="Ograve" unicode="&#xd2;" horiz-adv-x="665" 
d="M577 333q0 -122 -7 -175.5t-28 -84.5q-51 -80 -210 -80q-158 0 -210 80q-20 32 -27.5 85.5t-7.5 174.5q0 120 7.5 174.5t27.5 86.5q54 80 210 80q159 0 210 -80q21 -31 28 -85t7 -176zM548 333q0 125 -6.5 172.5t-26.5 77.5q-43 64 -183 64q-139 0 -183 -64
q-20 -31 -26.5 -79t-6.5 -172q0 -123 6.5 -170t26.5 -78q44 -64 183 -64q140 0 183 64q20 30 26.5 76.5t6.5 172.5zM428 726h-36l-133 132h36z" />
    <glyph glyph-name="Oacute" unicode="&#xd3;" horiz-adv-x="665" 
d="M577 333q0 -122 -7 -175.5t-28 -84.5q-51 -80 -210 -80q-158 0 -210 80q-20 32 -27.5 85.5t-7.5 174.5q0 120 7.5 174.5t27.5 86.5q54 80 210 80q159 0 210 -80q21 -31 28 -85t7 -176zM548 333q0 125 -6.5 172.5t-26.5 77.5q-43 64 -183 64q-139 0 -183 -64
q-20 -31 -26.5 -79t-6.5 -172q0 -123 6.5 -170t26.5 -78q44 -64 183 -64q140 0 183 64q20 30 26.5 76.5t6.5 172.5zM407 858l-132 -132h-37l132 132h37z" />
    <glyph glyph-name="Ocircumflex" unicode="&#xd4;" horiz-adv-x="665" 
d="M577 333q0 -122 -7 -175.5t-28 -84.5q-51 -80 -210 -80q-158 0 -210 80q-20 32 -27.5 85.5t-7.5 174.5q0 120 7.5 174.5t27.5 86.5q54 80 210 80q159 0 210 -80q21 -31 28 -85t7 -176zM548 333q0 125 -6.5 172.5t-26.5 77.5q-43 64 -183 64q-139 0 -183 -64
q-20 -31 -26.5 -79t-6.5 -172q0 -123 6.5 -170t26.5 -78q44 -64 183 -64q140 0 183 64q20 30 26.5 76.5t6.5 172.5zM483 726h-36l-114 117l-118 -117h-37l132 132h40z" />
    <glyph glyph-name="Otilde" unicode="&#xd5;" horiz-adv-x="665" 
d="M577 333q0 -122 -7 -175.5t-28 -84.5q-51 -80 -210 -80q-158 0 -210 80q-20 32 -27.5 85.5t-7.5 174.5q0 120 7.5 174.5t27.5 86.5q54 80 210 80q159 0 210 -80q21 -31 28 -85t7 -176zM548 333q0 125 -6.5 172.5t-26.5 77.5q-43 64 -183 64q-139 0 -183 -64
q-20 -31 -26.5 -79t-6.5 -172q0 -123 6.5 -170t26.5 -78q44 -64 183 -64q140 0 183 64q20 30 26.5 76.5t6.5 172.5zM520 837l-57 -39q-60 -41 -116 -5q-8 5 -41 28q-47 29 -90 -2l-57 -39l-15 19l57 39q59 41 116 4q28 -18 41 -27q48 -29 90 1l57 39z" />
    <glyph glyph-name="Odieresis" unicode="&#xd6;" horiz-adv-x="665" 
d="M577 333q0 -122 -7 -175.5t-28 -84.5q-51 -80 -210 -80q-158 0 -210 80q-20 32 -27.5 85.5t-7.5 174.5q0 120 7.5 174.5t27.5 86.5q54 80 210 80q159 0 210 -80q21 -31 28 -85t7 -176zM548 333q0 125 -6.5 172.5t-26.5 77.5q-43 64 -183 64q-139 0 -183 -64
q-20 -31 -26.5 -79t-6.5 -172q0 -123 6.5 -170t26.5 -78q44 -64 183 -64q140 0 183 64q20 30 26.5 76.5t6.5 172.5zM465 830q0 -26 -26 -26t-26 26q0 25 26 25t26 -25zM252 830q0 -26 -26 -26t-26 26q0 25 26 25t26 -25z" />
    <glyph glyph-name="multiply" unicode="&#xd7;" horiz-adv-x="557" 
d="M495 38l-19 -18l-198 200l-198 -200l-19 18l198 200l-197 195l19 19l197 -195l197 195l19 -19l-196 -196z" />
    <glyph glyph-name="Oslash" unicode="&#xd8;" horiz-adv-x="665" 
d="M577 331q-1 -120 -9 -175t-28 -85q-28 -42 -78.5 -60.5t-131.5 -17.5q-8 0 -63 5l-32 -139l-26 6l32 137q-84 13 -121 73q-20 32 -26.5 85t-5.5 175q1 121 8.5 175.5t28.5 85.5q53 79 210 78q19 0 63 -4l31 133l26 -6l-31 -132q84 -14 121 -73q20 -32 26.5 -85.5
t5.5 -175.5zM548 331q1 126 -5 173t-25 77q-31 47 -100 58l-145 -615q6 0 24.5 -2t32.5 -2q73 -1 116 13.5t67 48.5q21 29 27.5 76t7.5 173zM392 644q-2 0 -22 1.5t-35 1.5q-74 1 -117 -13.5t-66 -48.5q-21 -30 -27.5 -78t-7.5 -173q-1 -126 4.5 -172t25.5 -76
q29 -45 100 -59z" />
    <glyph glyph-name="Ugrave" unicode="&#xd9;" horiz-adv-x="648" 
d="M550 336v-25q0 -108 -2 -145.5t-13 -64.5q-40 -108 -212 -108q-170 0 -212 108q-10 27 -12 64t-2 145v26v331h29v-331v-41.5v-37v-31t0.5 -28t1 -23t1.5 -20.5l2.5 -17t3.5 -16.5t4.5 -13.5t5.5 -13q42 -75 178 -75q137 0 178 75q3 6 6 13t5 13.5t3.5 16.5l2.5 17t1.5 21
t1 22.5t0.5 28v31v37v41.5v331h29v-331zM412 726h-36l-133 132h36z" />
    <glyph glyph-name="Uacute" unicode="&#xda;" horiz-adv-x="648" 
d="M550 336v-25q0 -108 -2 -145.5t-13 -64.5q-40 -108 -212 -108q-170 0 -212 108q-10 27 -12 64t-2 145v26v331h29v-331v-41.5v-37v-31t0.5 -28t1 -23t1.5 -20.5l2.5 -17t3.5 -16.5t4.5 -13.5t5.5 -13q42 -75 178 -75q137 0 178 75q3 6 6 13t5 13.5t3.5 16.5l2.5 17t1.5 21
t1 22.5t0.5 28v31v37v41.5v331h29v-331zM396 858l-132 -132h-37l132 132h37z" />
    <glyph glyph-name="Ucircumflex" unicode="&#xdb;" horiz-adv-x="648" 
d="M550 336v-25q0 -108 -2 -145.5t-13 -64.5q-40 -108 -212 -108q-170 0 -212 108q-10 27 -12 64t-2 145v26v331h29v-331v-41.5v-37v-31t0.5 -28t1 -23t1.5 -20.5l2.5 -17t3.5 -16.5t4.5 -13.5t5.5 -13q42 -75 178 -75q137 0 178 75q3 6 6 13t5 13.5t3.5 16.5l2.5 17t1.5 21
t1 22.5t0.5 28v31v37v41.5v331h29v-331zM474 726h-36l-114 117l-118 -117h-37l132 132h40z" />
    <glyph glyph-name="Udieresis" unicode="&#xdc;" horiz-adv-x="648" 
d="M550 336v-25q0 -108 -2 -145.5t-13 -64.5q-40 -108 -212 -108q-170 0 -212 108q-10 27 -12 64t-2 145v26v331h29v-331v-41.5v-37v-31t0.5 -28t1 -23t1.5 -20.5l2.5 -17t3.5 -16.5t4.5 -13.5t5.5 -13q42 -75 178 -75q137 0 178 75q3 6 6 13t5 13.5t3.5 16.5l2.5 17t1.5 21
t1 22.5t0.5 28v31v37v41.5v331h29v-331zM457 830q0 -26 -26 -26t-26 26q0 25 26 25t26 -25zM244 830q0 -26 -26 -26t-26 26q0 25 26 25t26 -25z" />
    <glyph glyph-name="Yacute" unicode="&#xdd;" horiz-adv-x="514" 
d="M495 667l-224 -372v-295h-29v295l-224 372h32l208 -346l207 346h30zM343 858l-132 -132h-37l132 132h37z" />
    <glyph glyph-name="Thorn" unicode="&#xde;" horiz-adv-x="594" 
d="M548 333q0 -92 -37 -129q-31 -31 -67.5 -37.5t-130.5 -6.5h-184v-160h-28v667h28v-158h184q95 0 131 -6.5t67 -37.5q37 -37 37 -132zM520 336q0 80 -31 111q-24 24 -56.5 29.5t-126.5 5.5h-177v-295h177q94 0 126.5 5.5t56.5 29.5q31 31 31 114z" />
    <glyph glyph-name="germandbls" unicode="&#xdf;" horiz-adv-x="558" 
d="M477 191q0 -98 -41 -142q-47 -49 -159 -49h-84v26h85q102 0 138 42q33 38 33 120q0 106 -41 140q-40 32 -137 32h-78v26h77q91 0 137 36q36 28 36 112q0 82 -35.5 112.5t-128.5 30.5q-94 0 -136 -42q-5 -5 -9 -10.5t-6.5 -13l-4.5 -13t-3.5 -16t-2 -15.5t-1 -17.5
t-0.5 -16.5v-18.5v-17.5v-497h-28v494v21v21.5t0.5 19t1.5 20.5t2.5 17.5t4 18l6 15.5t9 16t11.5 13q48 48 155 48q106 0 149.5 -37.5t43.5 -129.5q0 -95 -40 -129q-38 -30 -72 -35q118 -17 118 -182z" />
    <glyph glyph-name="agrave" unicode="&#xe0;" horiz-adv-x="528" 
d="M446 0h-25v96q-39 -103 -186 -103q-90 0 -131 33t-41 106q0 74 35 109q18 18 48.5 27t46.5 9.5t47 0.5h179v27q0 67 -11 92q-7 13 -17 24q-32 35 -130 35q-97 0 -130 -33q-30 -31 -30 -73h-26q0 54 34 88q46 45 160 45q100 0 140 -41q19 -19 27.5 -48t9 -46t0.5 -69v-279
zM419 252h-183q-87 0 -116 -29q-30 -30 -30 -90q0 -61 32.5 -87t109.5 -26q132 0 169 84q11 26 14 50t4 98zM347 535h-36l-133 132h36z" />
    <glyph glyph-name="aacute" unicode="&#xe1;" horiz-adv-x="528" 
d="M446 0h-25v96q-39 -103 -186 -103q-90 0 -131 33t-41 106q0 74 35 109q18 18 48.5 27t46.5 9.5t47 0.5h179v27q0 67 -11 92q-7 13 -17 24q-32 35 -130 35q-97 0 -130 -33q-30 -31 -30 -73h-26q0 54 34 88q46 45 160 45q100 0 140 -41q19 -19 27.5 -48t9 -46t0.5 -69v-279
zM419 252h-183q-87 0 -116 -29q-30 -30 -30 -90q0 -61 32.5 -87t109.5 -26q132 0 169 84q11 26 14 50t4 98zM347 667l-132 -132h-37l132 132h37z" />
    <glyph glyph-name="acircumflex" unicode="&#xe2;" horiz-adv-x="528" 
d="M446 0h-25v96q-39 -103 -186 -103q-90 0 -131 33t-41 106q0 74 35 109q18 18 48.5 27t46.5 9.5t47 0.5h179v27q0 67 -11 92q-7 13 -17 24q-32 35 -130 35q-97 0 -130 -33q-30 -31 -30 -73h-26q0 54 34 88q46 45 160 45q100 0 140 -41q19 -19 27.5 -48t9 -46t0.5 -69v-279
zM419 252h-183q-87 0 -116 -29q-30 -30 -30 -90q0 -61 32.5 -87t109.5 -26q132 0 169 84q11 26 14 50t4 98zM417 535h-36l-114 117l-118 -117h-37l132 132h40z" />
    <glyph glyph-name="atilde" unicode="&#xe3;" horiz-adv-x="528" 
d="M446 0h-25v96q-39 -103 -186 -103q-90 0 -131 33t-41 106q0 74 35 109q18 18 48.5 27t46.5 9.5t47 0.5h179v27q0 67 -11 92q-7 13 -17 24q-32 35 -130 35q-97 0 -130 -33q-30 -31 -30 -73h-26q0 54 34 88q46 45 160 45q100 0 140 -41q19 -19 27.5 -48t9 -46t0.5 -69v-279
zM419 252h-183q-87 0 -116 -29q-30 -30 -30 -90q0 -61 32.5 -87t109.5 -26q132 0 169 84q11 26 14 50t4 98zM451 651l-57 -39q-60 -41 -116 -5q-8 5 -41 28q-47 29 -90 -2l-57 -39l-15 19l57 39q59 41 116 4q28 -18 41 -27q48 -29 90 1l57 39z" />
    <glyph glyph-name="adieresis" unicode="&#xe4;" horiz-adv-x="528" 
d="M446 0h-25v96q-39 -103 -186 -103q-90 0 -131 33t-41 106q0 74 35 109q18 18 48.5 27t46.5 9.5t47 0.5h179v27q0 67 -11 92q-7 13 -17 24q-32 35 -130 35q-97 0 -130 -33q-30 -31 -30 -73h-26q0 54 34 88q46 45 160 45q100 0 140 -41q19 -19 27.5 -48t9 -46t0.5 -69v-279
zM419 252h-183q-87 0 -116 -29q-30 -30 -30 -90q0 -61 32.5 -87t109.5 -26q132 0 169 84q11 26 14 50t4 98zM396 642q0 -26 -26 -26t-26 26q0 25 26 25t26 -25zM183 642q0 -26 -26 -26t-26 26q0 25 26 25t26 -25z" />
    <glyph glyph-name="aring" unicode="&#xe5;" horiz-adv-x="528" 
d="M446 0h-25v96q-39 -103 -186 -103q-90 0 -131 33t-41 106q0 74 35 109q18 18 48.5 27t46.5 9.5t47 0.5h179v27q0 67 -11 92q-7 13 -17 24q-33 36 -131 36q-95 0 -129 -34q-30 -31 -30 -73h-26q0 54 34 88q33 33 88 38q-37 14 -37 87q0 57 24 81q23 23 81 23q60 0 82 -23
q24 -24 24 -81q0 -74 -34 -87q44 -4 72 -34q19 -19 27.5 -48t9 -46t0.5 -69v-279zM346 561q0 50 -16 66q-18 18 -65 18q-45 0 -65 -18q-15 -17 -15 -66q0 -46 15 -63q17 -17 66 -17q48 0 64 17q16 16 16 63zM419 252h-183q-87 0 -116 -29q-30 -30 -30 -90q0 -61 32.5 -87
t109.5 -26q132 0 169 84q11 26 14 50t4 98z" />
    <glyph glyph-name="ae" unicode="&#xe6;" horiz-adv-x="875" 
d="M805 250h-359q0 -149 34 -187q40 -43 136 -43q92 0 132 40q23 23 23 66h26q0 -54 -28 -84q-43 -49 -154 -49q-108 0 -155 51q-25 28 -30 68q-4 -32 -40 -68q-51 -51 -155 -51q-91 0 -131.5 31t-40.5 104q0 75 35 110q38 38 142 38h179v29q0 67 -11 92q-7 13 -17 24
q-32 35 -130 35q-97 0 -130 -33q-30 -31 -30 -73h-26q0 54 34 88q46 45 160 45q100 0 140 -41q26 -26 28 -50q6 20 23 40q47 51 152 51q56 0 90 -9.5t61 -37.5q42 -41 42 -170v-16zM777 276q0 102 -34 140q-36 40 -131 40q-92 0 -132 -43q-34 -38 -34 -137h331zM419 250
h-183q-86 0 -116 -30t-30 -91t32.5 -85t109.5 -24q132 0 169 84q12 26 14 47t4 99z" />
    <glyph glyph-name="ccedilla" unicode="&#xe7;" horiz-adv-x="511" 
d="M448 126q0 -55 -28 -85q-43 -48 -143 -48v-39q34 0 50 -16t15 -51q0 -39 -16 -55.5t-56 -16.5q-39 0 -55.5 13t-16.5 43h26q0 -20 10.5 -26t35.5 -6q28 0 37 10.5t8 36.5q0 12 -3 20.5t-5.5 13t-11 7t-12 3t-16.5 1t-17 0.5v62q-47 3 -80 13t-59 38q-23 25 -32.5 68.5
t-9.5 125.5q0 83 9.5 125.5t32.5 68.5q47 51 155 51q111 0 154 -48q28 -30 28 -85h-26q0 44 -23 67q-39 39 -132 39q-96 0 -136 -43q-19 -22 -26.5 -60t-7.5 -115t7.5 -115t26.5 -60q40 -43 137 -43q93 0 132 39q22 22 22 67h26z" />
    <glyph glyph-name="egrave" unicode="&#xe8;" horiz-adv-x="526" 
d="M456 243h-359q0 -70 6 -113t28 -67q40 -43 136 -43q92 0 132 40q23 23 23 66h26q0 -54 -28 -84q-43 -49 -154 -49q-108 0 -155 51q-23 26 -32.5 68.5t-9.5 125.5t9.5 125.5t32.5 68.5q47 51 152 51q55 0 89 -11t62 -39q42 -42 42 -173v-17zM428 269q0 106 -34 144
q-38 43 -131 43q-92 0 -132 -43q-34 -38 -34 -144h331zM345 535h-36l-133 132h36z" />
    <glyph glyph-name="eacute" unicode="&#xe9;" horiz-adv-x="526" 
d="M456 243h-359q0 -70 6 -113t28 -67q40 -43 136 -43q92 0 132 40q23 23 23 66h26q0 -54 -28 -84q-43 -49 -154 -49q-108 0 -155 51q-23 26 -32.5 68.5t-9.5 125.5t9.5 125.5t32.5 68.5q47 51 152 51q55 0 89 -11t62 -39q42 -42 42 -173v-17zM428 269q0 106 -34 144
q-38 43 -131 43q-92 0 -132 -43q-34 -38 -34 -144h331zM347 667l-132 -132h-37l132 132h37z" />
    <glyph glyph-name="ecircumflex" unicode="&#xea;" horiz-adv-x="526" 
d="M456 243h-359q0 -70 6 -113t28 -67q40 -43 136 -43q92 0 132 40q23 23 23 66h26q0 -54 -28 -84q-43 -49 -154 -49q-108 0 -155 51q-23 26 -32.5 68.5t-9.5 125.5t9.5 125.5t32.5 68.5q47 51 152 51q55 0 89 -11t62 -39q42 -42 42 -173v-17zM428 269q0 106 -34 144
q-38 43 -131 43q-92 0 -132 -43q-34 -38 -34 -144h331zM412 535h-36l-114 117l-118 -117h-37l132 132h40z" />
    <glyph glyph-name="edieresis" unicode="&#xeb;" horiz-adv-x="526" 
d="M456 243h-359q0 -70 6 -113t28 -67q40 -43 136 -43q92 0 132 40q23 23 23 66h26q0 -54 -28 -84q-43 -49 -154 -49q-108 0 -155 51q-23 26 -32.5 68.5t-9.5 125.5t9.5 125.5t32.5 68.5q47 51 152 51q55 0 89 -11t62 -39q42 -42 42 -173v-17zM428 269q0 106 -34 144
q-38 43 -131 43q-92 0 -132 -43q-34 -38 -34 -144h331zM394 642q0 -26 -26 -26t-26 26q0 25 26 25t26 -25zM181 642q0 -26 -26 -26t-26 26q0 25 26 25t26 -25z" />
    <glyph glyph-name="igrave" unicode="&#xec;" horiz-adv-x="203" 
d="M113 0h-28v476h28v-476zM183 535h-36l-132 132h36z" />
    <glyph glyph-name="iacute" unicode="&#xed;" horiz-adv-x="203" 
d="M113 0h-28v476h28v-476zM185 667l-132 -132h-36l132 132h36z" />
    <glyph glyph-name="icircumflex" unicode="&#xee;" horiz-adv-x="203" 
d="M113 0h-28v476h28v-476zM251 535h-36l-114 117l-118 -117h-36l132 132h40z" />
    <glyph glyph-name="idieresis" unicode="&#xef;" horiz-adv-x="205" 
d="M115 0h-29v476h29v-476zM233 642q0 -26 -26 -26t-26 26q0 25 26 25t26 -25zM20 642q0 -26 -26 -26t-26 26q0 25 26 25t26 -25z" />
    <glyph glyph-name="eth" unicode="&#xf0;" horiz-adv-x="532" 
d="M462 238q1 -83 -8.5 -125.5t-33.5 -68.5q-45 -51 -154 -51q-108 0 -155 51q-23 26 -32.5 68t-9.5 125q0 126 27 177q19 34 59.5 52t94.5 17q43 0 81 -10l-136 136l-61 -61l-17 17l61 61l-59 59l18 18l59 -59l59 59l17 -17l-59 -59l162 -162q55 -55 70.5 -96t16.5 -131z
M434 238q0 119 -41.5 168.5t-142.5 49.5q-88 0 -123 -46q-30 -43 -30 -173q0 -77 7.5 -114.5t26.5 -59.5q40 -43 135 -43q96 0 134 43q19 22 26.5 59.5t7.5 115.5z" />
    <glyph glyph-name="ntilde" unicode="&#xf1;" horiz-adv-x="533" 
d="M458 0h-28v241q0 93 -5 127t-27 56q-32 32 -109 32q-80 0 -119 -39q-24 -24 -35 -62.5t-12 -63t-1 -86.5v-205h-28v476h27v-88q41 95 167 95q90 0 128 -38q30 -30 36 -66t6 -132v-247zM462 651l-57 -39q-58 -41 -116 -5q-33 23 -41 28q-46 29 -90 -2l-57 -39l-14 19
l57 39q59 41 116 4q28 -18 41 -27q48 -29 90 1l57 39z" />
    <glyph glyph-name="ograve" unicode="&#xf2;" horiz-adv-x="532" 
d="M462 238q0 -84 -9 -126.5t-33 -67.5q-45 -51 -154 -51q-108 0 -155 51q-23 26 -32.5 68.5t-9.5 125.5t9.5 125.5t32.5 68.5q47 51 155 51q109 0 154 -51q24 -25 33 -67.5t9 -126.5zM434 238q0 78 -7.5 115.5t-26.5 59.5q-38 43 -134 43q-95 0 -135 -43q-19 -22 -26.5 -60
t-7.5 -115t7.5 -115t26.5 -60q40 -43 135 -43q96 0 134 43q19 22 26.5 59.5t7.5 115.5zM349 535h-36l-133 132h36z" />
    <glyph glyph-name="oacute" unicode="&#xf3;" horiz-adv-x="532" 
d="M462 238q0 -84 -9 -126.5t-33 -67.5q-45 -51 -154 -51q-108 0 -155 51q-23 26 -32.5 68.5t-9.5 125.5t9.5 125.5t32.5 68.5q47 51 155 51q109 0 154 -51q24 -25 33 -67.5t9 -126.5zM434 238q0 78 -7.5 115.5t-26.5 59.5q-38 43 -134 43q-95 0 -135 -43q-19 -22 -26.5 -60
t-7.5 -115t7.5 -115t26.5 -60q40 -43 135 -43q96 0 134 43q19 22 26.5 59.5t7.5 115.5zM349 667l-132 -132h-37l132 132h37z" />
    <glyph glyph-name="ocircumflex" unicode="&#xf4;" horiz-adv-x="532" 
d="M462 238q0 -84 -9 -126.5t-33 -67.5q-45 -51 -154 -51q-108 0 -155 51q-23 26 -32.5 68.5t-9.5 125.5t9.5 125.5t32.5 68.5q47 51 155 51q109 0 154 -51q24 -25 33 -67.5t9 -126.5zM434 238q0 78 -7.5 115.5t-26.5 59.5q-38 43 -134 43q-95 0 -135 -43q-19 -22 -26.5 -60
t-7.5 -115t7.5 -115t26.5 -60q40 -43 135 -43q96 0 134 43q19 22 26.5 59.5t7.5 115.5zM417 535h-36l-114 117l-118 -117h-37l132 132h40z" />
    <glyph glyph-name="otilde" unicode="&#xf5;" horiz-adv-x="532" 
d="M462 238q0 -84 -9 -126.5t-33 -67.5q-45 -51 -154 -51q-108 0 -155 51q-23 26 -32.5 68.5t-9.5 125.5t9.5 125.5t32.5 68.5q47 51 155 51q109 0 154 -51q24 -25 33 -67.5t9 -126.5zM434 238q0 78 -7.5 115.5t-26.5 59.5q-38 43 -134 43q-95 0 -135 -43q-19 -22 -26.5 -60
t-7.5 -115t7.5 -115t26.5 -60q40 -43 135 -43q96 0 134 43q19 22 26.5 59.5t7.5 115.5zM453 651l-57 -39q-60 -41 -116 -5q-8 5 -41 28q-47 29 -90 -2l-57 -39l-15 19l57 39q59 41 116 4q28 -18 41 -27q48 -29 90 1l57 39z" />
    <glyph glyph-name="odieresis" unicode="&#xf6;" horiz-adv-x="532" 
d="M462 238q0 -84 -9 -126.5t-33 -67.5q-45 -51 -154 -51q-108 0 -155 51q-23 26 -32.5 68.5t-9.5 125.5t9.5 125.5t32.5 68.5q47 51 155 51q109 0 154 -51q24 -25 33 -67.5t9 -126.5zM434 238q0 78 -7.5 115.5t-26.5 59.5q-38 43 -134 43q-95 0 -135 -43q-19 -22 -26.5 -60
t-7.5 -115t7.5 -115t26.5 -60q40 -43 135 -43q96 0 134 43q19 22 26.5 59.5t7.5 115.5zM398 642q0 -26 -26 -26t-26 26q0 25 26 25t26 -25zM185 642q0 -26 -26 -26t-26 26q0 25 26 25t26 -25z" />
    <glyph glyph-name="divide" unicode="&#xf7;" horiz-adv-x="557" 
d="M308 455q0 -28 -29 -28q-30 0 -30 28t29 28q30 0 30 -28zM517 226h-477v26h477v-26zM308 21q0 -28 -29 -28q-30 0 -30 28t29 28q30 0 30 -28z" />
    <glyph glyph-name="oslash" unicode="&#xf8;" horiz-adv-x="532" 
d="M462 235q-1 -81 -10 -124t-33 -68q-50 -51 -155 -50q-41 0 -67 7l-31 -93l-24 8l31 91q-38 11 -63 39q-23 25 -32 69t-8 128q1 82 10.5 123.5t32.5 67.5q47 51 156 50q26 0 66 -6l30 93l25 -9l-30 -91q41 -14 62 -39q23 -26 32 -69.5t8 -126.5zM434 236q1 85 -7 120.5
t-25 55.5q-19 23 -54 33l-141 -419q22 -6 58 -6q95 -2 134 42q19 21 26.5 58.5t8.5 115.5zM324 451q-40 5 -56 5q-95 1 -135 -42q-19 -21 -26.5 -59t-8.5 -114q-1 -79 6 -117.5t26 -59.5q19 -22 53 -32z" />
    <glyph glyph-name="ugrave" unicode="&#xf9;" horiz-adv-x="533" 
d="M445 0h-27v88q-41 -95 -167 -95q-90 0 -128 38q-30 30 -36 66t-6 132v247h28v-241q0 -93 5 -127t27 -56q32 -32 109 -32q80 0 119 39q24 24 35 62.5t12 63t1 86.5v205h28v-476zM350 535h-36l-133 132h36z" />
    <glyph glyph-name="uacute" unicode="&#xfa;" horiz-adv-x="533" 
d="M445 0h-27v88q-41 -95 -167 -95q-90 0 -128 38q-30 30 -36 66t-6 132v247h28v-241q0 -93 5 -127t27 -56q32 -32 109 -32q80 0 119 39q24 24 35 62.5t12 63t1 86.5v205h28v-476zM349 667l-132 -132h-37l132 132h37z" />
    <glyph glyph-name="ucircumflex" unicode="&#xfb;" horiz-adv-x="533" 
d="M445 0h-27v88q-41 -95 -167 -95q-90 0 -128 38q-30 30 -36 66t-6 132v247h28v-241q0 -93 5 -127t27 -56q32 -32 109 -32q80 0 119 39q24 24 35 62.5t12 63t1 86.5v205h28v-476zM418 535h-36l-114 117l-118 -117h-37l132 132h40z" />
    <glyph glyph-name="udieresis" unicode="&#xfc;" horiz-adv-x="533" 
d="M445 0h-27v88q-41 -95 -167 -95q-90 0 -128 38q-30 30 -36 66t-6 132v247h28v-241q0 -93 5 -127t27 -56q32 -32 109 -32q80 0 119 39q24 24 35 62.5t12 63t1 86.5v205h28v-476zM398 642q0 -26 -26 -26t-26 26q0 25 26 25t26 -25zM185 642q0 -26 -26 -26t-26 26
q0 25 26 25t26 -25z" />
    <glyph glyph-name="yacute" unicode="&#xfd;" horiz-adv-x="450" 
d="M416 476l-246 -667h-28l71 192l-174 475h29l160 -436l159 436h29zM359 667l-132 -132h-37l132 132h37z" />
    <glyph glyph-name="thorn" unicode="&#xfe;" horiz-adv-x="548" 
d="M478 239q0 -129 -27 -177q-37 -69 -159 -69q-134 0 -177 92v-276h-28v888h28v-305q42 91 177 91q122 0 159 -69q27 -48 27 -175zM450 239q0 130 -30 171q-33 46 -123 46q-102 0 -142.5 -48t-40.5 -169q0 -123 40.5 -171t142.5 -48q90 0 123 46q30 41 30 173z" />
    <glyph glyph-name="ydieresis" unicode="&#xff;" horiz-adv-x="450" 
d="M416 476l-246 -667h-28l71 192l-174 475h29l160 -436l159 436h29zM367 642q0 -26 -26 -26t-26 26q0 25 26 25t26 -25zM154 642q0 -26 -26 -26t-26 26q0 25 26 25t26 -25z" />
    <glyph glyph-name="Amacron" unicode="&#x100;" horiz-adv-x="603" 
d="M570 0h-29l-81 210h-319l-80 -210h-29l251 667h36zM450 236l-149 405l-150 -405h299zM456 813h-309v26h309v-26z" />
    <glyph glyph-name="amacron" unicode="&#x101;" horiz-adv-x="528" 
d="M446 0h-25v96q-39 -103 -186 -103q-90 0 -131 33t-41 106q0 74 35 109q18 18 48.5 27t46.5 9.5t47 0.5h179v27q0 67 -11 92q-7 13 -17 24q-32 35 -130 35q-97 0 -130 -33q-30 -31 -30 -73h-26q0 54 34 88q46 45 160 45q100 0 140 -41q19 -19 27.5 -48t9 -46t0.5 -69v-279
zM419 252h-183q-87 0 -116 -29q-30 -30 -30 -90q0 -61 32.5 -87t109.5 -26q132 0 169 84q11 26 14 50t4 98zM418 628h-309v26h309v-26z" />
    <glyph glyph-name="Abreve" unicode="&#x102;" horiz-adv-x="603" 
d="M570 0h-29l-81 210h-319l-80 -210h-29l251 667h36zM450 236l-149 405l-150 -405h299zM437 858h-1q0 -80 -29 -109q-29 -28 -105 -28q-77 0 -105 28q-29 28 -31 109h27q0 -70 19 -90q24 -22 89 -22q67 0 89 22q20 20 20 90h27z" />
    <glyph glyph-name="abreve" unicode="&#x103;" horiz-adv-x="528" 
d="M446 0h-25v96q-39 -103 -186 -103q-90 0 -131 33t-41 106q0 74 35 109q18 18 48.5 27t46.5 9.5t47 0.5h179v27q0 67 -11 92q-7 13 -17 24q-32 35 -130 35q-97 0 -130 -33q-30 -31 -30 -73h-26q0 54 34 88q46 45 160 45q100 0 140 -41q19 -19 27.5 -48t9 -46t0.5 -69v-279
zM419 252h-183q-87 0 -116 -29q-30 -30 -30 -90q0 -61 32.5 -87t109.5 -26q132 0 169 84q11 26 14 50t4 98zM399 667h-1q0 -80 -29 -109q-29 -28 -105 -28q-77 0 -105 28q-29 28 -31 109h27q0 -70 19 -90q24 -22 89 -22q67 0 89 22q20 20 20 90h27z" />
    <glyph glyph-name="Aogonek" unicode="&#x104;" horiz-adv-x="603" 
d="M450 236l-149 405l-150 -405h299zM537 8l-77 202h-319l-80 -210h-29l251 667h36l251 -667q-48 -24 -67 -46.5t-19 -54.5q0 -64 61 -64q20 0 38 2v-24q-12 -3 -39 -3q-41 0 -64.5 21.5t-23.5 64.5q0 32 14.5 55.5t28.5 33.5t38 23z" />
    <glyph glyph-name="aogonek" unicode="&#x105;" horiz-adv-x="528" 
d="M419 252h-183q-87 0 -116 -29q-30 -30 -30 -90q0 -61 32.5 -87t109.5 -26q132 0 169 84q11 26 14 50t4 98zM446 279v-279q-48 -22 -68 -45t-20 -56q0 -65 63 -65q20 0 38 2v-23q-12 -3 -39 -3q-41 0 -64.5 21.5t-23.5 64.5q0 46 23 70.5t66 45.5v84q-39 -103 -186 -103
q-90 0 -131 33t-41 106q0 74 35 109q18 18 48.5 27t46.5 9.5t47 0.5h179v27q0 67 -11 92q-7 13 -17 24q-32 35 -130 35q-97 0 -130 -33q-30 -31 -30 -73h-26q0 54 34 88q46 45 160 45q100 0 140 -41q19 -19 27.5 -48t9 -46t0.5 -69z" />
    <glyph glyph-name="Cacute" unicode="&#x106;" horiz-adv-x="631" 
d="M555 167q0 -95 -49.5 -134.5t-170.5 -39.5q-87 0 -135.5 18.5t-77.5 61.5q-20 32 -27.5 86t-7.5 174t7.5 174.5t27.5 86.5q29 43 77.5 61.5t135.5 18.5q121 0 170.5 -39.5t49.5 -134.5h-27q-2 83 -44.5 115t-157.5 32q-132 0 -177 -64q-20 -30 -26.5 -76.5t-6.5 -173.5
t6 -173t27 -76q45 -64 177 -64q115 0 157.5 32t44.5 115h27zM414 858l-132 -132h-37l132 132h37z" />
    <glyph glyph-name="cacute" unicode="&#x107;" horiz-adv-x="511" 
d="M448 126q0 -55 -28 -85q-43 -48 -154 -48q-108 0 -155 51q-23 26 -32.5 68.5t-9.5 125.5t9.5 125.5t32.5 68.5q47 51 155 51q111 0 154 -48q28 -30 28 -85h-26q0 44 -23 67q-38 39 -132 39q-96 0 -136 -43q-19 -22 -26.5 -60t-7.5 -115t7.5 -115t26.5 -60q40 -43 137 -43
q94 0 132 39q22 22 22 67h26zM360 667l-132 -132h-37l132 132h37z" />
    <glyph glyph-name="Ccircumflex" unicode="&#x108;" horiz-adv-x="631" 
d="M555 167q0 -95 -49.5 -134.5t-170.5 -39.5q-87 0 -135.5 18.5t-77.5 61.5q-20 32 -27.5 86t-7.5 174t7.5 174.5t27.5 86.5q29 43 77.5 61.5t135.5 18.5q121 0 170.5 -39.5t49.5 -134.5h-27q-2 83 -44.5 115t-157.5 32q-132 0 -177 -64q-20 -30 -26.5 -76.5t-6.5 -173.5
t6 -173t27 -76q45 -64 177 -64q115 0 157.5 32t44.5 115h27zM482 726h-36l-114 117l-118 -117h-37l132 132h40z" />
    <glyph glyph-name="ccircumflex" unicode="&#x109;" horiz-adv-x="511" 
d="M448 126q0 -55 -28 -85q-43 -48 -154 -48q-108 0 -155 51q-23 26 -32.5 68.5t-9.5 125.5t9.5 125.5t32.5 68.5q47 51 155 51q111 0 154 -48q28 -30 28 -85h-26q0 44 -23 67q-38 39 -132 39q-96 0 -136 -43q-19 -22 -26.5 -60t-7.5 -115t7.5 -115t26.5 -60q40 -43 137 -43
q94 0 132 39q22 22 22 67h26zM418 535h-36l-114 117l-118 -117h-37l132 132h40z" />
    <glyph glyph-name="Cdotaccent" unicode="&#x10a;" horiz-adv-x="631" 
d="M555 167q0 -95 -49.5 -134.5t-170.5 -39.5q-87 0 -135.5 18.5t-77.5 61.5q-20 32 -27.5 86t-7.5 174t7.5 174.5t27.5 86.5q29 43 77.5 61.5t135.5 18.5q121 0 170.5 -39.5t49.5 -134.5h-27q-2 83 -44.5 115t-157.5 32q-132 0 -177 -64q-20 -30 -26.5 -76.5t-6.5 -173.5
t6 -173t27 -76q45 -64 177 -64q115 0 157.5 32t44.5 115h27zM355 830q0 -26 -26 -26t-26 26q0 25 26 25t26 -25z" />
    <glyph glyph-name="cdotaccent" unicode="&#x10b;" horiz-adv-x="511" 
d="M448 126q0 -55 -28 -85q-43 -48 -154 -48q-108 0 -155 51q-23 26 -32.5 68.5t-9.5 125.5t9.5 125.5t32.5 68.5q47 51 155 51q111 0 154 -48q28 -30 28 -85h-26q0 44 -23 67q-38 39 -132 39q-96 0 -136 -43q-19 -22 -26.5 -60t-7.5 -115t7.5 -115t26.5 -60q40 -43 137 -43
q94 0 132 39q22 22 22 67h26zM290 642q0 -26 -26 -26t-26 26q0 25 26 25t26 -25z" />
    <glyph glyph-name="Ccaron" unicode="&#x10c;" horiz-adv-x="631" 
d="M555 167q0 -95 -49.5 -134.5t-170.5 -39.5q-87 0 -135.5 18.5t-77.5 61.5q-20 32 -27.5 86t-7.5 174t7.5 174.5t27.5 86.5q29 43 77.5 61.5t135.5 18.5q121 0 170.5 -39.5t49.5 -134.5h-27q-2 83 -44.5 115t-157.5 32q-132 0 -177 -64q-20 -30 -26.5 -76.5t-6.5 -173.5
t6 -173t27 -76q45 -64 177 -64q115 0 157.5 32t44.5 115h27zM485 872l-132 -132h-40l-133 132h36l114 -117l118 117h37z" />
    <glyph glyph-name="ccaron" unicode="&#x10d;" horiz-adv-x="511" 
d="M448 126q0 -55 -28 -85q-43 -48 -154 -48q-108 0 -155 51q-23 26 -32.5 68.5t-9.5 125.5t9.5 125.5t32.5 68.5q47 51 155 51q111 0 154 -48q28 -30 28 -85h-26q0 44 -23 67q-38 39 -132 39q-96 0 -136 -43q-19 -22 -26.5 -60t-7.5 -115t7.5 -115t26.5 -60q40 -43 137 -43
q94 0 132 39q22 22 22 67h26zM418 667l-132 -132h-40l-133 132h36l114 -117l118 117h37z" />
    <glyph glyph-name="Dcaron" unicode="&#x10e;" horiz-adv-x="653" 
d="M565 334q0 -114 -7.5 -166.5t-28.5 -87.5q-26 -44 -73.5 -62t-136.5 -18h-218v667h218q91 0 137.5 -18t72.5 -62q21 -34 28.5 -86t7.5 -167zM536 334q0 111 -7.5 162t-27.5 82q-23 35 -64.5 48.5t-123.5 13.5h-183v-613h183q83 0 124 13.5t64 48.5q20 32 27.5 83t7.5 162
zM475 872l-132 -132h-40l-133 132h36l114 -117l118 117h37z" />
    <glyph glyph-name="dcaron" unicode="&#x10f;" horiz-adv-x="597" 
d="M460 0h-27v86q-43 -93 -178 -93q-121 0 -159 69q-27 51 -27 175q0 126 27 177q38 69 159 69q134 0 177 -92v306h28v-697zM433 237q0 123 -40.5 171t-142.5 48q-88 0 -123 -46q-30 -43 -30 -173q0 -128 30 -171q35 -46 123 -46q102 0 142.5 48t40.5 169zM597 683
q0 -45 -8 -69.5t-32 -48.5l-19 -19l-21 20l20 20q15 15 22 33.5t7.5 28.5t0.5 35v14h30v-14z" />
    <glyph glyph-name="Dcroat" unicode="&#x110;" horiz-adv-x="668" 
d="M581 334q0 -112 -7.5 -165t-28.5 -89q-27 -44 -74 -62t-136 -18h-218v323h-94v26h93v318h218q91 0 137.5 -18t72.5 -62q22 -34 29.5 -86.5t7.5 -166.5zM551 334h1q0 109 -7.5 161t-27.5 83q-23 34 -64 47.5t-124 13.5h-184v-290h196v-26h-196v-296h183q83 0 124 13.5
t64 48.5q20 32 27.5 83t7.5 162z" />
    <glyph glyph-name="dcroat" unicode="&#x111;" horiz-adv-x="548" 
d="M460 0h-27v86q-43 -93 -178 -93q-121 0 -159 69q-27 51 -27 175q0 126 27 177q38 69 159 69q134 0 177 -92v171h-194v28h194v107h28v-107h84v-28h-84v-562zM433 237q0 123 -40.5 171t-142.5 48q-88 0 -123 -46q-30 -43 -30 -173q0 -128 30 -171q35 -46 123 -46
q102 0 142.5 48t40.5 169z" />
    <glyph glyph-name="Emacron" unicode="&#x112;" horiz-adv-x="564" 
d="M486 0h-385v667h385v-27h-357v-284h347v-26h-347v-303h357v-27zM448 813h-309v26h309v-26z" />
    <glyph glyph-name="emacron" unicode="&#x113;" horiz-adv-x="526" 
d="M456 243h-359q0 -70 6 -113t28 -67q40 -43 136 -43q92 0 132 40q23 23 23 66h26q0 -54 -28 -84q-43 -49 -154 -49q-108 0 -155 51q-23 26 -32.5 68.5t-9.5 125.5t9.5 125.5t32.5 68.5q47 51 152 51q55 0 89 -11t62 -39q42 -42 42 -173v-17zM428 269q0 106 -34 144
q-38 43 -131 43q-92 0 -132 -43q-34 -38 -34 -144h331zM417 628h-309v26h309v-26z" />
    <glyph glyph-name="Ebreve" unicode="&#x114;" horiz-adv-x="564" 
d="M486 0h-385v667h385v-27h-357v-284h347v-26h-347v-303h357v-27zM430 858h-1q0 -80 -29 -109q-29 -28 -105 -28q-77 0 -105 28q-29 28 -31 109h27q0 -70 19 -90q24 -22 89 -22q67 0 89 22q20 20 20 90h27z" />
    <glyph glyph-name="ebreve" unicode="&#x115;" horiz-adv-x="526" 
d="M456 243h-359q0 -70 6 -113t28 -67q40 -43 136 -43q92 0 132 40q23 23 23 66h26q0 -54 -28 -84q-43 -49 -154 -49q-108 0 -155 51q-23 26 -32.5 68.5t-9.5 125.5t9.5 125.5t32.5 68.5q47 51 152 51q55 0 89 -11t62 -39q42 -42 42 -173v-17zM428 269q0 106 -34 144
q-38 43 -131 43q-92 0 -132 -43q-34 -38 -34 -144h331zM398 667h-1q0 -80 -29 -109q-29 -28 -105 -28q-77 0 -105 28q-29 28 -31 109h27q0 -70 19 -90q24 -22 89 -22q67 0 89 22q20 20 20 90h27z" />
    <glyph glyph-name="Edotaccent" unicode="&#x116;" horiz-adv-x="564" 
d="M486 0h-385v667h385v-27h-357v-284h347v-26h-347v-303h357v-27zM320 830q0 -26 -26 -26t-26 26q0 25 26 25t26 -25z" />
    <glyph glyph-name="edotaccent" unicode="&#x117;" horiz-adv-x="526" 
d="M456 243h-359q0 -70 6 -113t28 -67q40 -43 136 -43q92 0 132 40q23 23 23 66h26q0 -54 -28 -84q-43 -49 -154 -49q-108 0 -155 51q-23 26 -32.5 68.5t-9.5 125.5t9.5 125.5t32.5 68.5q47 51 152 51q55 0 89 -11t62 -39q42 -42 42 -173v-17zM428 269q0 106 -34 144
q-38 43 -131 43q-92 0 -132 -43q-34 -38 -34 -144h331zM288 642q0 -26 -26 -26t-26 26q0 25 26 25t26 -25z" />
    <glyph glyph-name="Eogonek" unicode="&#x118;" horiz-adv-x="564" 
d="M440 0h-339v667h385v-27h-357v-284h347v-26h-347v-303h357v-27q-48 -24 -67 -46.5t-19 -54.5q0 -64 61 -64q20 0 38 2v-24q-12 -3 -39 -3q-41 0 -64.5 21.5t-23.5 64.5q0 67 68 104z" />
    <glyph glyph-name="eogonek" unicode="&#x119;" horiz-adv-x="526" 
d="M428 269q0 106 -34 144q-38 43 -131 43q-92 0 -132 -43q-34 -38 -34 -144h331zM276 -101q0 -65 63 -65q20 0 38 2v-23q-12 -3 -39 -3q-41 0 -64.5 21.5t-23.5 64.5q0 64 59 99q-12 -2 -43 -2q-108 0 -155 51q-23 26 -32.5 68.5t-9.5 125.5t9.5 125.5t32.5 68.5
q47 51 152 51q55 0 89 -11t62 -39q42 -42 42 -173v-17h-359q0 -70 6 -113t28 -67q40 -43 136 -43q92 0 132 40q23 23 23 66h26q1 -41 -16.5 -68.5t-43 -42.5t-51 -28t-43.5 -34.5t-18 -53.5z" />
    <glyph glyph-name="Ecaron" unicode="&#x11a;" horiz-adv-x="564" 
d="M486 0h-385v667h385v-27h-357v-284h347v-26h-347v-303h357v-27zM448 872l-132 -132h-40l-133 132h36l114 -117l118 117h37z" />
    <glyph glyph-name="ecaron" unicode="&#x11b;" horiz-adv-x="526" 
d="M456 243h-359q0 -70 6 -113t28 -67q40 -43 136 -43q92 0 132 40q23 23 23 66h26q0 -54 -28 -84q-43 -49 -154 -49q-108 0 -155 51q-23 26 -32.5 68.5t-9.5 125.5t9.5 125.5t32.5 68.5q47 51 152 51q55 0 89 -11t62 -39q42 -42 42 -173v-17zM428 269q0 106 -34 144
q-38 43 -131 43q-92 0 -132 -43q-34 -38 -34 -144h331zM415 667l-132 -132h-40l-133 132h36l114 -117l118 117h37z" />
    <glyph glyph-name="Gcircumflex" unicode="&#x11c;" horiz-adv-x="659" 
d="M567 0h-27v112q-18 -56 -70 -87t-135 -32q-86 -1 -135 18t-78 62q-20 32 -27.5 86t-7.5 174t7.5 174.5t27.5 86.5q29 42 79 61t137 19q122 0 175.5 -40t53.5 -134h-27q-1 82 -48 114.5t-163 32.5q-135 0 -180 -64q-20 -30 -26.5 -76.5t-6.5 -173.5t6 -173t27 -76
q45 -64 177 -64q131 0 180 73q21 29 27.5 74t6.5 142v21h-216v26h243v-181v-175zM482 726h-36l-114 117l-118 -117h-37l132 132h40z" />
    <glyph glyph-name="gcircumflex" unicode="&#x11d;" horiz-adv-x="547" 
d="M459 40q0 -105 -8 -133q-8 -29 -30 -51q-50 -50 -161 -50q-90 0 -134.5 34.5t-45.5 106.5h26q1 -115 151 -115q101 0 142 42q7 7 12 14.5t8.5 14t6 17.5t3.5 17.5t1.5 22t0.5 22.5v28v31v50q-43 -92 -177 -92q-121 0 -159 69q-26 49 -26 174q0 123 26 172q38 69 159 69
q134 0 178 -93v86h27v-436zM432 242q0 121 -40 167.5t-143 46.5q-88 0 -123 -46q-29 -42 -29 -168q0 -128 29 -170q35 -46 123 -46q103 0 143 47t40 169zM420 535h-36l-114 117l-118 -117h-37l132 132h40z" />
    <glyph glyph-name="Gbreve" unicode="&#x11e;" horiz-adv-x="659" 
d="M567 0h-27v112q-18 -56 -70 -87t-135 -32q-86 -1 -135 18t-78 62q-20 32 -27.5 86t-7.5 174t7.5 174.5t27.5 86.5q29 42 79 61t137 19q122 0 175.5 -40t53.5 -134h-27q-1 82 -48 114.5t-163 32.5q-135 0 -180 -64q-20 -30 -26.5 -76.5t-6.5 -173.5t6 -173t27 -76
q45 -64 177 -64q131 0 180 73q21 29 27.5 74t6.5 142v21h-216v26h243v-181v-175zM468 858h-1q0 -80 -29 -109q-29 -28 -105 -28q-77 0 -105 28q-29 28 -31 109h27q0 -70 19 -90q24 -22 89 -22q67 0 89 22q20 20 20 90h27z" />
    <glyph glyph-name="gbreve" unicode="&#x11f;" horiz-adv-x="547" 
d="M459 40q0 -105 -8 -133q-8 -29 -30 -51q-50 -50 -161 -50q-90 0 -134.5 34.5t-45.5 106.5h26q1 -115 151 -115q101 0 142 42q7 7 12 14.5t8.5 14t6 17.5t3.5 17.5t1.5 22t0.5 22.5v28v31v50q-43 -92 -177 -92q-121 0 -159 69q-26 49 -26 174q0 123 26 172q38 69 159 69
q134 0 178 -93v86h27v-436zM432 242q0 121 -40 167.5t-143 46.5q-88 0 -123 -46q-29 -42 -29 -168q0 -128 29 -170q35 -46 123 -46q103 0 143 47t40 169zM403 667h-1q0 -80 -29 -109q-29 -28 -105 -28q-77 0 -105 28q-29 28 -31 109h27q0 -70 19 -90q24 -22 89 -22
q67 0 89 22q20 20 20 90h27z" />
    <glyph glyph-name="Gdotaccent" unicode="&#x120;" horiz-adv-x="659" 
d="M567 0h-27v112q-18 -56 -70 -87t-135 -32q-86 -1 -135 18t-78 62q-20 32 -27.5 86t-7.5 174t7.5 174.5t27.5 86.5q29 42 79 61t137 19q122 0 175.5 -40t53.5 -134h-27q-1 82 -48 114.5t-163 32.5q-135 0 -180 -64q-20 -30 -26.5 -76.5t-6.5 -173.5t6 -173t27 -76
q45 -64 177 -64q131 0 180 73q21 29 27.5 74t6.5 142v21h-216v26h243v-181v-175zM358 830q0 -26 -26 -26t-26 26q0 25 26 25t26 -25z" />
    <glyph glyph-name="gdotaccent" unicode="&#x121;" horiz-adv-x="547" 
d="M459 40q0 -105 -8 -133q-8 -29 -30 -51q-50 -50 -161 -50q-90 0 -134.5 34.5t-45.5 106.5h26q1 -115 151 -115q101 0 142 42q7 7 12 14.5t8.5 14t6 17.5t3.5 17.5t1.5 22t0.5 22.5v28v31v50q-43 -92 -177 -92q-121 0 -159 69q-26 49 -26 174q0 123 26 172q38 69 159 69
q134 0 178 -93v86h27v-436zM432 242q0 121 -40 167.5t-143 46.5q-88 0 -123 -46q-29 -42 -29 -168q0 -128 29 -170q35 -46 123 -46q103 0 143 47t40 169zM293 642q0 -26 -26 -26t-26 26q0 25 26 25t26 -25z" />
    <glyph glyph-name="Gcommaaccent" unicode="&#x122;" horiz-adv-x="659" 
d="M567 0h-27v112q-18 -56 -70 -87t-135 -32q-86 -1 -135 18t-78 62q-20 32 -27.5 86t-7.5 174t7.5 174.5t27.5 86.5q29 42 79 61t137 19q122 0 175.5 -40t53.5 -134h-27q-1 82 -48 114.5t-163 32.5q-135 0 -180 -64q-20 -30 -26.5 -76.5t-6.5 -173.5t6 -173t27 -76
q45 -64 177 -64q131 0 180 73q21 29 27.5 74t6.5 142v21h-216v26h243v-181v-175zM342 -62q0 -45 -8 -69.5t-32 -48.5l-19 -19l-21 20l20 20q15 15 22 33.5t7.5 28.5t0.5 35v14h30v-14z" />
    <glyph glyph-name="gcommaaccent" unicode="&#x123;" horiz-adv-x="547" 
d="M459 40q0 -105 -8 -133q-8 -29 -30 -51q-50 -50 -161 -50q-90 0 -134.5 34.5t-45.5 106.5h26q1 -115 151 -115q101 0 142 42q7 7 12 14.5t8.5 14t6 17.5t3.5 17.5t1.5 22t0.5 22.5v28v31v50q-43 -92 -177 -92q-121 0 -159 69q-26 49 -26 174q0 123 26 172q38 69 159 69
q134 0 178 -93v86h27v-436zM432 242q0 121 -40 167.5t-143 46.5q-88 0 -123 -46q-29 -42 -29 -168q0 -128 29 -170q35 -46 123 -46q103 0 143 47t40 169zM236 560q0 45 8 69.5t32 48.5l19 19l21 -20l-20 -20q-15 -15 -22 -33.5t-7.5 -28.5t-0.5 -35v-14h-30v14z" />
    <glyph glyph-name="Hcircumflex" unicode="&#x124;" horiz-adv-x="649" 
d="M547 0h-29v329h-388v-329h-29v667h29v-311h388v311h29v-667zM477 726h-36l-114 117l-118 -117h-37l132 132h40z" />
    <glyph glyph-name="hcircumflex" unicode="&#x125;" horiz-adv-x="533" 
d="M253 756h-36l-114 117l-118 -117h-36l132 132h40zM451 0h-28v241q0 93 -5 127t-27 56q-32 32 -109 32q-80 0 -119 -39q-23 -24 -34.5 -62t-12.5 -64t-1 -86v-205h-28v697h28v-308q40 94 166 94q90 0 128 -38q30 -30 36 -66t6 -132v-247z" />
    <glyph glyph-name="Hbar" unicode="&#x126;" horiz-adv-x="649" 
d="M547 0h-29v329h-388v-329h-29v499h-82v26h82v142h29v-142h388v142h29v-142h82v-26h-82v-499zM130 356h388v143h-388v-143z" />
    <glyph glyph-name="hbar" unicode="&#x127;" horiz-adv-x="533" 
d="M309 562h-194v-173q40 94 166 94q90 0 128 -38q30 -30 36 -66t6 -132v-247h-28v241q0 93 -5 127t-27 56q-32 32 -109 32q-80 0 -119 -39q-23 -24 -34.5 -62t-12.5 -64t-1 -86v-205h-28v562h-84v28h84v107h28v-107h194v-28z" />
    <glyph glyph-name="Itilde" unicode="&#x128;" horiz-adv-x="232" 
d="M130 0h-29v667h29v-667zM304 837l-57 -39q-60 -41 -116 -5q-8 5 -41 28q-47 29 -90 -2l-57 -39l-15 19l57 39q59 41 116 4q28 -18 41 -27q48 -29 90 1l57 39z" />
    <glyph glyph-name="itilde" unicode="&#x129;" horiz-adv-x="203" 
d="M115 0h-28v476h28v-476zM290 651l-57 -39q-60 -41 -116 -5q-8 5 -41 28q-47 29 -90 -2l-57 -39l-15 19l57 39q59 41 116 4q28 -18 41 -27q48 -29 90 1l57 39z" />
    <glyph glyph-name="Imacron" unicode="&#x12a;" horiz-adv-x="232" 
d="M130 0h-29v667h29v-667zM271 813h-309v26h309v-26z" />
    <glyph glyph-name="imacron" unicode="&#x12b;" horiz-adv-x="203" 
d="M115 0h-28v476h28v-476zM256 628h-309v26h309v-26z" />
    <glyph glyph-name="Ibreve" unicode="&#x12c;" horiz-adv-x="232" 
d="M130 0h-29v667h29v-667zM252 858h-1q0 -80 -29 -109q-29 -28 -105 -28q-77 0 -105 28q-29 28 -31 109h27q0 -70 19 -90q24 -22 89 -22q67 0 89 22q20 20 20 90h27z" />
    <glyph glyph-name="ibreve" unicode="&#x12d;" horiz-adv-x="203" 
d="M115 0h-28v476h28v-476zM237 667h-1q0 -80 -29 -109q-29 -28 -105 -28q-77 0 -105 28q-29 28 -31 109h27q0 -70 19 -90q24 -22 89 -22q67 0 89 22q20 20 20 90h27z" />
    <glyph glyph-name="Iogonek" unicode="&#x12e;" horiz-adv-x="232" 
d="M101 12v655h29v-667q-48 -24 -67 -46.5t-19 -54.5q0 -64 61 -64q20 0 38 2v-24q-12 -3 -39 -3q-41 0 -64.5 21.5t-23.5 64.5q0 44 20 68t65 48z" />
    <glyph glyph-name="iogonek" unicode="&#x12f;" horiz-adv-x="203" 
d="M127 649q0 -26 -26 -26t-26 26q0 25 26 25t26 -25zM87 10v466h28v-476q-48 -22 -68 -45t-20 -56q0 -65 63 -65q20 0 38 2v-23q-12 -3 -39 -3q-41 0 -64.5 21.5t-23.5 64.5q0 32 14 55.5t29.5 34.5t42.5 24z" />
    <glyph glyph-name="Idotaccent" unicode="&#x130;" horiz-adv-x="232" 
d="M130 0h-29v667h29v-667zM142 830q0 -26 -26 -26t-26 26q0 25 26 25t26 -25z" />
    <glyph glyph-name="dotlessi" unicode="&#x131;" horiz-adv-x="203" 
d="M116 0h-29v476h29v-476z" />
    <glyph glyph-name="Jcircumflex" unicode="&#x134;" horiz-adv-x="524" 
d="M564 726h-36l-114 117l-118 -117h-36l132 132h40zM426 203q0 -45 -1 -64t-8 -46t-23 -47q-41 -53 -157 -53q-108 0 -155 47q-37 38 -37 127h27q0 -76 29 -106q43 -42 136 -42q100 0 133 44q14 17 20 41.5t6.5 39t0.5 57.5v466h29v-464z" />
    <glyph glyph-name="jcircumflex" unicode="&#x135;" horiz-adv-x="203" 
d="M116 -47q0 -74 -33 -107q-43 -41 -123 -41q-148 0 -148 123h26q0 -96 120 -96q71 0 106 35q24 24 24 75v534h28v-523zM254 535h-36l-114 117l-118 -117h-37l132 132h40z" />
    <glyph glyph-name="Kcommaaccent" unicode="&#x136;" horiz-adv-x="568" 
d="M528 0h-43l-355 324v-324h-29v667h28v-327l357 327h41l-368 -333zM308 -62q0 -45 -8 -69.5t-32 -48.5l-19 -19l-21 20l20 20q15 15 22 33.5t7.5 28.5t0.5 35v14h30v-14z" />
    <glyph glyph-name="kcommaaccent" unicode="&#x137;" horiz-adv-x="458" 
d="M425 0h-40l-269 255v-255h-29v697h28v-438l267 217h40l-271 -220zM274 -62q0 -45 -8 -69.5t-32 -48.5l-19 -19l-21 20l20 20q15 15 22 33.5t7.5 28.5t0.5 35v14h30v-14z" />
    <glyph glyph-name="Lacute" unicode="&#x139;" horiz-adv-x="505" 
d="M486 0h-385v667h29v-640h356v-27zM269 858l-132 -132h-37l132 132h37z" />
    <glyph glyph-name="lacute" unicode="&#x13a;" horiz-adv-x="203" 
d="M115 0h-28v697h28v-697zM256 858l-132 -132h-37l132 132h37z" />
    <glyph glyph-name="Lcommaaccent" unicode="&#x13b;" horiz-adv-x="505" 
d="M486 0h-385v667h29v-640h356v-27zM307 -62q0 -45 -8 -69.5t-32 -48.5l-19 -19l-21 20l20 20q15 15 22 33.5t7.5 28.5t0.5 35v14h30v-14z" />
    <glyph glyph-name="lcommaaccent" unicode="&#x13c;" horiz-adv-x="203" 
d="M115 0h-28v697h28v-697zM116 -62q0 -45 -8 -69.5t-32 -48.5l-19 -19l-21 20l20 20q15 15 22 33.5t7.5 28.5t0.5 35v14h30v-14z" />
    <glyph glyph-name="Lcaron" unicode="&#x13d;" horiz-adv-x="505" 
d="M486 0h-385v667h29v-640h356v-27zM298 653q0 -45 -8 -69.5t-32 -48.5l-19 -19l-21 20l20 20q15 15 22 33.5t7.5 28.5t0.5 35v14h30v-14z" />
    <glyph glyph-name="lcaron" unicode="&#x13e;" horiz-adv-x="252" 
d="M115 0h-28v697h28v-697zM252 683q0 -45 -8 -69.5t-32 -48.5l-19 -19l-21 20l20 20q15 15 22 33.5t7.5 28.5t0.5 35v14h30v-14z" />
    <glyph glyph-name="Ldot" unicode="&#x13f;" horiz-adv-x="505" 
d="M486 0h-385v667h29v-640h356v-27zM394 343q0 -26 -26 -26t-26 26q0 25 26 25t26 -25z" />
    <glyph glyph-name="ldot" unicode="&#x140;" horiz-adv-x="261" 
d="M261 335q0 -28 -29 -28t-29 28t29 28t29 -28zM115 0h-28v697h28v-697z" />
    <glyph glyph-name="Lslash" unicode="&#x141;" horiz-adv-x="521" 
d="M502 0h-385v316l-75 -75l-18 18l93 93v315h29v-293l97 97l18 -17l-115 -115v-312h356v-27z" />
    <glyph glyph-name="lslash" unicode="&#x142;" horiz-adv-x="205" 
d="M217 440l-99 -99v-341h-28v322l-83 -82l-18 17l101 101v339h28v-321l82 81z" />
    <glyph glyph-name="Nacute" unicode="&#x143;" horiz-adv-x="647" 
d="M545 0h-44l-372 637v-637h-28v667h43l373 -637v637h28v-667zM414 858l-132 -132h-37l132 132h37z" />
    <glyph glyph-name="nacute" unicode="&#x144;" horiz-adv-x="533" 
d="M451 0h-28v241q0 93 -5 127t-27 56q-32 32 -109 32q-80 0 -119 -39q-23 -24 -34.5 -62t-12.5 -64t-1 -86v-205h-28v476h27v-88q41 95 167 95q90 0 128 -38q30 -30 36 -66t6 -132v-247zM351 667l-132 -132h-37l132 132h37z" />
    <glyph glyph-name="Ncommaaccent" unicode="&#x145;" horiz-adv-x="647" 
d="M545 0h-44l-372 637v-637h-28v667h43l373 -637v637h28v-667zM339 -62q0 -45 -8 -69.5t-32 -48.5l-19 -19l-21 20l20 20q15 15 22 33.5t7.5 28.5t0.5 35v14h30v-14z" />
    <glyph glyph-name="ncommaaccent" unicode="&#x146;" horiz-adv-x="533" 
d="M451 0h-28v241q0 93 -5 127t-27 56q-32 32 -109 32q-80 0 -119 -39q-23 -24 -34.5 -62t-12.5 -64t-1 -86v-205h-28v476h27v-88q41 95 167 95q90 0 128 -38q30 -30 36 -66t6 -132v-247zM284 -62q0 -45 -8 -69.5t-32 -48.5l-19 -19l-21 20l20 20q15 15 22 33.5t7.5 28.5
t0.5 35v14h30v-14z" />
    <glyph glyph-name="Ncaron" unicode="&#x147;" horiz-adv-x="647" 
d="M545 0h-44l-372 637v-637h-28v667h43l373 -637v637h28v-667zM478 872l-132 -132h-40l-133 132h36l114 -117l118 117h37z" />
    <glyph glyph-name="ncaron" unicode="&#x148;" horiz-adv-x="533" 
d="M451 0h-28v241q0 93 -5 127t-27 56q-32 32 -109 32q-80 0 -119 -39q-23 -24 -34.5 -62t-12.5 -64t-1 -86v-205h-28v476h27v-88q41 95 167 95q90 0 128 -38q30 -30 36 -66t6 -132v-247zM421 667l-132 -132h-40l-133 132h36l114 -117l118 117h37z" />
    <glyph glyph-name="Eng" unicode="&#x14a;" horiz-adv-x="647" 
d="M356 -195q-18 0 -30 2v25q13 -1 30 -1q100 0 133 44q18 23 22.5 50.5t4.5 74.5l-387 637v-637h-28v667h43l372 -611v611h29v-667q0 -53 -5.5 -84t-26.5 -58q-41 -53 -157 -53z" />
    <glyph glyph-name="eng" unicode="&#x14b;" horiz-adv-x="533" 
d="M295 -195q-15 0 -27 2v26q9 -1 25 -1q71 0 106 35q24 24 24 75v299q0 93 -5 127t-27 56q-32 32 -109 32q-80 0 -119 -39q-23 -24 -34.5 -62t-12.5 -64t-1 -86v-205h-28v476h27v-88q41 95 167 95q90 0 128 -38q30 -30 36 -66t6 -132v-294q0 -74 -33 -107q-43 -41 -123 -41
z" />
    <glyph glyph-name="Omacron" unicode="&#x14c;" horiz-adv-x="665" 
d="M577 333q0 -122 -7 -175.5t-28 -84.5q-51 -80 -210 -80q-158 0 -210 80q-20 32 -27.5 85.5t-7.5 174.5q0 120 7.5 174.5t27.5 86.5q54 80 210 80q159 0 210 -80q21 -31 28 -85t7 -176zM548 333q0 125 -6.5 172.5t-26.5 77.5q-43 64 -183 64q-139 0 -183 -64
q-20 -31 -26.5 -79t-6.5 -172q0 -123 6.5 -170t26.5 -78q44 -64 183 -64q140 0 183 64q20 30 26.5 76.5t6.5 172.5zM488 813h-309v26h309v-26z" />
    <glyph glyph-name="omacron" unicode="&#x14d;" horiz-adv-x="532" 
d="M462 238q0 -84 -9 -126.5t-33 -67.5q-45 -51 -154 -51q-108 0 -155 51q-23 26 -32.5 68.5t-9.5 125.5t9.5 125.5t32.5 68.5q47 51 155 51q109 0 154 -51q24 -25 33 -67.5t9 -126.5zM434 238q0 78 -7.5 115.5t-26.5 59.5q-38 43 -134 43q-95 0 -135 -43q-19 -22 -26.5 -60
t-7.5 -115t7.5 -115t26.5 -60q40 -43 135 -43q96 0 134 43q19 22 26.5 59.5t7.5 115.5zM420 628h-309v26h309v-26z" />
    <glyph glyph-name="Obreve" unicode="&#x14e;" horiz-adv-x="665" 
d="M577 333q0 -122 -7 -175.5t-28 -84.5q-51 -80 -210 -80q-158 0 -210 80q-20 32 -27.5 85.5t-7.5 174.5q0 120 7.5 174.5t27.5 86.5q54 80 210 80q159 0 210 -80q21 -31 28 -85t7 -176zM548 333q0 125 -6.5 172.5t-26.5 77.5q-43 64 -183 64q-139 0 -183 -64
q-20 -31 -26.5 -79t-6.5 -172q0 -123 6.5 -170t26.5 -78q44 -64 183 -64q140 0 183 64q20 30 26.5 76.5t6.5 172.5zM468 858h-1q0 -80 -29 -109q-29 -28 -105 -28q-77 0 -105 28q-29 28 -31 109h27q0 -70 19 -90q24 -22 89 -22q67 0 89 22q20 20 20 90h27z" />
    <glyph glyph-name="obreve" unicode="&#x14f;" horiz-adv-x="532" 
d="M462 238q0 -84 -9 -126.5t-33 -67.5q-45 -51 -154 -51q-108 0 -155 51q-23 26 -32.5 68.5t-9.5 125.5t9.5 125.5t32.5 68.5q47 51 155 51q109 0 154 -51q24 -25 33 -67.5t9 -126.5zM434 238q0 78 -7.5 115.5t-26.5 59.5q-38 43 -134 43q-95 0 -135 -43q-19 -22 -26.5 -60
t-7.5 -115t7.5 -115t26.5 -60q40 -43 135 -43q96 0 134 43q19 22 26.5 59.5t7.5 115.5zM401 667h-1q0 -80 -29 -109q-29 -28 -105 -28q-77 0 -105 28q-29 28 -31 109h27q0 -70 19 -90q24 -22 89 -22q67 0 89 22q20 20 20 90h27z" />
    <glyph glyph-name="Ohungarumlaut" unicode="&#x150;" horiz-adv-x="665" 
d="M577 333q0 -122 -7 -175.5t-28 -84.5q-51 -80 -210 -80q-158 0 -210 80q-20 32 -27.5 85.5t-7.5 174.5q0 120 7.5 174.5t27.5 86.5q54 80 210 80q159 0 210 -80q21 -31 28 -85t7 -176zM548 333q0 125 -6.5 172.5t-26.5 77.5q-43 64 -183 64q-139 0 -183 -64
q-20 -31 -26.5 -79t-6.5 -172q0 -123 6.5 -170t26.5 -78q44 -64 183 -64q140 0 183 64q20 30 26.5 76.5t6.5 172.5zM538 858l-132 -132h-37l132 132h37zM373 858l-131 -132h-37l132 132h36z" />
    <glyph glyph-name="ohungarumlaut" unicode="&#x151;" horiz-adv-x="532" 
d="M462 238q0 -84 -9 -126.5t-33 -67.5q-45 -51 -154 -51q-108 0 -155 51q-23 26 -32.5 68.5t-9.5 125.5t9.5 125.5t32.5 68.5q47 51 155 51q109 0 154 -51q24 -25 33 -67.5t9 -126.5zM434 238q0 78 -7.5 115.5t-26.5 59.5q-38 43 -134 43q-95 0 -135 -43q-19 -22 -26.5 -60
t-7.5 -115t7.5 -115t26.5 -60q40 -43 135 -43q96 0 134 43q19 22 26.5 59.5t7.5 115.5zM466 667l-132 -132h-37l132 132h37zM301 667l-131 -132h-37l132 132h36z" />
    <glyph glyph-name="OE" unicode="&#x152;" horiz-adv-x="900" 
d="M822 0h-489q-89 0 -136 18t-74 62q-21 36 -28.5 89t-7.5 165q0 113 7.5 165.5t28.5 87.5q27 45 73 62.5t137 17.5h489v-27h-326v-284h316v-26h-316v-303h326v-27zM468 27v613h-129q-82 0 -123.5 -13.5t-64.5 -48.5q-20 -31 -27.5 -83t-7.5 -161q0 -110 7.5 -161.5
t27.5 -83.5q23 -35 64 -48.5t124 -13.5h129z" />
    <glyph glyph-name="oe" unicode="&#x153;" horiz-adv-x="890" 
d="M820 243h-359q0 -70 6 -113t28 -67q40 -43 136 -43q92 0 132 40q23 23 23 66h26q0 -54 -28 -84q-43 -49 -154 -49q-59 0 -94 12t-61 39q-19 19 -27 53q-8 -33 -28 -53q-45 -51 -154 -51q-108 0 -155 51q-23 26 -32.5 68.5t-9.5 125.5t9.5 125.5t32.5 68.5q47 51 155 51
q109 0 154 -51q21 -22 28 -52q7 28 27 52q47 51 152 51q55 0 89 -11t62 -39q42 -42 42 -173v-17zM792 269q0 106 -34 144q-38 43 -131 43q-92 0 -132 -43q-34 -39 -34 -144h331zM434 238q0 78 -7.5 115.5t-26.5 59.5q-38 43 -134 43q-95 0 -135 -43q-19 -22 -26.5 -60
t-7.5 -115t7.5 -115t26.5 -60q40 -43 135 -43q96 0 134 43q19 22 26.5 59.5t7.5 115.5z" />
    <glyph glyph-name="Racute" unicode="&#x154;" horiz-adv-x="642" 
d="M548 0h-28v176q0 86 -31 117q-23 24 -56.5 30t-126.5 6h-176v-329h-29v667h212q94 0 130.5 -6.5t67.5 -37.5q37 -37 37 -128q0 -86 -37 -123q-24 -24 -60 -31q35 -5 60 -30q37 -37 37 -132v-179zM520 498q0 76 -31 107q-24 24 -56.5 29.5t-126.5 5.5h-176v-285h183
q93 0 122.5 5t53.5 29q31 31 31 109zM405 858l-132 -132h-37l132 132h37z" />
    <glyph glyph-name="racute" unicode="&#x155;" horiz-adv-x="458" 
d="M412 350h-26q0 50 -24 75q-27 31 -96 31t-107 -38q-21 -21 -31 -57t-11.5 -62.5t-1.5 -75.5v-17v-206h-28v476h27v-85q40 92 150 92q83 0 116 -37q33 -36 32 -96zM332 667l-132 -132h-37l132 132h37z" />
    <glyph glyph-name="Rcommaaccent" unicode="&#x156;" horiz-adv-x="642" 
d="M548 0h-28v176q0 86 -31 117q-23 24 -56.5 30t-126.5 6h-176v-329h-29v667h212q94 0 130.5 -6.5t67.5 -37.5q37 -37 37 -128q0 -86 -37 -123q-24 -24 -60 -31q35 -5 60 -30q37 -37 37 -132v-179zM520 498q0 76 -31 107q-24 24 -56.5 29.5t-126.5 5.5h-176v-285h183
q93 0 122.5 5t53.5 29q31 31 31 109zM339 -62q0 -45 -8 -69.5t-32 -48.5l-19 -19l-21 20l20 20q15 15 22 33.5t7.5 28.5t0.5 35v14h30v-14z" />
    <glyph glyph-name="rcommaaccent" unicode="&#x157;" horiz-adv-x="458" 
d="M412 350h-26q0 50 -24 75q-27 31 -96 31t-107 -38q-21 -21 -31 -57t-11.5 -62.5t-1.5 -75.5v-17v-206h-28v476h27v-85q40 92 150 92q83 0 116 -37q33 -36 32 -96zM117 -62q0 -45 -8 -69.5t-32 -48.5l-19 -19l-21 20l20 20q15 15 22 33.5t7.5 28.5t0.5 35v14h30v-14z" />
    <glyph glyph-name="Rcaron" unicode="&#x158;" horiz-adv-x="642" 
d="M548 0h-28v176q0 86 -31 117q-23 24 -56.5 30t-126.5 6h-176v-329h-29v667h212q94 0 130.5 -6.5t67.5 -37.5q37 -37 37 -128q0 -86 -37 -123q-24 -24 -60 -31q35 -5 60 -30q37 -37 37 -132v-179zM520 498q0 76 -31 107q-24 24 -56.5 29.5t-126.5 5.5h-176v-285h183
q93 0 122.5 5t53.5 29q31 31 31 109zM467 872l-132 -132h-40l-133 132h36l114 -117l118 117h37z" />
    <glyph glyph-name="rcaron" unicode="&#x159;" horiz-adv-x="458" 
d="M412 350h-26q0 50 -24 75q-27 31 -96 31t-107 -38q-21 -21 -31 -57t-11.5 -62.5t-1.5 -75.5v-17v-206h-28v476h27v-85q40 92 150 92q83 0 116 -37q33 -36 32 -96zM402 667l-132 -132h-40l-133 132h36l114 -117l118 117h37z" />
    <glyph glyph-name="Sacute" unicode="&#x15a;" horiz-adv-x="630" 
d="M553 187q0 -104 -54.5 -149t-184.5 -45q-132 0 -184.5 39t-53.5 135h27q2 -84 47 -115.5t166 -31.5q116 0 162.5 38t46.5 128q0 94 -51 122q-22 12 -51.5 15.5t-108.5 4.5q-93 1 -127 8q-60 13 -85.5 48.5t-25.5 106.5q0 103 52 143t184 40q131 0 183 -39t53 -135h-27
q-2 84 -46.5 115.5t-164.5 31.5q-117 0 -161.5 -33t-44.5 -122q0 -88 51 -117q22 -12 51.5 -15.5t107.5 -4.5q95 -1 128 -8q59 -13 85 -50.5t26 -109.5zM399 858l-132 -132h-37l132 132h37z" />
    <glyph glyph-name="sacute" unicode="&#x15b;" horiz-adv-x="498" 
d="M433 131q0 -74 -44.5 -106.5t-144.5 -31.5q-103 1 -141 28t-38 105h27q0 -65 30.5 -85.5t120.5 -21.5q84 -1 123 24t39 80q1 46 -12 68.5t-49 29.5q-28 5 -131 8q-86 3 -116 32q-27 27 -25 87q2 75 45 105.5t143 29.5q102 -1 141 -40q30 -29 30 -93h-27q0 56 -31 81
t-112 25q-85 0 -123 -22.5t-39 -77.5q-1 -47 12.5 -68t49.5 -28q12 -2 115 -6q35 -1 54.5 -3t42 -9t34 -19.5t19 -35.5t7.5 -56zM333 667l-132 -132h-37l132 132h37z" />
    <glyph glyph-name="Scircumflex" unicode="&#x15c;" horiz-adv-x="630" 
d="M553 187q0 -104 -54.5 -149t-184.5 -45q-132 0 -184.5 39t-53.5 135h27q2 -84 47 -115.5t166 -31.5q116 0 162.5 38t46.5 128q0 94 -51 122q-22 12 -51.5 15.5t-108.5 4.5q-93 1 -127 8q-60 13 -85.5 48.5t-25.5 106.5q0 103 52 143t184 40q131 0 183 -39t53 -135h-27
q-2 84 -46.5 115.5t-164.5 31.5q-117 0 -161.5 -33t-44.5 -122q0 -88 51 -117q22 -12 51.5 -15.5t107.5 -4.5q95 -1 128 -8q59 -13 85 -50.5t26 -109.5zM467 726h-36l-114 117l-118 -117h-37l132 132h40z" />
    <glyph glyph-name="scircumflex" unicode="&#x15d;" horiz-adv-x="498" 
d="M433 131q0 -74 -44.5 -106.5t-144.5 -31.5q-103 1 -141 28t-38 105h27q0 -65 30.5 -85.5t120.5 -21.5q84 -1 123 24t39 80q1 46 -12 68.5t-49 29.5q-28 5 -131 8q-86 3 -116 32q-27 27 -25 87q2 75 45 105.5t143 29.5q102 -1 141 -40q30 -29 30 -93h-27q0 56 -31 81
t-112 25q-85 0 -123 -22.5t-39 -77.5q-1 -47 12.5 -68t49.5 -28q12 -2 115 -6q35 -1 54.5 -3t42 -9t34 -19.5t19 -35.5t7.5 -56zM401 535h-36l-114 117l-118 -117h-37l132 132h40z" />
    <glyph glyph-name="Scedilla" unicode="&#x15e;" horiz-adv-x="630" 
d="M553 187q0 -104 -54.5 -149t-184.5 -45q-132 0 -184.5 39t-53.5 135h27q2 -84 47 -115.5t166 -31.5q116 0 162.5 38t46.5 128q0 94 -51 122q-22 12 -51.5 15.5t-108.5 4.5q-93 1 -127 8q-60 13 -85.5 48.5t-25.5 106.5q0 103 52 143t184 40q131 0 183 -39t53 -135h-27
q-2 84 -46.5 115.5t-164.5 31.5q-117 0 -161.5 -33t-44.5 -122q0 -88 51 -117q22 -12 51.5 -15.5t107.5 -4.5q95 -1 128 -8q59 -13 85 -50.5t26 -109.5zM387 -113h-1q0 -39 -15.5 -55.5t-55.5 -16.5t-56.5 13t-16.5 43h26q0 -20 10.5 -26t35.5 -6q28 0 37 10.5t8 36.5
q0 12 -3 20.5t-5.5 13t-11 7t-12 3t-16.5 1t-17 0.5v69h27v-46q66 0 66 -67z" />
    <glyph glyph-name="scedilla" unicode="&#x15f;" horiz-adv-x="498" 
d="M321 -113h-1q0 -39 -15.5 -55.5t-55.5 -16.5t-56.5 13t-16.5 43h26q0 -20 10.5 -26t35.5 -6q28 0 37 10.5t8 36.5q0 12 -3 20.5t-5.5 13t-11 7t-12 3t-16.5 1t-17 0.5v62q-93 2 -128 30t-35 103h27q0 -65 30.5 -85.5t120.5 -21.5q84 -1 123 24t39 80q1 46 -12 68.5
t-49 29.5q-28 5 -131 8q-86 3 -116 32q-27 27 -25 87q2 75 45 105.5t143 29.5q102 -1 141 -40q30 -29 30 -93h-27q0 56 -31 81t-112 25q-85 0 -123 -22.5t-39 -77.5q-1 -47 12.5 -68t49.5 -28q12 -2 115 -6q35 -1 54.5 -3t42 -9t34 -19.5t19 -35.5t7.5 -56q0 -72 -42 -104
t-136 -34v-39q66 0 66 -67z" />
    <glyph glyph-name="Scaron" unicode="&#x160;" horiz-adv-x="630" 
d="M553 187q0 -104 -54.5 -149t-184.5 -45q-132 0 -184.5 39t-53.5 135h27q2 -84 47 -115.5t166 -31.5q116 0 162.5 38t46.5 128q0 94 -51 122q-22 12 -51.5 15.5t-108.5 4.5q-93 1 -127 8q-60 13 -85.5 48.5t-25.5 106.5q0 103 52 143t184 40q131 0 183 -39t53 -135h-27
q-2 84 -46.5 115.5t-164.5 31.5q-117 0 -161.5 -33t-44.5 -122q0 -88 51 -117q22 -12 51.5 -15.5t107.5 -4.5q95 -1 128 -8q59 -13 85 -50.5t26 -109.5zM467 872l-132 -132h-40l-133 132h36l114 -117l118 117h37z" />
    <glyph glyph-name="scaron" unicode="&#x161;" horiz-adv-x="498" 
d="M433 131q0 -74 -44.5 -106.5t-144.5 -31.5q-103 1 -141 28t-38 105h27q0 -65 30.5 -85.5t120.5 -21.5q84 -1 123 24t39 80q1 46 -12 68.5t-49 29.5q-28 5 -131 8q-86 3 -116 32q-27 27 -25 87q2 75 45 105.5t143 29.5q102 -1 141 -40q30 -29 30 -93h-27q0 56 -31 81
t-112 25q-85 0 -123 -22.5t-39 -77.5q-1 -47 12.5 -68t49.5 -28q12 -2 115 -6q35 -1 54.5 -3t42 -9t34 -19.5t19 -35.5t7.5 -56zM409 667l-132 -132h-40l-133 132h36l114 -117l118 117h37z" />
    <glyph glyph-name="Tcommaaccent" unicode="&#x162;" horiz-adv-x="532" 
d="M498 640h-218v-640h-29v640h-218v27h465v-27zM281 -62q0 -45 -8 -69.5t-32 -48.5l-19 -19l-21 20l20 20q15 15 22 33.5t7.5 28.5t0.5 35v14h30v-14z" />
    <glyph glyph-name="tcommaaccent" unicode="&#x163;" horiz-adv-x="430" 
d="M400 126q0 -71 -37.5 -102t-110.5 -31q-78 0 -112 37q-32 35 -32 96v324h-82v26h82v191h28v-191h223v-26h-223v-324q0 -51 23 -75q29 -31 95 -31q60 0 90 24t30 82h26zM268 -62q0 -45 -8 -69.5t-32 -48.5l-19 -19l-21 20l20 20q15 15 22 33.5t7.5 28.5t0.5 35v14h30v-14z
" />
    <glyph glyph-name="Tcaron" unicode="&#x164;" horiz-adv-x="532" 
d="M498 640h-218v-640h-29v640h-218v27h465v-27zM418 872l-132 -132h-40l-133 132h36l114 -117l118 117h37z" />
    <glyph glyph-name="tcaron" unicode="&#x165;" horiz-adv-x="439" 
d="M400 126q0 -71 -37.5 -102t-110.5 -31q-78 0 -112 37q-32 35 -32 96v324h-82v26h82v191h28v-191h223v-26h-223v-324q0 -51 23 -75q29 -31 95 -31q60 0 90 24t30 82h26zM439 683q0 -45 -8 -69.5t-32 -48.5l-19 -19l-21 20l20 20q15 15 22 33.5t7.5 28.5t0.5 35v14h30v-14z
" />
    <glyph glyph-name="Tbar" unicode="&#x166;" horiz-adv-x="532" 
d="M498 640h-218v-284h124v-27h-124v-329h-29v329h-124v27h124v284h-218v27h465v-27z" />
    <glyph glyph-name="tbar" unicode="&#x167;" horiz-adv-x="430" 
d="M136 243v-117q0 -51 23 -75q29 -31 95 -31q60 0 90 24t30 82h26q0 -71 -37.5 -102t-110.5 -31q-78 0 -112 37q-32 35 -32 96v117h-82v26h82v181h-82v26h82v191h28v-191h223v-26h-223v-181h223v-26h-223z" />
    <glyph glyph-name="Utilde" unicode="&#x168;" horiz-adv-x="648" 
d="M550 336v-25q0 -108 -2 -145.5t-13 -64.5q-40 -108 -212 -108q-170 0 -212 108q-10 27 -12 64t-2 145v26v331h29v-331v-41.5v-37v-31t0.5 -28t1 -23t1.5 -20.5l2.5 -17t3.5 -16.5t4.5 -13.5t5.5 -13q42 -75 178 -75q137 0 178 75q3 6 6 13t5 13.5t3.5 16.5l2.5 17t1.5 21
t1 22.5t0.5 28v31v37v41.5v331h29v-331zM512 837l-57 -39q-60 -41 -116 -5q-8 5 -41 28q-47 29 -90 -2l-57 -39l-15 19l57 39q59 41 116 4q28 -18 41 -27q48 -29 90 1l57 39z" />
    <glyph glyph-name="utilde" unicode="&#x169;" horiz-adv-x="533" 
d="M445 0h-27v88q-41 -95 -167 -95q-90 0 -128 38q-30 30 -36 66t-6 132v247h28v-241q0 -93 5 -127t27 -56q32 -32 109 -32q80 0 119 39q24 24 35 62.5t12 63t1 86.5v205h28v-476zM454 651l-57 -39q-60 -41 -116 -5q-8 5 -41 28q-47 29 -90 -2l-57 -39l-15 19l57 39
q59 41 116 4q28 -18 41 -27q48 -29 90 1l57 39z" />
    <glyph glyph-name="Umacron" unicode="&#x16a;" horiz-adv-x="648" 
d="M550 336v-25q0 -108 -2 -145.5t-13 -64.5q-40 -108 -212 -108q-170 0 -212 108q-10 27 -12 64t-2 145v26v331h29v-331v-41.5v-37v-31t0.5 -28t1 -23t1.5 -20.5l2.5 -17t3.5 -16.5t4.5 -13.5t5.5 -13q42 -75 178 -75q137 0 178 75q3 6 6 13t5 13.5t3.5 16.5l2.5 17t1.5 21
t1 22.5t0.5 28v31v37v41.5v331h29v-331zM478 813h-309v26h309v-26z" />
    <glyph glyph-name="umacron" unicode="&#x16b;" horiz-adv-x="533" 
d="M445 0h-27v88q-41 -95 -167 -95q-90 0 -128 38q-30 30 -36 66t-6 132v247h28v-241q0 -93 5 -127t27 -56q32 -32 109 -32q80 0 119 39q24 24 35 62.5t12 63t1 86.5v205h28v-476zM418 628h-309v26h309v-26z" />
    <glyph glyph-name="Ubreve" unicode="&#x16c;" horiz-adv-x="648" 
d="M550 336v-25q0 -108 -2 -145.5t-13 -64.5q-40 -108 -212 -108q-170 0 -212 108q-10 27 -12 64t-2 145v26v331h29v-331v-41.5v-37v-31t0.5 -28t1 -23t1.5 -20.5l2.5 -17t3.5 -16.5t4.5 -13.5t5.5 -13q42 -75 178 -75q137 0 178 75q3 6 6 13t5 13.5t3.5 16.5l2.5 17t1.5 21
t1 22.5t0.5 28v31v37v41.5v331h29v-331zM459 858h-1q0 -80 -29 -109q-29 -28 -105 -28q-77 0 -105 28q-29 28 -31 109h27q0 -70 19 -90q24 -22 89 -22q67 0 89 22q20 20 20 90h27z" />
    <glyph glyph-name="ubreve" unicode="&#x16d;" horiz-adv-x="533" 
d="M445 0h-27v88q-41 -95 -167 -95q-90 0 -128 38q-30 30 -36 66t-6 132v247h28v-241q0 -93 5 -127t27 -56q32 -32 109 -32q80 0 119 39q24 24 35 62.5t12 63t1 86.5v205h28v-476zM402 667h-1q0 -80 -29 -109q-29 -28 -105 -28q-77 0 -105 28q-29 28 -31 109h27
q0 -70 19 -90q24 -22 89 -22q67 0 89 22q20 20 20 90h27z" />
    <glyph glyph-name="Uring" unicode="&#x16e;" horiz-adv-x="648" 
d="M550 336v-25q0 -108 -2 -145.5t-13 -64.5q-40 -108 -212 -108q-170 0 -212 108q-10 27 -12 64t-2 145v26v331h29v-331v-41.5v-37v-31t0.5 -28t1 -23t1.5 -20.5l2.5 -17t3.5 -16.5t4.5 -13.5t5.5 -13q42 -75 178 -75q137 0 178 75q3 6 6 13t5 13.5t3.5 16.5l2.5 17t1.5 21
t1 22.5t0.5 28v31v37v41.5v331h29v-331zM406 788v7q0 50 -16 66q-18 18 -65 18t-65 -18q-15 -15 -15 -66v-7q0 -48 15 -63q17 -17 66 -17q47 0 64 17q16 16 16 63zM431 797v-7q0 -58 -24 -82q-23 -23 -82 -23q-58 0 -81 23q-24 24 -24 81v7q0 58 24 82q23 23 81 23
q59 0 82 -23q24 -24 24 -81z" />
    <glyph glyph-name="uring" unicode="&#x16f;" horiz-adv-x="533" 
d="M445 0h-27v88q-41 -95 -167 -95q-90 0 -128 38q-30 30 -36 66t-6 132v247h28v-241q0 -93 5 -127t27 -56q32 -32 109 -32q80 0 119 39q24 24 35 62.5t12 63t1 86.5v205h28v-476zM372 570q0 -58 -24 -82q-23 -23 -82 -23q-58 0 -81 23q-24 24 -24 81q0 58 24 82
q23 23 81 23q59 0 82 -23q24 -24 24 -81zM347 568q0 50 -16 66q-18 18 -65 18t-65 -18q-15 -15 -15 -66q0 -48 15 -63q17 -17 66 -17q47 0 64 17q16 16 16 63z" />
    <glyph glyph-name="Uhungarumlaut" unicode="&#x170;" horiz-adv-x="648" 
d="M550 336v-25q0 -108 -2 -145.5t-13 -64.5q-40 -108 -212 -108q-170 0 -212 108q-10 27 -12 64t-2 145v26v331h29v-331v-41.5v-37v-31t0.5 -28t1 -23t1.5 -20.5l2.5 -17t3.5 -16.5t4.5 -13.5t5.5 -13q42 -75 178 -75q137 0 178 75q3 6 6 13t5 13.5t3.5 16.5l2.5 17t1.5 21
t1 22.5t0.5 28v31v37v41.5v331h29v-331zM525 858l-132 -132h-37l132 132h37zM360 858l-131 -132h-37l132 132h36z" />
    <glyph glyph-name="uhungarumlaut" unicode="&#x171;" horiz-adv-x="533" 
d="M462 667l-132 -132h-37l132 132h37zM297 667l-131 -132h-37l132 132h36zM445 0h-27v88q-41 -95 -167 -95q-90 0 -128 38q-30 30 -36 66t-6 132v247h28v-241q0 -93 5 -127t27 -56q32 -32 109 -32q80 0 119 39q24 24 35 62.5t12 63t1 86.5v205h28v-476z" />
    <glyph glyph-name="Uogonek" unicode="&#x172;" horiz-adv-x="648" 
d="M306 -104q0 38 18.5 63.5t46.5 36.5q-17 -3 -48 -3q-170 0 -212 108q-10 27 -12 64t-2 145v26v331h29v-331v-41.5v-37v-31t0.5 -28t1 -23t1.5 -20.5l2.5 -17t3.5 -16.5t4.5 -13.5t5.5 -13q42 -75 178 -75q137 0 178 75q3 6 6 13t5 13.5t3.5 16.5l2.5 17t1.5 21t1 22.5
t0.5 28v31v37v41.5v331h29v-331q0 -169 -5 -200q-4 -18 -10 -35q-13 -33 -38.5 -56.5t-52.5 -36l-52.5 -25t-41.5 -33t-16 -51.5q0 -64 61 -64q20 0 38 2v-24q-12 -3 -39 -3q-41 0 -64.5 21.5t-23.5 64.5z" />
    <glyph glyph-name="uogonek" unicode="&#x173;" horiz-adv-x="533" 
d="M418 11v77q-41 -95 -167 -95q-90 0 -128 38q-30 30 -36 66t-6 132v247h28v-241q0 -93 5 -127t27 -56q32 -32 109 -32q80 0 119 39q24 24 35 62.5t12 63t1 86.5v205h28v-476q-48 -22 -68 -45t-20 -56q0 -65 63 -65q20 0 38 2v-23q-12 -3 -39 -3q-41 0 -64.5 21.5
t-23.5 64.5q0 32 14.5 55.5t29.5 34.5t43 25z" />
    <glyph glyph-name="Wcircumflex" unicode="&#x174;" horiz-adv-x="869" 
d="M811 667l-162 -667h-42l-173 644l-175 -644h-42l-160 667h28l154 -643l174 643h42l174 -643l154 643h28zM587 726h-36l-114 117l-118 -117h-37l132 132h40z" />
    <glyph glyph-name="wcircumflex" unicode="&#x175;" horiz-adv-x="688" 
d="M654 476l-139 -476h-39l-132 454l-133 -454h-39l-139 476h29l130 -450l133 450h38l133 -450l129 450h29zM496 535h-36l-114 117l-118 -117h-37l132 132h40z" />
    <glyph glyph-name="Ycircumflex" unicode="&#x176;" horiz-adv-x="514" 
d="M495 667l-224 -372v-295h-29v295l-224 372h32l208 -346l207 346h30zM409 726h-36l-114 117l-118 -117h-37l132 132h40z" />
    <glyph glyph-name="ycircumflex" unicode="&#x177;" horiz-adv-x="450" 
d="M416 476l-246 -667h-28l71 192l-174 475h29l160 -436l159 436h29zM377 535h-36l-114 117l-118 -117h-37l132 132h40z" />
    <glyph glyph-name="Ydieresis" unicode="&#x178;" horiz-adv-x="514" 
d="M495 667l-224 -372v-295h-29v295l-224 372h32l208 -346l207 346h30zM389 824q0 -26 -26 -26t-26 26q0 25 26 25t26 -25zM176 824q0 -26 -26 -26t-26 26q0 25 26 25t26 -25z" />
    <glyph glyph-name="Zacute" unicode="&#x179;" horiz-adv-x="594" 
d="M519 0h-445v29l414 611h-414v27h445v-29l-414 -611h414v-27zM389 858l-132 -132h-37l132 132h37z" />
    <glyph glyph-name="zacute" unicode="&#x17a;" horiz-adv-x="469" 
d="M411 0h-354v28l322 422h-322v26h354v-28l-322 -422h322v-26zM319 667l-132 -132h-37l132 132h37z" />
    <glyph glyph-name="Zdotaccent" unicode="&#x17b;" horiz-adv-x="594" 
d="M519 0h-445v29l414 611h-414v27h445v-29l-414 -611h414v-27zM323 830q0 -26 -26 -26t-26 26q0 25 26 25t26 -25z" />
    <glyph glyph-name="zdotaccent" unicode="&#x17c;" horiz-adv-x="469" 
d="M411 0h-354v28l322 422h-322v26h354v-28l-322 -422h322v-26zM260 642q0 -26 -26 -26t-26 26q0 25 26 25t26 -25z" />
    <glyph glyph-name="Zcaron" unicode="&#x17d;" horiz-adv-x="594" 
d="M519 0h-445v29l414 611h-414v27h445v-29l-414 -611h414v-27zM446 872l-132 -132h-40l-132 132h36l114 -117l118 117h36z" />
    <glyph glyph-name="zcaron" unicode="&#x17e;" horiz-adv-x="469" 
d="M411 0h-354v28l322 422h-322v26h354v-28l-322 -422h322v-26zM386 667l-132 -132h-40l-132 132h36l114 -117l118 117h36z" />
    <glyph glyph-name="florin" unicode="&#x192;" horiz-adv-x="557" 
d="M505 542h-27q0 63 -39 84t-108 21q-101 0 -143 -42q-14 -14 -20.5 -40t-7 -41.5t-0.5 -56.5v-120h299v-26h-298v-512h-28v512h-58v26h58v117v21v21.5t0.5 19t1.5 20.5t2.5 17.5t4 18l6 15.5t9 16t11.5 13q50 48 152 48q33 0 56 -2t49.5 -9.5t42.5 -21t26.5 -39
t10.5 -60.5z" />
    <glyph glyph-name="Aringacute" unicode="&#x1fa;" horiz-adv-x="603" 
d="M570 0h-29l-81 210h-319l-80 -210h-29l233 619q-28 4 -45 21q-24 24 -24 81v7q0 58 24 82q23 23 81 23q59 0 82 -23q24 -24 24 -81v-7q0 -58 -24 -82q-17 -17 -46 -21zM450 236l-141 381h-8h-9l-141 -381h299zM382 720v7q0 50 -16 66q-18 18 -65 18t-65 -18
q-15 -15 -15 -66v-7q0 -48 15 -63q17 -17 65 -17t65 17q16 16 16 63zM386 1024l-132 -132h-37l132 132h37z" />
    <glyph glyph-name="aringacute" unicode="&#x1fb;" horiz-adv-x="528" 
d="M347 851l-132 -132h-37l132 132h37zM446 0h-25v96q-39 -103 -186 -103q-90 0 -131 33t-41 106q0 74 35 109q18 18 48.5 27t46.5 9.5t47 0.5h179v27q0 67 -11 92q-7 13 -17 24q-33 36 -131 36q-95 0 -129 -34q-30 -31 -30 -73h-26q0 54 34 88q33 33 88 38q-37 14 -37 87
q0 57 24 81q23 23 81 23q60 0 82 -23q24 -24 24 -81q0 -74 -34 -87q44 -4 72 -34q19 -19 27.5 -48t9 -46t0.5 -69v-279zM346 561q0 50 -16 66q-18 18 -65 18q-45 0 -65 -18q-15 -17 -15 -66q0 -46 15 -63q17 -17 66 -17q48 0 64 17q16 16 16 63zM419 252h-183
q-87 0 -116 -29q-30 -30 -30 -90q0 -61 32.5 -87t109.5 -26q132 0 169 84q11 26 14 50t4 98z" />
    <glyph glyph-name="AEacute" unicode="&#x1fc;" horiz-adv-x="878" 
d="M800 0h-353v209h-281l-136 -209h-31l434 667h367v-27h-325v-284h315v-26h-315v-303h325v-27zM447 235v407l-265 -407h265zM597 858l-132 -132h-37l132 132h37z" />
    <glyph glyph-name="aeacute" unicode="&#x1fd;" horiz-adv-x="875" 
d="M805 250h-359q0 -149 34 -187q40 -43 136 -43q92 0 132 40q23 23 23 66h26q0 -54 -28 -84q-43 -49 -154 -49q-108 0 -155 51q-25 28 -30 68q-4 -32 -40 -68q-51 -51 -155 -51q-91 0 -131.5 31t-40.5 104q0 75 35 110q38 38 142 38h179v29q0 67 -11 92q-7 13 -17 24
q-32 35 -130 35q-97 0 -130 -33q-30 -31 -30 -73h-26q0 54 34 88q46 45 160 45q100 0 140 -41q26 -26 28 -50q6 20 23 40q47 51 152 51q56 0 90 -9.5t61 -37.5q42 -41 42 -170v-16zM777 276q0 102 -34 140q-36 40 -131 40q-92 0 -132 -43q-34 -38 -34 -137h331zM419 250
h-183q-86 0 -116 -30t-30 -91t32.5 -85t109.5 -24q132 0 169 84q12 26 14 47t4 99zM542 667l-132 -132h-37l132 132h37z" />
    <glyph glyph-name="Oslashacute" unicode="&#x1fe;" horiz-adv-x="665" 
d="M407 858l-132 -132h-37l132 132h37zM577 331q-1 -120 -9 -175t-28 -85q-28 -42 -78.5 -60.5t-131.5 -17.5q-8 0 -63 5l-32 -139l-26 6l32 137q-84 13 -121 73q-20 32 -26.5 85t-5.5 175q1 121 8.5 175.5t28.5 85.5q53 79 210 78q19 0 63 -4l31 133l26 -6l-31 -132
q84 -14 121 -73q20 -32 26.5 -85.5t5.5 -175.5zM548 331q1 126 -5 173t-25 77q-31 47 -100 58l-145 -615q6 0 24.5 -2t32.5 -2q73 -1 116 13.5t67 48.5q21 29 27.5 76t7.5 173zM392 644q-2 0 -22 1.5t-35 1.5q-74 1 -117 -13.5t-66 -48.5q-21 -30 -27.5 -78t-7.5 -173
q-1 -126 4.5 -172t25.5 -76q29 -45 100 -59z" />
    <glyph glyph-name="oslashacute" unicode="&#x1ff;" horiz-adv-x="532" 
d="M349 667l-132 -132h-37l132 132h37zM462 235q-1 -81 -10 -124t-33 -68q-50 -51 -155 -50q-41 0 -67 7l-31 -93l-24 8l31 91q-38 11 -63 39q-23 25 -32 69t-8 128q1 82 10.5 123.5t32.5 67.5q47 51 156 50q26 0 66 -6l30 93l25 -9l-30 -91q41 -14 62 -39q23 -26 32 -69.5
t8 -126.5zM434 236q1 85 -7 120.5t-25 55.5q-19 23 -54 33l-141 -419q22 -6 58 -6q95 -2 134 42q19 21 26.5 58.5t8.5 115.5zM324 451q-40 5 -56 5q-95 1 -135 -42q-19 -21 -26.5 -59t-8.5 -114q-1 -79 6 -117.5t26 -59.5q19 -22 53 -32z" />
    <glyph glyph-name="Scommaaccent" unicode="&#x218;" horiz-adv-x="630" 
d="M553 187q0 -104 -54.5 -149t-184.5 -45q-132 0 -184.5 39t-53.5 135h27q2 -84 47 -115.5t166 -31.5q116 0 162.5 38t46.5 128q0 94 -51 122q-22 12 -51.5 15.5t-108.5 4.5q-93 1 -127 8q-60 13 -85.5 48.5t-25.5 106.5q0 103 52 143t184 40q131 0 183 -39t53 -135h-27
q-2 84 -46.5 115.5t-164.5 31.5q-117 0 -161.5 -33t-44.5 -122q0 -88 51 -117q22 -12 51.5 -15.5t107.5 -4.5q95 -1 128 -8q59 -13 85 -50.5t26 -109.5zM329 -62q0 -45 -8 -69.5t-32 -48.5l-19 -19l-21 20l20 20q15 15 22 33.5t7.5 28.5t0.5 35v14h30v-14z" />
    <glyph glyph-name="scommaaccent" unicode="&#x219;" horiz-adv-x="498" 
d="M433 131q0 -74 -44.5 -106.5t-144.5 -31.5q-103 1 -141 28t-38 105h27q0 -65 30.5 -85.5t120.5 -21.5q84 -1 123 24t39 80q1 46 -12 68.5t-49 29.5q-28 5 -131 8q-86 3 -116 32q-27 27 -25 87q2 75 45 105.5t143 29.5q102 -1 141 -40q30 -29 30 -93h-27q0 56 -31 81
t-112 25q-85 0 -123 -22.5t-39 -77.5q-1 -47 12.5 -68t49.5 -28q12 -2 115 -6q35 -1 54.5 -3t42 -9t34 -19.5t19 -35.5t7.5 -56zM259 -62q0 -45 -8 -69.5t-32 -48.5l-19 -19l-21 20l20 20q15 15 22 33.5t7.5 28.5t0.5 35v14h30v-14z" />
    <glyph glyph-name="uni021A" unicode="&#x21a;" horiz-adv-x="532" 
d="M498 640h-218v-640h-29v640h-218v27h465v-27zM281 -62q0 -45 -8 -69.5t-32 -48.5l-19 -19l-21 20l20 20q15 15 22 33.5t7.5 28.5t0.5 35v14h30v-14z" />
    <glyph glyph-name="uni021B" unicode="&#x21b;" horiz-adv-x="430" 
d="M400 126q0 -71 -37.5 -102t-110.5 -31q-78 0 -112 37q-32 35 -32 96v324h-82v26h82v191h28v-191h223v-26h-223v-324q0 -51 23 -75q29 -31 95 -31q60 0 90 24t30 82h26zM268 -62q0 -45 -8 -69.5t-32 -48.5l-19 -19l-21 20l20 20q15 15 22 33.5t7.5 28.5t0.5 35v14h30v-14z
" />
    <glyph glyph-name="circumflex" unicode="&#x2c6;" horiz-adv-x="410" 
d="M358 535h-36l-114 117l-118 -117h-37l132 132h40z" />
    <glyph glyph-name="caron" unicode="&#x2c7;" horiz-adv-x="410" 
d="M358 667l-132 -132h-40l-133 132h36l114 -117l118 117h37z" />
    <glyph glyph-name="breve" unicode="&#x2d8;" horiz-adv-x="410" 
d="M341 667h-1q0 -80 -29 -109q-29 -28 -105 -28q-77 0 -105 28q-29 28 -31 109h27q0 -70 19 -90q24 -22 89 -22q67 0 89 22q20 20 20 90h27z" />
    <glyph glyph-name="dotaccent" unicode="&#x2d9;" horiz-adv-x="411" 
d="M234 642q0 -26 -26 -26t-26 26q0 25 26 25t26 -25z" />
    <glyph glyph-name="ring" unicode="&#x2da;" horiz-adv-x="411" 
d="M311 570q0 -58 -24 -82q-23 -23 -82 -23q-58 0 -81 23q-24 24 -24 81q0 58 24 82q23 23 81 23q59 0 82 -23q24 -24 24 -81zM286 568q0 50 -16 66q-18 18 -65 18t-65 -18q-15 -15 -15 -66q0 -48 15 -63q17 -17 66 -17q47 0 64 17q16 16 16 63z" />
    <glyph glyph-name="ogonek" unicode="&#x2db;" horiz-adv-x="410" 
d="M233 12l25 -12q-48 -22 -68 -45t-20 -56q0 -65 63 -65q20 0 38 2v-23q-12 -3 -39 -3q-41 0 -64.5 21.5t-23.5 64.5q0 46 23 70.5t66 45.5z" />
    <glyph glyph-name="tilde" unicode="&#x2dc;" horiz-adv-x="410" 
d="M393 651l-57 -39q-60 -41 -116 -5q-8 5 -41 28q-47 29 -90 -2l-57 -39l-15 19l57 39q59 41 116 4q28 -18 41 -27q48 -29 90 1l57 39z" />
    <glyph glyph-name="hungarumlaut" unicode="&#x2dd;" horiz-adv-x="410" 
d="M372 667l-132 -132h-37l132 132h37zM207 667l-131 -132h-37l132 132h36z" />
    <glyph glyph-name="uni0326" unicode="&#x326;" horiz-adv-x="410" 
d="M236 -62q0 -45 -8 -69.5t-32 -48.5l-19 -19l-21 20l20 20q15 15 22 33.5t7.5 28.5t0.5 35v14h30v-14z" />
    <glyph glyph-name="Delta" unicode="&#x394;" horiz-adv-x="601" 
d="M571 0h-541l257 667h26zM300 632l-232 -606h464z" />
    <glyph glyph-name="Omega" unicode="&#x3a9;" horiz-adv-x="660" 
d="M398 0v26q84 10 115 58q20 30 26.5 76.5t6.5 172.5q0 125 -6.5 172.5t-26.5 77.5q-43 64 -183 64q-139 0 -183 -64q-20 -31 -26.5 -79t-6.5 -172q0 -123 6.5 -170t26.5 -78q32 -48 115 -58v-26h-177v26h90q-35 13 -55 47q-20 32 -27.5 85.5t-7.5 174.5q0 120 7.5 174.5
t27.5 86.5q54 80 210 80q159 0 210 -80q21 -31 28 -85t7 -176t-7 -175.5t-28 -84.5q-24 -37 -55 -47h90v-26h-177z" />
    <glyph glyph-name="mu" unicode="&#x3bc;" horiz-adv-x="530" 
d="M444 0h-27v90q-42 -97 -165 -97q-103 0 -137 56v-240h-29v667h29v-240v-20q0 -83 4 -113t24 -50q34 -33 107 -33q78 0 117 40q24 24 35 62.5t12 63t1 86.5v204h29v-476z" />
    <glyph glyph-name="pi" unicode="&#x3c0;" horiz-adv-x="633" 
d="M537 0h-10q-42 0 -56 16.5t-14 53.5v381h-287v-451h-29v451h-56v25h450v-25h-49v-362q0 -41 7 -51t38 -10h6v-28z" />
    <glyph glyph-name="uni0400" unicode="&#x400;" horiz-adv-x="564" 
d="M486 0h-385v667h385v-27h-357v-284h347v-26h-347v-303h357v-27zM369 726h-36l-133 132h36z" />
    <glyph glyph-name="afii10023" unicode="&#x401;" horiz-adv-x="564" 
d="M486 0h-385v667h385v-27h-357v-284h347v-26h-347v-303h357v-27zM432 833q0 -26 -26 -26t-26 26q0 25 26 25t26 -25zM219 833q0 -26 -26 -26t-26 26q0 25 26 25t26 -25z" />
    <glyph glyph-name="afii10051" unicode="&#x402;" horiz-adv-x="689" 
d="M614 150q0 -54 -1 -87.5t-4 -72t-8.5 -60.5t-15.5 -46t-24.5 -36t-36 -23t-49 -15t-63.5 -4v28q31 1 55 4.5t42 14t30 21t20.5 33t13 41.5t7 55.5t3 65.5t0.5 81q0 43 -1.5 67.5t-11 55.5t-27.5 49q-39 41 -123 41q-20 0 -38.5 -1.5t-32.5 -4t-28 -6.5t-23 -7t-19.5 -8
t-15 -7.5l-12.5 -7t-9 -5.5v-316h-29v640h-178v27h428v-27h-221v-292q84 42 178 42q102 0 150 -50q23 -23 33.5 -65.5t10.5 -124.5z" />
    <glyph glyph-name="afii10052" unicode="&#x403;" horiz-adv-x="505" 
d="M486 667h-385v-667h29v640h356v27zM374 858l-132 -132h-37l132 132h37z" />
    <glyph glyph-name="afii10053" unicode="&#x404;" horiz-adv-x="631" 
d="M555 167q0 -95 -49.5 -134.5t-170.5 -39.5q-87 0 -135.5 18.5t-77.5 61.5q-20 32 -27.5 86t-7.5 174t7.5 174.5t27.5 86.5q29 43 77.5 61.5t135.5 18.5q121 0 170.5 -39.5t49.5 -134.5h-27q-2 83 -44.5 115t-157.5 32q-132 0 -177 -64q-20 -29 -26.5 -72.5t-6.5 -154.5
h271v-27h-271q0 -125 6 -170t27 -75q45 -64 177 -64q115 0 157.5 32t44.5 115h27z" />
    <glyph glyph-name="afii10054" unicode="&#x405;" horiz-adv-x="630" 
d="M553 187q0 -104 -54.5 -149t-184.5 -45q-132 0 -184.5 39t-53.5 135h27q2 -84 47 -115.5t166 -31.5q116 0 162.5 38t46.5 128q0 94 -51 122q-22 12 -51.5 15.5t-108.5 4.5q-93 1 -127 8q-60 13 -85.5 48.5t-25.5 106.5q0 103 52 143t184 40q131 0 183 -39t53 -135h-27
q-2 84 -46.5 115.5t-164.5 31.5q-117 0 -161.5 -33t-44.5 -122q0 -88 51 -117q22 -12 51.5 -15.5t107.5 -4.5q95 -1 128 -8q59 -13 85 -50.5t26 -109.5z" />
    <glyph glyph-name="afii10055" unicode="&#x406;" horiz-adv-x="232" 
d="M130 0h-29v667h29v-667z" />
    <glyph glyph-name="afii10056" unicode="&#x407;" horiz-adv-x="264" 
d="M144 0h-29v667h29v-667zM262 833q0 -26 -26 -26t-26 26q0 25 26 25t26 -25zM49 833q0 -26 -26 -26t-26 26q0 25 26 25t26 -25z" />
    <glyph glyph-name="afii10057" unicode="&#x408;" horiz-adv-x="524" 
d="M426 203q0 -45 -1 -64t-8 -46t-23 -47q-41 -53 -157 -53q-108 0 -155 47q-37 38 -37 127h27q0 -76 29 -106q43 -42 136 -42q100 0 133 44q14 17 20 41.5t6.5 39t0.5 57.5v466h29v-464z" />
    <glyph glyph-name="afii10058" unicode="&#x409;" horiz-adv-x="980" 
d="M934 180q0 -29 -4 -53t-9.5 -42t-17 -31.5t-21.5 -22.5t-28.5 -15t-31.5 -9t-38 -4.5t-40.5 -2t-45.5 -0.5h-214v640h-228l-108 -497q-17 -81 -52 -116q-32 -32 -90 -35v26q41 2 66 27q27 27 45 101q114 520 114 521h282v-311h218q55 0 88.5 -5.5t62 -23.5t40.5 -54
t12 -93zM906 178q0 52 -9.5 82.5t-34.5 45.5t-54.5 19t-83.5 4h-211v-302h213q40 0 62.5 1.5t48.5 9.5t38.5 24t21.5 44.5t9 71.5z" />
    <glyph glyph-name="afii10059" unicode="&#x40a;" horiz-adv-x="1011" 
d="M965 180q0 -29 -4 -53t-9.5 -42t-17 -31.5t-21.5 -22.5t-28.5 -15t-31.5 -9t-38 -4.5t-40.5 -2t-45.5 -0.5h-214v329h-385v-329h-29v667h29v-311h385v311h29v-311h218q55 0 88.5 -5.5t62 -23.5t40.5 -54t12 -93zM937 178q0 52 -9.5 82.5t-34.5 45.5t-54.5 19t-83.5 4
h-211v-302h213q40 0 62.5 1.5t48.5 9.5t38.5 24t21.5 44.5t9 71.5z" />
    <glyph glyph-name="afii10060" unicode="&#x40b;" horiz-adv-x="689" 
d="M614 150v-150h-31v150q0 43 -1.5 67.5t-11 55.5t-27.5 49q-39 41 -123 41q-20 0 -38.5 -1.5t-32.5 -4t-28 -6.5t-23 -7t-19.5 -8t-15 -7.5l-12.5 -7t-9 -5.5v-316h-29v640h-178v27h428v-27h-221v-292q84 42 178 42q102 0 150 -50q23 -23 33.5 -65.5t10.5 -124.5z" />
    <glyph glyph-name="afii10061" unicode="&#x40c;" horiz-adv-x="568" 
d="M399 858l-132 -132h-37l132 132h37zM528 0h-43l-355 324v-324h-29v667h28v-327l357 327h41l-368 -333z" />
    <glyph glyph-name="uni040D" unicode="&#x40d;" horiz-adv-x="647" 
d="M101 0h44l372 637v-637h28v667h-43l-373 -637v637h-28v-667zM388 726h-36l-133 132h36z" />
    <glyph glyph-name="afii10062" unicode="&#x40e;" horiz-adv-x="532" 
d="M407 858h-1q0 -80 -29 -109q-29 -28 -105 -28q-77 0 -105 28q-29 28 -31 109h27q0 -70 19 -90q24 -22 89 -22q67 0 89 22q20 20 20 90h27zM514 667l-329 -667h-33l104 204l-232 463h33l215 -431l210 431h32z" />
    <glyph glyph-name="afii10145" unicode="&#x40f;" horiz-adv-x="643" 
d="M547 0h-209v-119h-29v119h-208v667h29v-640h388v640h29v-667z" />
    <glyph glyph-name="afii10017" unicode="&#x410;" horiz-adv-x="603" 
d="M570 0h-29l-81 210h-319l-80 -210h-29l251 667h36zM450 236l-149 405l-150 -405h299z" />
    <glyph glyph-name="afii10018" unicode="&#x411;" horiz-adv-x="603" 
d="M549 180q0 -29 -4 -53t-9.5 -42t-17 -31.5t-21.5 -22.5t-28.5 -15t-31.5 -9t-38 -4.5t-40.5 -2t-45.5 -0.5h-214v667h390v-27h-361v-284h218q55 0 88.5 -5.5t62 -23.5t40.5 -54t12 -93zM521 178q0 52 -9.5 82.5t-34.5 45.5t-54.5 19t-83.5 4h-211v-302h213q40 0 62.5 1.5
t48.5 9.5t38.5 24t21.5 44.5t9 71.5z" />
    <glyph glyph-name="afii10019" unicode="&#x412;" horiz-adv-x="642" 
d="M554 179q0 -98 -37 -135q-31 -31 -67.5 -37.5t-130.5 -6.5h-218v667h212h5q40 0 58.5 -0.5t48.5 -3.5t44 -9t32.5 -18t26.5 -30t14 -44.5t6 -61.5q0 -91 -37 -128q-25 -25 -58 -31q38 -4 64 -30q37 -37 37 -132zM520 503q0 34 -6 58.5t-17.5 39t-27.5 23.5t-36.5 12
t-45 4t-51.5 0h-30h-176v-285h183q93 0 122.5 5t53.5 29q31 31 31 114zM526 176q0 86 -31 117q-23 24 -56.5 30t-126.5 6h-182v-302h182q94 0 126.5 5.5t56.5 29.5q31 31 31 114z" />
    <glyph glyph-name="afii10020" unicode="&#x413;" horiz-adv-x="505" 
d="M101 667h385v-27h-356v-640h-29v667z" />
    <glyph glyph-name="afii10021" unicode="&#x414;" horiz-adv-x="623" 
d="M552 -119h-29v121h-481v-121h-29v146q45 1 67 27.5t35 80.5l123 532h279v-640h35v-146zM488 27v613h-225l-117 -501q-12 -48 -25 -72.5t-35 -39.5h402z" />
    <glyph glyph-name="afii10022" unicode="&#x415;" horiz-adv-x="564" 
d="M486 0h-385v667h385v-27h-357v-284h347v-26h-347v-303h357v-27z" />
    <glyph glyph-name="afii10024" unicode="&#x416;" horiz-adv-x="827" 
d="M787 0h-40l-319 331v-331h-29v331l-318 -331h-41l325 335l-325 332h37l322 -332v332h29v-332l320 332h38l-325 -332z" />
    <glyph glyph-name="afii10025" unicode="&#x417;" horiz-adv-x="629" 
d="M541 180q0 -102 -56 -145t-181 -43q-111 0 -168 33.5t-60 133.5h27q1 -79 44 -109t157 -30q108 0 158.5 33t50.5 124q0 97 -41.5 126.5t-163.5 29.5h-64v27h64q102 0 149.5 28t47.5 116q0 84 -42 113.5t-159 29.5q-113 0 -156.5 -30.5t-44.5 -109.5h-27q3 100 60 133.5
t168 33.5q130 0 179.5 -35t49.5 -133q0 -36 -8 -66t-34 -58.5t-69 -35.5q38 -4 63.5 -19.5t37 -41.5t15 -49.5t3.5 -55.5z" />
    <glyph glyph-name="afii10026" unicode="&#x418;" horiz-adv-x="647" 
d="M145 0h-44v667h28v-637l373 637h43v-667h-28v637z" />
    <glyph glyph-name="afii10027" unicode="&#x419;" horiz-adv-x="647" 
d="M101 0h44l372 637v-637h28v667h-43l-373 -637v637h-28v-667zM457 858h-1q0 -80 -29 -109q-29 -28 -105 -28q-77 0 -105 28q-29 28 -31 109h27q0 -70 19 -90q24 -22 89 -22q67 0 89 22q20 20 20 90h27z" />
    <glyph glyph-name="afii10028" unicode="&#x41a;" horiz-adv-x="568" 
d="M528 0h-43l-355 324v-324h-29v667h28v-327l357 327h41l-368 -333z" />
    <glyph glyph-name="afii10029" unicode="&#x41b;" horiz-adv-x="614" 
d="M513 0h-29v640h-228l-108 -497q-17 -81 -52 -116q-32 -32 -90 -35v26q41 2 66 27q27 27 45 101q114 520 114 521h282v-667z" />
    <glyph glyph-name="afii10030" unicode="&#x41c;" horiz-adv-x="811" 
d="M709 0h-28v641l-259 -641h-36l-257 641v-641h-28v667h47l257 -639l257 639h47v-667z" />
    <glyph glyph-name="afii10031" unicode="&#x41d;" horiz-adv-x="649" 
d="M547 0h-29v329h-388v-329h-29v667h29v-311h388v311h29v-667z" />
    <glyph glyph-name="afii10032" unicode="&#x41e;" horiz-adv-x="665" 
d="M577 333q0 -122 -7 -175.5t-28 -84.5q-51 -80 -210 -80q-158 0 -210 80q-20 32 -27.5 85.5t-7.5 174.5q0 120 7.5 174.5t27.5 86.5q54 80 210 80q159 0 210 -80q21 -31 28 -85t7 -176zM548 333q0 125 -6.5 172.5t-26.5 77.5q-43 64 -183 64q-139 0 -183 -64
q-20 -31 -26.5 -79t-6.5 -172q0 -123 6.5 -170t26.5 -78q44 -64 183 -64q140 0 183 64q20 30 26.5 76.5t6.5 172.5z" />
    <glyph glyph-name="afii10033" unicode="&#x41f;" horiz-adv-x="649" 
d="M547 0h-29v640h-388v-640h-29v667h446v-667z" />
    <glyph glyph-name="afii10034" unicode="&#x420;" horiz-adv-x="594" 
d="M548 491q0 -92 -37 -129q-31 -31 -67.5 -37.5t-130.5 -6.5h-183v-318h-29v667h212q94 0 130.5 -6.5t67.5 -37.5q37 -37 37 -132zM520 494q0 80 -31 111q-24 24 -56.5 29.5t-126.5 5.5h-176v-295h176q94 0 126.5 5.5t56.5 29.5q31 31 31 114z" />
    <glyph glyph-name="afii10035" unicode="&#x421;" horiz-adv-x="631" 
d="M555 167q0 -95 -49.5 -134.5t-170.5 -39.5q-87 0 -135.5 18.5t-77.5 61.5q-20 32 -27.5 86t-7.5 174t7.5 174.5t27.5 86.5q29 43 77.5 61.5t135.5 18.5q121 0 170.5 -39.5t49.5 -134.5h-27q-2 83 -44.5 115t-157.5 32q-132 0 -177 -64q-20 -30 -26.5 -76.5t-6.5 -173.5
t6 -173t27 -76q45 -64 177 -64q115 0 157.5 32t44.5 115h27z" />
    <glyph glyph-name="afii10036" unicode="&#x422;" horiz-adv-x="532" 
d="M498 640h-218v-640h-29v640h-218v27h465v-27z" />
    <glyph glyph-name="afii10037" unicode="&#x423;" horiz-adv-x="532" 
d="M514 667l-329 -667h-33l104 204l-232 463h33l215 -431l210 431h32z" />
    <glyph glyph-name="afii10038" unicode="&#x424;" horiz-adv-x="793" 
d="M711 338q0 -93 -16 -144.5t-50 -81.5q-62 -49 -234 -52v-60h-29v60q-172 3 -234 52q-34 31 -50 82.5t-16 143.5t16 142.5t50 81.5q31 26 85.5 36.5t148.5 12.5v56h29v-56q94 -2 148 -12.5t86 -36.5q34 -30 50 -81t16 -143zM682 336q0 158 -61 208q-53 38 -210 40v-496
q158 2 210 41q61 48 61 207zM382 88v496q-157 -2 -210 -40q-61 -50 -61 -208q0 -159 61 -207q52 -39 210 -41z" />
    <glyph glyph-name="afii10039" unicode="&#x425;" horiz-adv-x="546" 
d="M499 0h-33l-195 311l-192 -311h-33l209 333l-209 334h33l194 -313l192 313h34l-208 -334z" />
    <glyph glyph-name="afii10040" unicode="&#x426;" horiz-adv-x="654" 
d="M582 -119h-29v119h-452v667h29v-640h388v640h29v-640h35v-146z" />
    <glyph glyph-name="afii10041" unicode="&#x427;" horiz-adv-x="598" 
d="M498 0h-29v316q-92 -43 -189 -43q-109 0 -159 50q-22 22 -32.5 58t-12.5 66t-2 86v134h29v-140q0 -50 1.5 -76t11.5 -56.5t30 -50.5q39 -42 134 -42q107 0 189 47v318h29v-667z" />
    <glyph glyph-name="afii10042" unicode="&#x428;" horiz-adv-x="868" 
d="M770 0h-673v667h29v-640h293v640h29v-640h293v640h29v-667z" />
    <glyph glyph-name="afii10043" unicode="&#x429;" horiz-adv-x="873" 
d="M805 -119h-29v119h-679v667h29v-640h293v640h29v-640h293v640h29v-640h35v-146z" />
    <glyph glyph-name="afii10044" unicode="&#x42a;" horiz-adv-x="689" 
d="M640 180q0 -29 -4 -53t-9.5 -42t-17 -31.5t-21.5 -22.5t-28.5 -15t-31.5 -9t-38 -4.5t-40.5 -2t-45.5 -0.5h-214v640h-178v27h207v-311h218q55 0 88.5 -5.5t62 -23.5t40.5 -54t12 -93zM612 178q0 52 -9.5 82.5t-34.5 45.5t-54.5 19t-83.5 4h-211v-302h213q40 0 62.5 1.5
t48.5 9.5t38.5 24t21.5 44.5t9 71.5z" />
    <glyph glyph-name="afii10045" unicode="&#x42b;" horiz-adv-x="797" 
d="M551 180q0 -29 -4 -53t-9.5 -42t-17 -31.5t-21.5 -22.5t-28.5 -15t-31.5 -9t-38 -4.5t-40.5 -2t-45.5 -0.5h-214v667h29v-311h218q55 0 88.5 -5.5t62 -23.5t40.5 -54t12 -93zM523 178q0 52 -9.5 82.5t-34.5 45.5t-54.5 19t-83.5 4h-211v-302h213q40 0 62.5 1.5t48.5 9.5
t38.5 24t21.5 44.5t9 71.5zM696 0h-29v667h29v-667z" />
    <glyph glyph-name="afii10046" unicode="&#x42c;" horiz-adv-x="597" 
d="M551 180q0 -29 -4 -53t-9.5 -42t-17 -31.5t-21.5 -22.5t-28.5 -15t-31.5 -9t-38 -4.5t-40.5 -2t-45.5 -0.5h-214v667h29v-311h218q55 0 88.5 -5.5t62 -23.5t40.5 -54t12 -93zM523 178q0 52 -9.5 82.5t-34.5 45.5t-54.5 19t-83.5 4h-211v-302h213q40 0 62.5 1.5t48.5 9.5
t38.5 24t21.5 44.5t9 71.5z" />
    <glyph glyph-name="afii10047" unicode="&#x42d;" horiz-adv-x="631" 
d="M76 167h27q2 -83 44.5 -115t157.5 -32q132 0 177 64q21 30 27 75t6 170h-271v27h271q0 111 -6.5 154.5t-26.5 72.5q-45 64 -177 64q-115 0 -157.5 -32t-44.5 -115h-27q0 95 49.5 134.5t170.5 39.5q87 0 135.5 -18.5t77.5 -61.5q20 -32 27.5 -86.5t7.5 -174.5t-7.5 -174
t-27.5 -86q-29 -43 -77.5 -61.5t-135.5 -18.5q-121 0 -170.5 39.5t-49.5 134.5z" />
    <glyph glyph-name="afii10048" unicode="&#x42e;" horiz-adv-x="889" 
d="M801 333q0 -122 -7 -175.5t-28 -84.5q-51 -80 -210 -80q-158 0 -210 80q-20 31 -27.5 85t-7.5 171h-181v-329h-29v667h29v-311h181q1 105 8.5 156.5t26.5 81.5q54 80 210 80q159 0 210 -80q21 -31 28 -85t7 -176zM772 333q0 125 -6.5 172.5t-26.5 77.5q-43 64 -183 64
q-139 0 -183 -64q-20 -31 -26.5 -79t-6.5 -172q0 -123 6.5 -170t26.5 -78q44 -64 183 -64q140 0 183 64q20 30 26.5 76.5t6.5 172.5z" />
    <glyph glyph-name="afii10049" unicode="&#x42f;" horiz-adv-x="642" 
d="M122 0h-28v179q0 95 37 132q25 25 60 30q-36 7 -60 31q-37 37 -37 123q0 91 37 128q31 31 67.5 37.5t130.5 6.5h212v-667h-29v329h-176q-93 0 -126.5 -6t-56.5 -30q-31 -31 -31 -117v-176zM122 498q0 -78 31 -109q24 -24 53.5 -29t122.5 -5h183v285h-176
q-94 0 -126.5 -5.5t-56.5 -29.5q-31 -31 -31 -107z" />
    <glyph glyph-name="afii10065" unicode="&#x430;" horiz-adv-x="528" 
d="M446 0h-25v96q-39 -103 -186 -103q-90 0 -131 33t-41 106q0 74 35 109q18 18 48.5 27t46.5 9.5t47 0.5h179v27q0 67 -11 92q-7 13 -17 24q-32 35 -130 35q-97 0 -130 -33q-30 -31 -30 -73h-26q0 54 34 88q46 45 160 45q100 0 140 -41q19 -19 27.5 -48t9 -46t0.5 -69v-279
zM419 252h-183q-87 0 -116 -29q-30 -30 -30 -90q0 -61 32.5 -87t109.5 -26q132 0 169 84q11 26 14 50t4 98z" />
    <glyph glyph-name="afii10066" unicode="&#x431;" horiz-adv-x="547" 
d="M477 236q0 -65 -6 -103.5t-24.5 -73.5t-58 -50.5t-102.5 -15.5q-111 0 -155 45q-28 30 -36 72t-8 121v214q0 101 47 149q22 22 52.5 34.5t51.5 15.5t56 5q26 1 40 2.5t31 7.5t27 17q10 10 12 23h29q-3 -27 -17 -41q-32 -31 -117 -37q-33 -2 -52.5 -4.5t-45.5 -13.5
t-45 -30q-40 -40 -40 -129v-50q28 48 70 68t105 20q62 0 100.5 -16.5t56.5 -53t23.5 -75t5.5 -101.5zM449 237q0 43 -2 70t-10.5 58t-24.5 48t-45 28.5t-71 11.5q-102 0 -141.5 -47t-39.5 -173q0 -62 4.5 -96t22 -64t52.5 -41.5t95 -11.5q45 0 75.5 11t47 27t25 47.5
t10.5 58t2 73.5z" />
    <glyph glyph-name="afii10067" unicode="&#x432;" horiz-adv-x="526" 
d="M456 130q0 -70 -28 -98q-20 -21 -58 -28q-24 -4 -87 -4h-196v476h206q34 0 51.5 -1t41.5 -7t35.5 -17.5t20.5 -34.5t9 -57q0 -105 -66 -113q43 -9 57 -39t14 -77zM427 128q0 66 -29 85t-101 19h-182v-207h173q81 -1 110 18.5t29 84.5zM423 353q0 35 -7.5 55.5t-26.5 29.5
t-37 11t-54 2h-183v-195h177q31 0 45.5 0.5t34.5 5.5t28.5 15t15.5 29t7 47z" />
    <glyph glyph-name="afii10068" unicode="&#x433;" horiz-adv-x="446" 
d="M401 450h-286v-450h-28v476h314v-26z" />
    <glyph glyph-name="afii10069" unicode="&#x434;" horiz-adv-x="512" 
d="M464 -119h-26v119h-398v-119h-26v143q38 2 55.5 23t27.5 64l80 365h250v-450h37v-145zM399 26v424h-199l-72 -333q-15 -75 -45 -91h316z" />
    <glyph glyph-name="afii10070" unicode="&#x435;" horiz-adv-x="526" 
d="M456 243h-359q0 -70 6 -113t28 -67q40 -43 136 -43q92 0 132 40q23 23 23 66h26q0 -54 -28 -84q-43 -49 -154 -49q-108 0 -155 51q-23 26 -32.5 68.5t-9.5 125.5t9.5 125.5t32.5 68.5q47 51 152 51q55 0 89 -11t62 -39q42 -42 42 -173v-17zM428 269q0 106 -34 144
q-38 43 -131 43q-92 0 -132 -43q-34 -38 -34 -144h331z" />
    <glyph glyph-name="afii10072" unicode="&#x436;" horiz-adv-x="653" 
d="M312 247v229h29v-229l238 229h40l-242 -230l243 -246h-40l-239 243v-243h-29v243l-239 -243h-40l243 246l-242 230h40z" />
    <glyph glyph-name="afii10073" unicode="&#x437;" horiz-adv-x="513" 
d="M246 -7q-112 0 -155 48q-28 30 -28 85h26q0 -45 22 -67q38 -39 134 -39q91 0 132 22.5t41 85.5q0 68 -32 86t-134 18h-31v24h31q87 0 123 18.5t36 82.5q0 56 -37 77.5t-130 21.5q-94 0 -132 -39q-23 -23 -23 -67h-26q0 55 28 85q43 48 154 48q108 0 151 -26t43 -98
q0 -99 -68 -113q74 -13 74 -116q0 -79 -47 -108t-152 -29z" />
    <glyph glyph-name="afii10074" unicode="&#x438;" horiz-adv-x="538" 
d="M451 0h-28v444l-292 -444h-44v476h28v-449l293 449h43v-476z" />
    <glyph glyph-name="afii10075" unicode="&#x439;" horiz-adv-x="536" 
d="M451 0h-28v444l-292 -444h-44v476h28v-449l293 449h43v-476zM268 555q67 0 89 22q20 20 20 90h26q0 -80 -29 -109q-29 -28 -106 -28t-106 28q-29 29 -29 109h26q0 -70 20 -90q22 -22 89 -22z" />
    <glyph glyph-name="afii10076" unicode="&#x43a;" horiz-adv-x="458" 
d="M425 0h-40l-269 255v-255h-29v476h29v-217l266 217h40l-271 -220z" />
    <glyph glyph-name="afii10077" unicode="&#x43b;" horiz-adv-x="514" 
d="M427 0h-28v450h-197l-75 -335q-6 -28 -11.5 -43.5t-17.5 -36t-32.5 -31t-50.5 -11.5v25q37 2 55 27t29 74l79 357h249v-476z" />
    <glyph glyph-name="afii10078" unicode="&#x43c;" horiz-adv-x="659" 
d="M572 0h-28v441l-197 -441h-36l-196 441v-441h-28v476h41l202 -448l203 448h39v-476z" />
    <glyph glyph-name="afii10079" unicode="&#x43d;" horiz-adv-x="538" 
d="M451 0h-28v232h-308v-232h-28v476h28v-218h308v218h28v-476z" />
    <glyph glyph-name="afii10080" unicode="&#x43e;" horiz-adv-x="532" 
d="M462 238q0 -84 -9 -126.5t-33 -67.5q-45 -51 -154 -51q-108 0 -155 51q-23 26 -32.5 68.5t-9.5 125.5t9.5 125.5t32.5 68.5q47 51 155 51q109 0 154 -51q24 -25 33 -67.5t9 -126.5zM434 238q0 78 -7.5 115.5t-26.5 59.5q-38 43 -134 43q-95 0 -135 -43q-19 -22 -26.5 -60
t-7.5 -115t7.5 -115t26.5 -60q40 -43 135 -43q96 0 134 43q19 22 26.5 59.5t7.5 115.5z" />
    <glyph glyph-name="afii10081" unicode="&#x43f;" horiz-adv-x="538" 
d="M451 0h-28v450h-308v-450h-28v476h364v-476z" />
    <glyph glyph-name="afii10082" unicode="&#x440;" horiz-adv-x="548" 
d="M478 239q0 -129 -27 -177q-37 -69 -159 -69q-134 0 -177 92v-276h-28v667h27v-86q44 93 178 93q122 0 159 -69q27 -48 27 -175zM450 239q0 130 -30 171q-33 46 -123 46q-102 0 -142.5 -48t-40.5 -169q0 -123 40.5 -171t142.5 -48q90 0 123 46q30 41 30 173z" />
    <glyph glyph-name="afii10083" unicode="&#x441;" horiz-adv-x="511" 
d="M448 126q0 -55 -28 -85q-43 -48 -154 -48q-108 0 -155 51q-23 26 -32.5 68.5t-9.5 125.5t9.5 125.5t32.5 68.5q47 51 155 51q111 0 154 -48q28 -30 28 -85h-26q0 44 -23 67q-38 39 -132 39q-96 0 -136 -43q-19 -22 -26.5 -60t-7.5 -115t7.5 -115t26.5 -60q40 -43 137 -43
q94 0 132 39q22 22 22 67h26z" />
    <glyph glyph-name="afii10084" unicode="&#x442;" horiz-adv-x="438" 
d="M410 450h-177v-450h-28v450h-176v26h381v-26z" />
    <glyph glyph-name="afii10085" unicode="&#x443;" horiz-adv-x="450" 
d="M416 476l-246 -667h-28l71 192l-174 475h29l160 -436l159 436h29z" />
    <glyph glyph-name="afii10086" unicode="&#x444;" horiz-adv-x="810" 
d="M741 237q0 -50 -3 -83.5t-12.5 -66.5t-27 -52t-48.5 -31t-75 -12q-119 0 -156 84v-267h-28v267q-42 -84 -157 -84q-43 0 -73.5 12t-48.5 31t-27.5 52t-12.5 66.5t-3 83.5t3 83.5t12.5 67t27.5 53t48.5 31.5t73.5 12q33 0 60.5 -7.5t42.5 -15.5t28.5 -23t16.5 -20.5
t9 -17.5v297h28v-297q7 14 13.5 23t24.5 26t48 26t70 9q55 0 89 -16.5t50.5 -52.5t21.5 -75.5t5 -102.5zM391 238q0 124 -35.5 171t-125.5 47q-35 0 -59.5 -10.5t-39 -27t-22 -46.5t-10 -59.5t-2.5 -74.5t2.5 -75t10 -60t22 -46.5t39 -27t59.5 -10.5q90 0 125.5 47t35.5 172
zM713 238q0 45 -2.5 75t-10 59.5t-22 46t-39 27t-59.5 10.5q-90 0 -125.5 -47t-35.5 -171q0 -125 35.5 -172t125.5 -47q35 0 59.5 10.5t39 27.5t22 46.5t10 59.5t2.5 75z" />
    <glyph glyph-name="afii10087" unicode="&#x445;" horiz-adv-x="452" 
d="M412 0h-34l-153 215l-154 -215h-32l170 238l-170 238h34l153 -215l154 215h32l-170 -237z" />
    <glyph glyph-name="afii10088" unicode="&#x446;" horiz-adv-x="537" 
d="M488 -119h-26v119h-375v476h28v-450h308v450h28v-450h37v-145z" />
    <glyph glyph-name="afii10089" unicode="&#x447;" horiz-adv-x="530" 
d="M432 0h-28v218q-70 -33 -159 -33q-94 0 -137 43q-27 28 -33.5 65.5t-6.5 114.5v68h28v-74q0 -60 6.5 -95.5t29.5 -58.5q36 -36 113 -36q93 0 159 36v228h28v-476z" />
    <glyph glyph-name="afii10090" unicode="&#x448;" horiz-adv-x="744" 
d="M663 0h-576v476h28v-450h246v450h28v-450h246v450h28v-476z" />
    <glyph glyph-name="afii10091" unicode="&#x449;" horiz-adv-x="749" 
d="M700 -119h-26v119h-587v476h28v-450h246v450h28v-450h246v450h28v-450h37v-145z" />
    <glyph glyph-name="afii10092" unicode="&#x44a;" horiz-adv-x="533" 
d="M479 129q0 -37 -8 -61.5t-19.5 -38t-36 -20t-45.5 -8t-60 -1.5h-195v450h-101v26h129v-219h189q92 0 119 -27q28 -28 28 -101zM451 129q0 30 -6 49.5t-14 30t-26.5 16t-34 6.5t-45.5 1h-182v-207h165h12q30 0 44 0.5t34.5 6t29.5 16t16 30.5t7 51z" />
    <glyph glyph-name="afii10093" unicode="&#x44b;" horiz-adv-x="657" 
d="M451 129q0 -37 -8 -61.5t-19.5 -38t-36 -20t-45.5 -8t-60 -1.5h-195v476h28v-219h189q92 0 119 -27q28 -28 28 -101zM423 129q0 30 -6 49.5t-14 30t-26.5 16t-34 6.5t-45.5 1h-182v-207h165h12q30 0 44 0.5t34.5 6t29.5 16t16 30.5t7 51zM570 0h-29v476h29v-476z" />
    <glyph glyph-name="afii10094" unicode="&#x44c;" horiz-adv-x="505" 
d="M451 129q0 -37 -8 -61.5t-19.5 -38t-36 -20t-45.5 -8t-60 -1.5h-195v476h28v-219h189q92 0 119 -27q28 -28 28 -101zM423 129q0 30 -6 49.5t-14 30t-26.5 16t-34 6.5t-45.5 1h-182v-207h165h12q30 0 44 0.5t34.5 6t29.5 16t16 30.5t7 51z" />
    <glyph glyph-name="afii10095" unicode="&#x44d;" horiz-adv-x="511" 
d="M63 126h26q0 -45 22 -67q38 -39 132 -39q97 0 137 43q19 21 26.5 58t7.5 111h-192v26h192q-1 118 -34 155q-40 43 -136 43q-94 0 -132 -39q-23 -23 -23 -67h-26q0 55 28 85q43 48 154 48q108 0 155 -51q23 -26 32.5 -68.5t9.5 -125.5t-9.5 -125.5t-32.5 -68.5
q-47 -51 -155 -51q-111 0 -154 48q-28 30 -28 85z" />
    <glyph glyph-name="afii10096" unicode="&#x44e;" horiz-adv-x="729" 
d="M658 238q0 -84 -9 -126.5t-33 -67.5q-45 -51 -154 -51q-108 0 -155 51q-42 45 -42 188h-150v-232h-28v476h28v-218h150q1 129 42 174q47 51 155 51q109 0 154 -51q24 -25 33 -67.5t9 -126.5zM630 238q0 78 -7.5 115.5t-26.5 59.5q-38 43 -134 43q-95 0 -135 -43
q-19 -22 -26.5 -60t-7.5 -115t7.5 -115t26.5 -60q40 -43 135 -43q96 0 134 43q19 22 26.5 59.5t7.5 115.5z" />
    <glyph glyph-name="afii10097" unicode="&#x44f;" horiz-adv-x="527" 
d="M440 0h-28v226h-195q-74 0 -93.5 -17.5t-19.5 -92.5v-116h-28v123q0 24 1 37.5t7 35t21.5 32t40.5 11.5q-70 10 -70 105q0 79 35 105.5t113 26.5h216v-476zM412 252v199h-171q-37 0 -55.5 -2t-40.5 -11t-31.5 -31t-9.5 -59q0 -33 7.5 -53.5t25 -29t33.5 -11t45 -2.5h197z
" />
    <glyph glyph-name="uni0450" unicode="&#x450;" horiz-adv-x="526" 
d="M456 243h-359q0 -70 6 -113t28 -67q40 -43 136 -43q92 0 132 40q23 23 23 66h26q0 -54 -28 -84q-43 -49 -154 -49q-108 0 -155 51q-23 26 -32.5 68.5t-9.5 125.5t9.5 125.5t32.5 68.5q47 51 152 51q55 0 89 -11t62 -39q42 -42 42 -173v-17zM428 269q0 106 -34 144
q-38 43 -131 43q-92 0 -132 -43q-34 -38 -34 -144h331zM345 535h-36l-133 132h36z" />
    <glyph glyph-name="afii10071" unicode="&#x451;" horiz-adv-x="526" 
d="M456 243h-359q0 -70 6 -113t28 -67q40 -43 136 -43q92 0 132 40q23 23 23 66h26q0 -54 -28 -84q-43 -49 -154 -49q-108 0 -155 51q-23 26 -32.5 68.5t-9.5 125.5t9.5 125.5t32.5 68.5q47 51 152 51q55 0 89 -11t62 -39q42 -42 42 -173v-17zM428 269q0 106 -34 144
q-38 43 -131 43q-92 0 -132 -43q-34 -38 -34 -144h331zM394 642q0 -26 -26 -26t-26 26q0 25 26 25t26 -25zM181 642q0 -26 -26 -26t-26 26q0 25 26 25t26 -25z" />
    <glyph glyph-name="afii10099" unicode="&#x452;" horiz-adv-x="546" 
d="M26 561v26h74v110h28v-110h174v-26h-174v-172q40 94 166 94q90 0 128 -38q30 -30 36 -66t6 -132v-154q0 -77 -5.5 -121t-23.5 -83.5t-55.5 -56t-98.5 -16.5v27q42 1 70 11t45 27t26 51t11.5 70t2.5 96v143q0 93 -5 127t-27 56q-32 32 -109 32q-80 0 -119 -39
q-23 -24 -34.5 -62t-12.5 -64t-1 -86v-205h-28v561h-74z" />
    <glyph glyph-name="afii10100" unicode="&#x453;" horiz-adv-x="446" 
d="M315 666l-112 -114h-32l113 114h31zM401 450h-286v-450h-28v476h314v-26z" />
    <glyph glyph-name="afii10101" unicode="&#x454;" horiz-adv-x="511" 
d="M448 126q0 -55 -28 -85q-43 -48 -154 -48q-108 0 -155 51q-23 26 -32.5 68.5t-9.5 125.5t9.5 125.5t32.5 68.5q47 51 155 51q111 0 154 -48q28 -30 28 -85h-26q0 44 -23 67q-38 39 -132 39q-96 0 -136 -43q-33 -37 -34 -155h192v-26h-192q0 -74 7.5 -111t26.5 -58
q40 -43 137 -43q94 0 132 39q22 22 22 67h26z" />
    <glyph glyph-name="afii10102" unicode="&#x455;" horiz-adv-x="498" 
d="M433 131q0 -74 -44.5 -106.5t-144.5 -31.5q-103 1 -141 28t-38 105h27q0 -65 30.5 -85.5t120.5 -21.5q84 -1 123 24t39 80q1 46 -12 68.5t-49 29.5q-28 5 -131 8q-86 3 -116 32q-27 27 -25 87q2 75 45 105.5t143 29.5q102 -1 141 -40q30 -29 30 -93h-27q0 56 -31 81
t-112 25q-85 0 -123 -22.5t-39 -77.5q-1 -47 12.5 -68t49.5 -28q12 -2 115 -6q35 -1 54.5 -3t42 -9t34 -19.5t19 -35.5t7.5 -56z" />
    <glyph glyph-name="afii10103" unicode="&#x456;" horiz-adv-x="203" 
d="M127 649q0 -26 -26 -26t-26 26q0 25 26 25t26 -25zM115 0h-28v476h28v-476z" />
    <glyph glyph-name="afii10104" unicode="&#x457;" horiz-adv-x="205" 
d="M115 0h-29v476h29v-476zM233 642q0 -26 -26 -26t-26 26q0 25 26 25t26 -25zM20 642q0 -26 -26 -26t-26 26q0 25 26 25t26 -25z" />
    <glyph glyph-name="afii10105" unicode="&#x458;" horiz-adv-x="203" 
d="M128 649q0 -26 -26 -26t-26 26q0 25 26 25t26 -25zM116 -47q0 -74 -33 -107q-43 -41 -123 -41q-148 0 -148 123h26q0 -96 120 -96q71 0 106 35q24 24 24 75v534h28v-523z" />
    <glyph glyph-name="afii10106" unicode="&#x459;" horiz-adv-x="817" 
d="M427 476v-219h189q92 0 119 -27q28 -28 28 -101q0 -37 -8 -61.5t-19.5 -38t-36 -20t-45.5 -8t-60 -1.5h-195v450h-197l-75 -335q-6 -28 -11.5 -43.5t-17.5 -36t-32.5 -31t-50.5 -11.5v25q37 2 55 27t29 74l79 357h249zM735 129q0 30 -6 49.5t-14 30t-26.5 16t-34 6.5
t-45.5 1h-182v-207h165h12q30 0 44 0.5t34.5 6t29.5 16t16 30.5t7 51z" />
    <glyph glyph-name="afii10107" unicode="&#x45a;" horiz-adv-x="836" 
d="M782 129q0 -37 -8 -61.5t-19.5 -38t-36 -20t-45.5 -8t-60 -1.5h-195v232h-308v-232h-28v476h28v-219h308v219h28v-219h189q92 0 119 -27q28 -28 28 -101zM754 129q0 30 -6 49.5t-14 30t-26.5 16t-34 6.5t-45.5 1h-182v-207h165h12q30 0 44 0.5t34.5 6t29.5 16t16 30.5
t7 51z" />
    <glyph glyph-name="afii10108" unicode="&#x45b;" horiz-adv-x="546" 
d="M26 561v26h74v110h28v-110h174v-26h-174v-172q40 94 166 94q90 0 128 -38q30 -30 36 -66t6 -132v-247h-28v241q0 93 -5 127t-27 56q-32 32 -109 32q-80 0 -119 -39q-23 -24 -34.5 -62t-12.5 -64t-1 -86v-205h-28v561h-74z" />
    <glyph glyph-name="afii10109" unicode="&#x45c;" horiz-adv-x="458" 
d="M344 667l-132 -132h-37l132 132h37zM425 0h-40l-269 255v-255h-29v476h29v-217l266 217h40l-271 -220z" />
    <glyph glyph-name="uni045D" unicode="&#x45d;" horiz-adv-x="538" 
d="M451 0h-28v444l-292 -444h-44v476h28v-449l293 449h43v-476zM343 535h-36l-133 132h36z" />
    <glyph glyph-name="afii10110" unicode="&#x45e;" horiz-adv-x="450" 
d="M416 476l-246 -667h-28l71 192l-174 475h29l160 -436l159 436h29zM227 555q67 0 89 22q20 20 20 90h26q0 -80 -29 -109q-29 -28 -106 -28t-106 28q-29 29 -29 109h26q0 -70 20 -90q22 -22 89 -22z" />
    <glyph glyph-name="afii10193" unicode="&#x45f;" horiz-adv-x="536" 
d="M450 0h-168v-119h-26v119h-170v476h28v-450h308v450h28v-476z" />
    <glyph glyph-name="afii10146" unicode="&#x462;" horiz-adv-x="689" 
d="M640 180q0 -29 -4 -53t-9.5 -42t-17 -31.5t-21.5 -22.5t-28.5 -15t-31.5 -9t-38 -4.5t-40.5 -2t-45.5 -0.5h-214v499h-178v26h178v142h29v-142h218v-26h-218v-143h218q55 0 88.5 -5.5t62 -23.5t40.5 -54t12 -93zM612 178q0 52 -9.5 82.5t-34.5 45.5t-54.5 19t-83.5 4
h-211v-302h213q40 0 62.5 1.5t48.5 9.5t38.5 24t21.5 44.5t9 71.5z" />
    <glyph glyph-name="afii10194" unicode="&#x463;" horiz-adv-x="533" 
d="M479 129q0 -37 -8 -61.5t-19.5 -38t-36 -20t-45.5 -8t-60 -1.5h-195v450h-101v26h101v191h28v-191h223v-26h-223v-193h189q92 0 119 -27q28 -28 28 -101zM451 129q0 30 -6 49.5t-14 30t-26.5 16t-34 6.5t-45.5 1h-182v-207h165h12q30 0 44 0.5t34.5 6t29.5 16t16 30.5
t7 51z" />
    <glyph glyph-name="afii10147" unicode="&#x472;" horiz-adv-x="665" 
d="M577 333q0 -122 -7 -175.5t-28 -84.5q-51 -80 -210 -80q-158 0 -210 80q-20 32 -27.5 85.5t-7.5 174.5q0 120 7.5 174.5t27.5 86.5q54 80 210 80q159 0 210 -80q21 -31 28 -85t7 -176zM515 84q20 29 26.5 76t6.5 169h-432q0 -121 6.5 -168t26.5 -77q44 -64 183 -64
q140 0 183 64zM149 583q-19 -29 -25.5 -73.5t-7.5 -153.5h432q0 108 -7 153t-26 74q-43 64 -183 64q-139 0 -183 -64z" />
    <glyph glyph-name="afii10195" unicode="&#x473;" horiz-adv-x="532" 
d="M462 238q0 -84 -9 -126.5t-33 -67.5q-45 -51 -154 -51q-108 0 -155 51q-23 26 -32.5 68.5t-9.5 125.5t9.5 125.5t32.5 68.5q47 51 155 51q109 0 154 -51q24 -25 33 -67.5t9 -126.5zM400 63q19 21 26.5 58t7.5 111h-337q0 -131 34 -169q40 -43 135 -43q96 0 134 43z
M131 413q-33 -37 -34 -155h337q-1 118 -34 155q-38 43 -134 43q-95 0 -135 -43z" />
    <glyph glyph-name="afii10148" unicode="&#x474;" horiz-adv-x="594" 
d="M295 0h-36l-241 667h30l230 -640l180 496q34 94 54.5 123t62.5 29v-24q-30 -1 -45 -23.5t-46 -107.5z" />
    <glyph glyph-name="afii10196" unicode="&#x475;" horiz-adv-x="480" 
d="M226 26l125 333q30 79 46.5 101t54.5 23v-23q-25 -1 -36.5 -17t-32.5 -73l-5 -13l-134 -357h-37l-180 476h29z" />
    <glyph glyph-name="afii10050" unicode="&#x490;" horiz-adv-x="505" 
d="M486 640h-356v-640h-29v667h358v84h27v-111z" />
    <glyph glyph-name="afii10098" unicode="&#x491;" horiz-adv-x="446" 
d="M401 450h-286v-450h-28v476h289v78h25v-104z" />
    <glyph glyph-name="Wgrave" unicode="&#x1e80;" horiz-adv-x="869" 
d="M811 667l-162 -667h-42l-173 644l-175 -644h-42l-160 667h28l154 -643l174 643h42l174 -643l154 643h28zM499 726h-36l-133 132h36z" />
    <glyph glyph-name="wgrave" unicode="&#x1e81;" horiz-adv-x="688" 
d="M654 476l-139 -476h-39l-132 454l-133 -454h-39l-139 476h29l130 -450l133 450h38l133 -450l129 450h29zM408 535h-36l-133 132h36z" />
    <glyph glyph-name="Wacute" unicode="&#x1e82;" horiz-adv-x="869" 
d="M811 667l-162 -667h-42l-173 644l-175 -644h-42l-160 667h28l154 -643l174 643h42l174 -643l154 643h28zM549 858l-132 -132h-37l132 132h37z" />
    <glyph glyph-name="wacute" unicode="&#x1e83;" horiz-adv-x="688" 
d="M654 476l-139 -476h-39l-132 454l-133 -454h-39l-139 476h29l130 -450l133 450h38l133 -450l129 450h29zM448 667l-132 -132h-37l132 132h37z" />
    <glyph glyph-name="Wdieresis" unicode="&#x1e84;" horiz-adv-x="869" 
d="M811 667l-162 -667h-42l-173 644l-175 -644h-42l-160 667h28l154 -643l174 643h42l174 -643l154 643h28zM567 830q0 -26 -26 -26t-26 26q0 25 26 25t26 -25zM354 830q0 -26 -26 -26t-26 26q0 25 26 25t26 -25z" />
    <glyph glyph-name="wdieresis" unicode="&#x1e85;" horiz-adv-x="688" 
d="M654 476l-139 -476h-39l-132 454l-133 -454h-39l-139 476h29l130 -450l133 450h38l133 -450l129 450h29zM476 642q0 -26 -26 -26t-26 26q0 25 26 25t26 -25zM263 642q0 -26 -26 -26t-26 26q0 25 26 25t26 -25z" />
    <glyph glyph-name="Ygrave" unicode="&#x1ef2;" horiz-adv-x="514" 
d="M495 667l-224 -372v-295h-29v295l-224 372h32l208 -346l207 346h30zM341 726h-36l-133 132h36z" />
    <glyph glyph-name="ygrave" unicode="&#x1ef3;" horiz-adv-x="450" 
d="M416 476l-246 -667h-28l71 192l-174 475h29l160 -436l159 436h29zM319 535h-36l-133 132h36z" />
    <glyph glyph-name="figuredash" unicode="&#x2012;" horiz-adv-x="557" 
d="M516 226h-476v26h476v-26z" />
    <glyph glyph-name="endash" unicode="&#x2013;" horiz-adv-x="557" 
d="M529 226h-501v26h501v-26z" />
    <glyph glyph-name="emdash" unicode="&#x2014;" horiz-adv-x="995" 
d="M898 226h-801v26h801v-26z" />
    <glyph glyph-name="quoteleft" unicode="&#x2018;" horiz-adv-x="204" 
d="M167 656l-20 -20q-15 -15 -22 -33.5t-7.5 -28.5t-0.5 -35v-68h-30v68q0 45 8 69.5t32 48.5l19 19z" />
    <glyph glyph-name="quoteright" unicode="&#x2019;" horiz-adv-x="204" 
d="M117 599q0 -45 -8 -69.5t-32 -48.5l-19 -19l-21 20l20 20q15 15 22 33.5t7.5 28.5t0.5 35v68h30v-68z" />
    <glyph glyph-name="quotesinglbase" unicode="&#x201a;" horiz-adv-x="204" 
d="M117 -19q0 -45 -8 -69.5t-32 -48.5l-19 -19l-21 20l20 20q15 15 22 33.5t7.5 28.5t0.5 35v68h30v-68z" />
    <glyph glyph-name="quotedblleft" unicode="&#x201c;" horiz-adv-x="366" 
d="M329 656l-20 -20q-15 -15 -22 -33.5t-7.5 -28.5t-0.5 -35v-68h-30v68q0 45 8 69.5t32 48.5l19 19zM167 656l-20 -20q-15 -15 -22 -33.5t-7.5 -28.5t-0.5 -35v-68h-30v68q0 45 8 69.5t32 48.5l19 19z" />
    <glyph glyph-name="quotedblright" unicode="&#x201d;" horiz-adv-x="366" 
d="M279 599q0 -45 -8 -69.5t-32 -48.5l-19 -19l-21 20l20 20q15 15 22 33.5t7.5 28.5t0.5 35v68h30v-68zM117 599q0 -45 -8 -69.5t-32 -48.5l-19 -19l-21 20l20 20q15 15 22 33.5t7.5 28.5t0.5 35v68h30v-68z" />
    <glyph glyph-name="quotedblbase" unicode="&#x201e;" horiz-adv-x="366" 
d="M279 -19q0 -45 -8 -69.5t-32 -48.5l-19 -19l-21 20l20 20q15 15 22 33.5t7.5 28.5t0.5 35v68h30v-68zM117 -19q0 -45 -8 -69.5t-32 -48.5l-19 -19l-21 20l20 20q15 15 22 33.5t7.5 28.5t0.5 35v68h30v-68z" />
    <glyph glyph-name="dagger" unicode="&#x2020;" horiz-adv-x="558" 
d="M445 450h-152v-541h-27v541h-153v26h152v191h27v-191h153v-26z" />
    <glyph glyph-name="daggerdbl" unicode="&#x2021;" horiz-adv-x="557" 
d="M445 209h-152v-300h-27v300h-153v26h153v215h-153v26h152v191h27v-191h153v-26h-153v-215h153v-26z" />
    <glyph glyph-name="bullet" unicode="&#x2022;" horiz-adv-x="497" 
d="M325 334q0 -40 -17.5 -57t-58.5 -17t-59 17t-18 57t18 57t59 17t58.5 -17t17.5 -57z" />
    <glyph glyph-name="ellipsis" unicode="&#x2026;" horiz-adv-x="997" 
d="M862 21q0 -28 -29 -28q-30 0 -30 28t29 28q30 0 30 -28zM527 21h1q0 -28 -29 -28q-30 0 -30 28t29 28t29 -28zM193 21h1q0 -28 -29 -28q-30 0 -30 28t29 28t29 -28z" />
    <glyph glyph-name="perthousand" unicode="&#x2030;" horiz-adv-x="1097" 
d="M1057 201q0 -126 -14 -155q-26 -52 -111 -52q-93 0 -115 64q-10 27 -10 143q0 123 15 153q26 52 110 52q94 0 116 -65q9 -28 9 -140zM1030 201q0 117 -11 141q-17 39 -87 39q-76 0 -90 -49q-8 -25 -8 -131q0 -116 12 -143q17 -39 86 -39q77 0 91 49q7 22 7 133zM290 468
q0 -126 -14 -155q-26 -52 -111 -52q-93 0 -115 64q-10 27 -10 143q0 123 15 153q26 52 110 52q94 0 116 -65q9 -28 9 -140zM263 468q0 117 -11 141q-17 39 -87 39q-76 0 -90 -49q-8 -25 -8 -131q0 -116 12 -143q17 -39 86 -39q77 0 91 49q7 22 7 133zM739 201
q0 -126 -14 -155q-26 -52 -111 -52q-93 0 -115 64q-10 27 -10 143q0 123 15 153q26 52 110 52q94 0 116 -65q9 -28 9 -140zM712 201q0 117 -11 141q-17 39 -87 39q-76 0 -90 -49q-8 -25 -8 -131q0 -116 12 -143q17 -39 86 -39q77 0 91 49q7 22 7 133zM572 667l-337 -667h-27
l336 667h28z" />
    <glyph glyph-name="guilsinglleft" unicode="&#x2039;" horiz-adv-x="253" 
d="M196 404l-24 -25q-50 -53 -69 -83t-19 -58q0 -29 18.5 -60t68.5 -81l23 -22l-19 -19l-21 21q-54 54 -75.5 90t-21.5 70q0 33 21.5 69.5t74.5 92.5l23 24z" />
    <glyph glyph-name="guilsinglright" unicode="&#x203a;" horiz-adv-x="253" 
d="M196 237q0 -34 -21.5 -70t-74.5 -90l-21 -21l-20 19l22 22q50 50 69 81t19 60q0 28 -18.5 58t-68.5 83l-25 25l19 19l23 -24q54 -56 75.5 -92.5t21.5 -69.5z" />
    <glyph glyph-name="fraction" unicode="&#x2044;" horiz-adv-x="119" 
d="M242 667l-337 -667h-27l336 667h28z" />
    <glyph glyph-name="zerosuperior" unicode="&#x2070;" 
d="M290 468q0 -126 -14 -155q-26 -52 -111 -52q-93 0 -115 64q-10 27 -10 143q0 123 15 153q26 52 110 52q94 0 116 -65q9 -28 9 -140zM263 468q0 117 -11 141q-17 39 -87 39q-76 0 -90 -49q-8 -25 -8 -131q0 -116 12 -143q17 -39 86 -39q77 0 91 49q7 22 7 133z" />
    <glyph glyph-name="foursuperior" unicode="&#x2074;" 
d="M282 385h-63v-118h-26v118h-178v25l178 257h26v-259h63v-23zM193 408v216l-149 -216h149z" />
    <glyph glyph-name="fivesuperior" unicode="&#x2075;" 
d="M168 261q-62 0 -93 19t-31 64h27q0 -33 23 -45.5t74 -12.5q57 0 79.5 20.5t22.5 78.5q0 63 -19.5 87.5t-82.5 24.5q-39 0 -65 -15.5t-27 -42.5h-26v228h233v-23h-206v-156q29 34 91 34q71 0 99.5 -30.5t28.5 -103.5q0 -69 -28.5 -98t-99.5 -29z" />
    <glyph glyph-name="sixsuperior" unicode="&#x2076;" 
d="M287 390q0 -70 -28.5 -99.5t-96.5 -29.5q-88 0 -111 65q-13 33 -13 123q0 112 6 141q15 83 118 83q120 0 120 -89h-26q0 64 -94 64q-72 0 -88 -50q-9 -27 -9 -130q26 54 97 54q68 0 96.5 -28t28.5 -104zM261 390q0 67 -22.5 87t-76.5 20q-41 0 -68.5 -25.5t-27.5 -78.5
q0 -107 96 -107q55 0 77 23t22 81z" />
    <glyph glyph-name="sevensuperior" unicode="&#x2077;" 
d="M293 646l-177 -379h-31l177 376h-218v24h249v-21z" />
    <glyph glyph-name="eightsuperior" unicode="&#x2078;" 
d="M291 377q0 -66 -29.5 -91t-96.5 -25t-96 24.5t-29 91.5q0 80 49 100q-27 11 -36 31.5t-9 58.5q0 58 27.5 82t93.5 24t94 -24t28 -82q0 -69 -44 -90q48 -22 48 -100zM265 375q0 54 -22 72.5t-78 18.5t-77.5 -17.5t-21.5 -72.5q0 -54 21.5 -72t77.5 -18q55 0 77.5 18
t22.5 71zM261 565q0 47 -20.5 65t-75.5 18t-75 -17.5t-20 -63.5q0 -49 21 -64t74 -15q54 0 75 14t21 63z" />
    <glyph glyph-name="ninesuperior" unicode="&#x2079;" 
d="M43 544q0 70 28.5 99.5t96.5 29.5q88 0 111 -65q13 -33 13 -123q0 -112 -6 -141q-15 -83 -118 -83q-120 0 -120 89h26q0 -64 94 -64q72 0 88 50q9 27 9 130q-26 -54 -97 -54q-68 0 -96.5 28t-28.5 104zM69 544q0 -67 22.5 -87t76.5 -20q41 0 68.5 25.5t27.5 78.5
q0 107 -96 107q-55 0 -77 -23t-22 -81z" />
    <glyph glyph-name="parenleftsuperior" unicode="&#x207d;" horiz-adv-x="187" 
d="M69 460q0 140 19 210q12 36 30 51t66 16v-27q-24 0 -38.5 -7.5t-19 -15t-9.5 -20.5q-19 -53 -19 -207t19 -207q5 -13 9.5 -20.5t19 -15t38.5 -7.5v-27q-48 1 -66 16t-30 51q-19 70 -19 210z" />
    <glyph glyph-name="parenrightsuperior" unicode="&#x207e;" horiz-adv-x="187" 
d="M118 460q0 -140 -19 -210q-12 -36 -30 -51t-66 -16v27q24 0 38.5 7.5t19 15t9.5 20.5q19 53 19 207t-19 207q-5 13 -9.5 20.5t-19 15t-38.5 7.5v27q48 -1 66 -16t30 -51q19 -70 19 -210z" />
    <glyph glyph-name="zeroinferior" unicode="&#x2080;" 
d="M290 201q0 -126 -14 -155q-26 -52 -111 -52q-93 0 -115 64q-10 28 -10 143q0 123 15 153q26 52 110 52q94 0 116 -65q9 -28 9 -140zM263 201q0 117 -11 141q-17 39 -87 39q-76 0 -90 -49q-8 -25 -8 -131q0 -116 12 -143q17 -39 86 -39q77 0 91 49q7 22 7 133z" />
    <glyph glyph-name="oneinferior" unicode="&#x2081;" 
d="M272 0h-211v24h92v343l-75 -71l-17 17l92 87h27v-376h92v-24z" />
    <glyph glyph-name="twoinferior" unicode="&#x2082;" 
d="M287 295q0 -58 -30 -85q-23 -22 -99 -41q-53 -15 -69 -26q-19 -14 -19 -67v-51h216v-25h-243v87q0 39 14 60q13 18 37 28q19 7 57 18q36 10 37 11q39 12 56 31.5t17 59.5q0 34 -10 53q-17 33 -86 33q-50 0 -73.5 -13.5t-23.5 -46.5h-26q0 46 30.5 65.5t91.5 19.5
q63 0 92 -23q31 -24 31 -88z" />
    <glyph glyph-name="threeinferior" unicode="&#x2083;" 
d="M295 107q0 -58 -27 -85q-28 -28 -101 -28q-62 0 -92.5 19.5t-30.5 65.5h27q0 -33 23 -46.5t73 -13.5q65 0 84 20q18 18 18 67q0 60 -24 78q-21 17 -76 17h-58v24h58q53 0 76 17q20 14 20 60t-20 62.5t-76 16.5q-50 0 -73 -13.5t-23 -46.5h-26q0 85 122 85
q67 0 94.5 -22.5t27.5 -79.5t-26 -77q-11 -10 -27 -14q57 -19 57 -106z" />
    <glyph glyph-name="fourinferior" unicode="&#x2084;" 
d="M282 118h-63v-118h-26v118h-178v25l178 257h26v-259h63v-23zM193 141v216l-149 -216h149z" />
    <glyph glyph-name="fiveinferior" unicode="&#x2085;" 
d="M168 -6q-62 0 -93 19t-31 64h27q0 -33 23 -45.5t74 -12.5q57 0 79.5 20.5t22.5 78.5q0 63 -19.5 87.5t-82.5 24.5q-39 0 -65 -15.5t-27 -42.5h-26v228h233v-23h-206v-156q29 34 91 34q71 0 99.5 -30.5t28.5 -103.5q0 -69 -28.5 -98t-99.5 -29z" />
    <glyph glyph-name="sixinferior" unicode="&#x2086;" 
d="M287 123q0 -70 -28.5 -99.5t-96.5 -29.5q-88 0 -111 65q-13 33 -13 123q0 112 6 141q15 83 118 83q120 0 120 -89h-26q0 64 -94 64q-72 0 -88 -50q-9 -27 -9 -130q26 54 97 54q68 0 96.5 -28t28.5 -104zM261 123q0 67 -22.5 87t-76.5 20q-41 0 -68.5 -25.5t-27.5 -78.5
q0 -107 96 -107q55 0 77 23t22 81z" />
    <glyph glyph-name="seveninferior" unicode="&#x2087;" 
d="M293 379l-177 -379h-31l177 376h-218v24h249v-21z" />
    <glyph glyph-name="eightinferior" unicode="&#x2088;" 
d="M291 110q0 -66 -29.5 -91t-96.5 -25t-96 24.5t-29 91.5q0 80 49 100q-27 11 -36 31.5t-9 58.5q0 58 27.5 82t93.5 24t94 -24t28 -82q0 -69 -44 -90q48 -22 48 -100zM265 108q0 54 -22 72.5t-78 18.5t-77.5 -17.5t-21.5 -72.5q0 -54 21.5 -72t77.5 -18q55 0 77.5 18
t22.5 71zM261 298q0 47 -20.5 65t-75.5 18t-75 -17.5t-20 -63.5q0 -49 21 -64t74 -15q54 0 75 14t21 63z" />
    <glyph glyph-name="nineinferior" unicode="&#x2089;" 
d="M43 277q0 70 28.5 99.5t96.5 29.5q88 0 111 -65q13 -33 13 -123q0 -112 -6 -141q-15 -83 -118 -83q-120 0 -120 89h26q0 -64 94 -64q72 0 88 50q9 27 9 130q-26 -54 -97 -54q-68 0 -96.5 28t-28.5 104zM69 277q0 -67 22.5 -87t76.5 -20q41 0 68.5 25.5t27.5 78.5
q0 107 -96 107q-55 0 -77 -23t-22 -81z" />
    <glyph glyph-name="parenleftinferior" unicode="&#x208d;" horiz-adv-x="214" 
d="M96 193q0 140 19 210q12 36 30 51t66 16v-27q-24 0 -38.5 -7.5t-19 -15t-9.5 -20.5q-19 -53 -19 -207t19 -207q5 -13 9.5 -20.5t19 -15t38.5 -7.5v-27q-48 1 -66 16t-30 51q-19 70 -19 210z" />
    <glyph glyph-name="parenrightinferior" unicode="&#x208e;" horiz-adv-x="187" 
d="M118 193q0 -140 -19 -210q-12 -36 -30 -51t-66 -16v27q24 0 38.5 7.5t19 15t9.5 20.5q19 53 19 207t-19 207q-5 13 -9.5 20.5t-19 15t-38.5 7.5v27q48 -1 66 -16t30 -51q19 -70 19 -210z" />
    <glyph glyph-name="franc" unicode="&#x20a3;" horiz-adv-x="934" 
d="M486 640h-356v-284h346v-26h-346v-330h-29v667h385v-27zM888 230h-26q0 50 -24 75q-27 31 -96 31t-107 -38q-21 -21 -31 -57t-11.5 -62.5t-1.5 -75.5v-17v-86h-28v356h27v-85q40 92 150 92q83 0 116 -37q33 -36 32 -96z" />
    <glyph glyph-name="lira" unicode="&#x20a4;" horiz-adv-x="557" 
d="M505 0h-439v27h58v184h-58v26h58v84h-58v26h58v117v21v21.5t0.5 19t1.5 20.5t2.5 17.5t4 18l6 15.5t9 16t11.5 13q50 48 152 48q33 0 56 -2t49.5 -9.5t42.5 -21t26.5 -39t10.5 -60.5h-27q0 63 -39 84t-108 21q-101 0 -143 -42q-14 -14 -20.5 -40t-7 -41.5t-0.5 -56.5
v-120h299v-26h-299v-84h299v-26h-299v-184h354v-27z" />
    <glyph glyph-name="peseta" unicode="&#x20a7;" horiz-adv-x="1546" 
d="M548 491q0 -92 -37 -129q-31 -31 -67.5 -37.5t-130.5 -6.5h-183v-318h-29v667h212q94 0 130.5 -6.5t67.5 -37.5q37 -37 37 -132zM520 494q0 80 -31 111q-24 24 -56.5 29.5t-126.5 5.5h-176v-295h176q94 0 126.5 5.5t56.5 29.5q31 31 31 114zM1018 126q0 -71 -37.5 -102
t-110.5 -31q-78 0 -112 37q-32 35 -32 96v324h-82v26h82v191h28v-191h223v-26h-223v-324q0 -51 23 -75q29 -31 95 -31q60 0 90 24t30 82h26zM1481 131q0 -74 -44.5 -106.5t-144.5 -31.5q-103 1 -141 28t-38 105h27q0 -65 30.5 -85.5t120.5 -21.5q84 -1 123 24t39 80
q1 46 -12 68.5t-49 29.5q-28 5 -131 8q-86 3 -116 32q-27 27 -25 87q2 75 45 105.5t143 29.5q102 -1 141 -40q30 -29 30 -93h-27q0 56 -31 81t-112 25q-85 0 -123 -22.5t-39 -77.5q-1 -47 12.5 -68t49.5 -28q12 -2 115 -6q35 -1 54.5 -3t42 -9t34 -19.5t19 -35.5t7.5 -56z
" />
    <glyph glyph-name="Euro" unicode="&#x20ac;" horiz-adv-x="557" 
d="M501 125q0 -132 -182 -132q-146 0 -180 106q-15 44 -15 166h-58v26h58v86h-58v26h57q0 135 23 185q42 86 172 86q111 0 154 -48q29 -31 29 -84h-27q0 41 -23 66q-41 39 -132 39q-68 0 -104 -21.5t-50 -69.5q-14 -44 -14 -153h183v-26h-183v-86h183v-26h-183
q0 -125 19 -172q17 -38 52 -55.5t96 -17.5q155 0 155 105h28z" />
    <glyph glyph-name="afii61289" unicode="&#x2113;" horiz-adv-x="500" 
d="M249 269q-33 -171 -33 -208q0 -25 18 -25q26 0 51 54q8 18 19 18q13 0 13 -15q0 -23 -26 -60q-37 -47 -76 -47q-31 0 -49 23.5t-18 64.5q0 36 10 127q-41 -38 -49 -38q-5 0 -9.5 5t-4.5 11q0 10 20 27q23 20 50 52q41 216 89 318t108 102q29 0 46 -22t17 -59
q0 -87 -64 -192q-36 -58 -112 -136zM260 333q125 140 125 260q0 44 -23 44q-11 0 -22.5 -12.5t-18.5 -31.5q-31 -86 -61 -260z" />
    <glyph glyph-name="afii61352" unicode="&#x2116;" horiz-adv-x="1022" 
d="M959 318q0 -45 -4.5 -71.5t-18.5 -50.5t-43.5 -34t-76.5 -10q-48 0 -77 10t-43.5 34t-18.5 50.5t-4 71.5q0 89 26 126t117 37q47 0 76.5 -10t43.5 -33t18.5 -49.5t4.5 -70.5zM931 318q0 81 -19.5 109t-95.5 28q-77 0 -97 -28.5t-20 -108.5q0 -81 20 -110.5t97 -29.5
q76 0 95.5 29.5t19.5 110.5zM948 0h-265v26h265v-26zM545 0h-44l-372 637v-637h-28v667h43l373 -637v637h28v-667z" />
    <glyph glyph-name="trademark" unicode="&#x2122;" horiz-adv-x="843" 
d="M726 234h-25v413l-142 -413h-39l-140 413v-413h-27v433h46l140 -412l142 412h45v-433zM313 644h-137v-410h-28v410h-139v23h304v-23z" />
    <glyph glyph-name="uni2126" unicode="&#x2126;" horiz-adv-x="660" 
d="M398 0v26q84 10 115 58q20 30 26.5 76.5t6.5 172.5q0 125 -6.5 172.5t-26.5 77.5q-43 64 -183 64q-139 0 -183 -64q-20 -31 -26.5 -79t-6.5 -172q0 -123 6.5 -170t26.5 -78q32 -48 115 -58v-26h-177v26h90q-35 13 -55 47q-20 32 -27.5 85.5t-7.5 174.5q0 120 7.5 174.5
t27.5 86.5q54 80 210 80q159 0 210 -80q21 -31 28 -85t7 -176t-7 -175.5t-28 -84.5q-24 -37 -55 -47h90v-26h-177z" />
    <glyph glyph-name="estimated" unicode="&#x212e;" horiz-adv-x="798" 
d="M769 311h-599q-6 0 -6 -4v-181q0 -10 9 -21q93 -98 227 -98q70 0 131.5 29.5t106.5 80.5h54q-51 -60 -128.5 -95t-164.5 -35q-153 0 -261.5 97.5t-108.5 235.5q0 137 108.5 234.5t261.5 97.5t261.5 -97.5t108.5 -234.5v-9zM634 335v181q0 12 -10 22q-92 94 -224 94
t-226 -97q-10 -10 -10 -23v-177q0 -5 6 -5h459q5 0 5 5z" />
    <glyph glyph-name="onethird" unicode="&#x2153;" horiz-adv-x="779" 
d="M744 107q0 -58 -27 -85q-28 -28 -101 -28q-62 0 -92.5 19.5t-30.5 65.5h27q0 -33 23 -46.5t73 -13.5q65 0 84 20q18 18 18 67q0 60 -24 78q-21 17 -76 17h-58v24h58q53 0 76 17q20 14 20 60t-20 62.5t-76 16.5q-50 0 -73 -13.5t-23 -46.5h-26q0 85 122 85
q67 0 94.5 -22.5t27.5 -79.5t-26 -77q-11 -10 -27 -14q57 -19 57 -106zM572 667l-337 -667h-27l336 667h28zM272 267h-211v24h92v343l-75 -71l-17 17l92 87h27v-376h92v-24z" />
    <glyph glyph-name="twothirds" unicode="&#x2154;" horiz-adv-x="779" 
d="M287 562q0 -58 -30 -85q-23 -22 -99 -41q-53 -15 -69 -26q-19 -14 -19 -67v-51h216v-25h-243v87q0 39 14 60q13 18 37 28q19 7 57 18q36 10 37 11q39 12 56 31.5t17 59.5q0 34 -10 53q-17 33 -86 33q-50 0 -73.5 -13.5t-23.5 -46.5h-26q0 46 30.5 65.5t91.5 19.5
q63 0 92 -23q31 -24 31 -88zM572 667l-337 -667h-27l336 667h28zM744 107q0 -58 -27 -85q-28 -28 -101 -28q-62 0 -92.5 19.5t-30.5 65.5h27q0 -33 23 -46.5t73 -13.5q65 0 84 20q18 18 18 67q0 60 -24 78q-21 17 -76 17h-58v24h58q53 0 76 17q20 14 20 60t-20 62.5
t-76 16.5q-50 0 -73 -13.5t-23 -46.5h-26q0 85 122 85q67 0 94.5 -22.5t27.5 -79.5t-26 -77q-11 -10 -27 -14q57 -19 57 -106z" />
    <glyph glyph-name="oneeighth" unicode="&#x215b;" horiz-adv-x="779" 
d="M740 110q0 -66 -29.5 -91t-96.5 -25t-96 24.5t-29 91.5q0 80 49 100q-27 11 -36 31.5t-9 58.5q0 58 27.5 82t93.5 24t94 -24t28 -82q0 -69 -44 -90q48 -22 48 -100zM714 108q0 54 -22 72.5t-78 18.5t-77.5 -17.5t-21.5 -72.5q0 -54 21.5 -72t77.5 -18q55 0 77.5 18
t22.5 71zM710 298q0 47 -20.5 65t-75.5 18t-75 -17.5t-20 -63.5q0 -49 21 -64t74 -15q54 0 75 14t21 63zM572 667l-337 -667h-27l336 667h28zM272 267h-211v24h92v343l-75 -71l-17 17l92 87h27v-376h92v-24z" />
    <glyph glyph-name="threeeighths" unicode="&#x215c;" horiz-adv-x="779" 
d="M572 667l-337 -667h-27l336 667h28zM295 374q0 -58 -27 -85q-28 -28 -101 -28q-62 0 -92.5 19.5t-30.5 65.5h27q0 -33 23 -46.5t73 -13.5q65 0 84 20q18 18 18 67q0 60 -24 78q-21 17 -76 17h-58v24h58q53 0 76 17q20 14 20 60t-20 62.5t-76 16.5q-50 0 -73 -13.5
t-23 -46.5h-26q0 85 122 85q67 0 94.5 -22.5t27.5 -79.5t-26 -77q-11 -10 -27 -14q57 -19 57 -106zM740 110q0 -66 -29.5 -91t-96.5 -25t-96 24.5t-29 91.5q0 80 49 100q-27 11 -36 31.5t-9 58.5q0 58 27.5 82t93.5 24t94 -24t28 -82q0 -69 -44 -90q48 -22 48 -100zM714 108
q0 54 -22 72.5t-78 18.5t-77.5 -17.5t-21.5 -72.5q0 -54 21.5 -72t77.5 -18q55 0 77.5 18t22.5 71zM710 298q0 47 -20.5 65t-75.5 18t-75 -17.5t-20 -63.5q0 -49 21 -64t74 -15q54 0 75 14t21 63z" />
    <glyph glyph-name="fiveeighths" unicode="&#x215d;" horiz-adv-x="779" 
d="M572 667l-337 -667h-27l336 667h28zM168 261q71 0 99.5 29t28.5 98q0 73 -28.5 103.5t-99.5 30.5q-62 0 -91 -34v156h206v23h-233v-228h26q1 27 27 42.5t65 15.5q63 0 82.5 -24.5t19.5 -87.5q0 -58 -22.5 -78.5t-79.5 -20.5q-51 0 -74 12.5t-23 45.5h-27q0 -45 31 -64
t93 -19zM740 110q0 -66 -29.5 -91t-96.5 -25t-96 24.5t-29 91.5q0 80 49 100q-27 11 -36 31.5t-9 58.5q0 58 27.5 82t93.5 24t94 -24t28 -82q0 -69 -44 -90q48 -22 48 -100zM714 108q0 54 -22 72.5t-78 18.5t-77.5 -17.5t-21.5 -72.5q0 -54 21.5 -72t77.5 -18q55 0 77.5 18
t22.5 71zM710 298q0 47 -20.5 65t-75.5 18t-75 -17.5t-20 -63.5q0 -49 21 -64t74 -15q54 0 75 14t21 63z" />
    <glyph glyph-name="seveneighths" unicode="&#x215e;" horiz-adv-x="779" 
d="M293 646l-177 -379h-31l177 376h-218v24h249v-21zM572 667l-337 -667h-27l336 667h28zM740 110q0 -66 -29.5 -91t-96.5 -25t-96 24.5t-29 91.5q0 80 49 100q-27 11 -36 31.5t-9 58.5q0 58 27.5 82t93.5 24t94 -24t28 -82q0 -69 -44 -90q48 -22 48 -100zM714 108
q0 54 -22 72.5t-78 18.5t-77.5 -17.5t-21.5 -72.5q0 -54 21.5 -72t77.5 -18q55 0 77.5 18t22.5 71zM710 298q0 47 -20.5 65t-75.5 18t-75 -17.5t-20 -63.5q0 -49 21 -64t74 -15q54 0 75 14t21 63z" />
    <glyph glyph-name="arrowleft" unicode="&#x2190;" horiz-adv-x="715" 
d="M681 310h-599l294 -291l-18 -18l-324 323l323 322l19 -18l-294 -291h599v-27z" />
    <glyph glyph-name="arrowup" unicode="&#x2191;" horiz-adv-x="715" 
d="M681 323l-18 -18l-291 293v-598h-28l2 598l-292 -293l-19 18l322 323z" />
    <glyph glyph-name="arrowright" unicode="&#x2192;" horiz-adv-x="715" 
d="M681 324l-323 -323l-19 18l294 291h-599v27h599l-294 291l18 18z" />
    <glyph glyph-name="arrowdown" unicode="&#x2193;" horiz-adv-x="715" 
d="M681 323l-322 -323l-324 323l18 18l291 -293v598h27v-598l291 293z" />
    <glyph glyph-name="uni2196" unicode="&#x2196;" horiz-adv-x="715" 
d="M591 220l-19 -19l-422 424v-414h-27v456h458v-25l-414 1z" />
    <glyph glyph-name="uni2197" unicode="&#x2197;" horiz-adv-x="715" 
d="M592 667l-1 -456h-25v414l-422 -424l-20 19l424 423l-414 -1v25h458z" />
    <glyph glyph-name="uni2198" unicode="&#x2198;" horiz-adv-x="715" 
d="M591 0h-458v25h415l-424 423l19 19l424 -423l-2 413h26v-457z" />
    <glyph glyph-name="uni2199" unicode="&#x2199;" horiz-adv-x="715" 
d="M591 447l-424 -423l414 1v-25h-457v456h26l-2 -413l422 423z" />
    <glyph glyph-name="partialdiff" unicode="&#x2202;" horiz-adv-x="544" 
d="M137 703l238 -238q55 -55 70.5 -96t16.5 -131q1 -83 -8.5 -125.5t-33.5 -68.5q-45 -51 -154 -51q-108 0 -155 51q-23 26 -32.5 68t-9.5 125q0 126 27 177q19 34 59.5 52t94.5 17q43 0 81 -10l-212 212zM434 238q0 119 -41.5 168.5t-142.5 49.5q-88 0 -123 -46
q-30 -43 -30 -173q0 -77 7.5 -114.5t26.5 -59.5q40 -43 135 -43q96 0 134 43q19 22 26.5 59.5t7.5 115.5z" />
    <glyph glyph-name="uni2206" unicode="&#x2206;" horiz-adv-x="601" 
d="M571 0h-541l257 667h26zM300 632l-232 -606h464z" />
    <glyph glyph-name="product" unicode="&#x220f;" horiz-adv-x="645" 
d="M544 0h-29v641h-388v-641h-29v641h-81v26h610v-26h-83v-641z" />
    <glyph glyph-name="summation" unicode="&#x2211;" horiz-adv-x="511" 
d="M483 27v-27h-444v27l263 317l-263 297v26h444v-26h-408l262 -297l-262 -317h408z" />
    <glyph glyph-name="minus" unicode="&#x2212;" horiz-adv-x="557" 
d="M516 226h-476v26h476v-26z" />
    <glyph glyph-name="radical" unicode="&#x221a;" horiz-adv-x="707" 
d="M699 801h-241l-217 -801h-39l-102 329h-92v26h112l101 -329l217 801h261v-26z" />
    <glyph glyph-name="infinity" unicode="&#x221e;" horiz-adv-x="572" 
d="M267 236q-40 55 -61 70.5t-55 15.5q-39 0 -58.5 -17t-19.5 -68q0 -50 21 -66.5t57 -16.5q35 0 58 19t58 63zM284 216q-36 -47 -64.5 -66.5t-68.5 -19.5q-47 0 -75.5 21.5t-28.5 85.5t27 86.5t77 22.5q40 0 68 -19.5t64 -72.5q37 48 67.5 70t69.5 22q47 0 75.5 -21.5
t28.5 -85.5t-27 -86.5t-77 -22.5q-43 0 -72.5 17.5t-63.5 68.5zM300 234q39 -53 61.5 -67t58.5 -13q40 1 59 17.5t19 67.5q0 50 -21 66.5t-57 16.5q-24 0 -46.5 -14t-35.5 -28t-38 -46z" />
    <glyph glyph-name="integral" unicode="&#x222b;" horiz-adv-x="413" 
d="M84 -61v632q0 63 33 96q38 37 121 37q91 0 127 -36q31 -30 31 -76h-26q0 34 -22 55q-30 30 -108 30q-73 0 -105 -31q-23 -23 -23 -75v-632q0 -63 -33 -96q-38 -37 -121 -37q-91 0 -127 36q-31 30 -31 76h26q0 -34 22 -55q30 -30 108 -30q73 0 105 31q23 23 23 75z" />
    <glyph glyph-name="approxequal" unicode="&#x2248;" horiz-adv-x="557" 
d="M521 361l-74 -55q-32 -24 -73.5 -25t-72.5 22l-57 40q-62 42 -122 -2l-71 -51l-16 20l75 54q33 24 73.5 25t72.5 -21l58 -41q61 -42 121 2l71 52zM521 167l-74 -55q-32 -24 -73.5 -25t-72.5 22l-57 40q-62 42 -122 -2l-71 -51l-16 20l75 54q33 24 73.5 25t72.5 -21
l58 -41q61 -42 121 2l71 52z" />
    <glyph glyph-name="notequal" unicode="&#x2260;" horiz-adv-x="557" 
d="M517 129h-329l-130 -130l-17 20l110 110h-111v26h137l169 168h-306v26h332l128 127l17 -19l-109 -108h109v-26h-135l-168 -168h303v-26z" />
    <glyph glyph-name="lessequal" unicode="&#x2264;" horiz-adv-x="557" 
d="M517 106l-12 -24l-465 198v26l464 196l13 -24l-442 -185zM517 0h-477v26h477v-26z" />
    <glyph glyph-name="greaterequal" unicode="&#x2265;" horiz-adv-x="557" 
d="M517 280l-464 -198l-13 24l442 187l-442 185l12 24l465 -196v-26zM517 0h-477v26h477v-26z" />
    <glyph glyph-name="lozenge" unicode="&#x25ca;" horiz-adv-x="605" 
d="M287 667h34l239 -333l-239 -334h-34l-239 334zM304 647l-225 -313l225 -314l225 314z" />
    <glyph glyph-name="Euro.fitted" unicode="&#xe002;" horiz-adv-x="545" 
d="M495 125q0 -132 -182 -132q-146 0 -180 106q-15 44 -15 166h-58v26h58v86h-58v26h57q0 135 23 185q42 86 172 86q111 0 154 -48q29 -31 29 -84h-27q0 41 -23 66q-41 39 -132 39q-68 0 -104 -21.5t-50 -69.5q-14 -44 -14 -153h183v-26h-183v-86h183v-26h-183
q0 -125 19 -172q17 -38 52 -55.5t96 -17.5q155 0 155 105h28z" />
    <glyph glyph-name="Dotaccent" unicode="&#xefed;" horiz-adv-x="411" 
d="M234 830q0 -26 -26 -26t-26 26q0 25 26 25t26 -25z" />
    <glyph glyph-name="Breve" unicode="&#xefee;" horiz-adv-x="410" 
d="M341 858h-1q0 -80 -29 -109q-29 -28 -105 -28q-77 0 -105 28q-29 28 -31 109h27q0 -70 19 -90q24 -22 89 -22q67 0 89 22q20 20 20 90h27z" />
    <glyph glyph-name="Ogonek" unicode="&#xeff1;" horiz-adv-x="410" 
d="M222 8l33 -8q-48 -24 -67 -46.5t-19 -54.5q0 -64 61 -64q20 0 38 2v-24q-12 -3 -39 -3q-41 0 -64.5 21.5t-23.5 64.5q0 32 14.5 55.5t28.5 33.5t38 23z" />
    <glyph glyph-name="Cedilla" unicode="&#xeff2;" horiz-adv-x="409" 
d="M275 -113h-1q0 -39 -15.5 -55.5t-55.5 -16.5t-56.5 13t-16.5 43h26q0 -20 10.5 -26t35.5 -6q28 0 37 10.5t8 36.5q0 12 -3 20.5t-5.5 13t-11 7t-12 3t-16.5 1t-17 0.5v69h27v-46q66 0 66 -67z" />
    <glyph glyph-name="Tilde" unicode="&#xeff5;" horiz-adv-x="410" 
d="M393 837l-57 -39q-60 -41 -116 -5q-8 5 -41 28q-47 29 -90 -2l-57 -39l-15 19l57 39q59 41 116 4q28 -18 41 -27q48 -29 90 1l57 39z" />
    <glyph glyph-name="Circumflex" unicode="&#xeff7;" horiz-adv-x="410" 
d="M358 726h-36l-114 117l-118 -117h-37l132 132h40z" />
    <glyph glyph-name="parenleft.dnom" unicode="&#xf62c;" horiz-adv-x="187" 
d="M69 193q0 140 19 210q12 36 30 51t66 16v-27q-24 0 -38.5 -7.5t-19 -15t-9.5 -20.5q-19 -53 -19 -207t19 -207q5 -13 9.5 -20.5t19 -15t38.5 -7.5v-27q-48 1 -66 16t-30 51q-19 70 -19 210z" />
    <glyph glyph-name="parenright.dnom" unicode="&#xf62d;" horiz-adv-x="187" 
d="M118 193q0 -140 -19 -210q-12 -36 -30 -51t-66 -16v27q24 0 38.5 7.5t19 15t9.5 20.5q19 53 19 207t-19 207q-5 13 -9.5 20.5t-19 15t-38.5 7.5v27q48 -1 66 -16t30 -51q19 -70 19 -210z" />
    <glyph glyph-name="parenleft.numr" unicode="&#xf631;" horiz-adv-x="187" 
d="M69 460q0 140 19 210q12 36 30 51t66 16v-27q-24 0 -38.5 -7.5t-19 -15t-9.5 -20.5q-19 -53 -19 -207t19 -207q5 -13 9.5 -20.5t19 -15t38.5 -7.5v-27q-48 1 -66 16t-30 51q-19 70 -19 210z" />
    <glyph glyph-name="parenright.numr" unicode="&#xf632;" horiz-adv-x="187" 
d="M118 460q0 -140 -19 -210q-12 -36 -30 -51t-66 -16v27q24 0 38.5 7.5t19 15t9.5 20.5q19 53 19 207t-19 207q-5 13 -9.5 20.5t-19 15t-38.5 7.5v27q48 -1 66 -16t30 -51q19 -70 19 -210z" />
    <glyph glyph-name="zero.fitted" unicode="&#xf639;" horiz-adv-x="545" 
d="M468 333q0 -188 -16 -234q-34 -106 -180 -106q-145 0 -180 106q-16 49 -16 234q0 126 5 175.5t19 79.5q41 86 172 86t172 -86q14 -30 19 -79.5t5 -175.5zM440 333q0 180 -14 223q-13 48 -49.5 69.5t-104.5 21.5q-67 0 -103.5 -21.5t-50.5 -69.5t-14 -223q0 -191 20 -240
q17 -38 52 -55.5t96 -17.5q117 0 148 73q20 46 20 240z" />
    <glyph glyph-name="two.fitted" unicode="&#xf63a;" horiz-adv-x="545" 
d="M469 492q0 -92 -46 -135q-32 -32 -138.5 -63t-133.5 -52q-16 -13 -24 -37t-8.5 -37.5t-0.5 -45.5v-95h349v-27h-378v141q0 42 6.5 68.5t29.5 48.5q25 23 83 40.5l115.5 36t82.5 45.5q35 36 35 112q0 63 -16 94q-28 61 -146 61q-83 0 -123.5 -24t-40.5 -81h-27
q0 70 47 101t142 31q98 0 144 -38q48 -39 48 -144z" />
    <glyph glyph-name="three.fitted" unicode="&#xf63b;" horiz-adv-x="545" 
d="M463 178q0 -96 -41 -140q-42 -45 -160 -45q-96 0 -142.5 31t-46.5 101h27q0 -57 39.5 -81t122.5 -24q109 0 141 37q32 36 32 118q0 95 -41 128q-37 30 -127 30h-87v27h87q88 0 127 31q35 27 35 113q0 82 -34.5 112.5t-127.5 30.5q-83 0 -122 -24t-39 -81h-27q0 70 46 101
t142 31q105 0 147.5 -37t42.5 -130q0 -97 -40 -130q-28 -23 -71 -30q61 -9 89 -49t28 -120z" />
    <glyph glyph-name="four.fitted" unicode="&#xf63c;" horiz-adv-x="545" 
d="M482 206h-98v-206h-28v206h-301v26l296 435h33v-435h98v-26zM356 232v397l-269 -397h269z" />
    <glyph glyph-name="five.fitted" unicode="&#xf63d;" horiz-adv-x="545" 
d="M466 200q0 -115 -45 -160q-46 -47 -152 -47q-96 0 -141 30.5t-45 101.5h27q0 -57 38 -81t121 -24q96 0 132.5 38t36.5 138q0 108 -30 144q-36 45 -128 45q-150 0 -160 -93h-25v375h349v-27h-323v-288q42 60 161 60q108 0 148 -54q36 -46 36 -158z" />
    <glyph glyph-name="six.fitted" unicode="&#xf63e;" horiz-adv-x="545" 
d="M470 201q0 -109 -45.5 -158.5t-145.5 -49.5q-141 0 -178 106q-21 57 -21 205q0 168 13 240q11 67 57 98.5t132 31.5q179 0 179 -132h-27q0 105 -151 105q-70 0 -107 -21.5t-51 -70.5q-17 -58 -17 -224v-23q43 104 175 104q102 0 144.5 -48t42.5 -163zM443 200
q0 103 -34 144t-120 41q-176 0 -176 -180q0 -96 40 -140.5t126 -44.5q89 0 126.5 41.5t37.5 138.5z" />
    <glyph glyph-name="seven.fitted" unicode="&#xf63f;" horiz-adv-x="545" 
d="M463 640l-288 -640h-30l288 640h-353v27h383v-27z" />
    <glyph glyph-name="eight.fitted" unicode="&#xf640;" horiz-adv-x="545" 
d="M470 178q0 -96 -41 -140q-44 -45 -155 -45q-63 0 -98.5 10t-57.5 35q-42 44 -42 140q0 79 29 119.5t90 49.5q-45 7 -72 30q-41 34 -41 130q0 93 43 130t148 37t148 -37t43 -130q0 -96 -40 -130q-30 -23 -72 -30q61 -9 89.5 -49t28.5 -120zM435 504h1q0 82 -34.5 112.5
t-127.5 30.5t-128.5 -30.5t-35.5 -110.5q0 -86 36 -115q41 -31 127 -31q88 0 127 31q35 27 35 113zM442 175q0 94 -41 128q-38 30 -127 30q-91 0 -128 -30q-42 -35 -42 -127q0 -82 32 -119q19 -21 49 -29t88 -8t88.5 8.5t47.5 28.5q33 38 33 118z" />
    <glyph glyph-name="nine.fitted" unicode="&#xf641;" horiz-adv-x="545" 
d="M465 363q0 -168 -13 -240q-11 -67 -57 -98.5t-132 -31.5q-179 0 -179 132h27q0 -105 151 -105q70 0 107 21.5t51 70.5q17 55 17 224v23q-43 -104 -175 -104q-102 0 -144.5 48t-42.5 163q0 109 45.5 158.5t145.5 49.5q141 0 178 -106q21 -57 21 -205zM432 462
q0 96 -40 140.5t-126 44.5q-89 0 -126.5 -41.5t-37.5 -138.5q0 -103 34 -144t120 -41q176 0 176 180z" />
    <glyph glyph-name="zero.taboldstyle" unicode="&#xf643;" horiz-adv-x="545" 
d="M468 333q0 -188 -16 -234q-34 -106 -180 -106q-145 0 -180 106q-16 49 -16 234q0 126 5 175.5t19 79.5q41 86 172 86t172 -86q14 -30 19 -79.5t5 -175.5zM440 333q0 180 -14 223q-13 48 -49.5 69.5t-104.5 21.5q-67 0 -103.5 -21.5t-50.5 -69.5t-14 -223q0 -191 20 -240
q17 -38 52 -55.5t96 -17.5q117 0 148 73q20 46 20 240z" />
    <glyph glyph-name="one.taboldstyle" unicode="&#xf644;" horiz-adv-x="545" 
d="M466 0h-352v26h162v608l-144 -130l-18 18l162 145h28v-641h162v-26z" />
    <glyph glyph-name="two.taboldstyle" unicode="&#xf645;" horiz-adv-x="545" 
d="M469 492q0 -92 -46 -135q-32 -32 -138.5 -63t-133.5 -52q-16 -13 -24 -37t-8.5 -37.5t-0.5 -45.5v-95h349v-27h-378v141q0 42 6.5 68.5t29.5 48.5q25 23 83 40.5l115.5 36t82.5 45.5q35 36 35 112q0 63 -16 94q-28 61 -146 61q-83 0 -123.5 -24t-40.5 -81h-27
q0 70 47 101t142 31q98 0 144 -38q48 -39 48 -144z" />
    <glyph glyph-name="three.taboldstyle" unicode="&#xf646;" horiz-adv-x="545" 
d="M463 178q0 -96 -41 -140q-42 -45 -160 -45q-96 0 -142.5 31t-46.5 101h27q0 -57 39.5 -81t122.5 -24q109 0 141 37q32 36 32 118q0 95 -41 128q-37 30 -127 30h-87v27h87q88 0 127 31q35 27 35 113q0 82 -34.5 112.5t-127.5 30.5q-83 0 -122 -24t-39 -81h-27q0 70 46 101
t142 31q105 0 147.5 -37t42.5 -130q0 -97 -40 -130q-28 -23 -71 -30q61 -9 89 -49t28 -120z" />
    <glyph glyph-name="four.taboldstyle" unicode="&#xf647;" horiz-adv-x="545" 
d="M482 206h-98v-206h-28v206h-301v26l296 435h33v-435h98v-26zM356 232v397l-269 -397h269z" />
    <glyph glyph-name="five.taboldstyle" unicode="&#xf648;" horiz-adv-x="545" 
d="M466 200q0 -115 -45 -160q-46 -47 -152 -47q-96 0 -141 30.5t-45 101.5h27q0 -57 38 -81t121 -24q96 0 132.5 38t36.5 138q0 108 -30 144q-36 45 -128 45q-150 0 -160 -93h-25v375h349v-27h-323v-288q42 60 161 60q108 0 148 -54q36 -46 36 -158z" />
    <glyph glyph-name="six.taboldstyle" unicode="&#xf649;" horiz-adv-x="545" 
d="M470 201q0 -109 -45.5 -158.5t-145.5 -49.5q-141 0 -178 106q-21 57 -21 205q0 168 13 240q11 67 57 98.5t132 31.5q179 0 179 -132h-27q0 105 -151 105q-70 0 -107 -21.5t-51 -70.5q-17 -58 -17 -224v-23q43 104 175 104q102 0 144.5 -48t42.5 -163zM443 200
q0 103 -34 144t-120 41q-176 0 -176 -180q0 -96 40 -140.5t126 -44.5q89 0 126.5 41.5t37.5 138.5z" />
    <glyph glyph-name="seven.taboldstyle" unicode="&#xf64a;" horiz-adv-x="545" 
d="M463 640l-288 -640h-30l288 640h-353v27h383v-27z" />
    <glyph glyph-name="eight.taboldstyle" unicode="&#xf64b;" horiz-adv-x="545" 
d="M470 178q0 -96 -41 -140q-44 -45 -155 -45q-63 0 -98.5 10t-57.5 35q-42 44 -42 140q0 79 29 119.5t90 49.5q-45 7 -72 30q-41 34 -41 130q0 93 43 130t148 37t148 -37t43 -130q0 -96 -40 -130q-30 -23 -72 -30q61 -9 89.5 -49t28.5 -120zM435 504h1q0 82 -34.5 112.5
t-127.5 30.5t-128.5 -30.5t-35.5 -110.5q0 -86 36 -115q41 -31 127 -31q88 0 127 31q35 27 35 113zM442 175q0 94 -41 128q-38 30 -127 30q-91 0 -128 -30q-42 -35 -42 -127q0 -82 32 -119q19 -21 49 -29t88 -8t88.5 8.5t47.5 28.5q33 38 33 118z" />
    <glyph glyph-name="nine.taboldstyle" unicode="&#xf64c;" horiz-adv-x="545" 
d="M465 363q0 -168 -13 -240q-11 -67 -57 -98.5t-132 -31.5q-179 0 -179 132h27q0 -105 151 -105q70 0 107 21.5t51 70.5q17 55 17 224v23q-43 -104 -175 -104q-102 0 -144.5 48t-42.5 163q0 109 45.5 158.5t145.5 49.5q141 0 178 -106q21 -57 21 -205zM432 462
q0 96 -40 140.5t-126 44.5q-89 0 -126.5 -41.5t-37.5 -138.5q0 -103 34 -144t120 -41q176 0 176 180z" />
    <glyph glyph-name="Euro.taboldstyle" unicode="&#xf64e;" horiz-adv-x="545" 
d="M495 125q0 -132 -182 -132q-146 0 -180 106q-15 44 -15 166h-58v26h58v86h-58v26h57q0 135 23 185q42 86 172 86q111 0 154 -48q29 -31 29 -84h-27q0 41 -23 66q-41 39 -132 39q-68 0 -104 -21.5t-50 -69.5q-14 -44 -14 -153h183v-26h-183v-86h183v-26h-183
q0 -125 19 -172q17 -38 52 -55.5t96 -17.5q155 0 155 105h28z" />
    <glyph glyph-name="florin.taboldstyle" unicode="&#xf64f;" horiz-adv-x="545" 
d="M499 542h-27q0 63 -39 84t-108 21q-101 0 -143 -42q-14 -14 -20.5 -40t-7 -41.5t-0.5 -56.5v-120h299v-26h-298v-512h-28v512h-58v26h58v117v21v21.5t0.5 19t1.5 20.5t2.5 17.5t4 18l6 15.5t9 16t11.5 13q50 48 152 48q33 0 56 -2t49.5 -9.5t42.5 -21t26.5 -39
t10.5 -60.5z" />
    <glyph glyph-name="sterling.taboldstyle" unicode="&#xf651;" horiz-adv-x="545" 
d="M499 0h-439v27h58v294h-58v26h58v117v21v21.5t0.5 19t1.5 20.5t2.5 17.5t4 18l6 15.5t9 16t11.5 13q50 48 152 48q33 0 56 -2t49.5 -9.5t42.5 -21t26.5 -39t10.5 -60.5h-27q0 63 -39 84t-108 21q-101 0 -143 -42q-14 -14 -20.5 -40t-7 -41.5t-0.5 -56.5v-120h299v-26
h-299v-294h354v-27z" />
    <glyph glyph-name="yen.taboldstyle" unicode="&#xf652;" horiz-adv-x="545" 
d="M503 667l-154 -264h98v-25h-112l-50 -86h162v-25h-160v-267h-28v267h-161v25h163l-51 86h-112v25h98l-155 264h32l201 -346l198 346h31z" />
    <glyph glyph-name="dollar.taboldstyle" unicode="&#xf653;" horiz-adv-x="545" 
d="M479 185q0 -97 -46 -141t-148 -44v-99l-28 1v98q-99 0 -145 28.5t-46 95.5h27q0 -55 39 -76.5t125 -21.5v309q-20 1 -35 3q-82 7 -116.5 42.5t-34.5 117.5q0 99 59 139q44 30 127 30v95h28v-95q98 0 142 -28.5t44 -96.5h-27q0 55 -37 76.5t-122 21.5v-280q6 -1 33 -3
t47.5 -4.5t45 -12.5t37.5 -27q31 -40 31 -128zM257 362v278q-85 0 -121.5 -32.5t-36.5 -114.5q0 -67 28 -95.5t99 -33.5zM451 189q0 69 -23 103q-14 21 -43 28.5t-100 12.5v-307q89 0 127.5 37.5t38.5 125.5z" />
    <glyph glyph-name="cent.taboldstyle" unicode="&#xf654;" horiz-adv-x="545" 
d="M466 126q3 -54 -31 -88q-45 -45 -138 -45v-88h-27v88q-96 1 -141 51q-23 26 -32.5 68.5t-9.5 125.5t9.5 125.5t32.5 68.5q47 50 141 50v93h27v-93q95 0 137 -42q16 -16 24 -38.5t8 -37.5v-14h-26q0 44 -24 68q-37 37 -119 37v-435q88 2 121 39q11 12 16.5 28.5t5.5 27.5
v11h26zM270 20v435q-84 0 -121 -42q-19 -22 -26.5 -60t-7.5 -115t7.5 -115t26.5 -60q35 -39 121 -43z" />
    <glyph glyph-name="zero.dnom" unicode="&#xf655;" 
d="M290 201q0 -126 -14 -155q-26 -52 -111 -52q-93 0 -115 64q-10 28 -10 143q0 123 15 153q26 52 110 52q94 0 116 -65q9 -28 9 -140zM263 201q0 117 -11 141q-17 39 -87 39q-76 0 -90 -49q-8 -25 -8 -131q0 -116 12 -143q17 -39 86 -39q77 0 91 49q7 22 7 133z" />
    <glyph glyph-name="one.dnom" unicode="&#xf656;" 
d="M272 0h-211v24h92v343l-75 -71l-17 17l92 87h27v-376h92v-24z" />
    <glyph glyph-name="two.dnom" unicode="&#xf657;" 
d="M287 295q0 -58 -30 -85q-23 -22 -99 -41q-53 -15 -69 -26q-19 -14 -19 -67v-51h216v-25h-243v87q0 39 14 60q13 18 37 28q19 7 57 18q36 10 37 11q39 12 56 31.5t17 59.5q0 34 -10 53q-17 33 -86 33q-50 0 -73.5 -13.5t-23.5 -46.5h-26q0 46 30.5 65.5t91.5 19.5
q63 0 92 -23q31 -24 31 -88z" />
    <glyph glyph-name="three.dnom" unicode="&#xf658;" 
d="M295 107q0 -58 -27 -85q-28 -28 -101 -28q-62 0 -92.5 19.5t-30.5 65.5h27q0 -33 23 -46.5t73 -13.5q65 0 84 20q18 18 18 67q0 60 -24 78q-21 17 -76 17h-58v24h58q53 0 76 17q20 14 20 60t-20 62.5t-76 16.5q-50 0 -73 -13.5t-23 -46.5h-26q0 85 122 85
q67 0 94.5 -22.5t27.5 -79.5t-26 -77q-11 -10 -27 -14q57 -19 57 -106z" />
    <glyph glyph-name="four.dnom" unicode="&#xf659;" 
d="M282 118h-63v-118h-26v118h-178v25l178 257h26v-259h63v-23zM193 141v216l-149 -216h149z" />
    <glyph glyph-name="five.dnom" unicode="&#xf65a;" 
d="M168 -6q-62 0 -93 19t-31 64h27q0 -33 23 -45.5t74 -12.5q57 0 79.5 20.5t22.5 78.5q0 63 -19.5 87.5t-82.5 24.5q-39 0 -65 -15.5t-27 -42.5h-26v228h233v-23h-206v-156q29 34 91 34q71 0 99.5 -30.5t28.5 -103.5q0 -69 -28.5 -98t-99.5 -29z" />
    <glyph glyph-name="six.dnom" unicode="&#xf65b;" 
d="M287 123q0 -70 -28.5 -99.5t-96.5 -29.5q-88 0 -111 65q-13 33 -13 123q0 112 6 141q15 83 118 83q120 0 120 -89h-26q0 64 -94 64q-72 0 -88 -50q-9 -27 -9 -130q26 54 97 54q68 0 96.5 -28t28.5 -104zM261 123q0 67 -22.5 87t-76.5 20q-41 0 -68.5 -25.5t-27.5 -78.5
q0 -107 96 -107q55 0 77 23t22 81z" />
    <glyph glyph-name="seven.dnom" unicode="&#xf65c;" 
d="M293 379l-177 -379h-31l177 376h-218v24h249v-21z" />
    <glyph glyph-name="eight.dnom" unicode="&#xf65d;" 
d="M291 110q0 -66 -29.5 -91t-96.5 -25t-96 24.5t-29 91.5q0 80 49 100q-27 11 -36 31.5t-9 58.5q0 58 27.5 82t93.5 24t94 -24t28 -82q0 -69 -44 -90q48 -22 48 -100zM265 108q0 54 -22 72.5t-78 18.5t-77.5 -17.5t-21.5 -72.5q0 -54 21.5 -72t77.5 -18q55 0 77.5 18
t22.5 71zM261 298q0 47 -20.5 65t-75.5 18t-75 -17.5t-20 -63.5q0 -49 21 -64t74 -15q54 0 75 14t21 63z" />
    <glyph glyph-name="nine.dnom" unicode="&#xf65e;" 
d="M43 277q0 70 28.5 99.5t96.5 29.5q88 0 111 -65q13 -33 13 -123q0 -112 -6 -141q-15 -83 -118 -83q-120 0 -120 89h26q0 -64 94 -64q72 0 88 50q9 27 9 130q-26 -54 -97 -54q-68 0 -96.5 28t-28.5 104zM69 277q0 -67 22.5 -87t76.5 -20q41 0 68.5 25.5t27.5 78.5
q0 107 -96 107q-55 0 -77 -23t-22 -81z" />
    <glyph glyph-name="zero.numr" unicode="&#xf661;" 
d="M290 468q0 -126 -14 -155q-26 -52 -111 -52q-93 0 -115 64q-10 27 -10 143q0 123 15 153q26 52 110 52q94 0 116 -65q9 -28 9 -140zM263 468q0 117 -11 141q-17 39 -87 39q-76 0 -90 -49q-8 -25 -8 -131q0 -116 12 -143q17 -39 86 -39q77 0 91 49q7 22 7 133z" />
    <glyph glyph-name="one.numr" unicode="&#xf662;" 
d="M272 267h-211v24h92v343l-75 -71l-17 17l92 87h27v-376h92v-24z" />
    <glyph glyph-name="two.numr" unicode="&#xf663;" 
d="M287 562q0 -58 -30 -85q-23 -22 -99 -41q-53 -15 -69 -26q-19 -14 -19 -67v-51h216v-25h-243v87q0 39 14 60q13 18 37 28q19 7 57 18q36 10 37 11q39 12 56 31.5t17 59.5q0 34 -10 53q-17 33 -86 33q-50 0 -73.5 -13.5t-23.5 -46.5h-26q0 46 30.5 65.5t91.5 19.5
q63 0 92 -23q31 -24 31 -88z" />
    <glyph glyph-name="three.numr" unicode="&#xf664;" 
d="M295 374q0 -58 -27 -85q-28 -28 -101 -28q-62 0 -92.5 19.5t-30.5 65.5h27q0 -33 23 -46.5t73 -13.5q65 0 84 20q18 18 18 67q0 60 -24 78q-21 17 -76 17h-58v24h58q53 0 76 17q20 14 20 60t-20 62.5t-76 16.5q-50 0 -73 -13.5t-23 -46.5h-26q0 85 122 85
q67 0 94.5 -22.5t27.5 -79.5t-26 -77q-11 -10 -27 -14q57 -19 57 -106z" />
    <glyph glyph-name="four.numr" unicode="&#xf665;" 
d="M282 385h-63v-118h-26v118h-178v25l178 257h26v-259h63v-23zM193 408v216l-149 -216h149z" />
    <glyph glyph-name="five.numr" unicode="&#xf666;" 
d="M168 261q-62 0 -93 19t-31 64h27q0 -33 23 -45.5t74 -12.5q57 0 79.5 20.5t22.5 78.5q0 63 -19.5 87.5t-82.5 24.5q-39 0 -65 -15.5t-27 -42.5h-26v228h233v-23h-206v-156q29 34 91 34q71 0 99.5 -30.5t28.5 -103.5q0 -69 -28.5 -98t-99.5 -29z" />
    <glyph glyph-name="six.numr" unicode="&#xf667;" 
d="M287 390q0 -70 -28.5 -99.5t-96.5 -29.5q-88 0 -111 65q-13 33 -13 123q0 112 6 141q15 83 118 83q120 0 120 -89h-26q0 64 -94 64q-72 0 -88 -50q-9 -27 -9 -130q26 54 97 54q68 0 96.5 -28t28.5 -104zM261 390q0 67 -22.5 87t-76.5 20q-41 0 -68.5 -25.5t-27.5 -78.5
q0 -107 96 -107q55 0 77 23t22 81z" />
    <glyph glyph-name="seven.numr" unicode="&#xf668;" 
d="M293 646l-177 -379h-31l177 376h-218v24h249v-21z" />
    <glyph glyph-name="eight.numr" unicode="&#xf669;" 
d="M291 377q0 -66 -29.5 -91t-96.5 -25t-96 24.5t-29 91.5q0 80 49 100q-27 11 -36 31.5t-9 58.5q0 58 27.5 82t93.5 24t94 -24t28 -82q0 -69 -44 -90q48 -22 48 -100zM265 375q0 54 -22 72.5t-78 18.5t-77.5 -17.5t-21.5 -72.5q0 -54 21.5 -72t77.5 -18q55 0 77.5 18
t22.5 71zM261 565q0 47 -20.5 65t-75.5 18t-75 -17.5t-20 -63.5q0 -49 21 -64t74 -15q54 0 75 14t21 63z" />
    <glyph glyph-name="nine.numr" unicode="&#xf66a;" 
d="M43 544q0 70 28.5 99.5t96.5 29.5q88 0 111 -65q13 -33 13 -123q0 -112 -6 -141q-15 -83 -118 -83q-120 0 -120 89h26q0 -64 94 -64q72 0 88 50q9 27 9 130q-26 -54 -97 -54q-68 0 -96.5 28t-28.5 104zM69 544q0 -67 22.5 -87t76.5 -20q41 0 68.5 25.5t27.5 78.5
q0 107 -96 107q-55 0 -77 -23t-22 -81z" />
    <glyph glyph-name="Acute" unicode="&#xf6c9;" horiz-adv-x="410" 
d="M290 858l-132 -132h-37l132 132h37z" />
    <glyph glyph-name="Caron" unicode="&#xf6ca;" horiz-adv-x="410" 
d="M359 872l-132 -132h-40l-133 132h36l114 -117l118 117h37z" />
    <glyph glyph-name="Dieresis" unicode="&#xf6cb;" horiz-adv-x="409" 
d="M337 830q0 -26 -26 -26t-26 26q0 25 26 25t26 -25zM124 830q0 -26 -26 -26t-26 26q0 25 26 25t26 -25z" />
    <glyph glyph-name="Grave" unicode="&#xf6ce;" horiz-adv-x="410" 
d="M290 726h-36l-133 132h36z" />
    <glyph glyph-name="Hungarumlaut" unicode="&#xf6cf;" horiz-adv-x="410" 
d="M407 858l-132 -132h-37l132 132h37zM242 858l-131 -132h-37l132 132h36z" />
    <glyph glyph-name="Macron" unicode="&#xf6d0;" horiz-adv-x="410" 
d="M360 813h-309v26h309v-26z" />
    <glyph glyph-name="one.fitted" unicode="&#xf6dc;" horiz-adv-x="545" 
d="M466 0h-352v26h162v608l-144 -130l-18 18l162 145h28v-641h162v-26z" />
    <glyph glyph-name="zerooldstyle" unicode="&#xf730;" horiz-adv-x="557" 
d="M474 333q0 -188 -16 -234q-34 -106 -180 -106q-145 0 -180 106q-16 49 -16 234q0 126 5 175.5t19 79.5q41 86 172 86t172 -86q14 -30 19 -79.5t5 -175.5zM446 333q0 180 -14 223q-13 48 -49.5 69.5t-104.5 21.5q-67 0 -103.5 -21.5t-50.5 -69.5t-14 -223q0 -191 20 -240
q17 -38 52 -55.5t96 -17.5q117 0 148 73q20 46 20 240z" />
    <glyph glyph-name="oneoldstyle" unicode="&#xf731;" horiz-adv-x="443" 
d="M415 0h-352v26h162v608l-144 -130l-18 18l162 145h28v-641h162v-26z" />
    <glyph glyph-name="twooldstyle" unicode="&#xf732;" horiz-adv-x="545" 
d="M469 492q0 -92 -46 -135q-32 -32 -138.5 -63t-133.5 -52q-16 -13 -24 -37t-8.5 -37.5t-0.5 -45.5v-95h349v-27h-378v141q0 42 6.5 68.5t29.5 48.5q25 23 83 40.5l115.5 36t82.5 45.5q35 36 35 112q0 63 -16 94q-28 61 -146 61q-83 0 -123.5 -24t-40.5 -81h-27
q0 70 47 101t142 31q98 0 144 -38q48 -39 48 -144z" />
    <glyph glyph-name="threeoldstyle" unicode="&#xf733;" horiz-adv-x="546" 
d="M463 178q0 -96 -41 -140q-42 -45 -160 -45q-96 0 -142.5 31t-46.5 101h27q0 -57 39.5 -81t122.5 -24q109 0 141 37q32 36 32 118q0 95 -41 128q-37 30 -127 30h-87v27h87q88 0 127 31q35 27 35 113q0 82 -34.5 112.5t-127.5 30.5q-83 0 -122 -24t-39 -81h-27q0 70 46 101
t142 31q105 0 147.5 -37t42.5 -130q0 -97 -40 -130q-28 -23 -71 -30q61 -9 89 -49t28 -120z" />
    <glyph glyph-name="fouroldstyle" unicode="&#xf734;" horiz-adv-x="547" 
d="M483 206h-98v-206h-28v206h-301v26l296 435h33v-435h98v-26zM357 232v397l-269 -397h269z" />
    <glyph glyph-name="fiveoldstyle" unicode="&#xf735;" horiz-adv-x="557" 
d="M472 200q0 -115 -45 -160q-46 -47 -152 -47q-96 0 -141 30.5t-45 101.5h27q0 -57 38 -81t121 -24q96 0 132.5 38t36.5 138q0 108 -30 144q-36 45 -128 45q-150 0 -160 -93h-25v375h349v-27h-323v-288q42 60 161 60q108 0 148 -54q36 -46 36 -158z" />
    <glyph glyph-name="sixoldstyle" unicode="&#xf736;" horiz-adv-x="552" 
d="M473 201q0 -109 -45.5 -158.5t-145.5 -49.5q-141 0 -178 106q-21 57 -21 205q0 168 13 240q11 67 57 98.5t132 31.5q179 0 179 -132h-27q0 105 -151 105q-70 0 -107 -21.5t-51 -70.5q-17 -58 -17 -224v-23q43 104 175 104q102 0 144.5 -48t42.5 -163zM446 200
q0 103 -34 144t-120 41q-176 0 -176 -180q0 -96 40 -140.5t126 -44.5q89 0 126.5 41.5t37.5 138.5z" />
    <glyph glyph-name="sevenoldstyle" unicode="&#xf737;" horiz-adv-x="450" 
d="M416 640l-288 -640h-30l288 640h-353v27h383v-27z" />
    <glyph glyph-name="eightoldstyle" unicode="&#xf738;" horiz-adv-x="558" 
d="M476 178q0 -96 -41 -140q-44 -45 -155 -45q-63 0 -98.5 10t-57.5 35q-42 44 -42 140q0 79 29 119.5t90 49.5q-45 7 -72 30q-41 34 -41 130q0 93 43 130t148 37t148 -37t43 -130q0 -96 -40 -130q-30 -23 -72 -30q61 -9 89.5 -49t28.5 -120zM441 504h1q0 82 -34.5 112.5
t-127.5 30.5t-128.5 -30.5t-35.5 -110.5q0 -86 36 -115q41 -31 127 -31q88 0 127 31q35 27 35 113zM448 175q0 94 -41 128q-38 30 -127 30q-91 0 -128 -30q-42 -35 -42 -127q0 -82 32 -119q19 -21 49 -29t88 -8t88.5 8.5t47.5 28.5q33 38 33 118z" />
    <glyph glyph-name="nineoldstyle" unicode="&#xf739;" horiz-adv-x="552" 
d="M469 363q0 -168 -13 -240q-11 -67 -57 -98.5t-132 -31.5q-179 0 -179 132h27q0 -105 151 -105q70 0 107 21.5t51 70.5q17 55 17 224v23q-43 -104 -175 -104q-102 0 -144.5 48t-42.5 163q0 109 45.5 158.5t145.5 49.5q141 0 178 -106q21 -57 21 -205zM436 462
q0 96 -40 140.5t-126 44.5q-89 0 -126.5 -41.5t-37.5 -138.5q0 -103 34 -144t120 -41q176 0 176 180z" />
    <glyph glyph-name="Foundry" unicode="&#xf8ff;" horiz-adv-x="819" 
d="M732 334q0 -115 -16 -175t-52 -97q-37 -37 -96.5 -53t-157.5 -16t-158 16t-96 53q-37 37 -53 98t-16 176t16 175.5t52 97.5q36 36 95 50.5t159 14.5t159.5 -14.5t94.5 -50.5q36 -36 52.5 -98t16.5 -177zM703 337h1q0 109 -13.5 164.5t-45.5 88.5q-59 58 -235 58
q-177 0 -235 -58q-33 -33 -46.5 -90t-13.5 -167q0 -109 13.5 -164t45.5 -88q40 -40 110 -52v309h-63v26h62v65q0 60 32 96q34 37 112 37q83 0 116 -37q33 -36 33 -97h-27q0 50 -23 76q-30 32 -96 32q-67 0 -95 -32q-24 -25 -24 -75v-65h228v-26h-228v-313q39 -6 98 -6
q173 0 235 62q33 33 46 89.5t13 166.5z" />
    <glyph glyph-name="Ring" unicode="&#xfff3;" horiz-adv-x="411" 
d="M286 788v7q0 50 -16 66q-18 18 -65 18t-65 -18q-15 -15 -15 -66v-7q0 -48 15 -63q17 -17 66 -17q47 0 64 17q16 16 16 63zM311 797v-7q0 -58 -24 -82q-23 -23 -82 -23q-58 0 -81 23q-24 24 -24 81v7q0 58 24 82q23 23 81 23q59 0 82 -23q24 -24 24 -81z" />
    <glyph glyph-name="CR" horiz-adv-x="495" 
 />
    <glyph glyph-name="commaaccent" horiz-adv-x="410" 
d="M236 -62q0 -45 -8 -69.5t-32 -48.5l-19 -19l-21 20l20 20q15 15 22 33.5t7.5 28.5t0.5 35v14h30v-14z" />
    <glyph glyph-name="Commaaccent" horiz-adv-x="410" 
d="M236 -62q0 -45 -8 -69.5t-32 -48.5l-19 -19l-21 20l20 20q15 15 22 33.5t7.5 28.5t0.5 35v14h30v-14z" />
    <glyph glyph-name="dollar.fitted" horiz-adv-x="545" 
d="M479 185q0 -97 -46 -141t-148 -44v-99l-28 1v98q-99 0 -145 28.5t-46 95.5h27q0 -55 39 -76.5t125 -21.5v309q-20 1 -35 3q-82 7 -116.5 42.5t-34.5 117.5q0 99 59 139q44 30 127 30v95h28v-95q98 0 142 -28.5t44 -96.5h-27q0 55 -37 76.5t-122 21.5v-280q6 -1 33 -3
t47.5 -4.5t45 -12.5t37.5 -27q31 -40 31 -128zM257 362v278q-85 0 -121.5 -32.5t-36.5 -114.5q0 -67 28 -95.5t99 -33.5zM451 189q0 69 -23 103q-14 21 -43 28.5t-100 12.5v-307q89 0 127.5 37.5t38.5 125.5z" />
    <glyph glyph-name="cent.fitted" horiz-adv-x="545" 
d="M466 126q3 -54 -31 -88q-45 -45 -138 -45v-88h-27v88q-96 1 -141 51q-23 26 -32.5 68.5t-9.5 125.5t9.5 125.5t32.5 68.5q47 50 141 50v93h27v-93q95 0 137 -42q16 -16 24 -38.5t8 -37.5v-14h-26q0 44 -24 68q-37 37 -119 37v-435q88 2 121 39q11 12 16.5 28.5t5.5 27.5
v11h26zM270 20v435q-84 0 -121 -42q-19 -22 -26.5 -60t-7.5 -115t7.5 -115t26.5 -60q35 -39 121 -43z" />
    <glyph glyph-name="sterling.fitted" horiz-adv-x="545" 
d="M499 0h-439v27h58v294h-58v26h58v117v21v21.5t0.5 19t1.5 20.5t2.5 17.5t4 18l6 15.5t9 16t11.5 13q50 48 152 48q33 0 56 -2t49.5 -9.5t42.5 -21t26.5 -39t10.5 -60.5h-27q0 63 -39 84t-108 21q-101 0 -143 -42q-14 -14 -20.5 -40t-7 -41.5t-0.5 -56.5v-120h299v-26
h-299v-294h354v-27z" />
    <glyph glyph-name="florin.fitted" horiz-adv-x="545" 
d="M499 542h-27q0 63 -39 84t-108 21q-101 0 -143 -42q-14 -14 -20.5 -40t-7 -41.5t-0.5 -56.5v-120h299v-26h-298v-512h-28v512h-58v26h58v117v21v21.5t0.5 19t1.5 20.5t2.5 17.5t4 18l6 15.5t9 16t11.5 13q50 48 152 48q33 0 56 -2t49.5 -9.5t42.5 -21t26.5 -39
t10.5 -60.5z" />
    <glyph glyph-name="yen.fitted" horiz-adv-x="545" 
d="M503 667l-154 -264h98v-25h-112l-50 -86h162v-25h-160v-267h-28v267h-161v25h163l-51 86h-112v25h98l-155 264h32l201 -346l198 346h31z" />
    <glyph glyph-name="Eurooldstyle" horiz-adv-x="557" 
d="M501 125q0 -132 -182 -132q-146 0 -180 106q-15 44 -15 166h-58v26h58v86h-58v26h57q0 135 23 185q42 86 172 86q111 0 154 -48q29 -31 29 -84h-27q0 41 -23 66q-41 39 -132 39q-68 0 -104 -21.5t-50 -69.5q-14 -44 -14 -153h183v-26h-183v-86h183v-26h-183
q0 -125 19 -172q17 -38 52 -55.5t96 -17.5q155 0 155 105h28z" />
    <glyph glyph-name="dollaroldstyle" horiz-adv-x="548" 
d="M480 185q0 -97 -46 -141t-148 -44v-99l-28 1v98q-99 0 -145 28.5t-46 95.5h27q0 -55 39 -76.5t125 -21.5v309q-20 1 -35 3q-82 7 -116.5 42.5t-34.5 117.5q0 99 59 139q44 30 127 30v95h28v-95q98 0 142 -28.5t44 -96.5h-27q0 55 -37 76.5t-122 21.5v-280q6 -1 33 -3
t47.5 -4.5t45 -12.5t37.5 -27q31 -40 31 -128zM258 362v278q-85 0 -121.5 -32.5t-36.5 -114.5q0 -67 28 -95.5t99 -33.5zM452 189q0 69 -23 103q-14 21 -43 28.5t-100 12.5v-307q89 0 127.5 37.5t38.5 125.5z" />
    <glyph glyph-name="centoldstyle" horiz-adv-x="511" 
d="M449 126q3 -54 -31 -88q-45 -45 -138 -45v-88h-27v88q-96 1 -141 51q-23 26 -32.5 68.5t-9.5 125.5t9.5 125.5t32.5 68.5q47 50 141 50v93h27v-93q95 0 137 -42q16 -16 24 -38.5t8 -37.5v-14h-26q0 44 -24 68q-37 37 -119 37v-435q88 2 121 39q11 12 16.5 28.5t5.5 27.5
v11h26zM253 20v435q-83 0 -121 -42q-19 -22 -26.5 -60t-7.5 -115t7.5 -115t26.5 -60q35 -39 121 -43z" />
    <glyph glyph-name="sterlingoldstyle" horiz-adv-x="557" 
d="M505 0h-439v27h58v294h-58v26h58v117v21v21.5t0.5 19t1.5 20.5t2.5 17.5t4 18l6 15.5t9 16t11.5 13q50 48 152 48q33 0 56 -2t49.5 -9.5t42.5 -21t26.5 -39t10.5 -60.5h-27q0 63 -39 84t-108 21q-101 0 -143 -42q-14 -14 -20.5 -40t-7 -41.5t-0.5 -56.5v-120h299v-26
h-299v-294h354v-27z" />
    <glyph glyph-name="florinoldstyle" horiz-adv-x="557" 
d="M505 542h-27q0 63 -39 84t-108 21q-101 0 -143 -42q-14 -14 -20.5 -40t-7 -41.5t-0.5 -56.5v-120h299v-26h-298v-512h-28v512h-58v26h58v117v21v21.5t0.5 19t1.5 20.5t2.5 17.5t4 18l6 15.5t9 16t11.5 13q50 48 152 48q33 0 56 -2t49.5 -9.5t42.5 -21t26.5 -39
t10.5 -60.5z" />
    <glyph glyph-name="yenoldstyle" horiz-adv-x="528" 
d="M495 667l-154 -264h98v-25h-112l-50 -86h162v-25h-160v-267h-28v267h-161v25h163l-51 86h-112v25h98l-155 264h32l201 -346l198 346h31z" />
    <glyph glyph-name="commaaccent.cap" horiz-adv-x="410" 
d="M236 -62q0 -45 -8 -69.5t-32 -48.5l-19 -19l-21 20l20 20q15 15 22 33.5t7.5 28.5t0.5 35v14h30v-14z" />
    </font>
</defs>
</svg>
